<svg class="main-svg" xmlns="http://www.w3.org/2000/svg" xmlns:xlink="http://www.w3.org/1999/xlink" width="2400" height="1950" style="" viewBox="0 0 800 650"><rect x="0" y="0" width="800" height="650" style="fill: rgb(255, 255, 255); fill-opacity: 1;"/><defs id="defs-0e85e1"><g class="clips"><clipPath id="clip0e85e1xyplot" class="plotclip"><rect width="689" height="567"/></clipPath><clipPath class="axesclip" id="clip0e85e1x"><rect x="89" y="0" width="689" height="650"/></clipPath><clipPath class="axesclip" id="clip0e85e1y"><rect x="0" y="5" width="800" height="567"/></clipPath><clipPath class="axesclip" id="clip0e85e1xy"><rect x="89" y="5" width="689" height="567"/></clipPath></g><g class="gradients"/><g class="patterns"/></defs><g class="bglayer"/><g class="layer-below"><g class="imagelayer"/><g class="shapelayer"/></g><g class="cartesianlayer"><g class="subplot xy"><g class="layer-subplot"><g class="shapelayer"/><g class="imagelayer"/></g><g class="minor-gridlayer"><g class="x"/><g class="y"/></g><g class="gridlayer"><g class="x"><path class="xgrid crisp" transform="translate(433.33,0)" d="M0,5v567" style="stroke: rgb(235, 240, 248); stroke-opacity: 1; stroke-width: 1px;"/></g><g class="y"><path class="ygrid crisp" transform="translate(0,420.34)" d="M89,0h689" style="stroke: rgb(235, 240, 248); stroke-opacity: 1; stroke-width: 1px;"/><path class="ygrid crisp" transform="translate(0,319.62)" d="M89,0h689" style="stroke: rgb(235, 240, 248); stroke-opacity: 1; stroke-width: 1px;"/><path class="ygrid crisp" transform="translate(0,218.9)" d="M89,0h689" style="stroke: rgb(235, 240, 248); stroke-opacity: 1; stroke-width: 1px;"/><path class="ygrid crisp" transform="translate(0,118.18)" d="M89,0h689" style="stroke: rgb(235, 240, 248); stroke-opacity: 1; stroke-width: 1px;"/><path class="ygrid crisp" transform="translate(0,17.47)" d="M89,0h689" style="stroke: rgb(235, 240, 248); stroke-opacity: 1; stroke-width: 1px;"/></g></g><g class="zerolinelayer"><path class="xzl zl crisp" transform="translate(89,0)" d="M0,5v567" style="stroke: rgb(235, 240, 248); stroke-opacity: 1; stroke-width: 2px;"/><path class="yzl zl crisp" transform="translate(0,521.05)" d="M89,0h689" style="stroke: rgb(235, 240, 248); stroke-opacity: 1; stroke-width: 2px;"/></g><path class="xlines-below"/><path class="ylines-below"/><g class="overlines-below"/><g class="xaxislayer-below"/><g class="yaxislayer-below"/><g class="overaxes-below"/><g class="plot" transform="translate(89,5)" clip-path="url(#clip0e85e1xyplot)"><g class="scatterlayer mlayer"><g class="trace scatter tracec67aee" style="stroke-miterlimit: 2; opacity: 1;"><g class="fills"/><g class="errorbars"/><g class="lines"><path class="js-line" d="M0.01,453.1L13.78,448.91L27.55,454.5L41.33,463.6L55.1,453.94L82.65,465.69L96.42,453.8L110.19,443.31L123.97,434.92L137.74,430.02L151.51,423.73L165.29,407.64L179.06,418.83L192.83,420.23L206.61,423.73L220.38,425.13L234.15,413.24L247.92,417.43L261.7,416.73L275.47,422.33L289.24,406.94L303.02,409.74L316.79,417.43L330.56,416.73L344.34,418.13L358.11,406.24L371.88,407.64L385.66,413.24L399.43,411.84L413.2,413.94L426.98,406.94L440.75,420.93L454.52,421.63L468.29,421.63L482.07,413.94L509.61,424.43L523.39,426.53L537.16,431.42L550.93,424.43L564.71,423.03L578.48,411.14L606.03,388.06L619.8,380.36L633.57,383.16L647.34,388.06L661.12,376.87L674.89,383.86L688.66,385.96" style="vector-effect: none; fill: none; stroke: rgb(140, 86, 75); stroke-opacity: 1; stroke-width: 2.5px; opacity: 1;"/></g><g class="points"/><g class="text"/></g><g class="trace scatter trace134062" style="stroke-miterlimit: 2;"><g class="fills"><g><path class="js-fill" d="M13.78,454.84L27.55,465.06L41.33,483.72L55.1,481.69L68.87,489.13L96.42,502.63L110.19,495.7L123.97,481.93L137.74,480.85L151.51,467.34L165.29,439.65L179.06,448.08L192.83,448.75L206.61,456.23L220.38,455.81L234.15,444.73L247.92,446.84L261.7,445.52L275.47,453.01L289.24,437.2L303.02,439.37L316.79,444.21L330.56,443.63L344.34,446.43L358.11,436.08L371.88,435.53L385.66,445.06L399.43,443.06L413.2,445.53L426.98,434.78L440.75,449.6L482.07,447.79L495.84,457.81L523.39,466.57L537.16,466.37L550.93,460.37L564.71,461.44L578.48,447.82L592.25,439.19L606.03,409.25L619.8,399.81L633.57,407.15L647.34,410.54L661.12,413.1L674.89,420.42L688.66,424.15L688.66,347.77L674.89,347.3L661.12,340.63L647.34,365.58L633.57,359.18L619.8,360.92L606.03,366.87L592.25,359.31L578.48,374.46L564.71,384.62L550.93,388.48L537.16,396.47L523.39,386.48L509.61,386.85L495.84,381.25L482.07,380.09L468.29,394.21L454.52,394.21L440.75,392.26L426.98,379.11L413.2,382.35L399.43,380.61L385.66,381.41L371.88,379.75L358.11,376.4L344.34,389.84L330.56,389.84L316.79,390.66L303.02,380.11L289.24,376.68L275.47,391.64L261.7,387.94L247.92,388.03L234.15,381.75L220.38,394.44L206.61,391.22L192.83,391.72L179.06,389.59L165.29,375.64L151.51,380.12L137.74,379.19L123.97,387.91L110.19,390.92L96.42,404.98L82.65,435.08L68.87,431.06L55.1,426.2L41.33,443.47L27.55,443.94L13.78,442.97Z" style="fill: rgb(140, 86, 75); fill-opacity: 0.1; stroke-width: 0;"/></g></g><g class="errorbars"/><g class="lines"><path class="js-line" d="M13.78,442.97L27.55,443.94L41.33,443.47L55.1,426.2L68.87,431.06L82.65,435.08L96.42,404.98L110.19,390.92L123.97,387.91L137.74,379.19L151.51,380.12L165.29,375.64L179.06,389.59L192.83,391.72L206.61,391.22L220.38,394.44L234.15,381.75L247.92,388.03L261.7,387.94L275.47,391.64L289.24,376.68L303.02,380.11L316.79,390.66L330.56,389.84L344.34,389.84L358.11,376.4L371.88,379.75L385.66,381.41L399.43,380.61L413.2,382.35L426.98,379.11L440.75,392.26L454.52,394.21L468.29,394.21L482.07,380.09L495.84,381.25L509.61,386.85L523.39,386.48L537.16,396.47L550.93,388.48L564.71,384.62L578.48,374.46L592.25,359.31L606.03,366.87L619.8,360.92L633.57,359.18L647.34,365.58L661.12,340.63L674.89,347.3L688.66,347.77" style="vector-effect: none; fill: none; stroke: rgb(239, 85, 59); stroke-opacity: 1; stroke-width: 0px; opacity: 1;"/></g><g class="points"/><g class="text"/></g><g class="trace scatter trace56178f" style="stroke-miterlimit: 2;"><g class="fills"/><g class="errorbars"/><g class="lines"><path class="js-line" d="M13.78,454.84L27.55,465.06L41.33,483.72L55.1,481.69L68.87,489.13L96.42,502.63L110.19,495.7L123.97,481.93L137.74,480.85L151.51,467.34L165.29,439.65L179.06,448.08L192.83,448.75L206.61,456.23L220.38,455.81L234.15,444.73L247.92,446.84L261.7,445.52L275.47,453.01L289.24,437.2L303.02,439.37L316.79,444.21L330.56,443.63L344.34,446.43L358.11,436.08L371.88,435.53L385.66,445.06L399.43,443.06L413.2,445.53L426.98,434.78L440.75,449.6L482.07,447.79L495.84,457.81L523.39,466.57L537.16,466.37L550.93,460.37L564.71,461.44L578.48,447.82L592.25,439.19L606.03,409.25L619.8,399.81L633.57,407.15L647.34,410.54L661.12,413.1L674.89,420.42L688.66,424.15" style="vector-effect: none; fill: none; stroke: rgb(0, 204, 150); stroke-opacity: 1; stroke-width: 0px; opacity: 1;"/></g><g class="points"/><g class="text"/></g><g class="trace scatter trace428268" style="stroke-miterlimit: 2; opacity: 1;"><g class="fills"/><g class="errorbars"/><g class="lines"><path class="js-line" d="M0.01,415.34L13.78,364.98L27.55,373.37L41.33,377.57L55.1,377.57L68.87,376.17L82.65,369.17L96.42,385.26L110.19,380.36L123.97,390.16L137.74,384.56L151.51,387.36L165.29,406.24L179.06,404.14L192.83,413.94L206.61,397.85L220.38,411.84L234.15,412.54L247.92,384.56L261.7,385.26L275.47,384.56L289.24,390.86L303.02,383.16L316.79,381.06L330.56,395.75L344.34,385.26L358.11,379.66L371.88,385.26L385.66,380.36L399.43,378.96L413.2,382.46L426.98,381.76L440.75,388.06L454.52,383.16L468.29,399.25L482.07,402.75L495.84,396.45L509.61,408.34L523.39,406.24L537.16,409.04L550.93,406.94L564.71,404.84L578.48,397.85L592.25,394.35L606.03,397.15L619.8,399.25L633.57,388.06L661.12,398.55L674.89,397.85L688.66,387.36" style="vector-effect: none; fill: none; stroke: rgb(148, 103, 189); stroke-opacity: 1; stroke-width: 2.5px; opacity: 1;"/></g><g class="points"/><g class="text"/></g><g class="trace scatter trace7c27e8" style="stroke-miterlimit: 2;"><g class="fills"><g><path class="js-fill" d="M13.78,436.19L27.55,425.78L41.33,421.18L68.87,410.12L82.65,397.26L96.42,400.6L110.19,398.3L123.97,423.73L137.74,423.08L151.51,425.14L165.29,460.4L179.06,458.32L192.83,463.85L206.61,449.75L220.38,457.22L234.15,457.48L247.92,426.25L261.7,427.26L275.47,425.91L289.24,429.08L303.02,416.8L316.79,414.57L330.56,410.69L344.34,411.86L358.11,401.83L371.88,413.9L385.66,412.07L399.43,411L413.2,418.99L426.98,419.3L440.75,428.64L454.52,420.19L468.29,440.91L482.07,442.2L495.84,434.06L523.39,428.51L537.16,430.56L550.93,423.94L564.71,424.84L578.48,428.51L592.25,424.96L606.03,429.84L619.8,433.38L633.57,418.41L647.34,423.64L661.12,421.53L674.89,421.35L688.66,411.05L688.66,363.67L674.89,374.35L661.12,375.56L647.34,362.27L633.57,357.71L619.8,365.11L592.25,363.74L578.48,367.19L564.71,384.85L550.93,389.95L537.16,387.52L523.39,383.97L509.61,385.41L495.84,358.85L482.07,363.29L468.29,357.58L454.52,346.13L440.75,347.48L426.98,344.23L413.2,345.93L385.66,348.66L371.88,356.62L344.34,358.66L330.56,380.82L316.79,347.55L303.02,349.52L289.24,352.63L275.47,343.21L261.7,343.26L247.92,342.88L234.15,367.6L220.38,366.45L206.61,345.95L192.83,364.02L179.06,349.97L165.29,352.08L151.51,349.57L137.74,346.04L123.97,356.58L110.19,362.43L96.42,369.92L82.65,341.08L68.87,342.21L55.1,339.8L41.33,333.95L27.55,320.95L13.78,293.76Z" style="fill: rgb(148, 103, 189); fill-opacity: 0.1; stroke-width: 0;"/></g></g><g class="errorbars"/><g class="lines"><path class="js-line" d="M13.78,293.76L27.55,320.95L41.33,333.95L55.1,339.8L68.87,342.21L82.65,341.08L96.42,369.92L110.19,362.43L123.97,356.58L137.74,346.04L151.51,349.57L165.29,352.08L179.06,349.97L192.83,364.02L206.61,345.95L220.38,366.45L234.15,367.6L247.92,342.88L261.7,343.26L275.47,343.21L289.24,352.63L303.02,349.52L316.79,347.55L330.56,380.82L344.34,358.66L371.88,356.62L385.66,348.66L413.2,345.93L426.98,344.23L440.75,347.48L454.52,346.13L468.29,357.58L482.07,363.29L495.84,358.85L509.61,385.41L523.39,383.97L537.16,387.52L550.93,389.95L564.71,384.85L578.48,367.19L592.25,363.74L619.8,365.11L633.57,357.71L647.34,362.27L661.12,375.56L674.89,374.35L688.66,363.67" style="vector-effect: none; fill: none; stroke: rgb(255, 161, 90); stroke-opacity: 1; stroke-width: 0px; opacity: 1;"/></g><g class="points"/><g class="text"/></g><g class="trace scatter tracec612f6" style="stroke-miterlimit: 2;"><g class="fills"/><g class="errorbars"/><g class="lines"><path class="js-line" d="M13.78,436.19L27.55,425.78L41.33,421.18L68.87,410.12L82.65,397.26L96.42,400.6L110.19,398.3L123.97,423.73L137.74,423.08L151.51,425.14L165.29,460.4L179.06,458.32L192.83,463.85L206.61,449.75L220.38,457.22L234.15,457.48L247.92,426.25L261.7,427.26L275.47,425.91L289.24,429.08L303.02,416.8L316.79,414.57L330.56,410.69L344.34,411.86L358.11,401.83L371.88,413.9L385.66,412.07L399.43,411L413.2,418.99L426.98,419.3L440.75,428.64L454.52,420.19L468.29,440.91L482.07,442.2L495.84,434.06L523.39,428.51L537.16,430.56L550.93,423.94L564.71,424.84L578.48,428.51L592.25,424.96L606.03,429.84L619.8,433.38L633.57,418.41L647.34,423.64L661.12,421.53L674.89,421.35L688.66,411.05" style="vector-effect: none; fill: none; stroke: rgb(25, 211, 243); stroke-opacity: 1; stroke-width: 0px; opacity: 1;"/></g><g class="points"/><g class="text"/></g><g class="trace scatter trace14e14a" style="stroke-miterlimit: 2; opacity: 1;"><g class="fills"/><g class="errorbars"/><g class="lines"><path class="js-line" d="M0.01,516.05L13.78,461.5L27.55,474.09L41.33,470.94L55.1,457.3L68.87,446.11L82.65,432.12L110.19,411.84L123.97,404.14L137.74,399.95L151.51,398.55L165.29,391.55L179.06,398.55L192.83,392.25L206.61,402.05L220.38,406.94L234.15,408.34L247.92,403.44L261.7,409.74L275.47,407.64L289.24,388.06L303.02,376.87L316.79,382.46L330.56,385.96L344.34,369.87L358.11,366.38L371.88,373.37L385.66,384.56L399.43,374.77L413.2,378.27L426.98,392.95L454.52,395.05L468.29,382.46L482.07,388.76L495.84,387.36L509.61,380.36L523.39,387.36L537.16,384.56L550.93,389.46L564.71,390.86L578.48,381.06L592.25,379.66L606.03,371.97L619.8,371.27L633.57,374.07L647.34,367.07L661.12,375.47L674.89,377.57L688.66,374.07" style="vector-effect: none; fill: none; stroke: rgb(214, 39, 40); stroke-opacity: 1; stroke-width: 2.5px; opacity: 1;"/></g><g class="points"/><g class="text"/></g><g class="trace scatter tracec79555" style="stroke-miterlimit: 2;"><g class="fills"><g><path class="js-fill" d="M13.78,538.65L27.55,532.84L41.33,519.32L55.1,509.12L68.87,499.96L82.65,473.67L96.42,476.59L110.19,453.92L123.97,438.92L137.74,436.4L151.51,435.61L165.29,424.78L179.06,423.02L192.83,406.49L206.61,438.38L220.38,441.24L234.15,441.56L247.92,441.67L261.7,447.62L275.47,446.32L289.24,414.03L303.02,407.18L316.79,418.31L330.56,420.26L344.34,405.52L358.11,400.64L371.88,409.47L385.66,418.52L399.43,403.19L413.2,408.92L426.98,413.8L440.75,413.59L454.52,415.68L468.29,414.36L482.07,420.24L495.84,418.27L509.61,408.28L523.39,418.27L537.16,414.08L550.93,409.21L564.71,411.99L592.25,410.93L606.03,397.93L619.8,396.69L633.57,399.03L647.34,384.22L661.12,384.57L674.89,385.07L688.66,388.22L688.66,359.92L674.89,370.06L661.12,366.37L647.34,349.93L633.57,349.11L619.8,345.85L606.03,346.01L592.25,348.4L578.48,350.41L564.71,369.72L550.93,369.7L537.16,355.04L523.39,356.44L509.61,352.44L495.84,356.44L482.07,357.28L468.29,350.57L454.52,374.42L440.75,373.72L426.98,372.11L413.2,347.61L399.43,346.35L385.66,350.61L371.88,337.27L358.11,332.11L344.34,334.22L330.56,351.66L316.79,346.61L303.02,346.56L289.24,362.09L275.47,368.96L261.7,371.86L247.92,365.22L234.15,375.12L220.38,372.64L206.61,365.71L192.83,378.02L179.06,374.08L165.29,358.33L151.51,361.49L137.74,363.49L123.97,369.37L110.19,369.75L96.42,366.67L82.65,390.58L68.87,392.26L55.1,405.48L41.33,422.56L27.55,415.34L13.78,384.34Z" style="fill: rgb(214, 39, 40); fill-opacity: 0.1; stroke-width: 0;"/></g></g><g class="errorbars"/><g class="lines"><path class="js-line" d="M13.78,384.34L27.55,415.34L41.33,422.56L55.1,405.48L68.87,392.26L82.65,390.58L96.42,366.67L110.19,369.75L123.97,369.37L137.74,363.49L151.51,361.49L165.29,358.33L179.06,374.08L192.83,378.02L206.61,365.71L220.38,372.64L234.15,375.12L247.92,365.22L261.7,371.86L275.47,368.96L289.24,362.09L303.02,346.56L316.79,346.61L330.56,351.66L344.34,334.22L358.11,332.11L371.88,337.27L385.66,350.61L399.43,346.35L413.2,347.61L426.98,372.11L440.75,373.72L454.52,374.42L468.29,350.57L482.07,357.28L495.84,356.44L509.61,352.44L523.39,356.44L537.16,355.04L550.93,369.7L564.71,369.72L578.48,350.41L592.25,348.4L606.03,346.01L619.8,345.85L633.57,349.11L647.34,349.93L661.12,366.37L674.89,370.06L688.66,359.92" style="vector-effect: none; fill: none; stroke: rgb(182, 232, 128); stroke-opacity: 1; stroke-width: 0px; opacity: 1;"/></g><g class="points"/><g class="text"/></g><g class="trace scatter tracec7c5f9" style="stroke-miterlimit: 2;"><g class="fills"/><g class="errorbars"/><g class="lines"><path class="js-line" d="M13.78,538.65L27.55,532.84L41.33,519.32L55.1,509.12L68.87,499.96L82.65,473.67L96.42,476.59L110.19,453.92L123.97,438.92L137.74,436.4L151.51,435.61L165.29,424.78L179.06,423.02L192.83,406.49L206.61,438.38L220.38,441.24L234.15,441.56L247.92,441.67L261.7,447.62L275.47,446.32L289.24,414.03L303.02,407.18L316.79,418.31L330.56,420.26L344.34,405.52L358.11,400.64L371.88,409.47L385.66,418.52L399.43,403.19L413.2,408.92L426.98,413.8L440.75,413.59L454.52,415.68L468.29,414.36L482.07,420.24L495.84,418.27L509.61,408.28L523.39,418.27L537.16,414.08L550.93,409.21L564.71,411.99L592.25,410.93L606.03,397.93L619.8,396.69L633.57,399.03L647.34,384.22L661.12,384.57L674.89,385.07L688.66,388.22" style="vector-effect: none; fill: none; stroke: rgb(255, 151, 255); stroke-opacity: 1; stroke-width: 0px; opacity: 1;"/></g><g class="points"/><g class="text"/></g><g class="trace scatter trace6cb15e" style="stroke-miterlimit: 2; opacity: 1;"><g class="fills"/><g class="errorbars"/><g class="lines"><path class="js-line" d="M0.01,482.48L13.78,421.63L27.55,416.73L41.33,416.38L55.1,407.78L68.87,405.54L82.65,384.56L96.42,382.46L110.19,374.77L123.97,365.68L137.74,367.07L151.51,359.38L165.29,364.28L179.06,378.96L192.83,388.06L206.61,392.95L220.38,388.76L234.15,390.86L247.92,382.46L261.7,365.68L275.47,346.09L289.24,332.1L303.02,325.81L316.79,322.31L330.56,325.81L344.34,327.21L358.11,332.8L371.88,341.2L385.66,338.4L399.43,342.59L413.2,325.81L426.98,319.51L440.75,318.81L454.52,313.22L468.29,316.02L482.07,305.53L495.84,322.31L509.61,324.41L523.39,322.31L537.16,323.01L550.93,322.31L564.71,314.62L578.48,311.12L592.25,306.22L606.03,307.62L619.8,302.73L633.57,296.43L647.34,307.62L661.12,298.53L674.89,298.53L688.66,288.04" style="vector-effect: none; fill: none; stroke: rgb(44, 160, 44); stroke-opacity: 1; stroke-width: 2.5px; opacity: 1;"/></g><g class="points"/><g class="text"/></g><g class="trace scatter tracef10e2d" style="stroke-miterlimit: 2;"><g class="fills"><g><path class="js-fill" d="M13.78,507.68L27.55,478.17L41.33,466.55L55.1,455.3L68.87,448.39L82.65,409.13L96.42,409.84L110.19,400.32L123.97,381.91L137.74,384.43L151.51,371.74L165.29,380.51L179.06,410.44L192.83,421.07L206.61,423.18L247.92,420.87L261.7,397.24L289.24,357.76L303.02,348.74L316.79,339.8L330.56,347.96L344.34,350.35L358.11,350.93L371.88,355.89L385.66,358.73L399.43,365.68L413.2,366.55L426.98,359.8L440.75,358.89L454.52,349.09L468.29,351.49L482.07,331.72L495.84,341.71L509.61,342.35L523.39,340.59L537.16,341.4L550.93,340.97L564.71,347.45L578.48,339.39L592.25,335.42L606.03,337.49L619.8,331.12L633.57,325.83L647.34,330.56L661.12,318.82L674.89,318.82L688.66,309.38L688.66,266.7L674.89,278.25L661.12,278.25L647.34,284.69L633.57,267.04L619.8,274.34L606.03,277.75L592.25,277.03L578.48,282.85L564.71,281.79L550.93,303.65L537.16,304.62L523.39,304.04L509.61,306.47L495.84,302.91L482.07,279.33L468.29,280.54L454.52,277.35L440.75,278.74L426.98,279.23L413.2,285.06L399.43,319.51L385.66,318.07L371.88,326.5L358.11,314.67L344.34,304.07L330.56,303.66L316.79,304.82L303.02,302.87L289.24,306.45L275.47,315.05L261.7,334.11L247.92,344.05L234.15,359.97L220.38,355.11L206.61,362.73L179.06,347.49L165.29,348.04L151.51,347.03L137.74,349.72L123.97,349.44L110.19,349.22L96.42,355.08L82.65,359.99L68.87,362.69L55.1,360.27L41.33,366.22L27.55,355.3L13.78,335.57Z" style="fill: rgb(44, 160, 44); fill-opacity: 0.1; stroke-width: 0;"/></g></g><g class="errorbars"/><g class="lines"><path class="js-line" d="M13.78,335.57L27.55,355.3L41.33,366.22L55.1,360.27L68.87,362.69L82.65,359.99L96.42,355.08L110.19,349.22L123.97,349.44L137.74,349.72L151.51,347.03L165.29,348.04L179.06,347.49L206.61,362.73L220.38,355.11L234.15,359.97L247.92,344.05L261.7,334.11L275.47,315.05L289.24,306.45L303.02,302.87L316.79,304.82L330.56,303.66L344.34,304.07L358.11,314.67L371.88,326.5L385.66,318.07L399.43,319.51L413.2,285.06L426.98,279.23L440.75,278.74L454.52,277.35L468.29,280.54L482.07,279.33L495.84,302.91L509.61,306.47L523.39,304.04L537.16,304.62L550.93,303.65L564.71,281.79L578.48,282.85L592.25,277.03L606.03,277.75L619.8,274.34L633.57,267.04L647.34,284.69L661.12,278.25L674.89,278.25L688.66,266.7" style="vector-effect: none; fill: none; stroke: rgb(99, 110, 250); stroke-opacity: 1; stroke-width: 0px; opacity: 1;"/></g><g class="points"/><g class="text"/></g><g class="trace scatter trace2eac1f" style="stroke-miterlimit: 2;"><g class="fills"/><g class="errorbars"/><g class="lines"><path class="js-line" d="M13.78,507.68L27.55,478.17L41.33,466.55L55.1,455.3L68.87,448.39L82.65,409.13L96.42,409.84L110.19,400.32L123.97,381.91L137.74,384.43L151.51,371.74L165.29,380.51L179.06,410.44L192.83,421.07L206.61,423.18L247.92,420.87L261.7,397.24L289.24,357.76L303.02,348.74L316.79,339.8L330.56,347.96L344.34,350.35L358.11,350.93L371.88,355.89L385.66,358.73L399.43,365.68L413.2,366.55L426.98,359.8L440.75,358.89L454.52,349.09L468.29,351.49L482.07,331.72L495.84,341.71L509.61,342.35L523.39,340.59L537.16,341.4L550.93,340.97L564.71,347.45L578.48,339.39L592.25,335.42L606.03,337.49L619.8,331.12L633.57,325.83L647.34,330.56L661.12,318.82L674.89,318.82L688.66,309.38" style="vector-effect: none; fill: none; stroke: rgb(239, 85, 59); stroke-opacity: 1; stroke-width: 0px; opacity: 1;"/></g><g class="points"/><g class="text"/></g><g class="trace scatter trace8cd726" style="stroke-miterlimit: 2; opacity: 1;"><g class="fills"/><g class="errorbars"/><g class="lines"><path class="js-line" d="M0.01,511.86L13.78,503.46L27.55,500.67L41.33,480.38L55.1,477.44L68.87,471.29L82.65,458L96.42,454.5L110.19,439.12L123.97,439.82L137.74,430.02L151.51,429.32L165.29,420.23L179.06,405.54L192.83,408.34L206.61,402.75L220.38,399.25L234.15,392.95L247.92,396.45L261.7,390.86L275.47,382.46L289.24,377.57L303.02,377.57L316.79,374.77L330.56,378.27L344.34,385.26L358.11,379.66L385.66,377.57L399.43,374.77L413.2,369.17L426.98,370.57L440.75,376.87L454.52,380.36L468.29,376.87L482.07,383.86L495.84,376.87L509.61,373.37L523.39,367.77L537.16,369.17L550.93,383.16L564.71,373.37L578.48,382.46L592.25,384.56L606.03,390.86L619.8,393.65L633.57,390.86L647.34,402.75L674.89,390.16L688.66,391.55" style="vector-effect: none; fill: none; stroke: rgb(255, 127, 14); stroke-opacity: 1; stroke-width: 2.5px; opacity: 1;"/></g><g class="points"/><g class="text"/></g><g class="trace scatter trace36012f" style="stroke-miterlimit: 2;"><g class="fills"><g><path class="js-fill" d="M13.78,515.33L27.55,510.36L41.33,521.71L55.1,513.84L68.87,507.16L82.65,490.44L96.42,483.05L110.19,466.27L123.97,466.41L137.74,455.99L151.51,455.01L165.29,453.32L179.06,427.7L192.83,431.12L206.61,425.11L220.38,422.45L234.15,407.65L247.92,409.11L261.7,412.97L275.47,400.74L289.24,397.25L303.02,397.25L316.79,391.9L330.56,402.07L344.34,405.89L358.11,408.47L371.88,408.34L385.66,407.48L399.43,404.99L413.2,391.54L426.98,394.99L454.52,393.55L468.29,392.21L482.07,402.01L495.84,401.11L509.61,394.44L523.39,392.91L537.16,394.91L550.93,422.59L564.71,413L578.48,420.22L592.25,422.62L606.03,422.64L619.8,425.22L633.57,417.32L647.34,420.94L661.12,421.59L674.89,420.18L688.66,421.07L688.66,362.04L674.89,360.13L661.12,371.31L647.34,384.55L633.57,364.39L619.8,362.09L606.03,359.07L592.25,346.5L578.48,344.7L564.71,333.73L550.93,343.73L523.39,342.64L509.61,352.3L495.84,352.63L482.07,365.71L468.29,361.52L454.52,367.18L440.75,359.38L426.98,346.15L413.2,346.81L399.43,344.55L385.66,347.66L371.88,348.19L358.11,350.86L344.34,364.63L330.56,354.46L316.79,357.64L289.24,357.88L275.47,364.19L261.7,368.74L247.92,383.79L234.15,378.26L220.38,376.05L206.61,380.38L192.83,385.56L179.06,383.39L165.29,387.14L151.51,403.64L137.74,404.05L123.97,413.22L110.19,411.96L96.42,425.96L82.65,425.56L68.87,435.42L55.1,441.05L41.33,439.05L27.55,490.97L13.78,491.59Z" style="fill: rgb(255, 127, 14); fill-opacity: 0.1; stroke-width: 0;"/></g></g><g class="errorbars"/><g class="lines"><path class="js-line" d="M13.78,491.59L27.55,490.97L41.33,439.05L55.1,441.05L68.87,435.42L82.65,425.56L96.42,425.96L110.19,411.96L123.97,413.22L137.74,404.05L151.51,403.64L165.29,387.14L179.06,383.39L192.83,385.56L206.61,380.38L220.38,376.05L234.15,378.26L247.92,383.79L261.7,368.74L275.47,364.19L289.24,357.88L316.79,357.64L330.56,354.46L344.34,364.63L358.11,350.86L371.88,348.19L385.66,347.66L399.43,344.55L413.2,346.81L426.98,346.15L440.75,359.38L454.52,367.18L468.29,361.52L482.07,365.71L495.84,352.63L509.61,352.3L523.39,342.64L550.93,343.73L564.71,333.73L578.48,344.7L592.25,346.5L606.03,359.07L619.8,362.09L633.57,364.39L647.34,384.55L661.12,371.31L674.89,360.13L688.66,362.04" style="vector-effect: none; fill: none; stroke: rgb(171, 99, 250); stroke-opacity: 1; stroke-width: 0px; opacity: 1;"/></g><g class="points"/><g class="text"/></g><g class="trace scatter trace5cfb41" style="stroke-miterlimit: 2;"><g class="fills"/><g class="errorbars"/><g class="lines"><path class="js-line" d="M13.78,515.33L27.55,510.36L41.33,521.71L55.1,513.84L68.87,507.16L82.65,490.44L96.42,483.05L110.19,466.27L123.97,466.41L137.74,455.99L151.51,455.01L165.29,453.32L179.06,427.7L192.83,431.12L206.61,425.11L220.38,422.45L234.15,407.65L247.92,409.11L261.7,412.97L275.47,400.74L289.24,397.25L303.02,397.25L316.79,391.9L330.56,402.07L344.34,405.89L358.11,408.47L371.88,408.34L385.66,407.48L399.43,404.99L413.2,391.54L426.98,394.99L454.52,393.55L468.29,392.21L482.07,402.01L495.84,401.11L509.61,394.44L523.39,392.91L537.16,394.91L550.93,422.59L564.71,413L578.48,420.22L592.25,422.62L606.03,422.64L619.8,425.22L633.57,417.32L647.34,420.94L661.12,421.59L674.89,420.18L688.66,421.07" style="vector-effect: none; fill: none; stroke: rgb(255, 161, 90); stroke-opacity: 1; stroke-width: 0px; opacity: 1;"/></g><g class="points"/><g class="text"/></g><g class="trace scatter trace2d91ef" style="stroke-miterlimit: 2; opacity: 1;"><g class="fills"/><g class="errorbars"/><g class="lines"><path class="js-line" d="M0.01,503.46L13.78,490.87L27.55,464.29L55.1,348.19L68.87,304.13L82.65,232.09L96.42,164.24L110.19,104.79L123.97,75.41L137.74,69.82L151.51,62.12L179.06,55.83L192.83,54.43L206.61,53.73L220.38,48.84L234.15,52.33L247.92,53.73L261.7,53.03L275.47,57.93L289.24,55.83L303.02,57.23L316.79,55.83L330.56,57.23L344.34,57.23L358.11,51.63L371.88,53.73L385.66,52.33L399.43,50.93L413.2,46.74L426.98,48.14L440.75,53.73L482.07,52.33L495.84,53.73L509.61,53.03L523.39,47.44L537.16,46.04L550.93,47.44L578.48,50.23L592.25,54.43L606.03,55.13L619.8,58.63L633.57,57.93L647.34,60.03L661.12,57.23L674.89,52.33L688.66,53.03" style="vector-effect: none; fill: none; stroke: rgb(31, 119, 180); stroke-opacity: 1; stroke-width: 2.5px; opacity: 1;"/></g><g class="points"/><g class="text"/></g><g class="trace scatter trace918aa6" style="stroke-miterlimit: 2;"><g class="fills"><g><path class="js-fill" d="M13.78,508.68L27.55,512.02L41.33,528.09L55.1,516.31L68.87,489.23L82.65,407.97L96.42,300.13L110.19,171.46L123.97,96.65L137.74,81.29L151.51,77.24L165.29,73.97L179.06,69.54L206.61,67.88L220.38,55.15L234.15,56.73L247.92,59.91L261.7,59.89L275.47,68.35L289.24,68.18L303.02,69.29L316.79,68.18L330.56,70.93L344.34,70.93L358.11,63.1L371.88,64.15L385.66,62.53L399.43,62.01L413.2,51.64L426.98,53.92L440.75,65.43L468.29,64.42L482.07,64.42L495.84,65.43L509.61,64.8L523.39,52.52L537.16,51.35L550.93,53.76L564.71,54.57L578.48,58.2L592.25,67.43L606.03,67.41L619.8,69.24L633.57,69L647.34,70.53L661.12,69L674.89,60.62L688.66,60.85L688.66,45.22L674.89,44.05L661.12,45.46L647.34,49.52L633.57,46.85L619.8,48.01L606.03,42.85L592.25,41.43L564.71,43.1L550.93,41.12L537.16,40.73L523.39,42.35L509.61,41.26L495.84,42.04L482.07,40.24L468.29,40.24L440.75,42.04L426.98,42.35L413.2,41.83L399.43,39.86L385.66,42.14L371.88,43.31L358.11,40.17L344.34,43.52L316.79,43.48L303.02,45.16L289.24,43.48L275.47,47.51L261.7,46.18L247.92,47.55L234.15,47.93L220.38,42.52L206.61,39.58L192.83,40.14L151.51,47.01L137.74,58.35L123.97,54.18L110.19,38.12L96.42,28.35L82.65,56.2L68.87,119.03L55.1,180.07L41.33,285.8L27.55,416.57L13.78,473.07Z" style="fill: rgb(31, 119, 180); fill-opacity: 0.1; stroke-width: 0;"/></g></g><g class="errorbars"/><g class="lines"><path class="js-line" d="M13.78,473.07L27.55,416.57L41.33,285.8L55.1,180.07L68.87,119.03L82.65,56.2L96.42,28.35L110.19,38.12L123.97,54.18L137.74,58.35L151.51,47.01L192.83,40.14L206.61,39.58L220.38,42.52L234.15,47.93L247.92,47.55L261.7,46.18L275.47,47.51L289.24,43.48L303.02,45.16L316.79,43.48L344.34,43.52L358.11,40.17L371.88,43.31L385.66,42.14L399.43,39.86L413.2,41.83L426.98,42.35L440.75,42.04L468.29,40.24L482.07,40.24L495.84,42.04L509.61,41.26L523.39,42.35L537.16,40.73L550.93,41.12L564.71,43.1L592.25,41.43L606.03,42.85L619.8,48.01L633.57,46.85L647.34,49.52L661.12,45.46L674.89,44.05L688.66,45.22" style="vector-effect: none; fill: none; stroke: rgb(255, 102, 146); stroke-opacity: 1; stroke-width: 0px; opacity: 1;"/></g><g class="points"/><g class="text"/></g><g class="trace scatter trace947d07" style="stroke-miterlimit: 2;"><g class="fills"/><g class="errorbars"/><g class="lines"><path class="js-line" d="M13.78,508.68L27.55,512.02L41.33,528.09L55.1,516.31L68.87,489.23L82.65,407.97L96.42,300.13L110.19,171.46L123.97,96.65L137.74,81.29L151.51,77.24L165.29,73.97L179.06,69.54L206.61,67.88L220.38,55.15L234.15,56.73L247.92,59.91L261.7,59.89L275.47,68.35L289.24,68.18L303.02,69.29L316.79,68.18L330.56,70.93L344.34,70.93L358.11,63.1L371.88,64.15L385.66,62.53L399.43,62.01L413.2,51.64L426.98,53.92L440.75,65.43L468.29,64.42L482.07,64.42L495.84,65.43L509.61,64.8L523.39,52.52L537.16,51.35L550.93,53.76L564.71,54.57L578.48,58.2L592.25,67.43L606.03,67.41L619.8,69.24L633.57,69L647.34,70.53L661.12,69L674.89,60.62L688.66,60.85" style="vector-effect: none; fill: none; stroke: rgb(182, 232, 128); stroke-opacity: 1; stroke-width: 0px; opacity: 1;"/></g><g class="points"/><g class="text"/></g></g></g><g class="overplot"/><path class="xlines-above crisp" d="M0,0" style="fill: none;"/><path class="ylines-above crisp" d="M0,0" style="fill: none;"/><g class="overlines-above"/><g class="xaxislayer-above"><g class="xtick"><text text-anchor="middle" x="0" y="603" transform="translate(89,0)" style="font-family: 'Open Sans', verdana, arial, sans-serif; font-size: 30px; fill: rgb(42, 63, 95); fill-opacity: 1; white-space: pre; opacity: 1;">0</text></g><g class="xtick"><text text-anchor="middle" x="0" y="603" style="font-family: 'Open Sans', verdana, arial, sans-serif; font-size: 30px; fill: rgb(42, 63, 95); fill-opacity: 1; white-space: pre; opacity: 1;" transform="translate(433.33,0)">1M</text></g><g class="xtick"><text text-anchor="middle" x="0" y="603" style="font-family: 'Open Sans', verdana, arial, sans-serif; font-size: 30px; fill: rgb(42, 63, 95); fill-opacity: 1; white-space: pre; opacity: 0;" transform="translate(777.66,0)">2M</text></g></g><g class="yaxislayer-above"><g class="ytick"><text text-anchor="end" x="88" y="10.5" transform="translate(0,521.05)" style="font-family: 'Open Sans', verdana, arial, sans-serif; font-size: 30px; fill: rgb(42, 63, 95); fill-opacity: 1; white-space: pre; opacity: 1;">0</text></g><g class="ytick"><text text-anchor="end" x="88" y="10.5" style="font-family: 'Open Sans', verdana, arial, sans-serif; font-size: 30px; fill: rgb(42, 63, 95); fill-opacity: 1; white-space: pre; opacity: 1;" transform="translate(0,420.34)">0.2</text></g><g class="ytick"><text text-anchor="end" x="88" y="10.5" style="font-family: 'Open Sans', verdana, arial, sans-serif; font-size: 30px; fill: rgb(42, 63, 95); fill-opacity: 1; white-space: pre; opacity: 1;" transform="translate(0,319.62)">0.4</text></g><g class="ytick"><text text-anchor="end" x="88" y="10.5" style="font-family: 'Open Sans', verdana, arial, sans-serif; font-size: 30px; fill: rgb(42, 63, 95); fill-opacity: 1; white-space: pre; opacity: 1;" transform="translate(0,218.9)">0.6</text></g><g class="ytick"><text text-anchor="end" x="88" y="10.5" style="font-family: 'Open Sans', verdana, arial, sans-serif; font-size: 30px; fill: rgb(42, 63, 95); fill-opacity: 1; white-space: pre; opacity: 1;" transform="translate(0,118.18)">0.8</text></g><g class="ytick"><text text-anchor="end" x="88" y="10.5" style="font-family: 'Open Sans', verdana, arial, sans-serif; font-size: 30px; fill: rgb(42, 63, 95); fill-opacity: 1; white-space: pre; opacity: 0;" transform="translate(0,17.47)">1</text></g></g><g class="overaxes-above"/></g></g><g class="polarlayer"/><g class="smithlayer"/><g class="ternarylayer"/><g class="geolayer"/><g class="funnelarealayer"/><g class="pielayer"/><g class="iciclelayer"/><g class="treemaplayer"/><g class="sunburstlayer"/><g class="glimages"/><defs id="topdefs-0e85e1"><g class="clips"/></defs><g class="layer-above"><g class="imagelayer"/><g class="shapelayer"/></g><g class="infolayer"><g class="g-gtitle"/><g class="g-xtitle" transform="translate(0,-7.7000000000000455)"><text class="xtitle" x="433.5" y="649.7" text-anchor="middle" style="font-family: 'Open Sans', verdana, arial, sans-serif; font-size: 36px; fill: rgb(42, 63, 95); opacity: 1; font-weight: normal; white-space: pre;">Time Steps</text></g><g class="g-ytitle"/></g></svg>