<svg class="main-svg" xmlns="http://www.w3.org/2000/svg" xmlns:xlink="http://www.w3.org/1999/xlink" width="2400" height="1950" style="" viewBox="0 0 800 650"><rect x="0" y="0" width="800" height="650" style="fill: rgb(255, 255, 255); fill-opacity: 1;"/><defs id="defs-1600c2"><g class="clips"><clipPath id="clip1600c2xyplot" class="plotclip"><rect width="689" height="572"/></clipPath><clipPath class="axesclip" id="clip1600c2x"><rect x="89" y="0" width="689" height="650"/></clipPath><clipPath class="axesclip" id="clip1600c2y"><rect x="0" y="0" width="800" height="572"/></clipPath><clipPath class="axesclip" id="clip1600c2xy"><rect x="89" y="0" width="689" height="572"/></clipPath></g><g class="gradients"/><g class="patterns"/></defs><g class="bglayer"/><g class="layer-below"><g class="imagelayer"/><g class="shapelayer"/></g><g class="cartesianlayer"><g class="subplot xy"><g class="layer-subplot"><g class="shapelayer"/><g class="imagelayer"/></g><g class="minor-gridlayer"><g class="x"/><g class="y"/></g><g class="gridlayer"><g class="x"><path class="xgrid crisp" transform="translate(433.33,0)" d="M0,0v572" style="stroke: rgb(235, 240, 248); stroke-opacity: 1; stroke-width: 1px;"/></g><g class="y"><path class="ygrid crisp" transform="translate(0,400.01)" d="M89,0h689" style="stroke: rgb(235, 240, 248); stroke-opacity: 1; stroke-width: 1px;"/><path class="ygrid crisp" transform="translate(0,291.08)" d="M89,0h689" style="stroke: rgb(235, 240, 248); stroke-opacity: 1; stroke-width: 1px;"/><path class="ygrid crisp" transform="translate(0,182.16)" d="M89,0h689" style="stroke: rgb(235, 240, 248); stroke-opacity: 1; stroke-width: 1px;"/><path class="ygrid crisp" transform="translate(0,73.24)" d="M89,0h689" style="stroke: rgb(235, 240, 248); stroke-opacity: 1; stroke-width: 1px;"/></g></g><g class="zerolinelayer"><path class="xzl zl crisp" transform="translate(89,0)" d="M0,0v572" style="stroke: rgb(235, 240, 248); stroke-opacity: 1; stroke-width: 2px;"/><path class="yzl zl crisp" transform="translate(0,508.93)" d="M89,0h689" style="stroke: rgb(235, 240, 248); stroke-opacity: 1; stroke-width: 2px;"/></g><path class="xlines-below"/><path class="ylines-below"/><g class="overlines-below"/><g class="xaxislayer-below"/><g class="yaxislayer-below"/><g class="overaxes-below"/><g class="plot" transform="translate(89,0)" clip-path="url(#clip1600c2xyplot)"><g class="scatterlayer mlayer"><g class="trace scatter trace58b0fa" style="stroke-miterlimit: 2; opacity: 1;"><g class="fills"/><g class="errorbars"/><g class="lines"><path class="js-line" d="M0.01,508.93L13.78,425.73L27.55,388.92L41.33,393.2L55.1,393.96L68.87,378.83L82.65,359.16L96.42,365.21L110.19,373.28L123.97,368.74L137.74,353.62L151.51,369.25L165.29,360.17L179.06,359.16L192.83,355.63L206.61,361.18L220.38,371.27L234.15,377.82L247.92,378.33L261.7,376.81L275.47,379.33L289.24,371.77L303.02,385.39L316.79,369.75L330.56,380.34L344.34,385.39L358.11,380.34L371.88,390.93L385.66,383.37L399.43,386.9L413.2,374.8L426.98,363.2L440.75,368.74L454.52,351.6L468.29,349.58L482.07,351.6L495.84,354.62L509.61,364.21L523.39,367.23L537.16,375.8L550.93,368.24L564.71,372.78L578.48,373.28L592.25,369.75L606.03,368.74L619.8,377.32L633.57,380.85L647.34,376.81L661.12,377.82L674.89,386.39L688.66,381.86" style="vector-effect: none; fill: none; stroke: rgb(140, 86, 75); stroke-opacity: 1; stroke-width: 2.5px; opacity: 1;"/></g><g class="points"/><g class="text"/></g><g class="trace scatter trace74c2b8" style="stroke-miterlimit: 2;"><g class="fills"><g><path class="js-fill" d="M13.78,543.4L27.55,493.74L41.33,479.22L55.1,468.47L68.87,455.09L82.65,403.83L96.42,409.63L110.19,410.66L123.97,402.85L137.74,392.49L151.51,402.19L165.29,393.45L179.06,391.85L192.83,388.87L206.61,401.16L220.38,400.9L234.15,417.07L247.92,416.95L261.7,415.87L275.47,416.16L289.24,405.01L303.02,430.69L316.79,409.85L330.56,419.22L344.34,423.63L358.11,424.51L371.88,438.66L385.66,423.08L399.43,423.04L413.2,416.22L426.98,407.81L440.75,409.95L454.52,382.1L468.29,376.14L482.07,379.85L495.84,381.07L509.61,387.75L523.39,391.39L537.16,390.12L550.93,384.78L564.71,394.68L578.48,394.54L592.25,391.06L606.03,389.68L619.8,410.28L633.57,410.72L647.34,404.65L661.12,404.66L674.89,414.83L688.66,414.72L688.66,348.99L674.89,357.96L661.12,350.99L647.34,348.97L633.57,350.98L619.8,344.35L606.03,347.81L592.25,348.44L578.48,352.02L564.71,350.88L550.93,351.7L537.16,361.48L523.39,343.07L509.61,340.66L495.84,328.18L482.07,323.34L468.29,323.02L454.52,321.1L440.75,327.54L426.98,318.59L413.2,333.37L399.43,350.76L385.66,343.65L371.88,343.21L358.11,336.17L344.34,347.14L330.56,341.47L316.79,329.66L303.02,340.08L289.24,338.53L275.47,342.5L261.7,337.75L247.92,339.7L234.15,338.57L220.38,341.64L206.61,321.2L192.83,322.4L179.06,326.48L165.29,326.89L151.51,336.3L137.74,314.74L123.97,334.64L110.19,335.91L96.42,320.8L82.65,314.5L68.87,302.57L55.1,319.44L41.33,307.18L27.55,284.09L13.78,308.06Z" style="fill: rgb(140, 86, 75); fill-opacity: 0.1; stroke-width: 0;"/></g></g><g class="errorbars"/><g class="lines"><path class="js-line" d="M13.78,308.06L27.55,284.09L41.33,307.18L55.1,319.44L68.87,302.57L82.65,314.5L96.42,320.8L110.19,335.91L123.97,334.64L137.74,314.74L151.51,336.3L165.29,326.89L179.06,326.48L192.83,322.4L206.61,321.2L220.38,341.64L234.15,338.57L247.92,339.7L261.7,337.75L275.47,342.5L289.24,338.53L303.02,340.08L316.79,329.66L330.56,341.47L344.34,347.14L358.11,336.17L371.88,343.21L385.66,343.65L399.43,350.76L413.2,333.37L426.98,318.59L440.75,327.54L454.52,321.1L468.29,323.02L482.07,323.34L495.84,328.18L509.61,340.66L523.39,343.07L537.16,361.48L550.93,351.7L564.71,350.88L578.48,352.02L592.25,348.44L606.03,347.81L619.8,344.35L633.57,350.98L647.34,348.97L661.12,350.99L674.89,357.96L688.66,348.99" style="vector-effect: none; fill: none; stroke: rgb(239, 85, 59); stroke-opacity: 1; stroke-width: 0px; opacity: 1;"/></g><g class="points"/><g class="text"/></g><g class="trace scatter trace97efb5" style="stroke-miterlimit: 2;"><g class="fills"/><g class="errorbars"/><g class="lines"><path class="js-line" d="M13.78,543.4L27.55,493.74L41.33,479.22L55.1,468.47L68.87,455.09L82.65,403.83L96.42,409.63L110.19,410.66L123.97,402.85L137.74,392.49L151.51,402.19L165.29,393.45L179.06,391.85L192.83,388.87L206.61,401.16L220.38,400.9L234.15,417.07L247.92,416.95L261.7,415.87L275.47,416.16L289.24,405.01L303.02,430.69L316.79,409.85L330.56,419.22L344.34,423.63L358.11,424.51L371.88,438.66L385.66,423.08L399.43,423.04L413.2,416.22L426.98,407.81L440.75,409.95L454.52,382.1L468.29,376.14L482.07,379.85L495.84,381.07L509.61,387.75L523.39,391.39L537.16,390.12L550.93,384.78L564.71,394.68L578.48,394.54L592.25,391.06L606.03,389.68L619.8,410.28L633.57,410.72L647.34,404.65L661.12,404.66L674.89,414.83L688.66,414.72" style="vector-effect: none; fill: none; stroke: rgb(0, 204, 150); stroke-opacity: 1; stroke-width: 0px; opacity: 1;"/></g><g class="points"/><g class="text"/></g><g class="trace scatter trace0deeff" style="stroke-miterlimit: 2; opacity: 1;"><g class="fills"/><g class="errorbars"/><g class="lines"><path class="js-line" d="M0.01,487.75L13.78,431.78L27.55,418.16L41.33,428L55.1,431.48L68.87,417.16L82.65,386.9L96.42,373.79L110.19,368.74L123.97,356.64L137.74,351.6L151.51,361.18L165.29,366.73L179.06,373.28L192.83,377.32L206.61,376.81L220.38,360.17L247.92,366.73L261.7,376.31L275.47,365.72L289.24,365.72L303.02,372.27L316.79,362.69L330.56,366.22L344.34,351.09L358.11,351.09L371.88,343.53L385.66,344.54L399.43,340.5L413.2,344.03L426.98,351.09L440.75,348.07L454.52,346.56L468.29,341.51L482.07,345.04L495.84,333.95L509.61,336.47L523.39,341.51L537.16,351.6L550.93,364.21L564.71,356.14L578.48,347.56L592.25,354.62L606.03,365.21L619.8,361.18L633.57,349.08L647.34,350.09L661.12,361.18L674.89,359.67L688.66,350.59" style="vector-effect: none; fill: none; stroke: rgb(148, 103, 189); stroke-opacity: 1; stroke-width: 2.5px; opacity: 1;"/></g><g class="points"/><g class="text"/></g><g class="trace scatter trace5cd612" style="stroke-miterlimit: 2;"><g class="fills"><g><path class="js-fill" d="M13.78,510.94L27.55,478.9L41.33,481.35L55.1,478.33L68.87,471.81L82.65,444.8L96.42,442.59L110.19,437.15L123.97,411.23L137.74,396.96L151.51,410.88L165.29,410.57L179.06,406.23L192.83,409.89L206.61,409.27L220.38,394.59L234.15,402.57L247.92,404.47L261.7,412.08L275.47,407.37L289.24,407.37L303.02,406.9L316.79,387.69L330.56,392.35L344.34,383.48L358.11,383.48L371.88,372.4L385.66,373.98L399.43,368.41L413.2,378.73L426.98,379.57L440.75,380.96L454.52,380.28L468.29,374.97L482.07,379.35L495.84,353.22L509.61,358.37L523.39,356.66L537.16,373.92L550.93,392.68L564.71,391.77L578.48,393.56L592.25,405.97L606.03,417.86L619.8,412.65L633.57,396.24L647.34,396.36L661.12,395.06L674.89,391.44L688.66,376.87L688.66,324.31L674.89,327.9L661.12,327.3L647.34,303.81L633.57,301.91L619.8,309.71L606.03,312.57L592.25,303.28L578.48,301.57L564.71,320.5L550.93,335.73L537.16,329.28L523.39,326.36L509.61,314.57L495.84,314.68L482.07,310.74L468.29,308.06L454.52,312.83L440.75,315.18L426.98,322.62L413.2,309.34L399.43,312.6L385.66,315.1L371.88,314.66L358.11,318.71L344.34,318.71L330.56,340.1L316.79,337.69L303.02,337.65L289.24,324.07L275.47,324.07L261.7,340.54L247.92,328.98L234.15,323.82L220.38,325.76L206.61,344.36L192.83,344.74L179.06,340.34L165.29,322.88L151.51,311.48L137.74,306.23L123.97,302.06L110.19,300.34L96.42,304.99L82.65,328.99L68.87,362.5L55.1,384.62L41.33,374.65L27.55,357.42L13.78,352.62Z" style="fill: rgb(148, 103, 189); fill-opacity: 0.1; stroke-width: 0;"/></g></g><g class="errorbars"/><g class="lines"><path class="js-line" d="M13.78,352.62L27.55,357.42L41.33,374.65L55.1,384.62L68.87,362.5L82.65,328.99L96.42,304.99L110.19,300.34L123.97,302.06L137.74,306.23L151.51,311.48L165.29,322.88L179.06,340.34L192.83,344.74L206.61,344.36L220.38,325.76L234.15,323.82L247.92,328.98L261.7,340.54L275.47,324.07L289.24,324.07L303.02,337.65L316.79,337.69L330.56,340.1L344.34,318.71L358.11,318.71L371.88,314.66L385.66,315.1L399.43,312.6L413.2,309.34L426.98,322.62L440.75,315.18L454.52,312.83L468.29,308.06L482.07,310.74L495.84,314.68L509.61,314.57L523.39,326.36L537.16,329.28L550.93,335.73L564.71,320.5L578.48,301.57L592.25,303.28L606.03,312.57L619.8,309.71L633.57,301.91L647.34,303.81L661.12,327.3L674.89,327.9L688.66,324.31" style="vector-effect: none; fill: none; stroke: rgb(255, 161, 90); stroke-opacity: 1; stroke-width: 0px; opacity: 1;"/></g><g class="points"/><g class="text"/></g><g class="trace scatter trace09d145" style="stroke-miterlimit: 2;"><g class="fills"/><g class="errorbars"/><g class="lines"><path class="js-line" d="M13.78,510.94L27.55,478.9L41.33,481.35L55.1,478.33L68.87,471.81L82.65,444.8L96.42,442.59L110.19,437.15L123.97,411.23L137.74,396.96L151.51,410.88L165.29,410.57L179.06,406.23L192.83,409.89L206.61,409.27L220.38,394.59L234.15,402.57L247.92,404.47L261.7,412.08L275.47,407.37L289.24,407.37L303.02,406.9L316.79,387.69L330.56,392.35L344.34,383.48L358.11,383.48L371.88,372.4L385.66,373.98L399.43,368.41L413.2,378.73L426.98,379.57L440.75,380.96L454.52,380.28L468.29,374.97L482.07,379.35L495.84,353.22L509.61,358.37L523.39,356.66L537.16,373.92L550.93,392.68L564.71,391.77L578.48,393.56L592.25,405.97L606.03,417.86L619.8,412.65L633.57,396.24L647.34,396.36L661.12,395.06L674.89,391.44L688.66,376.87" style="vector-effect: none; fill: none; stroke: rgb(25, 211, 243); stroke-opacity: 1; stroke-width: 0px; opacity: 1;"/></g><g class="points"/><g class="text"/></g><g class="trace scatter tracef550c7" style="stroke-miterlimit: 2; opacity: 1;"><g class="fills"/><g class="errorbars"/><g class="lines"><path class="js-line" d="M0.01,502.88L13.78,446.91L27.55,431.28L41.33,443.13L55.1,432.69L82.65,405.05L96.42,403.04L110.19,411.1L123.97,389.92L137.74,384.88L151.51,382.36L165.29,378.33L179.06,380.85L192.83,361.68L206.61,356.64L220.38,355.13L234.15,361.18L247.92,346.05L261.7,336.47L275.47,334.96L289.24,341.01L316.79,327.39L330.56,331.93L344.34,333.44L358.11,331.43L371.88,333.44L385.66,336.47L399.43,337.98L413.2,344.03L426.98,341.01L440.75,348.57L454.52,331.43L468.29,337.48L482.07,345.55L495.84,342.02L523.39,338.49L537.16,351.6L550.93,354.12L564.71,343.53L578.48,350.59L592.25,359.16L606.03,352.61L619.8,357.65L633.57,347.06L647.34,357.65L661.12,349.08L674.89,344.54L688.66,349.58" style="vector-effect: none; fill: none; stroke: rgb(214, 39, 40); stroke-opacity: 1; stroke-width: 2.5px; opacity: 1;"/></g><g class="points"/><g class="text"/></g><g class="trace scatter trace15f39b" style="stroke-miterlimit: 2;"><g class="fills"><g><path class="js-fill" d="M13.78,526.07L27.55,493.46L41.33,499.16L55.1,486.53L68.87,477.61L82.65,447.18L96.42,446.25L110.19,458L123.97,428.08L137.74,424.84L151.51,425.21L165.29,418.16L179.06,421.2L192.83,388.59L206.61,388.24L220.38,386.71L234.15,391.94L247.92,379.66L261.7,360.52L275.47,359.52L289.24,366.01L303.02,361.24L316.79,347.19L330.56,347.8L344.34,350.24L358.11,350.14L371.88,355.84L385.66,355.99L399.43,357.57L413.2,366.25L426.98,364.19L440.75,367.52L454.52,366.8L468.29,375.06L482.07,389.14L495.84,384.4L509.61,383.66L523.39,380.96L537.16,375.73L550.93,380.46L564.71,364.29L578.48,378.23L592.25,382.42L606.03,384.44L619.8,390.52L633.57,381.91L647.34,394.9L661.12,383.81L674.89,377.78L688.66,377.75L688.66,321.41L674.89,311.3L661.12,314.35L647.34,320.4L633.57,312.21L619.8,324.78L606.03,320.78L592.25,335.9L578.48,322.95L564.71,322.77L550.93,327.78L537.16,327.47L523.39,296.01L509.61,297.35L482.07,301.95L468.29,299.9L454.52,296.06L440.75,329.63L426.98,317.83L413.2,321.82L399.43,318.4L385.66,316.96L371.88,311.05L358.11,312.71L344.34,316.65L330.56,316.06L316.79,307.6L303.02,306.66L289.24,316L275.47,310.4L261.7,312.42L247.92,312.45L234.15,330.42L220.38,323.54L206.61,325.04L192.83,334.78L179.06,340.49L165.29,338.49L151.51,339.51L137.74,344.92L123.97,351.76L110.19,364.2L96.42,359.82L82.65,362.92L68.87,360.73L55.1,378.84L41.33,387.1L27.55,369.1L13.78,367.75Z" style="fill: rgb(214, 39, 40); fill-opacity: 0.1; stroke-width: 0;"/></g></g><g class="errorbars"/><g class="lines"><path class="js-line" d="M13.78,367.75L27.55,369.1L41.33,387.1L55.1,378.84L68.87,360.73L82.65,362.92L96.42,359.82L110.19,364.2L123.97,351.76L137.74,344.92L151.51,339.51L165.29,338.49L179.06,340.49L192.83,334.78L206.61,325.04L220.38,323.54L234.15,330.42L247.92,312.45L261.7,312.42L275.47,310.4L289.24,316L303.02,306.66L316.79,307.6L330.56,316.06L344.34,316.65L358.11,312.71L371.88,311.05L385.66,316.96L399.43,318.4L413.2,321.82L426.98,317.83L440.75,329.63L454.52,296.06L468.29,299.9L482.07,301.95L509.61,297.35L523.39,296.01L537.16,327.47L550.93,327.78L564.71,322.77L578.48,322.95L592.25,335.9L606.03,320.78L619.8,324.78L633.57,312.21L647.34,320.4L661.12,314.35L674.89,311.3L688.66,321.41" style="vector-effect: none; fill: none; stroke: rgb(182, 232, 128); stroke-opacity: 1; stroke-width: 0px; opacity: 1;"/></g><g class="points"/><g class="text"/></g><g class="trace scatter trace9d48db" style="stroke-miterlimit: 2;"><g class="fills"/><g class="errorbars"/><g class="lines"><path class="js-line" d="M13.78,526.07L27.55,493.46L41.33,499.16L55.1,486.53L68.87,477.61L82.65,447.18L96.42,446.25L110.19,458L123.97,428.08L137.74,424.84L151.51,425.21L165.29,418.16L179.06,421.2L192.83,388.59L206.61,388.24L220.38,386.71L234.15,391.94L247.92,379.66L261.7,360.52L275.47,359.52L289.24,366.01L303.02,361.24L316.79,347.19L330.56,347.8L344.34,350.24L358.11,350.14L371.88,355.84L385.66,355.99L399.43,357.57L413.2,366.25L426.98,364.19L440.75,367.52L454.52,366.8L468.29,375.06L482.07,389.14L495.84,384.4L509.61,383.66L523.39,380.96L537.16,375.73L550.93,380.46L564.71,364.29L578.48,378.23L592.25,382.42L606.03,384.44L619.8,390.52L633.57,381.91L647.34,394.9L661.12,383.81L674.89,377.78L688.66,377.75" style="vector-effect: none; fill: none; stroke: rgb(255, 151, 255); stroke-opacity: 1; stroke-width: 0px; opacity: 1;"/></g><g class="points"/><g class="text"/></g><g class="trace scatter trace052e99" style="stroke-miterlimit: 2; opacity: 1;"><g class="fills"/><g class="errorbars"/><g class="lines"><path class="js-line" d="M0.01,406.06L13.78,375.8L27.55,375.8L41.33,372.78L55.1,360.07L68.87,358.66L82.65,349.58L96.42,346.56L110.19,340L123.97,335.97L137.74,345.04L151.51,347.06L165.29,339.5L179.06,336.97L192.83,364.21L206.61,391.44L220.38,415.64L234.15,435.31L247.92,465.06L261.7,490.28L275.47,490.78L289.24,490.28L303.02,487.25L316.79,489.77L330.56,493.3L344.34,479.69L358.11,478.17L371.88,479.69L385.66,477.16L413.2,475.65L426.98,494.81L454.52,493.81L468.29,495.32L482.07,497.84L495.84,490.28L509.61,484.73L523.39,486.24L537.16,486.75L550.93,485.23L564.71,477.67L578.48,474.64L592.25,463.05L606.03,447.41L619.8,439.85L633.57,441.87L647.34,448.42L661.12,459.01L674.89,475.65L688.66,484.22" style="vector-effect: none; fill: none; stroke: rgb(44, 160, 44); stroke-opacity: 1; stroke-width: 2.5px; opacity: 1;"/></g><g class="points"/><g class="text"/></g><g class="trace scatter trace093cb0" style="stroke-miterlimit: 2;"><g class="fills"><g><path class="js-fill" d="M13.78,418.59L27.55,406.06L41.33,398.21L55.1,396.02L68.87,391L82.65,372.12L96.42,370.89L110.19,359.74L123.97,352.02L137.74,358.08L151.51,362.1L179.06,361.44L192.83,435.02L206.61,480.03L220.38,514.4L234.15,533.4L247.92,540.66L261.7,507.11L275.47,508L289.24,507.11L303.02,501.5L316.79,504.18L330.56,508.78L344.34,527.9L358.11,525.65L371.88,528.12L385.66,525.3L399.43,524.56L413.2,522.88L426.98,505.75L440.75,505.37L468.29,502.67L482.07,506.95L495.84,510.02L509.61,506.8L523.39,509.11L537.16,510.16L550.93,509.09L564.71,499.63L578.48,501.21L592.25,505.72L606.03,491.08L619.8,473.51L633.57,478.35L647.34,492.35L661.12,506.92L674.89,512.51L688.66,503.4L688.66,465.05L661.12,411.1L647.34,404.49L619.8,406.19L606.03,403.75L592.25,420.37L578.48,448.08L564.71,455.71L550.93,461.38L537.16,463.34L523.39,463.38L509.61,462.66L495.84,470.54L482.07,488.73L468.29,487.97L454.52,483.5L440.75,483.25L426.98,483.88L413.2,428.43L399.43,428.76L385.66,429.03L371.88,431.25L358.11,430.7L344.34,431.48L330.56,477.82L303.02,473.01L289.24,473.44L261.7,473.44L247.92,389.46L234.15,337.22L220.38,316.88L206.61,302.84L192.83,293.39L179.06,312.51L165.29,317.43L151.51,332.02L137.74,332.01L123.97,319.91L110.19,320.26L96.42,322.22L82.65,327.05L68.87,326.32L55.1,324.12L41.33,347.34L27.55,345.55L13.78,333.01Z" style="fill: rgb(44, 160, 44); fill-opacity: 0.1; stroke-width: 0;"/></g></g><g class="errorbars"/><g class="lines"><path class="js-line" d="M13.78,333.01L27.55,345.55L41.33,347.34L55.1,324.12L68.87,326.32L82.65,327.05L96.42,322.22L110.19,320.26L123.97,319.91L137.74,332.01L151.51,332.02L165.29,317.43L179.06,312.51L192.83,293.39L206.61,302.84L220.38,316.88L234.15,337.22L247.92,389.46L261.7,473.44L289.24,473.44L303.02,473.01L330.56,477.82L344.34,431.48L358.11,430.7L371.88,431.25L385.66,429.03L399.43,428.76L413.2,428.43L426.98,483.88L440.75,483.25L454.52,483.5L468.29,487.97L482.07,488.73L495.84,470.54L509.61,462.66L523.39,463.38L537.16,463.34L550.93,461.38L564.71,455.71L578.48,448.08L592.25,420.37L606.03,403.75L619.8,406.19L647.34,404.49L661.12,411.1L688.66,465.05" style="vector-effect: none; fill: none; stroke: rgb(99, 110, 250); stroke-opacity: 1; stroke-width: 0px; opacity: 1;"/></g><g class="points"/><g class="text"/></g><g class="trace scatter trace29dd3d" style="stroke-miterlimit: 2;"><g class="fills"/><g class="errorbars"/><g class="lines"><path class="js-line" d="M13.78,418.59L27.55,406.06L41.33,398.21L55.1,396.02L68.87,391L82.65,372.12L96.42,370.89L110.19,359.74L123.97,352.02L137.74,358.08L151.51,362.1L179.06,361.44L192.83,435.02L206.61,480.03L220.38,514.4L234.15,533.4L247.92,540.66L261.7,507.11L275.47,508L289.24,507.11L303.02,501.5L316.79,504.18L330.56,508.78L344.34,527.9L358.11,525.65L371.88,528.12L385.66,525.3L399.43,524.56L413.2,522.88L426.98,505.75L440.75,505.37L468.29,502.67L482.07,506.95L495.84,510.02L509.61,506.8L523.39,509.11L537.16,510.16L550.93,509.09L564.71,499.63L578.48,501.21L592.25,505.72L606.03,491.08L619.8,473.51L633.57,478.35L647.34,492.35L661.12,506.92L674.89,512.51L688.66,503.4" style="vector-effect: none; fill: none; stroke: rgb(239, 85, 59); stroke-opacity: 1; stroke-width: 0px; opacity: 1;"/></g><g class="points"/><g class="text"/></g><g class="trace scatter trace276cb8" style="stroke-miterlimit: 2; opacity: 1;"><g class="fills"/><g class="errorbars"/><g class="lines"><path class="js-line" d="M0.01,508.93L13.78,508.93L27.55,481.7L41.33,485.49L55.1,459.92L68.87,443.38L82.65,423.71L96.42,394.97L110.19,383.87L123.97,357.65L137.74,354.12L151.51,353.11L165.29,348.07L179.06,358.66L192.83,350.09L206.61,355.63L220.38,364.71L234.15,369.75L247.92,370.26L261.7,362.19L275.47,372.78L289.24,368.24L303.02,364.71L316.79,367.74L330.56,364.71L344.34,361.68L358.11,356.64L371.88,356.64L385.66,354.62L399.43,349.08L413.2,347.56L426.98,349.58L440.75,356.14L454.52,352.1L468.29,344.54L482.07,340.5L495.84,344.03L509.61,345.04L523.39,344.03L537.16,349.58L550.93,353.11L564.71,348.07L578.48,345.04L592.25,338.49L606.03,333.95L619.8,329.41L633.57,323.86L661.12,327.9L674.89,332.44L688.66,333.95" style="vector-effect: none; fill: none; stroke: rgb(255, 127, 14); stroke-opacity: 1; stroke-width: 2.5px; opacity: 1;"/></g><g class="points"/><g class="text"/></g><g class="trace scatter tracebaf443" style="stroke-miterlimit: 2;"><g class="fills"><g><path class="js-fill" d="M13.78,508.93L27.55,528.87L41.33,524.73L55.1,526.43L68.87,515.35L82.65,490.09L96.42,454L110.19,441.87L123.97,377.17L151.51,374.23L165.29,359.93L179.06,381.44L192.83,380.39L206.61,386.65L220.38,396.94L234.15,402.45L247.92,402.81L261.7,391.76L275.47,386.97L289.24,386.27L303.02,379.12L316.79,387.96L330.56,386.92L344.34,387.05L358.11,382.36L371.88,382.36L385.66,379.57L399.43,361.83L413.2,361.32L426.98,361.63L440.75,373.23L454.52,374.29L468.29,371.65L482.07,364.76L495.84,369.11L509.61,370.32L523.39,367.61L537.16,370.52L550.93,367.14L564.71,369.07L578.48,365.69L592.25,362.59L606.03,351.22L619.8,343.43L633.57,341.96L647.34,343.5L661.12,347.91L688.66,354.6L688.66,313.3L674.89,313.62L661.12,307.88L647.34,308.26L633.57,305.77L619.8,315.39L606.03,316.68L592.25,314.38L578.48,324.4L564.71,327.07L550.93,339.08L537.16,328.65L523.39,320.46L509.61,319.77L495.84,318.96L482.07,316.25L468.29,317.43L454.52,329.92L440.75,339.05L426.98,337.53L413.2,333.81L399.43,336.32L385.66,329.67L371.88,330.92L358.11,330.92L344.34,336.32L330.56,342.5L316.79,347.51L303.02,350.3L289.24,350.21L275.47,358.59L261.7,332.62L247.92,337.7L234.15,337.05L220.38,332.48L206.61,324.62L192.83,319.78L179.06,335.88L165.29,336.21L151.51,332L137.74,332.78L123.97,338.13L110.19,325.87L96.42,335.93L82.65,357.33L68.87,371.4L55.1,393.41L41.33,446.24L27.55,434.54L13.78,508.93Z" style="fill: rgb(255, 127, 14); fill-opacity: 0.1; stroke-width: 0;"/></g></g><g class="errorbars"/><g class="lines"><path class="js-line" d="M13.78,508.93L27.55,434.54L41.33,446.24L55.1,393.41L68.87,371.4L82.65,357.33L96.42,335.93L110.19,325.87L123.97,338.13L137.74,332.78L151.51,332L165.29,336.21L179.06,335.88L192.83,319.78L206.61,324.62L220.38,332.48L234.15,337.05L247.92,337.7L261.7,332.62L275.47,358.59L289.24,350.21L303.02,350.3L316.79,347.51L330.56,342.5L344.34,336.32L358.11,330.92L371.88,330.92L385.66,329.67L399.43,336.32L413.2,333.81L426.98,337.53L440.75,339.05L454.52,329.92L468.29,317.43L482.07,316.25L495.84,318.96L509.61,319.77L523.39,320.46L537.16,328.65L550.93,339.08L564.71,327.07L578.48,324.4L592.25,314.38L606.03,316.68L619.8,315.39L633.57,305.77L647.34,308.26L661.12,307.88L674.89,313.62L688.66,313.3" style="vector-effect: none; fill: none; stroke: rgb(171, 99, 250); stroke-opacity: 1; stroke-width: 0px; opacity: 1;"/></g><g class="points"/><g class="text"/></g><g class="trace scatter trace692a2c" style="stroke-miterlimit: 2;"><g class="fills"/><g class="errorbars"/><g class="lines"><path class="js-line" d="M13.78,508.93L27.55,528.87L41.33,524.73L55.1,526.43L68.87,515.35L82.65,490.09L96.42,454L110.19,441.87L123.97,377.17L151.51,374.23L165.29,359.93L179.06,381.44L192.83,380.39L206.61,386.65L220.38,396.94L234.15,402.45L247.92,402.81L261.7,391.76L275.47,386.97L289.24,386.27L303.02,379.12L316.79,387.96L330.56,386.92L344.34,387.05L358.11,382.36L371.88,382.36L385.66,379.57L399.43,361.83L413.2,361.32L426.98,361.63L440.75,373.23L454.52,374.29L468.29,371.65L482.07,364.76L495.84,369.11L509.61,370.32L523.39,367.61L537.16,370.52L550.93,367.14L564.71,369.07L578.48,365.69L592.25,362.59L606.03,351.22L619.8,343.43L633.57,341.96L647.34,343.5L661.12,347.91L688.66,354.6" style="vector-effect: none; fill: none; stroke: rgb(255, 161, 90); stroke-opacity: 1; stroke-width: 0px; opacity: 1;"/></g><g class="points"/><g class="text"/></g><g class="trace scatter tracec53fd6" style="stroke-miterlimit: 2; opacity: 1;"><g class="fills"/><g class="errorbars"/><g class="lines"><path class="js-line" d="M0.01,508.93L13.78,462.04L27.55,466.58L41.33,428L55.1,397.59L68.87,375.8L82.65,327.39L96.42,278.98L110.19,219.48L123.97,185.19L137.74,155.43L151.51,120.13L165.29,100.47L192.83,82.31L206.61,75.76L220.38,73.24L234.15,75.76L247.92,76.76L261.7,73.74L289.24,63.65L303.02,62.65L316.79,60.12L330.56,52.06L344.34,53.06L358.11,55.59L371.88,58.11L385.66,57.6L399.43,56.09L413.2,58.61L426.98,54.07L440.75,52.06L454.52,48.53L468.29,46L482.07,49.53L495.84,46L509.61,50.54L523.39,51.55L537.16,58.61L550.93,58.61L564.71,51.05L578.48,55.08L606.03,56.59L619.8,52.06L633.57,51.55L647.34,59.12L661.12,55.59L674.89,54.58L688.66,56.09" style="vector-effect: none; fill: none; stroke: rgb(31, 119, 180); stroke-opacity: 1; stroke-width: 2.5px; opacity: 1;"/></g><g class="points"/><g class="text"/></g><g class="trace scatter trace10fc20" style="stroke-miterlimit: 2;"><g class="fills"><g><path class="js-fill" d="M13.78,528.36L27.55,514.13L41.33,514.37L55.1,498.68L68.87,480.79L82.65,425.46L96.42,395.1L110.19,300.97L123.97,263.03L137.74,225.36L151.51,174.22L165.29,125.05L179.06,115.29L192.83,104.05L206.61,94.45L220.38,89.25L234.15,89.34L247.92,92.59L261.7,92.53L275.47,93.63L289.24,91.81L303.02,90.09L316.79,87.43L330.56,67.48L344.34,68.69L371.88,67.67L385.66,66.03L399.43,65.78L413.2,70.63L440.75,70.01L454.52,68.45L468.29,62.9L482.07,68.52L495.84,61.31L509.61,64.44L523.39,64.45L537.16,69.34L550.93,69.34L564.71,68.45L578.48,75.33L592.25,75.96L606.03,76.37L619.8,70.31L633.57,69.65L647.34,70.54L661.12,63.34L674.89,61.84L688.66,62.9L688.66,49.28L674.89,47.31L661.12,47.83L647.34,47.69L633.57,33.46L619.8,33.8L606.03,36.82L592.25,35.21L578.48,34.83L564.71,33.65L550.93,47.88L537.16,47.88L523.39,38.65L509.61,36.64L495.84,30.69L482.07,30.55L468.29,29.1L454.52,28.6L440.75,34.1L426.98,37.54L413.2,46.6L399.43,46.39L385.66,49.17L371.88,48.54L344.34,37.44L330.56,36.63L316.79,32.81L303.02,35.2L289.24,35.5L275.47,43.76L261.7,54.95L247.92,60.94L234.15,62.17L220.38,57.22L206.61,57.06L192.83,60.58L179.06,67.49L165.29,75.89L151.51,66.05L137.74,85.5L123.97,107.34L110.19,137.98L96.42,162.86L82.65,229.33L68.87,270.82L55.1,296.5L41.33,341.62L27.55,419.02L13.78,395.71Z" style="fill: rgb(31, 119, 180); fill-opacity: 0.1; stroke-width: 0;"/></g></g><g class="errorbars"/><g class="lines"><path class="js-line" d="M13.78,395.71L27.55,419.02L41.33,341.62L55.1,296.5L68.87,270.82L82.65,229.33L96.42,162.86L110.19,137.98L123.97,107.34L137.74,85.5L151.51,66.05L165.29,75.89L179.06,67.49L192.83,60.58L206.61,57.06L220.38,57.22L234.15,62.17L247.92,60.94L261.7,54.95L275.47,43.76L289.24,35.5L303.02,35.2L316.79,32.81L330.56,36.63L344.34,37.44L371.88,48.54L385.66,49.17L399.43,46.39L413.2,46.6L426.98,37.54L440.75,34.1L454.52,28.6L468.29,29.1L482.07,30.55L495.84,30.69L509.61,36.64L523.39,38.65L537.16,47.88L550.93,47.88L564.71,33.65L578.48,34.83L592.25,35.21L606.03,36.82L619.8,33.8L633.57,33.46L647.34,47.69L661.12,47.83L674.89,47.31L688.66,49.28" style="vector-effect: none; fill: none; stroke: rgb(255, 102, 146); stroke-opacity: 1; stroke-width: 0px; opacity: 1;"/></g><g class="points"/><g class="text"/></g><g class="trace scatter trace36525a" style="stroke-miterlimit: 2;"><g class="fills"/><g class="errorbars"/><g class="lines"><path class="js-line" d="M13.78,528.36L27.55,514.13L41.33,514.37L55.1,498.68L68.87,480.79L82.65,425.46L96.42,395.1L110.19,300.97L123.97,263.03L137.74,225.36L151.51,174.22L165.29,125.05L179.06,115.29L192.83,104.05L206.61,94.45L220.38,89.25L234.15,89.34L247.92,92.59L261.7,92.53L275.47,93.63L289.24,91.81L303.02,90.09L316.79,87.43L330.56,67.48L344.34,68.69L371.88,67.67L385.66,66.03L399.43,65.78L413.2,70.63L440.75,70.01L454.52,68.45L468.29,62.9L482.07,68.52L495.84,61.31L509.61,64.44L523.39,64.45L537.16,69.34L550.93,69.34L564.71,68.45L578.48,75.33L592.25,75.96L606.03,76.37L619.8,70.31L633.57,69.65L647.34,70.54L661.12,63.34L674.89,61.84L688.66,62.9" style="vector-effect: none; fill: none; stroke: rgb(182, 232, 128); stroke-opacity: 1; stroke-width: 0px; opacity: 1;"/></g><g class="points"/><g class="text"/></g></g></g><g class="overplot"/><path class="xlines-above crisp" d="M0,0" style="fill: none;"/><path class="ylines-above crisp" d="M0,0" style="fill: none;"/><g class="overlines-above"/><g class="xaxislayer-above"><g class="xtick"><text text-anchor="middle" x="0" y="603" transform="translate(89,0)" style="font-family: 'Open Sans', verdana, arial, sans-serif; font-size: 30px; fill: rgb(42, 63, 95); fill-opacity: 1; white-space: pre; opacity: 1;">0</text></g><g class="xtick"><text text-anchor="middle" x="0" y="603" style="font-family: 'Open Sans', verdana, arial, sans-serif; font-size: 30px; fill: rgb(42, 63, 95); fill-opacity: 1; white-space: pre; opacity: 1;" transform="translate(433.33,0)">1M</text></g><g class="xtick"><text text-anchor="middle" x="0" y="603" style="font-family: 'Open Sans', verdana, arial, sans-serif; font-size: 30px; fill: rgb(42, 63, 95); fill-opacity: 1; white-space: pre; opacity: 0;" transform="translate(777.66,0)">2M</text></g></g><g class="yaxislayer-above"><g class="ytick"><text text-anchor="end" x="88" y="10.5" transform="translate(0,508.93)" style="font-family: 'Open Sans', verdana, arial, sans-serif; font-size: 30px; fill: rgb(42, 63, 95); fill-opacity: 1; white-space: pre; opacity: 1;">0</text></g><g class="ytick"><text text-anchor="end" x="88" y="10.5" style="font-family: 'Open Sans', verdana, arial, sans-serif; font-size: 30px; fill: rgb(42, 63, 95); fill-opacity: 1; white-space: pre; opacity: 1;" transform="translate(0,400.01)">0.2</text></g><g class="ytick"><text text-anchor="end" x="88" y="10.5" style="font-family: 'Open Sans', verdana, arial, sans-serif; font-size: 30px; fill: rgb(42, 63, 95); fill-opacity: 1; white-space: pre; opacity: 1;" transform="translate(0,291.08)">0.4</text></g><g class="ytick"><text text-anchor="end" x="88" y="10.5" style="font-family: 'Open Sans', verdana, arial, sans-serif; font-size: 30px; fill: rgb(42, 63, 95); fill-opacity: 1; white-space: pre; opacity: 1;" transform="translate(0,182.16)">0.6</text></g><g class="ytick"><text text-anchor="end" x="88" y="10.5" style="font-family: 'Open Sans', verdana, arial, sans-serif; font-size: 30px; fill: rgb(42, 63, 95); fill-opacity: 1; white-space: pre; opacity: 1;" transform="translate(0,73.24)">0.8</text></g></g><g class="overaxes-above"/></g></g><g class="polarlayer"/><g class="smithlayer"/><g class="ternarylayer"/><g class="geolayer"/><g class="funnelarealayer"/><g class="pielayer"/><g class="iciclelayer"/><g class="treemaplayer"/><g class="sunburstlayer"/><g class="glimages"/><defs id="topdefs-1600c2"><g class="clips"/></defs><g class="layer-above"><g class="imagelayer"/><g class="shapelayer"/></g><g class="infolayer"><g class="g-gtitle"/><g class="g-xtitle" transform="translate(0,-7.7000000000000455)"><text class="xtitle" x="433.5" y="649.7" text-anchor="middle" style="font-family: 'Open Sans', verdana, arial, sans-serif; font-size: 36px; fill: rgb(42, 63, 95); opacity: 1; font-weight: normal; white-space: pre;">Time Steps</text></g><g class="g-ytitle"/></g></svg>