<svg class="main-svg" xmlns="http://www.w3.org/2000/svg" xmlns:xlink="http://www.w3.org/1999/xlink" width="2400" height="1950" style="" viewBox="0 0 800 650"><rect x="0" y="0" width="800" height="650" style="fill: rgb(255, 255, 255); fill-opacity: 1;"/><defs id="defs-284573"><g class="clips"><clipPath id="clip284573xyplot" class="plotclip"><rect width="689" height="556"/></clipPath><clipPath class="axesclip" id="clip284573x"><rect x="89" y="0" width="689" height="650"/></clipPath><clipPath class="axesclip" id="clip284573y"><rect x="0" y="16" width="800" height="556"/></clipPath><clipPath class="axesclip" id="clip284573xy"><rect x="89" y="16" width="689" height="556"/></clipPath></g><g class="gradients"/><g class="patterns"/></defs><g class="bglayer"/><g class="layer-below"><g class="imagelayer"/><g class="shapelayer"/></g><g class="cartesianlayer"><g class="subplot xy"><g class="layer-subplot"><g class="shapelayer"/><g class="imagelayer"/></g><g class="minor-gridlayer"><g class="x"/><g class="y"/></g><g class="gridlayer"><g class="x"><path class="xgrid crisp" transform="translate(433.33,0)" d="M0,16v556" style="stroke: rgb(235, 240, 248); stroke-opacity: 1; stroke-width: 1px;"/></g><g class="y"><path class="ygrid crisp" transform="translate(0,417.21)" d="M89,0h689" style="stroke: rgb(235, 240, 248); stroke-opacity: 1; stroke-width: 1px;"/><path class="ygrid crisp" transform="translate(0,317.16)" d="M89,0h689" style="stroke: rgb(235, 240, 248); stroke-opacity: 1; stroke-width: 1px;"/><path class="ygrid crisp" transform="translate(0,217.11)" d="M89,0h689" style="stroke: rgb(235, 240, 248); stroke-opacity: 1; stroke-width: 1px;"/><path class="ygrid crisp" transform="translate(0,117.06)" d="M89,0h689" style="stroke: rgb(235, 240, 248); stroke-opacity: 1; stroke-width: 1px;"/></g></g><g class="zerolinelayer"><path class="xzl zl crisp" transform="translate(89,0)" d="M0,16v556" style="stroke: rgb(235, 240, 248); stroke-opacity: 1; stroke-width: 2px;"/><path class="yzl zl crisp" transform="translate(0,517.26)" d="M89,0h689" style="stroke: rgb(235, 240, 248); stroke-opacity: 1; stroke-width: 2px;"/></g><path class="xlines-below"/><path class="ylines-below"/><g class="overlines-below"/><g class="xaxislayer-below"/><g class="yaxislayer-below"/><g class="overaxes-below"/><g class="plot" transform="translate(89,16)" clip-path="url(#clip284573xyplot)"><g class="scatterlayer mlayer"><g class="trace scatter trace0d036d" style="stroke-miterlimit: 2; opacity: 1;"><g class="fills"/><g class="errorbars"/><g class="lines"><path class="js-line" d="M0.01,434.56L13.78,391.21L27.55,378.98L41.33,373.7L55.1,378.53L68.87,386.76L82.65,388.98L96.42,394.54L110.19,390.09L123.97,396.76L137.74,393.98L151.51,388.98L165.29,375.09L179.06,371.19L192.83,390.09L206.61,389.54L220.38,394.54L234.15,390.65L247.92,392.32L261.7,395.65L275.47,385.65L289.24,382.87L303.02,370.64L316.79,381.2L330.56,386.76L344.34,388.98L358.11,387.31L371.88,383.42L385.66,385.09L399.43,369.53L413.2,372.86L426.98,375.09L440.75,376.2L454.52,384.54L468.29,387.87L482.07,395.1L495.84,386.2L509.61,388.98L523.39,386.2L537.16,385.65L550.93,393.98L564.71,389.54L578.48,397.32L592.25,396.21L606.03,403.99L619.8,403.43L633.57,398.99L647.34,407.32L661.12,403.43L674.89,393.98L688.66,399.54" style="vector-effect: none; fill: none; stroke: rgb(140, 86, 75); stroke-opacity: 1; stroke-width: 2.5px; opacity: 1;"/></g><g class="points"/><g class="text"/></g><g class="trace scatter trace0b2e62" style="stroke-miterlimit: 2;"><g class="fills"><g><path class="js-fill" d="M13.78,452.52L27.55,427.23L41.33,414.49L55.1,415.47L68.87,425.46L82.65,431.2L96.42,432.21L110.19,434.42L123.97,438.19L137.74,435.87L151.51,427.68L165.29,401.38L179.06,398.12L192.83,420.12L206.61,419.42L220.38,425.25L234.15,422.32L261.7,422.22L275.47,400.21L289.24,396.98L303.02,386.9L316.79,413.33L330.56,420.35L344.34,422.31L358.11,421.35L385.66,419.32L399.43,395.08L413.2,404.9L426.98,409.06L440.75,410.13L454.52,418.22L468.29,418L482.07,416.75L495.84,401.81L509.61,409.29L523.39,409.28L537.16,408.23L550.93,417.89L564.71,417.02L578.48,426.27L592.25,424.17L606.03,426.15L619.8,425.72L633.57,420.46L647.34,418.37L661.12,412.55L674.89,413.13L688.66,426.7L688.66,372.39L674.89,374.84L661.12,394.32L647.34,396.28L633.57,377.51L619.8,381.14L606.03,381.83L592.25,368.25L578.48,368.37L564.71,362.06L550.93,370.08L537.16,363.06L523.39,363.12L509.61,368.68L495.84,370.6L482.07,373.44L468.29,357.74L454.52,350.85L440.75,342.27L426.98,341.11L413.2,340.82L399.43,343.98L385.66,350.86L371.88,346.85L358.11,353.28L344.34,355.65L330.56,353.16L316.79,349.07L303.02,354.38L289.24,368.76L275.47,371.08L261.7,369.08L247.92,362.07L234.15,358.98L220.38,363.83L206.61,359.65L192.83,360.07L179.06,344.27L165.29,348.79L151.51,350.28L137.74,352.09L123.97,355.34L110.19,345.77L96.42,356.87L82.65,346.76L68.87,348.06L55.1,341.59L41.33,332.91L27.55,330.72L13.78,329.89Z" style="fill: rgb(140, 86, 75); fill-opacity: 0.1; stroke-width: 0;"/></g></g><g class="errorbars"/><g class="lines"><path class="js-line" d="M13.78,329.89L27.55,330.72L41.33,332.91L55.1,341.59L68.87,348.06L82.65,346.76L96.42,356.87L110.19,345.77L123.97,355.34L137.74,352.09L151.51,350.28L165.29,348.79L179.06,344.27L192.83,360.07L206.61,359.65L220.38,363.83L234.15,358.98L247.92,362.07L261.7,369.08L275.47,371.08L289.24,368.76L303.02,354.38L316.79,349.07L330.56,353.16L344.34,355.65L358.11,353.28L371.88,346.85L385.66,350.86L399.43,343.98L413.2,340.82L426.98,341.11L440.75,342.27L454.52,350.85L468.29,357.74L482.07,373.44L495.84,370.6L509.61,368.68L523.39,363.12L537.16,363.06L550.93,370.08L564.71,362.06L578.48,368.37L592.25,368.25L606.03,381.83L619.8,381.14L633.57,377.51L647.34,396.28L661.12,394.32L674.89,374.84L688.66,372.39" style="vector-effect: none; fill: none; stroke: rgb(239, 85, 59); stroke-opacity: 1; stroke-width: 0px; opacity: 1;"/></g><g class="points"/><g class="text"/></g><g class="trace scatter trace998a71" style="stroke-miterlimit: 2;"><g class="fills"/><g class="errorbars"/><g class="lines"><path class="js-line" d="M13.78,452.52L27.55,427.23L41.33,414.49L55.1,415.47L68.87,425.46L82.65,431.2L96.42,432.21L110.19,434.42L123.97,438.19L137.74,435.87L151.51,427.68L165.29,401.38L179.06,398.12L192.83,420.12L206.61,419.42L220.38,425.25L234.15,422.32L261.7,422.22L275.47,400.21L289.24,396.98L303.02,386.9L316.79,413.33L330.56,420.35L344.34,422.31L358.11,421.35L385.66,419.32L399.43,395.08L413.2,404.9L426.98,409.06L440.75,410.13L454.52,418.22L468.29,418L482.07,416.75L495.84,401.81L509.61,409.29L523.39,409.28L537.16,408.23L550.93,417.89L564.71,417.02L578.48,426.27L592.25,424.17L606.03,426.15L619.8,425.72L633.57,420.46L647.34,418.37L661.12,412.55L674.89,413.13L688.66,426.7" style="vector-effect: none; fill: none; stroke: rgb(0, 204, 150); stroke-opacity: 1; stroke-width: 0px; opacity: 1;"/></g><g class="points"/><g class="text"/></g><g class="trace scatter tracec7fa7c" style="stroke-miterlimit: 2; opacity: 1;"><g class="fills"/><g class="errorbars"/><g class="lines"><path class="js-line" d="M0.01,501.26L13.78,436.23L27.55,416.77L41.33,399.54L55.1,394.54L68.87,379.53L82.65,341.74L96.42,339.51L110.19,335.07L123.97,357.3L137.74,357.85L151.51,372.86L165.29,385.65L179.06,397.32L192.83,396.76L206.61,378.98L220.38,381.76L234.15,378.98L247.92,381.76L261.7,371.75L275.47,378.42L289.24,388.98L303.02,391.21L316.79,391.21L330.56,393.43L344.34,395.65L358.11,401.21L371.88,390.65L385.66,385.65L399.43,379.53L413.2,386.76L426.98,386.76L440.75,376.75L454.52,375.09L468.29,378.98L482.07,373.42L495.84,360.08L509.61,358.41L523.39,358.97L537.16,352.85L550.93,348.41L564.71,352.85L578.48,355.63L592.25,352.3L606.03,351.18L619.8,358.97L633.57,358.41L647.34,361.75L661.12,360.63L674.89,367.3L688.66,363.97" style="vector-effect: none; fill: none; stroke: rgb(148, 103, 189); stroke-opacity: 1; stroke-width: 2.5px; opacity: 1;"/></g><g class="points"/><g class="text"/></g><g class="trace scatter trace7352c1" style="stroke-miterlimit: 2;"><g class="fills"><g><path class="js-fill" d="M13.78,528.2L27.55,490.02L41.33,468.57L55.1,455.35L68.87,445.18L82.65,384.62L96.42,380.89L110.19,372.76L123.97,428.5L137.74,429.23L151.51,440.12L165.29,435.5L179.06,447.56L192.83,447.63L206.61,408.63L220.38,412.06L234.15,408.63L247.92,408.97L261.7,387.02L275.47,389.26L289.24,415.21L303.02,418.54L316.79,418.54L344.34,419.01L358.11,426.26L371.88,409.8L385.66,403.25L399.43,405L413.2,418.23L426.98,418.23L440.75,404.39L454.52,403.18L468.29,409.08L482.07,413.36L495.84,392.11L509.61,389.37L523.39,390.01L537.16,386.12L550.93,375.04L564.71,372.72L578.48,375.27L592.25,370.4L606.03,368.58L619.8,374.13L633.57,372.93L647.34,371.04L661.12,370.4L674.89,381.83L688.66,382.77L688.66,345.17L674.89,352.78L661.12,350.87L647.34,352.45L633.57,343.89L619.8,343.8L606.03,333.79L592.25,334.19L578.48,336L564.71,332.98L550.93,321.77L537.16,319.58L523.39,327.92L509.61,327.45L495.84,328.04L482.07,333.47L468.29,348.87L454.52,346.99L440.75,349.12L426.98,355.28L413.2,355.28L399.43,354.07L385.66,368.04L371.88,371.5L358.11,376.16L316.79,363.87L303.02,363.87L289.24,362.75L275.47,367.58L261.7,356.48L247.92,354.55L234.15,349.32L220.38,351.45L206.61,349.32L192.83,345.89L179.06,347.08L165.29,335.79L151.51,305.6L137.74,286.48L123.97,286.1L110.19,297.37L96.42,298.14L82.65,298.85L68.87,313.88L55.1,333.73L41.33,330.52L27.55,343.53L13.78,344.26Z" style="fill: rgb(148, 103, 189); fill-opacity: 0.1; stroke-width: 0;"/></g></g><g class="errorbars"/><g class="lines"><path class="js-line" d="M13.78,344.26L27.55,343.53L41.33,330.52L55.1,333.73L68.87,313.88L82.65,298.85L96.42,298.14L110.19,297.37L123.97,286.1L137.74,286.48L151.51,305.6L165.29,335.79L179.06,347.08L192.83,345.89L206.61,349.32L220.38,351.45L234.15,349.32L247.92,354.55L261.7,356.48L275.47,367.58L289.24,362.75L303.02,363.87L316.79,363.87L358.11,376.16L371.88,371.5L385.66,368.04L399.43,354.07L413.2,355.28L426.98,355.28L440.75,349.12L454.52,346.99L468.29,348.87L482.07,333.47L495.84,328.04L509.61,327.45L523.39,327.92L537.16,319.58L550.93,321.77L564.71,332.98L578.48,336L592.25,334.19L606.03,333.79L619.8,343.8L633.57,343.89L647.34,352.45L661.12,350.87L674.89,352.78L688.66,345.17" style="vector-effect: none; fill: none; stroke: rgb(255, 161, 90); stroke-opacity: 1; stroke-width: 0px; opacity: 1;"/></g><g class="points"/><g class="text"/></g><g class="trace scatter trace535f51" style="stroke-miterlimit: 2;"><g class="fills"/><g class="errorbars"/><g class="lines"><path class="js-line" d="M13.78,528.2L27.55,490.02L41.33,468.57L55.1,455.35L68.87,445.18L82.65,384.62L96.42,380.89L110.19,372.76L123.97,428.5L137.74,429.23L151.51,440.12L165.29,435.5L179.06,447.56L192.83,447.63L206.61,408.63L220.38,412.06L234.15,408.63L247.92,408.97L261.7,387.02L275.47,389.26L289.24,415.21L303.02,418.54L316.79,418.54L344.34,419.01L358.11,426.26L371.88,409.8L385.66,403.25L399.43,405L413.2,418.23L426.98,418.23L440.75,404.39L454.52,403.18L468.29,409.08L482.07,413.36L495.84,392.11L509.61,389.37L523.39,390.01L537.16,386.12L550.93,375.04L564.71,372.72L578.48,375.27L592.25,370.4L606.03,368.58L619.8,374.13L633.57,372.93L647.34,371.04L661.12,370.4L674.89,381.83L688.66,382.77" style="vector-effect: none; fill: none; stroke: rgb(25, 211, 243); stroke-opacity: 1; stroke-width: 0px; opacity: 1;"/></g><g class="points"/><g class="text"/></g><g class="trace scatter traceade8e7" style="stroke-miterlimit: 2; opacity: 1;"><g class="fills"/><g class="errorbars"/><g class="lines"><path class="js-line" d="M0.01,487.92L13.78,446.23L27.55,445.68L41.33,436.23L55.1,425.22L82.65,412.33L96.42,402.32L110.19,399.54L123.97,407.88L137.74,397.32L151.51,392.32L165.29,381.2L179.06,387.31L192.83,372.86L206.61,357.3L220.38,358.97L234.15,359.52L247.92,356.19L261.7,353.96L275.47,357.85L289.24,351.74L303.02,353.96L316.79,352.3L330.56,354.52L344.34,350.07L358.11,349.52L371.88,357.85L385.66,354.52L399.43,356.19L413.2,348.96L426.98,353.96L440.75,351.74L454.52,345.07L482.07,346.74L495.84,349.52L509.61,352.3L523.39,351.74L537.16,352.85L550.93,355.08L564.71,352.85L578.48,349.52L592.25,340.07L606.03,336.73L619.8,341.74L633.57,350.07L647.34,350.63L661.12,363.41L674.89,361.75L688.66,367.86" style="vector-effect: none; fill: none; stroke: rgb(214, 39, 40); stroke-opacity: 1; stroke-width: 2.5px; opacity: 1;"/></g><g class="points"/><g class="text"/></g><g class="trace scatter trace0a9dd7" style="stroke-miterlimit: 2;"><g class="fills"><g><path class="js-fill" d="M13.78,505.19L27.55,487.38L41.33,475.17L68.87,459.33L82.65,440.44L96.42,442.05L110.19,436.18L123.97,451.77L137.74,454.52L151.51,451.78L165.29,434.06L179.06,437.11L192.83,421.09L206.61,381.84L220.38,380.44L234.15,381.01L247.92,375.02L261.7,369.81L275.47,372.77L289.24,370.42L303.02,369.81L316.79,367.75L330.56,372.29L344.34,367.17L358.11,366.09L371.88,373.92L385.66,375.93L399.43,377.67L413.2,370.33L426.98,376.62L440.75,374.2L454.52,363.87L468.29,363.41L495.84,365.68L509.61,373.56L523.39,373.19L537.16,373.6L550.93,373.15L564.71,370.34L578.48,369.83L592.25,348.93L606.03,347.21L619.8,360.53L633.57,377.63L647.34,378.24L661.12,395.72L674.89,396.24L688.66,397.31L688.66,338.41L674.89,327.25L661.12,331.1L647.34,323.01L633.57,322.52L619.8,322.94L606.03,326.26L592.25,331.2L578.48,329.2L564.71,335.36L550.93,337L537.16,332.1L523.39,330.29L509.61,331.03L495.84,333.35L482.07,328.88L468.29,328.95L454.52,326.27L440.75,329.28L426.98,331.3L413.2,327.59L399.43,334.7L385.66,333.11L371.88,341.79L358.11,332.94L344.34,332.98L330.56,336.75L316.79,336.84L303.02,338.12L289.24,333.06L275.47,342.94L261.7,338.12L247.92,337.35L234.15,338.04L220.38,337.49L206.61,332.75L192.83,324.64L179.06,337.52L165.29,328.34L151.51,332.86L137.74,340.12L123.97,363.99L110.19,362.9L96.42,362.6L82.65,384.21L68.87,378.66L55.1,383.47L41.33,397.29L27.55,403.98L13.78,387.28Z" style="fill: rgb(214, 39, 40); fill-opacity: 0.1; stroke-width: 0;"/></g></g><g class="errorbars"/><g class="lines"><path class="js-line" d="M13.78,387.28L27.55,403.98L41.33,397.29L55.1,383.47L68.87,378.66L82.65,384.21L96.42,362.6L110.19,362.9L123.97,363.99L137.74,340.12L151.51,332.86L165.29,328.34L179.06,337.52L192.83,324.64L206.61,332.75L220.38,337.49L234.15,338.04L247.92,337.35L261.7,338.12L275.47,342.94L289.24,333.06L303.02,338.12L316.79,336.84L330.56,336.75L344.34,332.98L358.11,332.94L371.88,341.79L385.66,333.11L399.43,334.7L413.2,327.59L426.98,331.3L440.75,329.28L454.52,326.27L468.29,328.95L482.07,328.88L495.84,333.35L509.61,331.03L523.39,330.29L537.16,332.1L550.93,337L564.71,335.36L578.48,329.2L592.25,331.2L606.03,326.26L619.8,322.94L633.57,322.52L647.34,323.01L661.12,331.1L674.89,327.25L688.66,338.41" style="vector-effect: none; fill: none; stroke: rgb(182, 232, 128); stroke-opacity: 1; stroke-width: 0px; opacity: 1;"/></g><g class="points"/><g class="text"/></g><g class="trace scatter tracea499ed" style="stroke-miterlimit: 2;"><g class="fills"/><g class="errorbars"/><g class="lines"><path class="js-line" d="M13.78,505.19L27.55,487.38L41.33,475.17L68.87,459.33L82.65,440.44L96.42,442.05L110.19,436.18L123.97,451.77L137.74,454.52L151.51,451.78L165.29,434.06L179.06,437.11L192.83,421.09L206.61,381.84L220.38,380.44L234.15,381.01L247.92,375.02L261.7,369.81L275.47,372.77L289.24,370.42L303.02,369.81L316.79,367.75L330.56,372.29L344.34,367.17L358.11,366.09L371.88,373.92L385.66,375.93L399.43,377.67L413.2,370.33L426.98,376.62L440.75,374.2L454.52,363.87L468.29,363.41L495.84,365.68L509.61,373.56L523.39,373.19L537.16,373.6L550.93,373.15L564.71,370.34L578.48,369.83L592.25,348.93L606.03,347.21L619.8,360.53L633.57,377.63L647.34,378.24L661.12,395.72L674.89,396.24L688.66,397.31" style="vector-effect: none; fill: none; stroke: rgb(255, 151, 255); stroke-opacity: 1; stroke-width: 0px; opacity: 1;"/></g><g class="points"/><g class="text"/></g><g class="trace scatter trace200c6c" style="stroke-miterlimit: 2; opacity: 1;"><g class="fills"/><g class="errorbars"/><g class="lines"><path class="js-line" d="M0.01,427.89L13.78,394.54L27.55,356.74L41.33,362.02L55.1,360.52L68.87,350.07L82.65,337.84L96.42,341.18L110.19,348.96L123.97,348.41L137.74,344.51L151.51,347.85L165.29,345.63L179.06,335.07L192.83,342.85L206.61,334.51L220.38,333.95L234.15,337.29L247.92,338.4L261.7,343.96L275.47,339.51L303.02,342.29L316.79,343.4L330.56,344.51L344.34,346.74L358.11,346.18L371.88,343.4L385.66,346.74L399.43,345.07L413.2,344.51L426.98,342.85L440.75,344.51L454.52,344.51L468.29,348.41L482.07,350.07L495.84,341.18L509.61,337.29L523.39,330.62L537.16,332.84L550.93,324.5L564.71,325.06L578.48,332.29L592.25,331.73L606.03,337.84L619.8,331.73L647.34,336.18L661.12,331.73L674.89,333.4L688.66,327.84" style="vector-effect: none; fill: none; stroke: rgb(44, 160, 44); stroke-opacity: 1; stroke-width: 2.5px; opacity: 1;"/></g><g class="points"/><g class="text"/></g><g class="trace scatter tracee1b9e9" style="stroke-miterlimit: 2;"><g class="fills"><g><path class="js-fill" d="M13.78,441.71L27.55,430.22L41.33,422.94L68.87,403.84L82.65,376.62L96.42,383.1L110.19,380.58L123.97,379.44L137.74,376.08L165.29,371.77L179.06,356.31L192.83,368.92L206.61,356.02L220.38,355.61L234.15,357.46L247.92,359L261.7,362.28L275.47,350.82L289.24,350.37L303.02,349.8L316.79,350.61L330.56,352.95L344.34,358.42L358.11,357.88L371.88,359.56L385.66,362.76L399.43,361.87L413.2,360.99L426.98,357.27L440.75,359.72L454.52,359.72L468.29,368.79L482.07,369.48L495.84,369.95L509.61,365.46L523.39,358.63L537.16,360.16L550.93,340.71L564.71,342.12L578.48,343.77L592.25,343.36L619.8,352.44L633.57,354.88L647.34,359.45L661.12,356.37L674.89,358.06L688.66,351.42L688.66,304.26L674.89,308.74L661.12,307.09L647.34,312.9L633.57,313.03L619.8,311.02L606.03,327.51L592.25,320.1L578.48,320.8L564.71,308L550.93,308.3L523.39,302.6L509.61,309.11L495.84,312.41L482.07,330.66L468.29,328.02L454.52,329.3L440.75,329.3L426.98,328.42L399.43,328.27L385.66,330.72L371.88,327.25L358.11,334.49L344.34,335.06L330.56,336.08L316.79,336.2L303.02,334.78L289.24,331.99L275.47,328.2L261.7,325.64L247.92,317.8L234.15,317.12L220.38,312.3L206.61,313L192.83,316.78L179.06,313.82L165.29,319.48L151.51,321.59L137.74,312.95L123.97,317.38L110.19,317.35L96.42,299.26L82.65,299.07L68.87,296.31L55.1,307.66L41.33,301.11L27.55,283.27L13.78,347.38Z" style="fill: rgb(44, 160, 44); fill-opacity: 0.1; stroke-width: 0;"/></g></g><g class="errorbars"/><g class="lines"><path class="js-line" d="M13.78,347.38L27.55,283.27L41.33,301.11L55.1,307.66L68.87,296.31L82.65,299.07L96.42,299.26L110.19,317.35L123.97,317.38L137.74,312.95L151.51,321.59L165.29,319.48L179.06,313.82L192.83,316.78L206.61,313L220.38,312.3L234.15,317.12L247.92,317.8L261.7,325.64L275.47,328.2L289.24,331.99L303.02,334.78L316.79,336.2L330.56,336.08L344.34,335.06L358.11,334.49L371.88,327.25L385.66,330.72L399.43,328.27L426.98,328.42L440.75,329.3L454.52,329.3L468.29,328.02L482.07,330.66L495.84,312.41L509.61,309.11L523.39,302.6L550.93,308.3L564.71,308L578.48,320.8L592.25,320.1L606.03,327.51L619.8,311.02L633.57,313.03L647.34,312.9L661.12,307.09L674.89,308.74L688.66,304.26" style="vector-effect: none; fill: none; stroke: rgb(99, 110, 250); stroke-opacity: 1; stroke-width: 0px; opacity: 1;"/></g><g class="points"/><g class="text"/></g><g class="trace scatter traceadea8c" style="stroke-miterlimit: 2;"><g class="fills"/><g class="errorbars"/><g class="lines"><path class="js-line" d="M13.78,441.71L27.55,430.22L41.33,422.94L68.87,403.84L82.65,376.62L96.42,383.1L110.19,380.58L123.97,379.44L137.74,376.08L165.29,371.77L179.06,356.31L192.83,368.92L206.61,356.02L220.38,355.61L234.15,357.46L247.92,359L261.7,362.28L275.47,350.82L289.24,350.37L303.02,349.8L316.79,350.61L330.56,352.95L344.34,358.42L358.11,357.88L371.88,359.56L385.66,362.76L399.43,361.87L413.2,360.99L426.98,357.27L440.75,359.72L454.52,359.72L468.29,368.79L482.07,369.48L495.84,369.95L509.61,365.46L523.39,358.63L537.16,360.16L550.93,340.71L564.71,342.12L578.48,343.77L592.25,343.36L619.8,352.44L633.57,354.88L647.34,359.45L661.12,356.37L674.89,358.06L688.66,351.42" style="vector-effect: none; fill: none; stroke: rgb(239, 85, 59); stroke-opacity: 1; stroke-width: 0px; opacity: 1;"/></g><g class="points"/><g class="text"/></g><g class="trace scatter trace4cf38f" style="stroke-miterlimit: 2; opacity: 1;"><g class="fills"/><g class="errorbars"/><g class="lines"><path class="js-line" d="M0.01,454.57L13.78,456.24L27.55,439.01L41.33,432.89L55.1,431.23L68.87,430.11L82.65,422.89L96.42,413.44L110.19,407.88L123.97,393.43L137.74,382.87L151.51,368.97L165.29,353.41L179.06,341.74L192.83,346.18L206.61,354.52L220.38,351.74L234.15,360.08L247.92,361.75L261.7,368.97L275.47,360.08L289.24,353.96L303.02,356.19L316.79,350.07L330.56,352.3L358.11,335.62L371.88,337.84L385.66,336.73L399.43,330.62L413.2,318.39L426.98,327.28L440.75,340.07L454.52,343.96L468.29,341.18L482.07,343.4L495.84,357.85L509.61,355.63L523.39,346.74L537.16,346.18L564.71,347.29L578.48,343.4L592.25,333.4L606.03,342.29L619.8,335.07L633.57,335.07L647.34,336.18L661.12,338.4L674.89,343.96L688.66,338.4" style="vector-effect: none; fill: none; stroke: rgb(255, 127, 14); stroke-opacity: 1; stroke-width: 2.5px; opacity: 1;"/></g><g class="points"/><g class="text"/></g><g class="trace scatter trace613b3d" style="stroke-miterlimit: 2;"><g class="fills"><g><path class="js-fill" d="M13.78,458.6L27.55,468.9L41.33,460.19L55.1,455.16L68.87,451.69L82.65,441.72L96.42,423.26L110.19,427.89L123.97,431.14L137.74,418.96L151.51,401.69L165.29,384.17L179.06,362.34L192.83,375.47L206.61,384.65L220.38,381.9L234.15,393.47L247.92,392.78L261.7,396.28L275.47,384.65L289.24,377.77L303.02,379.56L316.79,366.09L330.56,365.24L344.34,355.78L371.88,362.44L385.66,360.38L399.43,353.47L413.2,351.7L426.98,368.69L440.75,381.17L454.52,387.72L468.29,384.92L482.07,386.04L495.84,379.05L509.61,374.92L523.39,369.42L537.16,367.97L550.93,368.21L564.71,368.32L578.48,364.98L592.25,357.04L606.03,368.78L619.8,356.41L633.57,356.41L647.34,357.66L661.12,359.95L674.89,358.02L688.66,342.83L688.66,333.97L674.89,329.9L661.12,316.85L647.34,314.69L633.57,313.72L619.8,313.72L606.03,315.81L592.25,309.75L578.48,321.82L564.71,326.26L550.93,325.26L523.39,324.05L509.61,336.34L495.84,336.66L482.07,300.76L468.29,297.44L454.52,300.2L440.75,298.97L426.98,285.87L413.2,285.08L399.43,307.76L385.66,313.09L371.88,313.25L358.11,312.26L344.34,332.14L330.56,339.35L316.79,334.06L303.02,332.82L289.24,330.15L275.47,335.51L261.7,341.66L247.92,330.72L234.15,326.68L220.38,321.58L206.61,324.39L192.83,316.9L179.06,321.13L165.29,322.65L151.51,336.25L137.74,346.78L123.97,355.72L110.19,387.87L96.42,403.62L82.65,404.05L68.87,408.53L41.33,405.59L27.55,409.12L13.78,453.88Z" style="fill: rgb(255, 127, 14); fill-opacity: 0.1; stroke-width: 0;"/></g></g><g class="errorbars"/><g class="lines"><path class="js-line" d="M13.78,453.88L27.55,409.12L41.33,405.59L68.87,408.53L82.65,404.05L96.42,403.62L110.19,387.87L123.97,355.72L137.74,346.78L151.51,336.25L165.29,322.65L179.06,321.13L192.83,316.9L206.61,324.39L220.38,321.58L234.15,326.68L247.92,330.72L261.7,341.66L275.47,335.51L289.24,330.15L303.02,332.82L316.79,334.06L330.56,339.35L344.34,332.14L358.11,312.26L371.88,313.25L385.66,313.09L399.43,307.76L413.2,285.08L426.98,285.87L440.75,298.97L454.52,300.2L468.29,297.44L482.07,300.76L495.84,336.66L509.61,336.34L523.39,324.05L550.93,325.26L564.71,326.26L578.48,321.82L592.25,309.75L606.03,315.81L619.8,313.72L633.57,313.72L647.34,314.69L661.12,316.85L674.89,329.9L688.66,333.97" style="vector-effect: none; fill: none; stroke: rgb(171, 99, 250); stroke-opacity: 1; stroke-width: 0px; opacity: 1;"/></g><g class="points"/><g class="text"/></g><g class="trace scatter trace65cd58" style="stroke-miterlimit: 2;"><g class="fills"/><g class="errorbars"/><g class="lines"><path class="js-line" d="M13.78,458.6L27.55,468.9L41.33,460.19L55.1,455.16L68.87,451.69L82.65,441.72L96.42,423.26L110.19,427.89L123.97,431.14L137.74,418.96L151.51,401.69L165.29,384.17L179.06,362.34L192.83,375.47L206.61,384.65L220.38,381.9L234.15,393.47L247.92,392.78L261.7,396.28L275.47,384.65L289.24,377.77L303.02,379.56L316.79,366.09L330.56,365.24L344.34,355.78L371.88,362.44L385.66,360.38L399.43,353.47L413.2,351.7L426.98,368.69L440.75,381.17L454.52,387.72L468.29,384.92L482.07,386.04L495.84,379.05L509.61,374.92L523.39,369.42L537.16,367.97L550.93,368.21L564.71,368.32L578.48,364.98L592.25,357.04L606.03,368.78L619.8,356.41L633.57,356.41L647.34,357.66L661.12,359.95L674.89,358.02L688.66,342.83" style="vector-effect: none; fill: none; stroke: rgb(255, 161, 90); stroke-opacity: 1; stroke-width: 0px; opacity: 1;"/></g><g class="points"/><g class="text"/></g><g class="trace scatter trace3bda38" style="stroke-miterlimit: 2; opacity: 1;"><g class="fills"/><g class="errorbars"/><g class="lines"><path class="js-line" d="M0.01,484.59L13.78,424.56L27.55,413.44L41.33,397.88L55.1,378.53L68.87,366.75L82.65,331.73L96.42,290.04L110.19,237.79L123.97,189.99L137.74,149.41L151.51,110.5L165.29,82.16L179.06,74.37L192.83,75.49L220.38,81.6L234.15,81.6L247.92,72.15L261.7,75.49L289.24,77.15L303.02,79.38L316.79,80.49L330.56,83.82L358.11,79.93L371.88,79.38L385.66,76.6L399.43,74.93L426.98,74.93L440.75,77.15L454.52,73.26L468.29,73.26L495.84,75.49L509.61,74.93L523.39,71.04L537.16,72.71L550.93,73.26L564.71,69.37L578.48,73.82L592.25,72.71L606.03,72.71L619.8,71.04L633.57,70.48L647.34,74.37L661.12,68.26L674.89,71.6L688.66,78.82" style="vector-effect: none; fill: none; stroke: rgb(31, 119, 180); stroke-opacity: 1; stroke-width: 2.5px; opacity: 1;"/></g><g class="points"/><g class="text"/></g><g class="trace scatter tracedc4ef5" style="stroke-miterlimit: 2;"><g class="fills"><g><path class="js-fill" d="M13.78,509.45L27.55,476.48L41.33,458.03L68.87,433.84L82.65,375.95L96.42,385.44L110.19,350.91L137.74,261.44L151.51,193.21L165.29,104.64L179.06,90.71L192.83,92.32L206.61,94.98L234.15,94.5L247.92,85.77L261.7,90.2L275.47,91.22L303.02,95.95L316.79,96.88L330.56,92.37L344.34,90.65L358.11,88.54L371.88,87.2L385.66,83.8L399.43,82.06L426.98,82.06L440.75,86.92L454.52,82.62L468.29,82.62L495.84,84.35L509.61,83.98L523.39,75.76L537.16,76.21L564.71,77.19L578.48,89.09L633.57,86.47L647.34,88.37L661.12,73.6L674.89,79.6L688.66,96.43L688.66,61.22L674.89,63.59L661.12,62.92L647.34,60.38L633.57,54.5L619.8,54.98L606.03,56.96L592.25,56.96L578.48,58.55L564.71,61.55L550.93,69.82L537.16,69.21L523.39,66.32L509.61,65.88L495.84,66.62L482.07,64.94L468.29,63.91L454.52,63.91L440.75,67.39L413.2,67.8L399.43,67.8L385.66,69.39L371.88,71.56L358.11,71.32L344.34,72.55L330.56,75.28L316.79,64.09L303.02,62.8L289.24,61.03L261.7,60.77L247.92,58.54L234.15,68.7L220.38,68.7L206.61,62.67L192.83,58.66L179.06,58.04L165.29,59.67L151.51,27.8L137.74,37.39L123.97,73.81L110.19,124.68L96.42,194.64L82.65,287.51L68.87,299.66L55.1,310.82L41.33,337.72L27.55,350.4L13.78,339.66Z" style="fill: rgb(31, 119, 180); fill-opacity: 0.1; stroke-width: 0;"/></g></g><g class="errorbars"/><g class="lines"><path class="js-line" d="M13.78,339.66L27.55,350.4L41.33,337.72L55.1,310.82L68.87,299.66L82.65,287.51L96.42,194.64L110.19,124.68L123.97,73.81L137.74,37.39L151.51,27.8L165.29,59.67L179.06,58.04L192.83,58.66L206.61,62.67L220.38,68.7L234.15,68.7L247.92,58.54L261.7,60.77L289.24,61.03L303.02,62.8L316.79,64.09L330.56,75.28L344.34,72.55L358.11,71.32L371.88,71.56L385.66,69.39L399.43,67.8L413.2,67.8L440.75,67.39L454.52,63.91L468.29,63.91L482.07,64.94L495.84,66.62L509.61,65.88L523.39,66.32L537.16,69.21L550.93,69.82L564.71,61.55L578.48,58.55L592.25,56.96L606.03,56.96L619.8,54.98L633.57,54.5L647.34,60.38L661.12,62.92L674.89,63.59L688.66,61.22" style="vector-effect: none; fill: none; stroke: rgb(255, 102, 146); stroke-opacity: 1; stroke-width: 0px; opacity: 1;"/></g><g class="points"/><g class="text"/></g><g class="trace scatter tracee565eb" style="stroke-miterlimit: 2;"><g class="fills"/><g class="errorbars"/><g class="lines"><path class="js-line" d="M13.78,509.45L27.55,476.48L41.33,458.03L68.87,433.84L82.65,375.95L96.42,385.44L110.19,350.91L137.74,261.44L151.51,193.21L165.29,104.64L179.06,90.71L192.83,92.32L206.61,94.98L234.15,94.5L247.92,85.77L261.7,90.2L275.47,91.22L303.02,95.95L316.79,96.88L330.56,92.37L344.34,90.65L358.11,88.54L371.88,87.2L385.66,83.8L399.43,82.06L426.98,82.06L440.75,86.92L454.52,82.62L468.29,82.62L495.84,84.35L509.61,83.98L523.39,75.76L537.16,76.21L564.71,77.19L578.48,89.09L633.57,86.47L647.34,88.37L661.12,73.6L674.89,79.6L688.66,96.43" style="vector-effect: none; fill: none; stroke: rgb(182, 232, 128); stroke-opacity: 1; stroke-width: 0px; opacity: 1;"/></g><g class="points"/><g class="text"/></g></g></g><g class="overplot"/><path class="xlines-above crisp" d="M0,0" style="fill: none;"/><path class="ylines-above crisp" d="M0,0" style="fill: none;"/><g class="overlines-above"/><g class="xaxislayer-above"><g class="xtick"><text text-anchor="middle" x="0" y="603" transform="translate(89,0)" style="font-family: 'Open Sans', verdana, arial, sans-serif; font-size: 30px; fill: rgb(42, 63, 95); fill-opacity: 1; white-space: pre; opacity: 1;">0</text></g><g class="xtick"><text text-anchor="middle" x="0" y="603" style="font-family: 'Open Sans', verdana, arial, sans-serif; font-size: 30px; fill: rgb(42, 63, 95); fill-opacity: 1; white-space: pre; opacity: 1;" transform="translate(433.33,0)">1M</text></g><g class="xtick"><text text-anchor="middle" x="0" y="603" style="font-family: 'Open Sans', verdana, arial, sans-serif; font-size: 30px; fill: rgb(42, 63, 95); fill-opacity: 1; white-space: pre; opacity: 0;" transform="translate(777.66,0)">2M</text></g></g><g class="yaxislayer-above"><g class="ytick"><text text-anchor="end" x="88" y="10.5" transform="translate(0,517.26)" style="font-family: 'Open Sans', verdana, arial, sans-serif; font-size: 30px; fill: rgb(42, 63, 95); fill-opacity: 1; white-space: pre; opacity: 1;">0</text></g><g class="ytick"><text text-anchor="end" x="88" y="10.5" style="font-family: 'Open Sans', verdana, arial, sans-serif; font-size: 30px; fill: rgb(42, 63, 95); fill-opacity: 1; white-space: pre; opacity: 1;" transform="translate(0,417.21)">0.2</text></g><g class="ytick"><text text-anchor="end" x="88" y="10.5" style="font-family: 'Open Sans', verdana, arial, sans-serif; font-size: 30px; fill: rgb(42, 63, 95); fill-opacity: 1; white-space: pre; opacity: 1;" transform="translate(0,317.16)">0.4</text></g><g class="ytick"><text text-anchor="end" x="88" y="10.5" style="font-family: 'Open Sans', verdana, arial, sans-serif; font-size: 30px; fill: rgb(42, 63, 95); fill-opacity: 1; white-space: pre; opacity: 1;" transform="translate(0,217.11)">0.6</text></g><g class="ytick"><text text-anchor="end" x="88" y="10.5" style="font-family: 'Open Sans', verdana, arial, sans-serif; font-size: 30px; fill: rgb(42, 63, 95); fill-opacity: 1; white-space: pre; opacity: 1;" transform="translate(0,117.06)">0.8</text></g><g class="ytick"><text text-anchor="end" x="88" y="10.5" style="font-family: 'Open Sans', verdana, arial, sans-serif; font-size: 30px; fill: rgb(42, 63, 95); fill-opacity: 1; white-space: pre; opacity: 0;" transform="translate(0,17)">1</text></g></g><g class="overaxes-above"/></g></g><g class="polarlayer"/><g class="smithlayer"/><g class="ternarylayer"/><g class="geolayer"/><g class="funnelarealayer"/><g class="pielayer"/><g class="iciclelayer"/><g class="treemaplayer"/><g class="sunburstlayer"/><g class="glimages"/><defs id="topdefs-284573"><g class="clips"/></defs><g class="layer-above"><g class="imagelayer"/><g class="shapelayer"/></g><g class="infolayer"><g class="g-gtitle"/><g class="g-xtitle" transform="translate(0,-7.7000000000000455)"><text class="xtitle" x="433.5" y="649.7" text-anchor="middle" style="font-family: 'Open Sans', verdana, arial, sans-serif; font-size: 36px; fill: rgb(42, 63, 95); opacity: 1; font-weight: normal; white-space: pre;">Time Steps</text></g><g class="g-ytitle"/></g></svg>