<svg class="main-svg" xmlns="http://www.w3.org/2000/svg" xmlns:xlink="http://www.w3.org/1999/xlink" width="2400" height="1950" style="" viewBox="0 0 800 650"><rect x="0" y="0" width="800" height="650" style="fill: rgb(255, 255, 255); fill-opacity: 1;"/><defs id="defs-51127c"><g class="clips"><clipPath id="clip51127cxyplot" class="plotclip"><rect width="689" height="572"/></clipPath><clipPath class="axesclip" id="clip51127cx"><rect x="89" y="0" width="689" height="650"/></clipPath><clipPath class="axesclip" id="clip51127cy"><rect x="0" y="0" width="800" height="572"/></clipPath><clipPath class="axesclip" id="clip51127cxy"><rect x="89" y="0" width="689" height="572"/></clipPath></g><g class="gradients"/><g class="patterns"/></defs><g class="bglayer"/><g class="layer-below"><g class="imagelayer"/><g class="shapelayer"/></g><g class="cartesianlayer"><g class="subplot xy"><g class="layer-subplot"><g class="shapelayer"/><g class="imagelayer"/></g><g class="minor-gridlayer"><g class="x"/><g class="y"/></g><g class="gridlayer"><g class="x"><path class="xgrid crisp" transform="translate(433.33,0)" d="M0,0v572" style="stroke: rgb(235, 240, 248); stroke-opacity: 1; stroke-width: 1px;"/></g><g class="y"><path class="ygrid crisp" transform="translate(0,416.57)" d="M89,0h689" style="stroke: rgb(235, 240, 248); stroke-opacity: 1; stroke-width: 1px;"/><path class="ygrid crisp" transform="translate(0,322.29)" d="M89,0h689" style="stroke: rgb(235, 240, 248); stroke-opacity: 1; stroke-width: 1px;"/><path class="ygrid crisp" transform="translate(0,228.01)" d="M89,0h689" style="stroke: rgb(235, 240, 248); stroke-opacity: 1; stroke-width: 1px;"/><path class="ygrid crisp" transform="translate(0,133.73)" d="M89,0h689" style="stroke: rgb(235, 240, 248); stroke-opacity: 1; stroke-width: 1px;"/><path class="ygrid crisp" transform="translate(0,39.45)" d="M89,0h689" style="stroke: rgb(235, 240, 248); stroke-opacity: 1; stroke-width: 1px;"/></g></g><g class="zerolinelayer"><path class="xzl zl crisp" transform="translate(89,0)" d="M0,0v572" style="stroke: rgb(235, 240, 248); stroke-opacity: 1; stroke-width: 2px;"/><path class="yzl zl crisp" transform="translate(0,510.86)" d="M89,0h689" style="stroke: rgb(235, 240, 248); stroke-opacity: 1; stroke-width: 2px;"/></g><path class="xlines-below"/><path class="ylines-below"/><g class="overlines-below"/><g class="xaxislayer-below"/><g class="yaxislayer-below"/><g class="overaxes-below"/><g class="plot" transform="translate(89,0)" clip-path="url(#clip51127cxyplot)"><g class="scatterlayer mlayer"><g class="trace scatter trace02c7c4" style="stroke-miterlimit: 2; opacity: 1;"><g class="fills"/><g class="errorbars"/><g class="lines"><path class="js-line" d="M0.01,479.43L13.78,450.62L27.55,448L41.33,454.55L55.1,456.38L68.87,444.51L82.65,430.54L96.42,432.29L110.19,431.42L123.97,429.67L137.74,424.43L151.51,427.05L165.29,420.07L179.06,413.96L192.83,413.08L206.61,399.12L220.38,393L234.15,388.64L247.92,398.24L261.7,397.37L275.47,386.02L289.24,383.4L303.02,383.4L316.79,379.91L330.56,372.93L344.34,372.05L358.11,375.55L371.88,377.29L385.66,393L399.43,397.37L413.2,395.62L426.98,394.75L440.75,384.27L454.52,372.93L468.29,334.52L482.07,324.04L495.84,323.17L509.61,324.91L523.39,317.06L537.16,310.95L550.93,324.04L564.71,331.9L578.48,323.17L592.25,311.82L606.03,311.82L619.8,317.93L633.57,312.69L647.34,307.45L661.12,304.83L674.89,293.49L688.66,296.98" style="vector-effect: none; fill: none; stroke: rgb(140, 86, 75); stroke-opacity: 1; stroke-width: 2.5px; opacity: 1;"/></g><g class="points"/><g class="text"/></g><g class="trace scatter tracef147d0" style="stroke-miterlimit: 2;"><g class="fills"><g><path class="js-fill" d="M13.78,491.36L27.55,477.17L41.33,481.72L55.1,480.27L68.87,480.6L82.65,466.63L96.42,468.12L110.19,467L123.97,462.92L137.74,453.45L151.51,452.28L165.29,458.22L179.06,452.69L192.83,451.24L206.61,429.6L220.38,418.82L234.15,415.07L247.92,419.39L261.7,418.75L275.47,402.72L289.24,402.34L316.79,402.38L330.56,389.38L344.34,387.5L358.11,391.23L371.88,392.01L385.66,441.89L399.43,443.11L413.2,442.82L426.98,442.23L440.75,440.44L454.52,437.64L468.29,382.02L482.07,366.16L495.84,364.46L509.61,369.2L523.39,365.86L537.16,363.47L550.93,370.61L564.71,380.97L578.48,372.24L592.25,348.56L606.03,348.56L619.8,348.9L633.57,342.21L647.34,327.17L661.12,326.47L674.89,321.15L688.66,323.15L688.66,270.81L674.89,265.82L661.12,283.2L647.34,287.74L633.57,283.17L619.8,286.96L606.03,275.08L592.25,275.08L578.48,274.1L564.71,282.83L550.93,277.47L537.16,258.42L523.39,268.26L509.61,280.62L495.84,281.87L482.07,281.92L468.29,287.01L440.75,328.11L426.98,347.27L413.2,348.42L399.43,351.63L385.66,344.12L371.88,362.57L358.11,359.86L344.34,356.6L330.56,356.47L316.79,357.44L303.02,364.47L289.24,364.47L275.47,369.32L261.7,375.99L247.92,377.1L234.15,362.21L220.38,367.18L206.61,368.63L192.83,374.93L179.06,375.22L165.29,381.91L151.51,401.82L137.74,395.41L123.97,396.42L110.19,395.83L96.42,396.46L82.65,394.46L68.87,408.42L55.1,432.49L41.33,427.37L13.78,409.88Z" style="fill: rgb(140, 86, 75); fill-opacity: 0.1; stroke-width: 0;"/></g></g><g class="errorbars"/><g class="lines"><path class="js-line" d="M13.78,409.88L41.33,427.37L55.1,432.49L68.87,408.42L82.65,394.46L96.42,396.46L110.19,395.83L123.97,396.42L137.74,395.41L151.51,401.82L165.29,381.91L179.06,375.22L192.83,374.93L206.61,368.63L220.38,367.18L234.15,362.21L247.92,377.1L261.7,375.99L275.47,369.32L289.24,364.47L303.02,364.47L316.79,357.44L330.56,356.47L344.34,356.6L358.11,359.86L371.88,362.57L385.66,344.12L399.43,351.63L413.2,348.42L426.98,347.27L440.75,328.11L468.29,287.01L482.07,281.92L495.84,281.87L509.61,280.62L523.39,268.26L537.16,258.42L550.93,277.47L564.71,282.83L578.48,274.1L592.25,275.08L606.03,275.08L619.8,286.96L633.57,283.17L647.34,287.74L661.12,283.2L674.89,265.82L688.66,270.81" style="vector-effect: none; fill: none; stroke: rgb(239, 85, 59); stroke-opacity: 1; stroke-width: 0px; opacity: 1;"/></g><g class="points"/><g class="text"/></g><g class="trace scatter trace43cae9" style="stroke-miterlimit: 2;"><g class="fills"/><g class="errorbars"/><g class="lines"><path class="js-line" d="M13.78,491.36L27.55,477.17L41.33,481.72L55.1,480.27L68.87,480.6L82.65,466.63L96.42,468.12L110.19,467L123.97,462.92L137.74,453.45L151.51,452.28L165.29,458.22L179.06,452.69L192.83,451.24L206.61,429.6L220.38,418.82L234.15,415.07L247.92,419.39L261.7,418.75L275.47,402.72L289.24,402.34L316.79,402.38L330.56,389.38L344.34,387.5L358.11,391.23L371.88,392.01L385.66,441.89L399.43,443.11L413.2,442.82L426.98,442.23L440.75,440.44L454.52,437.64L468.29,382.02L482.07,366.16L495.84,364.46L509.61,369.2L523.39,365.86L537.16,363.47L550.93,370.61L564.71,380.97L578.48,372.24L592.25,348.56L606.03,348.56L619.8,348.9L633.57,342.21L647.34,327.17L661.12,326.47L674.89,321.15L688.66,323.15" style="vector-effect: none; fill: none; stroke: rgb(0, 204, 150); stroke-opacity: 1; stroke-width: 0px; opacity: 1;"/></g><g class="points"/><g class="text"/></g><g class="trace scatter trace64120b" style="stroke-miterlimit: 2; opacity: 1;"><g class="fills"/><g class="errorbars"/><g class="lines"><path class="js-line" d="M0.01,510.86L13.78,450.62L27.55,414.83L55.1,418.67L68.87,409.59L82.65,386.02L96.42,393L110.19,404.35L123.97,393L137.74,389.51L151.51,391.26L165.29,408.72L179.06,385.15L192.83,372.05L206.61,375.55L220.38,361.58L234.15,361.58L247.92,343.25L261.7,347.61L275.47,345.86L289.24,327.53L316.79,346.74L330.56,339.75L344.34,356.34L358.11,352.85L371.88,358.09L385.66,362.45L399.43,343.25L413.2,331.9L426.98,311.82L440.75,301.34L454.52,292.61L468.29,258.57L482.07,261.19L495.84,248.96L509.61,232.38L523.39,226.27L537.16,208.81L550.93,202.7L564.71,163.41L578.48,154.68L592.25,158.17L606.03,156.43L619.8,163.41L633.57,155.56L647.34,169.52L661.12,172.14L674.89,158.17L688.66,149.44" style="vector-effect: none; fill: none; stroke: rgb(148, 103, 189); stroke-opacity: 1; stroke-width: 2.5px; opacity: 1;"/></g><g class="points"/><g class="text"/></g><g class="trace scatter trace721f75" style="stroke-miterlimit: 2;"><g class="fills"><g><path class="js-fill" d="M13.78,535.81L27.55,501.27L41.33,487.24L55.1,480.04L68.87,468.82L82.65,419.38L96.42,431.46L110.19,434.29L123.97,427.55L137.74,420.84L151.51,421.15L165.29,451.24L179.06,446.86L192.83,435.41L206.61,438.26L220.38,425.45L234.15,425.45L247.92,377.03L261.7,374.2L275.47,373.92L289.24,366.73L303.02,381.51L316.79,404.94L330.56,397.95L344.34,420.64L358.11,419.88L371.88,417.66L385.66,424.84L399.43,396.97L413.2,396.93L426.98,362.49L440.75,360.42L454.52,356.31L468.29,300.26L482.07,307.52L495.84,305.96L509.61,287.35L523.39,282.45L537.16,274.03L550.93,270.38L564.71,203.12L578.48,195.52L592.25,203.92L606.03,200.33L619.8,207.32L633.57,203.15L647.34,207.93L661.12,207.62L674.89,188.29L688.66,175.32L688.66,123.57L674.89,128.06L661.12,136.67L647.34,131.12L633.57,107.96L619.8,119.51L606.03,112.52L592.25,112.43L578.48,113.84L564.71,123.71L550.93,135.02L537.16,143.58L523.39,170.08L509.61,177.4L495.84,191.97L482.07,214.85L468.29,216.87L454.52,228.92L440.75,242.27L426.98,261.14L413.2,266.86L399.43,289.52L385.66,300.06L371.88,298.51L358.11,285.82L344.34,292.04L330.56,281.55L316.79,288.54L303.02,292.76L289.24,288.34L275.47,317.8L261.7,321.02L247.92,309.46L234.15,297.71L220.38,297.71L206.61,312.83L192.83,308.7L179.06,323.44L165.29,366.2L151.51,361.37L137.74,358.19L123.97,358.46L110.19,374.42L96.42,354.55L68.87,350.36L55.1,357.3L41.33,345.91L27.55,328.39L13.78,365.44Z" style="fill: rgb(148, 103, 189); fill-opacity: 0.1; stroke-width: 0;"/></g></g><g class="errorbars"/><g class="lines"><path class="js-line" d="M13.78,365.44L27.55,328.39L41.33,345.91L55.1,357.3L68.87,350.36L96.42,354.55L110.19,374.42L123.97,358.46L137.74,358.19L151.51,361.37L165.29,366.2L179.06,323.44L192.83,308.7L206.61,312.83L220.38,297.71L234.15,297.71L247.92,309.46L261.7,321.02L275.47,317.8L289.24,288.34L303.02,292.76L316.79,288.54L330.56,281.55L344.34,292.04L358.11,285.82L371.88,298.51L385.66,300.06L399.43,289.52L413.2,266.86L426.98,261.14L440.75,242.27L454.52,228.92L468.29,216.87L482.07,214.85L495.84,191.97L509.61,177.4L523.39,170.08L537.16,143.58L550.93,135.02L564.71,123.71L578.48,113.84L592.25,112.43L606.03,112.52L619.8,119.51L633.57,107.96L647.34,131.12L661.12,136.67L674.89,128.06L688.66,123.57" style="vector-effect: none; fill: none; stroke: rgb(255, 161, 90); stroke-opacity: 1; stroke-width: 0px; opacity: 1;"/></g><g class="points"/><g class="text"/></g><g class="trace scatter trace41875e" style="stroke-miterlimit: 2;"><g class="fills"/><g class="errorbars"/><g class="lines"><path class="js-line" d="M13.78,535.81L27.55,501.27L41.33,487.24L55.1,480.04L68.87,468.82L82.65,419.38L96.42,431.46L110.19,434.29L123.97,427.55L137.74,420.84L151.51,421.15L165.29,451.24L179.06,446.86L192.83,435.41L206.61,438.26L220.38,425.45L234.15,425.45L247.92,377.03L261.7,374.2L275.47,373.92L289.24,366.73L303.02,381.51L316.79,404.94L330.56,397.95L344.34,420.64L358.11,419.88L371.88,417.66L385.66,424.84L399.43,396.97L413.2,396.93L426.98,362.49L440.75,360.42L454.52,356.31L468.29,300.26L482.07,307.52L495.84,305.96L509.61,287.35L523.39,282.45L537.16,274.03L550.93,270.38L564.71,203.12L578.48,195.52L592.25,203.92L606.03,200.33L619.8,207.32L633.57,203.15L647.34,207.93L661.12,207.62L674.89,188.29L688.66,175.32" style="vector-effect: none; fill: none; stroke: rgb(25, 211, 243); stroke-opacity: 1; stroke-width: 0px; opacity: 1;"/></g><g class="points"/><g class="text"/></g><g class="trace scatter trace12e7b3" style="stroke-miterlimit: 2; opacity: 1;"><g class="fills"/><g class="errorbars"/><g class="lines"><path class="js-line" d="M0.01,484.67L13.78,440.15L27.55,439.27L41.33,432.29L55.1,427.05L68.87,424.43L82.65,410.46L96.42,417.45L110.19,413.08L123.97,408.72L137.74,402.61L151.51,399.99L165.29,390.39L179.06,384.27L192.83,381.66L206.61,382.53L220.38,372.93L234.15,356.34L247.92,343.25L261.7,331.02L275.47,312.69L289.24,303.09L303.02,300.47L316.79,297.85L330.56,297.85L344.34,286.5L358.11,283.88L385.66,261.19L399.43,251.58L413.2,257.69L426.98,258.57L440.75,251.58L454.52,246.34L468.29,244.6L482.07,245.47L495.84,231.5L509.61,233.25L523.39,224.52L537.16,232.38L550.93,227.14L564.71,221.03L578.48,214.04L592.25,193.97L606.03,204.44L619.8,186.98L633.57,186.98L647.34,181.74L661.12,177.38L674.89,184.36L688.66,179.13" style="vector-effect: none; fill: none; stroke: rgb(214, 39, 40); stroke-opacity: 1; stroke-width: 2.5px; opacity: 1;"/></g><g class="points"/><g class="text"/></g><g class="trace scatter trace556077" style="stroke-miterlimit: 2;"><g class="fills"><g><path class="js-fill" d="M13.78,503.11L27.55,483.82L41.33,471.25L55.1,462.77L68.87,457.02L82.65,425.06L96.42,433.48L110.19,425.77L123.97,425.85L137.74,426.19L151.51,423.28L165.29,423.18L179.06,408.94L192.83,403.55L206.61,404.69L220.38,409.62L234.15,402.09L247.92,402.69L261.7,383.37L289.24,329.1L303.02,326.22L316.79,324.9L330.56,324.9L344.34,312.88L358.11,311.13L371.88,286.09L385.66,278.92L399.43,272.2L413.2,286.7L426.98,287.71L440.75,282.44L454.52,277.2L468.29,276.96L482.07,277.19L495.84,248.93L509.61,254.72L523.39,256.58L537.16,271.91L550.93,270.89L578.48,263.81L592.25,238.13L606.03,250.79L619.8,215.17L633.57,215.17L647.34,211.82L661.12,210.29L674.89,215.91L688.66,201.02L688.66,157.24L674.89,152.82L661.12,144.47L647.34,151.67L633.57,158.79L619.8,158.79L606.03,158.09L592.25,149.8L578.48,164.28L564.71,174.93L550.93,183.39L537.16,192.84L523.39,192.46L509.61,211.78L495.84,214.08L482.07,213.76L468.29,212.24L454.52,215.49L440.75,220.73L426.98,229.42L413.2,228.69L399.43,230.96L385.66,243.45L371.88,258.98L358.11,256.63L344.34,260.12L330.56,270.8L316.79,270.8L303.02,274.72L289.24,277.07L275.47,268.94L261.7,278.68L247.92,283.8L220.38,336.24L206.61,360.37L179.06,359.61L165.29,357.59L151.51,376.7L137.74,379.03L123.97,391.58L110.19,400.4L96.42,401.42L82.65,395.87L68.87,391.85L55.1,391.33L41.33,393.33L27.55,394.72L13.78,377.18Z" style="fill: rgb(214, 39, 40); fill-opacity: 0.1; stroke-width: 0;"/></g></g><g class="errorbars"/><g class="lines"><path class="js-line" d="M13.78,377.18L27.55,394.72L41.33,393.33L55.1,391.33L68.87,391.85L82.65,395.87L96.42,401.42L110.19,400.4L123.97,391.58L137.74,379.03L151.51,376.7L165.29,357.59L179.06,359.61L206.61,360.37L220.38,336.24L247.92,283.8L261.7,278.68L275.47,268.94L289.24,277.07L303.02,274.72L316.79,270.8L330.56,270.8L344.34,260.12L358.11,256.63L371.88,258.98L385.66,243.45L399.43,230.96L413.2,228.69L426.98,229.42L440.75,220.73L454.52,215.49L468.29,212.24L482.07,213.76L495.84,214.08L509.61,211.78L523.39,192.46L537.16,192.84L550.93,183.39L564.71,174.93L578.48,164.28L592.25,149.8L606.03,158.09L619.8,158.79L633.57,158.79L647.34,151.67L661.12,144.47L674.89,152.82L688.66,157.24" style="vector-effect: none; fill: none; stroke: rgb(182, 232, 128); stroke-opacity: 1; stroke-width: 0px; opacity: 1;"/></g><g class="points"/><g class="text"/></g><g class="trace scatter tracee85e5e" style="stroke-miterlimit: 2;"><g class="fills"/><g class="errorbars"/><g class="lines"><path class="js-line" d="M13.78,503.11L27.55,483.82L41.33,471.25L55.1,462.77L68.87,457.02L82.65,425.06L96.42,433.48L110.19,425.77L123.97,425.85L137.74,426.19L151.51,423.28L165.29,423.18L179.06,408.94L192.83,403.55L206.61,404.69L220.38,409.62L234.15,402.09L247.92,402.69L261.7,383.37L289.24,329.1L303.02,326.22L316.79,324.9L330.56,324.9L344.34,312.88L358.11,311.13L371.88,286.09L385.66,278.92L399.43,272.2L413.2,286.7L426.98,287.71L440.75,282.44L454.52,277.2L468.29,276.96L482.07,277.19L495.84,248.93L509.61,254.72L523.39,256.58L537.16,271.91L550.93,270.89L578.48,263.81L592.25,238.13L606.03,250.79L619.8,215.17L633.57,215.17L647.34,211.82L661.12,210.29L674.89,215.91L688.66,201.02" style="vector-effect: none; fill: none; stroke: rgb(255, 151, 255); stroke-opacity: 1; stroke-width: 0px; opacity: 1;"/></g><g class="points"/><g class="text"/></g><g class="trace scatter traced6af4f" style="stroke-miterlimit: 2; opacity: 1;"><g class="fills"/><g class="errorbars"/><g class="lines"><path class="js-line" d="M0.01,510.86L13.78,432.29L27.55,425.3L41.33,421.81L55.1,426L68.87,413.96L82.65,386.02L96.42,390.39L110.19,390.39L123.97,386.02L137.74,365.07L151.51,360.7L165.29,358.09L179.06,347.61L192.83,334.52L206.61,323.17L220.38,322.29L234.15,316.18L247.92,315.31L261.7,312.69L275.47,303.96L289.24,304.83L303.02,301.34L316.79,304.83L330.56,301.34L344.34,289.99L358.11,292.61L371.88,291.74L385.66,283.01L426.98,272.53L440.75,266.42L454.52,247.22L468.29,247.22L482.07,241.98L495.84,228.01L509.61,232.38L523.39,228.89L537.16,229.76L550.93,221.9L564.71,215.79L578.48,218.41L592.25,218.41L606.03,213.17L619.8,212.3L633.57,208.81L647.34,205.32L661.12,204.44L674.89,192.22L688.66,193.97" style="vector-effect: none; fill: none; stroke: rgb(44, 160, 44); stroke-opacity: 1; stroke-width: 2.5px; opacity: 1;"/></g><g class="points"/><g class="text"/></g><g class="trace scatter trace14afe9" style="stroke-miterlimit: 2;"><g class="fills"><g><path class="js-fill" d="M13.78,543.4L27.55,504.8L41.33,487.09L55.1,483.31L68.87,473.1L82.65,427.05L96.42,428.59L110.19,428.59L123.97,422.82L137.74,398.76L151.51,397.69L165.29,397.06L179.06,387.97L192.83,360.1L206.61,330.13L234.15,330.78L247.92,329.23L261.7,327.66L275.47,320.11L289.24,321.94L303.02,318.87L316.79,321.94L330.56,316.16L344.34,321.49L358.11,323.81L385.66,320.31L399.43,314.48L413.2,309.39L426.98,311.84L440.75,304.15L454.52,283.3L468.29,283.3L482.07,272.28L495.84,256.32L509.61,259.78L523.39,253.32L537.16,253.1L550.93,249.3L564.71,236.39L592.25,236.98L606.03,229.2L619.8,228.86L633.57,231.68L647.34,227.21L661.12,226.1L674.89,211.37L688.66,215.11L688.66,172.82L674.89,173.07L661.12,182.78L647.34,183.42L633.57,185.94L619.8,195.74L606.03,197.14L592.25,199.84L578.48,199.84L564.71,195.19L550.93,194.5L537.16,206.41L523.39,204.45L509.61,204.98L495.84,199.71L482.07,211.68L454.52,211.13L440.75,228.7L426.98,233.23L413.2,242.67L399.43,244.55L385.66,245.71L371.88,261.48L358.11,261.42L344.34,258.49L330.56,286.53L316.79,287.73L303.02,283.81L289.24,287.73L275.47,287.82L261.7,297.72L247.92,301.39L234.15,301.59L220.38,314.18L206.61,316.2L192.83,308.93L179.06,307.25L165.29,319.11L151.51,323.72L137.74,331.38L123.97,349.22L110.19,352.18L96.42,352.18L82.65,344.99L68.87,354.81L55.1,368.7L41.33,356.53L27.55,345.81L13.78,321.18Z" style="fill: rgb(44, 160, 44); fill-opacity: 0.1; stroke-width: 0;"/></g></g><g class="errorbars"/><g class="lines"><path class="js-line" d="M13.78,321.18L27.55,345.81L41.33,356.53L55.1,368.7L68.87,354.81L82.65,344.99L96.42,352.18L110.19,352.18L123.97,349.22L137.74,331.38L151.51,323.72L165.29,319.11L179.06,307.25L192.83,308.93L206.61,316.2L220.38,314.18L234.15,301.59L247.92,301.39L261.7,297.72L275.47,287.82L289.24,287.73L303.02,283.81L316.79,287.73L330.56,286.53L344.34,258.49L358.11,261.42L371.88,261.48L385.66,245.71L399.43,244.55L413.2,242.67L426.98,233.23L440.75,228.7L454.52,211.13L482.07,211.68L495.84,199.71L509.61,204.98L523.39,204.45L537.16,206.41L550.93,194.5L564.71,195.19L578.48,199.84L592.25,199.84L606.03,197.14L619.8,195.74L633.57,185.94L647.34,183.42L661.12,182.78L674.89,173.07L688.66,172.82" style="vector-effect: none; fill: none; stroke: rgb(99, 110, 250); stroke-opacity: 1; stroke-width: 0px; opacity: 1;"/></g><g class="points"/><g class="text"/></g><g class="trace scatter traceb1178f" style="stroke-miterlimit: 2;"><g class="fills"/><g class="errorbars"/><g class="lines"><path class="js-line" d="M13.78,543.4L27.55,504.8L41.33,487.09L55.1,483.31L68.87,473.1L82.65,427.05L96.42,428.59L110.19,428.59L123.97,422.82L137.74,398.76L151.51,397.69L165.29,397.06L179.06,387.97L192.83,360.1L206.61,330.13L234.15,330.78L247.92,329.23L261.7,327.66L275.47,320.11L289.24,321.94L303.02,318.87L316.79,321.94L330.56,316.16L344.34,321.49L358.11,323.81L385.66,320.31L399.43,314.48L413.2,309.39L426.98,311.84L440.75,304.15L454.52,283.3L468.29,283.3L482.07,272.28L495.84,256.32L509.61,259.78L523.39,253.32L537.16,253.1L550.93,249.3L564.71,236.39L592.25,236.98L606.03,229.2L619.8,228.86L633.57,231.68L647.34,227.21L661.12,226.1L674.89,211.37L688.66,215.11" style="vector-effect: none; fill: none; stroke: rgb(239, 85, 59); stroke-opacity: 1; stroke-width: 0px; opacity: 1;"/></g><g class="points"/><g class="text"/></g><g class="trace scatter tracedc6e29" style="stroke-miterlimit: 2; opacity: 1;"><g class="fills"/><g class="errorbars"/><g class="lines"><path class="js-line" d="M0.01,510.86L13.78,510.86L27.55,498.63L41.33,480.74L55.1,465.81L68.87,452.37L82.65,449.75L96.42,431.42L110.19,420.94L123.97,420.94L137.74,422.69L151.51,414.83L165.29,393.88L179.06,386.89L192.83,383.4L206.61,379.91L220.38,372.05L234.15,371.18L247.92,371.18L261.7,375.55L275.47,373.8L289.24,372.93L303.02,372.93L316.79,385.15L330.56,388.64L358.11,376.42L371.88,378.16L385.66,388.64L399.43,388.64L413.2,381.66L426.98,389.51L440.75,395.62L454.52,386.02L468.29,375.55L482.07,360.7L495.84,362.45L509.61,353.72L523.39,344.12L537.16,344.12L550.93,343.25L564.71,351.1L578.48,345.86L592.25,354.59L606.03,361.58L619.8,363.32L633.57,359.83L647.34,350.23L661.12,352.85L674.89,353.72L688.66,359.83" style="vector-effect: none; fill: none; stroke: rgb(255, 127, 14); stroke-opacity: 1; stroke-width: 2.5px; opacity: 1;"/></g><g class="points"/><g class="text"/></g><g class="trace scatter trace6040bf" style="stroke-miterlimit: 2;"><g class="fills"><g><path class="js-fill" d="M13.78,510.86L27.55,519.8L41.33,520.49L68.87,506.44L82.65,500.71L96.42,475.29L110.19,459.77L123.97,459.77L137.74,460.95L151.51,465.25L165.29,427.61L179.06,423.13L192.83,417.78L206.61,409.72L220.38,395.88L247.92,396.55L261.7,400.65L289.24,395.8L303.02,395.8L316.79,400.69L330.56,402.16L344.34,403.93L358.11,403.26L371.88,407.17L385.66,424.42L399.43,424.42L413.2,420.95L426.98,425.41L440.75,424.5L454.52,418.04L468.29,398.36L482.07,388.16L495.84,389.3L509.61,375.69L523.39,364.92L537.16,364.92L550.93,362.84L564.71,367.25L578.48,363.93L592.25,381.59L606.03,383.49L619.8,384.9L633.57,382.88L647.34,381.6L661.12,382.55L674.89,384.97L688.66,396.63L688.66,323.03L674.89,322.47L661.12,323.14L647.34,318.86L633.57,336.78L619.8,341.75L606.03,339.67L592.25,327.6L578.48,327.8L564.71,334.96L550.93,323.65L537.16,323.32L523.39,323.32L509.61,331.75L495.84,335.61L482.07,333.25L468.29,352.73L454.52,354L440.75,366.74L426.98,353.62L413.2,342.37L399.43,352.86L385.66,352.86L371.88,349.16L358.11,349.57L344.34,361.12L330.56,375.12L316.79,369.61L303.02,350.05L275.47,349.59L261.7,350.44L247.92,345.81L234.15,345.81L206.61,350.1L192.83,349.03L179.06,350.66L165.29,360.15L151.51,364.41L137.74,384.42L123.97,382.11L110.19,382.11L96.42,387.54L82.65,398.79L68.87,398.3L55.1,417.86L41.33,440.99L27.55,477.47L13.78,510.86Z" style="fill: rgb(255, 127, 14); fill-opacity: 0.1; stroke-width: 0;"/></g></g><g class="errorbars"/><g class="lines"><path class="js-line" d="M13.78,510.86L27.55,477.47L41.33,440.99L55.1,417.86L68.87,398.3L82.65,398.79L96.42,387.54L110.19,382.11L123.97,382.11L137.74,384.42L151.51,364.41L165.29,360.15L179.06,350.66L192.83,349.03L206.61,350.1L234.15,345.81L247.92,345.81L261.7,350.44L275.47,349.59L303.02,350.05L316.79,369.61L330.56,375.12L344.34,361.12L358.11,349.57L371.88,349.16L385.66,352.86L399.43,352.86L413.2,342.37L426.98,353.62L440.75,366.74L454.52,354L468.29,352.73L482.07,333.25L495.84,335.61L509.61,331.75L523.39,323.32L537.16,323.32L550.93,323.65L564.71,334.96L578.48,327.8L592.25,327.6L606.03,339.67L619.8,341.75L633.57,336.78L647.34,318.86L661.12,323.14L674.89,322.47L688.66,323.03" style="vector-effect: none; fill: none; stroke: rgb(171, 99, 250); stroke-opacity: 1; stroke-width: 0px; opacity: 1;"/></g><g class="points"/><g class="text"/></g><g class="trace scatter trace8a2efe" style="stroke-miterlimit: 2;"><g class="fills"/><g class="errorbars"/><g class="lines"><path class="js-line" d="M13.78,510.86L27.55,519.8L41.33,520.49L68.87,506.44L82.65,500.71L96.42,475.29L110.19,459.77L123.97,459.77L137.74,460.95L151.51,465.25L165.29,427.61L179.06,423.13L192.83,417.78L206.61,409.72L220.38,395.88L247.92,396.55L261.7,400.65L289.24,395.8L303.02,395.8L316.79,400.69L330.56,402.16L344.34,403.93L358.11,403.26L371.88,407.17L385.66,424.42L399.43,424.42L413.2,420.95L426.98,425.41L440.75,424.5L454.52,418.04L468.29,398.36L482.07,388.16L495.84,389.3L509.61,375.69L523.39,364.92L537.16,364.92L550.93,362.84L564.71,367.25L578.48,363.93L592.25,381.59L606.03,383.49L619.8,384.9L633.57,382.88L647.34,381.6L661.12,382.55L674.89,384.97L688.66,396.63" style="vector-effect: none; fill: none; stroke: rgb(255, 161, 90); stroke-opacity: 1; stroke-width: 0px; opacity: 1;"/></g><g class="points"/><g class="text"/></g><g class="trace scatter trace5f3f49" style="stroke-miterlimit: 2; opacity: 1;"><g class="fills"/><g class="errorbars"/><g class="lines"><path class="js-line" d="M0.01,510.86L13.78,453.24L27.55,379.91L41.33,324.91L55.1,274.11L68.87,238.49L82.65,162.54L96.42,104.92L110.19,76.99L123.97,59.53L137.74,56.04L151.51,54.29L165.29,54.29L179.06,54.29L192.83,50.8L234.15,50.8L247.92,49.05L261.7,50.8L275.47,50.8L289.24,49.05L303.02,49.93L316.79,49.05L330.56,50.8L344.34,49.93L358.11,51.67L371.88,51.67L385.66,49.93L426.98,49.93L440.75,49.05L454.52,53.42L468.29,56.04L482.07,55.16L495.84,55.16L523.39,55.16L537.16,50.8L550.93,48.18L564.71,51.67L578.48,50.8L592.25,51.67L606.03,49.93L619.8,49.05L633.57,49.93L647.34,47.31L661.12,49.05L674.89,45.56L688.66,46.43" style="vector-effect: none; fill: none; stroke: rgb(31, 119, 180); stroke-opacity: 1; stroke-width: 2.5px; opacity: 1;"/></g><g class="points"/><g class="text"/></g><g class="trace scatter trace81a6df" style="stroke-miterlimit: 2;"><g class="fills"><g><path class="js-fill" d="M13.78,534.72L27.55,519.38L41.33,483.24L68.87,420.08L82.65,296.48L96.42,179.94L110.19,118.29L123.97,67.24L137.74,62.16L151.51,60.41L165.29,60.41L179.06,60.41L192.83,54.74L234.15,54.74L247.92,53L261.7,56.92L275.47,56.92L289.24,55.18L303.02,56.55L316.79,56.01L330.56,57.76L344.34,55.66L358.11,57.08L371.88,57.08L385.66,55.66L426.98,55.66L440.75,54.2L454.52,63.17L468.29,65.06L495.84,65.64L509.61,65.64L523.39,65.64L537.16,58.51L550.93,54.52L564.71,58.02L578.48,56.92L592.25,58.83L619.8,58.66L633.57,59.3L647.34,55.25L661.12,58.66L674.89,53.95L688.66,54.32L688.66,38.55L674.89,37.17L661.12,39.44L647.34,39.36L633.57,40.56L619.8,39.44L606.03,41.16L592.25,44.52L564.71,45.33L550.93,41.84L537.16,43.09L523.39,44.69L495.84,44.69L482.07,44.69L468.29,47.01L454.52,43.67L399.43,44.19L385.66,44.19L371.88,46.26L358.11,46.26L344.34,44.19L330.56,43.84L316.79,42.09L303.02,43.3L289.24,42.93L275.47,44.68L247.92,45.11L234.15,46.86L192.83,46.86L179.06,48.17L165.29,48.17L151.51,48.17L123.97,51.82L110.19,35.69L96.42,29.91L82.65,28.6L68.87,56.89L55.1,96.04L41.33,166.59L27.55,240.44L13.78,371.76Z" style="fill: rgb(31, 119, 180); fill-opacity: 0.1; stroke-width: 0;"/></g></g><g class="errorbars"/><g class="lines"><path class="js-line" d="M13.78,371.76L27.55,240.44L41.33,166.59L55.1,96.04L68.87,56.89L82.65,28.6L96.42,29.91L110.19,35.69L123.97,51.82L151.51,48.17L165.29,48.17L179.06,48.17L192.83,46.86L234.15,46.86L247.92,45.11L275.47,44.68L289.24,42.93L303.02,43.3L316.79,42.09L330.56,43.84L344.34,44.19L358.11,46.26L371.88,46.26L385.66,44.19L399.43,44.19L454.52,43.67L468.29,47.01L482.07,44.69L495.84,44.69L523.39,44.69L537.16,43.09L550.93,41.84L564.71,45.33L592.25,44.52L606.03,41.16L619.8,39.44L633.57,40.56L647.34,39.36L661.12,39.44L674.89,37.17L688.66,38.55" style="vector-effect: none; fill: none; stroke: rgb(255, 102, 146); stroke-opacity: 1; stroke-width: 0px; opacity: 1;"/></g><g class="points"/><g class="text"/></g><g class="trace scatter trace67a9df" style="stroke-miterlimit: 2;"><g class="fills"/><g class="errorbars"/><g class="lines"><path class="js-line" d="M13.78,534.72L27.55,519.38L41.33,483.24L68.87,420.08L82.65,296.48L96.42,179.94L110.19,118.29L123.97,67.24L137.74,62.16L151.51,60.41L165.29,60.41L179.06,60.41L192.83,54.74L234.15,54.74L247.92,53L261.7,56.92L275.47,56.92L289.24,55.18L303.02,56.55L316.79,56.01L330.56,57.76L344.34,55.66L358.11,57.08L371.88,57.08L385.66,55.66L426.98,55.66L440.75,54.2L454.52,63.17L468.29,65.06L495.84,65.64L509.61,65.64L523.39,65.64L537.16,58.51L550.93,54.52L564.71,58.02L578.48,56.92L592.25,58.83L619.8,58.66L633.57,59.3L647.34,55.25L661.12,58.66L674.89,53.95L688.66,54.32" style="vector-effect: none; fill: none; stroke: rgb(182, 232, 128); stroke-opacity: 1; stroke-width: 0px; opacity: 1;"/></g><g class="points"/><g class="text"/></g></g></g><g class="overplot"/><path class="xlines-above crisp" d="M0,0" style="fill: none;"/><path class="ylines-above crisp" d="M0,0" style="fill: none;"/><g class="overlines-above"/><g class="xaxislayer-above"><g class="xtick"><text text-anchor="middle" x="0" y="603" transform="translate(89,0)" style="font-family: 'Open Sans', verdana, arial, sans-serif; font-size: 30px; fill: rgb(42, 63, 95); fill-opacity: 1; white-space: pre; opacity: 1;">0</text></g><g class="xtick"><text text-anchor="middle" x="0" y="603" style="font-family: 'Open Sans', verdana, arial, sans-serif; font-size: 30px; fill: rgb(42, 63, 95); fill-opacity: 1; white-space: pre; opacity: 1;" transform="translate(433.33,0)">1M</text></g><g class="xtick"><text text-anchor="middle" x="0" y="603" style="font-family: 'Open Sans', verdana, arial, sans-serif; font-size: 30px; fill: rgb(42, 63, 95); fill-opacity: 1; white-space: pre; opacity: 0;" transform="translate(777.66,0)">2M</text></g></g><g class="yaxislayer-above"><g class="ytick"><text text-anchor="end" x="88" y="10.5" transform="translate(0,510.86)" style="font-family: 'Open Sans', verdana, arial, sans-serif; font-size: 30px; fill: rgb(42, 63, 95); fill-opacity: 1; white-space: pre; opacity: 1;">0</text></g><g class="ytick"><text text-anchor="end" x="88" y="10.5" style="font-family: 'Open Sans', verdana, arial, sans-serif; font-size: 30px; fill: rgb(42, 63, 95); fill-opacity: 1; white-space: pre; opacity: 1;" transform="translate(0,416.57)">0.2</text></g><g class="ytick"><text text-anchor="end" x="88" y="10.5" style="font-family: 'Open Sans', verdana, arial, sans-serif; font-size: 30px; fill: rgb(42, 63, 95); fill-opacity: 1; white-space: pre; opacity: 1;" transform="translate(0,322.29)">0.4</text></g><g class="ytick"><text text-anchor="end" x="88" y="10.5" style="font-family: 'Open Sans', verdana, arial, sans-serif; font-size: 30px; fill: rgb(42, 63, 95); fill-opacity: 1; white-space: pre; opacity: 1;" transform="translate(0,228.01)">0.6</text></g><g class="ytick"><text text-anchor="end" x="88" y="10.5" style="font-family: 'Open Sans', verdana, arial, sans-serif; font-size: 30px; fill: rgb(42, 63, 95); fill-opacity: 1; white-space: pre; opacity: 1;" transform="translate(0,133.73)">0.8</text></g><g class="ytick"><text text-anchor="end" x="88" y="10.5" style="font-family: 'Open Sans', verdana, arial, sans-serif; font-size: 30px; fill: rgb(42, 63, 95); fill-opacity: 1; white-space: pre; opacity: 1;" transform="translate(0,39.45)">1</text></g></g><g class="overaxes-above"/></g></g><g class="polarlayer"/><g class="smithlayer"/><g class="ternarylayer"/><g class="geolayer"/><g class="funnelarealayer"/><g class="pielayer"/><g class="iciclelayer"/><g class="treemaplayer"/><g class="sunburstlayer"/><g class="glimages"/><defs id="topdefs-51127c"><g class="clips"/><clipPath id="legend51127c"><rect width="215" height="262" x="0" y="0"/></clipPath></defs><g class="layer-above"><g class="imagelayer"/><g class="shapelayer"/></g><g class="infolayer"><g class="legend" pointer-events="all" transform="translate(95.89,5.720000000000005)"><rect class="bg" shape-rendering="crispEdges" width="215" height="262" x="0" y="0" style="stroke: rgb(68, 68, 68); stroke-opacity: 1; fill: rgb(255, 255, 255); fill-opacity: 0.8; stroke-width: 0px;"/><g class="scrollbox" transform="" clip-path="url(#legend51127c)"><g class="groups"><g class="traces" transform="translate(0,26)" style="opacity: 1;"><text class="legendtext" text-anchor="start" x="40" y="11.7" style="font-family: 'Open Sans', verdana, arial, sans-serif; font-size: 30px; fill: rgb(42, 63, 95); fill-opacity: 1; white-space: pre;">TransfQmix</text><g class="layers" style="opacity: 1;"><g class="legendfill"/><g class="legendlines"><path class="js-line" d="M5,0h30" style="fill: none; stroke: rgb(31, 119, 180); stroke-opacity: 1; stroke-width: 2.5px;"/></g><g class="legendsymbols"><g class="legendpoints"/></g></g><rect class="legendtoggle" x="0" y="-21" width="209.765625" height="42" style="fill: rgb(0, 0, 0); fill-opacity: 0;"/></g><g class="traces" transform="translate(0,68)" style="opacity: 1;"><text class="legendtext" text-anchor="start" x="40" y="11.7" style="font-family: 'Open Sans', verdana, arial, sans-serif; font-size: 30px; fill: rgb(42, 63, 95); fill-opacity: 1; white-space: pre;">Qtran</text><g class="layers" style="opacity: 1;"><g class="legendfill"/><g class="legendlines"><path class="js-line" d="M5,0h30" style="fill: none; stroke: rgb(255, 127, 14); stroke-opacity: 1; stroke-width: 2.5px;"/></g><g class="legendsymbols"><g class="legendpoints"/></g></g><rect class="legendtoggle" x="0" y="-21" width="209.765625" height="42" style="fill: rgb(0, 0, 0); fill-opacity: 0;"/></g><g class="traces" transform="translate(0,110)" style="opacity: 1;"><text class="legendtext" text-anchor="start" x="40" y="11.7" style="font-family: 'Open Sans', verdana, arial, sans-serif; font-size: 30px; fill: rgb(42, 63, 95); fill-opacity: 1; white-space: pre;">Qplex</text><g class="layers" style="opacity: 1;"><g class="legendfill"/><g class="legendlines"><path class="js-line" d="M5,0h30" style="fill: none; stroke: rgb(44, 160, 44); stroke-opacity: 1; stroke-width: 2.5px;"/></g><g class="legendsymbols"><g class="legendpoints"/></g></g><rect class="legendtoggle" x="0" y="-21" width="209.765625" height="42" style="fill: rgb(0, 0, 0); fill-opacity: 0;"/></g><g class="traces" transform="translate(0,152)" style="opacity: 1;"><text class="legendtext" text-anchor="start" x="40" y="11.7" style="font-family: 'Open Sans', verdana, arial, sans-serif; font-size: 30px; fill: rgb(42, 63, 95); fill-opacity: 1; white-space: pre;">Qmix</text><g class="layers" style="opacity: 1;"><g class="legendfill"/><g class="legendlines"><path class="js-line" d="M5,0h30" style="fill: none; stroke: rgb(214, 39, 40); stroke-opacity: 1; stroke-width: 2.5px;"/></g><g class="legendsymbols"><g class="legendpoints"/></g></g><rect class="legendtoggle" x="0" y="-21" width="209.765625" height="42" style="fill: rgb(0, 0, 0); fill-opacity: 0;"/></g><g class="traces" transform="translate(0,194)" style="opacity: 1;"><text class="legendtext" text-anchor="start" x="40" y="11.7" style="font-family: 'Open Sans', verdana, arial, sans-serif; font-size: 30px; fill: rgb(42, 63, 95); fill-opacity: 1; white-space: pre;">OwQmix</text><g class="layers" style="opacity: 1;"><g class="legendfill"/><g class="legendlines"><path class="js-line" d="M5,0h30" style="fill: none; stroke: rgb(148, 103, 189); stroke-opacity: 1; stroke-width: 2.5px;"/></g><g class="legendsymbols"><g class="legendpoints"/></g></g><rect class="legendtoggle" x="0" y="-21" width="209.765625" height="42" style="fill: rgb(0, 0, 0); fill-opacity: 0;"/></g><g class="traces" transform="translate(0,236)" style="opacity: 1;"><text class="legendtext" text-anchor="start" x="40" y="11.7" style="font-family: 'Open Sans', verdana, arial, sans-serif; font-size: 30px; fill: rgb(42, 63, 95); fill-opacity: 1; white-space: pre;">CwQmix</text><g class="layers" style="opacity: 1;"><g class="legendfill"/><g class="legendlines"><path class="js-line" d="M5,0h30" style="fill: none; stroke: rgb(140, 86, 75); stroke-opacity: 1; stroke-width: 2.5px;"/></g><g class="legendsymbols"><g class="legendpoints"/></g></g><rect class="legendtoggle" x="0" y="-21" width="209.765625" height="42" style="fill: rgb(0, 0, 0); fill-opacity: 0;"/></g></g></g><rect class="scrollbar" rx="20" ry="3" width="0" height="0" x="0" y="0" style="fill: rgb(128, 139, 164); fill-opacity: 1;"/></g><g class="g-gtitle"/><g class="g-xtitle" transform="translate(0,-7.7000000000000455)"><text class="xtitle" x="433.5" y="649.7" text-anchor="middle" style="font-family: 'Open Sans', verdana, arial, sans-serif; font-size: 36px; fill: rgb(42, 63, 95); opacity: 1; font-weight: normal; white-space: pre;">Time Steps</text></g><g class="g-ytitle" transform="translate(32.4189453125,0)"><text class="ytitle" transform="rotate(-90,0.5812499999999972,286)" x="0.5812499999999972" y="286" text-anchor="middle" style="font-family: 'Open Sans', verdana, arial, sans-serif; font-size: 36px; fill: rgb(42, 63, 95); opacity: 1; font-weight: normal; white-space: pre;">Test Occupied Landmarks %</text></g></g></svg>