<svg class="main-svg" xmlns="http://www.w3.org/2000/svg" xmlns:xlink="http://www.w3.org/1999/xlink" width="2400" height="1950" style="" viewBox="0 0 800 650"><rect x="0" y="0" width="800" height="650" style="fill: rgb(255, 255, 255); fill-opacity: 1;"/><defs id="defs-ea0a33"><g class="clips"><clipPath id="clipea0a33xyplot" class="plotclip"><rect width="711" height="572"/></clipPath><clipPath class="axesclip" id="clipea0a33x"><rect x="89" y="0" width="711" height="650"/></clipPath><clipPath class="axesclip" id="clipea0a33y"><rect x="0" y="0" width="800" height="572"/></clipPath><clipPath class="axesclip" id="clipea0a33xy"><rect x="89" y="0" width="711" height="572"/></clipPath></g><g class="gradients"/><g class="patterns"/></defs><g class="bglayer"/><g class="layer-below"><g class="imagelayer"/><g class="shapelayer"/></g><g class="cartesianlayer"><g class="subplot xy"><g class="layer-subplot"><g class="shapelayer"/><g class="imagelayer"/></g><g class="minor-gridlayer"><g class="x"/><g class="y"/></g><g class="gridlayer"><g class="x"><path class="xgrid crisp" transform="translate(427.57,0)" d="M0,0v572" style="stroke: rgb(235, 240, 248); stroke-opacity: 1; stroke-width: 1px;"/><path class="xgrid crisp" transform="translate(766.14,0)" d="M0,0v572" style="stroke: rgb(235, 240, 248); stroke-opacity: 1; stroke-width: 1px;"/></g><g class="y"><path class="ygrid crisp" transform="translate(0,463.05)" d="M89,0h711" style="stroke: rgb(235, 240, 248); stroke-opacity: 1; stroke-width: 1px;"/><path class="ygrid crisp" transform="translate(0,354.1)" d="M89,0h711" style="stroke: rgb(235, 240, 248); stroke-opacity: 1; stroke-width: 1px;"/><path class="ygrid crisp" transform="translate(0,245.14)" d="M89,0h711" style="stroke: rgb(235, 240, 248); stroke-opacity: 1; stroke-width: 1px;"/><path class="ygrid crisp" transform="translate(0,136.19)" d="M89,0h711" style="stroke: rgb(235, 240, 248); stroke-opacity: 1; stroke-width: 1px;"/><path class="ygrid crisp" transform="translate(0,27.24)" d="M89,0h711" style="stroke: rgb(235, 240, 248); stroke-opacity: 1; stroke-width: 1px;"/></g></g><g class="zerolinelayer"><path class="xzl zl crisp" transform="translate(89,0)" d="M0,0v572" style="stroke: rgb(235, 240, 248); stroke-opacity: 1; stroke-width: 2px;"/><path class="yzl zl crisp" transform="translate(0,572)" d="M89,0h711" style="stroke: rgb(235, 240, 248); stroke-opacity: 1; stroke-width: 2px;"/></g><path class="xlines-below"/><path class="ylines-below"/><g class="overlines-below"/><g class="xaxislayer-below"/><g class="yaxislayer-below"/><g class="overaxes-below"/><g class="plot" transform="translate(89,0)" clip-path="url(#clipea0a33xyplot)"><g class="scatterlayer mlayer"><g class="trace scatter trace1c9af8" style="stroke-miterlimit: 2; opacity: 1;"><g class="fills"/><g class="errorbars"/><g class="lines"><path class="js-line" d="M0.02,572L44.09,572L47.48,570.87L50.87,569.73L54.26,569.73L61.04,569.73L64.43,568.6L74.6,568.6L77.98,562.92L81.39,557.25L84.78,556.11L88.17,543.63L91.56,539.09L94.96,536.82L98.34,533.41L101.73,531.14L105.11,524.33L111.89,506.17L115.29,499.37L118.68,481.21L122.06,475.53L125.45,467.59L128.84,466.45L132.23,465.32L135.64,455.1L142.42,433.54L145.81,410.84L152.59,371.12L155.98,351.83L159.38,338.21L162.77,321.18L166.16,297.35L169.55,290.54L179.72,223.58L183.11,203.15L186.5,187.26L189.89,179.32L193.27,162.29L196.66,157.75L200.05,153.21L203.44,152.08L206.83,152.08L210.22,140.73L213.61,140.73L217,141.87L223.77,135.06L227.16,137.33L230.55,130.52L233.94,130.52L237.33,127.11L240.72,124.84L244.11,127.11L247.51,124.84L250.9,123.71L254.29,116.9L257.68,108.95L261.07,110.09L264.46,104.41L267.85,105.55L271.24,102.14L274.64,101.01L278.03,98.74L281.42,98.74L288.2,94.2L291.59,94.2L294.98,95.33L298.37,98.74L301.76,93.06L305.15,95.33L311.92,99.87L315.31,99.87L318.7,96.47L322.1,98.74L325.48,99.87L328.88,104.41L332.26,106.68L335.65,105.55L339.04,104.41L342.43,108.95L345.82,103.28L349.21,99.87L352.6,98.74L355.99,95.33L359.38,95.33L362.77,93.06L366.17,94.2L369.55,93.06L372.94,89.66L376.33,95.33L383.11,88.52L386.5,88.52L389.89,87.39L393.28,87.39L396.67,89.66L400.06,89.66L403.45,97.6L406.84,97.6L417.01,101.01L420.41,104.41L423.79,103.28L427.18,97.6L433.96,102.14L437.35,99.87L440.74,101.01L444.13,96.47L447.53,97.6L450.91,97.6L454.3,91.93L457.69,90.79L461.08,87.39L464.47,85.12L467.85,78.31L471.24,74.9L474.63,77.17L478.02,73.77L481.41,70.37L484.8,69.23L488.19,65.83L491.58,71.5L494.97,76.04L498.36,74.9L501.75,77.17L505.14,77.17L508.53,78.31L511.92,81.71L515.31,86.25L518.71,87.39L522.1,91.93L525.49,91.93L528.87,94.2L532.26,90.79L535.65,91.93L539.04,94.2L545.83,82.85L549.21,81.71L552.61,76.04L556,76.04L559.39,77.17L562.77,76.04L566.17,71.5L569.55,72.63L572.95,70.37L576.34,69.23L579.73,70.37L583.12,72.63L586.51,74.9L589.9,73.77L593.29,76.04L596.67,77.17L600.06,78.31L603.45,85.12L606.84,82.85L610.23,79.44L613.62,80.58L617.01,82.85L620.4,82.85L623.78,80.58L627.17,81.71L630.57,79.44L633.96,83.98L637.35,81.71L640.73,83.98L644.13,81.71L647.52,79.44L650.91,81.71L654.3,73.77L657.69,78.31L664.47,82.85L667.87,82.85L671.26,81.71L674.65,81.71L678.03,77.17L681.43,78.31L684.82,73.77L688.21,71.5L691.6,72.63" style="vector-effect: none; fill: none; stroke: rgb(31, 119, 180); stroke-opacity: 1; stroke-width: 2.5px; opacity: 1;"/></g><g class="points"/><g class="text"/></g><g class="trace scatter trace90fb50" style="stroke-miterlimit: 2;"><g class="fills"><g><path class="js-fill" d="M3.41,572L44.09,572L47.48,575.26L54.26,575.72L57.65,575.72L74.6,575.64L77.98,585.09L81.39,586.64L84.78,585.22L88.17,596.16L91.56,591.94L101.73,583.34L105.11,577.47L108.51,571.22L111.89,563.32L115.29,556.36L118.68,554.48L122.06,544.43L125.45,531.24L132.23,528.51L135.64,515.07L139.03,526.75L142.42,518.38L145.81,510.08L149.21,498.38L152.59,481.67L155.98,468.97L162.77,443.01L166.16,426.34L169.55,422.07L172.95,392.25L176.33,365.07L179.72,329.09L186.5,247.55L189.89,241.19L193.27,212.74L196.66,207.87L200.05,199.07L203.44,196.97L206.83,196.97L210.22,185.62L217,185.73L220.38,179.59L223.77,177.57L227.16,177.44L230.55,171.45L233.94,171.45L237.33,167.23L240.72,166.77L244.11,167.23L247.51,165.77L250.9,163.72L254.29,155.22L257.68,145.46L261.07,145.25L264.46,133.81L267.85,135.59L271.24,130.04L274.64,129.54L278.03,127.66L281.42,127.66L284.8,120.94L288.2,118.67L291.59,118.67L294.98,121.07L298.37,127.66L301.76,120.26L305.15,122.63L308.53,123.23L311.92,125.18L315.31,125.18L318.7,120.94L322.1,124.64L325.48,125.18L328.88,131.61L332.26,132.95L335.65,131.12L339.04,131.61L342.43,137.15L345.82,135.36L349.21,129.68L352.6,130.39L355.99,128.14L359.38,128.14L362.77,125.79L366.17,127.3L369.55,127.03L372.94,122.26L376.33,135.52L379.72,129.56L383.11,126.48L400.06,126.99L403.45,137.2L406.84,137.2L410.23,138.51L413.62,139.26L417.01,141.02L420.41,142.95L423.79,142.87L427.18,130.95L430.57,134.2L433.96,134.83L437.35,132.98L440.74,132.31L444.13,125.58L450.91,126.28L454.3,114.4L457.69,115.27L461.08,112.2L464.47,110.7L467.85,104.84L471.24,99.99L474.63,102.48L478.02,99.88L481.41,91.58L484.8,89.44L488.19,88.54L491.58,102.22L494.97,112.36L498.36,110.85L501.75,115.49L508.53,115.83L511.92,119.89L515.31,125.85L518.71,125.38L522.1,130.64L525.49,130.64L532.26,131.22L535.65,132.21L539.04,131.42L542.44,123.65L545.83,114.68L549.21,114.01L552.61,106.81L556,106.81L559.39,107.67L562.77,105.43L566.17,97.08L569.55,97.28L572.95,90.58L576.34,88.39L579.73,90.58L583.12,89.25L586.51,96.44L589.9,96.49L593.29,99.12L596.67,99.89L600.06,100.6L603.45,111.49L610.23,111.27L613.62,113.3L617.01,115.32L620.4,115.32L623.78,113.3L627.17,114.65L630.57,112.55L633.96,119.03L637.35,114.65L640.73,115.29L644.13,113.37L647.52,112.55L650.91,115.88L654.3,105.6L657.69,110.48L661.08,109.97L664.47,115.95L667.87,115.95L674.65,115.88L678.03,113.84L681.43,114.71L684.82,107.49L688.21,104.81L691.6,106.48L691.6,38.79L688.21,38.19L684.82,40.05L681.43,41.91L678.03,40.51L674.65,47.55L671.26,47.55L667.87,49.75L664.47,49.75L661.08,51.19L657.69,46.14L654.3,41.94L650.91,47.55L647.52,46.34L644.13,50.06L640.73,52.68L637.35,48.78L633.96,48.94L630.57,46.34L627.17,48.78L623.78,47.85L620.4,50.38L617.01,50.38L613.62,47.85L610.23,47.62L606.84,54.46L603.45,58.75L600.06,56.02L593.29,52.96L589.9,51.05L583.12,56.02L579.73,50.15L576.34,50.07L572.95,50.15L569.55,47.99L566.17,45.92L559.39,46.68L556,45.27L552.61,45.27L549.21,49.41L542.44,53.4L539.04,56.98L535.65,51.64L532.26,50.37L528.87,57.54L525.49,53.22L522.1,53.22L518.71,49.4L515.31,46.66L511.92,43.54L505.14,38.86L501.75,38.86L494.97,39.72L491.58,40.78L488.19,43.11L484.8,49.02L481.41,49.15L478.02,47.66L474.63,51.87L471.24,49.82L467.85,51.78L464.47,59.54L457.69,66.32L454.3,69.45L447.53,68.92L444.13,67.36L440.74,69.71L437.35,66.77L433.96,69.46L430.57,65.54L427.18,64.25L423.79,63.68L420.41,65.88L417.01,61L406.84,58.01L403.45,58.01L400.06,52.32L396.67,52.32L393.28,48.32L389.89,48.32L386.5,50.57L383.11,50.57L379.72,54.3L376.33,55.15L369.55,59.1L366.17,61.1L362.77,60.34L359.38,62.52L355.99,62.52L352.6,67.09L349.21,70.06L345.82,71.19L342.43,80.76L339.04,77.22L335.65,79.97L332.26,80.41L328.88,77.22L325.48,74.57L322.1,72.84L318.7,71.99L315.31,74.57L311.92,74.57L308.53,71.97L305.15,68.03L301.76,65.87L298.37,69.82L291.59,69.73L288.2,69.73L284.8,71.99L281.42,69.82L278.03,69.82L274.64,72.47L271.24,74.24L267.85,75.51L261.07,74.92L257.68,72.44L250.9,83.7L247.51,83.91L244.11,87L240.72,82.91L237.33,87L233.94,89.58L230.55,89.58L227.16,97.21L223.77,92.54L220.38,97.33L217,98L213.61,95.84L210.22,95.84L206.83,107.19L200.05,107.35L196.66,107.64L193.27,111.85L189.89,117.44L186.5,126.97L183.11,121.85L179.72,118.07L176.33,120.68L172.95,143.43L169.55,159.01L166.16,168.36L162.77,199.36L159.38,219.66L155.98,234.68L149.21,286.98L145.81,311.6L142.42,348.7L139.03,363.03L135.64,395.13L132.23,402.12L128.84,403.02L125.45,403.93L122.06,406.63L118.68,407.94L115.29,442.37L111.89,449.03L105.11,471.2L101.73,478.95L98.34,480.95L94.96,484.76L91.56,486.24L88.17,491.09L84.78,527L81.39,527.85L77.98,540.76L74.6,561.55L64.43,561.55L61.04,563.74L54.26,563.74L50.87,563.74L47.48,566.47L44.09,572L3.41,572Z" style="fill: rgb(31, 119, 180); fill-opacity: 0.1; stroke-width: 0;"/></g></g><g class="errorbars"/><g class="lines"><path class="js-line" d="M3.41,572L44.09,572L47.48,566.47L50.87,563.74L54.26,563.74L61.04,563.74L64.43,561.55L74.6,561.55L77.98,540.76L81.39,527.85L84.78,527L88.17,491.09L91.56,486.24L94.96,484.76L98.34,480.95L101.73,478.95L105.11,471.2L111.89,449.03L115.29,442.37L118.68,407.94L122.06,406.63L125.45,403.93L128.84,403.02L132.23,402.12L135.64,395.13L139.03,363.03L142.42,348.7L145.81,311.6L149.21,286.98L155.98,234.68L159.38,219.66L162.77,199.36L166.16,168.36L169.55,159.01L172.95,143.43L176.33,120.68L179.72,118.07L183.11,121.85L186.5,126.97L189.89,117.44L193.27,111.85L196.66,107.64L200.05,107.35L206.83,107.19L210.22,95.84L213.61,95.84L217,98L220.38,97.33L223.77,92.54L227.16,97.21L230.55,89.58L233.94,89.58L237.33,87L240.72,82.91L244.11,87L247.51,83.91L250.9,83.7L257.68,72.44L261.07,74.92L267.85,75.51L271.24,74.24L274.64,72.47L278.03,69.82L281.42,69.82L284.8,71.99L288.2,69.73L291.59,69.73L298.37,69.82L301.76,65.87L305.15,68.03L308.53,71.97L311.92,74.57L315.31,74.57L318.7,71.99L322.1,72.84L325.48,74.57L328.88,77.22L332.26,80.41L335.65,79.97L339.04,77.22L342.43,80.76L345.82,71.19L349.21,70.06L352.6,67.09L355.99,62.52L359.38,62.52L362.77,60.34L366.17,61.1L369.55,59.1L376.33,55.15L379.72,54.3L383.11,50.57L386.5,50.57L389.89,48.32L393.28,48.32L396.67,52.32L400.06,52.32L403.45,58.01L406.84,58.01L417.01,61L420.41,65.88L423.79,63.68L427.18,64.25L430.57,65.54L433.96,69.46L437.35,66.77L440.74,69.71L444.13,67.36L447.53,68.92L454.3,69.45L457.69,66.32L464.47,59.54L467.85,51.78L471.24,49.82L474.63,51.87L478.02,47.66L481.41,49.15L484.8,49.02L488.19,43.11L491.58,40.78L494.97,39.72L501.75,38.86L505.14,38.86L511.92,43.54L515.31,46.66L518.71,49.4L522.1,53.22L525.49,53.22L528.87,57.54L532.26,50.37L535.65,51.64L539.04,56.98L542.44,53.4L549.21,49.41L552.61,45.27L556,45.27L559.39,46.68L566.17,45.92L569.55,47.99L572.95,50.15L576.34,50.07L579.73,50.15L583.12,56.02L589.9,51.05L593.29,52.96L600.06,56.02L603.45,58.75L606.84,54.46L610.23,47.62L613.62,47.85L617.01,50.38L620.4,50.38L623.78,47.85L627.17,48.78L630.57,46.34L633.96,48.94L637.35,48.78L640.73,52.68L644.13,50.06L647.52,46.34L650.91,47.55L654.3,41.94L657.69,46.14L661.08,51.19L664.47,49.75L667.87,49.75L671.26,47.55L674.65,47.55L678.03,40.51L681.43,41.91L684.82,40.05L688.21,38.19L691.6,38.79" style="vector-effect: none; fill: none; stroke: rgb(239, 85, 59); stroke-opacity: 1; stroke-width: 0px; opacity: 1;"/></g><g class="points"/><g class="text"/></g><g class="trace scatter trace6867d4" style="stroke-miterlimit: 2;"><g class="fills"/><g class="errorbars"/><g class="lines"><path class="js-line" d="M3.41,572L44.09,572L47.48,575.26L54.26,575.72L57.65,575.72L74.6,575.64L77.98,585.09L81.39,586.64L84.78,585.22L88.17,596.16L91.56,591.94L101.73,583.34L105.11,577.47L108.51,571.22L111.89,563.32L115.29,556.36L118.68,554.48L122.06,544.43L125.45,531.24L132.23,528.51L135.64,515.07L139.03,526.75L142.42,518.38L145.81,510.08L149.21,498.38L152.59,481.67L155.98,468.97L162.77,443.01L166.16,426.34L169.55,422.07L172.95,392.25L176.33,365.07L179.72,329.09L186.5,247.55L189.89,241.19L193.27,212.74L196.66,207.87L200.05,199.07L203.44,196.97L206.83,196.97L210.22,185.62L217,185.73L220.38,179.59L223.77,177.57L227.16,177.44L230.55,171.45L233.94,171.45L237.33,167.23L240.72,166.77L244.11,167.23L247.51,165.77L250.9,163.72L254.29,155.22L257.68,145.46L261.07,145.25L264.46,133.81L267.85,135.59L271.24,130.04L274.64,129.54L278.03,127.66L281.42,127.66L284.8,120.94L288.2,118.67L291.59,118.67L294.98,121.07L298.37,127.66L301.76,120.26L305.15,122.63L308.53,123.23L311.92,125.18L315.31,125.18L318.7,120.94L322.1,124.64L325.48,125.18L328.88,131.61L332.26,132.95L335.65,131.12L339.04,131.61L342.43,137.15L345.82,135.36L349.21,129.68L352.6,130.39L355.99,128.14L359.38,128.14L362.77,125.79L366.17,127.3L369.55,127.03L372.94,122.26L376.33,135.52L379.72,129.56L383.11,126.48L400.06,126.99L403.45,137.2L406.84,137.2L410.23,138.51L413.62,139.26L417.01,141.02L420.41,142.95L423.79,142.87L427.18,130.95L430.57,134.2L433.96,134.83L437.35,132.98L440.74,132.31L444.13,125.58L450.91,126.28L454.3,114.4L457.69,115.27L461.08,112.2L464.47,110.7L467.85,104.84L471.24,99.99L474.63,102.48L478.02,99.88L481.41,91.58L484.8,89.44L488.19,88.54L491.58,102.22L494.97,112.36L498.36,110.85L501.75,115.49L508.53,115.83L511.92,119.89L515.31,125.85L518.71,125.38L522.1,130.64L525.49,130.64L532.26,131.22L535.65,132.21L539.04,131.42L542.44,123.65L545.83,114.68L549.21,114.01L552.61,106.81L556,106.81L559.39,107.67L562.77,105.43L566.17,97.08L569.55,97.28L572.95,90.58L576.34,88.39L579.73,90.58L583.12,89.25L586.51,96.44L589.9,96.49L593.29,99.12L596.67,99.89L600.06,100.6L603.45,111.49L610.23,111.27L613.62,113.3L617.01,115.32L620.4,115.32L623.78,113.3L627.17,114.65L630.57,112.55L633.96,119.03L637.35,114.65L640.73,115.29L644.13,113.37L647.52,112.55L650.91,115.88L654.3,105.6L657.69,110.48L661.08,109.97L664.47,115.95L667.87,115.95L674.65,115.88L678.03,113.84L681.43,114.71L684.82,107.49L688.21,104.81L691.6,106.48" style="vector-effect: none; fill: none; stroke: rgb(0, 204, 150); stroke-opacity: 1; stroke-width: 0px; opacity: 1;"/></g><g class="points"/><g class="text"/></g><g class="trace scatter tracecc5f69" style="stroke-miterlimit: 2; opacity: 1;"><g class="fills"/><g class="errorbars"/><g class="lines"><path class="js-line" d="M0.01,572L196.95,572L200.34,570.87L241.02,570.87L244.41,569.73L254.59,569.73L257.98,568.6L271.55,568.6L274.94,567.46L278.34,566.33L281.73,566.33L285.12,566.33L288.51,565.19L291.9,564.06L295.29,565.19L298.67,565.19L302.06,566.33L305.45,566.33L308.85,567.46L322.4,567.46L325.78,568.6L329.17,569.73L332.57,567.46L342.74,567.46L346.13,566.33L349.52,566.33L352.91,565.19L359.69,560.65L363.08,559.52L366.47,556.11L369.86,556.11L373.25,554.98L376.64,554.98L380.03,552.71L383.42,552.71L390.21,550.44L393.6,551.57L396.99,552.71L400.37,552.71L403.77,553.84L407.16,553.84L410.54,556.11L413.93,553.84L417.31,557.25L420.71,556.11L424.1,554.98L427.49,552.71L430.88,553.84L434.28,553.84L437.67,552.71L441.07,553.84L444.45,551.57L447.85,550.44L451.24,545.9L454.63,543.63L458.01,544.76L461.41,542.49L464.79,543.63L468.19,541.36L471.58,541.36L474.97,537.95L478.36,536.82L481.75,536.82L485.15,534.55L488.54,530.01L491.94,526.6L495.33,525.47L498.73,524.33L502.12,525.47L505.51,518.66L508.9,519.79L515.68,522.06L519.07,517.52L522.46,511.85L525.86,514.12L529.25,510.71L532.64,510.71L536.03,512.98L539.42,516.39L542.81,520.93L546.2,520.93L549.6,520.93L552.98,522.06L556.37,530.01L559.76,527.74L563.15,528.87L566.54,526.6L573.32,539.09L576.71,536.82L580.1,540.22L583.5,535.68L586.89,534.55L590.28,531.14L593.67,526.6L597.06,526.6L600.45,526.6L603.84,527.74L607.23,525.47L610.63,525.47L614.02,522.06L617.41,525.47L620.79,524.33L624.19,524.33L627.57,527.74L630.97,530.01L634.36,534.55L637.76,536.82L641.14,542.49L644.54,543.63L647.93,545.9L651.32,544.76L654.7,543.63L658.1,544.76L661.48,547.03L664.87,548.17L668.26,548.17L671.66,549.3L681.83,549.3L685.22,547.03L688.61,547.03L692,545.9" style="vector-effect: none; fill: none; stroke: rgb(255, 127, 14); stroke-opacity: 1; stroke-width: 2.5px; opacity: 1;"/></g><g class="points"/><g class="text"/></g><g class="trace scatter traced01007" style="stroke-miterlimit: 2;"><g class="fills"><g><path class="js-fill" d="M3.4,572L196.95,572L200.34,575.26L274.94,575.25L278.34,574.63L285.12,574.63L288.51,573.82L291.9,572.85L295.29,573.82L298.67,573.82L302.06,574.63L322.4,575.25L325.78,575.64L329.17,575.72L332.57,577.57L349.52,576.83L352.91,575.96L359.69,574.55L363.08,573.11L369.86,572.47L373.25,570.74L376.64,570.74L380.03,568.29L383.42,568.29L386.82,566.24L390.21,565.48L393.6,567.59L396.99,569.57L400.37,569.57L403.77,571.42L407.16,571.42L410.54,573.69L413.93,573.64L417.31,575.29L420.71,573.69L424.1,573.18L427.49,570.75L434.28,571.42L437.67,570.75L441.07,571.42L444.45,568.84L451.24,565.06L454.63,561.44L458.01,562.73L461.41,558.85L464.79,558.94L468.19,554.54L471.58,554.54L474.97,557.26L481.75,556.61L485.15,556.08L488.54,557.21L491.94,553.65L495.33,552.36L498.73,550.23L502.12,550.77L505.51,552.63L512.29,557.33L515.68,559.29L519.07,556.77L522.46,551.44L525.86,553.15L529.25,551.31L532.64,551.31L536.03,554.12L539.42,555.77L542.81,562.63L549.6,562.63L552.98,563.99L556.37,565.17L559.76,561.05L563.15,563.44L566.54,560.45L573.32,565.98L576.71,566.63L580.1,564.18L583.5,562.88L586.89,562L590.28,563.19L593.67,557.24L597.06,557.24L600.45,557.24L603.84,559.13L607.23,555.97L610.63,555.97L614.02,549.71L617.41,555.97L620.79,553.96L624.19,553.96L627.57,555.64L630.97,558.69L637.76,563.71L641.14,562.29L644.54,561.44L647.93,562.76L651.32,562.73L654.7,561.44L658.1,561.54L661.48,565.08L668.26,564.95L671.66,565.92L681.83,565.92L685.22,565.08L688.61,565.08L692,563.94L692,527.85L688.61,528.98L685.22,528.98L681.83,532.69L671.66,532.69L668.26,531.39L664.87,531.39L661.48,528.98L658.1,527.98L654.7,525.81L651.32,526.79L647.93,529.04L641.14,522.69L637.76,509.93L634.36,507.86L630.97,501.33L627.57,499.84L624.19,494.71L607.23,494.97L603.84,496.35L597.06,495.97L593.67,495.97L590.28,499.1L586.89,507.1L583.5,508.49L580.1,516.26L576.71,507.01L573.32,512.2L566.54,492.76L563.15,494.3L559.76,494.43L556.37,494.84L552.98,480.13L549.6,479.23L546.2,479.23L542.81,479.23L539.42,477L536.03,471.85L532.64,470.12L529.25,470.12L525.86,475.09L522.46,472.25L519.07,478.28L515.68,484.84L508.9,484.28L505.51,484.69L502.12,500.16L498.73,498.44L495.33,498.58L491.94,499.56L488.54,502.81L485.15,513.01L481.75,517.02L478.36,517.02L474.97,518.65L471.58,528.17L464.79,528.31L461.41,526.13L458.01,526.79L454.63,525.81L451.24,526.74L447.85,534.07L444.45,534.31L441.07,536.26L437.67,534.66L434.28,536.26L430.88,536.26L427.49,534.66L424.1,536.78L420.71,538.53L417.31,539.2L413.93,534.04L410.54,538.53L407.16,536.26L390.21,535.39L386.82,536.9L380.03,537.12L376.64,539.22L369.86,539.75L366.47,539.75L363.08,545.92L359.69,546.75L352.91,554.42L349.52,555.82L346.13,555.82L342.74,557.35L332.57,557.35L329.17,563.74L325.78,561.55L322.4,559.67L308.85,559.67L305.45,558.02L302.06,558.02L298.67,556.56L295.29,556.56L291.9,555.26L288.51,556.56L285.12,558.02L281.73,558.02L278.34,558.02L274.94,559.67L271.55,561.55L257.98,561.55L254.59,563.74L244.41,563.74L241.02,566.47L200.34,566.47L196.95,572L3.4,572Z" style="fill: rgb(255, 127, 14); fill-opacity: 0.1; stroke-width: 0;"/></g></g><g class="errorbars"/><g class="lines"><path class="js-line" d="M3.4,572L196.95,572L200.34,566.47L241.02,566.47L244.41,563.74L254.59,563.74L257.98,561.55L271.55,561.55L274.94,559.67L278.34,558.02L281.73,558.02L285.12,558.02L288.51,556.56L291.9,555.26L295.29,556.56L298.67,556.56L302.06,558.02L305.45,558.02L308.85,559.67L322.4,559.67L325.78,561.55L329.17,563.74L332.57,557.35L342.74,557.35L346.13,555.82L349.52,555.82L352.91,554.42L359.69,546.75L363.08,545.92L366.47,539.75L369.86,539.75L376.64,539.22L380.03,537.12L386.82,536.9L390.21,535.39L407.16,536.26L410.54,538.53L413.93,534.04L417.31,539.2L420.71,538.53L424.1,536.78L427.49,534.66L430.88,536.26L434.28,536.26L437.67,534.66L441.07,536.26L444.45,534.31L447.85,534.07L451.24,526.74L454.63,525.81L458.01,526.79L461.41,526.13L464.79,528.31L471.58,528.17L474.97,518.65L478.36,517.02L481.75,517.02L485.15,513.01L488.54,502.81L491.94,499.56L495.33,498.58L498.73,498.44L502.12,500.16L505.51,484.69L508.9,484.28L515.68,484.84L519.07,478.28L522.46,472.25L525.86,475.09L529.25,470.12L532.64,470.12L536.03,471.85L539.42,477L542.81,479.23L546.2,479.23L549.6,479.23L552.98,480.13L556.37,494.84L559.76,494.43L563.15,494.3L566.54,492.76L573.32,512.2L576.71,507.01L580.1,516.26L583.5,508.49L586.89,507.1L590.28,499.1L593.67,495.97L597.06,495.97L603.84,496.35L607.23,494.97L624.19,494.71L627.57,499.84L630.97,501.33L634.36,507.86L637.76,509.93L641.14,522.69L647.93,529.04L651.32,526.79L654.7,525.81L658.1,527.98L661.48,528.98L664.87,531.39L668.26,531.39L671.66,532.69L681.83,532.69L685.22,528.98L688.61,528.98L692,527.85" style="vector-effect: none; fill: none; stroke: rgb(255, 161, 90); stroke-opacity: 1; stroke-width: 0px; opacity: 1;"/></g><g class="points"/><g class="text"/></g><g class="trace scatter tracea2d3d4" style="stroke-miterlimit: 2;"><g class="fills"/><g class="errorbars"/><g class="lines"><path class="js-line" d="M3.4,572L196.95,572L200.34,575.26L274.94,575.25L278.34,574.63L285.12,574.63L288.51,573.82L291.9,572.85L295.29,573.82L298.67,573.82L302.06,574.63L322.4,575.25L325.78,575.64L329.17,575.72L332.57,577.57L349.52,576.83L352.91,575.96L359.69,574.55L363.08,573.11L369.86,572.47L373.25,570.74L376.64,570.74L380.03,568.29L383.42,568.29L386.82,566.24L390.21,565.48L393.6,567.59L396.99,569.57L400.37,569.57L403.77,571.42L407.16,571.42L410.54,573.69L413.93,573.64L417.31,575.29L420.71,573.69L424.1,573.18L427.49,570.75L434.28,571.42L437.67,570.75L441.07,571.42L444.45,568.84L451.24,565.06L454.63,561.44L458.01,562.73L461.41,558.85L464.79,558.94L468.19,554.54L471.58,554.54L474.97,557.26L481.75,556.61L485.15,556.08L488.54,557.21L491.94,553.65L495.33,552.36L498.73,550.23L502.12,550.77L505.51,552.63L512.29,557.33L515.68,559.29L519.07,556.77L522.46,551.44L525.86,553.15L529.25,551.31L532.64,551.31L536.03,554.12L539.42,555.77L542.81,562.63L549.6,562.63L552.98,563.99L556.37,565.17L559.76,561.05L563.15,563.44L566.54,560.45L573.32,565.98L576.71,566.63L580.1,564.18L583.5,562.88L586.89,562L590.28,563.19L593.67,557.24L597.06,557.24L600.45,557.24L603.84,559.13L607.23,555.97L610.63,555.97L614.02,549.71L617.41,555.97L620.79,553.96L624.19,553.96L627.57,555.64L630.97,558.69L637.76,563.71L641.14,562.29L644.54,561.44L647.93,562.76L651.32,562.73L654.7,561.44L658.1,561.54L661.48,565.08L668.26,564.95L671.66,565.92L681.83,565.92L685.22,565.08L688.61,565.08L692,563.94" style="vector-effect: none; fill: none; stroke: rgb(25, 211, 243); stroke-opacity: 1; stroke-width: 0px; opacity: 1;"/></g><g class="points"/><g class="text"/></g><g class="trace scatter trace4f781c" style="stroke-miterlimit: 2; opacity: 1;"><g class="fills"/><g class="errorbars"/><g class="lines"><path class="js-line" d="M0.01,572L30.51,572L33.9,570.45L40.67,570.69L44.06,569.57L47.45,567.46L50.84,566.33L54.23,566.33L57.62,565.19L64.39,557.25L67.78,557.25L74.57,550.44L77.96,545.9L81.35,543.63L84.74,535.68L91.52,523.2L94.9,519.79L98.29,518.66L101.68,507.31L105.07,503.9L108.46,492.56L115.23,475.53L118.63,464.18L128.8,441.48L132.19,430.13L135.58,439.21L138.97,427.87L142.36,419.92L145.75,408.57L149.14,392.68L152.54,391.55L155.92,380.2L159.31,376.79L162.7,373.39L166.09,368.85L169.48,366.58L172.87,362.04L176.26,364.31L179.65,364.31L183.04,369.98L186.43,357.5L193.21,352.96L196.6,349.56L199.99,356.37L203.38,358.63L206.77,358.63L210.16,354.1L213.55,348.42L216.94,347.29L223.72,340.48L227.11,340.48L237.28,316.64L240.67,323.45L244.06,322.32L247.45,324.59L250.84,321.18L254.23,314.37L257.62,313.24L261.01,317.78L264.4,326.86L267.79,323.45L274.57,335.94L277.95,331.4L281.34,331.4L284.74,334.8L288.13,338.21L291.52,335.94L294.91,338.21L298.3,339.34L301.69,337.07L305.08,340.48L308.47,334.8L311.86,334.8L315.25,331.4L318.64,334.8L322.03,324.59L325.42,321.18L328.81,318.91L332.19,314.37L338.97,309.83L342.36,309.83L345.75,312.1L349.14,309.83L352.53,308.7L355.92,309.83L359.31,314.37L362.7,313.24L369.49,315.51L372.88,320.05L376.27,320.05L379.66,317.78L383.05,325.72L386.44,325.72L393.22,333.67L396.61,327.99L400,330.26L403.38,331.4L406.77,326.86L410.16,326.86L413.55,324.59L416.94,321.18L420.33,322.32L423.72,324.59L430.51,320.05L433.9,321.18L437.29,321.18L440.68,313.24L444.07,308.7L447.46,309.83L450.85,307.56L454.24,304.16L457.62,305.29L461.01,303.02L464.4,300.75L467.79,293.94L474.57,276.92L477.96,274.65L481.35,275.79L484.74,272.38L488.14,266.71L491.52,267.84L494.91,262.17L498.3,262.17L501.69,255.36L505.08,258.76L508.47,253.09L511.86,251.95L515.25,253.09L518.64,259.9L522.03,261.03L525.41,263.3L528.8,265.57L532.19,265.57L535.58,266.71L538.97,268.98L542.37,273.52L545.76,282.6L552.54,289.4L555.93,289.4L562.72,300.75L566.11,298.48L569.5,299.62L572.88,299.62L576.28,305.29L579.67,305.29L583.06,304.16L586.44,299.62L589.83,299.62L593.22,301.89L596.61,298.48L600,292.81L603.39,298.48L606.78,295.08L613.56,278.06L616.95,278.06L620.33,279.19L623.72,287.13L627.12,283.73L630.5,288.27L633.89,290.54L637.28,284.87L640.67,283.73L644.06,278.06L647.45,276.92L650.85,282.6L654.23,280.33L657.62,287.13L661.01,295.08L664.4,298.48L667.79,303.02L671.18,304.16L677.96,295.08L681.34,284.87L684.73,286L688.12,293.94L691.51,290.54" style="vector-effect: none; fill: none; stroke: rgb(44, 160, 44); stroke-opacity: 1; stroke-width: 2.5px; opacity: 1;"/></g><g class="points"/><g class="text"/></g><g class="trace scatter trace63cb35" style="stroke-miterlimit: 2;"><g class="fills"><g><path class="js-fill" d="M3.4,572L30.51,572L33.9,575.59L44.06,575.75L47.45,577.57L57.62,575.96L61,579.59L64.39,578.46L67.78,578.46L74.57,574.05L77.96,571.53L81.35,568.27L84.74,572.57L94.9,557.57L98.29,556.1L101.68,556.82L105.07,550.3L108.46,545.87L111.85,545.59L115.23,540.09L118.63,525.45L128.8,500.34L132.19,485.36L135.58,505.52L138.97,499.77L142.36,493.42L145.75,481.31L149.14,465.16L152.54,464.29L155.92,444.05L159.31,441.74L162.7,440.15L166.09,435.86L169.48,432.97L172.87,428.18L176.26,432.47L179.65,432.47L183.04,441.88L186.43,403.36L189.81,404.01L193.21,402.75L196.6,402.41L199.99,406.48L203.38,410.06L206.77,410.06L210.16,410.63L213.55,412.72L216.94,412.01L220.33,408.8L223.72,407.28L227.11,407.28L230.5,398.61L233.89,380.57L237.28,371.99L240.67,380.57L244.06,379.75L247.45,381L250.84,375.2L254.23,363.74L257.62,361.9L261.01,364.83L264.4,368.95L267.79,368.4L271.18,381.41L274.57,386.14L277.95,374.5L281.34,374.5L284.74,378.66L288.13,379.64L291.52,375.53L294.91,376.53L298.3,377.23L301.69,376.32L305.08,378.43L308.47,379.6L311.86,379.6L315.25,375.45L318.64,375.22L322.03,361.48L328.81,351.64L332.19,356.01L335.58,351.49L338.97,348.87L342.36,348.87L345.75,353.54L349.14,350.93L352.53,350.33L355.92,352.9L359.31,353.97L362.7,352.48L366.09,353.97L372.88,357.68L376.27,357.68L379.66,355.55L383.05,350.53L386.44,350.53L389.83,356.16L393.22,365.19L396.61,360.59L400,361.91L403.38,361.49L406.77,356.2L410.16,356.2L413.55,356.02L416.94,354.28L420.33,356.16L423.72,360.34L427.12,359.65L430.51,359.82L433.9,361.61L437.29,361.61L440.68,355.53L444.07,343.86L447.46,344.36L450.85,341.53L454.24,341.38L457.62,342.63L461.01,340.65L464.4,340.66L467.79,344.47L471.18,336.34L474.57,323.62L477.96,321.88L481.35,322.98L484.74,315.45L488.14,306.61L491.52,307.44L494.91,297.53L498.3,297.53L501.69,292.77L505.08,297.79L508.47,289.18L511.86,287.31L518.64,289.85L522.03,290.14L525.41,291.25L528.8,293.62L532.19,293.62L535.58,296.52L538.97,298.6L542.37,307.48L545.76,326.24L549.15,332.93L552.54,331.01L555.93,331.01L559.33,333.94L562.72,341.18L572.88,342.78L576.28,349.25L583.06,348.95L586.44,346.46L589.83,346.46L593.22,351.26L600,335.88L603.39,340.91L606.78,339.41L610.17,338.75L613.56,329.32L616.95,329.32L620.33,331.15L623.72,343.03L627.12,336.97L630.5,344.24L637.28,348.84L640.67,347.9L644.06,337.89L647.45,335.78L650.85,344.31L654.23,340.64L657.62,349.34L661.01,349.85L667.79,351.69L671.18,353.36L674.57,345.57L677.96,344.28L681.34,337.48L684.73,339.14L688.12,334.98L691.51,335.98L691.51,245.1L688.12,252.91L684.73,232.86L681.34,232.25L677.96,245.88L674.57,253.67L671.18,254.96L667.79,254.36L664.4,246.42L661.01,240.31L657.62,224.93L654.23,220.01L650.85,220.88L647.45,218.07L644.06,218.22L637.28,220.89L633.89,234.87L630.5,232.3L627.12,230.49L623.72,231.24L620.33,227.23L616.95,226.8L613.56,226.8L610.17,233.25L606.78,250.75L603.39,256.06L600,249.74L596.61,253.69L593.22,252.52L586.44,252.78L583.06,259.36L579.67,261.34L576.28,261.34L572.88,256.46L569.5,256.46L566.11,255.1L562.72,260.33L559.33,256.22L555.93,247.8L552.54,247.8L549.15,239.07L545.76,238.96L542.37,239.55L538.97,239.35L535.58,236.89L528.8,237.52L525.41,235.35L522.03,231.92L518.64,229.95L515.25,217.57L511.86,216.59L508.47,216.99L505.08,219.73L501.69,217.95L498.3,226.81L494.91,226.81L491.52,228.25L488.14,226.8L484.74,229.31L477.96,227.43L474.57,230.23L471.18,235.66L467.79,243.42L464.4,260.85L461.01,265.39L457.62,267.96L454.24,266.94L450.85,273.6L447.46,275.3L440.68,270.95L437.29,280.76L433.9,280.76L430.51,280.28L427.12,284.98L423.72,288.84L420.33,288.47L416.94,288.08L413.55,293.15L410.16,297.51L406.77,297.51L403.38,301.31L400,298.61L396.61,295.39L393.22,302.14L389.83,304.36L386.44,300.91L383.05,300.91L379.66,280L376.27,282.42L372.88,282.42L369.49,275.6L362.7,273.99L359.31,274.78L355.92,266.77L352.53,267.07L349.14,268.73L345.75,270.67L338.97,270.8L335.58,272.72L332.19,272.74L328.81,286.19L325.42,286.25L322.03,287.7L318.64,294.38L315.25,287.35L311.86,290.01L308.47,290.01L305.08,302.52L301.69,297.83L298.3,301.46L294.91,299.89L291.52,296.34L288.13,296.77L284.74,290.94L281.34,288.3L277.95,288.3L274.57,285.74L271.18,279.11L267.79,278.5L264.4,284.76L261.01,270.73L257.62,264.57L254.23,265.01L250.84,267.17L247.45,268.17L244.06,264.89L240.67,266.33L237.28,261.29L233.89,266.33L230.5,266.45L227.11,273.67L223.72,273.67L220.33,278.96L216.94,282.56L213.55,284.12L210.16,297.56L206.77,307.21L203.38,307.21L199.99,306.25L196.6,296.7L193.21,303.18L189.81,306.45L186.43,311.64L183.04,298.08L179.65,296.15L176.26,296.15L172.87,295.9L169.48,300.19L166.09,301.84L155.92,316.35L152.54,318.81L149.14,320.21L145.75,335.83L142.36,346.43L138.97,355.96L135.58,372.91L132.19,374.91L128.8,382.63L125.41,388.46L115.23,410.97L111.85,421.36L105.07,457.51L101.68,457.8L98.29,481.21L94.9,482.02L91.52,484.66L88.13,492.56L84.74,498.79L81.35,518.99L77.96,520.27L74.57,526.82L71.18,531.12L67.78,536.04L64.39,536.04L61,541.71L57.62,554.42L54.23,555.82L50.84,555.82L47.45,557.35L44.06,563.39L40.67,565.97L33.9,565.32L30.51,572L3.4,572Z" style="fill: rgb(44, 160, 44); fill-opacity: 0.1; stroke-width: 0;"/></g></g><g class="errorbars"/><g class="lines"><path class="js-line" d="M3.4,572L30.51,572L33.9,565.32L40.67,565.97L44.06,563.39L47.45,557.35L50.84,555.82L54.23,555.82L57.62,554.42L61,541.71L64.39,536.04L67.78,536.04L71.18,531.12L74.57,526.82L77.96,520.27L81.35,518.99L84.74,498.79L88.13,492.56L91.52,484.66L94.9,482.02L98.29,481.21L101.68,457.8L105.07,457.51L111.85,421.36L115.23,410.97L125.41,388.46L128.8,382.63L132.19,374.91L135.58,372.91L138.97,355.96L142.36,346.43L145.75,335.83L149.14,320.21L152.54,318.81L155.92,316.35L166.09,301.84L169.48,300.19L172.87,295.9L176.26,296.15L179.65,296.15L183.04,298.08L186.43,311.64L189.81,306.45L193.21,303.18L196.6,296.7L199.99,306.25L203.38,307.21L206.77,307.21L210.16,297.56L213.55,284.12L216.94,282.56L220.33,278.96L223.72,273.67L227.11,273.67L230.5,266.45L233.89,266.33L237.28,261.29L240.67,266.33L244.06,264.89L247.45,268.17L250.84,267.17L254.23,265.01L257.62,264.57L261.01,270.73L264.4,284.76L267.79,278.5L271.18,279.11L274.57,285.74L277.95,288.3L281.34,288.3L284.74,290.94L288.13,296.77L291.52,296.34L294.91,299.89L298.3,301.46L301.69,297.83L305.08,302.52L308.47,290.01L311.86,290.01L315.25,287.35L318.64,294.38L322.03,287.7L325.42,286.25L328.81,286.19L332.19,272.74L335.58,272.72L338.97,270.8L345.75,270.67L349.14,268.73L352.53,267.07L355.92,266.77L359.31,274.78L362.7,273.99L369.49,275.6L372.88,282.42L376.27,282.42L379.66,280L383.05,300.91L386.44,300.91L389.83,304.36L393.22,302.14L396.61,295.39L400,298.61L403.38,301.31L406.77,297.51L410.16,297.51L413.55,293.15L416.94,288.08L420.33,288.47L423.72,288.84L427.12,284.98L430.51,280.28L433.9,280.76L437.29,280.76L440.68,270.95L447.46,275.3L450.85,273.6L454.24,266.94L457.62,267.96L461.01,265.39L464.4,260.85L467.79,243.42L471.18,235.66L474.57,230.23L477.96,227.43L484.74,229.31L488.14,226.8L491.52,228.25L494.91,226.81L498.3,226.81L501.69,217.95L505.08,219.73L508.47,216.99L511.86,216.59L515.25,217.57L518.64,229.95L522.03,231.92L525.41,235.35L528.8,237.52L535.58,236.89L538.97,239.35L542.37,239.55L545.76,238.96L549.15,239.07L552.54,247.8L555.93,247.8L559.33,256.22L562.72,260.33L566.11,255.1L569.5,256.46L572.88,256.46L576.28,261.34L579.67,261.34L583.06,259.36L586.44,252.78L593.22,252.52L596.61,253.69L600,249.74L603.39,256.06L606.78,250.75L610.17,233.25L613.56,226.8L616.95,226.8L620.33,227.23L623.72,231.24L627.12,230.49L630.5,232.3L633.89,234.87L637.28,220.89L644.06,218.22L647.45,218.07L650.85,220.88L654.23,220.01L657.62,224.93L661.01,240.31L664.4,246.42L667.79,254.36L671.18,254.96L674.57,253.67L677.96,245.88L681.34,232.25L684.73,232.86L688.12,252.91L691.51,245.1" style="vector-effect: none; fill: none; stroke: rgb(182, 232, 128); stroke-opacity: 1; stroke-width: 0px; opacity: 1;"/></g><g class="points"/><g class="text"/></g><g class="trace scatter trace0c5b54" style="stroke-miterlimit: 2;"><g class="fills"/><g class="errorbars"/><g class="lines"><path class="js-line" d="M3.4,572L30.51,572L33.9,575.59L44.06,575.75L47.45,577.57L57.62,575.96L61,579.59L64.39,578.46L67.78,578.46L74.57,574.05L77.96,571.53L81.35,568.27L84.74,572.57L94.9,557.57L98.29,556.1L101.68,556.82L105.07,550.3L108.46,545.87L111.85,545.59L115.23,540.09L118.63,525.45L128.8,500.34L132.19,485.36L135.58,505.52L138.97,499.77L142.36,493.42L145.75,481.31L149.14,465.16L152.54,464.29L155.92,444.05L159.31,441.74L162.7,440.15L166.09,435.86L169.48,432.97L172.87,428.18L176.26,432.47L179.65,432.47L183.04,441.88L186.43,403.36L189.81,404.01L193.21,402.75L196.6,402.41L199.99,406.48L203.38,410.06L206.77,410.06L210.16,410.63L213.55,412.72L216.94,412.01L220.33,408.8L223.72,407.28L227.11,407.28L230.5,398.61L233.89,380.57L237.28,371.99L240.67,380.57L244.06,379.75L247.45,381L250.84,375.2L254.23,363.74L257.62,361.9L261.01,364.83L264.4,368.95L267.79,368.4L271.18,381.41L274.57,386.14L277.95,374.5L281.34,374.5L284.74,378.66L288.13,379.64L291.52,375.53L294.91,376.53L298.3,377.23L301.69,376.32L305.08,378.43L308.47,379.6L311.86,379.6L315.25,375.45L318.64,375.22L322.03,361.48L328.81,351.64L332.19,356.01L335.58,351.49L338.97,348.87L342.36,348.87L345.75,353.54L349.14,350.93L352.53,350.33L355.92,352.9L359.31,353.97L362.7,352.48L366.09,353.97L372.88,357.68L376.27,357.68L379.66,355.55L383.05,350.53L386.44,350.53L389.83,356.16L393.22,365.19L396.61,360.59L400,361.91L403.38,361.49L406.77,356.2L410.16,356.2L413.55,356.02L416.94,354.28L420.33,356.16L423.72,360.34L427.12,359.65L430.51,359.82L433.9,361.61L437.29,361.61L440.68,355.53L444.07,343.86L447.46,344.36L450.85,341.53L454.24,341.38L457.62,342.63L461.01,340.65L464.4,340.66L467.79,344.47L471.18,336.34L474.57,323.62L477.96,321.88L481.35,322.98L484.74,315.45L488.14,306.61L491.52,307.44L494.91,297.53L498.3,297.53L501.69,292.77L505.08,297.79L508.47,289.18L511.86,287.31L518.64,289.85L522.03,290.14L525.41,291.25L528.8,293.62L532.19,293.62L535.58,296.52L538.97,298.6L542.37,307.48L545.76,326.24L549.15,332.93L552.54,331.01L555.93,331.01L559.33,333.94L562.72,341.18L572.88,342.78L576.28,349.25L583.06,348.95L586.44,346.46L589.83,346.46L593.22,351.26L600,335.88L603.39,340.91L606.78,339.41L610.17,338.75L613.56,329.32L616.95,329.32L620.33,331.15L623.72,343.03L627.12,336.97L630.5,344.24L637.28,348.84L640.67,347.9L644.06,337.89L647.45,335.78L650.85,344.31L654.23,340.64L657.62,349.34L661.01,349.85L667.79,351.69L671.18,353.36L674.57,345.57L677.96,344.28L681.34,337.48L684.73,339.14L688.12,334.98L691.51,335.98" style="vector-effect: none; fill: none; stroke: rgb(255, 151, 255); stroke-opacity: 1; stroke-width: 0px; opacity: 1;"/></g><g class="points"/><g class="text"/></g><g class="trace scatter tracecce3bc" style="stroke-miterlimit: 2; opacity: 1;"><g class="fills"/><g class="errorbars"/><g class="lines"><path class="js-line" d="M0.01,572L47.46,572L50.85,570.87L57.63,570.87L61.01,569.73L71.18,569.73L74.57,567.46L77.95,567.46L81.35,565.19L84.73,562.92L88.12,558.38L91.51,556.11L94.9,556.11L98.28,550.44L101.67,547.03L105.06,547.03L108.45,545.9L115.22,539.09L118.61,539.09L122,535.68L125.39,537.95L132.17,535.68L135.56,530.01L138.95,526.6L142.34,517.52L145.73,508.44L149.12,503.9L152.51,498.23L155.89,486.88L159.29,475.53L162.68,473.26L166.06,466.45L169.46,456.24L172.85,440.35L176.24,430.13L179.63,423.33L183.01,419.92L186.41,419.92L189.79,418.79L193.18,417.65L196.58,414.25L199.97,411.98L203.35,414.25L206.75,416.52L210.13,421.06L213.53,419.92L216.91,421.06L220.3,418.79L223.7,423.33L227.09,426.73L230.48,423.33L233.87,422.19L237.25,418.79L240.64,417.65L244.03,411.98L247.42,417.65L250.81,418.79L254.2,411.98L257.59,407.44L260.98,401.76L264.37,392.68L267.76,385.87L271.14,381.33L274.53,389.28L277.92,381.33L281.31,380.2L284.7,369.98L288.08,367.71L291.47,363.17L294.87,371.12L298.26,364.31L301.65,365.44L305.04,364.31L308.43,359.77L311.81,357.5L318.59,352.96L321.98,358.63L325.37,349.56L328.76,350.69L332.14,349.56L335.53,355.23L338.92,355.23L342.31,348.42L345.7,342.75L349.08,346.15L352.48,337.07L355.87,333.67L359.26,329.13L362.65,326.86L366.04,327.99L369.43,334.8L376.21,334.8L379.6,331.4L382.99,327.99L386.38,326.86L389.77,322.32L393.16,331.4L396.55,334.8L399.94,326.86L403.32,331.4L406.72,332.53L410.11,342.75L413.5,343.88L416.88,341.61L420.28,334.8L423.66,329.13L427.06,325.72L433.84,315.51L437.23,306.43L440.62,309.83L444.01,308.7L447.4,307.56L450.79,315.51L454.18,309.83L457.57,306.43L460.96,300.75L464.35,300.75L474.52,314.37L477.91,313.24L481.31,323.45L484.69,327.99L488.08,333.67L491.47,331.4L501.64,313.24L505.02,310.97L511.81,308.7L515.2,301.89L518.59,298.48L521.98,297.35L525.37,293.94L528.77,298.48L532.16,292.81L535.55,295.08L538.94,297.35L542.33,290.54L545.72,291.67L549.11,297.35L552.51,290.54L555.89,296.21L559.28,298.48L562.67,295.08L566.06,297.35L569.45,304.16L572.85,301.89L576.24,296.21L579.63,290.54L583.01,292.81L586.4,286L589.79,283.73L596.57,283.73L599.96,276.92L603.34,286L606.73,286L610.12,287.13L613.51,293.94L616.89,298.48L620.28,292.81L627.07,297.35L630.45,300.75L637.23,312.1L640.62,303.02L644,304.16L647.39,300.75L650.79,304.16L654.18,301.89L657.56,303.02L660.95,300.75L664.34,297.35L667.73,291.67L671.12,292.81L674.51,287.13L677.9,288.27L681.28,287.13L688.06,272.38L691.44,282.6" style="vector-effect: none; fill: none; stroke: rgb(214, 39, 40); stroke-opacity: 1; stroke-width: 2.5px; opacity: 1;"/></g><g class="points"/><g class="text"/></g><g class="trace scatter traceedec0d" style="stroke-miterlimit: 2;"><g class="fills"><g><path class="js-fill" d="M3.4,572L47.46,572L50.85,575.26L71.18,575.72L74.57,577.57L84.73,577.12L88.12,578.93L91.51,576.93L94.9,576.93L98.28,577.33L101.67,576.42L105.06,576.42L108.45,574.58L111.83,572.99L115.22,568.9L118.61,568.9L122,564.36L125.39,568.13L128.78,565.93L132.17,565.07L135.56,566.33L142.34,569.48L145.73,562.07L149.12,562.17L152.51,560.5L159.29,541.04L162.68,538.31L166.06,531.5L169.46,515.28L172.85,511.56L176.24,491.4L179.63,474.59L183.01,465.63L186.41,465.63L189.79,463.83L193.18,463.36L196.58,460.41L199.97,458.73L203.35,462.17L206.75,464.61L210.13,469.15L213.53,466.97L216.91,468.28L220.3,466.94L223.7,459.42L227.09,464.72L230.48,461.1L233.87,458.7L237.25,454.61L240.64,453.17L244.03,458.29L247.42,465.57L250.81,466.07L257.59,457.55L260.98,451.19L267.76,438.33L271.14,436.76L274.53,448.41L277.92,436.76L281.31,435.35L284.7,424.91L288.08,421.93L291.47,415.63L294.87,422.27L298.26,407.57L301.65,409.96L305.04,409.44L311.81,405.99L315.2,406.49L318.59,405.97L321.98,412.03L325.37,393.42L328.76,394.8L332.14,392.94L335.53,397.16L338.92,397.16L342.31,398.62L345.7,389.09L349.08,396.18L352.48,385.31L355.87,383.92L359.26,385.39L362.65,383.61L366.04,383.96L369.43,393.23L376.21,393.23L379.6,389.26L382.99,385.06L386.38,382.88L389.77,377.54L393.16,384.79L396.55,389.95L399.94,377.44L403.32,380.76L406.72,380.88L410.11,383.88L413.5,383.96L416.88,385.19L420.28,376.24L423.66,366.35L427.06,364.79L430.45,366.09L433.84,365.13L437.23,358.22L440.62,362.81L447.4,357.35L450.79,372.87L454.18,367.67L457.57,366.38L460.96,356.65L464.35,356.65L467.74,360.89L471.13,370.17L474.52,375.37L477.91,375.02L481.31,383.4L484.69,384.33L488.08,383.51L491.47,381.18L498.25,369.97L501.64,355.04L508.42,357.03L511.81,356.36L515.2,355.29L518.59,351.34L521.98,348.37L525.37,341.52L528.77,346.4L532.16,334.41L538.94,343.24L542.33,340.74L545.72,341.87L549.11,351.13L552.51,348.04L555.89,351.64L559.28,351.73L562.67,350.98L566.06,350.36L569.45,361.52L572.85,357.19L576.24,354.2L579.63,348.76L583.01,352.06L586.4,343.98L589.79,339.63L596.57,339.63L599.96,327.86L603.34,337.15L606.73,337.15L610.12,337.99L613.51,343.65L616.89,346.83L620.28,334.9L623.67,340.33L627.07,339.97L630.45,341.18L633.84,356.6L637.23,360.02L640.62,361.71L644,361.16L647.39,359.54L650.79,362.23L654.18,358.67L657.56,360.29L660.95,359.54L667.73,351.99L671.12,353.44L674.51,344.13L677.9,344.98L681.28,343.77L684.67,322.93L688.06,314.96L691.44,319.56L691.44,245.63L688.06,229.8L684.67,235.46L681.28,230.5L677.9,231.56L674.51,230.14L671.12,232.18L667.73,231.36L664.34,239.13L660.95,241.97L657.56,245.76L654.18,245.11L650.79,246.08L647.39,241.97L644,247.16L640.62,244.33L637.23,264.18L633.84,256.26L630.45,260.33L627.07,254.73L623.67,249.82L620.28,250.71L616.89,250.13L613.51,244.24L610.12,236.28L606.73,234.85L603.34,234.85L599.96,225.98L596.57,227.83L586.4,228.02L583.01,233.56L579.63,232.32L576.24,238.23L572.85,246.59L569.45,246.8L566.06,244.34L562.67,239.18L559.28,245.24L555.89,240.79L552.51,233.04L549.11,243.57L545.72,241.48L542.33,240.34L538.94,251.46L535.55,251.22L528.77,250.56L525.37,246.37L521.98,246.33L518.59,245.63L515.2,248.49L511.81,261.04L508.42,262.64L505.02,265.62L501.64,271.44L498.25,270.12L491.47,281.61L488.08,283.83L484.69,271.65L481.31,263.51L477.91,251.45L474.52,253.38L467.74,249.69L464.35,244.86L460.96,244.86L457.57,246.48L454.18,252L450.79,258.15L444.01,257.28L440.62,256.85L437.23,254.63L433.84,265.89L430.45,274.01L427.06,286.65L423.66,291.9L420.28,293.37L413.5,303.8L410.11,301.61L406.72,284.18L403.32,282.03L399.94,276.27L396.55,279.65L393.16,278L389.77,267.09L386.38,270.84L382.99,270.92L379.6,273.53L376.21,276.37L372.82,276.37L369.43,276.37L366.04,272.02L362.65,270.1L359.26,272.86L355.87,283.41L352.48,288.83L349.08,296.12L345.7,296.41L342.31,298.22L338.92,313.3L335.53,313.3L332.14,306.17L328.76,306.58L321.98,305.24L318.59,299.95L315.2,303.97L311.81,309.01L308.43,311.68L305.04,319.18L301.65,320.93L298.26,321.05L294.87,319.97L291.47,310.72L288.08,313.5L284.7,315.06L281.31,325.05L277.92,325.91L274.53,330.14L271.14,325.91L264.37,340.86L260.98,352.34L257.59,357.32L254.2,362.64L250.81,371.5L247.42,369.73L244.03,365.67L240.64,382.14L237.25,382.96L233.87,385.68L230.48,385.55L227.09,388.74L223.7,387.23L220.3,370.64L216.91,373.83L213.53,372.87L210.13,372.96L206.75,368.42L203.35,366.33L199.97,365.22L193.18,371.94L189.79,373.74L183.01,374.21L179.63,372.07L176.24,368.87L172.85,369.14L169.46,397.2L166.06,401.4L162.68,408.21L159.29,410.02L155.89,423.51L152.51,435.96L145.73,454.82L142.34,465.57L138.95,485.57L135.56,493.69L132.17,506.29L128.78,507.71L125.39,507.77L122,507L118.61,509.28L115.22,509.28L111.83,511.99L108.45,517.22L101.67,517.64L98.28,523.55L94.9,535.29L91.51,535.29L88.12,537.83L84.73,548.73L81.35,552.65L77.95,557.35L74.57,557.35L71.18,563.74L61.01,563.74L57.63,566.47L50.85,566.47L47.46,572L3.4,572Z" style="fill: rgb(214, 39, 40); fill-opacity: 0.1; stroke-width: 0;"/></g></g><g class="errorbars"/><g class="lines"><path class="js-line" d="M3.4,572L47.46,572L50.85,566.47L57.63,566.47L61.01,563.74L71.18,563.74L74.57,557.35L77.95,557.35L81.35,552.65L84.73,548.73L88.12,537.83L91.51,535.29L94.9,535.29L98.28,523.55L101.67,517.64L108.45,517.22L111.83,511.99L115.22,509.28L118.61,509.28L122,507L125.39,507.77L128.78,507.71L132.17,506.29L135.56,493.69L138.95,485.57L142.34,465.57L145.73,454.82L152.51,435.96L155.89,423.51L159.29,410.02L162.68,408.21L166.06,401.4L169.46,397.2L172.85,369.14L176.24,368.87L179.63,372.07L183.01,374.21L189.79,373.74L193.18,371.94L199.97,365.22L203.35,366.33L206.75,368.42L210.13,372.96L213.53,372.87L216.91,373.83L220.3,370.64L223.7,387.23L227.09,388.74L230.48,385.55L233.87,385.68L237.25,382.96L240.64,382.14L244.03,365.67L247.42,369.73L250.81,371.5L254.2,362.64L257.59,357.32L260.98,352.34L264.37,340.86L271.14,325.91L274.53,330.14L277.92,325.91L281.31,325.05L284.7,315.06L288.08,313.5L291.47,310.72L294.87,319.97L298.26,321.05L301.65,320.93L305.04,319.18L308.43,311.68L311.81,309.01L315.2,303.97L318.59,299.95L321.98,305.24L328.76,306.58L332.14,306.17L335.53,313.3L338.92,313.3L342.31,298.22L345.7,296.41L349.08,296.12L352.48,288.83L355.87,283.41L359.26,272.86L362.65,270.1L366.04,272.02L369.43,276.37L372.82,276.37L376.21,276.37L379.6,273.53L382.99,270.92L386.38,270.84L389.77,267.09L393.16,278L396.55,279.65L399.94,276.27L403.32,282.03L406.72,284.18L410.11,301.61L413.5,303.8L420.28,293.37L423.66,291.9L427.06,286.65L430.45,274.01L433.84,265.89L437.23,254.63L440.62,256.85L444.01,257.28L450.79,258.15L454.18,252L457.57,246.48L460.96,244.86L464.35,244.86L467.74,249.69L474.52,253.38L477.91,251.45L481.31,263.51L484.69,271.65L488.08,283.83L491.47,281.61L498.25,270.12L501.64,271.44L505.02,265.62L508.42,262.64L511.81,261.04L515.2,248.49L518.59,245.63L521.98,246.33L525.37,246.37L528.77,250.56L535.55,251.22L538.94,251.46L542.33,240.34L545.72,241.48L549.11,243.57L552.51,233.04L555.89,240.79L559.28,245.24L562.67,239.18L566.06,244.34L569.45,246.8L572.85,246.59L576.24,238.23L579.63,232.32L583.01,233.56L586.4,228.02L596.57,227.83L599.96,225.98L603.34,234.85L606.73,234.85L610.12,236.28L613.51,244.24L616.89,250.13L620.28,250.71L623.67,249.82L627.07,254.73L630.45,260.33L633.84,256.26L637.23,264.18L640.62,244.33L644,247.16L647.39,241.97L650.79,246.08L654.18,245.11L657.56,245.76L660.95,241.97L664.34,239.13L667.73,231.36L671.12,232.18L674.51,230.14L677.9,231.56L681.28,230.5L684.67,235.46L688.06,229.8L691.44,245.63" style="vector-effect: none; fill: none; stroke: rgb(99, 110, 250); stroke-opacity: 1; stroke-width: 0px; opacity: 1;"/></g><g class="points"/><g class="text"/></g><g class="trace scatter trace9d4d04" style="stroke-miterlimit: 2;"><g class="fills"/><g class="errorbars"/><g class="lines"><path class="js-line" d="M3.4,572L47.46,572L50.85,575.26L71.18,575.72L74.57,577.57L84.73,577.12L88.12,578.93L91.51,576.93L94.9,576.93L98.28,577.33L101.67,576.42L105.06,576.42L108.45,574.58L111.83,572.99L115.22,568.9L118.61,568.9L122,564.36L125.39,568.13L128.78,565.93L132.17,565.07L135.56,566.33L142.34,569.48L145.73,562.07L149.12,562.17L152.51,560.5L159.29,541.04L162.68,538.31L166.06,531.5L169.46,515.28L172.85,511.56L176.24,491.4L179.63,474.59L183.01,465.63L186.41,465.63L189.79,463.83L193.18,463.36L196.58,460.41L199.97,458.73L203.35,462.17L206.75,464.61L210.13,469.15L213.53,466.97L216.91,468.28L220.3,466.94L223.7,459.42L227.09,464.72L230.48,461.1L233.87,458.7L237.25,454.61L240.64,453.17L244.03,458.29L247.42,465.57L250.81,466.07L257.59,457.55L260.98,451.19L267.76,438.33L271.14,436.76L274.53,448.41L277.92,436.76L281.31,435.35L284.7,424.91L288.08,421.93L291.47,415.63L294.87,422.27L298.26,407.57L301.65,409.96L305.04,409.44L311.81,405.99L315.2,406.49L318.59,405.97L321.98,412.03L325.37,393.42L328.76,394.8L332.14,392.94L335.53,397.16L338.92,397.16L342.31,398.62L345.7,389.09L349.08,396.18L352.48,385.31L355.87,383.92L359.26,385.39L362.65,383.61L366.04,383.96L369.43,393.23L376.21,393.23L379.6,389.26L382.99,385.06L386.38,382.88L389.77,377.54L393.16,384.79L396.55,389.95L399.94,377.44L403.32,380.76L406.72,380.88L410.11,383.88L413.5,383.96L416.88,385.19L420.28,376.24L423.66,366.35L427.06,364.79L430.45,366.09L433.84,365.13L437.23,358.22L440.62,362.81L447.4,357.35L450.79,372.87L454.18,367.67L457.57,366.38L460.96,356.65L464.35,356.65L467.74,360.89L471.13,370.17L474.52,375.37L477.91,375.02L481.31,383.4L484.69,384.33L488.08,383.51L491.47,381.18L498.25,369.97L501.64,355.04L508.42,357.03L511.81,356.36L515.2,355.29L518.59,351.34L521.98,348.37L525.37,341.52L528.77,346.4L532.16,334.41L538.94,343.24L542.33,340.74L545.72,341.87L549.11,351.13L552.51,348.04L555.89,351.64L559.28,351.73L562.67,350.98L566.06,350.36L569.45,361.52L572.85,357.19L576.24,354.2L579.63,348.76L583.01,352.06L586.4,343.98L589.79,339.63L596.57,339.63L599.96,327.86L603.34,337.15L606.73,337.15L610.12,337.99L613.51,343.65L616.89,346.83L620.28,334.9L623.67,340.33L627.07,339.97L630.45,341.18L633.84,356.6L637.23,360.02L640.62,361.71L644,361.16L647.39,359.54L650.79,362.23L654.18,358.67L657.56,360.29L660.95,359.54L667.73,351.99L671.12,353.44L674.51,344.13L677.9,344.98L681.28,343.77L684.67,322.93L688.06,314.96L691.44,319.56" style="vector-effect: none; fill: none; stroke: rgb(239, 85, 59); stroke-opacity: 1; stroke-width: 0px; opacity: 1;"/></g><g class="points"/><g class="text"/></g><g class="trace scatter trace0d245f" style="stroke-miterlimit: 2; opacity: 1;"><g class="fills"/><g class="errorbars"/><g class="lines"><path class="js-line" d="M0.01,572L40.7,572L44.1,570.78L74.6,570.87L78,570.87L81.39,570.87L84.77,569.73L91.55,569.73L94.94,570.87L98.33,568.6L101.72,568.6L105.11,567.46L108.5,565.19L111.89,565.19L115.28,564.06L122.06,556.11L125.44,554.98L128.83,552.71L132.22,551.57L135.62,548.17L139.01,547.03L142.4,545.9L145.79,542.49L149.18,542.49L152.57,535.68L155.96,532.28L159.35,530.01L162.74,526.6L166.13,518.66L172.91,508.44L176.3,506.17L179.69,497.1L183.08,492.56L186.47,485.75L189.86,476.67L196.64,457.37L200.03,446.02L203.42,441.48L206.81,434.67L210.2,430.13L213.59,417.65L216.98,414.25L220.37,406.3L223.76,401.76L227.15,384.74L230.54,380.2L233.92,373.39L240.71,363.17L244.09,351.83L250.87,341.61L254.26,339.34L257.65,339.34L261.03,332.53L264.42,334.8L267.81,332.53L271.2,332.53L274.59,338.21L277.98,337.07L281.37,337.07L284.76,330.26L288.15,332.53L291.54,330.26L294.93,337.07L298.31,330.26L301.7,332.53L305.09,329.13L308.47,322.32L311.86,322.32L315.25,312.1L318.64,306.43L322.03,308.7L325.43,300.75L328.82,306.43L332.21,308.7L335.6,307.56L338.98,308.7L342.38,306.43L345.77,305.29L349.16,313.24L355.94,308.7L359.33,312.1L362.71,309.83L366.11,314.37L369.5,316.64L372.88,314.37L376.27,317.78L379.66,314.37L383.05,307.56L386.44,308.7L389.83,298.48L393.22,296.21L400,287.13L403.4,288.27L410.18,280.33L413.56,278.06L420.35,284.87L423.74,282.6L427.12,273.52L430.52,268.98L437.29,268.98L440.68,267.84L444.07,265.57L447.46,264.44L450.85,263.3L454.24,254.22L457.63,255.36L461.02,255.36L464.41,253.09L467.8,248.55L471.19,236.06L474.59,239.47L477.97,237.2L481.36,244.01L484.76,245.14L488.14,238.33L491.53,242.87L494.91,242.87L498.3,249.68L501.69,248.55L505.08,258.76L508.46,262.17L511.85,259.9L515.24,263.3L518.63,262.17L522.02,262.17L525.41,250.82L528.8,253.09L532.19,248.55L535.57,247.41L538.96,255.36L542.35,253.09L545.74,258.76L549.13,255.36L552.52,262.17L555.9,254.22L562.68,251.95L566.07,244.01L569.46,242.87L572.85,251.95L576.24,262.17L579.63,261.03L583.02,258.76L586.41,265.57L589.8,259.9L593.19,263.3L596.58,257.63L599.97,254.22L603.36,259.9L606.76,262.17L610.15,262.17L613.54,263.3L616.93,263.3L620.32,267.84L627.11,256.49L630.5,261.03L633.89,262.17L637.28,249.68L640.67,250.82L644.06,248.55L647.45,253.09L650.84,250.82L654.23,245.14L657.62,237.2L661,234.93L664.4,238.33L667.78,244.01L671.17,237.2L674.56,241.74L677.95,244.01L681.34,237.2L684.73,238.33L688.12,241.74L691.51,239.47" style="vector-effect: none; fill: none; stroke: rgb(148, 103, 189); stroke-opacity: 1; stroke-width: 2.5px; opacity: 1;"/></g><g class="points"/><g class="text"/></g><g class="trace scatter traceb4e10e" style="stroke-miterlimit: 2;"><g class="fills"><g><path class="js-fill" d="M3.4,572L40.7,572L44.1,575.33L81.39,575.26L84.77,575.72L94.94,575.26L98.33,578.14L111.89,577.73L115.28,576.71L118.67,579.31L122.06,577.9L128.83,573.92L132.22,572.12L135.62,572.07L139.01,570.11L142.4,568.06L145.79,564.28L149.18,564.28L152.57,562.88L155.96,560.08L159.35,558.69L162.74,552.87L166.13,552.63L169.52,555.6L172.91,553.7L176.3,549.75L179.69,547.27L183.08,540.13L186.47,538.6L193.25,516.53L196.64,510.22L200.03,498.61L203.42,494.8L210.2,477.71L213.59,464.26L216.98,461.29L220.37,461.83L223.76,455.98L227.15,438.96L230.54,435.72L233.92,420.53L237.32,416.29L240.71,409.78L244.09,404.28L247.48,401.3L254.26,393.43L257.65,393.43L261.03,379.58L264.42,382.72L267.81,378.69L271.2,378.69L274.59,395.2L277.98,395.76L281.37,395.76L284.76,388.95L288.15,391.32L291.54,388.95L294.93,391.36L298.31,396.88L301.7,398.61L305.09,394.58L308.47,384.92L311.86,384.92L318.64,373.54L322.03,376.14L325.43,353.21L328.82,357.42L332.21,361.71L335.6,361.35L338.98,363.62L342.38,361.7L345.77,359.76L349.16,355.53L355.94,351.31L359.33,355.96L366.11,350.12L369.5,350.08L372.88,347.72L376.27,357.16L379.66,354.49L383.05,346.63L386.44,346.69L389.83,339.92L393.22,339.47L396.62,334.29L400,332.39L403.4,334.07L406.79,333.35L410.18,326.66L413.56,324.22L416.96,329.81L420.35,336.29L423.74,334.07L427.12,313.11L430.52,311.27L444.07,311.52L447.46,310.6L450.85,310.53L454.24,303.51L461.02,303.85L464.41,301.86L467.8,292.19L471.19,274.92L474.59,283.05L477.97,280.2L481.36,291.06L484.76,292.95L488.14,287.67L491.53,291.31L494.91,291.31L498.3,305.58L501.69,305.37L505.08,316.24L508.46,319.43L511.85,316.24L515.24,319.35L518.63,318.33L522.02,318.33L525.41,312.15L528.8,314.29L532.19,307.17L535.57,305.49L538.96,311.75L542.35,309.72L545.74,315.52L549.13,307.55L552.52,312.91L555.9,302.23L559.29,300.57L562.68,299.32L566.07,295.67L569.46,294.62L572.85,300.62L576.24,302.45L579.63,301.45L583.02,300.86L586.41,316.24L589.8,311.24L593.19,314.32L599.97,304.34L603.36,319.45L606.76,320.5L610.15,320.5L613.54,321.52L616.93,321.52L620.32,326.06L623.72,321.21L627.11,315.77L630.5,322.23L633.89,322.6L637.28,305.95L640.67,306.49L644.06,303.52L647.45,307.86L650.84,306.49L654.23,289.35L657.62,290.52L661,287.67L664.4,294.72L667.78,296.47L671.17,288.54L674.56,293.93L677.95,295.67L681.34,285.21L684.73,286.4L688.12,287.15L691.51,286.25L691.51,192.68L688.12,196.33L684.73,190.27L681.34,189.19L677.95,192.35L671.17,185.86L667.78,191.55L664.4,181.95L661,182.18L657.62,183.88L654.23,200.94L650.84,195.14L647.45,198.31L644.06,193.57L640.67,195.14L637.28,193.42L633.89,201.74L630.5,199.83L627.11,197.22L620.32,209.62L616.93,205.08L613.54,205.08L610.15,203.83L606.76,203.83L603.36,200.34L599.97,204.11L596.58,206.21L593.19,212.28L589.8,208.56L586.41,214.91L583.02,216.67L579.63,220.61L576.24,221.88L572.85,203.29L569.46,191.13L566.07,192.35L562.68,204.58L555.9,206.22L552.52,211.42L549.13,203.16L545.74,202.01L542.35,196.45L538.96,198.97L535.57,189.34L532.19,189.93L528.8,191.89L525.41,189.48L522.02,206L518.63,206L515.24,207.26L511.85,203.56L508.46,204.9L505.08,201.28L501.69,191.72L498.3,193.79L494.91,194.44L491.53,194.44L488.14,188.99L484.76,197.34L481.36,196.96L477.97,194.2L474.59,195.89L471.19,197.21L467.8,204.91L464.41,204.31L461.02,206.86L457.63,206.86L454.24,204.94L450.85,216.08L447.46,218.28L444.07,219.62L440.68,223.79L437.29,226.69L433.91,226.69L430.52,226.69L427.12,233.92L423.74,231.12L420.35,233.44L416.96,233.11L413.56,231.9L410.18,233.99L406.79,234.11L403.4,242.47L400,241.88L396.62,249.06L393.22,252.96L389.83,257.05L386.44,270.7L383.05,268.5L379.66,274.26L376.27,278.39L372.88,281.02L369.5,283.21L366.11,278.62L362.71,266.29L359.33,268.24L355.94,266.08L352.55,268.94L349.16,270.95L345.77,250.82L342.38,251.15L338.98,253.77L335.6,253.78L332.21,255.69L328.82,255.44L322.03,241.25L318.64,239.31L315.25,245.09L311.86,259.71L308.47,259.71L305.09,263.68L301.7,266.45L298.31,263.64L294.93,282.78L291.54,271.57L288.15,273.75L284.76,271.57L281.37,278.38L277.98,278.38L274.59,281.21L271.2,286.37L267.81,286.37L264.42,286.88L261.03,285.48L257.65,285.25L250.87,285.57L247.48,291L244.09,299.37L240.71,316.57L237.32,319.14L233.92,326.25L230.54,324.67L227.15,330.52L223.76,347.54L220.37,350.78L216.98,367.2L213.59,371.04L210.2,382.56L206.81,383.41L203.42,388.17L200.03,393.43L196.64,404.52L193.25,418.64L186.47,432.9L183.08,444.98L179.69,446.92L176.3,462.6L172.91,463.19L169.52,470.37L162.74,500.33L159.35,501.33L152.57,508.49L149.18,520.7L145.79,520.7L142.4,523.73L135.62,524.26L132.22,531.02L128.83,531.5L125.44,533.64L122.06,534.32L118.67,539.72L115.28,551.4L111.89,552.65L108.5,552.65L105.11,557.35L101.72,559.05L98.33,559.05L94.94,566.47L91.55,563.74L84.77,563.74L81.39,566.47L61.05,566.47L57.66,566.47L44.1,566.23L40.7,572L3.4,572Z" style="fill: rgb(148, 103, 189); fill-opacity: 0.1; stroke-width: 0;"/></g></g><g class="errorbars"/><g class="lines"><path class="js-line" d="M3.4,572L40.7,572L44.1,566.23L57.66,566.47L61.05,566.47L81.39,566.47L84.77,563.74L91.55,563.74L94.94,566.47L98.33,559.05L101.72,559.05L105.11,557.35L108.5,552.65L111.89,552.65L115.28,551.4L118.67,539.72L122.06,534.32L125.44,533.64L128.83,531.5L132.22,531.02L135.62,524.26L142.4,523.73L145.79,520.7L149.18,520.7L152.57,508.49L159.35,501.33L162.74,500.33L169.52,470.37L172.91,463.19L176.3,462.6L179.69,446.92L183.08,444.98L186.47,432.9L193.25,418.64L196.64,404.52L200.03,393.43L203.42,388.17L206.81,383.41L210.2,382.56L213.59,371.04L216.98,367.2L220.37,350.78L223.76,347.54L227.15,330.52L230.54,324.67L233.92,326.25L237.32,319.14L240.71,316.57L244.09,299.37L247.48,291L250.87,285.57L257.65,285.25L261.03,285.48L264.42,286.88L267.81,286.37L271.2,286.37L274.59,281.21L277.98,278.38L281.37,278.38L284.76,271.57L288.15,273.75L291.54,271.57L294.93,282.78L298.31,263.64L301.7,266.45L305.09,263.68L308.47,259.71L311.86,259.71L315.25,245.09L318.64,239.31L322.03,241.25L328.82,255.44L332.21,255.69L335.6,253.78L338.98,253.77L342.38,251.15L345.77,250.82L349.16,270.95L352.55,268.94L355.94,266.08L359.33,268.24L362.71,266.29L366.11,278.62L369.5,283.21L372.88,281.02L376.27,278.39L379.66,274.26L383.05,268.5L386.44,270.7L389.83,257.05L393.22,252.96L396.62,249.06L400,241.88L403.4,242.47L406.79,234.11L410.18,233.99L413.56,231.9L416.96,233.11L420.35,233.44L423.74,231.12L427.12,233.92L430.52,226.69L433.91,226.69L437.29,226.69L440.68,223.79L444.07,219.62L447.46,218.28L450.85,216.08L454.24,204.94L457.63,206.86L461.02,206.86L464.41,204.31L467.8,204.91L471.19,197.21L474.59,195.89L477.97,194.2L481.36,196.96L484.76,197.34L488.14,188.99L491.53,194.44L494.91,194.44L498.3,193.79L501.69,191.72L505.08,201.28L508.46,204.9L511.85,203.56L515.24,207.26L518.63,206L522.02,206L525.41,189.48L528.8,191.89L532.19,189.93L535.57,189.34L538.96,198.97L542.35,196.45L545.74,202.01L549.13,203.16L552.52,211.42L555.9,206.22L562.68,204.58L566.07,192.35L569.46,191.13L572.85,203.29L576.24,221.88L579.63,220.61L583.02,216.67L586.41,214.91L589.8,208.56L593.19,212.28L596.58,206.21L599.97,204.11L603.36,200.34L606.76,203.83L610.15,203.83L613.54,205.08L616.93,205.08L620.32,209.62L627.11,197.22L630.5,199.83L633.89,201.74L637.28,193.42L640.67,195.14L644.06,193.57L647.45,198.31L650.84,195.14L654.23,200.94L657.62,183.88L661,182.18L664.4,181.95L667.78,191.55L671.17,185.86L677.95,192.35L681.34,189.19L684.73,190.27L688.12,196.33L691.51,192.68" style="vector-effect: none; fill: none; stroke: rgb(171, 99, 250); stroke-opacity: 1; stroke-width: 0px; opacity: 1;"/></g><g class="points"/><g class="text"/></g><g class="trace scatter tracebdba0f" style="stroke-miterlimit: 2;"><g class="fills"/><g class="errorbars"/><g class="lines"><path class="js-line" d="M3.4,572L40.7,572L44.1,575.33L81.39,575.26L84.77,575.72L94.94,575.26L98.33,578.14L111.89,577.73L115.28,576.71L118.67,579.31L122.06,577.9L128.83,573.92L132.22,572.12L135.62,572.07L139.01,570.11L142.4,568.06L145.79,564.28L149.18,564.28L152.57,562.88L155.96,560.08L159.35,558.69L162.74,552.87L166.13,552.63L169.52,555.6L172.91,553.7L176.3,549.75L179.69,547.27L183.08,540.13L186.47,538.6L193.25,516.53L196.64,510.22L200.03,498.61L203.42,494.8L210.2,477.71L213.59,464.26L216.98,461.29L220.37,461.83L223.76,455.98L227.15,438.96L230.54,435.72L233.92,420.53L237.32,416.29L240.71,409.78L244.09,404.28L247.48,401.3L254.26,393.43L257.65,393.43L261.03,379.58L264.42,382.72L267.81,378.69L271.2,378.69L274.59,395.2L277.98,395.76L281.37,395.76L284.76,388.95L288.15,391.32L291.54,388.95L294.93,391.36L298.31,396.88L301.7,398.61L305.09,394.58L308.47,384.92L311.86,384.92L318.64,373.54L322.03,376.14L325.43,353.21L328.82,357.42L332.21,361.71L335.6,361.35L338.98,363.62L342.38,361.7L345.77,359.76L349.16,355.53L355.94,351.31L359.33,355.96L366.11,350.12L369.5,350.08L372.88,347.72L376.27,357.16L379.66,354.49L383.05,346.63L386.44,346.69L389.83,339.92L393.22,339.47L396.62,334.29L400,332.39L403.4,334.07L406.79,333.35L410.18,326.66L413.56,324.22L416.96,329.81L420.35,336.29L423.74,334.07L427.12,313.11L430.52,311.27L444.07,311.52L447.46,310.6L450.85,310.53L454.24,303.51L461.02,303.85L464.41,301.86L467.8,292.19L471.19,274.92L474.59,283.05L477.97,280.2L481.36,291.06L484.76,292.95L488.14,287.67L491.53,291.31L494.91,291.31L498.3,305.58L501.69,305.37L505.08,316.24L508.46,319.43L511.85,316.24L515.24,319.35L518.63,318.33L522.02,318.33L525.41,312.15L528.8,314.29L532.19,307.17L535.57,305.49L538.96,311.75L542.35,309.72L545.74,315.52L549.13,307.55L552.52,312.91L555.9,302.23L559.29,300.57L562.68,299.32L566.07,295.67L569.46,294.62L572.85,300.62L576.24,302.45L579.63,301.45L583.02,300.86L586.41,316.24L589.8,311.24L593.19,314.32L599.97,304.34L603.36,319.45L606.76,320.5L610.15,320.5L613.54,321.52L616.93,321.52L620.32,326.06L623.72,321.21L627.11,315.77L630.5,322.23L633.89,322.6L637.28,305.95L640.67,306.49L644.06,303.52L647.45,307.86L650.84,306.49L654.23,289.35L657.62,290.52L661,287.67L664.4,294.72L667.78,296.47L671.17,288.54L674.56,293.93L677.95,295.67L681.34,285.21L684.73,286.4L688.12,287.15L691.51,286.25" style="vector-effect: none; fill: none; stroke: rgb(255, 161, 90); stroke-opacity: 1; stroke-width: 0px; opacity: 1;"/></g><g class="points"/><g class="text"/></g></g></g><g class="overplot"/><path class="xlines-above crisp" d="M0,0" style="fill: none;"/><path class="ylines-above crisp" d="M0,0" style="fill: none;"/><g class="overlines-above"/><g class="xaxislayer-above"><g class="xtick"><text text-anchor="middle" x="0" y="603" transform="translate(89,0)" style="font-family: 'Open Sans', verdana, arial, sans-serif; font-size: 30px; fill: rgb(42, 63, 95); fill-opacity: 1; white-space: pre; opacity: 1;">0</text></g><g class="xtick"><text text-anchor="middle" x="0" y="603" style="font-family: 'Open Sans', verdana, arial, sans-serif; font-size: 30px; fill: rgb(42, 63, 95); fill-opacity: 1; white-space: pre; opacity: 1;" transform="translate(427.57,0)">1M</text></g><g class="xtick"><text text-anchor="middle" x="0" y="603" style="font-family: 'Open Sans', verdana, arial, sans-serif; font-size: 30px; fill: rgb(42, 63, 95); fill-opacity: 1; white-space: pre; opacity: 1;" transform="translate(766.14,0)">2M</text></g></g><g class="yaxislayer-above"><g class="ytick"><text text-anchor="end" x="88" y="10.5" transform="translate(0,463.05)" style="font-family: 'Open Sans', verdana, arial, sans-serif; font-size: 30px; fill: rgb(42, 63, 95); fill-opacity: 1; white-space: pre; opacity: 1;">0.2</text></g><g class="ytick"><text text-anchor="end" x="88" y="10.5" style="font-family: 'Open Sans', verdana, arial, sans-serif; font-size: 30px; fill: rgb(42, 63, 95); fill-opacity: 1; white-space: pre; opacity: 1;" transform="translate(0,354.1)">0.4</text></g><g class="ytick"><text text-anchor="end" x="88" y="10.5" style="font-family: 'Open Sans', verdana, arial, sans-serif; font-size: 30px; fill: rgb(42, 63, 95); fill-opacity: 1; white-space: pre; opacity: 1;" transform="translate(0,245.14)">0.6</text></g><g class="ytick"><text text-anchor="end" x="88" y="10.5" style="font-family: 'Open Sans', verdana, arial, sans-serif; font-size: 30px; fill: rgb(42, 63, 95); fill-opacity: 1; white-space: pre; opacity: 1;" transform="translate(0,136.19)">0.8</text></g><g class="ytick"><text text-anchor="end" x="88" y="10.5" style="font-family: 'Open Sans', verdana, arial, sans-serif; font-size: 30px; fill: rgb(42, 63, 95); fill-opacity: 1; white-space: pre; opacity: 1;" transform="translate(0,27.24)">1</text></g></g><g class="overaxes-above"/></g></g><g class="polarlayer"/><g class="smithlayer"/><g class="ternarylayer"/><g class="geolayer"/><g class="funnelarealayer"/><g class="pielayer"/><g class="iciclelayer"/><g class="treemaplayer"/><g class="sunburstlayer"/><g class="glimages"/><defs id="topdefs-ea0a33"><g class="clips"/><clipPath id="legendea0a33"><rect width="303" height="220" x="0" y="0"/></clipPath></defs><g class="layer-above"><g class="imagelayer"/><g class="shapelayer"/></g><g class="infolayer"><g class="legend" pointer-events="all" transform="translate(96.11,5.720000000000005)"><rect class="bg" shape-rendering="crispEdges" width="303" height="220" x="0" y="0" style="stroke: rgb(68, 68, 68); stroke-opacity: 1; fill: rgb(255, 255, 255); fill-opacity: 0.8; stroke-width: 0px;"/><g class="scrollbox" transform="" clip-path="url(#legendea0a33)"><g class="groups"><g class="traces" transform="translate(0,26)" style="opacity: 1;"><text class="legendtext" text-anchor="start" x="40" y="11.7" style="font-family: 'Open Sans', verdana, arial, sans-serif; font-size: 30px; fill: rgb(42, 63, 95); fill-opacity: 1; white-space: pre;">TransfQmix</text><g class="layers" style="opacity: 1;"><g class="legendfill"/><g class="legendlines"><path class="js-line" d="M5,0h30" style="fill: none; stroke: rgb(31, 119, 180); stroke-opacity: 1; stroke-width: 2.5px;"/></g><g class="legendsymbols"><g class="legendpoints"/></g></g><rect class="legendtoggle" x="0" y="-21" width="297.8125" height="42" style="fill: rgb(0, 0, 0); fill-opacity: 0;"/></g><g class="traces" transform="translate(0,68)" style="opacity: 1;"><text class="legendtext" text-anchor="start" x="40" y="11.7" style="font-family: 'Open Sans', verdana, arial, sans-serif; font-size: 30px; fill: rgb(42, 63, 95); fill-opacity: 1; white-space: pre;">QmixTransfMixer</text><g class="layers" style="opacity: 1;"><g class="legendfill"/><g class="legendlines"><path class="js-line" d="M5,0h30" style="fill: none; stroke: rgb(255, 127, 14); stroke-opacity: 1; stroke-width: 2.5px;"/></g><g class="legendsymbols"><g class="legendpoints"/></g></g><rect class="legendtoggle" x="0" y="-21" width="297.8125" height="42" style="fill: rgb(0, 0, 0); fill-opacity: 0;"/></g><g class="traces" transform="translate(0,110)" style="opacity: 1;"><text class="legendtext" text-anchor="start" x="40" y="11.7" style="font-family: 'Open Sans', verdana, arial, sans-serif; font-size: 30px; fill: rgb(42, 63, 95); fill-opacity: 1; white-space: pre;">QmixTransfAgent</text><g class="layers" style="opacity: 1;"><g class="legendfill"/><g class="legendlines"><path class="js-line" d="M5,0h30" style="fill: none; stroke: rgb(44, 160, 44); stroke-opacity: 1; stroke-width: 2.5px;"/></g><g class="legendsymbols"><g class="legendpoints"/></g></g><rect class="legendtoggle" x="0" y="-21" width="297.8125" height="42" style="fill: rgb(0, 0, 0); fill-opacity: 0;"/></g><g class="traces" transform="translate(0,152)" style="opacity: 1;"><text class="legendtext" text-anchor="start" x="40" y="11.7" style="font-family: 'Open Sans', verdana, arial, sans-serif; font-size: 30px; fill: rgb(42, 63, 95); fill-opacity: 1; white-space: pre;">QmixGraphState</text><g class="layers" style="opacity: 1;"><g class="legendfill"/><g class="legendlines"><path class="js-line" d="M5,0h30" style="fill: none; stroke: rgb(214, 39, 40); stroke-opacity: 1; stroke-width: 2.5px;"/></g><g class="legendsymbols"><g class="legendpoints"/></g></g><rect class="legendtoggle" x="0" y="-21" width="297.8125" height="42" style="fill: rgb(0, 0, 0); fill-opacity: 0;"/></g><g class="traces" transform="translate(0,194)" style="opacity: 1;"><text class="legendtext" text-anchor="start" x="40" y="11.7" style="font-family: 'Open Sans', verdana, arial, sans-serif; font-size: 30px; fill: rgb(42, 63, 95); fill-opacity: 1; white-space: pre;">Qmix</text><g class="layers" style="opacity: 1;"><g class="legendfill"/><g class="legendlines"><path class="js-line" d="M5,0h30" style="fill: none; stroke: rgb(148, 103, 189); stroke-opacity: 1; stroke-width: 2.5px;"/></g><g class="legendsymbols"><g class="legendpoints"/></g></g><rect class="legendtoggle" x="0" y="-21" width="297.8125" height="42" style="fill: rgb(0, 0, 0); fill-opacity: 0;"/></g></g></g><rect class="scrollbar" rx="20" ry="3" width="0" height="0" x="0" y="0" style="fill: rgb(128, 139, 164); fill-opacity: 1;"/></g><g class="g-gtitle"/><g class="g-xtitle" transform="translate(0,-7.7000000000000455)"><text class="xtitle" x="444.5" y="649.7" text-anchor="middle" style="font-family: 'Open Sans', verdana, arial, sans-serif; font-size: 36px; fill: rgb(42, 63, 95); opacity: 1; font-weight: normal; white-space: pre;">Time Steps</text></g><g class="g-ytitle" transform="translate(32.4189453125,0)"><text class="ytitle" transform="rotate(-90,0.5812499999999972,286)" x="0.5812499999999972" y="286" text-anchor="middle" style="font-family: 'Open Sans', verdana, arial, sans-serif; font-size: 36px; fill: rgb(42, 63, 95); opacity: 1; font-weight: normal; white-space: pre;">Test Win Rate %</text></g></g></svg>