<?xml version="1.0" encoding="UTF-8"?>
<svg width="165px" height="44px" viewBox="0 0 165 44" version="1.1" xmlns="http://www.w3.org/2000/svg" xmlns:xlink="http://www.w3.org/1999/xlink">
    <!-- Generator: Sketch 52.6 (67491) - http://www.bohemiancoding.com/sketch -->
    <title>logo-icm-color</title>
    <desc>Created with Sketch.</desc>
    <g id="Symbols" stroke="none" stroke-width="1" fill="none" fill-rule="evenodd">
        <g id="Header-Color-Shrink" transform="translate(-225.000000, -20.000000)">
            <g id="logo-icm-color" transform="translate(225.000000, 20.000000)">
                <polygon id="Fill-1" fill="#012169" points="77.8932614 12.433912 80.4965047 12.433912 80.4965047 1.253832 77.8932614 1.253832"></polygon>
                <path d="M87.0454206,4.18144 C87.5355808,4.18144 87.9835263,4.26032 88.3916023,4.42272 C88.797333,4.5828 89.1467774,4.81016 89.4399354,5.11408 C89.7330934,5.41568 89.9605841,5.7776 90.1224073,6.20448 C90.2842305,6.63368 90.3639695,7.1116 90.3639695,7.64288 L90.3639695,12.43832 L87.9436568,12.43832 L87.9436568,8.08832 C87.9436568,7.55472 87.8005957,7.13944 87.519164,6.84248 C87.2400775,6.55016 86.871871,6.39936 86.4168898,6.39936 C85.9619085,6.39936 85.593702,6.55016 85.3146156,6.84248 C85.0331839,7.13944 84.892468,7.55472 84.892468,8.08832 L84.892468,12.43832 L82.4698101,12.43832 L82.4698101,4.2696 L84.2615919,4.2696 L84.6227626,5.07 C84.8150743,4.90528 85.0355291,4.75448 85.2864724,4.62456 C85.5022367,4.52016 85.7578705,4.4204 86.0580643,4.32528 C86.3559129,4.23016 86.6865952,4.18144 87.0454206,4.18144" id="Fill-2" fill="#012169"></path>
                <path d="M94.0422819,9.775192 C94.0915325,10.044312 94.2041052,10.262392 94.3846905,10.420152 C94.5652759,10.582552 94.8091834,10.661432 95.1211035,10.661432 C95.4306784,10.661432 95.6722406,10.589512 95.8481354,10.438712 C96.021685,10.292552 96.1061145,10.127832 96.1061145,9.951512 C96.1061145,9.809992 96.0029229,9.693992 95.7918491,9.605832 C95.5831206,9.517672 95.3227962,9.429512 95.0132213,9.341352 C94.7013012,9.248552 94.3635832,9.146472 93.9977219,9.030472 C93.6318607,8.909832 93.2964879,8.754392 92.9845678,8.559512 C92.6726476,8.364632 92.4146686,8.104792 92.2035948,7.786952 C91.9948663,7.466792 91.8893294,7.065432 91.8893294,6.578232 C91.8893294,6.246472 91.9620326,5.930952 92.1050937,5.629352 C92.2481548,5.327752 92.4545381,5.065592 92.7242434,4.838232 C92.9939488,4.613192 93.3222858,4.432232 93.7092544,4.299992 C94.0985683,4.160792 94.539478,4.093512 95.0296382,4.093512 C96.1061145,4.093512 96.9246117,4.330152 97.4898204,4.801112 C98.0503385,5.279032 98.3974377,5.865992 98.5287725,6.578232 L96.1975798,6.754552 C96.145984,6.578232 96.0427924,6.418152 95.8739333,6.267352 C95.7050743,6.121192 95.4846195,6.046952 95.2102235,6.046952 C94.9334824,6.046952 94.7317896,6.104952 94.5981096,6.225592 C94.46912,6.343912 94.4011074,6.490072 94.4011074,6.666392 C94.4011074,6.821832 94.5066443,6.937832 94.7153728,7.021352 C94.9264466,7.107192 95.1844256,7.193032 95.4963458,7.281192 C95.8082659,7.369352 96.1436387,7.473752 96.5118452,7.592072 C96.8753612,7.708072 97.2154245,7.865832 97.5226541,8.063032 C97.8345742,8.257912 98.0972438,8.515432 98.3036271,8.833272 C98.5147009,9.151112 98.6178925,9.554792 98.6178925,10.039672 C98.6178925,10.371432 98.5451893,10.693912 98.3904019,10.997832 C98.2449955,11.306392 98.0268859,11.580152 97.7384184,11.826072 C97.4522962,12.065032 97.1028518,12.257592 96.6900853,12.401432 C96.2773188,12.542952 95.8129565,12.614872 95.2993436,12.614872 C94.175962,12.614872 93.3269764,12.371272 92.7594224,11.884072 C92.1918685,11.401512 91.8424241,10.756552 91.7110893,9.951512 L94.0422819,9.775192 Z" id="Fill-4" fill="#012169"></path>
                <path d="M100.773425,6.490072 L99.5163632,6.490072 L99.5163632,4.448472 L100.140204,4.448472 C100.803913,4.448472 101.129905,4.121352 101.129905,3.471752 L101.129905,2.318712 L103.193738,2.318712 L103.193738,4.269832 L104.90109,4.269832 L104.90109,6.490072 L103.193738,6.490072 L103.193738,9.151112 C103.193738,9.508392 103.296929,9.789112 103.498622,9.995592 C103.70266,10.202072 103.960639,10.306472 104.270214,10.306472 C104.36637,10.306472 104.450799,10.304152 104.523502,10.297192 C104.59386,10.292552 104.659528,10.283272 104.720505,10.271672 C104.779136,10.260072 104.837768,10.241512 104.90109,10.218312 L104.90109,12.348072 C104.804934,12.385192 104.697052,12.413032 104.577443,12.436232 C104.338227,12.496552 104.05445,12.526712 103.733148,12.526712 C102.788007,12.526712 102.05863,12.266872 101.542672,11.754152 C101.029059,11.239112 100.773425,10.489752 100.773425,9.508392 L100.773425,6.490072 Z" id="Fill-6" fill="#012169"></path>
                <path d="M106.604455,2.05168 C106.604455,1.69672 106.740481,1.38584 107.007841,1.12136 C107.277546,0.85456 107.591812,0.72 107.950637,0.72 C108.309462,0.72 108.621383,0.85456 108.893433,1.12136 C109.160793,1.38584 109.292128,1.69672 109.292128,2.05168 C109.292128,2.40664 109.160793,2.71752 108.893433,2.98432 C108.621383,3.25112 108.309462,3.38336 107.950637,3.38336 C107.591812,3.38336 107.277546,3.25112 107.007841,2.98432 C106.740481,2.71752 106.604455,2.40664 106.604455,2.05168 Z M106.693575,12.436 L109.116233,12.436 L109.116233,4.2696 L106.693575,4.2696 L106.693575,12.436 Z" id="Fill-8" fill="#012169"></path>
                <path d="M111.808128,6.490072 L110.553411,6.490072 L110.553411,4.448472 L111.179597,4.448472 C111.838616,4.448472 112.166953,4.121352 112.166953,3.471752 L112.166953,2.318712 L114.230786,2.318712 L114.230786,4.269832 L115.935793,4.269832 L115.935793,6.490072 L114.230786,6.490072 L114.230786,9.151112 C114.230786,9.508392 114.331632,9.789112 114.53567,9.995592 C114.739708,10.202072 114.995342,10.306472 115.307262,10.306472 C115.403418,10.306472 115.485502,10.304152 115.56055,10.297192 C115.630908,10.292552 115.696576,10.283272 115.757553,10.271672 C115.816184,10.260072 115.874816,10.241512 115.935793,10.218312 L115.935793,12.348072 C115.839637,12.385192 115.731755,12.413032 115.612146,12.436232 C115.375275,12.496552 115.091498,12.526712 114.770196,12.526712 C113.82271,12.526712 113.095678,12.266872 112.57972,11.754152 C112.063761,11.239112 111.808128,10.489752 111.808128,9.508392 L111.808128,6.490072 Z" id="Fill-11" fill="#012169"></path>
                <path d="M120.781343,12.525784 C120.288838,12.525784 119.843237,12.444584 119.435162,12.284504 C119.027086,12.126744 118.679986,11.894744 118.386828,11.593144 C118.09367,11.291544 117.863834,10.927304 117.704357,10.500424 C117.540188,10.075864 117.460449,9.595624 117.460449,9.064344 L117.460449,4.271224 L119.883107,4.271224 L119.883107,8.618904 C119.883107,9.152504 120.023823,9.567784 120.305255,9.862424 C120.586686,10.159384 120.952547,10.305544 121.409874,10.305544 C121.86251,10.305544 122.230717,10.159384 122.512148,9.862424 C122.791235,9.567784 122.934296,9.152504 122.934296,8.618904 L122.934296,4.271224 L125.356954,4.271224 L125.356954,12.435304 L123.562827,12.435304 L123.201656,11.637224 C122.999963,11.804264 122.772473,11.950424 122.521529,12.082664 C122.305765,12.200984 122.052476,12.303064 121.759318,12.391224 C121.46616,12.481704 121.137823,12.525784 120.781343,12.525784" id="Fill-13" fill="#012169"></path>
                <path d="M127.869904,6.490072 L126.612843,6.490072 L126.612843,4.448472 L127.239028,4.448472 C127.898048,4.448472 128.226385,4.121352 128.226385,3.471752 L128.226385,2.318712 L130.290217,2.318712 L130.290217,4.269832 L131.997569,4.269832 L131.997569,6.490072 L130.290217,6.490072 L130.290217,9.151112 C130.290217,9.508392 130.393409,9.789112 130.595101,9.995592 C130.799139,10.202072 131.054773,10.306472 131.366693,10.306472 C131.462849,10.306472 131.547279,10.304152 131.619982,10.297192 C131.69034,10.292552 131.756007,10.283272 131.816984,10.271672 C131.875616,10.260072 131.934247,10.241512 131.997569,10.218312 L131.997569,12.348072 C131.901414,12.385192 131.793531,12.413032 131.673923,12.436232 C131.434706,12.496552 131.150929,12.526712 130.829628,12.526712 C129.884486,12.526712 129.155109,12.266872 128.639151,11.754152 C128.125538,11.239112 127.869904,10.489752 127.869904,9.508392 L127.869904,6.490072 Z" id="Fill-15" fill="#012169"></path>
                <path d="M81.2120448,27.90924 C80.698432,27.90924 80.2082717,27.80484 79.7415642,27.59836 C79.2748566,27.39188 78.8644353,27.10188 78.5126457,26.72836 C78.1585108,26.35484 77.8770791,25.91636 77.6683506,25.40828 C77.459622,24.89788 77.3517399,24.3434 77.3517399,23.73788 C77.3517399,23.13236 77.459622,22.57788 77.6683506,22.06748 C77.8770791,21.56172 78.1585108,21.1186 78.5126457,20.7474 C78.8644353,20.3762 79.2748566,20.0862 79.7415642,19.8774 C80.2082717,19.6686 80.698432,19.5642 81.2120448,19.5642 C81.523965,19.5642 81.807742,19.60364 82.065721,19.67324 C82.3237001,19.74284 82.5394644,19.82868 82.722395,19.9238 C82.9358141,20.03052 83.1187447,20.1442 83.2758774,20.27412 L83.2758774,16.63868 L85.6985353,16.63868 L85.6985353,27.82108 L83.9020629,27.82108 L83.5455828,27.02068 C83.3532711,27.1854 83.1445426,27.3362 82.9193972,27.46844 C82.7153592,27.58212 82.4691065,27.68652 82.180639,27.77468 C81.8945167,27.86516 81.5708703,27.90924 81.2120448,27.90924 M79.7790884,23.73788 C79.7790884,24.31788 79.9502927,24.78652 80.2973918,25.15076 C80.6444909,25.51268 81.0666385,25.689 81.5708703,25.689 C82.0751021,25.689 82.4995949,25.51268 82.8443488,25.15076 C83.1937931,24.78652 83.3673427,24.31788 83.3673427,23.73788 C83.3673427,23.15788 83.1937931,22.68692 82.8443488,22.32732 C82.4995949,21.9654 82.0751021,21.78444 81.5708703,21.78444 C81.0666385,21.78444 80.6444909,21.9654 80.2973918,22.32732 C79.9502927,22.68692 79.7790884,23.15788 79.7790884,23.73788" id="Fill-17" fill="#012169"></path>
                <path d="M95.120869,25.426144 C95.0129868,25.757904 94.8511636,26.073424 94.6353993,26.381984 C94.419635,26.692864 94.1522748,26.968944 93.8262831,27.210224 C93.5049819,27.453824 93.1273944,27.646384 92.7075921,27.787904 C92.280754,27.927104 91.7999748,27.996704 91.260564,27.996704 C90.7000459,27.996704 90.1700162,27.889984 89.6751654,27.671904 C89.1779694,27.453824 88.739405,27.147584 88.3641627,26.764784 C87.9865751,26.379664 87.6887266,25.931904 87.4659265,25.414544 C87.2454716,24.899504 87.1352442,24.340384 87.1352442,23.737184 C87.1352442,23.136304 87.2454716,22.574864 87.4659265,22.062144 C87.6887266,21.544784 87.9889204,21.097024 88.3735437,20.711904 C88.7558218,20.329104 89.201422,20.025184 89.7056538,19.804784 C90.2169214,19.586704 90.7657133,19.479984 91.3520293,19.479984 C91.9148928,19.479984 92.4402319,19.577424 92.9303922,19.779264 C93.4205524,19.978784 93.8497358,20.266464 94.2132517,20.639984 C94.5791129,21.015824 94.8675804,21.463584 95.0716184,21.990224 C95.2826922,22.516864 95.3882291,23.099184 95.3882291,23.737184 C95.3882291,23.832304 95.3811933,23.927424 95.3671217,24.015584 C95.3600859,24.103744 95.3483596,24.189584 95.3366333,24.270784 C95.3225617,24.365904 95.3108354,24.456384 95.2991091,24.535264 L89.6470222,24.535264 C89.7431781,24.846144 89.9354897,25.129184 90.230993,25.386704 C90.5218058,25.651184 90.8970481,25.778784 91.3520293,25.778784 C91.5771747,25.778784 91.7718316,25.755584 91.9360001,25.699904 C92.0954781,25.648864 92.2244676,25.583904 92.3206235,25.511984 C92.4402319,25.444704 92.5316972,25.354224 92.609091,25.247504 L95.120869,25.426144 Z M91.3520293,21.697904 C90.8970481,21.697904 90.5218058,21.827824 90.230993,22.094624 C89.9354897,22.363744 89.7431781,22.672304 89.6470222,23.029584 L93.0570364,23.029584 C92.9608806,22.672304 92.7662237,22.363744 92.4730656,22.094624 C92.1799076,21.827824 91.8070106,21.697904 91.3520293,21.697904 Z" id="Fill-19" fill="#012169"></path>
                <path d="M105.617334,25.426144 C106.33733,25.426144 106.900193,25.256784 107.315305,24.918064 C107.725726,24.581664 108.000122,24.189584 108.129112,23.737184 L110.821475,23.918144 C110.69014,24.447104 110.474376,24.957504 110.174182,25.444704 C109.873988,25.929584 109.505782,26.349504 109.062527,26.713744 C108.619272,27.073344 108.108004,27.363344 107.526379,27.583744 C106.947098,27.799504 106.311532,27.908544 105.617334,27.908544 C104.852777,27.908544 104.130436,27.767024 103.455,27.477024 C102.779564,27.187024 102.190903,26.783344 101.686671,26.265984 C101.184784,25.755584 100.783744,25.154704 100.490586,24.467984 C100.197428,23.781264 100.054367,23.036544 100.054367,22.229184 C100.054367,21.435744 100.197428,20.695664 100.490586,20.001984 C100.783744,19.308304 101.184784,18.707424 101.686671,18.192384 C102.190903,17.675024 102.779564,17.273664 103.455,16.981344 C104.130436,16.693664 104.852777,16.549824 105.617334,16.549824 C106.288079,16.549824 106.907229,16.658864 107.474783,16.876944 C108.042337,17.095024 108.546569,17.385024 108.982788,17.744624 C109.419007,18.108864 109.784868,18.531104 110.085062,19.015984 C110.385256,19.500864 110.60102,20.011264 110.732355,20.544864 L108.039992,20.721184 C107.969634,20.496144 107.866442,20.282704 107.735107,20.080864 C107.603772,19.879024 107.432568,19.702704 107.22853,19.549584 C107.029183,19.394144 106.792311,19.273504 106.524951,19.178384 C106.2529,19.083264 105.952706,19.032224 105.617334,19.032224 C105.211603,19.032224 104.82698,19.113424 104.470499,19.275824 C104.106983,19.433584 103.797409,19.656304 103.525358,19.941664 C103.257998,20.224704 103.044579,20.558784 102.889791,20.950864 C102.735004,21.340624 102.655265,21.769824 102.655265,22.229184 C102.655265,22.688544 102.735004,23.117744 102.889791,23.507504 C103.044579,23.899584 103.257998,24.233664 103.525358,24.519024 C103.797409,24.802064 104.106983,25.024784 104.470499,25.184864 C104.82698,25.344944 105.211603,25.426144 105.617334,25.426144" id="Fill-21" fill="#012169"></path>
                <path d="M112.078302,17.437688 C112.078302,17.082728 112.211982,16.771848 112.481688,16.505048 C112.751393,16.238248 113.065658,16.106008 113.422139,16.106008 C113.783309,16.106008 114.095229,16.238248 114.36728,16.505048 C114.63464,16.771848 114.765975,17.082728 114.765975,17.437688 C114.765975,17.790328 114.63464,18.101208 114.36728,18.368008 C114.095229,18.637128 113.783309,18.767048 113.422139,18.767048 C113.065658,18.767048 112.751393,18.637128 112.481688,18.368008 C112.211982,18.101208 112.078302,17.790328 112.078302,17.437688 Z M112.167422,27.822008 L114.59008,27.822008 L114.59008,19.653288 L112.167422,19.653288 L112.167422,27.822008 Z" id="Fill-23" fill="#012169"></path>
                <path d="M124.191592,25.426144 C124.08371,25.757904 123.921887,26.073424 123.706122,26.381984 C123.490358,26.692864 123.220653,26.968944 122.897006,27.210224 C122.57805,27.453824 122.200463,27.646384 121.778315,27.787904 C121.351477,27.927104 120.870698,27.996704 120.331287,27.996704 C119.768424,27.996704 119.240739,27.889984 118.745888,27.671904 C118.248692,27.453824 117.810128,27.147584 117.434886,26.764784 C117.057298,26.379664 116.757104,25.931904 116.536649,25.414544 C116.316195,24.899504 116.205967,24.340384 116.205967,23.737184 C116.205967,23.136304 116.316195,22.574864 116.536649,22.062144 C116.757104,21.544784 117.059643,21.097024 117.444267,20.711904 C117.826545,20.329104 118.272145,20.025184 118.778722,19.804784 C119.287644,19.586704 119.836436,19.479984 120.422752,19.479984 C120.985616,19.479984 121.50861,19.577424 122.001115,19.779264 C122.491275,19.978784 122.918113,20.266464 123.283975,20.639984 C123.649836,21.015824 123.935958,21.463584 124.144687,21.990224 C124.353415,22.516864 124.458952,23.099184 124.458952,23.737184 C124.458952,23.832304 124.451916,23.927424 124.44019,24.015584 C124.433154,24.103744 124.419083,24.189584 124.407356,24.270784 C124.393285,24.365904 124.381558,24.456384 124.369832,24.535264 L118.717745,24.535264 C118.811556,24.846144 119.006213,25.129184 119.299371,25.386704 C119.592529,25.651184 119.967771,25.778784 120.422752,25.778784 C120.647898,25.778784 120.842555,25.755584 121.006723,25.699904 C121.166201,25.648864 121.295191,25.583904 121.391346,25.511984 C121.50861,25.444704 121.604765,25.354224 121.679814,25.247504 L124.191592,25.426144 Z M121.407763,18.591424 L119.524516,18.591424 L117.819509,16.283024 L120.242167,16.283024 L121.407763,18.591424 Z M120.422752,21.697904 C119.967771,21.697904 119.592529,21.827824 119.299371,22.094624 C119.006213,22.363744 118.811556,22.672304 118.717745,23.029584 L122.125414,23.029584 C122.031604,22.672304 121.836947,22.363744 121.543789,22.094624 C121.250631,21.827824 120.877734,21.697904 120.422752,21.697904 Z" id="Fill-25" fill="#012169"></path>
                <path d="M130.382386,19.567216 C130.872546,19.567216 131.320492,19.646096 131.726222,19.808496 C132.134298,19.966256 132.483743,20.195936 132.776901,20.497536 C133.070059,20.799136 133.297549,21.163376 133.459373,21.590256 C133.621196,22.017136 133.700935,22.497376 133.700935,23.026336 L133.700935,27.821776 L131.278277,27.821776 L131.278277,23.474096 C131.278277,22.938176 131.137561,22.522896 130.856129,22.228256 C130.574698,21.935936 130.208836,21.787456 129.749165,21.787456 C129.298874,21.787456 128.930667,21.935936 128.651581,22.228256 C128.370149,22.522896 128.227088,22.938176 128.227088,23.474096 L128.227088,27.821776 L125.806775,27.821776 L125.806775,19.655376 L127.598557,19.655376 L127.959728,20.455776 C128.149694,20.291056 128.372495,20.140256 128.623438,20.008016 C128.839202,19.905936 129.094836,19.806176 129.39503,19.711056 C129.692878,19.615936 130.023561,19.567216 130.382386,19.567216" id="Fill-27" fill="#012169"></path>
                <path d="M139.264136,19.479056 C139.669867,19.479056 140.040419,19.523136 140.378137,19.613616 C140.711164,19.701776 141.011358,19.820096 141.274028,19.975536 C141.536697,20.128656 141.766533,20.300336 141.963535,20.490576 C142.160538,20.680816 142.334087,20.875696 142.474803,21.075216 C142.812521,21.550816 143.056428,22.082096 143.213561,22.673696 L140.788558,22.850016 C140.704128,22.636576 140.596246,22.446336 140.467257,22.283936 C140.347648,22.140096 140.18817,22.007856 139.991168,21.882576 C139.794166,21.757296 139.550258,21.696976 139.264136,21.696976 C138.76225,21.696976 138.335412,21.880256 137.990658,22.246816 C137.643559,22.615696 137.467664,23.109856 137.467664,23.738576 C137.467664,24.364976 137.643559,24.861456 137.990658,25.230336 C138.335412,25.596896 138.76225,25.780176 139.264136,25.780176 C139.550258,25.780176 139.794166,25.719856 139.991168,25.603856 C140.18817,25.485536 140.347648,25.353296 140.467257,25.214096 C140.596246,25.044736 140.704128,24.849856 140.788558,24.627136 L143.213561,24.803456 C143.056428,25.397376 142.812521,25.926336 142.474803,26.399616 C142.334087,26.601456 142.160538,26.796336 141.963535,26.986576 C141.766533,27.174496 141.536697,27.348496 141.274028,27.501616 C141.011358,27.654736 140.711164,27.775376 140.378137,27.865856 C140.040419,27.954016 139.669867,28.000416 139.264136,28.000416 C138.67782,28.000416 138.131374,27.889056 137.622451,27.668656 C137.113529,27.452896 136.667929,27.151296 136.283305,26.766176 C135.901027,26.383376 135.600833,25.928656 135.380379,25.418256 C135.157578,24.903216 135.047351,24.344096 135.047351,23.738576 C135.047351,23.133056 135.157578,22.576256 135.380379,22.058896 C135.600833,21.548496 135.901027,21.096096 136.283305,20.710976 C136.667929,20.325856 137.113529,20.024256 137.622451,19.808496 C138.131374,19.588096 138.67782,19.479056 139.264136,19.479056" id="Fill-29" fill="#012169"></path>
                <path d="M144.556929,17.437688 C144.556929,17.082728 144.692954,16.771848 144.962659,16.505048 C145.230019,16.238248 145.544285,16.106008 145.90311,16.106008 C146.264281,16.106008 146.576201,16.238248 146.845906,16.505048 C147.115612,16.771848 147.246947,17.082728 147.246947,17.437688 C147.246947,17.790328 147.115612,18.101208 146.845906,18.368008 C146.576201,18.637128 146.264281,18.767048 145.90311,18.767048 C145.544285,18.767048 145.230019,18.637128 144.962659,18.368008 C144.692954,18.101208 144.556929,17.790328 144.556929,17.437688 Z M144.646049,27.822008 L147.068707,27.822008 L147.068707,19.653288 L144.646049,19.653288 L144.646049,27.822008 Z" id="Fill-31" fill="#012169"></path>
                <path d="M156.670453,25.426144 C156.562571,25.757904 156.400748,26.073424 156.184983,26.381984 C155.969219,26.692864 155.701859,26.968944 155.378212,27.210224 C155.056911,27.453824 154.681669,27.646384 154.257176,27.787904 C153.832683,27.927104 153.351904,27.996704 152.810148,27.996704 C152.24963,27.996704 151.721945,27.889984 151.224749,27.671904 C150.727553,27.453824 150.291334,27.147584 149.913747,26.764784 C149.536159,26.379664 149.238311,25.931904 149.01551,25.414544 C148.797401,24.899504 148.684828,24.340384 148.684828,23.737184 C148.684828,23.136304 148.797401,22.574864 149.01551,22.062144 C149.238311,21.544784 149.54085,21.097024 149.923128,20.711904 C150.305406,20.329104 150.753351,20.025184 151.259928,19.804784 C151.768851,19.586704 152.317642,19.479984 152.903959,19.479984 C153.464477,19.479984 153.989816,19.577424 154.479976,19.779264 C154.970136,19.978784 155.39932,20.266464 155.762836,20.639984 C156.131042,21.015824 156.417164,21.463584 156.623548,21.990224 C156.834621,22.516864 156.940158,23.099184 156.940158,23.737184 C156.940158,23.832304 156.933122,23.927424 156.921396,24.015584 C156.90967,24.103744 156.897944,24.189584 156.886217,24.270784 C156.874491,24.365904 156.860419,24.456384 156.848693,24.535264 L151.196606,24.535264 C151.292762,24.846144 151.487419,25.129184 151.780577,25.386704 C152.073735,25.651184 152.446632,25.778784 152.903959,25.778784 C153.129104,25.778784 153.323761,25.755584 153.485584,25.699904 C153.647407,25.648864 153.776397,25.583904 153.872553,25.511984 C153.989816,25.444704 154.085972,25.354224 154.158675,25.247504 L156.670453,25.426144 Z M152.903959,21.697904 C152.446632,21.697904 152.073735,21.827824 151.780577,22.094624 C151.487419,22.363744 151.292762,22.672304 151.196606,23.029584 L154.60662,23.029584 C154.510465,22.672304 154.315808,22.363744 154.02265,22.094624 C153.729492,21.827824 153.356595,21.697904 152.903959,21.697904 Z" id="Fill-33" fill="#012169"></path>
                <path d="M160.259176,25.15888 C160.308427,25.43032 160.420999,25.64608 160.601585,25.80616 C160.779825,25.96624 161.023732,26.04512 161.335653,26.04512 C161.647573,26.04512 161.889135,25.9732 162.062684,25.82472 C162.236234,25.67624 162.323009,25.51384 162.323009,25.3352 C162.323009,25.19368 162.217472,25.07768 162.008743,24.98952 C161.800015,24.90136 161.539691,24.8132 161.22777,24.72504 C160.91585,24.63456 160.580477,24.53016 160.212271,24.41184 C159.848755,24.29352 159.513382,24.13808 159.201462,23.9432 C158.889542,23.74832 158.629218,23.4908 158.420489,23.17064 C158.211761,22.85048 158.106224,22.44912 158.106224,21.96424 C158.106224,21.63248 158.176582,21.31464 158.321988,21.01304 C158.462704,20.71144 158.671432,20.44928 158.941138,20.22424 C159.210843,19.9992 159.536835,19.81824 159.926149,19.68368 C160.315463,19.5468 160.756372,19.4772 161.246532,19.4772 C162.323009,19.4772 163.141506,19.71384 163.704369,20.18712 C164.267233,20.66272 164.611987,21.252 164.745667,21.96424 L162.412129,22.14056 C162.362878,21.96424 162.259687,21.80184 162.088482,21.65336 C161.921969,21.50488 161.699168,21.43064 161.424773,21.43064 C161.150377,21.43064 160.946339,21.48864 160.815004,21.60928 C160.683669,21.7276 160.618002,21.87376 160.618002,22.0524 C160.618002,22.20552 160.721193,22.32384 160.932267,22.40736 C161.140996,22.49088 161.40132,22.57672 161.71324,22.66488 C162.022815,22.75304 162.360533,22.85744 162.726394,22.97576 C163.092255,23.09408 163.432319,23.24952 163.739548,23.44672 C164.051469,23.6416 164.311793,23.89912 164.520521,24.21696 C164.72925,24.53712 164.834787,24.9408 164.834787,25.42568 C164.834787,25.75512 164.759738,26.07528 164.609641,26.38384 C164.46189,26.6924 164.241435,26.96616 163.955313,27.20976 C163.66919,27.45104 163.319746,27.6436 162.90698,27.78512 C162.491868,27.92664 162.029851,27.99856 161.513893,27.99856 C160.390511,27.99856 159.543871,27.75728 158.976317,27.27008 C158.408763,26.7852 158.059318,26.14024 157.925638,25.3352 L160.259176,25.15888 Z" id="Fill-35" fill="#012169"></path>
                <path d="M81.2120448,43.295248 C80.698432,43.295248 80.2082717,43.193168 79.7415642,42.984368 C79.2748566,42.777888 78.8644353,42.487888 78.5126457,42.114368 C78.1585108,41.743168 77.8770791,41.302368 77.6683506,40.791968 C77.459622,40.283888 77.3517399,39.727088 77.3517399,39.123888 C77.3517399,38.518368 77.459622,37.963888 77.6683506,37.453488 C77.8770791,36.945408 78.1585108,36.504608 78.5126457,36.133408 C78.8644353,35.759888 79.2748566,35.469888 79.7415642,35.263408 C80.2082717,35.054608 80.698432,34.952528 81.2120448,34.952528 C81.523965,34.952528 81.807742,34.987328 82.065721,35.059248 C82.3237001,35.128848 82.5394644,35.212368 82.722395,35.307488 C82.9358141,35.414208 83.1187447,35.532528 83.2758774,35.662448 L83.2758774,32.022368 L85.6985353,32.022368 L85.6985353,43.204768 L83.9020629,43.204768 L83.5455828,42.406688 C83.3532711,42.573728 83.1445426,42.719888 82.9193972,42.852128 C82.7153592,42.970448 82.4691065,43.072528 82.180639,43.160688 C81.8945167,43.251168 81.5708703,43.295248 81.2120448,43.295248 M79.7790884,39.123888 C79.7790884,39.703888 79.9502927,40.172528 80.2973918,40.534448 C80.6444909,40.896368 81.0666385,41.075008 81.5708703,41.075008 C82.0751021,41.075008 82.4995949,40.896368 82.8443488,40.534448 C83.1937931,40.172528 83.3673427,39.703888 83.3673427,39.123888 C83.3673427,38.543888 83.1937931,38.072928 82.8443488,37.711008 C82.4995949,37.351408 82.0751021,37.170448 81.5708703,37.170448 C81.0666385,37.170448 80.6444909,37.351408 80.2973918,37.711008 C79.9502927,38.072928 79.7790884,38.543888 79.7790884,39.123888" id="Fill-38" fill="#012169"></path>
                <path d="M95.120869,40.809832 C95.0129868,41.141592 94.8511636,41.461752 94.6353993,41.767992 C94.419635,42.076552 94.1522748,42.352632 93.8262831,42.593912 C93.5049819,42.837512 93.1273944,43.030072 92.7075921,43.171592 C92.280754,43.313112 91.7999748,43.382712 91.260564,43.382712 C90.7000459,43.382712 90.1700162,43.273672 89.6751654,43.055592 C89.1779694,42.837512 88.739405,42.535912 88.3641627,42.150792 C87.9865751,41.765672 87.6887266,41.315592 87.4659265,40.800552 C87.2454716,40.285512 87.1352442,39.726392 87.1352442,39.123192 C87.1352442,38.519992 87.2454716,37.960872 87.4659265,37.445832 C87.6887266,36.930792 87.9889204,36.480712 88.3735437,36.095592 C88.7558218,35.712792 89.201422,35.411192 89.7056538,35.190792 C90.2169214,34.972712 90.7657133,34.863672 91.3520293,34.863672 C91.9148928,34.863672 92.4402319,34.963432 92.9303922,35.165272 C93.4205524,35.364792 93.8497358,35.652472 94.2132517,36.025992 C94.5791129,36.399512 94.8675804,36.847272 95.0716184,37.376232 C95.2826922,37.902872 95.3882291,38.485192 95.3882291,39.123192 C95.3882291,39.218312 95.3811933,39.311112 95.3671217,39.399272 C95.3600859,39.487432 95.3483596,39.573272 95.3366333,39.654472 C95.3225617,39.749592 95.3108354,39.840072 95.2991091,39.921272 L89.6470222,39.921272 C89.7431781,40.229832 89.9354897,40.515192 90.230993,40.772712 C90.5218058,41.034872 90.8970481,41.164792 91.3520293,41.164792 C91.5771747,41.164792 91.7718316,41.139272 91.9360001,41.085912 C92.0954781,41.032552 92.2244676,40.969912 92.3206235,40.897992 C92.4402319,40.828392 92.5316972,40.737912 92.609091,40.631192 L95.120869,40.809832 Z M91.3520293,37.081592 C90.8970481,37.081592 90.5218058,37.216152 90.230993,37.480632 C89.9354897,37.747432 89.7431781,38.058312 89.6470222,38.413272 L93.0570364,38.413272 C92.9608806,38.058312 92.7662237,37.747432 92.4730656,37.480632 C92.1799076,37.216152 91.8070106,37.081592 91.3520293,37.081592 Z" id="Fill-40" fill="#012169"></path>
                <polygon id="Fill-43" fill="#012169" points="96.7351144 43.206392 99.1577723 43.206392 99.1577723 32.023992 96.7351144 32.023992"></polygon>
                <polygon id="Fill-44" fill="#012169" points="114.948671 32.021904 111.268951 39.921504 107.591577 32.021904 105.258039 32.021904 105.258039 43.204304 107.858937 43.204304 107.858937 37.613104 110.462181 43.204304 112.078068 43.204304 114.681311 37.613104 114.681311 43.204304 117.279864 43.204304 117.279864 32.021904"></polygon>
                <path d="M122.844941,34.862512 C123.335101,34.862512 123.787737,34.943712 124.20754,35.110752 C124.627342,35.277792 124.988513,35.509792 125.293397,35.811392 C125.598281,36.112992 125.832808,36.470272 126.004012,36.885552 C126.170526,37.303152 126.25261,37.748592 126.25261,38.235792 L126.25261,43.207552 L124.456138,43.207552 L124.099658,42.407152 C123.89562,42.571872 123.670474,42.722672 123.417186,42.850272 C123.201421,42.968592 122.948133,43.072992 122.654975,43.161152 C122.361817,43.249312 122.035825,43.295712 121.677,43.295712 C120.781109,43.295712 120.091601,43.077632 119.613167,42.646112 C119.134733,42.214592 118.893171,41.662432 118.893171,40.989632 C118.893171,40.585952 118.9776,40.217072 119.139424,39.876032 C119.298902,39.541952 119.570952,39.251952 119.955576,39.008352 C120.337854,38.767072 120.842086,38.576832 121.470616,38.442272 C122.101492,38.303072 122.887156,38.235792 123.832297,38.235792 C123.832297,37.832112 123.729106,37.523552 123.525068,37.314752 C123.323375,37.101312 123.065396,36.994592 122.755821,36.994592 C122.525985,36.994592 122.3454,37.036352 122.209375,37.126832 C122.068659,37.217312 121.958431,37.307792 121.876347,37.402912 C121.780191,37.521232 121.714524,37.648832 121.677,37.792672 L119.256687,37.616352 C119.327045,37.212672 119.453689,36.843792 119.631929,36.505072 C119.812515,36.166352 120.049386,35.876352 120.342544,35.635072 C120.635702,35.393792 120.989837,35.201232 121.409639,35.068992 C121.824751,34.929792 122.307876,34.862512 122.844941,34.862512 M122.307876,41.518592 C122.760512,41.518592 123.128718,41.381712 123.41015,41.100992 C123.689236,40.822592 123.832297,40.460672 123.832297,40.012912 L123.832297,39.653312 C123.316339,39.653312 122.894192,39.681152 122.565855,39.736832 C122.237518,39.787872 121.979539,39.862112 121.794263,39.957232 C121.608987,40.050032 121.482343,40.163712 121.419021,40.295952 C121.351008,40.423552 121.320519,40.565072 121.320519,40.720512 C121.320519,40.945552 121.407294,41.133472 121.578499,41.291232 C121.752048,41.444352 121.995956,41.518592 122.307876,41.518592" id="Fill-45" fill="#012169"></path>
                <path d="M132.08622,34.953224 C132.194103,34.953224 132.292604,34.957864 132.381724,34.969464 C132.470844,34.983384 132.545892,34.994984 132.606869,35.004264 C132.677227,35.015864 132.742894,35.027464 132.803871,35.039064 L132.803871,37.523784 C132.731168,37.502904 132.646739,37.472744 132.550583,37.435624 C132.468499,37.414744 132.372343,37.393864 132.264461,37.375304 C132.156578,37.356744 132.03697,37.347464 131.905635,37.347464 C131.450654,37.347464 131.082447,37.498264 130.801016,37.792904 C130.521929,38.089864 130.378868,38.500504 130.378868,39.036424 L130.378868,43.207784 L127.958555,43.207784 L127.958555,35.039064 L129.752683,35.039064 L130.111508,35.929944 C130.254569,35.751304 130.428119,35.588904 130.632157,35.449704 C130.79867,35.317464 131.005054,35.201464 131.253652,35.101704 C131.495214,35.001944 131.7743,34.953224 132.08622,34.953224" id="Fill-47" fill="#012169"></path>
                <path d="M28.1548973,16.513168 C28.1619331,13.979728 30.1577529,11.926528 32.6859478,11.759488 L33.7999483,11.759488 L33.7999483,1.115328 L32.7750678,1.115328 L32.7469247,1.115328 L32.6366972,1.115328 C24.0928996,1.189568 17.1884417,8.045168 17.1720248,16.492288 L17.1673343,16.492288 L17.1673343,16.508528 L17.1673343,16.524768 L17.1720248,16.524768 C17.1884417,24.999728 24.0952449,31.869248 32.634352,31.929568 L33.7999483,31.929568 L33.7999483,21.285408 L32.6648404,21.285408 C30.1530624,21.113728 28.1619331,19.058208 28.1548973,16.522448 L28.1548973,16.515488 L28.1548973,16.513168 Z" id="Fill-49" fill="#10069F"></path>
                <path d="M52.2970474,16.492752 L52.2970474,1.115792 C43.6875824,1.115792 36.7104212,7.999232 36.6940044,16.492752 L36.6916591,16.492752 L36.6916591,31.927712 L52.2970474,31.927712 L67.8977452,31.927712 L67.8977452,16.550752 L67.8977452,16.492752 L67.8977452,1.115792 C59.2906254,1.115792 52.3181548,7.999232 52.2970474,16.492752" id="Fill-51" fill="#10069F"></path>
                <path d="M0.00257979067,16.479296 L0.000234526425,16.479296 L0.000234526425,31.930496 L14.737875,31.930496 L14.737875,1.116256 C6.53179545,1.566336 0.0213419046,8.271136 0.00257979067,16.479296" id="Fill-53" fill="#10069F"></path>
            </g>
        </g>
    </g>
</svg>