<?xml version="1.0" encoding="UTF-8"?>
<svg width="108px" height="44px" viewBox="0 0 108 44" version="1.1" xmlns="http://www.w3.org/2000/svg" xmlns:xlink="http://www.w3.org/1999/xlink">
    <!-- Generator: Sketch 52.6 (67491) - http://www.bohemiancoding.com/sketch -->
    <title>logo-so-color</title>
    <desc>Created with Sketch.</desc>
    <defs>
        <polygon id="path-1" points="0.0222 0.5464 4.2212 0.5464 4.2212 9 0.0222 9"></polygon>
        <polygon id="path-3" points="0 0 22.0449 0 22.0449 22 0 22"></polygon>
    </defs>
    <g id="Symbols" stroke="none" stroke-width="1" fill="none" fill-rule="evenodd">
        <g id="Header-Color-Shrink" transform="translate(-430.000000, -20.000000)">
            <g id="logo-so-color" transform="translate(430.000000, 20.000000)">
                <path d="M103.4271,6.0056 L99.9601,14.5616 L99.2661,14.5616 L99.2661,15.0666 L101.8131,15.0666 L101.8131,14.5616 L100.7071,14.5616 L101.6791,12.1656 L105.0941,12.1796 L106.0261,14.5746 L104.9601,14.5746 L104.9601,15.0666 L108.0001,15.0666 L108.0001,14.5616 L107.2401,14.5616 L103.9071,6.0056 L103.4271,6.0056 Z M103.4401,7.8016 L104.8671,11.5406 L101.9341,11.5406 L103.4401,7.8016 Z" id="Fill-1" fill="#231F20"></path>
                <path d="M70.1895,37.1665 L71.6965,33.4275 L73.1235,37.1665 L70.1895,37.1665 Z M75.4965,40.1875 L72.1625,31.6305 L71.6825,31.6305 L68.2155,40.1875 L67.5225,40.1875 L67.5225,40.6925 L70.0685,40.6925 L70.0685,40.1875 L68.9615,40.1875 L69.9355,37.7915 L73.3495,37.8055 L74.2825,40.2005 L73.2155,40.2005 L73.2155,40.6925 L76.2555,40.6925 L76.2555,40.1875 L75.4965,40.1875 Z" id="Fill-2" fill="#231F20"></path>
                <g id="Group-49">
                    <path d="M62.4824,40.1738 C60.7494,40.1738 59.4964,38.5498 59.4964,36.3008 C59.4964,34.0398 60.7494,32.4428 62.4964,32.4428 C64.1894,32.4428 65.4284,34.0658 65.4284,36.3008 C65.4284,38.5368 64.1894,40.1738 62.4824,40.1738 M62.4824,31.7508 C60.1224,31.7508 58.1754,33.8128 58.1754,36.3148 C58.1754,38.7898 60.1354,40.8658 62.4824,40.8658 C64.8014,40.8658 66.7494,38.7768 66.7494,36.3008 C66.7494,33.8268 64.8014,31.7508 62.4824,31.7508" id="Fill-3" fill="#231F20"></path>
                    <polygon id="Fill-5" fill="#231F20" points="56.6162 40.2002 55.6022 40.2002 55.6022 32.4022 56.6162 32.4022 56.6162 31.9102 53.4422 31.9102 53.4422 32.4022 54.4422 32.4022 54.4422 35.9422 49.4422 35.9422 49.4422 32.4022 50.4422 32.4022 50.4422 31.9102 47.2682 31.9102 47.2682 32.4022 48.2682 32.4022 48.2682 40.2002 47.2682 40.2002 47.2682 40.6932 50.4422 40.6932 50.4422 40.2002 49.4422 40.2002 49.4422 36.5412 54.4422 36.5412 54.4422 40.2002 53.4422 40.2002 53.4422 40.6932 56.6162 40.6932"></polygon>
                    <path d="M45.709,38.5371 L45.068,38.5371 L45.068,39.5081 C44.216,39.9881 43.669,40.1741 43.016,40.1741 C42.522,40.1741 41.989,40.0271 41.482,39.7611 C40.136,39.0561 39.469,37.8711 39.469,36.1821 C39.469,33.9991 40.869,32.4291 42.802,32.4291 C43.655,32.4291 44.256,32.6551 45.068,33.2541 L45.068,33.9061 L45.695,33.9061 L45.695,31.6441 L45.068,31.6441 L45.068,32.2431 C44.309,31.8831 43.643,31.7501 42.722,31.7501 C40.148,31.7501 38.148,33.7461 38.148,36.3141 C38.148,38.9501 40.148,40.8661 42.882,40.8661 C43.855,40.8661 44.603,40.7191 45.709,40.3071 L45.709,38.5371 Z" id="Fill-7" fill="#231F20"></path>
                    <path d="M62.4424,23.3437 L62.4424,19.7237 L63.6954,19.7237 C64.8154,19.7237 65.4424,20.3627 65.4424,21.5077 C65.4424,22.5987 64.7354,23.3437 63.7214,23.3437 L62.4424,23.3437 Z M67.4564,27.3887 C67.1224,27.3887 66.9094,27.2297 66.5884,26.7367 L64.6694,23.7827 C65.9494,23.5967 66.6694,22.7717 66.6694,21.4807 C66.6694,21.0547 66.5764,20.6557 66.4024,20.2967 C66.0024,19.4707 65.2694,19.1117 63.9754,19.1117 L60.2684,19.1117 L60.2684,19.6047 L61.2694,19.6047 L61.2694,27.4027 L60.2684,27.4027 L60.2684,27.8947 L63.4424,27.8947 L63.4424,27.4027 L62.4424,27.4027 L62.4424,23.9557 L63.4824,23.9557 L65.4694,27.1097 C65.9094,27.8147 66.0554,27.8947 66.8424,27.8947 L67.9754,27.8947 L67.9754,27.3887 L67.4564,27.3887 Z" id="Fill-9" fill="#231F20"></path>
                    <polygon id="Fill-11" fill="#231F20" points="58.5889 26.1245 57.9759 26.1245 57.9759 27.2955 54.6949 27.2955 54.6949 23.7295 57.2159 23.7295 57.2159 24.7535 57.8289 24.7405 57.8289 22.1195 57.2159 22.1325 57.2159 23.1305 54.6949 23.1305 54.6949 19.7245 57.8559 19.7245 57.8559 20.8555 58.4559 20.8555 58.4559 18.7395 57.8429 18.7395 57.8429 19.1115 52.5229 19.1115 52.5229 19.6045 53.5219 19.6045 53.5219 27.4015 52.5229 27.4015 52.5229 27.8945 58.5889 27.8945"></polygon>
                    <polygon id="Fill-13" fill="#231F20" points="50.8555 19.6045 51.5225 19.6045 51.5225 19.1115 49.2425 19.1115 49.2425 19.6045 50.1225 19.6045 47.5625 26.1385 44.9755 19.6045 46.2295 19.6045 46.2295 19.1115 42.9225 19.1115 42.9225 19.6045 43.7095 19.6045 47.0685 28.1205 47.5225 28.1205"></polygon>
                    <polygon id="Fill-15" fill="#231F20" points="42.0288 26.1245 41.4158 26.1245 41.4158 27.2955 38.1348 27.2955 38.1348 23.7295 40.6558 23.7295 40.6558 24.7535 41.2688 24.7405 41.2688 22.1195 40.6558 22.1325 40.6558 23.1305 38.1348 23.1305 38.1348 19.7245 41.2958 19.7245 41.2958 20.8555 41.8958 20.8555 41.8958 18.7395 41.2818 18.7395 41.2818 19.1115 35.9618 19.1115 35.9618 19.6045 36.9618 19.6045 36.9618 27.4015 35.9618 27.4015 35.9618 27.8945 42.0288 27.8945"></polygon>
                    <path d="M29.3623,27.4687 C30.0293,27.8937 30.5753,28.0677 31.4153,28.0677 C32.9223,28.0677 34.0693,27.0027 34.0693,25.6187 C34.0693,24.5277 33.5893,23.9427 31.9223,22.9847 C30.2553,22.0257 29.8683,21.6407 29.8683,20.9617 C29.8683,20.1367 30.4553,19.5907 31.3623,19.5907 C31.8953,19.5907 32.2293,19.7237 32.9083,20.1767 L32.9083,21.1217 L33.5223,21.1217 L33.5223,18.8457 L32.9083,18.8457 L32.9083,19.3247 C32.4823,19.0717 31.9883,18.9527 31.3223,18.9527 C29.8153,18.9527 28.6953,19.9367 28.6953,21.2547 C28.6953,22.3457 29.2683,23.0107 30.9483,23.8887 C32.3883,24.6347 32.9083,25.1937 32.9083,25.9517 C32.9083,26.7897 32.1893,27.3487 31.1223,27.3487 C30.5353,27.3487 30.1753,27.2157 29.3623,26.6707 L29.3623,25.6187 L28.7353,25.6187 L28.7353,28.0137 L29.3623,28.0137 L29.3623,27.4687 Z" id="Fill-17" fill="#231F20"></path>
                    <polygon id="Fill-19" fill="#231F20" points="98.376 14.604 97.376 14.604 97.376 6.806 98.376 6.806 98.376 6.314 95.202 6.314 95.202 6.806 96.202 6.806 96.202 14.604 95.202 14.604 95.202 15.096 98.376 15.096"></polygon>
                    <path d="M93.6426,12.9404 L93.0026,12.9404 L93.0026,13.9124 C92.1496,14.3914 91.6026,14.5774 90.9496,14.5774 C90.4556,14.5774 89.9226,14.4314 89.4156,14.1644 C88.0696,13.4594 87.4026,12.2754 87.4026,10.5854 C87.4026,8.4024 88.8026,6.8334 90.7366,6.8334 C91.5886,6.8334 92.1886,7.0594 93.0026,7.6574 L93.0026,8.3094 L93.6286,8.3094 L93.6286,6.0474 L93.0026,6.0474 L93.0026,6.6464 C92.2426,6.2874 91.5766,6.1544 90.6556,6.1544 C88.0816,6.1544 86.0826,8.1504 86.0826,10.7184 C86.0826,13.3534 88.0816,15.2694 90.8156,15.2694 C91.7886,15.2694 92.5366,15.1224 93.6426,14.7104 L93.6426,12.9404 Z" id="Fill-21" fill="#231F20"></path>
                    <polygon id="Fill-23" fill="#231F20" points="83.7354 6.8062 84.7354 6.8062 84.7354 6.3142 82.0554 6.3142 82.0554 6.8062 83.0694 6.8062 83.0694 12.9932 78.1884 6.3142 76.2564 6.3142 76.2564 6.8062 77.1754 6.8062 77.5364 7.3122 77.5364 14.6042 76.5224 14.6042 76.5224 15.0962 79.2154 15.0962 79.2154 14.6042 78.2034 14.6042 78.2034 8.2172 83.3224 15.2432 83.7354 15.2432"></polygon>
                    <polygon id="Fill-25" fill="#231F20" points="74.8027 13.3267 74.1887 13.3267 74.1887 14.4967 70.9087 14.4967 70.9087 10.9307 73.4287 10.9307 73.4287 11.9557 74.0417 11.9427 74.0417 9.3217 73.4287 9.3347 73.4287 10.3327 70.9087 10.3327 70.9087 6.9257 74.0697 6.9257 74.0697 8.0567 74.6687 8.0567 74.6687 5.9417 74.0557 5.9417 74.0557 6.3137 68.7357 6.3137 68.7357 6.8057 69.7357 6.8057 69.7357 14.6037 68.7357 14.6037 68.7357 15.0967 74.8027 15.0967"></polygon>
                    <polygon id="Fill-27" fill="#231F20" points="67.7227 13.3267 67.1097 13.3267 67.1097 14.4967 63.8287 14.4967 63.8287 6.8057 64.8287 6.8057 64.8287 6.3137 61.6557 6.3137 61.6557 6.8057 62.6557 6.8057 62.6557 14.6037 61.6557 14.6037 61.6557 15.0967 67.7227 15.0967"></polygon>
                    <polygon id="Fill-29" fill="#231F20" points="59.9756 13.3267 59.3626 13.3267 59.3626 14.4967 56.0816 14.4967 56.0816 10.9307 58.6026 10.9307 58.6026 11.9557 59.2156 11.9427 59.2156 9.3217 58.6026 9.3347 58.6026 10.3327 56.0816 10.3327 56.0816 6.9257 59.2426 6.9257 59.2426 8.0567 59.8426 8.0567 59.8426 5.9417 59.2286 5.9417 59.2286 6.3137 53.9096 6.3137 53.9096 6.8057 54.9086 6.8057 54.9086 14.6037 53.9096 14.6037 53.9096 15.0967 59.9756 15.0967"></polygon>
                    <path d="M52.3486,12.9404 L51.7086,12.9404 L51.7086,13.9124 C50.8556,14.3914 50.3086,14.5774 49.6556,14.5774 C49.1616,14.5774 48.6286,14.4314 48.1216,14.1644 C46.7756,13.4594 46.1086,12.2754 46.1086,10.5854 C46.1086,8.4024 47.5086,6.8334 49.4426,6.8334 C50.2956,6.8334 50.8956,7.0594 51.7086,7.6574 L51.7086,8.3094 L52.3346,8.3094 L52.3346,6.0474 L51.7086,6.0474 L51.7086,6.6464 C50.9496,6.2874 50.2826,6.1544 49.3626,6.1544 C46.7876,6.1544 44.7876,8.1504 44.7876,10.7184 C44.7876,13.3534 46.7876,15.2694 49.5216,15.2694 C50.4946,15.2694 51.2426,15.1224 52.3486,14.7104 L52.3486,12.9404 Z" id="Fill-31" fill="#231F20"></path>
                    <polygon id="Fill-33" fill="#231F20" points="44.0156 14.604 43.2156 14.604 40.2826 10.465 43.1096 6.806 43.8956 6.806 43.8956 6.314 40.9886 6.314 40.9886 6.806 42.2156 6.806 39.8556 9.854 37.7086 6.806 38.9626 6.806 38.9626 6.314 35.5756 6.314 35.5756 6.806 36.3356 6.806 39.1486 10.785 36.1756 14.604 35.4286 14.604 35.4286 15.096 38.3356 15.096 38.3356 14.604 37.0686 14.604 39.5616 11.384 41.8426 14.604 40.5896 14.604 40.5896 15.096 44.0156 15.096"></polygon>
                    <polygon id="Fill-35" fill="#231F20" points="34.5352 13.3267 33.9222 13.3267 33.9222 14.4967 30.6412 14.4967 30.6412 10.9307 33.1622 10.9307 33.1622 11.9557 33.7752 11.9427 33.7752 9.3217 33.1622 9.3347 33.1622 10.3327 30.6412 10.3327 30.6412 6.9257 33.8022 6.9257 33.8022 8.0567 34.4022 8.0567 34.4022 5.9417 33.7892 5.9417 33.7892 6.3137 28.4692 6.3137 28.4692 6.8057 29.4692 6.8057 29.4692 14.6037 28.4692 14.6037 28.4692 15.0967 34.5352 15.0967"></polygon>
                    <path d="M11.0225,22.0059 C11.0085,22.0059 10.9955,22.0039 10.9815,22.0039 C7.2355,22.0039 4.1995,25.0349 4.1995,28.7739 C4.1995,32.5119 7.2355,35.5429 10.9815,35.5429 C10.9955,35.5429 11.0085,35.5409 11.0225,35.5409 L11.0225,22.0059 Z" id="Fill-37" fill="#998C69"></path>
                    <g id="Group-41" transform="translate(11.000000, 35.000000)">
                        <mask id="mask-2" fill="white">
                            <use xlink:href="#path-1"></use>
                        </mask>
                        <g id="Clip-40"></g>
                        <path d="M4.2212,4.7734 C4.2212,2.4504 2.3452,0.5684 0.0222,0.5464 L0.0222,9.0004 C2.3452,8.9774 4.2212,7.0964 4.2212,4.7734" id="Fill-39" fill="#998C69" mask="url(#mask-2)"></path>
                    </g>
                    <g id="Group-44">
                        <mask id="mask-4" fill="white">
                            <use xlink:href="#path-3"></use>
                        </mask>
                        <g id="Clip-43"></g>
                        <path d="M22.0449,11 C22.0449,4.925 17.1099,0 11.0229,0 C4.9349,0 -0.0001,4.925 -0.0001,11 C-0.0001,17.075 4.9349,22 11.0229,22 C17.1099,22 22.0449,17.075 22.0449,11 M13.5659,11 C13.5659,12.402 12.4269,13.539 11.0229,13.539 C9.6179,13.539 8.4789,12.402 8.4789,11 C8.4789,9.598 9.6179,8.461 11.0229,8.461 C12.4269,8.461 13.5659,9.598 13.5659,11" id="Fill-42" fill="#998C69" mask="url(#mask-4)"></path>
                    </g>
                    <path d="M73.0693,27.3755 C71.3363,27.3755 70.0823,25.7515 70.0823,23.5025 C70.0823,21.2415 71.3363,19.6445 73.0833,19.6445 C74.7763,19.6445 76.0153,21.2675 76.0153,23.5025 C76.0153,25.7385 74.7763,27.3755 73.0693,27.3755 M73.0693,18.9525 C70.7093,18.9525 68.7623,21.0155 68.7623,23.5165 C68.7623,25.9915 70.7223,28.0675 73.0693,28.0675 C75.3883,28.0675 77.3363,25.9785 77.3363,23.5025 C77.3363,21.0285 75.3883,18.9525 73.0693,18.9525" id="Fill-45" fill="#231F20"></path>
                    <path d="M32.5488,40.1738 C30.8158,40.1738 29.5618,38.5498 29.5618,36.3008 C29.5618,34.0398 30.8158,32.4428 32.5618,32.4428 C34.2558,32.4428 35.4958,34.0658 35.4958,36.3008 C35.4958,38.5368 34.2558,40.1738 32.5488,40.1738 M32.5488,31.7508 C30.1888,31.7508 28.2418,33.8128 28.2418,36.3148 C28.2418,38.7898 30.2018,40.8658 32.5488,40.8658 C34.8688,40.8658 36.8158,38.7768 36.8158,36.3008 C36.8158,33.8268 34.8688,31.7508 32.5488,31.7508" id="Fill-47" fill="#231F20"></path>
                </g>
            </g>
        </g>
    </g>
</svg>