<svg class="main-svg" xmlns="http://www.w3.org/2000/svg" xmlns:xlink="http://www.w3.org/1999/xlink" width="2400" height="1950" style="" viewBox="0 0 800 650"><rect x="0" y="0" width="800" height="650" style="fill: rgb(255, 255, 255); fill-opacity: 1;"/><defs id="defs-99a1b2"><g class="clips"><clipPath id="clip99a1b2xyplot" class="plotclip"><rect width="711" height="572"/></clipPath><clipPath class="axesclip" id="clip99a1b2x"><rect x="89" y="0" width="711" height="650"/></clipPath><clipPath class="axesclip" id="clip99a1b2y"><rect x="0" y="0" width="800" height="572"/></clipPath><clipPath class="axesclip" id="clip99a1b2xy"><rect x="89" y="0" width="711" height="572"/></clipPath></g><g class="gradients"/><g class="patterns"/></defs><g class="bglayer"/><g class="layer-below"><g class="imagelayer"/><g class="shapelayer"/></g><g class="cartesianlayer"><g class="subplot xy"><g class="layer-subplot"><g class="shapelayer"/><g class="imagelayer"/></g><g class="minor-gridlayer"><g class="x"/><g class="y"/></g><g class="gridlayer"><g class="x"><path class="xgrid crisp" transform="translate(427.57,0)" d="M0,0v572" style="stroke: rgb(235, 240, 248); stroke-opacity: 1; stroke-width: 1px;"/><path class="xgrid crisp" transform="translate(766.14,0)" d="M0,0v572" style="stroke: rgb(235, 240, 248); stroke-opacity: 1; stroke-width: 1px;"/></g><g class="y"><path class="ygrid crisp" transform="translate(0,463.05)" d="M89,0h711" style="stroke: rgb(235, 240, 248); stroke-opacity: 1; stroke-width: 1px;"/><path class="ygrid crisp" transform="translate(0,354.1)" d="M89,0h711" style="stroke: rgb(235, 240, 248); stroke-opacity: 1; stroke-width: 1px;"/><path class="ygrid crisp" transform="translate(0,245.14)" d="M89,0h711" style="stroke: rgb(235, 240, 248); stroke-opacity: 1; stroke-width: 1px;"/><path class="ygrid crisp" transform="translate(0,136.19)" d="M89,0h711" style="stroke: rgb(235, 240, 248); stroke-opacity: 1; stroke-width: 1px;"/><path class="ygrid crisp" transform="translate(0,27.24)" d="M89,0h711" style="stroke: rgb(235, 240, 248); stroke-opacity: 1; stroke-width: 1px;"/></g></g><g class="zerolinelayer"><path class="xzl zl crisp" transform="translate(89,0)" d="M0,0v572" style="stroke: rgb(235, 240, 248); stroke-opacity: 1; stroke-width: 2px;"/><path class="yzl zl crisp" transform="translate(0,572)" d="M89,0h711" style="stroke: rgb(235, 240, 248); stroke-opacity: 1; stroke-width: 2px;"/></g><path class="xlines-below"/><path class="ylines-below"/><g class="overlines-below"/><g class="xaxislayer-below"/><g class="yaxislayer-below"/><g class="overaxes-below"/><g class="plot" transform="translate(89,0)" clip-path="url(#clip99a1b2xyplot)"><g class="scatterlayer mlayer"><g class="trace scatter trace856ae2" style="stroke-miterlimit: 2; opacity: 1;"><g class="fills"/><g class="errorbars"/><g class="lines"><path class="js-line" d="M0.01,572L166.96,572L170.36,566.33L173.75,564.06L177.15,557.25L180.55,544.76L183.94,544.76L187.33,539.09L190.72,528.87L194.11,526.6L197.5,507.31L200.9,505.04L204.29,493.69L214.46,463.05L217.86,455.1L224.65,442.62L228.04,427.87L231.44,425.6L234.83,402.9L238.22,385.87L241.63,374.52L245.07,357.5L248.46,349.56L251.86,331.4L255.24,308.7L262.03,262.17L265.41,240.6L268.81,228.12L272.2,209.96L275.59,186.13L278.99,174.78L282.38,156.62L285.77,147.54L292.61,120.3L296,104.41L299.39,96.47L302.78,80.58L306.18,78.31L309.58,79.44L316.38,72.63L319.78,60.15L323.18,53.34L326.57,51.07L329.97,49.94L333.36,46.53L336.75,41.99L340.14,46.53L343.54,47.67L346.93,46.53L357.1,46.53L360.5,44.26L363.88,46.53L367.28,44.26L370.67,41.99L374.06,41.99L377.45,40.86L380.84,38.59L387.62,38.59L391.01,32.91L394.41,31.78L397.81,31.78L401.2,30.64L404.59,30.64L411.38,30.64L414.78,28.37L418.17,28.37L421.56,27.24L428.35,29.51L431.79,29.51L435.18,29.51L438.57,31.78L455.53,31.78L458.92,32.91L469.09,32.91L472.48,36.32L475.87,35.18L479.27,35.18L489.44,35.18L492.83,37.45L496.23,40.86L499.62,40.86L506.4,40.86L509.8,41.99L513.19,41.99L516.57,43.13L519.97,43.13L523.36,39.72L526.75,41.99L530.14,40.86L533.53,40.86L536.92,77.17L540.31,82.85L543.7,80.58L547.09,77.17L550.48,77.17L553.87,77.17L557.27,80.58L560.66,78.31L564.05,78.31L567.44,77.17L570.83,77.17L574.22,77.17L577.61,74.9L584.39,74.9L587.78,38.59L591.18,30.64L594.57,30.64L604.74,30.64L608.13,28.37L614.91,28.37L618.31,30.64L631.88,30.64L635.27,48.8L642.05,48.8L645.45,51.07L648.83,52.21L652.22,52.21L655.61,52.21L659,51.07L665.78,51.07L669.17,48.8L682.75,48.8L686.14,30.64L689.53,37.45L692.92,37.45" style="vector-effect: none; fill: none; stroke: rgb(31, 119, 180); stroke-opacity: 1; stroke-width: 2.5px; opacity: 1;"/></g><g class="points"/><g class="text"/></g><g class="trace scatter trace6a3152" style="stroke-miterlimit: 2;"><g class="fills"><g><path class="js-fill" d="M3.4,572L166.96,572L170.36,588.3L173.75,587.14L177.15,590.6L180.55,600.04L183.94,600.04L190.72,592.53L194.11,589.21L197.5,594.64L200.9,591L207.67,570.33L211.07,557.7L217.86,530.65L221.25,525.62L224.65,514.79L228.04,515.11L231.44,514.47L234.83,495.13L238.22,484.82L241.63,479.03L245.07,453.97L248.46,456.93L251.86,427.02L255.24,424.67L258.63,413.77L262.03,397.93L272.2,320.56L275.59,282.14L278.99,272.92L282.38,244.56L289.21,222.26L292.61,205.63L296,178.86L299.39,170.52L302.78,139.86L306.18,139.01L309.58,139.62L312.97,137.71L316.38,133.56L319.78,89.96L323.18,77.3L326.57,74.09L329.97,71.91L333.36,67.74L336.75,58.85L340.14,71.34L343.54,71.91L346.93,71.34L357.1,71.34L360.5,69.18L363.88,71.34L367.28,69.18L370.67,65.07L374.06,65.07L377.45,64.23L380.84,61.49L387.62,61.49L391.01,43.42L394.41,41.88L397.81,41.88L401.2,40.19L404.59,40.19L411.38,40.19L414.78,32.77L418.17,32.77L421.56,27.24L424.95,32.77L428.35,35.5L435.18,35.5L438.57,41.88L455.53,41.88L458.92,43.42L469.09,43.42L472.48,51.9L475.87,50.77L479.27,50.77L489.44,50.77L492.83,54.23L496.23,60.37L499.62,60.37L506.4,60.37L509.8,62.2L519.97,62.92L523.36,57.3L526.75,60.04L530.14,59.28L533.53,59.28L536.92,215.25L540.31,221.97L543.7,220.35L547.09,217.63L550.48,217.63L553.87,217.63L557.27,220.35L560.66,218.69L564.05,218.69L567.44,217.92L570.83,217.92L574.22,217.92L577.61,216.2L584.39,216.2L587.78,71.19L591.18,43.83L594.57,43.83L604.74,43.83L608.13,32.77L614.91,32.77L618.31,40.19L631.88,40.19L635.27,118.84L642.05,118.84L645.45,120.91L648.83,121.77L652.22,121.77L655.61,121.77L659,120.91L665.78,120.91L669.17,118.84L682.75,118.84L686.14,40.19L689.53,64.6L692.92,64.6L692.92,10.31L689.53,10.31L686.14,21.1L682.75,-21.23L669.17,-21.23L665.78,-18.76L659,-18.76L655.61,-17.35L652.22,-17.35L648.83,-17.35L645.45,-18.76L642.05,-21.23L635.27,-21.23L631.88,21.1L618.31,21.1L614.91,23.98L608.13,23.98L604.74,17.46L594.57,17.46L591.18,17.46L587.78,5.99L584.39,-66.39L581,-66.39L577.61,-66.39L574.22,-63.57L570.83,-63.57L564.05,-62.07L560.66,-62.07L557.27,-59.19L553.87,-63.28L550.48,-63.28L547.09,-63.28L543.7,-59.19L540.31,-56.27L536.92,-60.9L533.53,22.43L530.14,22.43L526.75,23.95L523.36,22.14L519.97,23.33L516.57,23.33L513.19,21.78L503.01,21.34L499.62,21.34L492.83,20.67L489.44,19.6L479.27,19.6L475.87,19.6L472.48,20.73L469.09,22.41L438.57,21.67L435.18,23.52L428.35,23.52L424.95,23.98L421.56,27.24L418.17,23.98L414.78,23.98L411.38,21.1L401.2,21.1L397.81,21.67L391.01,22.41L387.62,15.69L384.23,15.69L380.84,15.69L377.45,17.48L374.06,18.91L367.28,19.34L363.88,21.72L360.5,19.34L357.1,21.72L350.32,21.72L346.93,21.72L343.54,23.42L340.14,21.72L336.75,25.13L333.36,25.32L329.97,27.96L326.57,28.05L323.18,29.38L319.78,30.34L316.38,11.71L312.97,14.37L309.58,19.27L306.18,17.61L302.78,21.3L299.39,22.41L296,29.97L292.61,34.97L289.21,47.85L285.77,60.86L278.99,76.63L275.59,90.11L268.81,109.61L265.41,108.76L262.03,126.4L258.63,153.69L255.24,192.72L251.86,235.77L248.46,242.18L245.07,261.03L241.63,270.02L238.22,286.93L234.83,310.67L231.44,336.72L228.04,340.62L224.65,370.45L221.25,373.24L217.86,379.55L214.46,381.71L211.07,386.56L204.29,405.98L200.9,419.08L197.5,419.98L194.11,464L190.72,465.22L187.33,482.45L183.94,489.49L180.55,489.49L177.15,523.89L173.75,540.98L170.36,544.35L166.96,572L3.4,572Z" style="fill: rgb(31, 119, 180); fill-opacity: 0.1; stroke-width: 0;"/></g></g><g class="errorbars"/><g class="lines"><path class="js-line" d="M3.4,572L166.96,572L170.36,544.35L173.75,540.98L177.15,523.89L180.55,489.49L183.94,489.49L187.33,482.45L190.72,465.22L194.11,464L197.5,419.98L200.9,419.08L204.29,405.98L211.07,386.56L214.46,381.71L217.86,379.55L221.25,373.24L224.65,370.45L228.04,340.62L231.44,336.72L234.83,310.67L238.22,286.93L241.63,270.02L245.07,261.03L248.46,242.18L251.86,235.77L255.24,192.72L258.63,153.69L262.03,126.4L265.41,108.76L268.81,109.61L275.59,90.11L278.99,76.63L285.77,60.86L289.21,47.85L292.61,34.97L296,29.97L299.39,22.41L302.78,21.3L306.18,17.61L309.58,19.27L312.97,14.37L316.38,11.71L319.78,30.34L323.18,29.38L326.57,28.05L329.97,27.96L333.36,25.32L336.75,25.13L340.14,21.72L343.54,23.42L346.93,21.72L350.32,21.72L357.1,21.72L360.5,19.34L363.88,21.72L367.28,19.34L374.06,18.91L377.45,17.48L380.84,15.69L384.23,15.69L387.62,15.69L391.01,22.41L397.81,21.67L401.2,21.1L411.38,21.1L414.78,23.98L418.17,23.98L421.56,27.24L424.95,23.98L428.35,23.52L435.18,23.52L438.57,21.67L469.09,22.41L472.48,20.73L475.87,19.6L479.27,19.6L489.44,19.6L492.83,20.67L499.62,21.34L503.01,21.34L513.19,21.78L516.57,23.33L519.97,23.33L523.36,22.14L526.75,23.95L530.14,22.43L533.53,22.43L536.92,-60.9L540.31,-56.27L543.7,-59.19L547.09,-63.28L550.48,-63.28L553.87,-63.28L557.27,-59.19L560.66,-62.07L564.05,-62.07L570.83,-63.57L574.22,-63.57L577.61,-66.39L581,-66.39L584.39,-66.39L587.78,5.99L591.18,17.46L594.57,17.46L604.74,17.46L608.13,23.98L614.91,23.98L618.31,21.1L631.88,21.1L635.27,-21.23L642.05,-21.23L645.45,-18.76L648.83,-17.35L652.22,-17.35L655.61,-17.35L659,-18.76L665.78,-18.76L669.17,-21.23L682.75,-21.23L686.14,21.1L689.53,10.31L692.92,10.31" style="vector-effect: none; fill: none; stroke: rgb(239, 85, 59); stroke-opacity: 1; stroke-width: 0px; opacity: 1;"/></g><g class="points"/><g class="text"/></g><g class="trace scatter trace892dd0" style="stroke-miterlimit: 2;"><g class="fills"/><g class="errorbars"/><g class="lines"><path class="js-line" d="M3.4,572L166.96,572L170.36,588.3L173.75,587.14L177.15,590.6L180.55,600.04L183.94,600.04L190.72,592.53L194.11,589.21L197.5,594.64L200.9,591L207.67,570.33L211.07,557.7L217.86,530.65L221.25,525.62L224.65,514.79L228.04,515.11L231.44,514.47L234.83,495.13L238.22,484.82L241.63,479.03L245.07,453.97L248.46,456.93L251.86,427.02L255.24,424.67L258.63,413.77L262.03,397.93L272.2,320.56L275.59,282.14L278.99,272.92L282.38,244.56L289.21,222.26L292.61,205.63L296,178.86L299.39,170.52L302.78,139.86L306.18,139.01L309.58,139.62L312.97,137.71L316.38,133.56L319.78,89.96L323.18,77.3L326.57,74.09L329.97,71.91L333.36,67.74L336.75,58.85L340.14,71.34L343.54,71.91L346.93,71.34L357.1,71.34L360.5,69.18L363.88,71.34L367.28,69.18L370.67,65.07L374.06,65.07L377.45,64.23L380.84,61.49L387.62,61.49L391.01,43.42L394.41,41.88L397.81,41.88L401.2,40.19L404.59,40.19L411.38,40.19L414.78,32.77L418.17,32.77L421.56,27.24L424.95,32.77L428.35,35.5L435.18,35.5L438.57,41.88L455.53,41.88L458.92,43.42L469.09,43.42L472.48,51.9L475.87,50.77L479.27,50.77L489.44,50.77L492.83,54.23L496.23,60.37L499.62,60.37L506.4,60.37L509.8,62.2L519.97,62.92L523.36,57.3L526.75,60.04L530.14,59.28L533.53,59.28L536.92,215.25L540.31,221.97L543.7,220.35L547.09,217.63L550.48,217.63L553.87,217.63L557.27,220.35L560.66,218.69L564.05,218.69L567.44,217.92L570.83,217.92L574.22,217.92L577.61,216.2L584.39,216.2L587.78,71.19L591.18,43.83L594.57,43.83L604.74,43.83L608.13,32.77L614.91,32.77L618.31,40.19L631.88,40.19L635.27,118.84L642.05,118.84L645.45,120.91L648.83,121.77L652.22,121.77L655.61,121.77L659,120.91L665.78,120.91L669.17,118.84L682.75,118.84L686.14,40.19L689.53,64.6L692.92,64.6" style="vector-effect: none; fill: none; stroke: rgb(0, 204, 150); stroke-opacity: 1; stroke-width: 0px; opacity: 1;"/></g><g class="points"/><g class="text"/></g><g class="trace scatter trace446f6b" style="stroke-miterlimit: 2; opacity: 1;"><g class="fills"/><g class="errorbars"/><g class="lines"><path class="js-line" d="M0.01,572L693.48,572" style="vector-effect: none; fill: none; stroke: rgb(255, 127, 14); stroke-opacity: 1; stroke-width: 2.5px; opacity: 1;"/></g><g class="points"/><g class="text"/></g><g class="trace scatter tracef95ff2" style="stroke-miterlimit: 2;"><g class="fills"><g><path class="js-fill" d="M3.4,572L693.48,572L693.48,572L3.4,572Z" style="fill: rgb(255, 127, 14); fill-opacity: 0.1; stroke-width: 0;"/></g></g><g class="errorbars"/><g class="lines"><path class="js-line" d="M3.4,572L693.48,572" style="vector-effect: none; fill: none; stroke: rgb(255, 161, 90); stroke-opacity: 1; stroke-width: 0px; opacity: 1;"/></g><g class="points"/><g class="text"/></g><g class="trace scatter tracec11927" style="stroke-miterlimit: 2;"><g class="fills"/><g class="errorbars"/><g class="lines"><path class="js-line" d="M3.4,572L693.48,572" style="vector-effect: none; fill: none; stroke: rgb(25, 211, 243); stroke-opacity: 1; stroke-width: 0px; opacity: 1;"/></g><g class="points"/><g class="text"/></g><g class="trace scatter trace70931f" style="stroke-miterlimit: 2; opacity: 1;"><g class="fills"/><g class="errorbars"/><g class="lines"><path class="js-line" d="M0.01,572L139.11,572L142.5,570.87L145.9,570.87L149.28,568.6L152.67,567.46L156.06,567.46L159.47,567.46L162.87,566.33L166.29,566.33L169.67,565.19L173.06,562.92L176.45,562.92L193.47,562.92L196.85,559.52L200.25,557.25L203.66,552.71L207.06,547.03L210.46,545.9L213.89,542.49L217.32,534.55L220.71,526.6L224.16,524.33L227.55,519.79L230.96,517.52L234.39,516.39L237.78,512.98L241.18,508.44L244.56,506.17L248,505.04L251.39,505.04L254.8,505.04L258.22,509.58L261.62,502.77L265.02,501.63L271.83,517.52L275.23,519.79L282.02,524.33L285.42,520.93L288.82,510.71L292.21,511.85L299.02,480.07L302.42,478.94L305.87,482.34L309.25,481.21L312.64,485.75L316.07,485.75L319.46,484.61L322.85,480.07L326.24,480.07L329.64,475.53L333.03,469.86L336.42,474.4L339.81,481.21L343.24,480.07L346.64,490.29L350.02,503.9L353.42,497.1L356.81,494.83L360.2,494.83L363.6,492.56L366.98,493.69L370.37,489.15L373.77,489.15L377.16,486.88L383.94,486.88L387.33,483.48L390.72,486.88L394.11,483.48L397.5,491.42L400.9,485.75L404.29,488.02L407.7,483.48L411.1,474.4L414.49,474.4L417.88,469.86L421.27,467.59L424.67,463.05L428.06,456.24L431.5,452.83L434.93,448.29L438.33,438.08L441.72,431.27L445.12,430.13L448.5,417.65L451.89,419.92L455.28,418.79L458.67,417.65L462.07,415.38L465.46,397.22L468.85,384.74L472.26,373.39L475.66,367.71L479.04,365.44L482.48,360.9L485.88,356.37L489.28,357.5L492.67,354.1L496.11,340.48L499.51,334.8L502.91,324.59L506.31,315.51L509.71,298.48L513.1,296.21L516.49,300.75L519.88,304.16L523.27,300.75L530.12,303.02L533.52,296.21L536.9,295.08L540.3,292.81L547.07,297.35L550.46,292.81L553.85,289.4L557.25,278.06L560.64,275.79L564.03,271.25L567.42,272.38L570.82,275.79L574.21,283.73L577.6,284.87L581,288.27L584.39,290.54L587.79,286L591.23,275.79L594.62,262.17L598.01,257.63L601.4,262.17L604.79,259.9L608.19,265.57L611.58,273.52L614.97,276.92L618.36,270.11L621.77,261.03L625.16,249.68L628.55,246.28L631.94,233.79L635.34,224.71L638.75,222.44L642.14,229.25L645.52,223.58L648.91,224.71L652.3,226.98L659.11,239.47L662.5,246.28L665.89,247.41L669.28,255.36L672.68,261.03L676.1,274.65L679.52,276.92L682.91,287.13L689.71,303.02L693.1,303.02" style="vector-effect: none; fill: none; stroke: rgb(44, 160, 44); stroke-opacity: 1; stroke-width: 2.5px; opacity: 1;"/></g><g class="points"/><g class="text"/></g><g class="trace scatter traceccdc69" style="stroke-miterlimit: 2;"><g class="fills"><g><path class="js-fill" d="M3.4,572L139.11,572L142.5,575.26L145.9,575.26L149.28,578.14L156.06,577.57L159.47,577.57L169.67,575.96L173.06,575.57L196.85,575.88L200.25,578.46L203.66,580.65L207.06,579.12L217.32,573.79L220.71,572.85L224.16,570.82L227.55,564.59L230.96,560.3L234.39,557.82L237.78,551.52L241.18,543.37L244.56,538.9L248,537.51L254.8,537.51L258.22,544.03L261.62,537.7L265.02,536.8L268.44,546.35L271.83,549.82L278.62,554.53L282.02,559.1L285.42,554.98L288.82,562.91L292.21,564.07L295.63,574.73L299.02,578.67L302.42,577.34L305.87,581.91L309.25,579.98L312.64,584.69L316.07,584.69L319.46,582.59L322.85,576.11L326.24,576.11L329.64,570.24L333.03,560.85L336.42,568.85L339.81,570.98L343.24,569.41L346.64,562.57L350.02,541.97L353.42,546.01L356.81,542.49L360.2,542.49L363.6,539.69L366.98,540.89L370.37,533.2L373.77,533.2L377.16,529.07L383.94,529.07L387.33,519.99L390.72,524.4L394.11,521.65L397.5,531.33L400.9,534.1L407.7,529.07L411.1,521.88L414.49,521.88L417.88,517.58L421.27,515.25L424.67,511.97L428.06,506.16L431.5,503.5L434.93,498.74L438.33,488.28L441.72,476.06L445.12,474.56L448.5,448.82L451.89,449.73L458.67,447.46L462.07,447.68L465.46,453.85L468.85,451.92L472.26,442.59L475.66,436.41L479.04,433.5L482.48,427.4L485.88,420.92L489.28,422.42L492.67,416.88L496.11,406.35L499.51,401.81L502.91,389.53L509.71,365.8L513.1,361.58L516.49,362.29L519.88,363.99L523.27,363.29L526.7,365.22L530.12,367.75L533.52,360.94L536.9,358.93L540.3,353.78L543.68,359.57L547.07,360.02L553.85,358.35L557.25,363.29L560.64,364.66L564.03,358.68L567.42,360.09L570.82,365.59L574.21,374.6L577.6,376.74L581,384.93L584.39,386.6L587.79,381.48L591.23,372.04L594.62,353.66L598.01,350.62L601.4,354.56L604.79,353.95L608.19,351.18L611.58,350.69L614.97,354.85L618.36,350.34L625.16,326.21L628.55,318.18L631.94,283.16L635.34,276.91L638.75,273.46L642.14,283.42L645.52,285.25L648.91,286.03L659.11,302.47L662.5,315.54L665.89,318.03L669.28,326.66L672.68,332.24L676.1,348.82L679.52,352.96L682.91,369.15L686.3,367.72L689.71,374.73L693.1,374.73L693.1,231.32L689.71,231.32L686.3,222.43L682.91,205.12L679.52,200.88L676.1,200.48L672.68,189.83L669.28,184.05L665.89,176.79L662.5,177.02L659.11,176.47L655.72,169.14L652.3,162.81L648.91,163.4L645.52,161.91L642.14,175.09L638.75,171.43L635.34,172.52L631.94,184.43L628.55,174.38L625.16,173.15L621.77,182.9L618.36,189.88L614.97,199L611.58,196.34L604.79,165.84L601.4,169.77L598.01,164.64L594.62,170.67L587.79,190.52L584.39,194.48L581,191.61L577.6,192.99L574.21,192.86L570.82,185.98L564.03,183.81L560.64,186.91L557.25,192.82L553.85,220.46L547.07,234.68L543.68,230.59L540.3,231.84L536.9,231.23L533.52,231.49L530.12,238.29L523.27,238.22L519.88,244.33L516.49,239.22L513.1,230.85L509.71,231.16L506.31,252.64L496.11,274.61L492.67,291.31L489.28,292.58L485.88,291.81L482.48,294.41L479.04,297.39L475.66,299.01L472.26,304.19L468.85,317.56L465.46,340.59L462.07,383.08L458.67,387.84L455.28,388.61L451.89,390.11L448.5,386.48L445.12,385.71L438.33,387.88L434.93,397.85L428.06,406.31L424.67,414.13L421.27,419.93L417.88,422.14L414.49,426.91L411.1,426.91L407.7,437.89L404.29,444.15L400.9,437.4L397.5,451.51L394.11,445.3L390.72,449.36L387.33,446.96L383.94,444.69L370.37,445.1L366.98,446.5L363.6,445.42L360.2,447.16L356.81,447.16L353.42,448.18L350.02,465.84L346.64,418L343.24,390.73L339.81,391.43L336.42,379.95L333.03,378.86L329.64,380.82L326.24,384.03L322.85,384.03L319.46,386.63L316.07,386.8L312.64,386.8L309.25,382.43L305.87,382.77L302.42,380.54L299.02,381.48L295.63,417.19L292.21,459.63L288.82,458.52L285.42,486.88L282.02,489.56L278.62,489.59L271.83,485.22L268.44,472.8L265.02,466.47L261.62,467.84L258.22,475.13L254.8,472.57L248,472.57L244.56,473.45L241.18,473.52L237.78,474.45L230.96,474.75L227.55,475L224.16,477.85L220.71,480.35L217.32,495.3L213.89,509.39L210.46,514.46L207.06,514.95L203.66,524.76L200.25,536.04L196.85,543.15L193.47,550.27L176.45,550.27L173.06,550.27L169.67,554.42L166.29,555.82L162.87,555.82L159.47,557.35L156.06,557.35L152.67,557.35L149.28,559.05L145.9,566.47L142.5,566.47L139.11,572L3.4,572Z" style="fill: rgb(44, 160, 44); fill-opacity: 0.1; stroke-width: 0;"/></g></g><g class="errorbars"/><g class="lines"><path class="js-line" d="M3.4,572L139.11,572L142.5,566.47L145.9,566.47L149.28,559.05L152.67,557.35L156.06,557.35L159.47,557.35L162.87,555.82L166.29,555.82L169.67,554.42L173.06,550.27L176.45,550.27L193.47,550.27L196.85,543.15L200.25,536.04L203.66,524.76L207.06,514.95L210.46,514.46L213.89,509.39L217.32,495.3L220.71,480.35L224.16,477.85L227.55,475L230.96,474.75L237.78,474.45L241.18,473.52L244.56,473.45L248,472.57L254.8,472.57L258.22,475.13L261.62,467.84L265.02,466.47L268.44,472.8L271.83,485.22L278.62,489.59L282.02,489.56L285.42,486.88L288.82,458.52L292.21,459.63L295.63,417.19L299.02,381.48L302.42,380.54L305.87,382.77L309.25,382.43L312.64,386.8L316.07,386.8L319.46,386.63L322.85,384.03L326.24,384.03L329.64,380.82L333.03,378.86L336.42,379.95L339.81,391.43L343.24,390.73L346.64,418L350.02,465.84L353.42,448.18L356.81,447.16L360.2,447.16L363.6,445.42L366.98,446.5L370.37,445.1L383.94,444.69L387.33,446.96L390.72,449.36L394.11,445.3L397.5,451.51L400.9,437.4L404.29,444.15L407.7,437.89L411.1,426.91L414.49,426.91L417.88,422.14L421.27,419.93L424.67,414.13L428.06,406.31L434.93,397.85L438.33,387.88L445.12,385.71L448.5,386.48L451.89,390.11L455.28,388.61L458.67,387.84L462.07,383.08L465.46,340.59L468.85,317.56L472.26,304.19L475.66,299.01L479.04,297.39L482.48,294.41L485.88,291.81L489.28,292.58L492.67,291.31L496.11,274.61L506.31,252.64L509.71,231.16L513.1,230.85L516.49,239.22L519.88,244.33L523.27,238.22L530.12,238.29L533.52,231.49L536.9,231.23L540.3,231.84L543.68,230.59L547.07,234.68L553.85,220.46L557.25,192.82L560.64,186.91L564.03,183.81L570.82,185.98L574.21,192.86L577.6,192.99L581,191.61L584.39,194.48L587.79,190.52L594.62,170.67L598.01,164.64L601.4,169.77L604.79,165.84L611.58,196.34L614.97,199L618.36,189.88L621.77,182.9L625.16,173.15L628.55,174.38L631.94,184.43L635.34,172.52L638.75,171.43L642.14,175.09L645.52,161.91L648.91,163.4L652.3,162.81L655.72,169.14L659.11,176.47L662.5,177.02L665.89,176.79L669.28,184.05L672.68,189.83L676.1,200.48L679.52,200.88L682.91,205.12L686.3,222.43L689.71,231.32L693.1,231.32" style="vector-effect: none; fill: none; stroke: rgb(182, 232, 128); stroke-opacity: 1; stroke-width: 0px; opacity: 1;"/></g><g class="points"/><g class="text"/></g><g class="trace scatter trace0791ef" style="stroke-miterlimit: 2;"><g class="fills"/><g class="errorbars"/><g class="lines"><path class="js-line" d="M3.4,572L139.11,572L142.5,575.26L145.9,575.26L149.28,578.14L156.06,577.57L159.47,577.57L169.67,575.96L173.06,575.57L196.85,575.88L200.25,578.46L203.66,580.65L207.06,579.12L217.32,573.79L220.71,572.85L224.16,570.82L227.55,564.59L230.96,560.3L234.39,557.82L237.78,551.52L241.18,543.37L244.56,538.9L248,537.51L254.8,537.51L258.22,544.03L261.62,537.7L265.02,536.8L268.44,546.35L271.83,549.82L278.62,554.53L282.02,559.1L285.42,554.98L288.82,562.91L292.21,564.07L295.63,574.73L299.02,578.67L302.42,577.34L305.87,581.91L309.25,579.98L312.64,584.69L316.07,584.69L319.46,582.59L322.85,576.11L326.24,576.11L329.64,570.24L333.03,560.85L336.42,568.85L339.81,570.98L343.24,569.41L346.64,562.57L350.02,541.97L353.42,546.01L356.81,542.49L360.2,542.49L363.6,539.69L366.98,540.89L370.37,533.2L373.77,533.2L377.16,529.07L383.94,529.07L387.33,519.99L390.72,524.4L394.11,521.65L397.5,531.33L400.9,534.1L407.7,529.07L411.1,521.88L414.49,521.88L417.88,517.58L421.27,515.25L424.67,511.97L428.06,506.16L431.5,503.5L434.93,498.74L438.33,488.28L441.72,476.06L445.12,474.56L448.5,448.82L451.89,449.73L458.67,447.46L462.07,447.68L465.46,453.85L468.85,451.92L472.26,442.59L475.66,436.41L479.04,433.5L482.48,427.4L485.88,420.92L489.28,422.42L492.67,416.88L496.11,406.35L499.51,401.81L502.91,389.53L509.71,365.8L513.1,361.58L516.49,362.29L519.88,363.99L523.27,363.29L526.7,365.22L530.12,367.75L533.52,360.94L536.9,358.93L540.3,353.78L543.68,359.57L547.07,360.02L553.85,358.35L557.25,363.29L560.64,364.66L564.03,358.68L567.42,360.09L570.82,365.59L574.21,374.6L577.6,376.74L581,384.93L584.39,386.6L587.79,381.48L591.23,372.04L594.62,353.66L598.01,350.62L601.4,354.56L604.79,353.95L608.19,351.18L611.58,350.69L614.97,354.85L618.36,350.34L625.16,326.21L628.55,318.18L631.94,283.16L635.34,276.91L638.75,273.46L642.14,283.42L645.52,285.25L648.91,286.03L659.11,302.47L662.5,315.54L665.89,318.03L669.28,326.66L672.68,332.24L676.1,348.82L679.52,352.96L682.91,369.15L686.3,367.72L689.71,374.73L693.1,374.73" style="vector-effect: none; fill: none; stroke: rgb(255, 151, 255); stroke-opacity: 1; stroke-width: 0px; opacity: 1;"/></g><g class="points"/><g class="text"/></g><g class="trace scatter traceda86ae" style="stroke-miterlimit: 2; opacity: 1;"><g class="fills"/><g class="errorbars"/><g class="lines"><path class="js-line" d="M0.01,572L163.16,572L166.55,569.73L169.94,569.73L173.33,566.33L176.72,564.06L180.11,559.52L183.5,558.38L186.89,556.11L193.67,553.84L197.06,551.57L200.45,544.76L203.84,530.01L207.24,524.33L210.63,515.25L214.02,503.9L217.42,497.1L224.2,489.15L227.59,486.88L230.99,483.48L234.39,484.61L241.17,469.86L244.56,466.45L247.95,464.18L251.34,467.59L254.74,477.8L258.12,481.21L261.52,476.67L264.91,477.8L268.29,476.67L271.69,472.13L275.08,469.86L278.47,468.72L281.86,468.72L285.24,464.18L288.63,465.32L292.04,460.78L295.43,457.37L298.82,452.83L302.21,442.62L305.6,436.94L308.98,430.13L312.37,430.13L315.77,427.87L319.16,427.87L322.54,430.13L325.94,431.27L329.33,431.27L332.72,432.4L336.11,429L339.5,426.73L342.92,425.6L346.32,419.92L349.71,418.79L353.1,424.46L356.5,424.46L359.89,417.65L363.28,422.19L366.67,422.19L370.06,422.19L373.46,417.65L376.85,408.57L380.25,401.76L383.64,398.36L387.06,388.14L390.45,381.33L393.84,383.6L397.22,390.41L400.61,381.33L404.01,382.47L407.39,375.66L410.79,376.79L414.19,369.98L417.57,371.12L420.97,376.79L427.76,381.33L431.15,374.52L434.53,365.44L437.92,368.85L441.32,372.25L444.7,368.85L448.1,358.63L451.49,359.77L454.92,348.42L458.31,351.83L461.7,348.42L465.1,356.37L468.5,351.83L471.91,340.48L475.3,329.13L478.69,326.86L485.48,339.34L488.87,335.94L492.26,333.67L495.64,334.8L499.03,334.8L502.46,335.94L509.25,338.21L512.65,346.15L516.03,341.61L519.42,347.29L522.81,357.5L526.2,363.17L529.59,371.12L532.99,368.85L536.38,364.31L539.77,367.71L543.18,366.58L546.57,366.58L550.01,367.71L553.4,364.31L556.79,363.17L560.21,359.77L563.6,355.23L566.99,354.1L573.78,341.61L577.17,346.15L580.56,335.94L583.95,331.4L587.33,330.26L590.73,326.86L594.12,330.26L597.5,330.26L600.89,332.53L604.3,340.48L611.13,345.02L614.52,339.34L617.92,338.21L621.31,332.53L628.12,316.64L631.52,320.05L634.91,321.18L638.31,317.78L641.71,318.91L645.1,315.51L651.88,297.35L655.31,292.81L658.7,298.48L662.09,292.81L665.53,290.54L668.93,287.13L672.31,283.73L675.71,290.54L682.51,286L685.9,289.4L689.32,297.35L692.72,291.67" style="vector-effect: none; fill: none; stroke: rgb(214, 39, 40); stroke-opacity: 1; stroke-width: 2.5px; opacity: 1;"/></g><g class="points"/><g class="text"/></g><g class="trace scatter trace0cd4ba" style="stroke-miterlimit: 2;"><g class="fills"><g><path class="js-fill" d="M3.4,572L163.16,572L166.55,578.52L169.94,578.52L173.33,581.64L176.72,580.92L180.11,582.23L190.28,577.27L193.67,575.63L197.06,573.11L200.45,574.11L203.84,587.15L207.24,581.23L220.81,554.83L224.2,551.16L230.99,544.59L234.39,547.28L237.78,539.64L241.17,529.18L244.56,521.88L247.95,517.11L251.34,522.51L254.74,522.78L258.12,528.78L261.52,531.57L268.29,531.19L271.69,527.05L278.47,523.87L281.86,523.87L285.24,512.62L288.63,512.8L292.04,512.6L295.43,507.82L298.82,501.84L302.21,492.38L305.6,483.99L308.98,468.02L319.16,467.46L322.54,471.17L325.94,472.7L329.33,472.7L332.72,474.7L336.11,466.96L339.5,465.26L342.92,465.67L346.32,461.85L349.71,460.49L353.1,464.47L356.5,464.47L359.89,463.81L363.28,466.4L370.06,466.4L373.46,460.07L376.85,457.06L380.25,445.4L387.06,432.35L390.45,430.84L393.84,433.22L397.22,444.5L400.61,441.42L404.01,444.14L407.39,438.66L410.79,439.13L414.19,430.98L417.57,432.57L420.97,446.35L424.36,450.04L427.76,450.69L431.15,448.39L434.53,441.81L437.92,443.18L441.32,444.33L444.7,440.63L448.1,425.77L451.49,425.66L454.92,408.39L458.31,411.31L461.7,409.42L465.1,422.82L468.5,417.28L471.91,390.65L475.3,375.29L478.69,372.72L482.09,380.07L485.48,384.23L492.26,379.62L495.64,381.41L502.46,381.83L505.86,382.2L509.25,384.37L512.65,395.35L516.03,382.74L519.42,392.87L522.81,415.34L526.2,415.24L529.59,424.64L532.99,422.48L536.38,420.84L539.77,421.55L550.01,421.93L553.4,423.35L556.79,423.35L560.21,420.08L563.6,413.31L566.99,411.72L570.38,403.35L573.78,382.74L577.17,391.86L580.56,377.07L583.95,374.5L587.33,374.47L590.73,371.34L594.12,374.47L597.5,374.47L600.89,377.79L604.3,383.54L607.69,384.38L611.13,387.05L614.52,386.04L617.92,384.37L621.31,384.19L624.7,376.81L628.12,362.14L631.52,364.72L634.91,365.04L641.71,367.43L645.1,363.43L648.49,356.6L651.88,347.96L655.31,337.76L658.7,353.26L662.09,344.2L665.53,343.94L668.93,337.99L672.31,338.88L675.71,349.47L679.12,347.48L682.51,343.98L685.9,349.7L689.32,357.32L692.72,353.68L692.72,229.67L689.32,237.38L685.9,229.11L682.51,228.02L679.12,229.06L675.71,231.61L672.31,228.58L668.93,236.28L665.53,237.14L662.09,241.41L658.7,243.71L655.31,247.86L651.88,246.74L648.49,256.26L645.1,267.59L641.71,270.39L638.31,269L634.91,277.32L631.52,275.38L628.12,271.14L624.7,272.37L621.31,280.87L617.92,292.05L614.52,292.65L611.13,302.99L607.69,301.11L604.3,297.41L600.89,287.28L597.5,286.06L594.12,286.06L590.73,282.37L587.33,286.06L583.95,288.3L577.17,300.44L573.78,300.48L570.38,293.5L566.99,296.47L563.6,297.15L560.21,299.46L556.79,303L553.4,305.27L550.01,313.5L546.57,311.43L543.18,311.43L539.77,313.88L536.38,307.77L532.99,315.22L529.59,317.59L526.2,311.11L522.81,299.66L519.42,301.7L516.03,300.48L512.65,296.95L509.25,292.05L505.86,291.94L502.46,290.05L499.03,288.19L495.64,288.19L492.26,287.72L488.87,290.05L485.48,294.45L478.69,281L475.3,282.97L471.91,290.3L468.5,286.38L465.1,289.91L461.7,287.42L458.31,292.34L454.92,288.45L451.49,293.88L448.1,291.5L444.7,297.06L441.32,300.18L437.92,294.51L434.53,289.08L427.76,311.97L424.36,308.09L420.97,307.23L417.57,309.67L414.19,308.99L410.79,314.45L407.39,312.66L404.01,320.8L400.61,321.25L397.22,336.32L393.84,333.98L390.45,331.83L387.06,343.94L383.64,358.59L380.25,358.12L376.85,360.08L373.46,375.23L370.06,377.98L366.67,377.98L363.28,377.98L359.89,371.49L356.5,384.45L353.1,384.45L349.71,377.09L346.32,377.99L342.92,385.52L339.5,388.2L336.11,391.04L329.33,389.84L325.94,389.84L319.16,388.27L315.77,388.27L312.37,392.25L308.98,392.25L305.6,389.9L302.21,392.86L298.82,403.83L295.43,406.93L292.04,408.96L288.63,417.83L285.24,415.75L281.86,413.57L278.47,413.57L275.08,414.13L271.69,417.2L268.29,422.14L264.91,424.41L261.52,421.77L258.12,433.63L254.74,432.82L251.34,412.66L247.95,411.25L244.56,411.03L241.17,410.53L237.78,413.69L234.39,421.94L230.99,422.37L227.59,426.18L224.2,427.14L220.81,430.28L217.42,431.54L214.02,439.88L210.63,455.7L207.24,467.43L203.84,472.87L200.45,515.42L197.06,530.04L193.67,532.05L186.89,533.39L183.5,535.91L180.11,536.8L176.72,547.19L173.33,551.01L169.94,560.94L166.55,560.94L163.16,572L3.4,572Z" style="fill: rgb(214, 39, 40); fill-opacity: 0.1; stroke-width: 0;"/></g></g><g class="errorbars"/><g class="lines"><path class="js-line" d="M3.4,572L163.16,572L166.55,560.94L169.94,560.94L173.33,551.01L176.72,547.19L180.11,536.8L183.5,535.91L186.89,533.39L193.67,532.05L197.06,530.04L200.45,515.42L203.84,472.87L207.24,467.43L210.63,455.7L214.02,439.88L217.42,431.54L220.81,430.28L224.2,427.14L227.59,426.18L230.99,422.37L234.39,421.94L237.78,413.69L241.17,410.53L244.56,411.03L247.95,411.25L251.34,412.66L254.74,432.82L258.12,433.63L261.52,421.77L264.91,424.41L268.29,422.14L271.69,417.2L275.08,414.13L278.47,413.57L281.86,413.57L285.24,415.75L288.63,417.83L292.04,408.96L295.43,406.93L298.82,403.83L302.21,392.86L305.6,389.9L308.98,392.25L312.37,392.25L315.77,388.27L319.16,388.27L325.94,389.84L329.33,389.84L336.11,391.04L339.5,388.2L342.92,385.52L346.32,377.99L349.71,377.09L353.1,384.45L356.5,384.45L359.89,371.49L363.28,377.98L366.67,377.98L370.06,377.98L373.46,375.23L376.85,360.08L380.25,358.12L383.64,358.59L387.06,343.94L390.45,331.83L393.84,333.98L397.22,336.32L400.61,321.25L404.01,320.8L407.39,312.66L410.79,314.45L414.19,308.99L417.57,309.67L420.97,307.23L424.36,308.09L427.76,311.97L434.53,289.08L437.92,294.51L441.32,300.18L444.7,297.06L448.1,291.5L451.49,293.88L454.92,288.45L458.31,292.34L461.7,287.42L465.1,289.91L468.5,286.38L471.91,290.3L475.3,282.97L478.69,281L485.48,294.45L488.87,290.05L492.26,287.72L495.64,288.19L499.03,288.19L502.46,290.05L505.86,291.94L509.25,292.05L512.65,296.95L516.03,300.48L519.42,301.7L522.81,299.66L526.2,311.11L529.59,317.59L532.99,315.22L536.38,307.77L539.77,313.88L543.18,311.43L546.57,311.43L550.01,313.5L553.4,305.27L556.79,303L560.21,299.46L563.6,297.15L566.99,296.47L570.38,293.5L573.78,300.48L577.17,300.44L583.95,288.3L587.33,286.06L590.73,282.37L594.12,286.06L597.5,286.06L600.89,287.28L604.3,297.41L607.69,301.11L611.13,302.99L614.52,292.65L617.92,292.05L621.31,280.87L624.7,272.37L628.12,271.14L631.52,275.38L634.91,277.32L638.31,269L641.71,270.39L645.1,267.59L648.49,256.26L651.88,246.74L655.31,247.86L658.7,243.71L662.09,241.41L665.53,237.14L668.93,236.28L672.31,228.58L675.71,231.61L679.12,229.06L682.51,228.02L685.9,229.11L689.32,237.38L692.72,229.67" style="vector-effect: none; fill: none; stroke: rgb(99, 110, 250); stroke-opacity: 1; stroke-width: 0px; opacity: 1;"/></g><g class="points"/><g class="text"/></g><g class="trace scatter tracefed4a7" style="stroke-miterlimit: 2;"><g class="fills"/><g class="errorbars"/><g class="lines"><path class="js-line" d="M3.4,572L163.16,572L166.55,578.52L169.94,578.52L173.33,581.64L176.72,580.92L180.11,582.23L190.28,577.27L193.67,575.63L197.06,573.11L200.45,574.11L203.84,587.15L207.24,581.23L220.81,554.83L224.2,551.16L230.99,544.59L234.39,547.28L237.78,539.64L241.17,529.18L244.56,521.88L247.95,517.11L251.34,522.51L254.74,522.78L258.12,528.78L261.52,531.57L268.29,531.19L271.69,527.05L278.47,523.87L281.86,523.87L285.24,512.62L288.63,512.8L292.04,512.6L295.43,507.82L298.82,501.84L302.21,492.38L305.6,483.99L308.98,468.02L319.16,467.46L322.54,471.17L325.94,472.7L329.33,472.7L332.72,474.7L336.11,466.96L339.5,465.26L342.92,465.67L346.32,461.85L349.71,460.49L353.1,464.47L356.5,464.47L359.89,463.81L363.28,466.4L370.06,466.4L373.46,460.07L376.85,457.06L380.25,445.4L387.06,432.35L390.45,430.84L393.84,433.22L397.22,444.5L400.61,441.42L404.01,444.14L407.39,438.66L410.79,439.13L414.19,430.98L417.57,432.57L420.97,446.35L424.36,450.04L427.76,450.69L431.15,448.39L434.53,441.81L437.92,443.18L441.32,444.33L444.7,440.63L448.1,425.77L451.49,425.66L454.92,408.39L458.31,411.31L461.7,409.42L465.1,422.82L468.5,417.28L471.91,390.65L475.3,375.29L478.69,372.72L482.09,380.07L485.48,384.23L492.26,379.62L495.64,381.41L502.46,381.83L505.86,382.2L509.25,384.37L512.65,395.35L516.03,382.74L519.42,392.87L522.81,415.34L526.2,415.24L529.59,424.64L532.99,422.48L536.38,420.84L539.77,421.55L550.01,421.93L553.4,423.35L556.79,423.35L560.21,420.08L563.6,413.31L566.99,411.72L570.38,403.35L573.78,382.74L577.17,391.86L580.56,377.07L583.95,374.5L587.33,374.47L590.73,371.34L594.12,374.47L597.5,374.47L600.89,377.79L604.3,383.54L607.69,384.38L611.13,387.05L614.52,386.04L617.92,384.37L621.31,384.19L624.7,376.81L628.12,362.14L631.52,364.72L634.91,365.04L641.71,367.43L645.1,363.43L648.49,356.6L651.88,347.96L655.31,337.76L658.7,353.26L662.09,344.2L665.53,343.94L668.93,337.99L672.31,338.88L675.71,349.47L679.12,347.48L682.51,343.98L685.9,349.7L689.32,357.32L692.72,353.68" style="vector-effect: none; fill: none; stroke: rgb(239, 85, 59); stroke-opacity: 1; stroke-width: 0px; opacity: 1;"/></g><g class="points"/><g class="text"/></g><g class="trace scatter tracee8a4d2" style="stroke-miterlimit: 2; opacity: 1;"><g class="fills"/><g class="errorbars"/><g class="lines"><path class="js-line" d="M0.01,572L88.4,572L91.8,570.87L98.58,570.87L101.97,569.73L105.41,567.46L108.8,562.92L115.63,562.92L119.02,561.79L125.8,561.79L129.19,559.52L132.58,552.71L135.97,552.71L139.36,552.71L142.75,551.57L146.15,550.44L149.54,548.17L156.33,540.22L159.77,542.49L163.15,537.95L166.55,537.95L169.93,536.82L173.36,533.41L176.76,528.87L180.2,526.6L183.63,532.28L187.02,528.87L193.83,526.6L197.26,522.06L200.65,520.93L204.06,526.6L207.45,532.28L210.84,519.79L214.23,520.93L217.63,520.93L221.02,520.93L224.42,518.66L227.81,520.93L231.19,517.52L234.59,512.98L237.97,514.12L241.37,509.58L244.76,507.31L248.14,500.5L251.53,499.37L254.92,494.83L258.32,483.48L261.7,486.88L265.1,476.67L268.49,466.45L271.88,460.78L275.27,461.91L278.67,455.1L282.06,456.24L285.46,458.51L288.86,448.29L292.24,446.02L295.63,434.67L299.02,441.48L305.82,427.87L309.25,425.6L312.68,425.6L316.09,434.67L319.49,436.94L322.93,429L333.1,411.98L336.5,400.63L339.89,394.95L343.28,382.47L346.67,385.87L350.07,377.93L353.46,377.93L356.86,368.85L360.25,368.85L363.67,363.17L367.07,347.29L370.48,343.88L373.89,339.34L377.28,337.07L387.46,320.05L390.85,318.91L394.23,324.59L397.63,316.64L404.4,307.56L407.79,309.83L414.57,299.62L417.96,295.08L421.36,281.46L424.74,273.52L428.13,265.57L431.52,268.98L434.96,266.71L438.35,263.3L441.75,268.98L445.18,256.49L448.57,261.03L451.96,257.63L462.13,229.25L465.53,226.98L475.73,220.17L479.13,219.04L482.53,209.96L485.94,203.15L492.74,190.67L496.14,189.53L499.54,175.91L502.96,170.24L506.36,166.83L509.75,166.83L513.13,170.24L516.53,170.24L523.32,182.72L526.71,183.86L530.11,177.05L533.5,179.32L536.89,174.78L540.28,174.78L543.67,169.1L547.06,169.1L550.45,183.86L553.85,180.45L557.24,187.26L560.63,189.53L564.06,195.21L567.45,191.8L574.27,178.18L577.66,180.45L581.08,180.45L584.47,175.91L587.86,182.72L591.27,184.99L594.66,179.32L598.1,205.42L601.49,204.29L604.93,215.63L608.32,213.37L611.74,220.17L615.13,211.1L618.52,206.56L621.92,209.96L625.31,206.56L628.7,199.75L632.09,195.21L635.48,196.34L638.87,189.53L642.3,187.26L645.68,188.4L649.07,158.89L652.47,150.94L655.86,139.6L659.3,135.06L662.69,124.84L666.09,124.84L669.47,128.25L672.87,121.44L676.26,127.11L679.66,130.52L683.05,135.06L686.44,129.38L689.83,130.52" style="vector-effect: none; fill: none; stroke: rgb(148, 103, 189); stroke-opacity: 1; stroke-width: 2.5px; opacity: 1;"/></g><g class="points"/><g class="text"/></g><g class="trace scatter trace1b1f7d" style="stroke-miterlimit: 2;"><g class="fills"><g><path class="js-fill" d="M3.4,572L88.4,572L91.8,575.26L101.97,575.72L105.41,577.57L108.8,582.08L112.24,582.08L115.63,582.08L119.02,580.87L125.8,580.87L129.19,579.31L132.58,582.79L135.97,582.79L139.36,582.79L142.75,581.89L146.15,580.25L149.54,577.51L156.33,576.54L159.77,577.42L163.15,573.2L166.55,573.2L169.93,571.75L173.36,567.13L176.76,561.6L180.2,559.83L183.63,562.23L187.02,556.82L190.41,554.11L193.83,552.87L197.26,548.95L200.65,547.46L207.45,560.08L210.84,574.19L214.23,575.15L217.63,575.15L221.02,575.15L224.42,573.58L227.81,575.9L231.19,575.15L234.59,570.13L237.97,571.6L241.37,566.28L244.76,564.21L248.14,565.55L251.53,564.18L254.92,556.5L258.32,545.59L265.1,538.98L268.49,524.43L271.88,515.32L275.27,517.21L278.67,506.52L282.06,507.79L285.46,512.21L288.86,500.36L295.63,494.16L299.02,500.69L305.82,482.41L309.25,481.98L312.68,481.98L316.09,492.03L319.49,494.3L322.93,491.98L326.32,482.81L329.71,479.86L333.1,472.95L336.5,455.4L339.89,455.59L343.28,449.3L346.67,450.37L350.07,436.12L353.46,436.12L356.86,433.34L360.25,433.34L363.67,428.31L367.07,404.19L370.48,395.28L373.89,394.57L377.28,389.42L380.67,386.7L384.06,379.5L387.46,375.47L390.85,374.96L394.23,379.13L397.63,373.1L401.01,366.88L404.4,356.93L407.79,357.9L411.19,349.87L414.57,347.34L417.96,349.09L421.36,332.32L424.74,335.19L428.13,319.02L431.52,324.03L434.96,321.1L438.35,319.35L441.75,331.09L445.18,319.82L448.57,326.16L451.96,321.93L455.36,310.94L458.74,303.45L462.13,297.91L465.53,295.52L472.34,294.06L475.73,294.84L479.13,293.1L482.53,279.4L485.94,271.75L489.34,268.55L492.74,247.78L496.14,247.39L499.54,225.11L502.96,215.19L506.36,212.87L509.75,212.87L513.13,215.19L516.53,215.19L523.32,236.89L526.71,236.6L530.11,227.38L533.5,230.58L540.28,230.38L543.67,218.81L547.06,218.81L550.45,246.64L553.85,245.75L557.24,252.18L560.63,254.79L564.06,263.26L567.45,260.1L570.87,252.31L574.27,241.84L577.66,242.84L581.08,242.84L584.47,238.12L587.86,240.94L591.27,241.62L594.66,240.52L598.1,315.53L601.49,313.06L604.93,323.01L608.32,320.74L611.74,330.81L615.13,323.32L618.52,322.17L621.92,324.43L625.31,323.24L632.09,320.78L635.48,321.52L638.87,317.39L642.3,315.92L645.68,316.26L649.07,244.36L655.86,205.15L659.3,198.64L662.69,165.26L666.09,165.26L669.47,168.15L672.87,157.18L676.26,167.74L679.66,167.18L683.05,168.9L686.44,165.21L689.83,165.44L689.83,95.59L686.44,93.56L683.05,101.21L676.26,86.48L672.87,85.69L669.47,88.34L666.09,84.42L662.69,84.42L659.3,71.47L652.47,76.33L649.07,73.41L645.68,60.54L642.3,58.61L638.87,61.67L635.48,71.17L632.09,69.63L628.7,77.52L625.31,89.87L621.92,95.5L618.52,90.94L615.13,98.87L611.74,109.54L608.32,105.99L604.93,108.26L601.49,95.51L598.1,95.31L594.66,118.12L591.27,128.36L587.86,124.5L584.47,113.71L581.08,118.07L577.66,118.07L574.27,114.53L570.87,117.67L567.45,123.5L564.06,127.15L560.63,124.27L557.24,122.34L553.85,115.15L550.45,121.08L547.06,119.4L540.28,119.18L536.89,119.18L533.5,128.06L530.11,126.71L526.71,131.11L523.32,128.56L516.53,125.29L513.13,125.29L509.75,120.79L506.36,120.79L502.96,125.29L499.54,126.71L496.14,131.67L492.74,133.55L489.34,126.41L485.94,134.55L482.53,140.52L479.13,144.98L475.73,145.51L472.34,150.83L468.95,154.58L465.53,158.44L462.13,160.59L458.74,175.49L451.96,193.33L448.57,195.9L445.18,193.16L441.75,206.86L438.35,207.26L434.96,212.31L431.52,213.93L428.13,212.12L424.74,211.84L421.36,230.61L417.96,241.07L414.57,251.9L411.19,258.45L407.79,261.77L404.4,258.2L401.01,257.33L397.63,260.18L394.23,270.04L390.85,262.87L387.46,264.62L384.06,271.94L380.67,276.1L377.28,284.72L373.89,284.12L370.48,292.49L367.07,290.39L360.25,304.36L356.86,304.36L353.46,319.73L350.07,319.73L346.67,321.38L343.28,315.64L339.89,334.32L336.5,345.85L329.71,355.44L326.32,363.84L322.93,366.02L319.49,379.59L316.09,377.32L312.68,369.21L309.25,369.21L305.82,373.32L299.02,382.28L295.63,375.19L292.24,395.03L288.86,396.23L285.46,404.8L282.06,404.68L278.67,403.68L275.27,406.61L271.88,406.23L268.49,408.47L265.1,414.35L261.7,431.53L258.32,421.36L254.92,433.15L251.53,434.55L248.14,435.45L244.76,450.41L241.37,452.87L237.97,456.64L234.59,455.84L231.19,459.9L227.81,465.95L224.42,463.73L221.02,466.71L217.63,466.71L214.23,466.71L210.84,465.4L207.45,504.48L204.06,498.8L200.65,494.4L197.26,495.17L193.83,500.33L190.41,501.36L187.02,500.92L183.63,502.33L180.2,493.38L173.36,499.69L169.93,501.89L166.55,502.71L163.15,502.71L159.77,507.56L156.33,503.9L149.54,518.82L146.15,520.62L142.75,521.25L139.36,522.62L135.97,522.62L132.58,522.62L129.19,539.72L125.8,542.7L119.02,542.7L115.63,543.76L108.8,543.76L105.41,557.35L101.97,563.74L98.58,566.47L91.8,566.47L88.4,572L3.4,572Z" style="fill: rgb(148, 103, 189); fill-opacity: 0.1; stroke-width: 0;"/></g></g><g class="errorbars"/><g class="lines"><path class="js-line" d="M3.4,572L88.4,572L91.8,566.47L98.58,566.47L101.97,563.74L105.41,557.35L108.8,543.76L115.63,543.76L119.02,542.7L125.8,542.7L129.19,539.72L132.58,522.62L135.97,522.62L139.36,522.62L142.75,521.25L146.15,520.62L149.54,518.82L156.33,503.9L159.77,507.56L163.15,502.71L166.55,502.71L169.93,501.89L173.36,499.69L180.2,493.38L183.63,502.33L187.02,500.92L190.41,501.36L193.83,500.33L197.26,495.17L200.65,494.4L204.06,498.8L207.45,504.48L210.84,465.4L214.23,466.71L217.63,466.71L221.02,466.71L224.42,463.73L227.81,465.95L231.19,459.9L234.59,455.84L237.97,456.64L241.37,452.87L244.76,450.41L248.14,435.45L251.53,434.55L254.92,433.15L258.32,421.36L261.7,431.53L265.1,414.35L268.49,408.47L271.88,406.23L275.27,406.61L278.67,403.68L282.06,404.68L285.46,404.8L288.86,396.23L292.24,395.03L295.63,375.19L299.02,382.28L305.82,373.32L309.25,369.21L312.68,369.21L316.09,377.32L319.49,379.59L322.93,366.02L326.32,363.84L329.71,355.44L336.5,345.85L339.89,334.32L343.28,315.64L346.67,321.38L350.07,319.73L353.46,319.73L356.86,304.36L360.25,304.36L367.07,290.39L370.48,292.49L373.89,284.12L377.28,284.72L380.67,276.1L384.06,271.94L387.46,264.62L390.85,262.87L394.23,270.04L397.63,260.18L401.01,257.33L404.4,258.2L407.79,261.77L411.19,258.45L414.57,251.9L417.96,241.07L421.36,230.61L424.74,211.84L428.13,212.12L431.52,213.93L434.96,212.31L438.35,207.26L441.75,206.86L445.18,193.16L448.57,195.9L451.96,193.33L458.74,175.49L462.13,160.59L465.53,158.44L468.95,154.58L472.34,150.83L475.73,145.51L479.13,144.98L482.53,140.52L485.94,134.55L489.34,126.41L492.74,133.55L496.14,131.67L499.54,126.71L502.96,125.29L506.36,120.79L509.75,120.79L513.13,125.29L516.53,125.29L523.32,128.56L526.71,131.11L530.11,126.71L533.5,128.06L536.89,119.18L540.28,119.18L547.06,119.4L550.45,121.08L553.85,115.15L557.24,122.34L560.63,124.27L564.06,127.15L567.45,123.5L570.87,117.67L574.27,114.53L577.66,118.07L581.08,118.07L584.47,113.71L587.86,124.5L591.27,128.36L594.66,118.12L598.1,95.31L601.49,95.51L604.93,108.26L608.32,105.99L611.74,109.54L615.13,98.87L618.52,90.94L621.92,95.5L625.31,89.87L628.7,77.52L632.09,69.63L635.48,71.17L638.87,61.67L642.3,58.61L645.68,60.54L649.07,73.41L652.47,76.33L659.3,71.47L662.69,84.42L666.09,84.42L669.47,88.34L672.87,85.69L676.26,86.48L683.05,101.21L686.44,93.56L689.83,95.59" style="vector-effect: none; fill: none; stroke: rgb(171, 99, 250); stroke-opacity: 1; stroke-width: 0px; opacity: 1;"/></g><g class="points"/><g class="text"/></g><g class="trace scatter trace9a9a4c" style="stroke-miterlimit: 2;"><g class="fills"/><g class="errorbars"/><g class="lines"><path class="js-line" d="M3.4,572L88.4,572L91.8,575.26L101.97,575.72L105.41,577.57L108.8,582.08L112.24,582.08L115.63,582.08L119.02,580.87L125.8,580.87L129.19,579.31L132.58,582.79L135.97,582.79L139.36,582.79L142.75,581.89L146.15,580.25L149.54,577.51L156.33,576.54L159.77,577.42L163.15,573.2L166.55,573.2L169.93,571.75L173.36,567.13L176.76,561.6L180.2,559.83L183.63,562.23L187.02,556.82L190.41,554.11L193.83,552.87L197.26,548.95L200.65,547.46L207.45,560.08L210.84,574.19L214.23,575.15L217.63,575.15L221.02,575.15L224.42,573.58L227.81,575.9L231.19,575.15L234.59,570.13L237.97,571.6L241.37,566.28L244.76,564.21L248.14,565.55L251.53,564.18L254.92,556.5L258.32,545.59L265.1,538.98L268.49,524.43L271.88,515.32L275.27,517.21L278.67,506.52L282.06,507.79L285.46,512.21L288.86,500.36L295.63,494.16L299.02,500.69L305.82,482.41L309.25,481.98L312.68,481.98L316.09,492.03L319.49,494.3L322.93,491.98L326.32,482.81L329.71,479.86L333.1,472.95L336.5,455.4L339.89,455.59L343.28,449.3L346.67,450.37L350.07,436.12L353.46,436.12L356.86,433.34L360.25,433.34L363.67,428.31L367.07,404.19L370.48,395.28L373.89,394.57L377.28,389.42L380.67,386.7L384.06,379.5L387.46,375.47L390.85,374.96L394.23,379.13L397.63,373.1L401.01,366.88L404.4,356.93L407.79,357.9L411.19,349.87L414.57,347.34L417.96,349.09L421.36,332.32L424.74,335.19L428.13,319.02L431.52,324.03L434.96,321.1L438.35,319.35L441.75,331.09L445.18,319.82L448.57,326.16L451.96,321.93L455.36,310.94L458.74,303.45L462.13,297.91L465.53,295.52L472.34,294.06L475.73,294.84L479.13,293.1L482.53,279.4L485.94,271.75L489.34,268.55L492.74,247.78L496.14,247.39L499.54,225.11L502.96,215.19L506.36,212.87L509.75,212.87L513.13,215.19L516.53,215.19L523.32,236.89L526.71,236.6L530.11,227.38L533.5,230.58L540.28,230.38L543.67,218.81L547.06,218.81L550.45,246.64L553.85,245.75L557.24,252.18L560.63,254.79L564.06,263.26L567.45,260.1L570.87,252.31L574.27,241.84L577.66,242.84L581.08,242.84L584.47,238.12L587.86,240.94L591.27,241.62L594.66,240.52L598.1,315.53L601.49,313.06L604.93,323.01L608.32,320.74L611.74,330.81L615.13,323.32L618.52,322.17L621.92,324.43L625.31,323.24L632.09,320.78L635.48,321.52L638.87,317.39L642.3,315.92L645.68,316.26L649.07,244.36L655.86,205.15L659.3,198.64L662.69,165.26L666.09,165.26L669.47,168.15L672.87,157.18L676.26,167.74L679.66,167.18L683.05,168.9L686.44,165.21L689.83,165.44" style="vector-effect: none; fill: none; stroke: rgb(255, 161, 90); stroke-opacity: 1; stroke-width: 0px; opacity: 1;"/></g><g class="points"/><g class="text"/></g><g class="trace scatter trace76fc5d" style="stroke-miterlimit: 2; opacity: 1;"><g class="fills"/><g class="errorbars"/><g class="lines"><path class="js-line" d="M0.01,572L91.68,572L95.08,570.87L118.8,570.87L122.2,569.73L125.59,569.73L128.98,568.6L132.4,567.46L135.79,567.46L139.17,567.46L142.57,557.25L149.35,552.71L152.74,543.63L156.14,537.95L159.53,525.47L162.92,522.06L166.33,519.79L169.73,514.12L173.12,510.71L176.51,506.17L179.9,499.37L186.69,482.34L190.12,477.8L193.51,477.8L196.9,476.67L200.32,470.99L203.71,474.4L207.1,476.67L210.5,481.21L213.9,482.34L217.34,477.8L220.73,468.72L224.15,467.59L230.96,476.67L234.37,483.48L237.76,482.34L241.16,480.07L244.54,476.67L247.94,475.53L251.38,478.94L254.78,483.48L258.17,482.34L261.61,485.75L265,478.94L268.4,477.8L271.79,482.34L275.21,481.21L278.63,468.72L282.07,464.18L285.47,451.7L288.9,450.56L292.3,451.7L295.69,463.05L299.08,455.1L302.47,453.97L305.86,451.7L309.25,452.83L312.65,447.16L316.08,452.83L322.86,460.78L326.29,456.24L333.1,469.86L336.49,474.4L339.88,470.99L343.28,465.32L350.07,460.78L353.47,463.05L356.9,461.91L360.29,461.91L363.68,468.72L367.07,470.99L370.47,465.32L373.87,466.45L377.27,475.53L380.66,478.94L384.06,472.13L387.48,475.53L390.87,482.34L394.29,484.61L397.73,477.8L401.12,484.61L404.54,477.8L407.93,476.67L411.33,476.67L414.75,477.8L418.14,474.4L421.53,476.67L428.34,466.45L431.74,465.32L435.15,467.59L438.57,467.59L441.96,470.99L445.35,476.67L448.76,486.88L452.15,489.15L455.55,492.56L458.95,489.15L462.34,483.48L465.78,480.07L472.59,464.18L476.02,466.45L482.81,451.7L486.21,440.35L496.47,417.65L499.87,406.3L503.26,400.63L506.65,397.22L510.1,400.63L513.49,381.33L516.89,373.39L520.28,377.93L523.67,385.87L527.06,374.52L533.86,394.95L537.28,394.95L540.71,393.82L544.15,391.55L547.54,379.06L550.94,375.66L554.33,366.58L557.72,367.71L561.1,359.77L564.49,379.06L567.93,383.6L571.32,376.79L574.72,365.44L578.17,377.93L581.56,376.79L584.95,366.58L588.35,373.39L591.79,376.79L595.18,381.33L598.57,392.68L601.96,394.95L605.35,408.57L615.56,396.09L618.96,389.28L622.35,384.74L625.74,390.41L632.53,376.79L635.96,367.71L639.39,364.31L642.78,365.44L646.18,351.83L649.58,349.56L652.97,346.15L656.37,329.13L659.77,320.05L663.2,323.45L666.59,320.05L670.04,323.45L673.43,329.13L676.81,329.13L680.22,330.26L683.66,332.53L687.05,340.48L690.45,341.61L693.87,341.61" style="vector-effect: none; fill: none; stroke: rgb(140, 86, 75); stroke-opacity: 1; stroke-width: 2.5px; opacity: 1;"/></g><g class="points"/><g class="text"/></g><g class="trace scatter traceec6161" style="stroke-miterlimit: 2;"><g class="fills"><g><path class="js-fill" d="M3.4,572L91.68,572L95.08,575.26L139.17,575.25L142.57,596.31L145.96,595.16L149.35,592.82L152.74,593.33L156.14,589.02L159.53,588.99L162.92,584.27L166.33,580.65L169.73,573.72L173.12,569.26L176.51,562.22L183.29,547.55L186.69,535.58L190.12,525.46L193.51,525.46L196.9,523.42L200.32,514.85L203.71,517.3L207.1,521.15L210.5,518.54L213.9,521.2L217.34,513.55L220.73,517.07L224.15,515.25L227.54,526.29L234.37,537.39L237.76,537.12L241.16,534.59L244.54,536.61L247.94,535.09L251.38,538.56L254.78,546.26L258.17,544.55L261.61,547.62L265,540.27L268.4,539.47L271.79,535.97L275.21,534.91L278.63,521.57L285.47,510.13L288.9,509.49L292.3,511.18L295.69,521.6L299.08,518.1L302.47,516.17L305.86,510.48L309.25,512.85L312.65,506.01L316.08,514.55L319.47,521.55L322.86,524.11L326.29,521.29L329.72,525.36L333.1,536.42L336.49,532.83L339.88,534.19L343.28,530.77L346.67,526.35L350.07,528.22L353.47,531.99L356.9,529.97L360.29,529.97L363.68,537.26L367.07,541.91L370.47,535.35L373.87,536.7L377.27,545.62L380.66,550.84L384.06,541.09L387.48,541.99L390.87,541.83L394.29,541.39L397.73,538.12L404.54,526.75L407.93,525.16L411.33,525.16L414.75,527.59L418.14,520.11L421.53,521.15L424.92,519.34L428.34,511.12L431.74,508.22L435.15,510.69L438.57,510.69L441.96,516.25L445.35,522.53L448.76,531.92L452.15,532.25L455.55,531.52L458.95,530.78L462.34,526.25L465.78,520.15L469.19,518.47L472.59,520.15L476.02,520.36L479.4,520.11L482.81,511.53L489.6,505.82L493.04,494.84L496.47,481.82L499.87,458.36L506.65,442.93L510.1,451.07L513.49,463.03L516.89,449.7L520.28,456.94L523.67,467.89L527.06,460.8L530.47,476.86L533.86,498.86L537.28,498.86L540.71,498.54L544.15,496.05L550.94,490.2L554.33,485.65L557.72,487.4L561.1,474.85L564.49,479.09L567.93,484.62L571.32,476.24L574.72,463.21L578.17,473.97L581.56,471.33L584.95,445.51L588.35,452.11L591.79,453.97L595.18,460.97L598.57,457.62L601.96,458.26L605.35,458.74L608.75,454.64L612.18,456.27L615.56,452.06L618.96,446.27L622.35,447.45L625.74,448.56L629.14,439.87L632.53,425.32L635.96,420.38L639.39,415.06L642.78,416.46L646.18,405.07L649.58,402.01L652.97,399L656.37,386.12L659.77,381.16L663.2,384.77L666.59,379.09L670.04,384.77L673.43,390.33L676.81,390.33L680.22,392.05L683.66,397.03L687.05,405.71L690.45,407.5L693.87,407.5L693.87,275.72L690.45,275.72L687.05,275.24L683.66,268.04L680.22,268.48L676.81,267.93L673.43,267.93L670.04,262.14L666.59,261.01L663.2,262.14L659.77,258.94L656.37,272.13L652.97,293.3L649.58,297.1L646.18,298.58L642.78,314.43L639.39,313.56L635.96,315.05L632.53,328.27L629.14,327.34L625.74,332.27L622.35,322.02L618.96,332.28L615.56,340.12L612.18,342.71L608.75,353.42L605.35,358.4L601.96,331.65L598.57,327.74L595.18,301.69L591.79,299.62L588.35,294.67L584.95,287.65L581.56,282.26L578.17,281.89L574.72,267.68L571.32,277.35L567.93,282.59L564.49,279.04L561.1,244.69L557.72,248.03L554.33,247.51L550.94,261.12L547.54,265.11L544.15,287.04L540.71,289.1L537.28,291.04L533.86,291.04L530.47,292.61L527.06,288.25L523.67,303.86L520.28,298.91L516.89,297.08L513.49,299.64L510.1,350.18L506.65,351.51L503.26,351.43L499.87,354.24L496.47,353.48L493.04,356.35L489.6,358.98L486.21,372.11L482.81,391.87L479.4,396.9L476.02,412.54L472.59,408.21L469.19,425.79L465.78,439.99L462.34,440.7L455.55,453.59L452.15,446.05L448.76,441.84L445.35,430.81L441.96,425.74L438.57,424.49L435.15,424.49L431.74,422.41L428.34,421.78L424.92,422.64L421.53,432.18L418.14,428.69L414.75,428.02L411.33,428.17L404.54,428.86L401.12,437.39L397.73,417.49L394.29,427.83L390.87,422.86L387.48,409.08L384.06,403.17L380.66,407.04L377.27,405.44L373.87,396.2L370.47,395.28L367.07,400.08L363.68,400.18L360.29,393.86L353.47,394.11L350.07,393.33L346.67,399.74L343.28,399.87L336.49,415.97L333.1,403.3L329.72,400.73L326.29,391.19L322.86,397.45L319.47,393.2L312.65,388.3L309.25,392.82L305.86,392.91L302.47,391.76L299.08,392.1L295.69,404.5L292.3,392.21L288.9,391.64L285.47,393.27L282.07,413.25L278.63,415.87L275.21,427.5L271.79,428.71L268.4,416.13L265,417.6L261.61,423.87L258.17,420.13L254.78,420.7L251.38,419.31L247.94,415.98L244.54,416.72L241.16,425.55L234.37,429.57L230.96,421.39L227.54,417.96L224.15,419.93L220.73,420.37L217.34,442.05L213.9,443.49L210.5,443.87L207.1,432.18L203.71,431.49L200.32,427.13L196.9,429.91L193.51,430.14L190.12,430.14L186.69,429.1L183.29,433.02L179.9,443.47L176.51,450.13L169.73,454.52L166.33,458.93L162.92,459.86L159.53,461.94L156.14,486.88L152.74,493.93L149.35,512.59L145.96,514.79L142.57,518.18L139.17,559.67L135.79,559.67L132.4,559.67L128.98,561.55L125.59,563.74L122.2,563.74L118.8,566.47L95.08,566.47L91.68,572L3.4,572Z" style="fill: rgb(140, 86, 75); fill-opacity: 0.1; stroke-width: 0;"/></g></g><g class="errorbars"/><g class="lines"><path class="js-line" d="M3.4,572L91.68,572L95.08,566.47L118.8,566.47L122.2,563.74L125.59,563.74L128.98,561.55L132.4,559.67L135.79,559.67L139.17,559.67L142.57,518.18L145.96,514.79L149.35,512.59L152.74,493.93L156.14,486.88L159.53,461.94L162.92,459.86L166.33,458.93L169.73,454.52L176.51,450.13L179.9,443.47L183.29,433.02L186.69,429.1L190.12,430.14L193.51,430.14L196.9,429.91L200.32,427.13L203.71,431.49L207.1,432.18L210.5,443.87L213.9,443.49L217.34,442.05L220.73,420.37L224.15,419.93L227.54,417.96L230.96,421.39L234.37,429.57L241.16,425.55L244.54,416.72L247.94,415.98L251.38,419.31L254.78,420.7L258.17,420.13L261.61,423.87L265,417.6L268.4,416.13L271.79,428.71L275.21,427.5L278.63,415.87L282.07,413.25L285.47,393.27L288.9,391.64L292.3,392.21L295.69,404.5L299.08,392.1L302.47,391.76L305.86,392.91L309.25,392.82L312.65,388.3L319.47,393.2L322.86,397.45L326.29,391.19L329.72,400.73L333.1,403.3L336.49,415.97L343.28,399.87L346.67,399.74L350.07,393.33L353.47,394.11L360.29,393.86L363.68,400.18L367.07,400.08L370.47,395.28L373.87,396.2L377.27,405.44L380.66,407.04L384.06,403.17L387.48,409.08L390.87,422.86L394.29,427.83L397.73,417.49L401.12,437.39L404.54,428.86L411.33,428.17L414.75,428.02L418.14,428.69L421.53,432.18L424.92,422.64L428.34,421.78L431.74,422.41L435.15,424.49L438.57,424.49L441.96,425.74L445.35,430.81L448.76,441.84L452.15,446.05L455.55,453.59L462.34,440.7L465.78,439.99L469.19,425.79L472.59,408.21L476.02,412.54L479.4,396.9L482.81,391.87L486.21,372.11L489.6,358.98L493.04,356.35L496.47,353.48L499.87,354.24L503.26,351.43L506.65,351.51L510.1,350.18L513.49,299.64L516.89,297.08L520.28,298.91L523.67,303.86L527.06,288.25L530.47,292.61L533.86,291.04L537.28,291.04L540.71,289.1L544.15,287.04L547.54,265.11L550.94,261.12L554.33,247.51L557.72,248.03L561.1,244.69L564.49,279.04L567.93,282.59L571.32,277.35L574.72,267.68L578.17,281.89L581.56,282.26L584.95,287.65L588.35,294.67L591.79,299.62L595.18,301.69L598.57,327.74L601.96,331.65L605.35,358.4L608.75,353.42L612.18,342.71L615.56,340.12L618.96,332.28L622.35,322.02L625.74,332.27L629.14,327.34L632.53,328.27L635.96,315.05L639.39,313.56L642.78,314.43L646.18,298.58L649.58,297.1L652.97,293.3L656.37,272.13L659.77,258.94L663.2,262.14L666.59,261.01L670.04,262.14L673.43,267.93L676.81,267.93L680.22,268.48L683.66,268.04L687.05,275.24L690.45,275.72L693.87,275.72" style="vector-effect: none; fill: none; stroke: rgb(255, 102, 146); stroke-opacity: 1; stroke-width: 0px; opacity: 1;"/></g><g class="points"/><g class="text"/></g><g class="trace scatter tracea309c4" style="stroke-miterlimit: 2;"><g class="fills"/><g class="errorbars"/><g class="lines"><path class="js-line" d="M3.4,572L91.68,572L95.08,575.26L139.17,575.25L142.57,596.31L145.96,595.16L149.35,592.82L152.74,593.33L156.14,589.02L159.53,588.99L162.92,584.27L166.33,580.65L169.73,573.72L173.12,569.26L176.51,562.22L183.29,547.55L186.69,535.58L190.12,525.46L193.51,525.46L196.9,523.42L200.32,514.85L203.71,517.3L207.1,521.15L210.5,518.54L213.9,521.2L217.34,513.55L220.73,517.07L224.15,515.25L227.54,526.29L234.37,537.39L237.76,537.12L241.16,534.59L244.54,536.61L247.94,535.09L251.38,538.56L254.78,546.26L258.17,544.55L261.61,547.62L265,540.27L268.4,539.47L271.79,535.97L275.21,534.91L278.63,521.57L285.47,510.13L288.9,509.49L292.3,511.18L295.69,521.6L299.08,518.1L302.47,516.17L305.86,510.48L309.25,512.85L312.65,506.01L316.08,514.55L319.47,521.55L322.86,524.11L326.29,521.29L329.72,525.36L333.1,536.42L336.49,532.83L339.88,534.19L343.28,530.77L346.67,526.35L350.07,528.22L353.47,531.99L356.9,529.97L360.29,529.97L363.68,537.26L367.07,541.91L370.47,535.35L373.87,536.7L377.27,545.62L380.66,550.84L384.06,541.09L387.48,541.99L390.87,541.83L394.29,541.39L397.73,538.12L404.54,526.75L407.93,525.16L411.33,525.16L414.75,527.59L418.14,520.11L421.53,521.15L424.92,519.34L428.34,511.12L431.74,508.22L435.15,510.69L438.57,510.69L441.96,516.25L445.35,522.53L448.76,531.92L452.15,532.25L455.55,531.52L458.95,530.78L462.34,526.25L465.78,520.15L469.19,518.47L472.59,520.15L476.02,520.36L479.4,520.11L482.81,511.53L489.6,505.82L493.04,494.84L496.47,481.82L499.87,458.36L506.65,442.93L510.1,451.07L513.49,463.03L516.89,449.7L520.28,456.94L523.67,467.89L527.06,460.8L530.47,476.86L533.86,498.86L537.28,498.86L540.71,498.54L544.15,496.05L550.94,490.2L554.33,485.65L557.72,487.4L561.1,474.85L564.49,479.09L567.93,484.62L571.32,476.24L574.72,463.21L578.17,473.97L581.56,471.33L584.95,445.51L588.35,452.11L591.79,453.97L595.18,460.97L598.57,457.62L601.96,458.26L605.35,458.74L608.75,454.64L612.18,456.27L615.56,452.06L618.96,446.27L622.35,447.45L625.74,448.56L629.14,439.87L632.53,425.32L635.96,420.38L639.39,415.06L642.78,416.46L646.18,405.07L649.58,402.01L652.97,399L656.37,386.12L659.77,381.16L663.2,384.77L666.59,379.09L670.04,384.77L673.43,390.33L676.81,390.33L680.22,392.05L683.66,397.03L687.05,405.71L690.45,407.5L693.87,407.5" style="vector-effect: none; fill: none; stroke: rgb(182, 232, 128); stroke-opacity: 1; stroke-width: 0px; opacity: 1;"/></g><g class="points"/><g class="text"/></g><g class="trace scatter trace47b9f7" style="stroke-miterlimit: 2; opacity: 1;"><g class="fills"/><g class="errorbars"/><g class="lines"><path class="js-line" d="M0.01,572L595.78,572L599.18,570.87L602.56,570.87L605.96,569.73L609.35,567.46L612.74,567.46L619.52,567.46L622.91,566.33L633.1,566.33L636.49,565.19L643.28,558.38L646.71,558.38L653.5,558.38L656.89,559.52L660.28,560.65L663.67,560.65L667.06,559.52L670.45,553.84L673.89,554.98L677.29,554.98L684.07,554.98L687.47,556.11L690.86,558.38" style="vector-effect: none; fill: none; stroke: rgb(227, 119, 194); stroke-opacity: 1; stroke-width: 2.5px; opacity: 1;"/></g><g class="points"/><g class="text"/></g><g class="trace scatter trace887005" style="stroke-miterlimit: 2;"><g class="fills"><g><path class="js-fill" d="M3.4,572L595.78,572L599.18,575.26L605.96,575.72L609.35,577.57L633.1,576.83L636.49,575.96L639.88,577.28L643.28,576.81L653.5,576.81L656.89,578.24L663.67,578.47L667.06,577.1L673.89,580.71L677.29,580.71L684.07,580.71L687.47,582.22L690.86,582.63L690.86,534.13L687.47,530L684.07,529.24L680.68,529.24L677.29,529.24L670.45,528.54L667.06,541.93L663.67,542.83L660.28,542.83L656.89,540.79L653.5,539.96L646.71,539.96L643.28,539.96L636.49,554.42L633.1,555.82L622.91,555.82L619.52,557.35L612.74,557.35L609.35,557.35L605.96,563.74L602.56,566.47L599.18,566.47L595.78,572L3.4,572Z" style="fill: rgb(227, 119, 194); fill-opacity: 0.1; stroke-width: 0;"/></g></g><g class="errorbars"/><g class="lines"><path class="js-line" d="M3.4,572L595.78,572L599.18,566.47L602.56,566.47L605.96,563.74L609.35,557.35L612.74,557.35L619.52,557.35L622.91,555.82L633.1,555.82L636.49,554.42L643.28,539.96L646.71,539.96L653.5,539.96L656.89,540.79L660.28,542.83L663.67,542.83L667.06,541.93L670.45,528.54L677.29,529.24L680.68,529.24L684.07,529.24L687.47,530L690.86,534.13" style="vector-effect: none; fill: none; stroke: rgb(254, 203, 82); stroke-opacity: 1; stroke-width: 0px; opacity: 1;"/></g><g class="points"/><g class="text"/></g><g class="trace scatter trace338f06" style="stroke-miterlimit: 2;"><g class="fills"/><g class="errorbars"/><g class="lines"><path class="js-line" d="M3.4,572L595.78,572L599.18,575.26L605.96,575.72L609.35,577.57L633.1,576.83L636.49,575.96L639.88,577.28L643.28,576.81L653.5,576.81L656.89,578.24L663.67,578.47L667.06,577.1L673.89,580.71L677.29,580.71L684.07,580.71L687.47,582.22L690.86,582.63" style="vector-effect: none; fill: none; stroke: rgb(99, 110, 250); stroke-opacity: 1; stroke-width: 0px; opacity: 1;"/></g><g class="points"/><g class="text"/></g></g></g><g class="overplot"/><path class="xlines-above crisp" d="M0,0" style="fill: none;"/><path class="ylines-above crisp" d="M0,0" style="fill: none;"/><g class="overlines-above"/><g class="xaxislayer-above"><g class="xtick"><text text-anchor="middle" x="0" y="603" transform="translate(89,0)" style="font-family: 'Open Sans', verdana, arial, sans-serif; font-size: 30px; fill: rgb(42, 63, 95); fill-opacity: 1; white-space: pre; opacity: 1;">0</text></g><g class="xtick"><text text-anchor="middle" x="0" y="603" style="font-family: 'Open Sans', verdana, arial, sans-serif; font-size: 30px; fill: rgb(42, 63, 95); fill-opacity: 1; white-space: pre; opacity: 1;" transform="translate(427.57,0)">1M</text></g><g class="xtick"><text text-anchor="middle" x="0" y="603" style="font-family: 'Open Sans', verdana, arial, sans-serif; font-size: 30px; fill: rgb(42, 63, 95); fill-opacity: 1; white-space: pre; opacity: 1;" transform="translate(766.14,0)">2M</text></g></g><g class="yaxislayer-above"><g class="ytick"><text text-anchor="end" x="88" y="10.5" transform="translate(0,463.05)" style="font-family: 'Open Sans', verdana, arial, sans-serif; font-size: 30px; fill: rgb(42, 63, 95); fill-opacity: 1; white-space: pre; opacity: 1;">0.2</text></g><g class="ytick"><text text-anchor="end" x="88" y="10.5" style="font-family: 'Open Sans', verdana, arial, sans-serif; font-size: 30px; fill: rgb(42, 63, 95); fill-opacity: 1; white-space: pre; opacity: 1;" transform="translate(0,354.1)">0.4</text></g><g class="ytick"><text text-anchor="end" x="88" y="10.5" style="font-family: 'Open Sans', verdana, arial, sans-serif; font-size: 30px; fill: rgb(42, 63, 95); fill-opacity: 1; white-space: pre; opacity: 1;" transform="translate(0,245.14)">0.6</text></g><g class="ytick"><text text-anchor="end" x="88" y="10.5" style="font-family: 'Open Sans', verdana, arial, sans-serif; font-size: 30px; fill: rgb(42, 63, 95); fill-opacity: 1; white-space: pre; opacity: 1;" transform="translate(0,136.19)">0.8</text></g><g class="ytick"><text text-anchor="end" x="88" y="10.5" style="font-family: 'Open Sans', verdana, arial, sans-serif; font-size: 30px; fill: rgb(42, 63, 95); fill-opacity: 1; white-space: pre; opacity: 1;" transform="translate(0,27.24)">1</text></g></g><g class="overaxes-above"/></g></g><g class="polarlayer"/><g class="smithlayer"/><g class="ternarylayer"/><g class="geolayer"/><g class="funnelarealayer"/><g class="pielayer"/><g class="iciclelayer"/><g class="treemaplayer"/><g class="sunburstlayer"/><g class="glimages"/><defs id="topdefs-99a1b2"><g class="clips"/></defs><g class="layer-above"><g class="imagelayer"/><g class="shapelayer"/></g><g class="infolayer"><g class="g-gtitle"/><g class="g-xtitle" transform="translate(0,-7.7000000000000455)"><text class="xtitle" x="444.5" y="649.7" text-anchor="middle" style="font-family: 'Open Sans', verdana, arial, sans-serif; font-size: 36px; fill: rgb(42, 63, 95); opacity: 1; font-weight: normal; white-space: pre;">Time Steps</text></g><g class="g-ytitle"/></g></svg>