<svg class="main-svg" xmlns="http://www.w3.org/2000/svg" xmlns:xlink="http://www.w3.org/1999/xlink" width="2400" height="1950" style="" viewBox="0 0 800 650"><rect x="0" y="0" width="800" height="650" style="fill: rgb(255, 255, 255); fill-opacity: 1;"/><defs id="defs-dfe8b4"><g class="clips"><clipPath id="clipdfe8b4xyplot" class="plotclip"><rect width="711" height="572"/></clipPath><clipPath class="axesclip" id="clipdfe8b4x"><rect x="89" y="0" width="711" height="650"/></clipPath><clipPath class="axesclip" id="clipdfe8b4y"><rect x="0" y="0" width="800" height="572"/></clipPath><clipPath class="axesclip" id="clipdfe8b4xy"><rect x="89" y="0" width="711" height="572"/></clipPath></g><g class="gradients"/><g class="patterns"/></defs><g class="bglayer"/><g class="layer-below"><g class="imagelayer"/><g class="shapelayer"/></g><g class="cartesianlayer"><g class="subplot xy"><g class="layer-subplot"><g class="shapelayer"/><g class="imagelayer"/></g><g class="minor-gridlayer"><g class="x"/><g class="y"/></g><g class="gridlayer"><g class="x"><path class="xgrid crisp" transform="translate(427.57,0)" d="M0,0v572" style="stroke: rgb(235, 240, 248); stroke-opacity: 1; stroke-width: 1px;"/><path class="xgrid crisp" transform="translate(766.14,0)" d="M0,0v572" style="stroke: rgb(235, 240, 248); stroke-opacity: 1; stroke-width: 1px;"/></g><g class="y"><path class="ygrid crisp" transform="translate(0,463.05)" d="M89,0h711" style="stroke: rgb(235, 240, 248); stroke-opacity: 1; stroke-width: 1px;"/><path class="ygrid crisp" transform="translate(0,354.1)" d="M89,0h711" style="stroke: rgb(235, 240, 248); stroke-opacity: 1; stroke-width: 1px;"/><path class="ygrid crisp" transform="translate(0,245.14)" d="M89,0h711" style="stroke: rgb(235, 240, 248); stroke-opacity: 1; stroke-width: 1px;"/><path class="ygrid crisp" transform="translate(0,136.19)" d="M89,0h711" style="stroke: rgb(235, 240, 248); stroke-opacity: 1; stroke-width: 1px;"/><path class="ygrid crisp" transform="translate(0,27.24)" d="M89,0h711" style="stroke: rgb(235, 240, 248); stroke-opacity: 1; stroke-width: 1px;"/></g></g><g class="zerolinelayer"><path class="xzl zl crisp" transform="translate(89,0)" d="M0,0v572" style="stroke: rgb(235, 240, 248); stroke-opacity: 1; stroke-width: 2px;"/><path class="yzl zl crisp" transform="translate(0,572)" d="M89,0h711" style="stroke: rgb(235, 240, 248); stroke-opacity: 1; stroke-width: 2px;"/></g><path class="xlines-below"/><path class="ylines-below"/><g class="overlines-below"/><g class="xaxislayer-below"/><g class="yaxislayer-below"/><g class="overaxes-below"/><g class="plot" transform="translate(89,0)" clip-path="url(#clipdfe8b4xyplot)"><g class="scatterlayer mlayer"><g class="trace scatter tracec6ff34" style="stroke-miterlimit: 2; opacity: 1;"><g class="fills"/><g class="errorbars"/><g class="lines"><path class="js-line" d="M0.04,350.69L3.43,444.32L6.83,486.88L10.22,469.86L13.63,473.26L17.03,472.69L20.43,482.02L27.21,486.88L30.61,488.58L33.99,493.07L37.4,488.3L40.78,486.88L44.18,471.07L47.58,452.83L50.97,443.75L54.36,424.46L57.75,391.55L64.53,339.34L67.92,314.37L74.71,251.95L78.11,224.71L88.3,136.19L91.7,106.68L95.1,94.2L98.52,86.25L105.3,61.29L108.7,61.29L112.1,59.02L115.49,57.88L118.9,54.48L122.31,53.34L125.71,51.07L129.12,47.67L132.52,47.67L135.91,46.53L139.31,44.26L142.7,44.26L149.49,37.45L152.89,37.45L156.29,35.18L159.69,31.78L163.09,32.91L166.48,31.78L169.88,30.64L173.26,30.64L176.65,30.64L180.06,31.78L183.45,31.78L186.85,30.64L190.25,30.64L193.63,31.78L207.22,31.78L210.63,32.91L214.03,31.78L217.43,31.78L220.83,43.13L224.23,43.13L227.62,44.26L231.01,41.99L234.4,44.26L237.8,45.4L241.19,47.67L244.57,47.67L247.98,48.8L251.37,48.8L258.17,51.07L261.58,54.48L264.97,55.61L268.36,57.88L271.8,48.8L275.19,51.07L281.98,57.88L285.38,57.88L295.57,57.88L298.96,56.75L302.36,56.75L305.76,55.61L309.16,54.48L312.56,52.21L315.94,52.21L319.35,51.07L326.13,46.53L329.52,41.99L339.71,41.99L343.11,40.86L346.5,40.86L349.89,45.4L353.28,45.4L356.69,46.53L360.07,46.53L363.47,45.4L366.87,45.4L370.27,44.26L373.66,44.26L377.07,45.4L380.47,45.4L383.86,43.13L397.43,38.59L400.83,34.05L404.22,35.18L407.6,34.05L410.99,35.18L414.4,34.05L417.79,32.91L421.2,34.05L428,34.05L431.38,35.18L438.18,35.18L441.57,38.59L451.75,41.99L455.14,40.86L458.53,41.99L461.93,40.86L468.73,40.86L472.14,39.72L475.53,46.53L478.92,46.53L492.51,41.99L495.91,43.13L499.31,43.13L502.75,44.26L509.54,44.26L512.93,45.4L516.33,49.94L519.73,49.94L523.12,49.94L526.52,43.13L529.93,57.88L533.34,80.58L536.74,96.47L540.14,101.01L543.54,101.01L546.98,99.87L553.77,104.41L557.17,111.22L563.98,111.22L567.37,113.49L574.16,113.49L577.55,116.9L580.96,101.01L584.36,78.31L587.75,62.42L591.16,57.88L594.6,57.88L598.04,60.15L601.43,57.88L604.83,54.48L608.23,47.67L611.63,46.53L615.03,45.4L618.42,38.59L621.82,38.59L625.21,39.72L628.6,36.32L632,36.32L635.4,38.59L638.81,38.59L642.2,38.59L645.6,37.45L649,34.05L652.43,34.05L655.83,34.05L659.22,36.32L662.66,38.59L666.06,39.72L669.45,41.99L672.86,43.13L676.25,46.53L679.66,47.67L683.08,48.8L686.48,46.53L689.89,49.94L693.28,49.94" style="vector-effect: none; fill: none; stroke: rgb(31, 119, 180); stroke-opacity: 1; stroke-width: 2.5px; opacity: 1;"/></g><g class="points"/><g class="text"/></g><g class="trace scatter tracec04596" style="stroke-miterlimit: 2;"><g class="fills"><g><path class="js-fill" d="M3.43,576.74L6.83,606.05L10.22,572.94L17.03,552.85L20.43,559.23L27.21,554.44L30.61,552.51L33.99,555.52L37.4,550.09L40.78,546.26L44.18,553.25L50.97,564.11L54.36,551.64L57.75,539.93L61.14,538.44L64.53,523.67L67.92,505.02L78.11,404.28L81.51,361.4L84.9,302.7L88.3,257.39L91.7,188.24L95.1,163.04L98.52,148.92L101.91,127.01L105.3,83.58L108.7,83.58L115.49,82.13L118.9,76.58L122.31,76.42L125.71,74.97L129.12,68.22L132.52,68.22L139.31,64.61L142.7,64.61L149.49,52.95L152.89,52.95L156.29,49.38L159.69,39.57L163.09,41.22L166.48,39.57L169.88,37.69L173.26,37.69L176.65,37.69L180.06,41.88L183.45,41.88L186.85,40.19L190.25,40.19L193.63,41.88L207.22,41.88L210.63,43.42L214.03,41.88L217.43,41.88L220.83,86.99L224.23,86.99L227.62,87.9L231.01,85.57L234.4,87.9L237.8,88.78L241.19,90.93L244.57,90.93L247.98,91.71L251.37,91.71L258.17,93.17L261.58,98.02L264.97,98.61L268.36,100.17L271.8,66.38L275.19,67.85L278.58,74.62L281.98,77.4L309.16,77.5L312.56,72.42L315.94,72.42L319.35,71.21L326.13,67.74L329.52,58.85L339.71,58.85L343.11,56.88L346.5,56.88L349.89,66.21L360.07,66.74L363.47,65.19L380.47,65.19L383.86,60.71L387.24,58.85L390.64,58.12L397.43,56.4L400.83,42.68L404.22,43.97L407.6,42.68L410.99,43.97L414.4,42.68L417.79,41.22L421.2,42.68L428,42.68L431.38,43.97L438.18,43.97L441.57,52.49L451.75,54.64L455.14,54.04L458.53,54.64L461.93,54.04L472.14,53.32L475.53,72.96L482.31,72.29L485.7,71.56L489.11,70.78L492.51,68.42L495.91,70.02L499.31,70.02L502.75,71.56L506.15,71.56L512.93,72.29L516.33,79.19L523.12,79.19L526.52,62.92L533.34,180.23L536.74,205.56L540.14,208.42L543.54,208.42L546.98,207.82L550.38,209.19L553.77,210.89L557.17,215.66L563.98,215.66L567.37,217.93L574.16,217.93L577.55,219.13L580.96,196.81L584.36,141.02L587.75,99.08L591.16,94.39L594.6,94.39L598.04,96.81L601.43,94.39L604.83,89.6L608.23,76.59L611.63,75.92L615.03,75.21L618.42,57.53L621.82,57.53L625.21,58.44L628.6,51.9L632,51.9L635.4,55.2L638.81,55.2L642.2,55.2L645.6,52.95L649,44.81L652.43,44.81L655.83,44.81L659.22,48.97L662.66,52.49L666.06,53.32L669.45,56.19L672.86,56.73L676.25,65.69L679.66,66.09L683.08,66.38L686.48,64.58L689.89,68.88L693.28,68.88L693.28,30.99L689.89,30.99L686.48,28.48L683.08,31.22L676.25,27.37L672.86,29.53L662.66,24.69L659.22,23.66L649,23.28L645.6,21.96L635.4,21.97L632,20.73L625.21,21L621.82,19.64L618.42,19.64L615.03,15.58L608.23,18.75L604.83,19.35L598.04,23.49L594.6,21.37L591.16,21.37L587.75,25.76L584.36,15.59L580.96,5.21L577.55,14.66L574.16,9.05L567.37,9.05L563.98,6.78L557.17,6.78L553.77,-2.07L550.38,-4.91L546.98,-8.08L543.54,-6.4L540.14,-6.4L533.34,-19.07L529.93,-2.89L526.52,23.33L523.12,20.69L519.73,20.69L516.33,20.69L512.93,18.51L509.54,16.96L506.15,16.96L502.75,16.96L492.51,15.57L489.11,15.48L478.92,20.11L475.53,20.11L472.14,26.12L468.73,27.67L461.93,27.67L458.53,29.34L455.14,27.67L451.75,29.34L441.57,24.69L438.18,26.39L431.38,26.39L428,25.41L421.2,25.41L417.79,24.61L414.4,25.41L410.99,26.39L407.6,25.41L404.22,26.39L400.83,25.41L397.43,20.77L390.64,23.59L387.24,25.13L377.07,25.6L373.66,23.91L370.27,23.91L366.87,25.6L356.69,26.32L353.28,24.58L329.52,25.13L326.13,25.32L319.35,30.93L315.94,32L312.56,32L309.16,31.46L305.76,33.63L302.36,35.93L298.96,35.93L295.57,38.36L281.98,38.36L278.58,34.33L275.19,34.29L271.8,31.22L268.36,15.59L264.97,12.61L254.78,7.42L251.37,5.89L247.98,5.89L244.57,4.41L241.19,4.41L237.8,2.01L234.4,0.62L231.01,-1.58L227.62,0.62L224.23,-0.73L220.83,-0.73L217.43,21.67L210.63,22.41L207.22,21.67L180.06,21.67L176.65,23.59L173.26,23.59L169.88,23.59L163.09,24.61L159.69,23.99L156.29,20.99L152.89,21.96L149.49,21.96L146.09,22.43L142.7,23.91L139.31,23.91L135.91,26.32L132.52,27.12L125.71,27.17L122.31,30.26L112.1,35.06L108.7,39L105.3,39L101.91,20.53L98.52,23.58L95.1,25.36L91.7,25.12L88.3,14.99L84.9,19.62L81.51,24.47L78.11,45.15L74.71,62.69L67.92,123.73L64.53,155.01L57.75,243.17L54.36,297.28L50.97,323.4L47.58,346.71L40.78,427.5L37.4,426.51L33.99,430.63L30.61,424.66L23.82,412.85L20.43,404.8L17.03,392.54L13.63,383.66L10.22,366.77L6.83,367.71L3.43,311.91Z" style="fill: rgb(31, 119, 180); fill-opacity: 0.1; stroke-width: 0;"/></g></g><g class="errorbars"/><g class="lines"><path class="js-line" d="M3.43,311.91L6.83,367.71L10.22,366.77L13.63,383.66L17.03,392.54L20.43,404.8L23.82,412.85L30.61,424.66L33.99,430.63L37.4,426.51L40.78,427.5L47.58,346.71L50.97,323.4L54.36,297.28L57.75,243.17L64.53,155.01L67.92,123.73L74.71,62.69L78.11,45.15L81.51,24.47L84.9,19.62L88.3,14.99L91.7,25.12L95.1,25.36L98.52,23.58L101.91,20.53L105.3,39L108.7,39L112.1,35.06L122.31,30.26L125.71,27.17L132.52,27.12L135.91,26.32L139.31,23.91L142.7,23.91L146.09,22.43L149.49,21.96L152.89,21.96L156.29,20.99L159.69,23.99L163.09,24.61L169.88,23.59L173.26,23.59L176.65,23.59L180.06,21.67L207.22,21.67L210.63,22.41L217.43,21.67L220.83,-0.73L224.23,-0.73L227.62,0.62L231.01,-1.58L234.4,0.62L237.8,2.01L241.19,4.41L244.57,4.41L247.98,5.89L251.37,5.89L254.78,7.42L264.97,12.61L268.36,15.59L271.8,31.22L275.19,34.29L278.58,34.33L281.98,38.36L295.57,38.36L298.96,35.93L302.36,35.93L305.76,33.63L309.16,31.46L312.56,32L315.94,32L319.35,30.93L326.13,25.32L329.52,25.13L353.28,24.58L356.69,26.32L366.87,25.6L370.27,23.91L373.66,23.91L377.07,25.6L387.24,25.13L390.64,23.59L397.43,20.77L400.83,25.41L404.22,26.39L407.6,25.41L410.99,26.39L414.4,25.41L417.79,24.61L421.2,25.41L428,25.41L431.38,26.39L438.18,26.39L441.57,24.69L451.75,29.34L455.14,27.67L458.53,29.34L461.93,27.67L468.73,27.67L472.14,26.12L475.53,20.11L478.92,20.11L489.11,15.48L492.51,15.57L502.75,16.96L506.15,16.96L509.54,16.96L512.93,18.51L516.33,20.69L519.73,20.69L523.12,20.69L526.52,23.33L529.93,-2.89L533.34,-19.07L540.14,-6.4L543.54,-6.4L546.98,-8.08L550.38,-4.91L553.77,-2.07L557.17,6.78L563.98,6.78L567.37,9.05L574.16,9.05L577.55,14.66L580.96,5.21L584.36,15.59L587.75,25.76L591.16,21.37L594.6,21.37L598.04,23.49L604.83,19.35L608.23,18.75L615.03,15.58L618.42,19.64L621.82,19.64L625.21,21L632,20.73L635.4,21.97L645.6,21.96L649,23.28L659.22,23.66L662.66,24.69L672.86,29.53L676.25,27.37L683.08,31.22L686.48,28.48L689.89,30.99L693.28,30.99" style="vector-effect: none; fill: none; stroke: rgb(239, 85, 59); stroke-opacity: 1; stroke-width: 0px; opacity: 1;"/></g><g class="points"/><g class="text"/></g><g class="trace scatter tracec7ce3f" style="stroke-miterlimit: 2;"><g class="fills"/><g class="errorbars"/><g class="lines"><path class="js-line" d="M3.43,576.74L6.83,606.05L10.22,572.94L17.03,552.85L20.43,559.23L27.21,554.44L30.61,552.51L33.99,555.52L37.4,550.09L40.78,546.26L44.18,553.25L50.97,564.11L54.36,551.64L57.75,539.93L61.14,538.44L64.53,523.67L67.92,505.02L78.11,404.28L81.51,361.4L84.9,302.7L88.3,257.39L91.7,188.24L95.1,163.04L98.52,148.92L101.91,127.01L105.3,83.58L108.7,83.58L115.49,82.13L118.9,76.58L122.31,76.42L125.71,74.97L129.12,68.22L132.52,68.22L139.31,64.61L142.7,64.61L149.49,52.95L152.89,52.95L156.29,49.38L159.69,39.57L163.09,41.22L166.48,39.57L169.88,37.69L173.26,37.69L176.65,37.69L180.06,41.88L183.45,41.88L186.85,40.19L190.25,40.19L193.63,41.88L207.22,41.88L210.63,43.42L214.03,41.88L217.43,41.88L220.83,86.99L224.23,86.99L227.62,87.9L231.01,85.57L234.4,87.9L237.8,88.78L241.19,90.93L244.57,90.93L247.98,91.71L251.37,91.71L258.17,93.17L261.58,98.02L264.97,98.61L268.36,100.17L271.8,66.38L275.19,67.85L278.58,74.62L281.98,77.4L309.16,77.5L312.56,72.42L315.94,72.42L319.35,71.21L326.13,67.74L329.52,58.85L339.71,58.85L343.11,56.88L346.5,56.88L349.89,66.21L360.07,66.74L363.47,65.19L380.47,65.19L383.86,60.71L387.24,58.85L390.64,58.12L397.43,56.4L400.83,42.68L404.22,43.97L407.6,42.68L410.99,43.97L414.4,42.68L417.79,41.22L421.2,42.68L428,42.68L431.38,43.97L438.18,43.97L441.57,52.49L451.75,54.64L455.14,54.04L458.53,54.64L461.93,54.04L472.14,53.32L475.53,72.96L482.31,72.29L485.7,71.56L489.11,70.78L492.51,68.42L495.91,70.02L499.31,70.02L502.75,71.56L506.15,71.56L512.93,72.29L516.33,79.19L523.12,79.19L526.52,62.92L533.34,180.23L536.74,205.56L540.14,208.42L543.54,208.42L546.98,207.82L550.38,209.19L553.77,210.89L557.17,215.66L563.98,215.66L567.37,217.93L574.16,217.93L577.55,219.13L580.96,196.81L584.36,141.02L587.75,99.08L591.16,94.39L594.6,94.39L598.04,96.81L601.43,94.39L604.83,89.6L608.23,76.59L611.63,75.92L615.03,75.21L618.42,57.53L621.82,57.53L625.21,58.44L628.6,51.9L632,51.9L635.4,55.2L638.81,55.2L642.2,55.2L645.6,52.95L649,44.81L652.43,44.81L655.83,44.81L659.22,48.97L662.66,52.49L666.06,53.32L669.45,56.19L672.86,56.73L676.25,65.69L679.66,66.09L683.08,66.38L686.48,64.58L689.89,68.88L693.28,68.88" style="vector-effect: none; fill: none; stroke: rgb(0, 204, 150); stroke-opacity: 1; stroke-width: 0px; opacity: 1;"/></g><g class="points"/><g class="text"/></g><g class="trace scatter trace191356" style="stroke-miterlimit: 2; opacity: 1;"><g class="fills"/><g class="errorbars"/><g class="lines"><path class="js-line" d="M0.01,572L285.35,572L288.77,569.73L292.17,569.73L295.56,568.6L298.95,568.6L302.34,567.46L305.74,566.33L309.15,564.06L322.79,554.98L326.18,554.98L332.98,554.98L336.38,553.84L339.78,556.11L343.18,556.11L349.97,553.84L353.37,553.84L360.16,553.84L363.55,551.57L366.95,549.3L370.36,551.57L373.75,553.84L377.18,553.84L390.75,553.84L394.14,552.71L400.94,545.9L404.35,537.95L407.74,528.87L411.17,528.87L414.58,531.14L417.99,525.47L421.4,517.52L424.78,514.12L428.18,512.98L431.58,510.71L435.01,508.44L438.42,501.63L445.23,490.29L448.64,488.02L452.07,483.48L455.48,476.67L458.87,480.07L462.26,476.67L465.65,474.4L469.04,482.34L472.44,478.94L475.85,470.99L479.27,465.32L482.67,466.45L486.09,465.32L489.48,468.72L492.88,461.91L496.3,458.51L499.7,450.56L503.13,446.02L506.53,459.64L509.91,463.05L513.34,463.05L516.76,451.7L520.16,443.75L523.56,442.62L530.35,430.13L533.75,417.65L537.15,414.25L540.56,404.03L547.37,404.03L550.79,405.17L554.2,409.71L557.61,398.36L564.46,384.74L567.89,393.82L571.3,389.28L574.7,392.68L578.1,406.3L581.54,407.44L584.94,417.65L588.33,415.38L591.74,419.92L595.13,408.57L598.54,400.63L601.95,402.9L608.75,413.11L612.16,411.98L615.57,413.11L618.99,404.03L622.4,410.84L625.79,405.17L629.21,388.14L632.6,387.01L635.99,373.39L639.38,364.31L642.78,349.56L646.17,349.56L649.57,340.48L653,327.99L656.39,306.43L659.78,314.37L666.59,304.16L670,303.02L673.41,286L676.82,281.46L680.22,284.87L683.65,278.06L687.06,276.92L690.46,268.98L693.86,289.4" style="vector-effect: none; fill: none; stroke: rgb(255, 127, 14); stroke-opacity: 1; stroke-width: 2.5px; opacity: 1;"/></g><g class="points"/><g class="text"/></g><g class="trace scatter trace91efe6" style="stroke-miterlimit: 2;"><g class="fills"><g><path class="js-fill" d="M3.42,572L285.35,572L288.77,578.52L298.95,578.14L302.34,577.57L315.96,574.56L319.39,572.83L322.79,570.74L326.18,570.74L332.98,570.74L336.38,568.89L339.78,571.16L343.18,571.16L346.57,570.74L349.97,568.89L360.16,568.89L363.55,571.09L366.95,572.2L370.36,574.95L373.75,577.45L377.18,577.45L390.75,577.45L394.14,575.79L397.55,577.84L400.94,576.67L404.35,579.65L407.74,580.29L411.17,580.29L414.58,582.13L417.99,583.9L421.4,577.26L424.78,571.96L428.18,569.76L435.01,561.3L438.42,554.64L445.23,537.22L448.64,535.94L452.07,532.98L455.48,538.65L458.87,540.02L462.26,534.5L465.65,530.29L469.04,538.24L472.44,538.21L475.85,532.19L479.27,521.95L482.67,524.79L486.09,522.31L489.48,526.44L496.3,520.78L499.7,520.72L503.13,519.33L506.53,529.48L509.91,534.64L513.34,534.64L516.76,529.57L520.16,518.2L523.56,517.88L526.95,519.21L530.35,513.95L533.75,495.26L537.15,488.02L540.56,475.06L550.79,475.12L554.2,479.27L561.03,442.13L564.46,427.9L567.89,439.71L571.3,435.88L574.7,440.78L578.1,455.08L581.54,455.87L584.94,472.8L588.33,468.91L591.74,470.37L595.13,481.6L598.54,478.76L601.95,479.97L605.37,491.17L608.75,495.18L612.16,494.07L615.57,494.92L618.99,486.65L622.4,492.96L625.79,488.37L629.21,475.71L632.6,474.49L635.99,454.18L639.38,445.24L642.78,439.51L646.17,439.51L649.57,441.97L653,435.02L656.39,403.97L659.78,426.9L666.59,411.34L670,409.96L673.41,387.57L676.82,381.45L680.22,384.52L683.65,373.81L687.06,372.29L690.46,367.24L693.86,402.47L693.86,176.34L690.46,170.72L687.06,181.56L683.65,182.3L680.22,185.21L676.82,181.47L673.41,184.43L670,196.09L666.59,196.98L663.17,199.73L659.78,201.84L656.39,208.89L653,220.97L646.17,259.6L642.78,259.6L639.38,283.38L635.99,292.6L632.6,299.52L629.21,300.58L625.79,321.97L622.4,328.73L618.99,321.41L615.57,331.3L612.16,329.88L608.75,331.05L605.37,325.97L601.95,325.83L598.54,322.49L595.13,335.55L591.74,369.47L588.33,361.86L584.94,362.5L581.54,359L578.1,357.52L574.7,344.59L571.3,342.67L567.89,347.93L564.46,341.57L561.03,340.96L557.61,337.93L554.2,340.15L550.79,335.21L547.37,333L543.95,333L540.56,333L537.15,340.47L533.75,340.05L526.95,352.41L523.56,367.36L520.16,369.31L516.76,373.83L513.34,391.46L509.91,391.46L506.53,389.81L503.13,372.72L499.7,380.41L496.3,396.23L492.88,400.58L489.48,411L486.09,408.32L482.67,408.12L479.27,408.69L475.85,409.79L472.44,419.66L469.04,426.44L465.65,418.5L462.26,418.83L458.87,420.12L455.48,414.68L452.07,433.97L448.64,440.1L445.23,443.35L441.84,446.59L438.42,448.63L435.01,455.59L424.78,456.28L421.4,457.78L417.99,467.04L414.58,480.15L411.17,477.45L407.74,477.45L404.35,496.25L400.94,515.13L397.55,520.77L394.14,529.63L377.18,530.23L373.75,530.23L370.36,528.19L366.95,526.4L363.55,532.05L360.16,538.8L356.76,538.8L353.37,538.8L346.57,539.22L343.18,541.07L339.78,541.07L336.38,538.8L326.18,539.22L322.79,539.22L319.39,541.66L315.96,544.47L309.15,551.4L305.74,555.82L302.34,557.35L298.95,559.05L295.56,559.05L292.17,560.94L288.77,560.94L285.35,572L3.42,572Z" style="fill: rgb(255, 127, 14); fill-opacity: 0.1; stroke-width: 0;"/></g></g><g class="errorbars"/><g class="lines"><path class="js-line" d="M3.42,572L285.35,572L288.77,560.94L292.17,560.94L295.56,559.05L298.95,559.05L302.34,557.35L305.74,555.82L309.15,551.4L315.96,544.47L319.39,541.66L322.79,539.22L326.18,539.22L336.38,538.8L339.78,541.07L343.18,541.07L346.57,539.22L353.37,538.8L356.76,538.8L360.16,538.8L363.55,532.05L366.95,526.4L370.36,528.19L373.75,530.23L377.18,530.23L394.14,529.63L397.55,520.77L400.94,515.13L404.35,496.25L407.74,477.45L411.17,477.45L414.58,480.15L417.99,467.04L421.4,457.78L424.78,456.28L435.01,455.59L438.42,448.63L441.84,446.59L445.23,443.35L448.64,440.1L452.07,433.97L455.48,414.68L458.87,420.12L462.26,418.83L465.65,418.5L469.04,426.44L472.44,419.66L475.85,409.79L479.27,408.69L482.67,408.12L486.09,408.32L489.48,411L492.88,400.58L496.3,396.23L499.7,380.41L503.13,372.72L506.53,389.81L509.91,391.46L513.34,391.46L516.76,373.83L520.16,369.31L523.56,367.36L526.95,352.41L533.75,340.05L537.15,340.47L540.56,333L543.95,333L547.37,333L550.79,335.21L554.2,340.15L557.61,337.93L561.03,340.96L564.46,341.57L567.89,347.93L571.3,342.67L574.7,344.59L578.1,357.52L581.54,359L584.94,362.5L588.33,361.86L591.74,369.47L595.13,335.55L598.54,322.49L601.95,325.83L605.37,325.97L608.75,331.05L612.16,329.88L615.57,331.3L618.99,321.41L622.4,328.73L625.79,321.97L629.21,300.58L632.6,299.52L635.99,292.6L639.38,283.38L642.78,259.6L646.17,259.6L653,220.97L656.39,208.89L659.78,201.84L663.17,199.73L666.59,196.98L670,196.09L673.41,184.43L676.82,181.47L680.22,185.21L683.65,182.3L687.06,181.56L690.46,170.72L693.86,176.34" style="vector-effect: none; fill: none; stroke: rgb(255, 161, 90); stroke-opacity: 1; stroke-width: 0px; opacity: 1;"/></g><g class="points"/><g class="text"/></g><g class="trace scatter trace153c81" style="stroke-miterlimit: 2;"><g class="fills"/><g class="errorbars"/><g class="lines"><path class="js-line" d="M3.42,572L285.35,572L288.77,578.52L298.95,578.14L302.34,577.57L315.96,574.56L319.39,572.83L322.79,570.74L326.18,570.74L332.98,570.74L336.38,568.89L339.78,571.16L343.18,571.16L346.57,570.74L349.97,568.89L360.16,568.89L363.55,571.09L366.95,572.2L370.36,574.95L373.75,577.45L377.18,577.45L390.75,577.45L394.14,575.79L397.55,577.84L400.94,576.67L404.35,579.65L407.74,580.29L411.17,580.29L414.58,582.13L417.99,583.9L421.4,577.26L424.78,571.96L428.18,569.76L435.01,561.3L438.42,554.64L445.23,537.22L448.64,535.94L452.07,532.98L455.48,538.65L458.87,540.02L462.26,534.5L465.65,530.29L469.04,538.24L472.44,538.21L475.85,532.19L479.27,521.95L482.67,524.79L486.09,522.31L489.48,526.44L496.3,520.78L499.7,520.72L503.13,519.33L506.53,529.48L509.91,534.64L513.34,534.64L516.76,529.57L520.16,518.2L523.56,517.88L526.95,519.21L530.35,513.95L533.75,495.26L537.15,488.02L540.56,475.06L550.79,475.12L554.2,479.27L561.03,442.13L564.46,427.9L567.89,439.71L571.3,435.88L574.7,440.78L578.1,455.08L581.54,455.87L584.94,472.8L588.33,468.91L591.74,470.37L595.13,481.6L598.54,478.76L601.95,479.97L605.37,491.17L608.75,495.18L612.16,494.07L615.57,494.92L618.99,486.65L622.4,492.96L625.79,488.37L629.21,475.71L632.6,474.49L635.99,454.18L639.38,445.24L642.78,439.51L646.17,439.51L649.57,441.97L653,435.02L656.39,403.97L659.78,426.9L666.59,411.34L670,409.96L673.41,387.57L676.82,381.45L680.22,384.52L683.65,373.81L687.06,372.29L690.46,367.24L693.86,402.47" style="vector-effect: none; fill: none; stroke: rgb(25, 211, 243); stroke-opacity: 1; stroke-width: 0px; opacity: 1;"/></g><g class="points"/><g class="text"/></g></g></g><g class="overplot"/><path class="xlines-above crisp" d="M0,0" style="fill: none;"/><path class="ylines-above crisp" d="M0,0" style="fill: none;"/><g class="overlines-above"/><g class="xaxislayer-above"><g class="xtick"><text text-anchor="middle" x="0" y="603" transform="translate(89,0)" style="font-family: 'Open Sans', verdana, arial, sans-serif; font-size: 30px; fill: rgb(42, 63, 95); fill-opacity: 1; white-space: pre; opacity: 1;">0</text></g><g class="xtick"><text text-anchor="middle" x="0" y="603" style="font-family: 'Open Sans', verdana, arial, sans-serif; font-size: 30px; fill: rgb(42, 63, 95); fill-opacity: 1; white-space: pre; opacity: 1;" transform="translate(427.57,0)">1M</text></g><g class="xtick"><text text-anchor="middle" x="0" y="603" style="font-family: 'Open Sans', verdana, arial, sans-serif; font-size: 30px; fill: rgb(42, 63, 95); fill-opacity: 1; white-space: pre; opacity: 1;" transform="translate(766.14,0)">2M</text></g></g><g class="yaxislayer-above"><g class="ytick"><text text-anchor="end" x="88" y="10.5" transform="translate(0,463.05)" style="font-family: 'Open Sans', verdana, arial, sans-serif; font-size: 30px; fill: rgb(42, 63, 95); fill-opacity: 1; white-space: pre; opacity: 1;">0.2</text></g><g class="ytick"><text text-anchor="end" x="88" y="10.5" style="font-family: 'Open Sans', verdana, arial, sans-serif; font-size: 30px; fill: rgb(42, 63, 95); fill-opacity: 1; white-space: pre; opacity: 1;" transform="translate(0,354.1)">0.4</text></g><g class="ytick"><text text-anchor="end" x="88" y="10.5" style="font-family: 'Open Sans', verdana, arial, sans-serif; font-size: 30px; fill: rgb(42, 63, 95); fill-opacity: 1; white-space: pre; opacity: 1;" transform="translate(0,245.14)">0.6</text></g><g class="ytick"><text text-anchor="end" x="88" y="10.5" style="font-family: 'Open Sans', verdana, arial, sans-serif; font-size: 30px; fill: rgb(42, 63, 95); fill-opacity: 1; white-space: pre; opacity: 1;" transform="translate(0,136.19)">0.8</text></g><g class="ytick"><text text-anchor="end" x="88" y="10.5" style="font-family: 'Open Sans', verdana, arial, sans-serif; font-size: 30px; fill: rgb(42, 63, 95); fill-opacity: 1; white-space: pre; opacity: 1;" transform="translate(0,27.24)">1</text></g></g><g class="overaxes-above"/></g></g><g class="polarlayer"/><g class="smithlayer"/><g class="ternarylayer"/><g class="geolayer"/><g class="funnelarealayer"/><g class="pielayer"/><g class="iciclelayer"/><g class="treemaplayer"/><g class="sunburstlayer"/><g class="glimages"/><defs id="topdefs-dfe8b4"><g class="clips"/></defs><g class="layer-above"><g class="imagelayer"/><g class="shapelayer"/></g><g class="infolayer"><g class="g-gtitle"/><g class="g-xtitle" transform="translate(0,-7.7000000000000455)"><text class="xtitle" x="444.5" y="649.7" text-anchor="middle" style="font-family: 'Open Sans', verdana, arial, sans-serif; font-size: 36px; fill: rgb(42, 63, 95); opacity: 1; font-weight: normal; white-space: pre;">Time Steps</text></g><g class="g-ytitle"/></g></svg>