<svg class="main-svg" xmlns="http://www.w3.org/2000/svg" xmlns:xlink="http://www.w3.org/1999/xlink" width="2400" height="1950" style="" viewBox="0 0 800 650"><rect x="0" y="0" width="800" height="650" style="fill: rgb(255, 255, 255); fill-opacity: 1;"/><defs id="defs-ff0639"><g class="clips"><clipPath id="clipff0639xyplot" class="plotclip"><rect width="711" height="572"/></clipPath><clipPath class="axesclip" id="clipff0639x"><rect x="89" y="0" width="711" height="650"/></clipPath><clipPath class="axesclip" id="clipff0639y"><rect x="0" y="0" width="800" height="572"/></clipPath><clipPath class="axesclip" id="clipff0639xy"><rect x="89" y="0" width="711" height="572"/></clipPath></g><g class="gradients"/><g class="patterns"/></defs><g class="bglayer"/><g class="layer-below"><g class="imagelayer"/><g class="shapelayer"/></g><g class="cartesianlayer"><g class="subplot xy"><g class="layer-subplot"><g class="shapelayer"/><g class="imagelayer"/></g><g class="minor-gridlayer"><g class="x"/><g class="y"/></g><g class="gridlayer"><g class="x"><path class="xgrid crisp" transform="translate(427.57,0)" d="M0,0v572" style="stroke: rgb(235, 240, 248); stroke-opacity: 1; stroke-width: 1px;"/><path class="xgrid crisp" transform="translate(766.14,0)" d="M0,0v572" style="stroke: rgb(235, 240, 248); stroke-opacity: 1; stroke-width: 1px;"/></g><g class="y"><path class="ygrid crisp" transform="translate(0,463.05)" d="M89,0h711" style="stroke: rgb(235, 240, 248); stroke-opacity: 1; stroke-width: 1px;"/><path class="ygrid crisp" transform="translate(0,354.1)" d="M89,0h711" style="stroke: rgb(235, 240, 248); stroke-opacity: 1; stroke-width: 1px;"/><path class="ygrid crisp" transform="translate(0,245.14)" d="M89,0h711" style="stroke: rgb(235, 240, 248); stroke-opacity: 1; stroke-width: 1px;"/><path class="ygrid crisp" transform="translate(0,136.19)" d="M89,0h711" style="stroke: rgb(235, 240, 248); stroke-opacity: 1; stroke-width: 1px;"/><path class="ygrid crisp" transform="translate(0,27.24)" d="M89,0h711" style="stroke: rgb(235, 240, 248); stroke-opacity: 1; stroke-width: 1px;"/></g></g><g class="zerolinelayer"><path class="xzl zl crisp" transform="translate(89,0)" d="M0,0v572" style="stroke: rgb(235, 240, 248); stroke-opacity: 1; stroke-width: 2px;"/><path class="yzl zl crisp" transform="translate(0,572)" d="M89,0h711" style="stroke: rgb(235, 240, 248); stroke-opacity: 1; stroke-width: 2px;"/></g><path class="xlines-below"/><path class="ylines-below"/><g class="overlines-below"/><g class="xaxislayer-below"/><g class="yaxislayer-below"/><g class="overaxes-below"/><g class="plot" transform="translate(89,0)" clip-path="url(#clipff0639xyplot)"><g class="scatterlayer mlayer"><g class="trace scatter tracea2da82" style="stroke-miterlimit: 2; opacity: 1;"><g class="fills"/><g class="errorbars"/><g class="lines"><path class="js-line" d="M0.01,572L27.14,572L30.53,570.3L33.92,570.45L37.31,569.16L40.7,568.07L44.09,568.35L47.48,561.79L50.87,557.25L54.27,543.63L57.65,543.63L61.05,540.22L64.44,533.41L67.82,527.74L71.21,518.66L74.61,517.52L78.01,512.98L81.4,491.42L84.8,478.94L88.19,453.97L91.58,418.79L94.97,404.03L98.36,392.68L101.75,381.33L105.15,385.87L115.31,299.62L118.71,273.52L122.1,249.68L125.48,216.77L128.88,186.13L132.26,181.59L135.66,160.02L139.05,149.81L142.44,149.81L145.83,129.38L152.61,93.06L156,66.96L159.39,62.42L162.78,60.15L166.17,56.75L169.56,52.21L172.95,48.8L176.34,46.53L179.73,45.4L183.12,37.45L186.51,35.18L189.91,35.18L193.29,35.18L196.68,34.05L203.46,31.78L206.86,31.78L210.25,29.51L213.64,29.51L217.02,31.78L220.41,31.78L227.19,31.78L230.58,32.91L233.97,31.78L237.37,32.91L240.75,32.91L244.15,34.05L247.53,35.18L250.92,41.99L254.31,41.99L257.7,40.86L261.09,40.86L264.48,41.99L267.87,39.72L271.26,39.72L274.65,40.86L278.05,40.86L281.43,45.4L284.83,47.67L288.22,46.53L291.61,51.07L295,49.94L298.38,49.94L301.78,44.26L305.16,46.53L315.33,46.53L318.72,48.8L322.11,48.8L325.5,47.67L328.89,48.8L332.29,44.26L335.67,41.99L339.06,41.99L342.45,37.45L345.84,37.45L352.62,35.18L356.01,37.45L359.4,46.53L362.79,47.67L366.18,51.07L369.57,49.94L379.73,49.94L383.13,48.8L386.52,49.94L389.91,49.94L396.69,49.94L400.08,51.07L403.47,52.21L406.86,47.67L410.25,38.59L413.64,37.45L417.03,34.05L420.42,32.91L427.21,32.91L430.6,31.78L434,31.78L437.38,30.64L440.77,30.64L444.17,31.78L447.55,31.78L450.95,30.64L454.34,29.51L457.73,29.51L464.51,29.51L467.9,28.37L471.28,30.64L474.67,31.78L488.23,31.78L491.62,34.05L495.01,32.91L498.4,32.91L501.79,32.91L505.18,36.32L511.97,36.32L515.36,37.45L518.75,46.53L522.14,44.26L525.54,43.13L528.93,45.4L532.32,47.67L535.71,47.67L539.1,47.67L542.49,46.53L552.66,46.53L556.05,43.13L562.84,43.13L566.23,41.99L569.62,32.91L573.01,32.91L576.4,32.91L579.79,30.64L583.17,28.37L586.56,29.51L589.95,35.18L593.34,34.05L603.51,34.05L606.91,35.18L610.3,35.18L613.69,36.32L617.07,37.45L620.46,37.45L634.02,37.45L637.41,36.32L640.81,32.91L644.19,32.91L654.36,32.91L657.76,31.78L664.54,31.78L667.93,46.53L674.71,46.53L678.11,47.67L684.89,47.67L688.27,48.8L691.66,46.53" style="vector-effect: none; fill: none; stroke: rgb(31, 119, 180); stroke-opacity: 1; stroke-width: 2.5px; opacity: 1;"/></g><g class="points"/><g class="text"/></g><g class="trace scatter trace3b9e86" style="stroke-miterlimit: 2;"><g class="fills"><g><path class="js-fill" d="M3.4,572L27.14,572L30.53,575.68L44.09,575.6L47.48,588.16L50.87,587.33L54.27,600.7L57.65,600.7L61.05,597L67.82,586.64L71.21,580.67L74.61,578.63L78.01,572.26L81.4,583.88L84.8,572.37L88.19,572.34L91.58,576.79L94.97,556.96L98.36,546.69L101.75,532.81L105.15,537.93L111.93,492.13L115.31,472.39L122.1,422.39L125.48,373.44L128.88,326.75L132.26,321.74L135.66,291.29L139.05,285.27L142.44,285.27L145.83,255.14L149.22,230.48L152.61,194.98L156,104.85L159.39,96.14L162.78,95.08L166.17,92.26L169.56,86.78L172.95,83.13L176.34,81.1L179.73,80.32L183.12,50L186.51,46.08L193.29,46.08L196.68,44.81L203.46,41.88L206.86,41.88L210.25,35.5L213.64,35.5L217.02,41.88L220.41,41.88L227.19,41.88L230.58,43.42L233.97,41.88L237.37,43.42L240.75,43.42L244.15,44.81L247.53,46.08L250.92,68.42L254.31,68.42L257.7,67.54L261.09,67.54L264.48,68.42L267.87,65.83L271.26,65.83L274.65,66.76L278.05,66.76L281.43,77.22L284.83,79.32L288.22,78.62L291.61,85L298.38,84.39L301.78,70.79L305.16,72.96L308.56,72.96L315.33,72.96L318.72,74.91L328.89,74.91L332.29,63.57L335.67,61.15L339.06,61.15L342.45,50L345.84,50L352.62,47.84L356.01,56.54L359.4,83.98L362.79,84.74L366.18,90.1L369.57,88.9L396.69,88.9L400.08,89.57L403.47,90.2L406.86,84.18L410.25,56.4L413.64,55.42L417.03,42.68L420.42,41.22L427.21,41.22L430.6,39.57L434,39.57L437.38,37.69L440.77,37.69L444.17,39.57L447.55,39.57L450.95,37.69L454.34,35.5L457.73,35.5L464.51,35.5L467.9,32.77L471.28,40.19L474.67,41.88L488.23,41.88L491.62,46.59L495.01,45.23L498.4,45.23L501.79,45.23L505.18,53.18L511.97,53.18L515.36,54.23L518.75,82.85L522.14,80.66L525.54,79.79L528.93,82.06L532.32,84.18L535.71,84.18L539.1,84.18L542.49,82.85L552.66,82.85L556.05,78.64L562.84,78.64L566.23,77.74L569.62,45.23L573.01,45.23L576.4,45.23L579.79,40.19L583.17,32.77L586.56,35.5L589.95,57.35L593.34,56.15L603.51,56.15L606.91,57.35L610.3,57.35L613.69,58.48L617.07,59.56L620.46,59.56L634.02,59.56L637.41,58.48L640.81,43.42L644.19,43.42L654.36,43.42L657.76,41.88L664.54,41.88L667.93,107.87L674.71,107.87L678.11,108.78L684.89,108.78L688.27,109.66L691.66,107.53L691.66,-14.47L688.27,-12.06L684.89,-13.44L678.11,-13.44L674.71,-14.8L667.93,-14.8L664.54,21.67L644.19,22.41L640.81,22.41L637.41,14.15L634.02,15.35L620.46,15.35L617.07,15.35L613.69,14.15L610.3,13.02L606.91,13.02L603.51,11.94L596.73,11.94L593.34,11.94L589.95,13.02L586.56,23.52L583.17,23.98L579.79,21.1L573.01,20.59L569.62,20.59L566.23,6.24L562.84,7.61L556.05,7.61L552.66,10.21L542.49,10.21L539.1,11.15L535.71,11.15L532.32,11.15L528.93,8.73L525.54,6.46L522.14,7.86L518.75,10.21L515.36,20.67L511.97,19.46L505.18,19.46L501.79,20.59L495.01,20.59L491.62,21.5L481.46,21.67L478.07,21.67L471.28,21.1L467.9,23.98L437.38,23.59L434,23.99L420.42,24.61L417.03,25.41L413.64,19.48L410.25,20.77L406.86,11.15L403.47,14.21L400.08,12.57L396.69,10.97L389.91,10.97L386.52,10.97L383.13,9.42L379.73,10.97L369.57,10.97L366.18,12.04L362.79,10.59L359.4,9.09L356.01,18.36L352.62,22.53L349.23,23.66L345.84,24.91L342.45,24.91L339.06,22.83L335.67,22.83L332.29,24.96L325.5,20.98L322.11,22.69L318.72,22.69L315.33,20.11L308.56,20.11L305.16,20.11L298.38,15.49L295,15.49L291.61,17.15L288.22,14.45L284.83,16.01L281.43,13.57L278.05,14.96L274.65,14.96L271.26,13.61L267.87,13.61L264.48,15.57L261.09,14.17L257.7,14.17L254.31,15.57L250.92,15.57L247.53,24.29L244.15,23.28L240.75,22.41L220.41,21.67L217.02,21.67L213.64,23.52L210.25,23.52L206.86,21.67L203.46,21.67L193.29,24.29L189.91,24.29L183.12,24.91L179.73,10.47L176.34,11.96L172.95,14.47L159.39,28.7L156,29.08L152.61,-8.85L149.22,-5.76L142.44,14.35L139.05,14.35L132.26,41.43L128.88,45.5L125.48,60.1L122.1,76.97L118.71,101.48L115.31,126.85L105.15,233.82L101.75,229.86L98.36,238.68L94.97,251.11L91.58,260.78L88.19,335.59L84.8,385.5L81.4,398.97L78.01,453.71L74.61,456.41L71.21,456.65L67.82,468.84L64.44,474.63L61.05,483.44L57.65,486.56L54.27,486.56L50.87,527.16L47.48,535.41L44.09,561.1L40.7,560.61L37.31,562.54L33.92,565.32L30.53,564.91L27.14,572L3.4,572Z" style="fill: rgb(31, 119, 180); fill-opacity: 0.1; stroke-width: 0;"/></g></g><g class="errorbars"/><g class="lines"><path class="js-line" d="M3.4,572L27.14,572L30.53,564.91L33.92,565.32L37.31,562.54L40.7,560.61L44.09,561.1L47.48,535.41L50.87,527.16L54.27,486.56L57.65,486.56L61.05,483.44L64.44,474.63L67.82,468.84L71.21,456.65L74.61,456.41L78.01,453.71L81.4,398.97L84.8,385.5L88.19,335.59L91.58,260.78L94.97,251.11L98.36,238.68L101.75,229.86L105.15,233.82L115.31,126.85L118.71,101.48L122.1,76.97L125.48,60.1L128.88,45.5L132.26,41.43L139.05,14.35L142.44,14.35L149.22,-5.76L152.61,-8.85L156,29.08L159.39,28.7L172.95,14.47L176.34,11.96L179.73,10.47L183.12,24.91L189.91,24.29L193.29,24.29L203.46,21.67L206.86,21.67L210.25,23.52L213.64,23.52L217.02,21.67L220.41,21.67L240.75,22.41L244.15,23.28L247.53,24.29L250.92,15.57L254.31,15.57L257.7,14.17L261.09,14.17L264.48,15.57L267.87,13.61L271.26,13.61L274.65,14.96L278.05,14.96L281.43,13.57L284.83,16.01L288.22,14.45L291.61,17.15L295,15.49L298.38,15.49L305.16,20.11L308.56,20.11L315.33,20.11L318.72,22.69L322.11,22.69L325.5,20.98L332.29,24.96L335.67,22.83L339.06,22.83L342.45,24.91L345.84,24.91L349.23,23.66L352.62,22.53L356.01,18.36L359.4,9.09L362.79,10.59L366.18,12.04L369.57,10.97L379.73,10.97L383.13,9.42L386.52,10.97L389.91,10.97L396.69,10.97L400.08,12.57L403.47,14.21L406.86,11.15L410.25,20.77L413.64,19.48L417.03,25.41L420.42,24.61L434,23.99L437.38,23.59L467.9,23.98L471.28,21.1L478.07,21.67L481.46,21.67L491.62,21.5L495.01,20.59L501.79,20.59L505.18,19.46L511.97,19.46L515.36,20.67L518.75,10.21L522.14,7.86L525.54,6.46L528.93,8.73L532.32,11.15L535.71,11.15L539.1,11.15L542.49,10.21L552.66,10.21L556.05,7.61L562.84,7.61L566.23,6.24L569.62,20.59L573.01,20.59L579.79,21.1L583.17,23.98L586.56,23.52L589.95,13.02L593.34,11.94L596.73,11.94L603.51,11.94L606.91,13.02L610.3,13.02L613.69,14.15L617.07,15.35L620.46,15.35L634.02,15.35L637.41,14.15L640.81,22.41L644.19,22.41L664.54,21.67L667.93,-14.8L674.71,-14.8L678.11,-13.44L684.89,-13.44L688.27,-12.06L691.66,-14.47" style="vector-effect: none; fill: none; stroke: rgb(239, 85, 59); stroke-opacity: 1; stroke-width: 0px; opacity: 1;"/></g><g class="points"/><g class="text"/></g><g class="trace scatter traced135b4" style="stroke-miterlimit: 2;"><g class="fills"/><g class="errorbars"/><g class="lines"><path class="js-line" d="M3.4,572L27.14,572L30.53,575.68L44.09,575.6L47.48,588.16L50.87,587.33L54.27,600.7L57.65,600.7L61.05,597L67.82,586.64L71.21,580.67L74.61,578.63L78.01,572.26L81.4,583.88L84.8,572.37L88.19,572.34L91.58,576.79L94.97,556.96L98.36,546.69L101.75,532.81L105.15,537.93L111.93,492.13L115.31,472.39L122.1,422.39L125.48,373.44L128.88,326.75L132.26,321.74L135.66,291.29L139.05,285.27L142.44,285.27L145.83,255.14L149.22,230.48L152.61,194.98L156,104.85L159.39,96.14L162.78,95.08L166.17,92.26L169.56,86.78L172.95,83.13L176.34,81.1L179.73,80.32L183.12,50L186.51,46.08L193.29,46.08L196.68,44.81L203.46,41.88L206.86,41.88L210.25,35.5L213.64,35.5L217.02,41.88L220.41,41.88L227.19,41.88L230.58,43.42L233.97,41.88L237.37,43.42L240.75,43.42L244.15,44.81L247.53,46.08L250.92,68.42L254.31,68.42L257.7,67.54L261.09,67.54L264.48,68.42L267.87,65.83L271.26,65.83L274.65,66.76L278.05,66.76L281.43,77.22L284.83,79.32L288.22,78.62L291.61,85L298.38,84.39L301.78,70.79L305.16,72.96L308.56,72.96L315.33,72.96L318.72,74.91L328.89,74.91L332.29,63.57L335.67,61.15L339.06,61.15L342.45,50L345.84,50L352.62,47.84L356.01,56.54L359.4,83.98L362.79,84.74L366.18,90.1L369.57,88.9L396.69,88.9L400.08,89.57L403.47,90.2L406.86,84.18L410.25,56.4L413.64,55.42L417.03,42.68L420.42,41.22L427.21,41.22L430.6,39.57L434,39.57L437.38,37.69L440.77,37.69L444.17,39.57L447.55,39.57L450.95,37.69L454.34,35.5L457.73,35.5L464.51,35.5L467.9,32.77L471.28,40.19L474.67,41.88L488.23,41.88L491.62,46.59L495.01,45.23L498.4,45.23L501.79,45.23L505.18,53.18L511.97,53.18L515.36,54.23L518.75,82.85L522.14,80.66L525.54,79.79L528.93,82.06L532.32,84.18L535.71,84.18L539.1,84.18L542.49,82.85L552.66,82.85L556.05,78.64L562.84,78.64L566.23,77.74L569.62,45.23L573.01,45.23L576.4,45.23L579.79,40.19L583.17,32.77L586.56,35.5L589.95,57.35L593.34,56.15L603.51,56.15L606.91,57.35L610.3,57.35L613.69,58.48L617.07,59.56L620.46,59.56L634.02,59.56L637.41,58.48L640.81,43.42L644.19,43.42L654.36,43.42L657.76,41.88L664.54,41.88L667.93,107.87L674.71,107.87L678.11,108.78L684.89,108.78L688.27,109.66L691.66,107.53" style="vector-effect: none; fill: none; stroke: rgb(0, 204, 150); stroke-opacity: 1; stroke-width: 0px; opacity: 1;"/></g><g class="points"/><g class="text"/></g><g class="trace scatter trace7799ad" style="stroke-miterlimit: 2; opacity: 1;"><g class="fills"/><g class="errorbars"/><g class="lines"><path class="js-line" d="M0.01,572L3.4,563.49L6.79,566.33L13.56,568.6L16.96,569.16L33.93,570.45L37.32,570.58L50.87,570.87L54.26,572L71.21,572L74.6,570.87L122.12,570.87L125.51,572L128.9,570.87L132.29,570.87L166.22,570.87L169.61,569.73L176.41,569.73L179.8,570.87L210.31,570.87L213.69,569.73L240.8,569.73L244.19,567.46L261.17,567.46L264.56,568.6L281.51,568.6L284.9,567.46L288.29,566.33L291.68,566.33L295.1,567.46L298.49,567.46L301.91,566.33L305.3,564.06L312.08,564.06L315.47,562.92L318.86,561.79L322.26,562.92L325.65,562.92L329.04,560.65L332.43,558.38L335.82,559.52L339.21,560.65L342.6,560.65L345.99,561.79L349.38,560.65L356.16,562.92L359.55,561.79L362.94,561.79L366.33,560.65L376.5,560.65L379.89,561.79L386.67,561.79L390.06,560.65L396.84,560.65L400.23,561.79L403.62,561.79L407.02,562.92L413.79,562.92L417.18,565.19L420.57,564.06L423.96,564.06L427.35,562.92L430.74,562.92L434.13,564.06L437.52,562.92L440.91,564.06L444.29,562.92L451.07,562.92L454.46,561.79L461.25,561.79L464.64,557.25L468.03,557.25L471.42,559.52L478.2,552.71L481.59,553.84L488.37,553.84L491.75,551.57L495.14,550.44L498.53,548.17L501.92,548.17L505.31,549.3L508.7,549.3L512.09,550.44L515.48,552.71L518.87,550.44L522.26,545.9L525.65,548.17L529.04,551.57L532.43,550.44L535.82,550.44L539.21,545.9L542.6,544.76L545.99,544.76L549.38,544.76L552.77,535.68L556.15,534.55L559.54,532.28L562.93,528.87L566.32,526.6L569.73,526.6L573.12,525.47L576.51,525.47L579.9,524.33L583.28,524.33L586.68,522.06L590.07,524.33L593.46,523.2L596.85,525.47L600.24,526.6L603.64,534.55L607.02,534.55L613.8,534.55L617.19,536.82L620.58,536.82L623.96,540.22L627.35,541.36L630.75,540.22L634.16,536.82L637.54,539.09L640.94,541.36L644.33,542.49L651.11,540.22L654.5,535.68L657.89,535.68L661.28,536.82L664.67,536.82L668.06,537.95L674.83,537.95L678.23,534.55L681.62,537.95L685.01,539.09L688.4,535.68L691.79,533.41" style="vector-effect: none; fill: none; stroke: rgb(255, 127, 14); stroke-opacity: 1; stroke-width: 2.5px; opacity: 1;"/></g><g class="points"/><g class="text"/></g><g class="trace scatter trace1b2581" style="stroke-miterlimit: 2;"><g class="fills"><g><path class="js-fill" d="M3.4,575.53L10.18,576.26L13.56,576.21L50.87,575.26L54.26,572L71.21,572L74.6,575.26L122.12,575.26L125.51,572L128.9,575.26L132.29,575.26L240.8,575.72L244.19,577.57L284.9,577.57L288.29,576.83L291.68,576.83L295.1,575.25L312.08,574.95L315.47,573.81L318.86,572.55L322.26,573.81L325.65,573.81L329.04,572.97L332.43,571.57L335.82,573.11L339.21,574.55L342.6,574.55L345.99,575.88L349.38,574.55L352.77,575.88L356.16,575.57L359.55,574.33L362.94,574.33L376.5,574.55L379.89,574.33L386.67,574.33L390.06,572.97L396.84,572.97L400.23,574.33L403.62,574.33L407.02,575.57L417.18,575.96L420.57,576.71L423.96,576.71L427.35,575.57L434.13,574.95L437.52,573.81L440.91,574.95L444.29,573.81L451.07,573.81L454.46,572.55L461.25,572.55L464.64,575.29L468.03,575.29L471.42,577.1L474.81,575.91L478.2,576.67L481.59,578.31L484.98,578.31L488.37,578.31L491.75,575.82L495.14,574.91L498.53,572.07L501.92,572.07L505.31,573.94L508.7,573.94L512.09,575.74L515.48,574.87L518.87,572.22L522.26,569.86L525.65,571.19L529.04,571.09L532.43,569.16L535.82,569.16L539.21,570.71L549.38,570.34L552.77,572.57L556.15,570.49L559.54,566.73L562.93,561.6L566.32,559.83L576.51,559.8L579.9,557.89L583.28,557.89L586.68,554.53L590.07,555.33L593.46,554.63L596.85,559.19L600.24,561.05L603.64,558.79L607.02,558.79L620.58,559.54L623.96,558.27L627.35,560.87L630.75,560.43L634.16,558.61L637.54,560.88L640.94,562.89L644.33,562.29L647.72,559.78L651.11,558.27L657.89,557.85L661.28,559.54L664.67,559.54L668.06,561.15L674.83,561.15L678.23,556.08L681.62,561.15L685.01,560.88L691.79,556.13L691.79,510.69L688.4,512.6L685.01,517.3L678.23,513.01L674.83,514.75L668.06,514.75L664.67,514.1L654.5,513.52L651.11,522.18L647.72,522.93L644.33,522.69L637.54,517.3L634.16,515.03L630.75,520.01L627.35,521.84L623.96,522.18L620.58,514.1L617.19,514.1L613.8,510.3L603.64,510.3L600.24,492.15L593.46,491.76L590.07,493.34L586.68,489.59L583.28,490.78L576.51,491.14L573.12,491.14L569.73,493.38L566.32,493.38L562.93,496.15L559.54,497.83L552.77,498.79L549.38,519.19L545.99,519.19L542.6,519.19L539.21,521.09L535.82,531.71L532.43,531.71L529.04,532.05L525.65,525.15L522.26,521.94L518.87,528.65L515.48,530.54L512.09,525.13L508.7,524.66L498.53,524.26L495.14,525.96L488.37,529.37L484.98,529.37L478.2,528.75L474.81,536.31L471.42,541.93L468.03,539.2L464.64,539.2L461.25,551.02L454.46,551.02L451.07,552.03L444.29,552.03L440.91,553.16L437.52,552.03L434.13,553.16L430.74,550.27L427.35,550.27L423.96,551.4L420.57,551.4L417.18,554.42L413.79,550.27L407.02,550.27L403.62,549.24L400.23,549.24L396.84,548.33L390.06,548.33L386.67,549.24L379.89,549.24L376.5,546.75L369.72,546.75L366.33,546.75L362.94,549.24L359.55,549.24L356.16,550.27L352.77,547.69L349.38,546.75L345.99,547.69L342.6,546.75L339.21,546.75L335.82,545.92L332.43,545.19L329.04,548.33L325.65,552.03L322.26,552.03L318.86,551.02L315.47,552.03L312.08,553.16L305.3,553.16L301.91,558.02L298.49,559.67L295.1,559.67L291.68,555.82L288.29,555.82L284.9,557.35L281.51,559.05L264.56,559.05L261.17,557.35L244.19,557.35L240.8,563.74L213.69,563.74L210.31,566.47L179.8,566.47L176.41,563.74L169.61,563.74L166.22,566.47L132.29,566.47L128.9,566.47L125.51,572L122.12,566.47L74.6,566.47L71.21,572L54.26,572L50.87,566.47L37.32,565.67L33.93,565.32L20.38,563.13L16.96,562.21L10.18,559.23L6.79,556.5L3.4,551.45Z" style="fill: rgb(255, 127, 14); fill-opacity: 0.1; stroke-width: 0;"/></g></g><g class="errorbars"/><g class="lines"><path class="js-line" d="M3.4,551.45L6.79,556.5L10.18,559.23L16.96,562.21L20.38,563.13L33.93,565.32L37.32,565.67L50.87,566.47L54.26,572L71.21,572L74.6,566.47L122.12,566.47L125.51,572L128.9,566.47L132.29,566.47L166.22,566.47L169.61,563.74L176.41,563.74L179.8,566.47L210.31,566.47L213.69,563.74L240.8,563.74L244.19,557.35L261.17,557.35L264.56,559.05L281.51,559.05L284.9,557.35L288.29,555.82L291.68,555.82L295.1,559.67L298.49,559.67L301.91,558.02L305.3,553.16L312.08,553.16L315.47,552.03L318.86,551.02L322.26,552.03L325.65,552.03L329.04,548.33L332.43,545.19L335.82,545.92L339.21,546.75L342.6,546.75L345.99,547.69L349.38,546.75L352.77,547.69L356.16,550.27L359.55,549.24L362.94,549.24L366.33,546.75L369.72,546.75L376.5,546.75L379.89,549.24L386.67,549.24L390.06,548.33L396.84,548.33L400.23,549.24L403.62,549.24L407.02,550.27L413.79,550.27L417.18,554.42L420.57,551.4L423.96,551.4L427.35,550.27L430.74,550.27L434.13,553.16L437.52,552.03L440.91,553.16L444.29,552.03L451.07,552.03L454.46,551.02L461.25,551.02L464.64,539.2L468.03,539.2L471.42,541.93L474.81,536.31L478.2,528.75L484.98,529.37L488.37,529.37L495.14,525.96L498.53,524.26L508.7,524.66L512.09,525.13L515.48,530.54L518.87,528.65L522.26,521.94L525.65,525.15L529.04,532.05L532.43,531.71L535.82,531.71L539.21,521.09L542.6,519.19L545.99,519.19L549.38,519.19L552.77,498.79L559.54,497.83L562.93,496.15L566.32,493.38L569.73,493.38L573.12,491.14L576.51,491.14L583.28,490.78L586.68,489.59L590.07,493.34L593.46,491.76L600.24,492.15L603.64,510.3L613.8,510.3L617.19,514.1L620.58,514.1L623.96,522.18L627.35,521.84L630.75,520.01L634.16,515.03L637.54,517.3L644.33,522.69L647.72,522.93L651.11,522.18L654.5,513.52L664.67,514.1L668.06,514.75L674.83,514.75L678.23,513.01L685.01,517.3L688.4,512.6L691.79,510.69" style="vector-effect: none; fill: none; stroke: rgb(255, 161, 90); stroke-opacity: 1; stroke-width: 0px; opacity: 1;"/></g><g class="points"/><g class="text"/></g><g class="trace scatter trace16f061" style="stroke-miterlimit: 2;"><g class="fills"/><g class="errorbars"/><g class="lines"><path class="js-line" d="M3.4,575.53L10.18,576.26L13.56,576.21L50.87,575.26L54.26,572L71.21,572L74.6,575.26L122.12,575.26L125.51,572L128.9,575.26L132.29,575.26L240.8,575.72L244.19,577.57L284.9,577.57L288.29,576.83L291.68,576.83L295.1,575.25L312.08,574.95L315.47,573.81L318.86,572.55L322.26,573.81L325.65,573.81L329.04,572.97L332.43,571.57L335.82,573.11L339.21,574.55L342.6,574.55L345.99,575.88L349.38,574.55L352.77,575.88L356.16,575.57L359.55,574.33L362.94,574.33L376.5,574.55L379.89,574.33L386.67,574.33L390.06,572.97L396.84,572.97L400.23,574.33L403.62,574.33L407.02,575.57L417.18,575.96L420.57,576.71L423.96,576.71L427.35,575.57L434.13,574.95L437.52,573.81L440.91,574.95L444.29,573.81L451.07,573.81L454.46,572.55L461.25,572.55L464.64,575.29L468.03,575.29L471.42,577.1L474.81,575.91L478.2,576.67L481.59,578.31L484.98,578.31L488.37,578.31L491.75,575.82L495.14,574.91L498.53,572.07L501.92,572.07L505.31,573.94L508.7,573.94L512.09,575.74L515.48,574.87L518.87,572.22L522.26,569.86L525.65,571.19L529.04,571.09L532.43,569.16L535.82,569.16L539.21,570.71L549.38,570.34L552.77,572.57L556.15,570.49L559.54,566.73L562.93,561.6L566.32,559.83L576.51,559.8L579.9,557.89L583.28,557.89L586.68,554.53L590.07,555.33L593.46,554.63L596.85,559.19L600.24,561.05L603.64,558.79L607.02,558.79L620.58,559.54L623.96,558.27L627.35,560.87L630.75,560.43L634.16,558.61L637.54,560.88L640.94,562.89L644.33,562.29L647.72,559.78L651.11,558.27L657.89,557.85L661.28,559.54L664.67,559.54L668.06,561.15L674.83,561.15L678.23,556.08L681.62,561.15L685.01,560.88L691.79,556.13" style="vector-effect: none; fill: none; stroke: rgb(25, 211, 243); stroke-opacity: 1; stroke-width: 0px; opacity: 1;"/></g><g class="points"/><g class="text"/></g><g class="trace scatter trace842809" style="stroke-miterlimit: 2; opacity: 1;"><g class="fills"/><g class="errorbars"/><g class="lines"><path class="js-line" d="M0.01,572L37.3,572L40.69,570.69L44.09,563.49L47.47,564.06L50.86,561.79L54.25,556.11L57.64,556.11L61.03,554.98L64.42,554.98L67.81,548.17L71.2,545.9L74.59,540.22L78.01,540.22L81.41,536.82L84.82,534.55L88.21,520.93L91.6,517.52L95,522.06L98.39,522.06L101.78,520.93L105.19,522.06L108.58,511.85L118.77,511.85L122.16,512.98L125.55,508.44L128.98,497.1L132.4,497.1L135.79,484.61L139.2,485.75L142.6,480.07L152.77,423.33L156.16,400.63L162.97,365.44L166.36,341.61L169.75,341.61L173.14,318.91L179.92,293.94L183.31,272.38L190.09,248.55L193.48,231.52L196.87,224.71L200.26,220.17L203.65,215.63L207.04,220.17L210.44,213.37L213.82,208.83L217.21,203.15L220.61,181.59L227.38,171.37L230.77,163.43L237.55,154.35L240.94,146.4L244.34,144.13L247.72,138.46L251.12,130.52L254.51,129.38L257.9,121.44L261.29,121.44L268.07,113.49L271.46,110.09L274.85,105.55L278.24,103.28L281.63,105.55L285.02,103.28L288.41,97.6L291.79,103.28L295.19,102.14L298.58,104.41L301.97,101.01L305.36,98.74L308.75,94.2L312.14,94.2L315.53,89.66L318.92,87.39L322.31,87.39L325.7,90.79L329.09,89.66L332.48,90.79L335.88,89.66L339.27,94.2L342.66,87.39L346.05,87.39L349.44,83.98L352.83,82.85L356.23,82.85L359.61,86.25L363.01,82.85L366.39,80.58L369.79,82.85L373.17,78.31L376.57,73.77L379.96,71.5L383.35,62.42L386.74,60.15L390.13,57.88L393.52,56.75L396.91,52.21L400.31,52.21L410.47,48.8L413.87,48.8L417.25,49.94L420.64,47.67L424.03,52.21L427.42,53.34L430.81,53.34L434.2,56.75L437.6,59.02L440.98,63.56L444.38,68.1L447.76,70.37L451.15,68.1L454.54,72.63L457.93,71.5L461.33,74.9L464.72,77.17L468.11,77.17L471.5,78.31L474.89,76.04L478.28,77.17L481.67,77.17L485.06,74.9L488.45,76.04L491.85,70.37L495.23,69.23L498.62,66.96L502.02,73.77L505.41,72.63L508.8,72.63L512.19,66.96L515.58,65.83L522.36,63.56L525.75,65.83L529.14,66.96L532.53,70.37L539.31,70.37L542.7,71.5L546.09,71.5L549.48,72.63L552.87,69.23L556.26,71.5L559.65,71.5L563.04,73.77L566.44,74.9L569.82,78.31L573.22,78.31L576.61,73.77L583.39,71.5L586.78,72.63L590.16,69.23L593.55,72.63L596.95,69.23L600.34,68.1L603.73,66.96L607.12,62.42L613.9,62.42L617.29,60.15L620.68,59.02L624.07,60.15L627.46,63.56L630.85,63.56L634.24,59.02L637.63,57.88L641.02,56.75L644.41,51.07L647.8,49.94L651.19,49.94L654.58,48.8L657.97,51.07L661.35,48.8L664.74,47.67L668.14,49.94L671.53,48.8L674.92,54.48L678.31,53.34L681.71,53.34L685.1,54.48L691.88,59.02" style="vector-effect: none; fill: none; stroke: rgb(44, 160, 44); stroke-opacity: 1; stroke-width: 2.5px; opacity: 1;"/></g><g class="points"/><g class="text"/></g><g class="trace scatter trace4d4f0c" style="stroke-miterlimit: 2;"><g class="fills"><g><path class="js-fill" d="M3.4,572L37.3,572L40.69,575.41L44.09,590.82L47.47,590.48L50.86,588.93L54.25,589.21L57.64,589.21L61.03,587.79L67.81,587.2L71.2,584.43L74.59,580.85L78.01,580.85L84.82,573.26L88.21,577.39L91.6,573.32L95,576.46L98.39,576.46L101.78,575.15L105.19,575.69L108.58,569.71L118.77,569.71L122.16,571.56L125.55,571.64L128.98,563.28L132.4,563.28L135.79,559.61L139.2,558.96L142.6,555.05L145.98,553.11L149.38,538.51L156.16,525.8L159.58,521.99L162.97,497.29L166.36,465.52L169.75,465.52L173.14,431.63L179.92,404.21L183.31,365.36L186.7,354.16L190.09,336.3L193.48,307.93L196.87,302.41L200.26,295.12L203.65,292.97L207.04,296.22L210.44,297.37L213.82,291.64L217.21,288.43L220.61,225.45L224,220.71L227.38,215.42L230.77,206.59L234.17,201.8L237.55,198.4L240.94,192.8L244.34,190.47L247.72,187.41L251.12,172.45L254.51,171.08L257.9,152.21L261.29,152.21L264.68,139.62L268.07,137.97L271.46,133.17L274.85,131.12L278.24,126.36L281.63,131.12L285.02,128.09L288.41,129.04L291.79,138.44L295.19,136.67L298.58,138.38L301.97,136.64L305.36,133.51L308.75,131.42L312.14,131.42L315.53,126.43L318.92,125.92L322.31,125.92L325.7,129.11L329.09,127.54L332.48,130.7L335.88,129.67L339.27,130.29L342.66,118.82L346.05,118.82L349.44,115.29L352.83,115.32L356.23,115.32L359.61,117.02L366.39,117.47L369.79,118.36L373.17,116.38L376.57,111.55L379.96,108.91L383.35,91.53L386.74,89.26L390.13,85.33L393.52,84.4L396.91,75.29L403.69,74.97L407.08,71.91L410.47,68.6L413.87,68.6L417.25,68.88L420.64,64.93L424.03,72.42L427.42,73.55L430.81,73.55L434.2,76.54L437.6,79.23L440.98,90.75L444.38,97.44L447.76,99.04L451.15,98.82L454.54,101.89L457.93,100.85L461.33,107.84L471.5,107.8L474.89,105.43L478.28,106.28L481.67,106.28L485.06,105.22L488.45,106.81L491.85,98.31L495.23,95.66L498.62,94.01L502.02,102.88L505.41,101.17L508.8,101.17L512.19,91.6L515.58,91.13L518.97,91.38L522.36,90.75L525.75,94.21L529.14,96.21L532.53,101.8L535.92,101.8L546.09,102.22L549.48,102.59L552.87,94.86L556.26,99.4L559.65,99.4L563.04,100.66L573.22,100.6L576.61,99.07L580,97.28L583.39,94.52L586.78,94.61L590.16,91.4L593.55,97.28L596.95,94.04L600.34,93.67L603.73,92.43L607.12,85.14L610.51,85.14L617.29,84.62L620.68,82.98L624.07,83.76L627.46,85.72L630.85,85.72L634.24,81.18L637.63,80.36L641.02,80.36L644.41,70.16L647.8,69.94L651.19,69.94L654.58,68.6L657.97,72.22L661.35,70.59L664.74,68.22L668.14,69.94L671.53,68.6L674.92,86.52L678.31,84.78L681.71,84.78L685.1,85.2L688.48,87.92L691.88,89.1L691.88,28.93L688.48,25.58L685.1,23.75L681.71,21.91L678.31,21.91L674.92,22.43L671.53,29L668.14,29.93L664.74,27.12L661.35,27.01L657.97,29.93L654.58,29L651.19,29.93L647.8,29.93L644.41,31.98L641.02,33.13L637.63,35.41L634.24,36.85L630.85,41.39L627.46,41.39L624.07,36.54L620.68,35.06L617.29,35.68L613.9,39.7L610.51,39.7L607.12,39.7L603.73,41.49L600.34,42.52L596.95,44.42L593.55,47.99L590.16,47.06L586.78,50.66L583.39,48.48L580,47.99L576.61,48.46L573.22,56.02L569.82,56.02L566.44,49.01L563.04,46.88L559.65,43.6L556.26,43.6L552.87,43.6L549.48,42.68L546.09,40.78L542.7,40.78L539.31,38.93L532.53,38.93L529.14,37.71L525.75,37.44L522.36,36.36L512.19,42.32L508.8,44.1L505.41,44.1L502.02,44.66L498.62,39.92L495.23,42.8L491.85,42.42L488.45,45.27L485.06,44.59L481.67,48.07L478.28,48.07L474.89,46.65L471.5,48.82L468.11,46.68L464.72,46.68L461.33,41.97L457.93,42.15L454.54,43.38L451.15,37.37L447.76,41.69L444.38,38.75L440.98,36.36L437.6,38.8L434.2,36.95L430.81,33.13L427.42,33.13L420.64,30.4L417.25,30.99L413.87,29L410.47,29L403.69,27.17L400.31,29.13L396.91,29.13L393.52,29.1L390.13,30.43L386.74,31.04L383.35,33.31L379.96,34.09L376.57,35.99L373.17,40.24L369.79,47.33L366.39,43.69L363.01,48.52L359.61,55.49L356.23,50.38L352.83,50.38L346.05,55.95L342.66,55.95L339.27,58.1L335.88,49.65L329.09,51.77L325.7,52.47L322.31,48.85L318.92,48.85L312.14,56.98L308.75,56.98L305.36,63.97L301.97,65.38L298.58,70.45L295.19,67.61L291.79,68.11L288.41,66.17L285.02,78.47L281.63,79.97L278.24,80.2L274.85,79.97L271.46,87.01L268.07,89.02L264.68,94.18L261.29,90.67L257.9,90.67L254.51,87.68L251.12,88.59L247.72,89.51L244.34,97.8L240.94,100.01L237.55,110.3L234.17,115.98L230.77,120.27L227.38,127.32L224,131.12L220.61,137.73L217.21,117.87L213.82,126.01L210.44,129.36L207.04,144.13L203.65,138.3L200.26,145.23L196.87,147.02L193.48,155.12L190.09,160.79L186.7,167.91L183.31,179.4L179.92,183.68L169.75,217.7L166.36,217.7L159.58,247.49L156.16,275.45L152.77,314.42L149.38,349L145.98,370.72L142.6,405.09L139.2,412.53L135.79,409.61L132.4,430.91L128.98,430.91L125.55,445.25L122.16,454.41L108.58,453.99L105.19,468.43L101.78,466.71L98.39,467.67L95,467.67L91.6,461.73L88.21,464.47L84.82,495.83L81.41,496.91L78.01,499.6L74.59,499.6L71.2,507.36L67.81,509.13L64.42,522.17L61.03,522.17L57.64,523.01L54.25,523.01L50.86,534.64L47.47,537.63L44.09,536.16L40.69,565.97L37.3,572L3.4,572Z" style="fill: rgb(44, 160, 44); fill-opacity: 0.1; stroke-width: 0;"/></g></g><g class="errorbars"/><g class="lines"><path class="js-line" d="M3.4,572L37.3,572L40.69,565.97L44.09,536.16L47.47,537.63L50.86,534.64L54.25,523.01L57.64,523.01L61.03,522.17L64.42,522.17L67.81,509.13L71.2,507.36L74.59,499.6L78.01,499.6L81.41,496.91L84.82,495.83L88.21,464.47L91.6,461.73L95,467.67L98.39,467.67L101.78,466.71L105.19,468.43L108.58,453.99L122.16,454.41L125.55,445.25L128.98,430.91L132.4,430.91L135.79,409.61L139.2,412.53L142.6,405.09L145.98,370.72L149.38,349L152.77,314.42L156.16,275.45L159.58,247.49L166.36,217.7L169.75,217.7L179.92,183.68L183.31,179.4L186.7,167.91L190.09,160.79L193.48,155.12L196.87,147.02L200.26,145.23L203.65,138.3L207.04,144.13L210.44,129.36L213.82,126.01L217.21,117.87L220.61,137.73L224,131.12L227.38,127.32L230.77,120.27L234.17,115.98L237.55,110.3L240.94,100.01L244.34,97.8L247.72,89.51L251.12,88.59L254.51,87.68L257.9,90.67L261.29,90.67L264.68,94.18L268.07,89.02L271.46,87.01L274.85,79.97L278.24,80.2L281.63,79.97L285.02,78.47L288.41,66.17L291.79,68.11L295.19,67.61L298.58,70.45L301.97,65.38L305.36,63.97L308.75,56.98L312.14,56.98L318.92,48.85L322.31,48.85L325.7,52.47L329.09,51.77L335.88,49.65L339.27,58.1L342.66,55.95L346.05,55.95L352.83,50.38L356.23,50.38L359.61,55.49L363.01,48.52L366.39,43.69L369.79,47.33L373.17,40.24L376.57,35.99L379.96,34.09L383.35,33.31L386.74,31.04L390.13,30.43L393.52,29.1L396.91,29.13L400.31,29.13L403.69,27.17L410.47,29L413.87,29L417.25,30.99L420.64,30.4L427.42,33.13L430.81,33.13L434.2,36.95L437.6,38.8L440.98,36.36L444.38,38.75L447.76,41.69L451.15,37.37L454.54,43.38L457.93,42.15L461.33,41.97L464.72,46.68L468.11,46.68L471.5,48.82L474.89,46.65L478.28,48.07L481.67,48.07L485.06,44.59L488.45,45.27L491.85,42.42L495.23,42.8L498.62,39.92L502.02,44.66L505.41,44.1L508.8,44.1L512.19,42.32L522.36,36.36L525.75,37.44L529.14,37.71L532.53,38.93L539.31,38.93L542.7,40.78L546.09,40.78L549.48,42.68L552.87,43.6L556.26,43.6L559.65,43.6L563.04,46.88L566.44,49.01L569.82,56.02L573.22,56.02L576.61,48.46L580,47.99L583.39,48.48L586.78,50.66L590.16,47.06L593.55,47.99L596.95,44.42L600.34,42.52L603.73,41.49L607.12,39.7L610.51,39.7L613.9,39.7L617.29,35.68L620.68,35.06L624.07,36.54L627.46,41.39L630.85,41.39L634.24,36.85L637.63,35.41L641.02,33.13L644.41,31.98L647.8,29.93L651.19,29.93L654.58,29L657.97,29.93L661.35,27.01L664.74,27.12L668.14,29.93L671.53,29L674.92,22.43L678.31,21.91L681.71,21.91L685.1,23.75L688.48,25.58L691.88,28.93" style="vector-effect: none; fill: none; stroke: rgb(182, 232, 128); stroke-opacity: 1; stroke-width: 0px; opacity: 1;"/></g><g class="points"/><g class="text"/></g><g class="trace scatter traceba3430" style="stroke-miterlimit: 2;"><g class="fills"/><g class="errorbars"/><g class="lines"><path class="js-line" d="M3.4,572L37.3,572L40.69,575.41L44.09,590.82L47.47,590.48L50.86,588.93L54.25,589.21L57.64,589.21L61.03,587.79L67.81,587.2L71.2,584.43L74.59,580.85L78.01,580.85L84.82,573.26L88.21,577.39L91.6,573.32L95,576.46L98.39,576.46L101.78,575.15L105.19,575.69L108.58,569.71L118.77,569.71L122.16,571.56L125.55,571.64L128.98,563.28L132.4,563.28L135.79,559.61L139.2,558.96L142.6,555.05L145.98,553.11L149.38,538.51L156.16,525.8L159.58,521.99L162.97,497.29L166.36,465.52L169.75,465.52L173.14,431.63L179.92,404.21L183.31,365.36L186.7,354.16L190.09,336.3L193.48,307.93L196.87,302.41L200.26,295.12L203.65,292.97L207.04,296.22L210.44,297.37L213.82,291.64L217.21,288.43L220.61,225.45L224,220.71L227.38,215.42L230.77,206.59L234.17,201.8L237.55,198.4L240.94,192.8L244.34,190.47L247.72,187.41L251.12,172.45L254.51,171.08L257.9,152.21L261.29,152.21L264.68,139.62L268.07,137.97L271.46,133.17L274.85,131.12L278.24,126.36L281.63,131.12L285.02,128.09L288.41,129.04L291.79,138.44L295.19,136.67L298.58,138.38L301.97,136.64L305.36,133.51L308.75,131.42L312.14,131.42L315.53,126.43L318.92,125.92L322.31,125.92L325.7,129.11L329.09,127.54L332.48,130.7L335.88,129.67L339.27,130.29L342.66,118.82L346.05,118.82L349.44,115.29L352.83,115.32L356.23,115.32L359.61,117.02L366.39,117.47L369.79,118.36L373.17,116.38L376.57,111.55L379.96,108.91L383.35,91.53L386.74,89.26L390.13,85.33L393.52,84.4L396.91,75.29L403.69,74.97L407.08,71.91L410.47,68.6L413.87,68.6L417.25,68.88L420.64,64.93L424.03,72.42L427.42,73.55L430.81,73.55L434.2,76.54L437.6,79.23L440.98,90.75L444.38,97.44L447.76,99.04L451.15,98.82L454.54,101.89L457.93,100.85L461.33,107.84L471.5,107.8L474.89,105.43L478.28,106.28L481.67,106.28L485.06,105.22L488.45,106.81L491.85,98.31L495.23,95.66L498.62,94.01L502.02,102.88L505.41,101.17L508.8,101.17L512.19,91.6L515.58,91.13L518.97,91.38L522.36,90.75L525.75,94.21L529.14,96.21L532.53,101.8L535.92,101.8L546.09,102.22L549.48,102.59L552.87,94.86L556.26,99.4L559.65,99.4L563.04,100.66L573.22,100.6L576.61,99.07L580,97.28L583.39,94.52L586.78,94.61L590.16,91.4L593.55,97.28L596.95,94.04L600.34,93.67L603.73,92.43L607.12,85.14L610.51,85.14L617.29,84.62L620.68,82.98L624.07,83.76L627.46,85.72L630.85,85.72L634.24,81.18L637.63,80.36L641.02,80.36L644.41,70.16L647.8,69.94L651.19,69.94L654.58,68.6L657.97,72.22L661.35,70.59L664.74,68.22L668.14,69.94L671.53,68.6L674.92,86.52L678.31,84.78L681.71,84.78L685.1,85.2L688.48,87.92L691.88,89.1" style="vector-effect: none; fill: none; stroke: rgb(255, 151, 255); stroke-opacity: 1; stroke-width: 0px; opacity: 1;"/></g><g class="points"/><g class="text"/></g><g class="trace scatter trace58f521" style="stroke-miterlimit: 2; opacity: 1;"><g class="fills"/><g class="errorbars"/><g class="lines"><path class="js-line" d="M0.01,572L16.99,572L20.37,569.57L40.74,570.69L44.15,570.78L67.88,570.87L71.28,572L74.66,572L78.05,570.87L84.82,570.87L88.21,569.73L91.6,567.46L94.99,566.33L98.38,566.33L101.77,562.92L105.16,558.38L108.55,557.25L111.94,554.98L115.33,549.3L118.73,541.36L122.12,536.82L125.51,526.6L128.9,520.93L132.29,511.85L135.68,511.85L139.07,507.31L142.45,506.17L149.23,485.75L152.62,475.53L156.02,474.4L159.41,474.4L166.19,464.18L169.57,469.86L172.97,469.86L176.36,476.67L183.15,490.29L186.53,481.21L189.93,475.53L193.32,466.45L196.7,475.53L200.1,472.13L203.49,468.72L206.87,467.59L210.26,459.64L213.65,460.78L217.04,456.24L220.43,448.29L223.83,438.08L227.22,417.65L230.61,398.36L234,383.6L237.38,379.06L240.77,385.87L244.16,391.55L247.55,377.93L250.93,369.98L254.33,379.06L257.72,363.17L261.11,358.63L264.5,343.88L267.89,335.94L271.28,326.86L274.66,314.37L278.05,313.24L281.44,315.51L284.83,318.91L288.22,308.7L295,274.65L298.39,283.73L301.78,275.79L305.17,254.22L308.56,247.41L311.94,246.28L315.33,238.33L318.73,244.01L322.12,237.2L325.51,239.47L328.9,231.52L332.29,221.31L335.69,206.56L339.08,203.15L342.47,195.21L345.86,198.61L349.25,187.26L352.64,194.07L356.03,207.69L359.42,208.83L362.81,190.67L366.2,191.8L369.59,182.72L372.98,181.59L376.37,174.78L379.77,174.78L383.16,169.1L386.55,169.1L389.93,169.1L393.32,166.83L396.71,158.89L400.1,147.54L403.49,138.46L406.89,120.3L410.29,116.9L413.69,121.44L417.08,118.03L420.47,110.09L423.86,106.68L427.25,108.95L430.63,110.09L434.02,110.09L437.41,107.82L440.8,102.14L444.19,102.14L447.58,99.87L450.97,105.55L454.36,105.55L457.75,106.68L461.14,106.68L464.54,105.55L467.93,106.68L471.32,114.63L474.71,115.76L478.09,114.63L481.48,111.22L484.87,119.17L488.27,131.65L491.65,129.38L495.04,124.84L498.43,121.44L501.82,112.36L505.21,110.09L508.61,114.63L512.01,116.9L515.39,115.76L518.79,115.76L522.17,111.22L528.96,103.28L532.35,105.55L535.74,96.47L539.13,81.71L542.52,85.12L545.91,89.66L549.3,90.79L552.69,90.79L556.08,93.06L559.47,86.25L562.86,85.12L566.25,82.85L569.65,81.71L573.03,82.85L576.42,85.12L579.81,89.66L583.2,89.66L586.59,91.93L589.98,88.52L593.37,86.25L596.76,83.98L600.15,86.25L606.93,81.71L610.32,82.85L617.1,80.58L620.49,81.71L623.88,74.9L627.27,74.9L630.67,68.1L634.06,65.83L637.45,65.83L640.84,70.37L644.23,70.37L647.62,69.23L651.02,68.1L654.4,73.77L657.79,74.9L661.18,74.9L667.96,72.63L671.35,68.1L674.74,71.5L678.13,68.1L684.91,68.1L688.31,66.96L691.7,62.42" style="vector-effect: none; fill: none; stroke: rgb(214, 39, 40); stroke-opacity: 1; stroke-width: 2.5px; opacity: 1;"/></g><g class="points"/><g class="text"/></g><g class="trace scatter trace8063cc" style="stroke-miterlimit: 2;"><g class="fills"><g><path class="js-fill" d="M3.4,572L16.99,572L20.37,576L64.49,575.26L67.88,575.26L71.28,572L74.66,572L78.05,575.26L81.43,575.26L88.21,575.72L91.6,577.57L98.38,576.83L101.77,578.51L105.16,579.91L108.55,578.46L111.94,576.32L115.33,576.35L118.73,577.3L122.12,572.91L125.51,572.4L128.9,568.21L132.29,561.63L135.68,561.63L139.07,555.97L142.45,554.27L145.84,550.13L149.23,538.6L152.62,535.43L156.02,533.88L159.41,533.88L162.8,525.72L166.19,522.33L169.57,530.9L172.97,530.9L176.36,537.3L179.75,548.84L183.15,555.65L186.53,543.81L189.93,541.36L193.32,534.91L196.7,541.36L200.1,541.39L203.49,544.44L206.87,543.14L210.26,531.52L213.65,532.68L217.04,532.97L220.43,522.07L223.83,514.18L227.22,509.43L230.61,485.68L234,464.09L237.38,458.31L240.77,471.35L244.16,479.72L247.55,460.28L250.93,457.23L254.33,467.44L257.72,455.41L261.11,448.69L264.5,432.53L267.89,429.15L271.28,418.04L274.66,414.44L278.05,414.61L281.44,416.52L284.83,420.83L288.22,413.02L291.61,382.38L295,352.63L298.39,373.92L301.78,372.69L305.17,344.69L308.56,343.38L311.94,340.81L315.33,337.56L318.73,345.23L322.12,339.07L325.51,339.95L328.9,339.96L332.29,328.36L335.69,307.04L339.08,304.21L342.47,295.69L345.86,300.04L349.25,264.96L352.64,272.4L356.03,291.54L359.42,291.64L362.81,269.94L366.2,270.26L369.59,253.17L372.98,252.21L376.37,248.61L379.77,248.61L383.16,247.03L386.55,247.03L389.93,247.03L393.32,245.95L396.71,235.15L400.1,216.38L403.49,201.79L406.89,157.19L410.29,153.56L413.69,157.18L417.08,153.66L420.47,144.05L423.86,137.32L427.25,139.94L434.02,140.18L437.41,136.21L440.8,126.9L444.19,126.9L447.58,123.49L450.97,140.08L461.14,139.91L464.54,137.59L467.93,138.64L471.32,149.2L474.71,150.53L478.09,149.2L481.48,150.08L484.87,162.71L488.27,195.3L491.65,195.63L498.43,193.91L501.82,183.14L505.21,181.41L508.61,185.95L512.01,188.1L515.39,186.89L518.79,186.89L522.17,180.06L525.56,176.48L528.96,174.02L532.35,174.79L535.74,161.6L539.13,114.65L542.52,116.51L545.91,119.61L549.3,119.18L552.69,119.18L556.08,121.74L559.47,113.45L562.86,110.7L566.25,107.32L569.65,105.09L573.03,108.15L576.42,109.87L579.81,115.93L583.2,115.93L589.98,118.57L593.37,117.02L596.76,113.93L600.15,115.65L603.54,116.58L606.93,113.37L610.32,113.35L613.71,111.34L617.1,110.67L620.49,112.71L623.88,105.9L627.27,105.9L630.67,97.44L634.06,95.64L637.45,95.64L640.84,99.04L644.23,99.04L647.62,97.91L651.02,95.99L654.4,101.42L657.79,103.1L661.18,103.1L664.57,101.42L667.96,101.17L671.35,95.24L674.74,96.25L678.13,92.85L681.52,92.85L684.91,92.85L688.31,90.75L691.7,86.89L691.7,37.95L688.31,43.17L681.52,43.34L678.13,43.34L674.74,46.75L671.35,40.95L667.96,44.1L664.57,46.12L657.79,46.71L654.4,46.12L651.02,40.2L647.62,40.55L644.23,41.69L640.84,41.69L637.45,36.01L634.06,36.01L630.67,38.75L627.27,43.91L623.88,43.91L620.49,50.72L617.1,50.49L613.71,52.09L610.32,52.35L606.93,50.06L603.54,51.39L600.15,56.86L596.76,54.03L593.37,55.49L589.98,58.48L586.59,66.84L583.2,63.39L579.81,63.39L576.42,60.37L573.03,57.54L569.65,58.34L566.25,58.38L562.86,59.54L559.47,59.06L556.08,64.38L552.69,62.4L549.3,62.4L545.91,59.71L539.13,48.78L535.74,31.34L532.35,36.31L528.96,32.54L525.56,36.89L522.17,42.38L518.79,44.63L515.39,44.63L512.01,45.69L508.61,43.3L505.21,38.77L501.82,41.58L495.04,55.1L491.65,63.13L488.27,68L484.87,75.62L481.48,72.37L478.09,80.06L474.71,80.99L471.32,80.06L467.93,74.73L464.54,73.5L461.14,73.46L457.75,73.46L454.36,71.02L450.97,71.02L447.58,76.26L444.19,77.39L440.8,77.39L437.41,79.43L434.02,80L430.63,80L423.86,76.05L420.47,76.12L417.08,82.4L413.69,85.69L410.29,80.23L406.89,83.41L403.49,75.13L400.1,78.7L393.32,87.71L389.93,91.18L383.16,91.18L379.77,100.95L376.37,100.95L372.98,110.97L366.2,113.35L362.81,111.39L359.42,126.01L356.03,123.85L352.64,115.74L349.25,109.57L345.86,97.19L342.47,94.73L339.08,102.09L335.69,106.07L332.29,114.26L328.9,123.09L325.51,138.99L322.12,135.33L318.73,142.79L315.33,139.11L311.94,151.74L308.56,151.44L301.78,178.88L298.39,193.54L295,196.67L291.61,203.23L288.22,204.38L284.83,217L278.05,211.87L274.66,214.3L271.28,235.68L267.89,242.72L264.5,255.24L261.11,268.58L257.72,270.94L254.33,290.68L250.93,282.74L247.55,295.58L244.16,303.37L240.77,300.4L237.38,299.82L234,303.12L230.61,311.03L227.22,325.87L223.83,361.98L220.43,374.52L217.04,379.51L213.65,388.88L210.26,387.76L206.87,392.04L203.49,393.01L200.1,402.87L196.7,409.7L193.32,397.99L189.93,409.7L186.53,418.6L183.15,424.92L179.75,418.11L176.36,416.03L172.97,408.82L169.57,408.82L166.19,406.04L162.8,411.73L159.41,414.91L156.02,414.91L152.62,415.63L149.23,432.9L145.84,439.52L142.45,458.08L139.07,458.65L135.68,462.06L132.29,462.06L128.9,473.65L125.51,480.8L122.12,500.72L118.73,505.42L115.33,522.26L111.94,533.64L108.55,536.04L105.16,536.85L101.77,547.34L98.38,555.82L94.99,555.82L91.6,557.35L88.21,563.74L84.82,566.47L78.05,566.47L74.66,572L71.28,572L67.88,566.47L57.71,566.47L54.31,566.47L37.35,565.67L33.96,565.32L20.37,563.13L16.99,572L3.4,572Z" style="fill: rgb(214, 39, 40); fill-opacity: 0.1; stroke-width: 0;"/></g></g><g class="errorbars"/><g class="lines"><path class="js-line" d="M3.4,572L16.99,572L20.37,563.13L33.96,565.32L37.35,565.67L54.31,566.47L57.71,566.47L67.88,566.47L71.28,572L74.66,572L78.05,566.47L84.82,566.47L88.21,563.74L91.6,557.35L94.99,555.82L98.38,555.82L101.77,547.34L105.16,536.85L108.55,536.04L111.94,533.64L115.33,522.26L118.73,505.42L122.12,500.72L125.51,480.8L128.9,473.65L132.29,462.06L135.68,462.06L139.07,458.65L142.45,458.08L145.84,439.52L149.23,432.9L152.62,415.63L156.02,414.91L159.41,414.91L162.8,411.73L166.19,406.04L169.57,408.82L172.97,408.82L176.36,416.03L179.75,418.11L183.15,424.92L186.53,418.6L189.93,409.7L193.32,397.99L196.7,409.7L200.1,402.87L203.49,393.01L206.87,392.04L210.26,387.76L213.65,388.88L217.04,379.51L220.43,374.52L223.83,361.98L227.22,325.87L230.61,311.03L234,303.12L237.38,299.82L240.77,300.4L244.16,303.37L247.55,295.58L250.93,282.74L254.33,290.68L257.72,270.94L261.11,268.58L264.5,255.24L267.89,242.72L271.28,235.68L274.66,214.3L278.05,211.87L284.83,217L288.22,204.38L291.61,203.23L295,196.67L298.39,193.54L301.78,178.88L308.56,151.44L311.94,151.74L315.33,139.11L318.73,142.79L322.12,135.33L325.51,138.99L328.9,123.09L332.29,114.26L335.69,106.07L339.08,102.09L342.47,94.73L345.86,97.19L349.25,109.57L352.64,115.74L356.03,123.85L359.42,126.01L362.81,111.39L366.2,113.35L372.98,110.97L376.37,100.95L379.77,100.95L383.16,91.18L389.93,91.18L393.32,87.71L400.1,78.7L403.49,75.13L406.89,83.41L410.29,80.23L413.69,85.69L417.08,82.4L420.47,76.12L423.86,76.05L430.63,80L434.02,80L437.41,79.43L440.8,77.39L444.19,77.39L447.58,76.26L450.97,71.02L454.36,71.02L457.75,73.46L461.14,73.46L464.54,73.5L467.93,74.73L471.32,80.06L474.71,80.99L478.09,80.06L481.48,72.37L484.87,75.62L488.27,68L491.65,63.13L495.04,55.1L501.82,41.58L505.21,38.77L508.61,43.3L512.01,45.69L515.39,44.63L518.79,44.63L522.17,42.38L525.56,36.89L528.96,32.54L532.35,36.31L535.74,31.34L539.13,48.78L545.91,59.71L549.3,62.4L552.69,62.4L556.08,64.38L559.47,59.06L562.86,59.54L566.25,58.38L569.65,58.34L573.03,57.54L576.42,60.37L579.81,63.39L583.2,63.39L586.59,66.84L589.98,58.48L593.37,55.49L596.76,54.03L600.15,56.86L603.54,51.39L606.93,50.06L610.32,52.35L613.71,52.09L617.1,50.49L620.49,50.72L623.88,43.91L627.27,43.91L630.67,38.75L634.06,36.01L637.45,36.01L640.84,41.69L644.23,41.69L647.62,40.55L651.02,40.2L654.4,46.12L657.79,46.71L664.57,46.12L667.96,44.1L671.35,40.95L674.74,46.75L678.13,43.34L681.52,43.34L688.31,43.17L691.7,37.95" style="vector-effect: none; fill: none; stroke: rgb(99, 110, 250); stroke-opacity: 1; stroke-width: 0px; opacity: 1;"/></g><g class="points"/><g class="text"/></g><g class="trace scatter tracec2acca" style="stroke-miterlimit: 2;"><g class="fills"/><g class="errorbars"/><g class="lines"><path class="js-line" d="M3.4,572L16.99,572L20.37,576L64.49,575.26L67.88,575.26L71.28,572L74.66,572L78.05,575.26L81.43,575.26L88.21,575.72L91.6,577.57L98.38,576.83L101.77,578.51L105.16,579.91L108.55,578.46L111.94,576.32L115.33,576.35L118.73,577.3L122.12,572.91L125.51,572.4L128.9,568.21L132.29,561.63L135.68,561.63L139.07,555.97L142.45,554.27L145.84,550.13L149.23,538.6L152.62,535.43L156.02,533.88L159.41,533.88L162.8,525.72L166.19,522.33L169.57,530.9L172.97,530.9L176.36,537.3L179.75,548.84L183.15,555.65L186.53,543.81L189.93,541.36L193.32,534.91L196.7,541.36L200.1,541.39L203.49,544.44L206.87,543.14L210.26,531.52L213.65,532.68L217.04,532.97L220.43,522.07L223.83,514.18L227.22,509.43L230.61,485.68L234,464.09L237.38,458.31L240.77,471.35L244.16,479.72L247.55,460.28L250.93,457.23L254.33,467.44L257.72,455.41L261.11,448.69L264.5,432.53L267.89,429.15L271.28,418.04L274.66,414.44L278.05,414.61L281.44,416.52L284.83,420.83L288.22,413.02L291.61,382.38L295,352.63L298.39,373.92L301.78,372.69L305.17,344.69L308.56,343.38L311.94,340.81L315.33,337.56L318.73,345.23L322.12,339.07L325.51,339.95L328.9,339.96L332.29,328.36L335.69,307.04L339.08,304.21L342.47,295.69L345.86,300.04L349.25,264.96L352.64,272.4L356.03,291.54L359.42,291.64L362.81,269.94L366.2,270.26L369.59,253.17L372.98,252.21L376.37,248.61L379.77,248.61L383.16,247.03L386.55,247.03L389.93,247.03L393.32,245.95L396.71,235.15L400.1,216.38L403.49,201.79L406.89,157.19L410.29,153.56L413.69,157.18L417.08,153.66L420.47,144.05L423.86,137.32L427.25,139.94L434.02,140.18L437.41,136.21L440.8,126.9L444.19,126.9L447.58,123.49L450.97,140.08L461.14,139.91L464.54,137.59L467.93,138.64L471.32,149.2L474.71,150.53L478.09,149.2L481.48,150.08L484.87,162.71L488.27,195.3L491.65,195.63L498.43,193.91L501.82,183.14L505.21,181.41L508.61,185.95L512.01,188.1L515.39,186.89L518.79,186.89L522.17,180.06L525.56,176.48L528.96,174.02L532.35,174.79L535.74,161.6L539.13,114.65L542.52,116.51L545.91,119.61L549.3,119.18L552.69,119.18L556.08,121.74L559.47,113.45L562.86,110.7L566.25,107.32L569.65,105.09L573.03,108.15L576.42,109.87L579.81,115.93L583.2,115.93L589.98,118.57L593.37,117.02L596.76,113.93L600.15,115.65L603.54,116.58L606.93,113.37L610.32,113.35L613.71,111.34L617.1,110.67L620.49,112.71L623.88,105.9L627.27,105.9L630.67,97.44L634.06,95.64L637.45,95.64L640.84,99.04L644.23,99.04L647.62,97.91L651.02,95.99L654.4,101.42L657.79,103.1L661.18,103.1L664.57,101.42L667.96,101.17L671.35,95.24L674.74,96.25L678.13,92.85L681.52,92.85L684.91,92.85L688.31,90.75L691.7,86.89" style="vector-effect: none; fill: none; stroke: rgb(239, 85, 59); stroke-opacity: 1; stroke-width: 0px; opacity: 1;"/></g><g class="points"/><g class="text"/></g><g class="trace scatter trace137a08" style="stroke-miterlimit: 2; opacity: 1;"><g class="fills"/><g class="errorbars"/><g class="lines"><path class="js-line" d="M0.01,572L3.4,572L6.79,566.33L13.56,568.6L16.95,569.16L33.93,570.45L37.33,570.58L50.88,570.87L54.27,569.73L57.66,570.87L61.05,570.87L64.44,569.73L67.82,569.73L71.21,567.46L74.6,566.33L77.99,562.92L81.39,562.92L84.77,556.11L88.17,556.11L91.56,553.84L94.95,552.71L98.34,551.57L101.73,545.9L105.12,541.36L108.51,533.41L111.89,531.14L115.29,530.01L118.67,523.2L122.07,514.12L125.46,515.25L128.85,505.04L135.63,489.15L139.02,473.26L142.41,467.59L145.8,450.56L149.19,440.35L152.58,442.62L155.97,444.89L159.36,448.29L166.13,433.54L169.52,435.81L172.91,431.27L176.3,418.79L179.7,422.19L183.09,413.11L186.48,413.11L189.87,407.44L196.65,384.74L200.04,371.12L206.81,334.8L210.21,304.16L216.99,259.9L220.38,237.2L223.77,224.71L227.16,207.69L230.56,198.61L233.95,187.26L237.33,169.1L240.73,156.62L244.12,141.87L247.51,137.33L254.29,130.52L257.68,122.57L261.07,125.98L264.47,120.3L267.89,123.71L271.28,115.76L274.66,111.22L278.05,108.95L281.44,95.33L284.83,93.06L288.22,94.2L291.6,105.55L295,108.95L298.39,115.76L308.57,97.6L311.96,99.87L315.35,103.28L318.74,102.14L322.14,108.95L325.53,107.82L328.92,110.09L332.31,110.09L335.7,105.55L339.09,103.28L342.48,106.68L345.86,107.82L349.25,102.14L352.64,104.41L356.03,106.68L359.42,106.68L362.81,103.28L366.21,104.41L369.61,102.14L373,96.47L376.39,97.6L379.77,91.93L383.16,93.06L386.55,91.93L389.94,91.93L393.33,78.31L400.1,73.77L403.49,69.23L410.27,64.69L413.66,77.17L417.06,73.77L420.45,77.17L423.84,79.44L427.23,83.98L430.62,83.98L434.01,86.25L437.4,89.66L440.79,89.66L444.18,88.52L447.56,86.25L450.96,90.79L454.35,91.93L457.75,90.79L461.13,93.06L464.54,79.44L467.93,79.44L471.32,73.77L474.71,70.37L478.1,68.1L481.49,68.1L484.89,69.23L488.28,66.96L491.67,68.1L495.07,68.1L501.85,63.56L505.25,66.96L515.42,73.77L518.81,74.9L522.19,78.31L525.58,82.85L528.97,78.31L532.37,79.44L535.76,72.63L539.15,71.5L542.54,71.5L545.93,72.63L549.31,72.63L552.71,71.5L556.11,69.23L559.5,101.01L562.89,96.47L566.29,101.01L569.68,114.63L573.07,112.36L576.47,108.95L579.86,111.22L586.64,111.22L590.03,112.36L593.42,111.22L596.81,108.95L600.2,107.82L603.59,111.22L606.99,111.22L610.38,77.17L613.77,77.17L617.16,70.37L620.55,56.75L623.94,56.75L627.33,55.61L630.73,53.34L634.12,54.48L637.51,53.34L644.28,55.61L647.68,57.88L651.08,57.88L654.47,64.69L657.86,70.37L661.25,72.63L664.64,76.04L668.03,76.04L671.43,77.17L674.83,80.58L678.21,82.85L681.6,82.85L684.99,79.44L688.38,82.85L691.77,82.85" style="vector-effect: none; fill: none; stroke: rgb(148, 103, 189); stroke-opacity: 1; stroke-width: 2.5px; opacity: 1;"/></g><g class="points"/><g class="text"/></g><g class="trace scatter trace788eac" style="stroke-miterlimit: 2;"><g class="fills"><g><path class="js-fill" d="M3.4,572L6.79,576.15L10.18,576.26L67.82,575.72L71.21,577.57L74.6,576.83L77.99,578.51L81.39,578.51L84.77,584.5L88.17,584.5L91.56,582.23L108.51,573.84L111.89,570.18L115.29,568.54L118.67,562.79L125.46,566.59L128.85,568.89L132.24,559.41L135.63,561.91L145.8,534.92L149.19,520.32L159.36,533.28L162.74,521.86L166.13,510.45L169.52,514.35L172.91,513.79L176.3,492.15L179.7,494.19L183.09,489.42L186.48,489.42L189.87,492.72L193.26,485.79L196.65,497.84L200.04,493.91L203.43,472.26L206.81,447.81L210.21,429.67L213.6,414.09L216.99,393.12L220.38,353.85L223.77,340.32L230.56,293.5L233.95,277.07L237.33,250.66L240.73,239.47L244.12,216.76L247.51,216.1L254.29,204.85L257.68,184.89L264.47,184.6L267.89,186.97L274.66,176.67L278.05,174.32L281.44,139.91L284.83,135.68L288.22,136.62L291.6,159.69L295,162.86L298.39,167.32L301.79,162.7L305.18,155.1L308.57,146.97L311.96,149.91L315.35,149.62L318.74,148L322.14,153.16L325.53,153.07L328.92,155.52L332.31,155.52L339.09,153.06L342.48,166.58L345.86,168.34L349.25,162.78L356.03,165.18L359.42,165.18L362.81,161.85L366.21,162.63L369.61,160.69L373,154.54L376.39,155.11L379.77,150.27L383.16,151.28L386.55,151.32L389.94,151.32L393.33,105.61L396.71,98.2L400.1,99.07L410.27,91.38L413.66,135.61L417.06,132.55L420.45,137.69L423.84,139.96L427.23,146.92L430.62,146.92L434.01,150.23L437.4,151.6L440.79,151.6L444.18,150.84L447.56,148.26L450.96,150.63L454.35,150.62L457.75,150.28L461.13,151.28L464.54,113.17L467.93,113.17L471.32,105.6L474.71,102.45L478.1,95.24L481.49,95.24L484.89,99.32L488.28,97.59L491.67,98.82L495.07,98.82L498.46,97L501.85,93.64L505.25,97.59L508.64,99.32L512.03,103.54L515.42,106.24L518.81,106.56L522.19,109.17L525.58,113.35L528.97,109.17L532.37,109.26L535.76,97.28L549.31,98.9L552.71,98.65L556.11,95.66L559.5,229.32L562.89,225.55L566.29,231.24L569.68,250.95L573.07,249.31L576.47,246.53L579.86,247.94L590.03,248.4L593.42,247.64L596.81,246.23L600.2,245.74L603.59,248.09L606.99,248.09L610.38,138.37L613.77,138.37L617.16,126.78L620.55,73.11L623.94,73.11L627.33,72.22L630.73,68.93L634.12,71.26L637.51,71.39L640.9,72.45L647.68,77.4L651.08,77.4L654.47,104.98L657.86,115.8L661.25,117.52L664.64,120.56L668.03,120.56L671.43,121.51L674.83,125.56L678.21,126.71L681.6,126.71L684.99,125.6L688.38,126.71L691.77,126.71L691.77,38.99L688.38,38.99L684.99,33.28L681.6,38.99L678.21,38.99L674.83,35.6L671.43,32.84L668.03,31.52L664.64,31.52L661.25,27.75L657.86,24.93L654.47,24.4L651.08,38.36L647.68,38.36L644.28,36.67L640.9,36.51L637.51,35.29L634.12,37.7L630.73,37.76L623.94,40.38L620.55,40.38L617.16,13.95L613.77,15.97L610.38,15.97L606.99,-25.65L603.59,-25.65L600.2,-30.1L596.81,-28.33L593.42,-25.19L590.03,-23.68L586.64,-25.49L579.86,-25.49L576.47,-28.63L573.07,-24.59L569.68,-21.7L566.29,-29.23L562.89,-32.62L559.5,-27.3L556.11,42.8L549.31,46.37L545.93,46.37L542.54,45.13L539.15,45.13L535.76,47.99L532.37,49.63L528.97,47.45L525.58,52.35L522.19,47.45L518.81,43.25L512.03,39.46L508.64,39.14L505.25,36.33L501.85,33.47L498.46,34.66L495.07,37.37L491.67,37.37L488.28,36.33L484.89,39.14L481.49,40.95L478.1,40.95L474.71,38.28L471.32,41.94L467.93,45.72L464.54,45.72L461.13,34.84L457.75,31.31L454.35,33.24L450.96,30.96L447.56,24.25L444.18,26.21L440.79,27.72L437.4,27.72L434.01,22.28L430.62,21.05L427.23,21.05L420.45,16.65L417.06,14.99L413.66,18.74L410.27,38.01L406.88,40.69L403.49,42.03L400.1,48.46L396.71,53.87L393.33,51.01L389.94,32.54L386.55,32.54L383.16,34.84L379.77,33.59L376.39,40.1L373,38.39L369.61,43.59L366.21,46.19L362.81,44.7L359.42,48.18L356.03,48.18L349.25,41.51L345.86,47.3L342.48,46.78L339.09,53.49L335.7,57.05L332.31,64.65L328.92,64.65L325.53,62.56L322.14,64.75L318.74,56.28L315.35,56.94L311.96,49.84L308.57,48.24L305.18,51.46L298.39,64.21L295,55.04L291.6,51.41L288.22,51.78L284.83,50.45L281.44,50.75L278.05,43.59L274.66,45.77L271.28,50.4L267.89,60.44L264.47,56L261.07,66.93L257.68,60.25L254.29,56.18L250.9,56.85L247.51,58.56L244.12,66.98L240.73,73.77L237.33,87.54L233.95,97.46L230.56,103.72L227.16,98.72L220.38,120.55L216.99,126.68L213.6,153.37L210.21,178.65L206.81,221.79L203.43,229.12L196.65,271.63L193.26,308.65L186.48,336.8L183.09,336.8L179.7,350.19L176.3,345.42L172.91,348.75L169.52,357.27L166.13,356.63L162.74,358.84L159.36,363.3L155.97,361.27L149.19,360.38L145.8,366.21L142.41,390.41L139.02,394.14L132.24,434.78L128.85,441.19L125.46,463.91L122.07,463.95L118.67,483.6L115.29,491.47L108.51,492.99L105.12,506.59L101.73,514.46L98.34,524.12L94.95,524.76L91.56,525.45L88.17,527.72L84.77,527.72L81.39,547.34L77.99,547.34L74.6,555.82L71.21,557.35L67.82,563.74L64.44,563.74L61.05,566.47L57.66,566.47L54.27,563.74L50.88,566.47L37.33,565.67L33.93,565.32L20.36,563.13L16.95,562.21L10.18,559.23L6.79,556.5L3.4,572Z" style="fill: rgb(148, 103, 189); fill-opacity: 0.1; stroke-width: 0;"/></g></g><g class="errorbars"/><g class="lines"><path class="js-line" d="M3.4,572L6.79,556.5L10.18,559.23L16.95,562.21L20.36,563.13L33.93,565.32L37.33,565.67L50.88,566.47L54.27,563.74L57.66,566.47L61.05,566.47L64.44,563.74L67.82,563.74L71.21,557.35L74.6,555.82L77.99,547.34L81.39,547.34L84.77,527.72L88.17,527.72L91.56,525.45L94.95,524.76L98.34,524.12L101.73,514.46L105.12,506.59L108.51,492.99L115.29,491.47L118.67,483.6L122.07,463.95L125.46,463.91L128.85,441.19L132.24,434.78L139.02,394.14L142.41,390.41L145.8,366.21L149.19,360.38L155.97,361.27L159.36,363.3L162.74,358.84L166.13,356.63L169.52,357.27L172.91,348.75L176.3,345.42L179.7,350.19L183.09,336.8L186.48,336.8L193.26,308.65L196.65,271.63L203.43,229.12L206.81,221.79L210.21,178.65L213.6,153.37L216.99,126.68L220.38,120.55L227.16,98.72L230.56,103.72L233.95,97.46L237.33,87.54L240.73,73.77L244.12,66.98L247.51,58.56L250.9,56.85L254.29,56.18L257.68,60.25L261.07,66.93L264.47,56L267.89,60.44L271.28,50.4L274.66,45.77L278.05,43.59L281.44,50.75L284.83,50.45L288.22,51.78L291.6,51.41L295,55.04L298.39,64.21L305.18,51.46L308.57,48.24L311.96,49.84L315.35,56.94L318.74,56.28L322.14,64.75L325.53,62.56L328.92,64.65L332.31,64.65L335.7,57.05L339.09,53.49L342.48,46.78L345.86,47.3L349.25,41.51L356.03,48.18L359.42,48.18L362.81,44.7L366.21,46.19L369.61,43.59L373,38.39L376.39,40.1L379.77,33.59L383.16,34.84L386.55,32.54L389.94,32.54L393.33,51.01L396.71,53.87L400.1,48.46L403.49,42.03L406.88,40.69L410.27,38.01L413.66,18.74L417.06,14.99L420.45,16.65L427.23,21.05L430.62,21.05L434.01,22.28L437.4,27.72L440.79,27.72L444.18,26.21L447.56,24.25L450.96,30.96L454.35,33.24L457.75,31.31L461.13,34.84L464.54,45.72L467.93,45.72L471.32,41.94L474.71,38.28L478.1,40.95L481.49,40.95L484.89,39.14L488.28,36.33L491.67,37.37L495.07,37.37L498.46,34.66L501.85,33.47L505.25,36.33L508.64,39.14L512.03,39.46L518.81,43.25L522.19,47.45L525.58,52.35L528.97,47.45L532.37,49.63L535.76,47.99L539.15,45.13L542.54,45.13L545.93,46.37L549.31,46.37L556.11,42.8L559.5,-27.3L562.89,-32.62L566.29,-29.23L569.68,-21.7L573.07,-24.59L576.47,-28.63L579.86,-25.49L586.64,-25.49L590.03,-23.68L593.42,-25.19L596.81,-28.33L600.2,-30.1L603.59,-25.65L606.99,-25.65L610.38,15.97L613.77,15.97L617.16,13.95L620.55,40.38L623.94,40.38L630.73,37.76L634.12,37.7L637.51,35.29L640.9,36.51L644.28,36.67L647.68,38.36L651.08,38.36L654.47,24.4L657.86,24.93L661.25,27.75L664.64,31.52L668.03,31.52L671.43,32.84L674.83,35.6L678.21,38.99L681.6,38.99L684.99,33.28L688.38,38.99L691.77,38.99" style="vector-effect: none; fill: none; stroke: rgb(171, 99, 250); stroke-opacity: 1; stroke-width: 0px; opacity: 1;"/></g><g class="points"/><g class="text"/></g><g class="trace scatter trace0189c1" style="stroke-miterlimit: 2;"><g class="fills"/><g class="errorbars"/><g class="lines"><path class="js-line" d="M3.4,572L6.79,576.15L10.18,576.26L67.82,575.72L71.21,577.57L74.6,576.83L77.99,578.51L81.39,578.51L84.77,584.5L88.17,584.5L91.56,582.23L108.51,573.84L111.89,570.18L115.29,568.54L118.67,562.79L125.46,566.59L128.85,568.89L132.24,559.41L135.63,561.91L145.8,534.92L149.19,520.32L159.36,533.28L162.74,521.86L166.13,510.45L169.52,514.35L172.91,513.79L176.3,492.15L179.7,494.19L183.09,489.42L186.48,489.42L189.87,492.72L193.26,485.79L196.65,497.84L200.04,493.91L203.43,472.26L206.81,447.81L210.21,429.67L213.6,414.09L216.99,393.12L220.38,353.85L223.77,340.32L230.56,293.5L233.95,277.07L237.33,250.66L240.73,239.47L244.12,216.76L247.51,216.1L254.29,204.85L257.68,184.89L264.47,184.6L267.89,186.97L274.66,176.67L278.05,174.32L281.44,139.91L284.83,135.68L288.22,136.62L291.6,159.69L295,162.86L298.39,167.32L301.79,162.7L305.18,155.1L308.57,146.97L311.96,149.91L315.35,149.62L318.74,148L322.14,153.16L325.53,153.07L328.92,155.52L332.31,155.52L339.09,153.06L342.48,166.58L345.86,168.34L349.25,162.78L356.03,165.18L359.42,165.18L362.81,161.85L366.21,162.63L369.61,160.69L373,154.54L376.39,155.11L379.77,150.27L383.16,151.28L386.55,151.32L389.94,151.32L393.33,105.61L396.71,98.2L400.1,99.07L410.27,91.38L413.66,135.61L417.06,132.55L420.45,137.69L423.84,139.96L427.23,146.92L430.62,146.92L434.01,150.23L437.4,151.6L440.79,151.6L444.18,150.84L447.56,148.26L450.96,150.63L454.35,150.62L457.75,150.28L461.13,151.28L464.54,113.17L467.93,113.17L471.32,105.6L474.71,102.45L478.1,95.24L481.49,95.24L484.89,99.32L488.28,97.59L491.67,98.82L495.07,98.82L498.46,97L501.85,93.64L505.25,97.59L508.64,99.32L512.03,103.54L515.42,106.24L518.81,106.56L522.19,109.17L525.58,113.35L528.97,109.17L532.37,109.26L535.76,97.28L549.31,98.9L552.71,98.65L556.11,95.66L559.5,229.32L562.89,225.55L566.29,231.24L569.68,250.95L573.07,249.31L576.47,246.53L579.86,247.94L590.03,248.4L593.42,247.64L596.81,246.23L600.2,245.74L603.59,248.09L606.99,248.09L610.38,138.37L613.77,138.37L617.16,126.78L620.55,73.11L623.94,73.11L627.33,72.22L630.73,68.93L634.12,71.26L637.51,71.39L640.9,72.45L647.68,77.4L651.08,77.4L654.47,104.98L657.86,115.8L661.25,117.52L664.64,120.56L668.03,120.56L671.43,121.51L674.83,125.56L678.21,126.71L681.6,126.71L684.99,125.6L688.38,126.71L691.77,126.71" style="vector-effect: none; fill: none; stroke: rgb(255, 161, 90); stroke-opacity: 1; stroke-width: 0px; opacity: 1;"/></g><g class="points"/><g class="text"/></g><g class="trace scatter trace21550d" style="stroke-miterlimit: 2; opacity: 1;"><g class="fills"/><g class="errorbars"/><g class="lines"><path class="js-line" d="M0.01,572L40.69,572L44.09,569.57L47.48,569.73L50.88,568.6L54.27,568.6L57.66,564.06L64.44,564.06L67.83,561.79L71.22,560.65L74.62,554.98L78,554.98L81.4,553.84L84.78,550.44L88.18,549.3L94.96,540.22L98.35,539.09L101.74,533.41L105.14,530.01L108.53,527.74L111.91,522.06L115.31,511.85L118.7,511.85L122.09,508.44L125.48,509.58L128.89,505.04L132.28,505.04L139.05,498.23L142.44,500.5L145.83,497.1L149.22,497.1L152.61,494.83L156.01,486.88L159.4,488.02L162.79,488.02L166.18,484.61L169.57,470.99L172.96,466.45L176.34,464.18L179.74,455.1L183.12,450.56L189.91,448.29L193.3,431.27L196.68,430.13L200.07,416.52L203.46,405.17L206.85,405.17L213.63,377.93L217.03,377.93L220.41,377.93L223.8,369.98L227.19,355.23L230.58,347.29L237.36,306.43L240.75,288.27L244.14,295.08L247.53,283.73L250.93,274.65L254.32,270.11L257.72,256.49L261.11,251.95L264.5,245.14L267.89,229.25L271.28,221.31L274.67,208.83L281.45,194.07L284.84,190.67L291.63,182.72L295.03,167.97L298.42,163.43L301.81,161.16L305.2,157.75L308.59,152.08L315.37,141.87L318.76,141.87L322.15,132.79L325.54,129.38L328.93,124.84L332.32,122.57L335.71,122.57L339.09,116.9L345.88,112.36L349.27,105.55L356.05,95.33L359.45,93.06L362.83,88.52L366.23,90.79L369.62,90.79L373.01,91.93L383.18,111.22L386.57,115.76L389.96,131.65L393.35,132.79L396.74,130.52L400.13,132.79L403.52,141.87L406.92,143L410.31,141.87L413.69,147.54L417.08,145.27L420.47,148.67L423.86,152.08L427.25,146.4L430.64,143L434.03,135.06L437.42,131.65L440.81,119.17L444.2,118.03L447.59,115.76L450.99,118.03L454.37,110.09L457.76,112.36L461.15,110.09L464.54,104.41L467.93,104.41L471.33,97.6L474.72,95.33L478.11,96.47L481.5,95.33L484.89,93.06L488.27,89.66L491.66,91.93L495.05,87.39L498.45,89.66L501.83,85.12L505.22,86.25L508.61,85.12L512,87.39L515.39,85.12L518.79,81.71L522.17,85.12L525.56,81.71L528.95,79.44L532.34,81.71L535.73,82.85L539.12,88.52L542.5,83.98L545.9,85.12L549.29,81.71L552.68,87.39L556.08,85.12L559.46,83.98L562.86,81.71L566.25,80.58L569.64,83.98L573.03,80.58L576.42,79.44L579.81,78.31L583.19,72.63L586.59,76.04L589.98,71.5L593.37,73.77L596.77,71.5L600.16,73.77L603.55,71.5L606.94,69.23L610.33,65.83L613.72,69.23L617.11,78.31L620.5,79.44L623.89,77.17L627.28,76.04L630.67,76.04L634.07,76.04L637.46,73.77L640.85,72.63L644.25,69.23L647.64,70.37L651.03,70.37L654.42,69.23L657.8,69.23L661.19,69.23L664.58,66.96L667.97,60.15L671.36,57.88L674.75,61.29L678.14,63.56L681.53,64.69L684.91,62.42L691.69,64.69" style="vector-effect: none; fill: none; stroke: rgb(140, 86, 75); stroke-opacity: 1; stroke-width: 2.5px; opacity: 1;"/></g><g class="points"/><g class="text"/></g><g class="trace scatter tracec57be4" style="stroke-miterlimit: 2;"><g class="fills"><g><path class="js-fill" d="M3.4,572L40.69,572L44.09,578.67L54.27,578.14L57.66,583.22L64.44,583.22L67.83,581.93L71.22,580.66L74.62,582.28L78,582.28L81.4,580.73L91.57,573.39L94.96,574.79L101.74,571.19L105.14,566.33L108.53,566.77L111.91,560.38L115.31,555.9L118.7,555.9L122.09,550.87L125.48,551.61L128.89,543.36L132.28,543.36L135.66,540.7L139.05,534.44L142.44,538.13L145.83,539.68L152.61,539.8L156.01,537.14L159.4,538.05L162.79,538.05L166.18,541.02L169.57,537.38L172.96,532.76L176.34,529.7L179.74,524.06L183.12,514.54L189.91,511.16L193.3,502.18L196.68,501.4L200.07,481.46L203.46,480.53L206.85,480.53L210.24,469.51L213.63,455.89L220.41,455.89L223.8,447.7L227.19,433.63L230.58,430.24L237.36,394.61L240.75,363.77L244.14,374.53L247.53,358.9L250.93,349.37L254.32,347.45L257.72,326.64L261.11,322.5L264.5,317.43L267.89,298.81L274.67,270.43L278.06,264.55L281.45,257.83L284.84,258.4L288.24,256.81L291.63,253.17L295.03,210.87L298.42,202.57L305.2,193.39L308.59,187.71L311.98,178.71L315.37,174.34L318.76,174.34L322.15,162.41L325.54,162.19L328.93,159.77L332.32,158.28L335.71,158.28L339.09,160.28L342.49,156.26L345.88,152.02L349.27,144.58L352.66,132.98L356.05,126.19L359.45,123.83L362.83,115.67L366.23,119.9L369.62,119.9L373.01,120.85L376.4,135.25L383.18,156.93L386.57,163.13L389.96,186.58L393.35,187.84L396.74,186.41L400.13,186.31L403.52,199.94L406.92,199.9L410.31,200.3L413.69,203.44L417.08,202.63L420.47,206.54L423.86,208.05L427.25,203.59L430.64,199.53L434.03,194.26L437.42,190.58L440.81,166.36L444.2,164.73L447.59,164.43L450.99,166.47L454.37,146.98L461.15,151.22L464.54,143.48L467.93,143.48L471.33,130.95L474.72,126.19L478.11,127.64L481.5,125.51L484.89,127.03L488.27,124.11L491.66,126.7L495.05,121.36L498.45,122.89L501.83,117.16L505.22,119.61L508.61,117.16L512,116.07L515.39,115.84L518.79,114.01L522.17,119.65L525.56,115.88L528.95,112.55L532.34,118.23L535.73,117.78L539.12,126.48L542.5,122.95L545.9,123.62L549.29,121.48L552.68,130.01L556.08,126.22L559.46,124.51L566.25,124.63L569.64,126.99L573.03,121.71L576.42,121.38L579.81,120.5L583.19,110.52L586.59,113.48L589.98,103.54L593.37,104.94L596.77,103.54L600.16,104.94L603.55,97.87L610.33,91.13L613.72,92.31L617.11,109.17L620.5,111.27L623.89,110.28L627.28,110.61L634.07,110.61L637.46,108.1L644.25,105.55L647.64,106.11L651.03,106.11L654.42,103.8L661.19,103.8L664.58,102.01L667.97,82.87L671.36,76.31L674.75,81.63L678.14,81.6L681.53,83.12L684.91,83.24L691.69,86.22L691.69,43.16L684.91,41.6L681.53,46.27L678.14,45.51L674.75,40.94L671.36,39.46L667.97,37.43L664.58,31.91L661.19,34.66L651.03,34.62L647.64,34.62L644.25,32.91L640.85,38.18L637.46,39.44L634.07,41.47L630.67,41.47L627.28,41.47L620.5,47.62L617.11,47.45L613.72,46.15L610.33,40.52L606.94,43.6L603.55,45.13L600.16,42.6L596.77,39.46L593.37,42.6L589.98,39.46L586.59,38.59L583.19,34.75L569.64,40.98L566.25,36.53L562.86,38.94L559.46,43.46L556.08,44.02L552.68,44.77L549.29,41.95L545.9,46.62L542.5,45.02L539.12,50.57L535.73,47.92L532.34,45.2L528.95,46.34L525.56,47.55L522.17,50.59L518.79,49.41L512,58.71L508.61,53.08L501.83,53.08L498.45,56.43L495.05,53.42L491.66,57.16L488.27,55.21L484.89,59.1L481.5,65.15L478.11,65.3L474.72,64.48L471.33,64.25L467.93,65.34L464.54,65.34L461.15,68.95L457.76,75.39L454.37,73.2L450.99,69.6L447.59,67.1L444.2,71.34L440.81,71.97L437.42,72.73L434.03,75.85L430.64,86.47L427.25,89.21L423.86,96.11L420.47,90.81L417.08,87.91L413.69,91.64L410.31,83.43L406.92,86.1L403.52,83.79L400.13,79.26L396.74,74.62L393.35,77.73L389.96,76.73L386.57,68.39L383.18,65.51L379.79,63.95L376.4,62.23L373.01,63.01L369.62,61.68L362.83,61.38L359.45,62.29L356.05,64.48L352.66,66.77L349.27,66.51L345.88,72.69L339.09,73.51L335.71,86.86L332.32,86.86L328.93,89.91L318.76,109.39L315.37,109.39L311.98,116.37L308.59,116.45L305.2,122.12L301.81,124.27L295.03,125.06L291.63,112.28L288.24,115.45L284.84,122.94L278.06,139.48L274.67,147.22L271.28,158L267.89,159.7L264.5,172.86L261.11,181.41L257.72,186.34L254.32,192.77L247.53,208.56L244.14,215.63L240.75,212.77L237.36,218.25L233.97,236.16L230.58,264.33L223.8,292.27L220.41,299.97L217.03,299.97L213.63,299.97L206.85,329.8L203.46,329.8L200.07,351.57L196.68,358.87L193.3,360.36L189.91,385.43L183.12,386.59L179.74,386.14L176.34,398.67L172.96,400.14L169.57,404.6L166.18,428.2L162.79,437.98L159.4,437.98L156.01,436.63L152.61,449.85L149.22,454.51L145.83,454.51L142.44,462.87L139.05,462.02L135.66,462.57L132.28,466.72L128.89,466.72L125.48,467.55L122.09,466.02L118.7,467.8L115.31,467.8L111.91,483.74L105.14,493.69L101.74,495.64L98.35,505.37L94.96,505.65L91.57,516.13L88.18,522.26L84.78,522.79L81.4,526.95L74.62,527.68L71.22,540.65L67.83,541.64L64.44,544.9L57.66,544.9L54.27,559.05L50.88,559.05L47.48,560.94L44.09,560.47L40.69,572L3.4,572Z" style="fill: rgb(140, 86, 75); fill-opacity: 0.1; stroke-width: 0;"/></g></g><g class="errorbars"/><g class="lines"><path class="js-line" d="M3.4,572L40.69,572L44.09,560.47L47.48,560.94L50.88,559.05L54.27,559.05L57.66,544.9L64.44,544.9L67.83,541.64L71.22,540.65L74.62,527.68L81.4,526.95L84.78,522.79L88.18,522.26L91.57,516.13L94.96,505.65L98.35,505.37L101.74,495.64L105.14,493.69L111.91,483.74L115.31,467.8L118.7,467.8L122.09,466.02L125.48,467.55L128.89,466.72L132.28,466.72L135.66,462.57L139.05,462.02L142.44,462.87L145.83,454.51L149.22,454.51L152.61,449.85L156.01,436.63L159.4,437.98L162.79,437.98L166.18,428.2L169.57,404.6L172.96,400.14L176.34,398.67L179.74,386.14L183.12,386.59L189.91,385.43L193.3,360.36L196.68,358.87L200.07,351.57L203.46,329.8L206.85,329.8L213.63,299.97L217.03,299.97L220.41,299.97L223.8,292.27L230.58,264.33L233.97,236.16L237.36,218.25L240.75,212.77L244.14,215.63L247.53,208.56L254.32,192.77L257.72,186.34L261.11,181.41L264.5,172.86L267.89,159.7L271.28,158L274.67,147.22L278.06,139.48L284.84,122.94L288.24,115.45L291.63,112.28L295.03,125.06L301.81,124.27L305.2,122.12L308.59,116.45L311.98,116.37L315.37,109.39L318.76,109.39L328.93,89.91L332.32,86.86L335.71,86.86L339.09,73.51L345.88,72.69L349.27,66.51L352.66,66.77L356.05,64.48L359.45,62.29L362.83,61.38L369.62,61.68L373.01,63.01L376.4,62.23L379.79,63.95L383.18,65.51L386.57,68.39L389.96,76.73L393.35,77.73L396.74,74.62L400.13,79.26L403.52,83.79L406.92,86.1L410.31,83.43L413.69,91.64L417.08,87.91L420.47,90.81L423.86,96.11L427.25,89.21L430.64,86.47L434.03,75.85L437.42,72.73L440.81,71.97L444.2,71.34L447.59,67.1L450.99,69.6L454.37,73.2L457.76,75.39L461.15,68.95L464.54,65.34L467.93,65.34L471.33,64.25L474.72,64.48L478.11,65.3L481.5,65.15L484.89,59.1L488.27,55.21L491.66,57.16L495.05,53.42L498.45,56.43L501.83,53.08L508.61,53.08L512,58.71L518.79,49.41L522.17,50.59L525.56,47.55L528.95,46.34L532.34,45.2L535.73,47.92L539.12,50.57L542.5,45.02L545.9,46.62L549.29,41.95L552.68,44.77L556.08,44.02L559.46,43.46L562.86,38.94L566.25,36.53L569.64,40.98L583.19,34.75L586.59,38.59L589.98,39.46L593.37,42.6L596.77,39.46L600.16,42.6L603.55,45.13L606.94,43.6L610.33,40.52L613.72,46.15L617.11,47.45L620.5,47.62L627.28,41.47L630.67,41.47L634.07,41.47L637.46,39.44L640.85,38.18L644.25,32.91L647.64,34.62L651.03,34.62L661.19,34.66L664.58,31.91L667.97,37.43L671.36,39.46L674.75,40.94L678.14,45.51L681.53,46.27L684.91,41.6L691.69,43.16" style="vector-effect: none; fill: none; stroke: rgb(255, 102, 146); stroke-opacity: 1; stroke-width: 0px; opacity: 1;"/></g><g class="points"/><g class="text"/></g><g class="trace scatter trace953cef" style="stroke-miterlimit: 2;"><g class="fills"/><g class="errorbars"/><g class="lines"><path class="js-line" d="M3.4,572L40.69,572L44.09,578.67L54.27,578.14L57.66,583.22L64.44,583.22L67.83,581.93L71.22,580.66L74.62,582.28L78,582.28L81.4,580.73L91.57,573.39L94.96,574.79L101.74,571.19L105.14,566.33L108.53,566.77L111.91,560.38L115.31,555.9L118.7,555.9L122.09,550.87L125.48,551.61L128.89,543.36L132.28,543.36L135.66,540.7L139.05,534.44L142.44,538.13L145.83,539.68L152.61,539.8L156.01,537.14L159.4,538.05L162.79,538.05L166.18,541.02L169.57,537.38L172.96,532.76L176.34,529.7L179.74,524.06L183.12,514.54L189.91,511.16L193.3,502.18L196.68,501.4L200.07,481.46L203.46,480.53L206.85,480.53L210.24,469.51L213.63,455.89L220.41,455.89L223.8,447.7L227.19,433.63L230.58,430.24L237.36,394.61L240.75,363.77L244.14,374.53L247.53,358.9L250.93,349.37L254.32,347.45L257.72,326.64L261.11,322.5L264.5,317.43L267.89,298.81L274.67,270.43L278.06,264.55L281.45,257.83L284.84,258.4L288.24,256.81L291.63,253.17L295.03,210.87L298.42,202.57L305.2,193.39L308.59,187.71L311.98,178.71L315.37,174.34L318.76,174.34L322.15,162.41L325.54,162.19L328.93,159.77L332.32,158.28L335.71,158.28L339.09,160.28L342.49,156.26L345.88,152.02L349.27,144.58L352.66,132.98L356.05,126.19L359.45,123.83L362.83,115.67L366.23,119.9L369.62,119.9L373.01,120.85L376.4,135.25L383.18,156.93L386.57,163.13L389.96,186.58L393.35,187.84L396.74,186.41L400.13,186.31L403.52,199.94L406.92,199.9L410.31,200.3L413.69,203.44L417.08,202.63L420.47,206.54L423.86,208.05L427.25,203.59L430.64,199.53L434.03,194.26L437.42,190.58L440.81,166.36L444.2,164.73L447.59,164.43L450.99,166.47L454.37,146.98L461.15,151.22L464.54,143.48L467.93,143.48L471.33,130.95L474.72,126.19L478.11,127.64L481.5,125.51L484.89,127.03L488.27,124.11L491.66,126.7L495.05,121.36L498.45,122.89L501.83,117.16L505.22,119.61L508.61,117.16L512,116.07L515.39,115.84L518.79,114.01L522.17,119.65L525.56,115.88L528.95,112.55L532.34,118.23L535.73,117.78L539.12,126.48L542.5,122.95L545.9,123.62L549.29,121.48L552.68,130.01L556.08,126.22L559.46,124.51L566.25,124.63L569.64,126.99L573.03,121.71L576.42,121.38L579.81,120.5L583.19,110.52L586.59,113.48L589.98,103.54L593.37,104.94L596.77,103.54L600.16,104.94L603.55,97.87L610.33,91.13L613.72,92.31L617.11,109.17L620.5,111.27L623.89,110.28L627.28,110.61L634.07,110.61L637.46,108.1L644.25,105.55L647.64,106.11L651.03,106.11L654.42,103.8L661.19,103.8L664.58,102.01L667.97,82.87L671.36,76.31L674.75,81.63L678.14,81.6L681.53,83.12L684.91,83.24L691.69,86.22" style="vector-effect: none; fill: none; stroke: rgb(182, 232, 128); stroke-opacity: 1; stroke-width: 0px; opacity: 1;"/></g><g class="points"/><g class="text"/></g><g class="trace scatter tracef2569a" style="stroke-miterlimit: 2; opacity: 1;"><g class="fills"/><g class="errorbars"/><g class="lines"><path class="js-line" d="M0.01,572L30.51,572L33.9,570.45L57.62,570.87L61.01,568.6L67.78,566.33L71.17,566.33L74.56,566.33L77.95,562.92L81.34,559.52L84.73,557.25L88.13,552.71L91.53,550.44L94.92,544.76L98.31,543.63L101.7,542.49L105.09,535.68L108.49,534.55L111.87,535.68L115.27,528.87L118.66,519.79L122.05,518.66L125.44,514.12L128.83,516.39L132.21,519.79L135.61,523.2L138.99,527.74L142.38,512.98L145.77,508.44L149.16,508.44L152.55,498.23L155.94,495.96L159.33,491.42L162.72,484.61L166.1,480.07L169.5,478.94L172.89,469.86L179.67,447.16L183.09,441.48L186.48,423.33L189.87,413.11L193.26,411.98L196.65,407.44L200.03,399.49L203.42,394.95L206.82,388.14L210.2,389.28L213.59,380.2L216.98,375.66L220.37,369.98L223.76,360.9L227.15,358.63L230.54,354.1L233.93,346.15L237.32,343.88L240.72,335.94L244.11,339.34L247.5,345.02L250.89,341.61L254.27,347.29L257.66,348.42L261.05,331.4L264.44,330.26L267.82,325.72L271.21,331.4L274.6,332.53L277.99,339.34L281.38,338.21L284.78,335.94L288.17,338.21L291.56,332.53L294.95,324.59L298.33,310.97L301.73,301.89L305.12,301.89L311.9,290.54L315.29,278.06L318.68,288.27L322.07,278.06L325.47,272.38L328.86,259.9L332.24,265.57L335.63,257.63L339.02,251.95L342.41,251.95L345.8,249.68L349.2,253.09L352.59,254.22L355.98,237.2L359.36,232.66L362.75,256.49L366.15,267.84L369.54,249.68L372.93,245.14L376.32,245.14L379.71,241.74L383.1,223.58L386.49,222.44L389.88,226.98L396.66,214.5L400.05,200.88L403.44,190.67L406.83,190.67L410.22,194.07L413.62,165.7L417,165.7L420.39,169.1L423.78,172.51L427.17,166.83L430.56,169.1L433.94,166.83L437.33,165.7L440.73,162.29L444.11,164.56L447.5,170.24L450.89,173.64L454.28,173.64L457.66,171.37L461.05,158.89L464.44,157.75L467.83,153.21L471.22,145.27L474.61,139.6L478,141.87L481.39,133.92L484.78,140.73L488.17,138.46L491.56,131.65L494.94,128.25L498.33,127.11L501.72,122.57L505.12,125.98L508.5,128.25L511.89,136.19L515.28,138.46L518.67,130.52L522.06,139.6L525.45,137.33L528.84,132.79L532.23,132.79L535.62,139.6L539.01,132.79L542.4,132.79L545.78,132.79L549.18,133.92L552.56,140.73L555.96,136.19L559.35,135.06L562.74,127.11L566.13,125.98L569.52,128.25L572.91,120.3L576.3,118.03L579.69,115.76L583.07,116.9L586.47,110.09L589.86,115.76L593.24,114.63L596.64,118.03L600.03,110.09L603.42,110.09L606.81,111.22L610.2,108.95L613.59,111.22L616.98,108.95L620.38,108.95L623.77,113.49L627.16,116.9L630.55,122.57L633.94,122.57L637.32,116.9L644.1,116.9L647.49,114.63L657.67,111.22L661.06,107.82L664.45,108.95L667.84,118.03L671.23,116.9L674.62,116.9L681.41,119.17L684.8,119.17L688.19,120.3L691.58,120.3" style="vector-effect: none; fill: none; stroke: rgb(227, 119, 194); stroke-opacity: 1; stroke-width: 2.5px; opacity: 1;"/></g><g class="points"/><g class="text"/></g><g class="trace scatter trace9b2816" style="stroke-miterlimit: 2;"><g class="fills"><g><path class="js-fill" d="M3.4,572L30.51,572L33.9,575.59L57.62,575.26L61.01,578.14L71.17,576.83L74.56,576.83L77.95,578.51L81.34,578.24L84.73,578.46L88.13,577.52L91.53,574.91L94.92,573.39L108.49,564.86L111.87,566.45L118.66,565.5L122.05,563.18L125.44,556.21L128.83,559.78L138.99,576.66L142.38,586.03L149.16,585.25L152.55,578.51L155.94,577.57L159.33,571.39L162.72,563.12L166.1,562.42L169.5,562.3L172.89,551.75L176.28,546.89L179.67,533.16L183.09,521.25L186.48,502.25L189.87,480.49L193.26,481.22L196.65,478.41L200.03,458.42L203.42,456.27L206.82,450.26L210.2,453.45L213.59,444.37L216.98,441.86L220.37,437.43L223.76,430.44L227.15,429.67L230.54,425.51L233.93,407.69L237.32,407.84L240.72,397.27L244.11,399.93L247.5,410.53L250.89,403.28L254.27,412.01L257.66,413.04L261.05,384.79L267.82,383.58L271.21,392.39L274.6,392.71L277.99,401.28L281.38,400.74L284.78,397.94L288.17,398.04L291.56,399.85L294.95,396.49L298.33,379.57L301.73,369.02L305.12,369.02L308.51,362.52L311.9,364.43L315.29,364.97L318.68,380.32L322.07,364.97L325.47,360.56L328.86,341.46L332.24,352.85L335.63,343.68L339.02,337.85L342.41,337.85L345.8,336.6L349.2,340.24L352.59,341.42L355.98,314.32L359.36,310L362.75,361.21L366.15,364.76L369.54,345.22L372.93,342.34L376.32,342.34L379.71,340.96L383.1,319.64L386.49,318.72L389.88,324.45L393.27,321.98L396.66,320.23L400.05,310.3L403.44,300.77L406.83,300.77L410.22,305.18L413.62,233.14L417,233.14L420.39,235.87L423.78,241.17L427.17,235.29L430.56,238L433.94,238.25L437.33,236.73L440.73,228.37L444.11,230.01L447.5,232.89L457.66,231L461.05,220.76L464.44,221.02L467.83,208.86L471.22,205.1L474.61,194.5L478,197.02L481.39,189.07L484.78,194.82L488.17,191.47L491.56,177.99L494.94,173.96L501.72,170.2L505.12,174.64L508.5,177.86L511.89,183.82L515.28,183.9L518.67,171.95L522.06,179.67L525.45,177.95L528.84,174.09L532.23,174.09L535.62,195.24L539.01,193.56L545.78,193.56L549.18,195.46L552.56,199.23L555.96,195.44L559.35,193.91L562.74,187.43L566.13,186.75L569.52,188.42L572.91,178.52L576.3,177.24L579.69,176.53L583.07,177.07L586.47,153.66L589.86,155.53L593.24,154.22L596.64,159.57L600.03,150.2L603.42,150.2L606.81,151.13L610.2,147.67L620.38,147.67L623.77,152.35L630.55,157.7L633.94,157.7L637.32,148.72L640.71,148.72L644.1,148.72L647.49,144.02L650.89,145.32L654.28,142.54L661.06,140.92L664.45,141.89L667.84,155.37L671.23,154.12L674.62,154.12L678.01,155.92L681.41,158.2L684.8,158.2L691.58,158.84L691.58,81.77L688.19,81.77L684.8,80.13L671.23,79.67L667.84,80.7L664.45,76.02L661.06,74.72L657.67,80.72L654.28,82.18L650.89,81.67L647.49,85.23L637.32,85.07L633.94,87.45L630.55,87.45L627.16,79.12L620.38,70.24L616.98,70.24L613.59,74.56L610.2,70.24L606.81,71.32L603.42,69.97L600.03,69.97L596.64,76.5L593.24,75.03L589.86,75.99L583.07,56.72L579.69,54.99L572.91,62.08L569.52,68.07L566.13,65.21L562.74,66.8L559.35,76.2L555.96,76.94L552.56,82.23L549.18,72.38L542.4,72.02L539.01,72.02L535.62,83.95L532.23,91.49L528.84,91.49L525.45,96.7L522.06,99.52L518.67,89.08L515.28,93.02L511.89,88.56L508.5,78.63L505.12,77.31L501.72,74.94L498.33,82.59L494.94,82.54L491.56,85.31L488.17,85.45L484.78,86.64L481.39,78.77L478,86.71L474.61,84.7L471.22,85.44L467.83,97.57L464.44,94.49L461.05,97.02L457.66,111.75L454.28,115.09L450.89,115.09L447.5,107.59L444.11,99.11L440.73,96.21L437.33,94.67L433.94,95.41L430.56,100.2L427.17,98.37L423.78,103.85L420.39,102.34L417,98.25L413.62,98.25L410.22,82.96L406.83,80.57L403.44,80.57L400.05,91.46L396.66,108.77L393.27,120.64L389.88,129.51L386.49,126.17L383.1,127.52L379.71,142.51L376.32,147.94L372.93,147.94L369.54,154.14L366.15,170.93L362.75,151.77L355.98,160.08L352.59,167.02L349.2,165.93L345.8,162.77L342.41,166.06L339.02,166.06L332.24,178.29L328.86,178.34L325.47,184.2L322.07,191.14L318.68,196.22L315.29,191.14L311.9,216.65L308.51,229.91L305.12,234.75L301.73,234.75L298.33,242.37L294.95,252.69L288.17,278.37L284.78,273.93L277.99,277.4L274.6,272.35L267.82,267.86L264.44,276.35L261.05,278L257.66,283.8L254.27,282.56L250.89,279.94L244.11,278.75L240.72,274.6L237.32,279.92L233.93,284.61L230.54,282.68L227.15,287.6L223.76,291.37L220.37,302.54L216.98,309.45L213.59,316.03L210.2,325.11L206.82,326.03L203.42,333.64L200.03,340.57L196.65,336.46L193.26,342.74L189.87,345.73L186.48,344.4L183.09,361.72L179.67,361.15L176.28,370.13L172.89,387.96L169.5,395.57L166.1,397.72L162.72,406.1L159.33,411.45L152.55,417.95L149.16,431.64L145.77,431.64L142.38,439.94L138.99,478.82L135.61,475.54L128.83,473L125.44,472.02L122.05,474.14L118.66,474.08L115.27,491.98L111.87,504.91L105.09,504.25L101.7,515.6L98.31,515.83L94.92,516.13L91.53,525.96L88.13,527.9L84.73,536.04L81.34,540.79L77.95,547.34L74.56,555.82L71.17,555.82L67.78,555.82L61.01,559.05L57.62,566.47L54.23,566.47L50.84,566.47L33.9,565.32L30.51,572L3.4,572Z" style="fill: rgb(227, 119, 194); fill-opacity: 0.1; stroke-width: 0;"/></g></g><g class="errorbars"/><g class="lines"><path class="js-line" d="M3.4,572L30.51,572L33.9,565.32L50.84,566.47L54.23,566.47L57.62,566.47L61.01,559.05L67.78,555.82L71.17,555.82L74.56,555.82L77.95,547.34L81.34,540.79L84.73,536.04L88.13,527.9L91.53,525.96L94.92,516.13L98.31,515.83L101.7,515.6L105.09,504.25L111.87,504.91L115.27,491.98L118.66,474.08L122.05,474.14L125.44,472.02L128.83,473L135.61,475.54L138.99,478.82L142.38,439.94L145.77,431.64L149.16,431.64L152.55,417.95L159.33,411.45L162.72,406.1L166.1,397.72L169.5,395.57L172.89,387.96L176.28,370.13L179.67,361.15L183.09,361.72L186.48,344.4L189.87,345.73L193.26,342.74L196.65,336.46L200.03,340.57L203.42,333.64L206.82,326.03L210.2,325.11L213.59,316.03L216.98,309.45L220.37,302.54L223.76,291.37L227.15,287.6L230.54,282.68L233.93,284.61L237.32,279.92L240.72,274.6L244.11,278.75L250.89,279.94L254.27,282.56L257.66,283.8L261.05,278L264.44,276.35L267.82,267.86L274.6,272.35L277.99,277.4L284.78,273.93L288.17,278.37L294.95,252.69L298.33,242.37L301.73,234.75L305.12,234.75L308.51,229.91L311.9,216.65L315.29,191.14L318.68,196.22L322.07,191.14L325.47,184.2L328.86,178.34L332.24,178.29L339.02,166.06L342.41,166.06L345.8,162.77L349.2,165.93L352.59,167.02L355.98,160.08L362.75,151.77L366.15,170.93L369.54,154.14L372.93,147.94L376.32,147.94L379.71,142.51L383.1,127.52L386.49,126.17L389.88,129.51L393.27,120.64L396.66,108.77L400.05,91.46L403.44,80.57L406.83,80.57L410.22,82.96L413.62,98.25L417,98.25L420.39,102.34L423.78,103.85L427.17,98.37L430.56,100.2L433.94,95.41L437.33,94.67L440.73,96.21L444.11,99.11L447.5,107.59L450.89,115.09L454.28,115.09L457.66,111.75L461.05,97.02L464.44,94.49L467.83,97.57L471.22,85.44L474.61,84.7L478,86.71L481.39,78.77L484.78,86.64L488.17,85.45L491.56,85.31L494.94,82.54L498.33,82.59L501.72,74.94L505.12,77.31L508.5,78.63L511.89,88.56L515.28,93.02L518.67,89.08L522.06,99.52L525.45,96.7L528.84,91.49L532.23,91.49L535.62,83.95L539.01,72.02L542.4,72.02L549.18,72.38L552.56,82.23L555.96,76.94L559.35,76.2L562.74,66.8L566.13,65.21L569.52,68.07L572.91,62.08L579.69,54.99L583.07,56.72L589.86,75.99L593.24,75.03L596.64,76.5L600.03,69.97L603.42,69.97L606.81,71.32L610.2,70.24L613.59,74.56L616.98,70.24L620.38,70.24L627.16,79.12L630.55,87.45L633.94,87.45L637.32,85.07L647.49,85.23L650.89,81.67L654.28,82.18L657.67,80.72L661.06,74.72L664.45,76.02L667.84,80.7L671.23,79.67L684.8,80.13L688.19,81.77L691.58,81.77" style="vector-effect: none; fill: none; stroke: rgb(254, 203, 82); stroke-opacity: 1; stroke-width: 0px; opacity: 1;"/></g><g class="points"/><g class="text"/></g><g class="trace scatter trace073ca1" style="stroke-miterlimit: 2;"><g class="fills"/><g class="errorbars"/><g class="lines"><path class="js-line" d="M3.4,572L30.51,572L33.9,575.59L57.62,575.26L61.01,578.14L71.17,576.83L74.56,576.83L77.95,578.51L81.34,578.24L84.73,578.46L88.13,577.52L91.53,574.91L94.92,573.39L108.49,564.86L111.87,566.45L118.66,565.5L122.05,563.18L125.44,556.21L128.83,559.78L138.99,576.66L142.38,586.03L149.16,585.25L152.55,578.51L155.94,577.57L159.33,571.39L162.72,563.12L166.1,562.42L169.5,562.3L172.89,551.75L176.28,546.89L179.67,533.16L183.09,521.25L186.48,502.25L189.87,480.49L193.26,481.22L196.65,478.41L200.03,458.42L203.42,456.27L206.82,450.26L210.2,453.45L213.59,444.37L216.98,441.86L220.37,437.43L223.76,430.44L227.15,429.67L230.54,425.51L233.93,407.69L237.32,407.84L240.72,397.27L244.11,399.93L247.5,410.53L250.89,403.28L254.27,412.01L257.66,413.04L261.05,384.79L267.82,383.58L271.21,392.39L274.6,392.71L277.99,401.28L281.38,400.74L284.78,397.94L288.17,398.04L291.56,399.85L294.95,396.49L298.33,379.57L301.73,369.02L305.12,369.02L308.51,362.52L311.9,364.43L315.29,364.97L318.68,380.32L322.07,364.97L325.47,360.56L328.86,341.46L332.24,352.85L335.63,343.68L339.02,337.85L342.41,337.85L345.8,336.6L349.2,340.24L352.59,341.42L355.98,314.32L359.36,310L362.75,361.21L366.15,364.76L369.54,345.22L372.93,342.34L376.32,342.34L379.71,340.96L383.1,319.64L386.49,318.72L389.88,324.45L393.27,321.98L396.66,320.23L400.05,310.3L403.44,300.77L406.83,300.77L410.22,305.18L413.62,233.14L417,233.14L420.39,235.87L423.78,241.17L427.17,235.29L430.56,238L433.94,238.25L437.33,236.73L440.73,228.37L444.11,230.01L447.5,232.89L457.66,231L461.05,220.76L464.44,221.02L467.83,208.86L471.22,205.1L474.61,194.5L478,197.02L481.39,189.07L484.78,194.82L488.17,191.47L491.56,177.99L494.94,173.96L501.72,170.2L505.12,174.64L508.5,177.86L511.89,183.82L515.28,183.9L518.67,171.95L522.06,179.67L525.45,177.95L528.84,174.09L532.23,174.09L535.62,195.24L539.01,193.56L545.78,193.56L549.18,195.46L552.56,199.23L555.96,195.44L559.35,193.91L562.74,187.43L566.13,186.75L569.52,188.42L572.91,178.52L576.3,177.24L579.69,176.53L583.07,177.07L586.47,153.66L589.86,155.53L593.24,154.22L596.64,159.57L600.03,150.2L603.42,150.2L606.81,151.13L610.2,147.67L620.38,147.67L623.77,152.35L630.55,157.7L633.94,157.7L637.32,148.72L640.71,148.72L644.1,148.72L647.49,144.02L650.89,145.32L654.28,142.54L661.06,140.92L664.45,141.89L667.84,155.37L671.23,154.12L674.62,154.12L678.01,155.92L681.41,158.2L684.8,158.2L691.58,158.84" style="vector-effect: none; fill: none; stroke: rgb(99, 110, 250); stroke-opacity: 1; stroke-width: 0px; opacity: 1;"/></g><g class="points"/><g class="text"/></g></g></g><g class="overplot"/><path class="xlines-above crisp" d="M0,0" style="fill: none;"/><path class="ylines-above crisp" d="M0,0" style="fill: none;"/><g class="overlines-above"/><g class="xaxislayer-above"><g class="xtick"><text text-anchor="middle" x="0" y="603" transform="translate(89,0)" style="font-family: 'Open Sans', verdana, arial, sans-serif; font-size: 30px; fill: rgb(42, 63, 95); fill-opacity: 1; white-space: pre; opacity: 1;">0</text></g><g class="xtick"><text text-anchor="middle" x="0" y="603" style="font-family: 'Open Sans', verdana, arial, sans-serif; font-size: 30px; fill: rgb(42, 63, 95); fill-opacity: 1; white-space: pre; opacity: 1;" transform="translate(427.57,0)">1M</text></g><g class="xtick"><text text-anchor="middle" x="0" y="603" style="font-family: 'Open Sans', verdana, arial, sans-serif; font-size: 30px; fill: rgb(42, 63, 95); fill-opacity: 1; white-space: pre; opacity: 1;" transform="translate(766.14,0)">2M</text></g></g><g class="yaxislayer-above"><g class="ytick"><text text-anchor="end" x="88" y="10.5" transform="translate(0,463.05)" style="font-family: 'Open Sans', verdana, arial, sans-serif; font-size: 30px; fill: rgb(42, 63, 95); fill-opacity: 1; white-space: pre; opacity: 1;">0.2</text></g><g class="ytick"><text text-anchor="end" x="88" y="10.5" style="font-family: 'Open Sans', verdana, arial, sans-serif; font-size: 30px; fill: rgb(42, 63, 95); fill-opacity: 1; white-space: pre; opacity: 1;" transform="translate(0,354.1)">0.4</text></g><g class="ytick"><text text-anchor="end" x="88" y="10.5" style="font-family: 'Open Sans', verdana, arial, sans-serif; font-size: 30px; fill: rgb(42, 63, 95); fill-opacity: 1; white-space: pre; opacity: 1;" transform="translate(0,245.14)">0.6</text></g><g class="ytick"><text text-anchor="end" x="88" y="10.5" style="font-family: 'Open Sans', verdana, arial, sans-serif; font-size: 30px; fill: rgb(42, 63, 95); fill-opacity: 1; white-space: pre; opacity: 1;" transform="translate(0,136.19)">0.8</text></g><g class="ytick"><text text-anchor="end" x="88" y="10.5" style="font-family: 'Open Sans', verdana, arial, sans-serif; font-size: 30px; fill: rgb(42, 63, 95); fill-opacity: 1; white-space: pre; opacity: 1;" transform="translate(0,27.24)">1</text></g></g><g class="overaxes-above"/></g></g><g class="polarlayer"/><g class="smithlayer"/><g class="ternarylayer"/><g class="geolayer"/><g class="funnelarealayer"/><g class="pielayer"/><g class="iciclelayer"/><g class="treemaplayer"/><g class="sunburstlayer"/><g class="glimages"/><defs id="topdefs-ff0639"><g class="clips"/></defs><g class="layer-above"><g class="imagelayer"/><g class="shapelayer"/></g><g class="infolayer"><g class="g-gtitle"/><g class="g-xtitle" transform="translate(0,-7.7000000000000455)"><text class="xtitle" x="444.5" y="649.7" text-anchor="middle" style="font-family: 'Open Sans', verdana, arial, sans-serif; font-size: 36px; fill: rgb(42, 63, 95); opacity: 1; font-weight: normal; white-space: pre;">Time Steps</text></g><g class="g-ytitle"/></g></svg>