<svg class="main-svg" xmlns="http://www.w3.org/2000/svg" xmlns:xlink="http://www.w3.org/1999/xlink" width="2400" height="1950" style="" viewBox="0 0 800 650"><rect x="0" y="0" width="800" height="650" style="fill: rgb(255, 255, 255); fill-opacity: 1;"/><defs id="defs-d8f9f2"><g class="clips"><clipPath id="clipd8f9f2xyplot" class="plotclip"><rect width="711" height="572"/></clipPath><clipPath class="axesclip" id="clipd8f9f2x"><rect x="89" y="0" width="711" height="650"/></clipPath><clipPath class="axesclip" id="clipd8f9f2y"><rect x="0" y="0" width="800" height="572"/></clipPath><clipPath class="axesclip" id="clipd8f9f2xy"><rect x="89" y="0" width="711" height="572"/></clipPath></g><g class="gradients"/><g class="patterns"/></defs><g class="bglayer"/><g class="layer-below"><g class="imagelayer"/><g class="shapelayer"/></g><g class="cartesianlayer"><g class="subplot xy"><g class="layer-subplot"><g class="shapelayer"/><g class="imagelayer"/></g><g class="minor-gridlayer"><g class="x"/><g class="y"/></g><g class="gridlayer"><g class="x"><path class="xgrid crisp" transform="translate(427.57,0)" d="M0,0v572" style="stroke: rgb(235, 240, 248); stroke-opacity: 1; stroke-width: 1px;"/><path class="xgrid crisp" transform="translate(766.14,0)" d="M0,0v572" style="stroke: rgb(235, 240, 248); stroke-opacity: 1; stroke-width: 1px;"/></g><g class="y"><path class="ygrid crisp" transform="translate(0,463.05)" d="M89,0h711" style="stroke: rgb(235, 240, 248); stroke-opacity: 1; stroke-width: 1px;"/><path class="ygrid crisp" transform="translate(0,354.1)" d="M89,0h711" style="stroke: rgb(235, 240, 248); stroke-opacity: 1; stroke-width: 1px;"/><path class="ygrid crisp" transform="translate(0,245.14)" d="M89,0h711" style="stroke: rgb(235, 240, 248); stroke-opacity: 1; stroke-width: 1px;"/><path class="ygrid crisp" transform="translate(0,136.19)" d="M89,0h711" style="stroke: rgb(235, 240, 248); stroke-opacity: 1; stroke-width: 1px;"/><path class="ygrid crisp" transform="translate(0,27.24)" d="M89,0h711" style="stroke: rgb(235, 240, 248); stroke-opacity: 1; stroke-width: 1px;"/></g></g><g class="zerolinelayer"><path class="xzl zl crisp" transform="translate(89,0)" d="M0,0v572" style="stroke: rgb(235, 240, 248); stroke-opacity: 1; stroke-width: 2px;"/><path class="yzl zl crisp" transform="translate(0,572)" d="M89,0h711" style="stroke: rgb(235, 240, 248); stroke-opacity: 1; stroke-width: 2px;"/></g><path class="xlines-below"/><path class="ylines-below"/><g class="overlines-below"/><g class="xaxislayer-below"/><g class="yaxislayer-below"/><g class="overaxes-below"/><g class="plot" transform="translate(89,0)" clip-path="url(#clipd8f9f2xyplot)"><g class="scatterlayer mlayer"><g class="trace scatter trace76730e" style="stroke-miterlimit: 2; opacity: 1;"><g class="fills"/><g class="errorbars"/><g class="lines"><path class="js-line" d="M0.01,572L285.35,572L288.77,569.73L292.17,569.73L295.56,568.6L298.95,568.6L302.34,567.46L305.74,566.33L309.15,564.06L322.79,554.98L326.18,554.98L332.98,554.98L336.38,553.84L339.78,556.11L343.18,556.11L349.97,553.84L353.37,553.84L360.16,553.84L363.55,551.57L366.95,549.3L370.36,551.57L373.75,553.84L377.18,553.84L390.75,553.84L394.14,552.71L400.94,545.9L404.35,537.95L407.74,528.87L411.17,528.87L414.58,531.14L417.99,525.47L421.4,517.52L424.78,514.12L428.18,512.98L431.58,510.71L435.01,508.44L438.42,501.63L445.23,490.29L448.64,488.02L452.07,483.48L455.48,476.67L458.87,480.07L462.26,476.67L465.65,474.4L469.04,482.34L472.44,478.94L475.85,470.99L479.27,465.32L482.67,466.45L486.09,465.32L489.48,468.72L492.88,461.91L496.3,458.51L499.7,450.56L503.13,446.02L506.53,459.64L509.91,463.05L513.34,463.05L516.76,451.7L520.16,443.75L523.56,442.62L530.35,430.13L533.75,417.65L537.15,414.25L540.56,404.03L547.37,404.03L550.79,405.17L554.2,409.71L557.61,398.36L564.46,384.74L567.89,393.82L571.3,389.28L574.7,392.68L578.1,406.3L581.54,407.44L584.94,417.65L588.33,415.38L591.74,419.92L595.13,408.57L598.54,400.63L601.95,402.9L608.75,413.11L612.16,411.98L615.57,413.11L618.99,404.03L622.4,410.84L625.79,405.17L629.21,388.14L632.6,387.01L635.99,373.39L639.38,364.31L642.78,349.56L646.17,349.56L649.57,340.48L653,327.99L656.39,306.43L659.78,314.37L666.59,304.16L670,303.02L673.41,286L676.82,281.46L680.22,284.87L683.65,278.06L687.06,276.92L690.46,268.98L693.86,289.4" style="vector-effect: none; fill: none; stroke: rgb(31, 119, 180); stroke-opacity: 1; stroke-width: 2.5px; opacity: 1;"/></g><g class="points"/><g class="text"/></g><g class="trace scatter tracec6b2a3" style="stroke-miterlimit: 2;"><g class="fills"><g><path class="js-fill" d="M3.42,572L285.35,572L288.77,578.52L298.95,578.14L302.34,577.57L315.96,574.56L319.39,572.83L322.79,570.74L326.18,570.74L332.98,570.74L336.38,568.89L339.78,571.16L343.18,571.16L346.57,570.74L349.97,568.89L360.16,568.89L363.55,571.09L366.95,572.2L370.36,574.95L373.75,577.45L377.18,577.45L390.75,577.45L394.14,575.79L397.55,577.84L400.94,576.67L404.35,579.65L407.74,580.29L411.17,580.29L414.58,582.13L417.99,583.9L421.4,577.26L424.78,571.96L428.18,569.76L435.01,561.3L438.42,554.64L445.23,537.22L448.64,535.94L452.07,532.98L455.48,538.65L458.87,540.02L462.26,534.5L465.65,530.29L469.04,538.24L472.44,538.21L475.85,532.19L479.27,521.95L482.67,524.79L486.09,522.31L489.48,526.44L496.3,520.78L499.7,520.72L503.13,519.33L506.53,529.48L509.91,534.64L513.34,534.64L516.76,529.57L520.16,518.2L523.56,517.88L526.95,519.21L530.35,513.95L533.75,495.26L537.15,488.02L540.56,475.06L550.79,475.12L554.2,479.27L561.03,442.13L564.46,427.9L567.89,439.71L571.3,435.88L574.7,440.78L578.1,455.08L581.54,455.87L584.94,472.8L588.33,468.91L591.74,470.37L595.13,481.6L598.54,478.76L601.95,479.97L605.37,491.17L608.75,495.18L612.16,494.07L615.57,494.92L618.99,486.65L622.4,492.96L625.79,488.37L629.21,475.71L632.6,474.49L635.99,454.18L639.38,445.24L642.78,439.51L646.17,439.51L649.57,441.97L653,435.02L656.39,403.97L659.78,426.9L666.59,411.34L670,409.96L673.41,387.57L676.82,381.45L680.22,384.52L683.65,373.81L687.06,372.29L690.46,367.24L693.86,402.47L693.86,176.34L690.46,170.72L687.06,181.56L683.65,182.3L680.22,185.21L676.82,181.47L673.41,184.43L670,196.09L666.59,196.98L663.17,199.73L659.78,201.84L656.39,208.89L653,220.97L646.17,259.6L642.78,259.6L639.38,283.38L635.99,292.6L632.6,299.52L629.21,300.58L625.79,321.97L622.4,328.73L618.99,321.41L615.57,331.3L612.16,329.88L608.75,331.05L605.37,325.97L601.95,325.83L598.54,322.49L595.13,335.55L591.74,369.47L588.33,361.86L584.94,362.5L581.54,359L578.1,357.52L574.7,344.59L571.3,342.67L567.89,347.93L564.46,341.57L561.03,340.96L557.61,337.93L554.2,340.15L550.79,335.21L547.37,333L543.95,333L540.56,333L537.15,340.47L533.75,340.05L526.95,352.41L523.56,367.36L520.16,369.31L516.76,373.83L513.34,391.46L509.91,391.46L506.53,389.81L503.13,372.72L499.7,380.41L496.3,396.23L492.88,400.58L489.48,411L486.09,408.32L482.67,408.12L479.27,408.69L475.85,409.79L472.44,419.66L469.04,426.44L465.65,418.5L462.26,418.83L458.87,420.12L455.48,414.68L452.07,433.97L448.64,440.1L445.23,443.35L441.84,446.59L438.42,448.63L435.01,455.59L424.78,456.28L421.4,457.78L417.99,467.04L414.58,480.15L411.17,477.45L407.74,477.45L404.35,496.25L400.94,515.13L397.55,520.77L394.14,529.63L377.18,530.23L373.75,530.23L370.36,528.19L366.95,526.4L363.55,532.05L360.16,538.8L356.76,538.8L353.37,538.8L346.57,539.22L343.18,541.07L339.78,541.07L336.38,538.8L326.18,539.22L322.79,539.22L319.39,541.66L315.96,544.47L309.15,551.4L305.74,555.82L302.34,557.35L298.95,559.05L295.56,559.05L292.17,560.94L288.77,560.94L285.35,572L3.42,572Z" style="fill: rgb(31, 119, 180); fill-opacity: 0.1; stroke-width: 0;"/></g></g><g class="errorbars"/><g class="lines"><path class="js-line" d="M3.42,572L285.35,572L288.77,560.94L292.17,560.94L295.56,559.05L298.95,559.05L302.34,557.35L305.74,555.82L309.15,551.4L315.96,544.47L319.39,541.66L322.79,539.22L326.18,539.22L336.38,538.8L339.78,541.07L343.18,541.07L346.57,539.22L353.37,538.8L356.76,538.8L360.16,538.8L363.55,532.05L366.95,526.4L370.36,528.19L373.75,530.23L377.18,530.23L394.14,529.63L397.55,520.77L400.94,515.13L404.35,496.25L407.74,477.45L411.17,477.45L414.58,480.15L417.99,467.04L421.4,457.78L424.78,456.28L435.01,455.59L438.42,448.63L441.84,446.59L445.23,443.35L448.64,440.1L452.07,433.97L455.48,414.68L458.87,420.12L462.26,418.83L465.65,418.5L469.04,426.44L472.44,419.66L475.85,409.79L479.27,408.69L482.67,408.12L486.09,408.32L489.48,411L492.88,400.58L496.3,396.23L499.7,380.41L503.13,372.72L506.53,389.81L509.91,391.46L513.34,391.46L516.76,373.83L520.16,369.31L523.56,367.36L526.95,352.41L533.75,340.05L537.15,340.47L540.56,333L543.95,333L547.37,333L550.79,335.21L554.2,340.15L557.61,337.93L561.03,340.96L564.46,341.57L567.89,347.93L571.3,342.67L574.7,344.59L578.1,357.52L581.54,359L584.94,362.5L588.33,361.86L591.74,369.47L595.13,335.55L598.54,322.49L601.95,325.83L605.37,325.97L608.75,331.05L612.16,329.88L615.57,331.3L618.99,321.41L622.4,328.73L625.79,321.97L629.21,300.58L632.6,299.52L635.99,292.6L639.38,283.38L642.78,259.6L646.17,259.6L653,220.97L656.39,208.89L659.78,201.84L663.17,199.73L666.59,196.98L670,196.09L673.41,184.43L676.82,181.47L680.22,185.21L683.65,182.3L687.06,181.56L690.46,170.72L693.86,176.34" style="vector-effect: none; fill: none; stroke: rgb(239, 85, 59); stroke-opacity: 1; stroke-width: 0px; opacity: 1;"/></g><g class="points"/><g class="text"/></g><g class="trace scatter trace4ce7e0" style="stroke-miterlimit: 2;"><g class="fills"/><g class="errorbars"/><g class="lines"><path class="js-line" d="M3.42,572L285.35,572L288.77,578.52L298.95,578.14L302.34,577.57L315.96,574.56L319.39,572.83L322.79,570.74L326.18,570.74L332.98,570.74L336.38,568.89L339.78,571.16L343.18,571.16L346.57,570.74L349.97,568.89L360.16,568.89L363.55,571.09L366.95,572.2L370.36,574.95L373.75,577.45L377.18,577.45L390.75,577.45L394.14,575.79L397.55,577.84L400.94,576.67L404.35,579.65L407.74,580.29L411.17,580.29L414.58,582.13L417.99,583.9L421.4,577.26L424.78,571.96L428.18,569.76L435.01,561.3L438.42,554.64L445.23,537.22L448.64,535.94L452.07,532.98L455.48,538.65L458.87,540.02L462.26,534.5L465.65,530.29L469.04,538.24L472.44,538.21L475.85,532.19L479.27,521.95L482.67,524.79L486.09,522.31L489.48,526.44L496.3,520.78L499.7,520.72L503.13,519.33L506.53,529.48L509.91,534.64L513.34,534.64L516.76,529.57L520.16,518.2L523.56,517.88L526.95,519.21L530.35,513.95L533.75,495.26L537.15,488.02L540.56,475.06L550.79,475.12L554.2,479.27L561.03,442.13L564.46,427.9L567.89,439.71L571.3,435.88L574.7,440.78L578.1,455.08L581.54,455.87L584.94,472.8L588.33,468.91L591.74,470.37L595.13,481.6L598.54,478.76L601.95,479.97L605.37,491.17L608.75,495.18L612.16,494.07L615.57,494.92L618.99,486.65L622.4,492.96L625.79,488.37L629.21,475.71L632.6,474.49L635.99,454.18L639.38,445.24L642.78,439.51L646.17,439.51L649.57,441.97L653,435.02L656.39,403.97L659.78,426.9L666.59,411.34L670,409.96L673.41,387.57L676.82,381.45L680.22,384.52L683.65,373.81L687.06,372.29L690.46,367.24L693.86,402.47" style="vector-effect: none; fill: none; stroke: rgb(0, 204, 150); stroke-opacity: 1; stroke-width: 0px; opacity: 1;"/></g><g class="points"/><g class="text"/></g><g class="trace scatter tracef8c88a" style="stroke-miterlimit: 2; opacity: 1;"><g class="fills"/><g class="errorbars"/><g class="lines"><path class="js-line" d="M0.02,572L693.23,572" style="vector-effect: none; fill: none; stroke: rgb(255, 127, 14); stroke-opacity: 1; stroke-width: 2.5px; opacity: 1;"/></g><g class="points"/><g class="text"/></g><g class="trace scatter trace5fa2b0" style="stroke-miterlimit: 2;"><g class="fills"><g><path class="js-fill" d="M3.41,572L693.23,572L693.23,572L3.41,572Z" style="fill: rgb(255, 127, 14); fill-opacity: 0.1; stroke-width: 0;"/></g></g><g class="errorbars"/><g class="lines"><path class="js-line" d="M3.41,572L693.23,572" style="vector-effect: none; fill: none; stroke: rgb(255, 161, 90); stroke-opacity: 1; stroke-width: 0px; opacity: 1;"/></g><g class="points"/><g class="text"/></g><g class="trace scatter traceaea367" style="stroke-miterlimit: 2;"><g class="fills"/><g class="errorbars"/><g class="lines"><path class="js-line" d="M3.41,572L693.23,572" style="vector-effect: none; fill: none; stroke: rgb(25, 211, 243); stroke-opacity: 1; stroke-width: 0px; opacity: 1;"/></g><g class="points"/><g class="text"/></g><g class="trace scatter trace3db481" style="stroke-miterlimit: 2; opacity: 1;"><g class="fills"/><g class="errorbars"/><g class="lines"><path class="js-line" d="M0.02,572L169.94,572L173.38,570.87L183.55,570.87L186.94,568.6L214.15,568.6L217.56,567.46L220.95,567.46L224.36,568.6L227.76,567.46L231.17,567.46L234.58,567.46L237.96,569.73L248.17,569.73L251.57,568.6L254.97,568.6L258.38,567.46L261.78,567.46L265.19,566.33L268.61,567.46L272.01,566.33L275.42,566.33L278.82,567.46L282.21,567.46L285.6,566.33L299.22,566.33L302.61,567.46L306,567.46L309.42,568.6L312.81,568.6L316.21,569.73L339.97,569.73L343.37,568.6L346.79,566.33L350.18,565.19L353.59,561.79L356.98,561.79L363.78,559.52L367.19,559.52L370.6,559.52L374,556.11L380.82,556.11L384.24,554.98L394.51,554.98L397.9,556.11L404.71,556.11L408.13,552.71L411.53,552.71L414.92,547.03L418.31,544.76L421.7,543.63L425.11,548.17L428.54,543.63L435.33,534.55L438.73,533.41L442.12,532.28L445.52,530.01L448.91,527.74L452.33,526.6L455.75,525.47L459.14,523.2L462.54,523.2L465.94,526.6L469.36,527.74L472.76,526.6L476.15,522.06L479.54,519.79L482.94,519.79L486.34,520.93L496.58,517.52L499.97,519.79L503.36,516.39L506.75,517.52L510.16,518.66L513.57,516.39L516.96,512.98L520.37,512.98L523.8,509.58L527.21,510.71L530.62,510.71L534.03,509.58L537.46,511.85L540.86,507.31L547.66,505.04L551.07,500.5L557.9,498.23L561.28,499.37L564.69,497.1L568.08,499.37L571.47,498.23L574.9,499.37L578.3,495.96L581.73,497.1L585.15,494.83L588.55,484.61L591.99,484.61L595.38,481.21L598.77,478.94L602.16,474.4L605.55,475.53L608.95,475.53L612.37,469.86L615.8,472.13L622.62,467.59L626.03,467.59L629.41,469.86L632.8,464.18L636.19,464.18L639.62,469.86L643.04,465.32L646.45,465.32L649.87,459.64L653.28,465.32L660.09,456.24L663.51,457.37L666.92,452.83L670.33,453.97L673.72,450.56L677.13,440.35L680.53,436.94L683.92,439.21L690.71,439.21" style="vector-effect: none; fill: none; stroke: rgb(44, 160, 44); stroke-opacity: 1; stroke-width: 2.5px; opacity: 1;"/></g><g class="points"/><g class="text"/></g><g class="trace scatter traceb9d718" style="stroke-miterlimit: 2;"><g class="fills"><g><path class="js-fill" d="M3.4,572L169.94,572L173.38,575.26L183.55,575.26L186.94,578.14L234.58,577.57L237.96,575.72L261.78,575.25L265.19,574.63L268.61,575.25L272.01,574.63L306,575.25L309.42,575.64L343.37,575.64L346.79,576.83L350.18,575.96L353.59,577.28L356.98,577.28L360.38,575.97L363.78,574.56L367.19,574.56L370.6,574.56L374,576.93L380.82,576.93L384.24,575.32L404.71,575.91L408.13,573.92L411.53,573.92L414.92,577.12L418.31,574.11L421.7,572.16L425.11,575.31L428.54,572.16L431.94,568.2L435.33,566.2L442.12,562.23L445.52,559.4L448.91,556.37L452.33,554.4L465.94,552.87L469.36,554.88L472.76,552.87L476.15,545.68L479.54,546.69L482.94,546.69L486.34,546.67L489.75,545.1L493.17,542.62L496.58,541.77L499.97,545.9L503.36,543.28L506.75,544.21L510.16,544.29L513.57,540L516.96,539.41L520.37,539.41L523.8,535.85L527.21,537.09L530.62,537.09L534.03,536.62L537.46,539.8L540.86,538.96L544.26,536.94L547.66,536.21L551.07,528.69L554.47,528.47L557.9,526.76L561.28,528.47L564.69,525.73L568.08,527.02L571.47,523.7L574.9,524.67L578.3,521.59L585.15,522.02L588.55,521.5L591.99,521.5L595.38,516.84L602.16,513.78L605.55,515.02L608.95,515.02L612.37,508.46L615.8,512.75L619.22,509.52L622.62,503.91L626.03,503.91L629.41,507.38L632.8,505.21L639.62,504.51L643.04,506.25L646.45,506.25L649.87,507.71L653.28,513.24L656.68,509.72L660.09,504.04L663.51,504.86L666.92,496.95L670.33,498.76L680.53,480.81L683.92,481.99L690.71,481.99L690.71,396.44L683.92,396.44L680.53,393.08L677.13,393.3L673.72,407.95L670.33,409.17L666.92,408.72L663.51,409.89L660.09,408.43L656.68,411.83L653.28,417.4L649.87,411.58L646.45,424.39L643.04,424.39L639.62,435.21L636.19,423.15L632.8,423.15L629.41,432.34L626.03,431.26L622.62,431.26L619.22,430.19L615.8,431.5L612.37,431.25L608.95,436.04L605.55,436.04L602.16,435.01L598.77,442.61L591.99,447.72L588.55,447.72L585.15,467.63L581.73,472.34L578.3,470.33L574.9,474.06L571.47,472.76L568.08,471.71L564.69,468.46L561.28,470.26L557.9,469.7L554.47,470.26L544.26,475.41L540.86,475.66L537.46,483.9L534.03,482.53L530.62,484.34L527.21,484.34L523.8,483.31L520.37,486.56L516.96,486.56L513.57,492.78L510.16,493.03L506.75,490.84L503.36,489.5L499.97,493.68L496.58,493.28L493.17,494.7L489.75,494.49L486.34,495.19L482.94,492.9L479.54,492.9L476.15,498.45L472.76,500.33L465.94,500.33L462.54,493.11L459.14,493.11L455.75,497.08L452.33,498.8L448.91,499.11L445.52,500.62L442.12,502.33L435.33,502.89L431.94,509.98L428.54,515.09L425.11,521.02L421.7,515.09L418.31,515.42L414.92,516.94L411.53,531.5L408.13,531.5L404.71,536.31L397.9,536.31L394.51,534.63L374,535.29L370.6,544.47L367.19,544.47L363.78,544.47L356.98,546.29L353.59,546.29L350.18,554.42L346.79,555.82L343.37,561.55L339.97,563.74L316.21,563.74L312.81,561.55L309.42,561.55L306,559.67L302.61,559.67L299.22,558.02L285.6,558.02L282.21,559.67L278.82,559.67L275.42,558.02L272.01,558.02L268.61,559.67L265.19,558.02L261.78,559.67L258.38,559.67L254.97,561.55L251.57,561.55L248.17,563.74L237.96,563.74L234.58,557.35L231.17,557.35L227.76,557.35L224.36,559.05L220.95,557.35L217.56,557.35L214.15,559.05L186.94,559.05L183.55,566.47L173.38,566.47L169.94,572L3.4,572Z" style="fill: rgb(44, 160, 44); fill-opacity: 0.1; stroke-width: 0;"/></g></g><g class="errorbars"/><g class="lines"><path class="js-line" d="M3.4,572L169.94,572L173.38,566.47L183.55,566.47L186.94,559.05L214.15,559.05L217.56,557.35L220.95,557.35L224.36,559.05L227.76,557.35L231.17,557.35L234.58,557.35L237.96,563.74L248.17,563.74L251.57,561.55L254.97,561.55L258.38,559.67L261.78,559.67L265.19,558.02L268.61,559.67L272.01,558.02L275.42,558.02L278.82,559.67L282.21,559.67L285.6,558.02L299.22,558.02L302.61,559.67L306,559.67L309.42,561.55L312.81,561.55L316.21,563.74L339.97,563.74L343.37,561.55L346.79,555.82L350.18,554.42L353.59,546.29L356.98,546.29L363.78,544.47L367.19,544.47L370.6,544.47L374,535.29L394.51,534.63L397.9,536.31L404.71,536.31L408.13,531.5L411.53,531.5L414.92,516.94L418.31,515.42L421.7,515.09L425.11,521.02L428.54,515.09L431.94,509.98L435.33,502.89L442.12,502.33L445.52,500.62L448.91,499.11L452.33,498.8L455.75,497.08L459.14,493.11L462.54,493.11L465.94,500.33L472.76,500.33L476.15,498.45L479.54,492.9L482.94,492.9L486.34,495.19L489.75,494.49L493.17,494.7L496.58,493.28L499.97,493.68L503.36,489.5L506.75,490.84L510.16,493.03L513.57,492.78L516.96,486.56L520.37,486.56L523.8,483.31L527.21,484.34L530.62,484.34L534.03,482.53L537.46,483.9L540.86,475.66L544.26,475.41L554.47,470.26L557.9,469.7L561.28,470.26L564.69,468.46L568.08,471.71L571.47,472.76L574.9,474.06L578.3,470.33L581.73,472.34L585.15,467.63L588.55,447.72L591.99,447.72L598.77,442.61L602.16,435.01L605.55,436.04L608.95,436.04L612.37,431.25L615.8,431.5L619.22,430.19L622.62,431.26L626.03,431.26L629.41,432.34L632.8,423.15L636.19,423.15L639.62,435.21L643.04,424.39L646.45,424.39L649.87,411.58L653.28,417.4L656.68,411.83L660.09,408.43L663.51,409.89L666.92,408.72L670.33,409.17L673.72,407.95L677.13,393.3L680.53,393.08L683.92,396.44L690.71,396.44" style="vector-effect: none; fill: none; stroke: rgb(182, 232, 128); stroke-opacity: 1; stroke-width: 0px; opacity: 1;"/></g><g class="points"/><g class="text"/></g><g class="trace scatter trace00fc4c" style="stroke-miterlimit: 2;"><g class="fills"/><g class="errorbars"/><g class="lines"><path class="js-line" d="M3.4,572L169.94,572L173.38,575.26L183.55,575.26L186.94,578.14L234.58,577.57L237.96,575.72L261.78,575.25L265.19,574.63L268.61,575.25L272.01,574.63L306,575.25L309.42,575.64L343.37,575.64L346.79,576.83L350.18,575.96L353.59,577.28L356.98,577.28L360.38,575.97L363.78,574.56L367.19,574.56L370.6,574.56L374,576.93L380.82,576.93L384.24,575.32L404.71,575.91L408.13,573.92L411.53,573.92L414.92,577.12L418.31,574.11L421.7,572.16L425.11,575.31L428.54,572.16L431.94,568.2L435.33,566.2L442.12,562.23L445.52,559.4L448.91,556.37L452.33,554.4L465.94,552.87L469.36,554.88L472.76,552.87L476.15,545.68L479.54,546.69L482.94,546.69L486.34,546.67L489.75,545.1L493.17,542.62L496.58,541.77L499.97,545.9L503.36,543.28L506.75,544.21L510.16,544.29L513.57,540L516.96,539.41L520.37,539.41L523.8,535.85L527.21,537.09L530.62,537.09L534.03,536.62L537.46,539.8L540.86,538.96L544.26,536.94L547.66,536.21L551.07,528.69L554.47,528.47L557.9,526.76L561.28,528.47L564.69,525.73L568.08,527.02L571.47,523.7L574.9,524.67L578.3,521.59L585.15,522.02L588.55,521.5L591.99,521.5L595.38,516.84L602.16,513.78L605.55,515.02L608.95,515.02L612.37,508.46L615.8,512.75L619.22,509.52L622.62,503.91L626.03,503.91L629.41,507.38L632.8,505.21L639.62,504.51L643.04,506.25L646.45,506.25L649.87,507.71L653.28,513.24L656.68,509.72L660.09,504.04L663.51,504.86L666.92,496.95L670.33,498.76L680.53,480.81L683.92,481.99L690.71,481.99" style="vector-effect: none; fill: none; stroke: rgb(255, 151, 255); stroke-opacity: 1; stroke-width: 0px; opacity: 1;"/></g><g class="points"/><g class="text"/></g><g class="trace scatter trace4cad58" style="stroke-miterlimit: 2; opacity: 1;"><g class="fills"/><g class="errorbars"/><g class="lines"><path class="js-line" d="M0.02,572L316.17,572L319.56,570.87L322.97,569.73L326.37,569.73L333.19,567.46L336.63,565.19L340.06,565.19L343.47,564.06L346.86,564.06L350.27,562.92L353.66,561.79L357.09,561.79L363.91,559.52L367.34,554.98L370.75,552.71L374.19,553.84L377.58,550.44L381.02,549.3L387.82,551.57L391.23,550.44L394.62,551.57L398.04,550.44L401.44,550.44L404.85,548.17L408.24,545.9L411.63,547.03L415.03,545.9L418.42,548.17L421.82,547.03L425.21,543.63L428.61,543.63L432.03,542.49L435.42,541.36L438.82,541.36L442.21,541.36L445.61,539.09L449.04,534.55L452.46,534.55L455.89,535.68L459.31,533.41L462.71,531.14L466.09,530.01L469.51,527.74L472.9,527.74L476.3,531.14L479.68,527.74L483.08,528.87L486.49,523.2L489.9,520.93L493.34,512.98L496.73,512.98L500.12,516.39L503.52,515.25L506.92,515.25L510.32,519.79L513.71,517.52L517.1,515.25L520.51,515.25L523.93,516.39L527.33,512.98L530.73,516.39L534.14,516.39L537.54,519.79L540.93,519.79L544.32,522.06L547.72,515.25L551.11,507.31L554.51,507.31L561.34,498.23L564.73,500.5L568.16,499.37L571.58,499.37L575,501.63L578.4,502.77L581.81,500.5L585.2,497.1L592.06,497.1L595.45,498.23L602.25,502.77L605.68,494.83L609.1,493.69L612.49,489.15L615.92,486.88L619.33,489.15L622.72,489.15L626.16,483.48L629.58,482.34L632.99,482.34L636.37,480.07L639.79,476.67L643.19,474.4L646.6,473.26L650.01,468.72L653.41,474.4L656.82,478.94L660.22,475.53L663.61,481.21L667.03,480.07L670.42,476.67L673.81,475.53L677.23,469.86L680.63,467.59L684.02,463.05L687.46,463.05L690.86,461.91" style="vector-effect: none; fill: none; stroke: rgb(214, 39, 40); stroke-opacity: 1; stroke-width: 2.5px; opacity: 1;"/></g><g class="points"/><g class="text"/></g><g class="trace scatter tracec36df2" style="stroke-miterlimit: 2;"><g class="fills"><g><path class="js-fill" d="M3.42,572L316.17,572L319.56,575.26L326.37,575.72L329.77,575.64L333.19,575.25L336.63,575.96L340.06,575.96L343.47,574.95L346.86,574.95L350.27,573.81L353.66,572.55L357.09,572.55L363.91,569.62L367.34,572L370.75,571.87L374.19,573.64L377.58,571.25L381.02,570.32L384.43,572.22L387.82,573.11L391.23,571.25L394.62,573.11L398.04,571.25L401.44,571.25L404.85,570.27L408.24,567.11L411.63,569.2L415.03,568.06L418.42,567.25L421.82,568.24L425.21,564.64L428.61,564.64L432.03,564.28L435.42,561.91L442.21,561.91L445.61,557.81L449.04,557.02L452.46,557.02L455.89,557.85L459.31,557.02L462.71,552.29L466.09,551.22L469.51,549.84L472.9,549.84L476.3,555.9L479.68,557.08L483.08,558.27L486.49,555.28L493.34,549.31L496.73,549.31L500.12,552.48L503.52,550.3L506.92,550.3L510.32,557.57L513.71,555.15L517.1,553.68L520.51,553.68L523.93,554.71L527.33,548.15L530.73,549.49L534.14,549.49L537.54,550.29L540.93,550.29L544.32,546.54L547.72,547.85L551.11,547.6L554.51,547.6L557.92,543.19L561.34,533.86L564.73,537.57L571.58,537.14L575,541.75L578.4,543.7L581.81,541.3L585.2,536.65L588.62,536.65L598.86,536.44L602.25,533.94L605.68,531.15L609.1,531.1L612.49,529.26L615.92,524.95L619.33,527.14L622.72,527.14L626.16,517.03L629.58,514.17L632.99,514.17L636.37,512.75L643.19,502.79L646.6,501.46L650.01,502.44L653.41,512.17L660.22,515.02L663.61,520.7L667.03,519.1L670.42,515.7L673.81,513.96L677.23,514.9L684.02,507.53L687.46,507.53L690.86,506.43L690.86,417.4L687.46,418.56L684.02,418.56L680.63,424.49L677.23,424.82L673.81,437.1L670.42,437.63L667.03,441.04L663.61,441.72L660.22,436.04L656.82,444.37L653.41,436.62L650.01,435L646.6,445.07L643.19,446.01L639.79,445.94L636.37,447.39L632.99,450.51L629.58,450.51L626.16,449.92L622.72,451.16L619.33,451.16L615.92,448.81L612.49,449.04L609.1,456.28L605.68,458.5L602.25,471.6L598.86,464.56L595.45,459.27L592.06,457.54L588.62,457.54L585.2,457.54L581.81,459.7L578.4,461.84L568.16,461.59L564.73,463.43L561.34,462.6L557.92,462.35L554.51,467.02L551.11,467.02L544.32,497.59L540.93,489.3L537.54,489.3L534.14,483.29L530.73,483.29L527.33,477.82L523.93,478.07L520.51,476.83L517.1,476.83L513.71,479.89L510.32,482.02L506.92,480.21L500.12,480.3L496.73,476.66L493.34,476.66L489.9,490.07L486.49,491.11L483.08,499.48L479.68,498.39L476.3,506.39L469.51,505.64L466.09,508.8L462.71,510L459.31,509.8L455.89,513.52L452.46,512.07L449.04,512.07L445.61,520.36L435.42,520.81L432.03,520.7L428.61,522.61L425.21,522.61L418.42,529.08L415.03,523.73L411.63,524.87L408.24,524.69L404.85,526.06L401.44,529.62L394.62,530.04L391.23,529.62L387.82,530.04L384.43,528.65L381.02,528.29L377.58,529.62L374.19,534.04L370.75,533.55L367.34,537.95L363.91,549.41L357.09,551.02L353.66,551.02L350.27,552.03L346.86,553.16L343.47,553.16L340.06,554.42L336.63,554.42L333.19,559.67L326.37,563.74L322.97,563.74L319.56,566.47L316.17,572L3.42,572Z" style="fill: rgb(214, 39, 40); fill-opacity: 0.1; stroke-width: 0;"/></g></g><g class="errorbars"/><g class="lines"><path class="js-line" d="M3.42,572L316.17,572L319.56,566.47L322.97,563.74L326.37,563.74L333.19,559.67L336.63,554.42L340.06,554.42L343.47,553.16L346.86,553.16L350.27,552.03L353.66,551.02L357.09,551.02L363.91,549.41L367.34,537.95L370.75,533.55L374.19,534.04L377.58,529.62L381.02,528.29L384.43,528.65L387.82,530.04L391.23,529.62L394.62,530.04L401.44,529.62L404.85,526.06L408.24,524.69L411.63,524.87L415.03,523.73L418.42,529.08L425.21,522.61L428.61,522.61L432.03,520.7L435.42,520.81L445.61,520.36L449.04,512.07L452.46,512.07L455.89,513.52L459.31,509.8L462.71,510L466.09,508.8L469.51,505.64L476.3,506.39L479.68,498.39L483.08,499.48L486.49,491.11L489.9,490.07L493.34,476.66L496.73,476.66L500.12,480.3L506.92,480.21L510.32,482.02L513.71,479.89L517.1,476.83L520.51,476.83L523.93,478.07L527.33,477.82L530.73,483.29L534.14,483.29L537.54,489.3L540.93,489.3L544.32,497.59L551.11,467.02L554.51,467.02L557.92,462.35L561.34,462.6L564.73,463.43L568.16,461.59L578.4,461.84L581.81,459.7L585.2,457.54L588.62,457.54L592.06,457.54L595.45,459.27L598.86,464.56L602.25,471.6L605.68,458.5L609.1,456.28L612.49,449.04L615.92,448.81L619.33,451.16L622.72,451.16L626.16,449.92L629.58,450.51L632.99,450.51L636.37,447.39L639.79,445.94L643.19,446.01L646.6,445.07L650.01,435L653.41,436.62L656.82,444.37L660.22,436.04L663.61,441.72L667.03,441.04L670.42,437.63L673.81,437.1L677.23,424.82L680.63,424.49L684.02,418.56L687.46,418.56L690.86,417.4" style="vector-effect: none; fill: none; stroke: rgb(99, 110, 250); stroke-opacity: 1; stroke-width: 0px; opacity: 1;"/></g><g class="points"/><g class="text"/></g><g class="trace scatter trace900c9f" style="stroke-miterlimit: 2;"><g class="fills"/><g class="errorbars"/><g class="lines"><path class="js-line" d="M3.42,572L316.17,572L319.56,575.26L326.37,575.72L329.77,575.64L333.19,575.25L336.63,575.96L340.06,575.96L343.47,574.95L346.86,574.95L350.27,573.81L353.66,572.55L357.09,572.55L363.91,569.62L367.34,572L370.75,571.87L374.19,573.64L377.58,571.25L381.02,570.32L384.43,572.22L387.82,573.11L391.23,571.25L394.62,573.11L398.04,571.25L401.44,571.25L404.85,570.27L408.24,567.11L411.63,569.2L415.03,568.06L418.42,567.25L421.82,568.24L425.21,564.64L428.61,564.64L432.03,564.28L435.42,561.91L442.21,561.91L445.61,557.81L449.04,557.02L452.46,557.02L455.89,557.85L459.31,557.02L462.71,552.29L466.09,551.22L469.51,549.84L472.9,549.84L476.3,555.9L479.68,557.08L483.08,558.27L486.49,555.28L493.34,549.31L496.73,549.31L500.12,552.48L503.52,550.3L506.92,550.3L510.32,557.57L513.71,555.15L517.1,553.68L520.51,553.68L523.93,554.71L527.33,548.15L530.73,549.49L534.14,549.49L537.54,550.29L540.93,550.29L544.32,546.54L547.72,547.85L551.11,547.6L554.51,547.6L557.92,543.19L561.34,533.86L564.73,537.57L571.58,537.14L575,541.75L578.4,543.7L581.81,541.3L585.2,536.65L588.62,536.65L598.86,536.44L602.25,533.94L605.68,531.15L609.1,531.1L612.49,529.26L615.92,524.95L619.33,527.14L622.72,527.14L626.16,517.03L629.58,514.17L632.99,514.17L636.37,512.75L643.19,502.79L646.6,501.46L650.01,502.44L653.41,512.17L660.22,515.02L663.61,520.7L667.03,519.1L670.42,515.7L673.81,513.96L677.23,514.9L684.02,507.53L687.46,507.53L690.86,506.43" style="vector-effect: none; fill: none; stroke: rgb(239, 85, 59); stroke-opacity: 1; stroke-width: 0px; opacity: 1;"/></g><g class="points"/><g class="text"/></g><g class="trace scatter trace7b1544" style="stroke-miterlimit: 2; opacity: 1;"><g class="fills"/><g class="errorbars"/><g class="lines"><path class="js-line" d="M0.02,572L622.6,572L626.04,570.87L673.74,570.87L677.15,572L690.8,572" style="vector-effect: none; fill: none; stroke: rgb(148, 103, 189); stroke-opacity: 1; stroke-width: 2.5px; opacity: 1;"/></g><g class="points"/><g class="text"/></g><g class="trace scatter trace53e058" style="stroke-miterlimit: 2;"><g class="fills"><g><path class="js-fill" d="M3.41,572L622.6,572L626.04,575.26L673.74,575.26L677.15,572L690.8,572L690.8,572L677.15,572L673.74,566.47L626.04,566.47L622.6,572L3.41,572Z" style="fill: rgb(148, 103, 189); fill-opacity: 0.1; stroke-width: 0;"/></g></g><g class="errorbars"/><g class="lines"><path class="js-line" d="M3.41,572L622.6,572L626.04,566.47L673.74,566.47L677.15,572L690.8,572" style="vector-effect: none; fill: none; stroke: rgb(171, 99, 250); stroke-opacity: 1; stroke-width: 0px; opacity: 1;"/></g><g class="points"/><g class="text"/></g><g class="trace scatter traced9d29e" style="stroke-miterlimit: 2;"><g class="fills"/><g class="errorbars"/><g class="lines"><path class="js-line" d="M3.41,572L622.6,572L626.04,575.26L673.74,575.26L677.15,572L690.8,572" style="vector-effect: none; fill: none; stroke: rgb(255, 161, 90); stroke-opacity: 1; stroke-width: 0px; opacity: 1;"/></g><g class="points"/><g class="text"/></g><g class="trace scatter trace63f6dc" style="stroke-miterlimit: 2; opacity: 1;"><g class="fills"/><g class="errorbars"/><g class="lines"><path class="js-line" d="M0.01,572L145.88,572L149.27,570.87L196.76,570.87L200.15,572L237.51,572L240.9,570.87L288.42,570.87L291.81,572L332.61,572L336.01,570.87L342.8,570.87L346.2,569.73L359.77,569.73L363.17,567.46L383.55,567.46L386.98,568.6L393.79,568.6L397.17,569.73L403.97,569.73L407.37,568.6L410.77,568.6L414.17,570.87L455.01,570.87L458.42,572L472.03,572L475.42,570.87L482.24,568.6L485.67,568.6L523.08,568.6L526.47,569.73L533.29,572L536.68,572L560.49,572L563.89,570.87L567.28,569.73L570.67,569.73L580.85,569.73L584.28,568.6L587.69,567.46L591.09,567.46L611.54,567.46L614.94,568.6L618.35,569.73L621.74,569.73L628.54,569.73L631.95,568.6L635.34,568.6L638.74,569.73L659.21,569.73L662.62,568.6L666.03,566.33L669.42,566.33L676.21,566.33L679.6,564.06L682.99,564.06L686.39,565.19L693.21,565.19" style="vector-effect: none; fill: none; stroke: rgb(140, 86, 75); stroke-opacity: 1; stroke-width: 2.5px; opacity: 1;"/></g><g class="points"/><g class="text"/></g><g class="trace scatter tracef16bc7" style="stroke-miterlimit: 2;"><g class="fills"><g><path class="js-fill" d="M3.4,572L145.88,572L149.27,575.26L196.76,575.26L200.15,572L237.51,572L240.9,575.26L288.42,575.26L291.81,572L332.61,572L336.01,575.26L359.77,575.72L363.17,577.57L393.79,578.14L397.17,578.52L410.77,578.14L414.17,575.26L455.01,575.26L458.42,572L472.03,572L475.42,575.26L482.24,575.64L485.67,575.64L529.87,575.26L533.29,572L560.49,572L563.89,575.26L570.67,575.72L574.06,575.72L662.62,575.64L666.03,576.83L682.99,576.71L686.39,577.73L693.21,577.73L693.21,552.65L686.39,552.65L682.99,551.4L679.6,551.4L676.21,555.82L669.42,555.82L666.03,555.82L662.62,561.55L659.21,563.74L638.74,563.74L635.34,561.55L631.95,561.55L628.54,563.74L621.74,563.74L618.35,563.74L614.94,561.55L611.54,559.67L591.09,559.67L587.69,559.67L584.28,561.55L580.85,563.74L570.67,563.74L567.28,563.74L563.89,566.47L560.49,572L533.29,572L529.87,566.47L526.47,563.74L523.08,561.55L485.67,561.55L482.24,561.55L475.42,566.47L472.03,572L458.42,572L455.01,566.47L414.17,566.47L410.77,559.05L407.37,559.05L403.97,560.94L397.17,560.94L393.79,559.05L386.98,559.05L383.55,557.35L363.17,557.35L359.77,563.74L346.2,563.74L342.8,566.47L336.01,566.47L332.61,572L291.81,572L288.42,566.47L240.9,566.47L237.51,572L200.15,572L196.76,566.47L149.27,566.47L145.88,572L3.4,572Z" style="fill: rgb(140, 86, 75); fill-opacity: 0.1; stroke-width: 0;"/></g></g><g class="errorbars"/><g class="lines"><path class="js-line" d="M3.4,572L145.88,572L149.27,566.47L196.76,566.47L200.15,572L237.51,572L240.9,566.47L288.42,566.47L291.81,572L332.61,572L336.01,566.47L342.8,566.47L346.2,563.74L359.77,563.74L363.17,557.35L383.55,557.35L386.98,559.05L393.79,559.05L397.17,560.94L403.97,560.94L407.37,559.05L410.77,559.05L414.17,566.47L455.01,566.47L458.42,572L472.03,572L475.42,566.47L482.24,561.55L485.67,561.55L523.08,561.55L526.47,563.74L529.87,566.47L533.29,572L560.49,572L563.89,566.47L567.28,563.74L570.67,563.74L580.85,563.74L584.28,561.55L587.69,559.67L591.09,559.67L611.54,559.67L614.94,561.55L618.35,563.74L621.74,563.74L628.54,563.74L631.95,561.55L635.34,561.55L638.74,563.74L659.21,563.74L662.62,561.55L666.03,555.82L669.42,555.82L676.21,555.82L679.6,551.4L682.99,551.4L686.39,552.65L693.21,552.65" style="vector-effect: none; fill: none; stroke: rgb(255, 102, 146); stroke-opacity: 1; stroke-width: 0px; opacity: 1;"/></g><g class="points"/><g class="text"/></g><g class="trace scatter traced3f549" style="stroke-miterlimit: 2;"><g class="fills"/><g class="errorbars"/><g class="lines"><path class="js-line" d="M3.4,572L145.88,572L149.27,575.26L196.76,575.26L200.15,572L237.51,572L240.9,575.26L288.42,575.26L291.81,572L332.61,572L336.01,575.26L359.77,575.72L363.17,577.57L393.79,578.14L397.17,578.52L410.77,578.14L414.17,575.26L455.01,575.26L458.42,572L472.03,572L475.42,575.26L482.24,575.64L485.67,575.64L529.87,575.26L533.29,572L560.49,572L563.89,575.26L570.67,575.72L574.06,575.72L662.62,575.64L666.03,576.83L682.99,576.71L686.39,577.73L693.21,577.73" style="vector-effect: none; fill: none; stroke: rgb(182, 232, 128); stroke-opacity: 1; stroke-width: 0px; opacity: 1;"/></g><g class="points"/><g class="text"/></g></g></g><g class="overplot"/><path class="xlines-above crisp" d="M0,0" style="fill: none;"/><path class="ylines-above crisp" d="M0,0" style="fill: none;"/><g class="overlines-above"/><g class="xaxislayer-above"><g class="xtick"><text text-anchor="middle" x="0" y="603" transform="translate(89,0)" style="font-family: 'Open Sans', verdana, arial, sans-serif; font-size: 30px; fill: rgb(42, 63, 95); fill-opacity: 1; white-space: pre; opacity: 1;">0</text></g><g class="xtick"><text text-anchor="middle" x="0" y="603" style="font-family: 'Open Sans', verdana, arial, sans-serif; font-size: 30px; fill: rgb(42, 63, 95); fill-opacity: 1; white-space: pre; opacity: 1;" transform="translate(427.57,0)">1M</text></g><g class="xtick"><text text-anchor="middle" x="0" y="603" style="font-family: 'Open Sans', verdana, arial, sans-serif; font-size: 30px; fill: rgb(42, 63, 95); fill-opacity: 1; white-space: pre; opacity: 1;" transform="translate(766.14,0)">2M</text></g></g><g class="yaxislayer-above"><g class="ytick"><text text-anchor="end" x="88" y="10.5" transform="translate(0,463.05)" style="font-family: 'Open Sans', verdana, arial, sans-serif; font-size: 30px; fill: rgb(42, 63, 95); fill-opacity: 1; white-space: pre; opacity: 1;">0.2</text></g><g class="ytick"><text text-anchor="end" x="88" y="10.5" style="font-family: 'Open Sans', verdana, arial, sans-serif; font-size: 30px; fill: rgb(42, 63, 95); fill-opacity: 1; white-space: pre; opacity: 1;" transform="translate(0,354.1)">0.4</text></g><g class="ytick"><text text-anchor="end" x="88" y="10.5" style="font-family: 'Open Sans', verdana, arial, sans-serif; font-size: 30px; fill: rgb(42, 63, 95); fill-opacity: 1; white-space: pre; opacity: 1;" transform="translate(0,245.14)">0.6</text></g><g class="ytick"><text text-anchor="end" x="88" y="10.5" style="font-family: 'Open Sans', verdana, arial, sans-serif; font-size: 30px; fill: rgb(42, 63, 95); fill-opacity: 1; white-space: pre; opacity: 1;" transform="translate(0,136.19)">0.8</text></g><g class="ytick"><text text-anchor="end" x="88" y="10.5" style="font-family: 'Open Sans', verdana, arial, sans-serif; font-size: 30px; fill: rgb(42, 63, 95); fill-opacity: 1; white-space: pre; opacity: 1;" transform="translate(0,27.24)">1</text></g></g><g class="overaxes-above"/></g></g><g class="polarlayer"/><g class="smithlayer"/><g class="ternarylayer"/><g class="geolayer"/><g class="funnelarealayer"/><g class="pielayer"/><g class="iciclelayer"/><g class="treemaplayer"/><g class="sunburstlayer"/><g class="glimages"/><defs id="topdefs-d8f9f2"><g class="clips"/></defs><g class="layer-above"><g class="imagelayer"/><g class="shapelayer"/></g><g class="infolayer"><g class="g-gtitle"/><g class="g-xtitle" transform="translate(0,-7.7000000000000455)"><text class="xtitle" x="444.5" y="649.7" text-anchor="middle" style="font-family: 'Open Sans', verdana, arial, sans-serif; font-size: 36px; fill: rgb(42, 63, 95); opacity: 1; font-weight: normal; white-space: pre;">Time Steps</text></g><g class="g-ytitle"/></g></svg>