<svg class="main-svg" xmlns="http://www.w3.org/2000/svg" xmlns:xlink="http://www.w3.org/1999/xlink" width="2400" height="1950" style="" viewBox="0 0 800 650"><rect x="0" y="0" width="800" height="650" style="fill: rgb(255, 255, 255); fill-opacity: 1;"/><defs id="defs-93c8e6"><g class="clips"><clipPath id="clip93c8e6xyplot" class="plotclip"><rect width="711" height="572"/></clipPath><clipPath class="axesclip" id="clip93c8e6x"><rect x="89" y="0" width="711" height="650"/></clipPath><clipPath class="axesclip" id="clip93c8e6y"><rect x="0" y="0" width="800" height="572"/></clipPath><clipPath class="axesclip" id="clip93c8e6xy"><rect x="89" y="0" width="711" height="572"/></clipPath></g><g class="gradients"/><g class="patterns"/></defs><g class="bglayer"/><g class="layer-below"><g class="imagelayer"/><g class="shapelayer"/></g><g class="cartesianlayer"><g class="subplot xy"><g class="layer-subplot"><g class="shapelayer"/><g class="imagelayer"/></g><g class="minor-gridlayer"><g class="x"/><g class="y"/></g><g class="gridlayer"><g class="x"><path class="xgrid crisp" transform="translate(427.57,0)" d="M0,0v572" style="stroke: rgb(235, 240, 248); stroke-opacity: 1; stroke-width: 1px;"/><path class="xgrid crisp" transform="translate(766.14,0)" d="M0,0v572" style="stroke: rgb(235, 240, 248); stroke-opacity: 1; stroke-width: 1px;"/></g><g class="y"><path class="ygrid crisp" transform="translate(0,463.05)" d="M89,0h711" style="stroke: rgb(235, 240, 248); stroke-opacity: 1; stroke-width: 1px;"/><path class="ygrid crisp" transform="translate(0,354.1)" d="M89,0h711" style="stroke: rgb(235, 240, 248); stroke-opacity: 1; stroke-width: 1px;"/><path class="ygrid crisp" transform="translate(0,245.14)" d="M89,0h711" style="stroke: rgb(235, 240, 248); stroke-opacity: 1; stroke-width: 1px;"/><path class="ygrid crisp" transform="translate(0,136.19)" d="M89,0h711" style="stroke: rgb(235, 240, 248); stroke-opacity: 1; stroke-width: 1px;"/><path class="ygrid crisp" transform="translate(0,27.24)" d="M89,0h711" style="stroke: rgb(235, 240, 248); stroke-opacity: 1; stroke-width: 1px;"/></g></g><g class="zerolinelayer"><path class="xzl zl crisp" transform="translate(89,0)" d="M0,0v572" style="stroke: rgb(235, 240, 248); stroke-opacity: 1; stroke-width: 2px;"/><path class="yzl zl crisp" transform="translate(0,572)" d="M89,0h711" style="stroke: rgb(235, 240, 248); stroke-opacity: 1; stroke-width: 2px;"/></g><path class="xlines-below"/><path class="ylines-below"/><g class="overlines-below"/><g class="xaxislayer-below"/><g class="yaxislayer-below"/><g class="overaxes-below"/><g class="plot" transform="translate(89,0)" clip-path="url(#clip93c8e6xyplot)"><g class="scatterlayer mlayer"><g class="trace scatter trace87549e" style="stroke-miterlimit: 2; opacity: 1;"><g class="fills"/><g class="errorbars"/><g class="lines"><path class="js-line" d="M0.02,572L44.09,572L47.48,570.87L50.87,569.73L54.26,569.73L61.04,569.73L64.43,568.6L74.6,568.6L77.98,562.92L81.39,557.25L84.78,556.11L88.17,543.63L91.56,539.09L94.96,536.82L98.34,533.41L101.73,531.14L105.11,524.33L111.89,506.17L115.29,499.37L118.68,481.21L122.06,475.53L125.45,467.59L128.84,466.45L132.23,465.32L135.64,455.1L142.42,433.54L145.81,410.84L152.59,371.12L155.98,351.83L159.38,338.21L162.77,321.18L166.16,297.35L169.55,290.54L179.72,223.58L183.11,203.15L186.5,187.26L189.89,179.32L193.27,162.29L196.66,157.75L200.05,153.21L203.44,152.08L206.83,152.08L210.22,140.73L213.61,140.73L217,141.87L223.77,135.06L227.16,137.33L230.55,130.52L233.94,130.52L237.33,127.11L240.72,124.84L244.11,127.11L247.51,124.84L250.9,123.71L254.29,116.9L257.68,108.95L261.07,110.09L264.46,104.41L267.85,105.55L271.24,102.14L274.64,101.01L278.03,98.74L281.42,98.74L288.2,94.2L291.59,94.2L294.98,95.33L298.37,98.74L301.76,93.06L305.15,95.33L311.92,99.87L315.31,99.87L318.7,96.47L322.1,98.74L325.48,99.87L328.88,104.41L332.26,106.68L335.65,105.55L339.04,104.41L342.43,108.95L345.82,103.28L349.21,99.87L352.6,98.74L355.99,95.33L359.38,95.33L362.77,93.06L366.17,94.2L369.55,93.06L372.94,89.66L376.33,95.33L383.11,88.52L386.5,88.52L389.89,87.39L393.28,87.39L396.67,89.66L400.06,89.66L403.45,97.6L406.84,97.6L417.01,101.01L420.41,104.41L423.79,103.28L427.18,97.6L433.96,102.14L437.35,99.87L440.74,101.01L444.13,96.47L447.53,97.6L450.91,97.6L454.3,91.93L457.69,90.79L461.08,87.39L464.47,85.12L467.85,78.31L471.24,74.9L474.63,77.17L478.02,73.77L481.41,70.37L484.8,69.23L488.19,65.83L491.58,71.5L494.97,76.04L498.36,74.9L501.75,77.17L505.14,77.17L508.53,78.31L511.92,81.71L515.31,86.25L518.71,87.39L522.1,91.93L525.49,91.93L528.87,94.2L532.26,90.79L535.65,91.93L539.04,94.2L545.83,82.85L549.21,81.71L552.61,76.04L556,76.04L559.39,77.17L562.77,76.04L566.17,71.5L569.55,72.63L572.95,70.37L576.34,69.23L579.73,70.37L583.12,72.63L586.51,74.9L589.9,73.77L593.29,76.04L596.67,77.17L600.06,78.31L603.45,85.12L606.84,82.85L610.23,79.44L613.62,80.58L617.01,82.85L620.4,82.85L623.78,80.58L627.17,81.71L630.57,79.44L633.96,83.98L637.35,81.71L640.73,83.98L644.13,81.71L647.52,79.44L650.91,81.71L654.3,73.77L657.69,78.31L664.47,82.85L667.87,82.85L671.26,81.71L674.65,81.71L678.03,77.17L681.43,78.31L684.82,73.77L688.21,71.5L691.6,72.63" style="vector-effect: none; fill: none; stroke: rgb(31, 119, 180); stroke-opacity: 1; stroke-width: 2.5px; opacity: 1;"/></g><g class="points"/><g class="text"/></g><g class="trace scatter tracea9649f" style="stroke-miterlimit: 2;"><g class="fills"><g><path class="js-fill" d="M3.41,572L44.09,572L47.48,575.26L54.26,575.72L57.65,575.72L74.6,575.64L77.98,585.09L81.39,586.64L84.78,585.22L88.17,596.16L91.56,591.94L101.73,583.34L105.11,577.47L108.51,571.22L111.89,563.32L115.29,556.36L118.68,554.48L122.06,544.43L125.45,531.24L132.23,528.51L135.64,515.07L139.03,526.75L142.42,518.38L145.81,510.08L149.21,498.38L152.59,481.67L155.98,468.97L162.77,443.01L166.16,426.34L169.55,422.07L172.95,392.25L176.33,365.07L179.72,329.09L186.5,247.55L189.89,241.19L193.27,212.74L196.66,207.87L200.05,199.07L203.44,196.97L206.83,196.97L210.22,185.62L217,185.73L220.38,179.59L223.77,177.57L227.16,177.44L230.55,171.45L233.94,171.45L237.33,167.23L240.72,166.77L244.11,167.23L247.51,165.77L250.9,163.72L254.29,155.22L257.68,145.46L261.07,145.25L264.46,133.81L267.85,135.59L271.24,130.04L274.64,129.54L278.03,127.66L281.42,127.66L284.8,120.94L288.2,118.67L291.59,118.67L294.98,121.07L298.37,127.66L301.76,120.26L305.15,122.63L308.53,123.23L311.92,125.18L315.31,125.18L318.7,120.94L322.1,124.64L325.48,125.18L328.88,131.61L332.26,132.95L335.65,131.12L339.04,131.61L342.43,137.15L345.82,135.36L349.21,129.68L352.6,130.39L355.99,128.14L359.38,128.14L362.77,125.79L366.17,127.3L369.55,127.03L372.94,122.26L376.33,135.52L379.72,129.56L383.11,126.48L400.06,126.99L403.45,137.2L406.84,137.2L410.23,138.51L413.62,139.26L417.01,141.02L420.41,142.95L423.79,142.87L427.18,130.95L430.57,134.2L433.96,134.83L437.35,132.98L440.74,132.31L444.13,125.58L450.91,126.28L454.3,114.4L457.69,115.27L461.08,112.2L464.47,110.7L467.85,104.84L471.24,99.99L474.63,102.48L478.02,99.88L481.41,91.58L484.8,89.44L488.19,88.54L491.58,102.22L494.97,112.36L498.36,110.85L501.75,115.49L508.53,115.83L511.92,119.89L515.31,125.85L518.71,125.38L522.1,130.64L525.49,130.64L532.26,131.22L535.65,132.21L539.04,131.42L542.44,123.65L545.83,114.68L549.21,114.01L552.61,106.81L556,106.81L559.39,107.67L562.77,105.43L566.17,97.08L569.55,97.28L572.95,90.58L576.34,88.39L579.73,90.58L583.12,89.25L586.51,96.44L589.9,96.49L593.29,99.12L596.67,99.89L600.06,100.6L603.45,111.49L610.23,111.27L613.62,113.3L617.01,115.32L620.4,115.32L623.78,113.3L627.17,114.65L630.57,112.55L633.96,119.03L637.35,114.65L640.73,115.29L644.13,113.37L647.52,112.55L650.91,115.88L654.3,105.6L657.69,110.48L661.08,109.97L664.47,115.95L667.87,115.95L674.65,115.88L678.03,113.84L681.43,114.71L684.82,107.49L688.21,104.81L691.6,106.48L691.6,38.79L688.21,38.19L684.82,40.05L681.43,41.91L678.03,40.51L674.65,47.55L671.26,47.55L667.87,49.75L664.47,49.75L661.08,51.19L657.69,46.14L654.3,41.94L650.91,47.55L647.52,46.34L644.13,50.06L640.73,52.68L637.35,48.78L633.96,48.94L630.57,46.34L627.17,48.78L623.78,47.85L620.4,50.38L617.01,50.38L613.62,47.85L610.23,47.62L606.84,54.46L603.45,58.75L600.06,56.02L593.29,52.96L589.9,51.05L583.12,56.02L579.73,50.15L576.34,50.07L572.95,50.15L569.55,47.99L566.17,45.92L559.39,46.68L556,45.27L552.61,45.27L549.21,49.41L542.44,53.4L539.04,56.98L535.65,51.64L532.26,50.37L528.87,57.54L525.49,53.22L522.1,53.22L518.71,49.4L515.31,46.66L511.92,43.54L505.14,38.86L501.75,38.86L494.97,39.72L491.58,40.78L488.19,43.11L484.8,49.02L481.41,49.15L478.02,47.66L474.63,51.87L471.24,49.82L467.85,51.78L464.47,59.54L457.69,66.32L454.3,69.45L447.53,68.92L444.13,67.36L440.74,69.71L437.35,66.77L433.96,69.46L430.57,65.54L427.18,64.25L423.79,63.68L420.41,65.88L417.01,61L406.84,58.01L403.45,58.01L400.06,52.32L396.67,52.32L393.28,48.32L389.89,48.32L386.5,50.57L383.11,50.57L379.72,54.3L376.33,55.15L369.55,59.1L366.17,61.1L362.77,60.34L359.38,62.52L355.99,62.52L352.6,67.09L349.21,70.06L345.82,71.19L342.43,80.76L339.04,77.22L335.65,79.97L332.26,80.41L328.88,77.22L325.48,74.57L322.1,72.84L318.7,71.99L315.31,74.57L311.92,74.57L308.53,71.97L305.15,68.03L301.76,65.87L298.37,69.82L291.59,69.73L288.2,69.73L284.8,71.99L281.42,69.82L278.03,69.82L274.64,72.47L271.24,74.24L267.85,75.51L261.07,74.92L257.68,72.44L250.9,83.7L247.51,83.91L244.11,87L240.72,82.91L237.33,87L233.94,89.58L230.55,89.58L227.16,97.21L223.77,92.54L220.38,97.33L217,98L213.61,95.84L210.22,95.84L206.83,107.19L200.05,107.35L196.66,107.64L193.27,111.85L189.89,117.44L186.5,126.97L183.11,121.85L179.72,118.07L176.33,120.68L172.95,143.43L169.55,159.01L166.16,168.36L162.77,199.36L159.38,219.66L155.98,234.68L149.21,286.98L145.81,311.6L142.42,348.7L139.03,363.03L135.64,395.13L132.23,402.12L128.84,403.02L125.45,403.93L122.06,406.63L118.68,407.94L115.29,442.37L111.89,449.03L105.11,471.2L101.73,478.95L98.34,480.95L94.96,484.76L91.56,486.24L88.17,491.09L84.78,527L81.39,527.85L77.98,540.76L74.6,561.55L64.43,561.55L61.04,563.74L54.26,563.74L50.87,563.74L47.48,566.47L44.09,572L3.41,572Z" style="fill: rgb(31, 119, 180); fill-opacity: 0.1; stroke-width: 0;"/></g></g><g class="errorbars"/><g class="lines"><path class="js-line" d="M3.41,572L44.09,572L47.48,566.47L50.87,563.74L54.26,563.74L61.04,563.74L64.43,561.55L74.6,561.55L77.98,540.76L81.39,527.85L84.78,527L88.17,491.09L91.56,486.24L94.96,484.76L98.34,480.95L101.73,478.95L105.11,471.2L111.89,449.03L115.29,442.37L118.68,407.94L122.06,406.63L125.45,403.93L128.84,403.02L132.23,402.12L135.64,395.13L139.03,363.03L142.42,348.7L145.81,311.6L149.21,286.98L155.98,234.68L159.38,219.66L162.77,199.36L166.16,168.36L169.55,159.01L172.95,143.43L176.33,120.68L179.72,118.07L183.11,121.85L186.5,126.97L189.89,117.44L193.27,111.85L196.66,107.64L200.05,107.35L206.83,107.19L210.22,95.84L213.61,95.84L217,98L220.38,97.33L223.77,92.54L227.16,97.21L230.55,89.58L233.94,89.58L237.33,87L240.72,82.91L244.11,87L247.51,83.91L250.9,83.7L257.68,72.44L261.07,74.92L267.85,75.51L271.24,74.24L274.64,72.47L278.03,69.82L281.42,69.82L284.8,71.99L288.2,69.73L291.59,69.73L298.37,69.82L301.76,65.87L305.15,68.03L308.53,71.97L311.92,74.57L315.31,74.57L318.7,71.99L322.1,72.84L325.48,74.57L328.88,77.22L332.26,80.41L335.65,79.97L339.04,77.22L342.43,80.76L345.82,71.19L349.21,70.06L352.6,67.09L355.99,62.52L359.38,62.52L362.77,60.34L366.17,61.1L369.55,59.1L376.33,55.15L379.72,54.3L383.11,50.57L386.5,50.57L389.89,48.32L393.28,48.32L396.67,52.32L400.06,52.32L403.45,58.01L406.84,58.01L417.01,61L420.41,65.88L423.79,63.68L427.18,64.25L430.57,65.54L433.96,69.46L437.35,66.77L440.74,69.71L444.13,67.36L447.53,68.92L454.3,69.45L457.69,66.32L464.47,59.54L467.85,51.78L471.24,49.82L474.63,51.87L478.02,47.66L481.41,49.15L484.8,49.02L488.19,43.11L491.58,40.78L494.97,39.72L501.75,38.86L505.14,38.86L511.92,43.54L515.31,46.66L518.71,49.4L522.1,53.22L525.49,53.22L528.87,57.54L532.26,50.37L535.65,51.64L539.04,56.98L542.44,53.4L549.21,49.41L552.61,45.27L556,45.27L559.39,46.68L566.17,45.92L569.55,47.99L572.95,50.15L576.34,50.07L579.73,50.15L583.12,56.02L589.9,51.05L593.29,52.96L600.06,56.02L603.45,58.75L606.84,54.46L610.23,47.62L613.62,47.85L617.01,50.38L620.4,50.38L623.78,47.85L627.17,48.78L630.57,46.34L633.96,48.94L637.35,48.78L640.73,52.68L644.13,50.06L647.52,46.34L650.91,47.55L654.3,41.94L657.69,46.14L661.08,51.19L664.47,49.75L667.87,49.75L671.26,47.55L674.65,47.55L678.03,40.51L681.43,41.91L684.82,40.05L688.21,38.19L691.6,38.79" style="vector-effect: none; fill: none; stroke: rgb(239, 85, 59); stroke-opacity: 1; stroke-width: 0px; opacity: 1;"/></g><g class="points"/><g class="text"/></g><g class="trace scatter trace900e7a" style="stroke-miterlimit: 2;"><g class="fills"/><g class="errorbars"/><g class="lines"><path class="js-line" d="M3.41,572L44.09,572L47.48,575.26L54.26,575.72L57.65,575.72L74.6,575.64L77.98,585.09L81.39,586.64L84.78,585.22L88.17,596.16L91.56,591.94L101.73,583.34L105.11,577.47L108.51,571.22L111.89,563.32L115.29,556.36L118.68,554.48L122.06,544.43L125.45,531.24L132.23,528.51L135.64,515.07L139.03,526.75L142.42,518.38L145.81,510.08L149.21,498.38L152.59,481.67L155.98,468.97L162.77,443.01L166.16,426.34L169.55,422.07L172.95,392.25L176.33,365.07L179.72,329.09L186.5,247.55L189.89,241.19L193.27,212.74L196.66,207.87L200.05,199.07L203.44,196.97L206.83,196.97L210.22,185.62L217,185.73L220.38,179.59L223.77,177.57L227.16,177.44L230.55,171.45L233.94,171.45L237.33,167.23L240.72,166.77L244.11,167.23L247.51,165.77L250.9,163.72L254.29,155.22L257.68,145.46L261.07,145.25L264.46,133.81L267.85,135.59L271.24,130.04L274.64,129.54L278.03,127.66L281.42,127.66L284.8,120.94L288.2,118.67L291.59,118.67L294.98,121.07L298.37,127.66L301.76,120.26L305.15,122.63L308.53,123.23L311.92,125.18L315.31,125.18L318.7,120.94L322.1,124.64L325.48,125.18L328.88,131.61L332.26,132.95L335.65,131.12L339.04,131.61L342.43,137.15L345.82,135.36L349.21,129.68L352.6,130.39L355.99,128.14L359.38,128.14L362.77,125.79L366.17,127.3L369.55,127.03L372.94,122.26L376.33,135.52L379.72,129.56L383.11,126.48L400.06,126.99L403.45,137.2L406.84,137.2L410.23,138.51L413.62,139.26L417.01,141.02L420.41,142.95L423.79,142.87L427.18,130.95L430.57,134.2L433.96,134.83L437.35,132.98L440.74,132.31L444.13,125.58L450.91,126.28L454.3,114.4L457.69,115.27L461.08,112.2L464.47,110.7L467.85,104.84L471.24,99.99L474.63,102.48L478.02,99.88L481.41,91.58L484.8,89.44L488.19,88.54L491.58,102.22L494.97,112.36L498.36,110.85L501.75,115.49L508.53,115.83L511.92,119.89L515.31,125.85L518.71,125.38L522.1,130.64L525.49,130.64L532.26,131.22L535.65,132.21L539.04,131.42L542.44,123.65L545.83,114.68L549.21,114.01L552.61,106.81L556,106.81L559.39,107.67L562.77,105.43L566.17,97.08L569.55,97.28L572.95,90.58L576.34,88.39L579.73,90.58L583.12,89.25L586.51,96.44L589.9,96.49L593.29,99.12L596.67,99.89L600.06,100.6L603.45,111.49L610.23,111.27L613.62,113.3L617.01,115.32L620.4,115.32L623.78,113.3L627.17,114.65L630.57,112.55L633.96,119.03L637.35,114.65L640.73,115.29L644.13,113.37L647.52,112.55L650.91,115.88L654.3,105.6L657.69,110.48L661.08,109.97L664.47,115.95L667.87,115.95L674.65,115.88L678.03,113.84L681.43,114.71L684.82,107.49L688.21,104.81L691.6,106.48" style="vector-effect: none; fill: none; stroke: rgb(0, 204, 150); stroke-opacity: 1; stroke-width: 0px; opacity: 1;"/></g><g class="points"/><g class="text"/></g><g class="trace scatter trace4dde9a" style="stroke-miterlimit: 2; opacity: 1;"><g class="fills"/><g class="errorbars"/><g class="lines"><path class="js-line" d="M0.01,572L179.63,572L183.02,570.87L230.45,570.87L233.84,572L332.11,572L335.49,570.87L379.54,570.87L382.93,569.73L386.32,570.87L389.71,570.87L396.48,570.87L399.87,569.73L447.31,569.73L450.7,570.87L471.03,570.87L474.42,569.73L481.19,569.73L484.58,570.87L487.97,570.87L491.36,569.73L521.87,569.73L525.25,570.87L538.8,570.87L542.19,572L660.8,572L664.19,570.87L691.3,570.87" style="vector-effect: none; fill: none; stroke: rgb(255, 127, 14); stroke-opacity: 1; stroke-width: 2.5px; opacity: 1;"/></g><g class="points"/><g class="text"/></g><g class="trace scatter trace6e6742" style="stroke-miterlimit: 2;"><g class="fills"><g><path class="js-fill" d="M3.4,572L179.63,572L183.02,575.26L230.45,575.26L233.84,572L332.11,572L335.49,575.26L538.8,575.26L542.19,572L660.8,572L664.19,575.26L691.3,575.26L691.3,566.47L664.19,566.47L660.8,572L542.19,572L538.8,566.47L525.25,566.47L521.87,563.74L491.36,563.74L487.97,566.47L484.58,566.47L481.19,563.74L474.42,563.74L471.03,566.47L450.7,566.47L447.31,563.74L399.87,563.74L396.48,566.47L389.71,566.47L386.32,566.47L382.93,563.74L379.54,566.47L335.49,566.47L332.11,572L233.84,572L230.45,566.47L183.02,566.47L179.63,572L3.4,572Z" style="fill: rgb(255, 127, 14); fill-opacity: 0.1; stroke-width: 0;"/></g></g><g class="errorbars"/><g class="lines"><path class="js-line" d="M3.4,572L179.63,572L183.02,566.47L230.45,566.47L233.84,572L332.11,572L335.49,566.47L379.54,566.47L382.93,563.74L386.32,566.47L389.71,566.47L396.48,566.47L399.87,563.74L447.31,563.74L450.7,566.47L471.03,566.47L474.42,563.74L481.19,563.74L484.58,566.47L487.97,566.47L491.36,563.74L521.87,563.74L525.25,566.47L538.8,566.47L542.19,572L660.8,572L664.19,566.47L691.3,566.47" style="vector-effect: none; fill: none; stroke: rgb(255, 161, 90); stroke-opacity: 1; stroke-width: 0px; opacity: 1;"/></g><g class="points"/><g class="text"/></g><g class="trace scatter trace3e6695" style="stroke-miterlimit: 2;"><g class="fills"/><g class="errorbars"/><g class="lines"><path class="js-line" d="M3.4,572L179.63,572L183.02,575.26L230.45,575.26L233.84,572L332.11,572L335.49,575.26L538.8,575.26L542.19,572L660.8,572L664.19,575.26L691.3,575.26" style="vector-effect: none; fill: none; stroke: rgb(25, 211, 243); stroke-opacity: 1; stroke-width: 0px; opacity: 1;"/></g><g class="points"/><g class="text"/></g><g class="trace scatter trace362ffe" style="stroke-miterlimit: 2; opacity: 1;"><g class="fills"/><g class="errorbars"/><g class="lines"><path class="js-line" d="M0.01,572L64.4,572L67.79,570.87L71.18,570.87L74.57,566.33L77.96,565.19L81.35,562.92L84.74,560.65L88.12,559.52L91.51,557.25L94.91,556.11L98.3,554.98L101.69,550.44L105.08,549.3L108.47,549.3L111.86,549.3L115.24,548.17L118.63,544.76L122.02,542.49L125.41,545.9L128.8,547.03L132.19,544.76L135.58,544.76L138.97,540.22L142.36,537.95L145.75,534.55L149.14,532.28L152.53,533.41L155.92,531.14L159.31,527.74L162.7,518.66L166.08,515.25L169.48,514.12L172.87,514.12L176.26,511.85L179.65,508.44L183.04,509.58L186.43,499.37L189.82,497.1L193.21,493.69L196.6,482.34L199.99,467.59L203.38,466.45L216.93,423.33L220.32,418.79L223.71,407.44L227.1,391.55L233.88,365.44L237.26,360.9L240.65,352.96L244.05,340.48L247.44,339.34L250.83,346.15L254.22,333.67L257.61,327.99L261,331.4L264.39,346.15L267.78,343.88L271.17,330.26L274.56,326.86L277.95,327.99L281.34,330.26L284.73,330.26L288.12,330.26L291.51,327.99L294.9,330.26L298.29,324.59L301.68,316.64L305.07,313.24L308.46,320.05L311.84,312.1L315.23,299.62L318.62,300.75L322,306.43L325.39,305.29L328.79,301.89L332.18,295.08L338.96,297.35L342.34,292.81L345.74,289.4L349.12,291.67L352.51,289.4L355.9,288.27L359.29,281.46L362.68,281.46L366.07,279.19L369.45,280.33L376.23,268.98L379.62,274.65L383.01,273.52L386.4,271.25L389.79,264.44L393.18,265.57L396.57,268.98L399.96,264.44L403.35,265.57L406.74,263.3L410.13,257.63L413.52,257.63L416.91,258.76L420.3,255.36L423.69,255.36L427.08,258.76L430.47,255.36L433.85,246.28L437.24,244.01L440.63,245.14L444.02,247.41L447.41,239.47L450.8,241.74L454.19,241.74L457.58,240.6L460.97,246.28L464.36,244.01L467.75,245.14L471.14,242.87L474.53,247.41L477.92,247.41L481.31,244.01L484.7,251.95L488.09,248.55L491.48,250.82L494.86,245.14L498.25,249.68L501.64,246.28L505.03,244.01L508.42,246.28L511.81,239.47L515.2,238.33L518.58,229.25L521.98,230.39L528.76,217.9L532.15,217.9L535.54,217.9L538.93,215.63L542.32,204.29L545.71,207.69L549.1,200.88L552.49,206.56L555.88,208.83L559.27,207.69L562.66,208.83L566.04,212.23L569.43,215.63L572.82,213.37L576.21,215.63L579.6,219.04L582.99,220.17L586.38,220.17L593.17,226.98L596.56,223.58L599.95,234.93L603.34,232.66L610.12,237.2L613.51,240.6L616.89,241.74L620.29,239.47L623.67,244.01L627.06,245.14L630.45,248.55L633.84,245.14L637.23,244.01L640.62,240.6L644,245.14L647.39,244.01L650.78,237.2L654.17,232.66L660.95,217.9L664.34,219.04L667.73,212.23L671.12,209.96L674.5,205.42L677.89,203.15L681.29,203.15L684.68,202.02L688.07,199.75L691.46,202.02" style="vector-effect: none; fill: none; stroke: rgb(44, 160, 44); stroke-opacity: 1; stroke-width: 2.5px; opacity: 1;"/></g><g class="points"/><g class="text"/></g><g class="trace scatter trace6239a3" style="stroke-miterlimit: 2;"><g class="fills"><g><path class="js-fill" d="M3.39,572L64.4,572L67.79,575.26L71.18,575.26L74.57,584.14L84.74,580.66L88.12,579.31L98.3,574.28L101.69,573.16L105.08,571.28L108.47,571.28L111.86,571.28L115.24,569.31L118.63,568.66L122.02,565.21L125.41,566.11L128.8,568.24L135.58,568.66L138.97,568.17L142.36,567.44L145.75,564.86L149.14,562.23L152.53,562.52L155.92,559.77L159.31,554.11L162.7,551.38L166.08,546.56L172.87,546.16L176.26,541.94L179.65,533.75L183.04,535.05L186.43,539.27L189.82,538.7L193.21,536.76L196.6,541.83L199.99,542.31L203.38,540.43L210.15,523.45L213.54,524.03L216.93,514.43L220.32,508.18L230.49,455.38L233.88,432.27L237.26,428.63L240.65,415.96L244.05,400.77L247.44,399.93L250.83,407.69L254.22,377.31L257.61,372.42L261,380.76L264.39,410.64L267.78,410.06L271.17,400.81L274.56,396.69L277.95,397.19L281.34,400.22L288.12,400.22L291.51,398.38L294.9,399.02L298.29,397.91L301.68,387.42L305.07,385.23L308.46,393.75L311.84,380.64L315.23,343.26L318.62,344.14L325.39,341.5L328.79,340.96L332.18,330.6L335.57,332.73L338.96,334.79L342.34,333.91L345.74,331.99L349.12,331.79L355.9,330.79L359.29,314.56L362.68,314.56L366.07,310.84L369.45,313.05L372.84,310.97L376.23,307.69L379.62,316.28L383.01,315.64L386.4,310.74L389.79,301.1L393.18,301.4L396.57,305.49L399.96,305.37L403.35,306.27L406.74,305.92L410.13,303.06L413.52,303.06L416.91,305.07L420.3,298.9L423.69,298.9L427.08,300.86L430.47,292.77L433.85,298.89L437.24,294.86L440.63,295.89L444.02,299.08L447.41,291.69L450.8,292.73L454.19,292.73L457.58,292.43L460.97,297.7L464.36,293.63L467.75,296.3L471.14,293.81L474.53,298.67L477.92,298.67L481.31,294.45L484.7,287.31L488.09,284.95L491.48,288.26L494.86,283.86L501.64,284.81L505.03,282.33L508.42,282.6L511.81,278L515.2,276.29L518.58,263.22L521.98,264.72L525.37,256.93L528.76,250.84L532.15,250.84L535.54,250.84L538.93,249.97L542.32,242.78L545.71,247.77L549.1,242.18L552.49,250.6L555.88,255.08L559.27,253.55L562.66,254.17L566.04,262.43L569.43,265.25L572.82,262.14L576.21,263.56L579.6,266.09L582.99,267.75L586.38,267.75L589.78,269.92L593.17,265.84L596.56,262.65L599.95,274.7L603.34,271.51L606.73,276.73L613.51,280.72L616.89,283.83L620.29,283.05L623.67,288.34L627.06,288.88L630.45,293.13L633.84,291.63L637.23,291.06L644,290.28L647.39,290.61L650.78,279.72L654.17,279.27L657.55,269.33L660.95,267.41L664.34,269.49L667.73,254.85L671.12,254.29L674.5,245.02L677.89,242.11L681.29,242.11L684.68,241.4L688.07,239.34L691.46,241.4L691.46,162.63L688.07,160.15L684.68,162.63L681.29,164.19L677.89,164.19L674.5,165.83L671.12,165.63L667.73,169.61L664.34,168.59L660.95,168.4L657.55,182.37L654.17,186.05L650.78,194.68L647.39,197.4L644,200.01L640.62,190.82L637.23,196.96L633.84,198.65L630.45,203.97L623.67,199.68L620.29,195.89L616.89,199.64L613.51,200.49L610.12,195.66L606.73,193.13L603.34,193.8L599.95,195.16L596.56,184.51L593.17,188.13L589.78,177.24L586.38,172.6L579.6,171.99L576.21,167.71L572.82,164.59L569.43,166.02L566.04,162.03L562.66,163.48L559.27,161.83L555.88,162.58L552.49,162.51L549.1,159.58L545.71,167.61L542.32,165.79L538.93,181.3L535.54,184.97L532.15,184.97L528.76,184.97L525.37,190.23L521.98,196.06L518.58,195.29L515.2,200.38L511.81,200.93L508.42,209.96L505.03,205.69L501.64,207.74L498.25,215.35L494.86,206.43L491.48,213.37L488.09,212.15L484.7,216.59L481.31,193.56L477.92,196.15L474.53,196.15L471.14,191.94L467.75,193.99L460.97,194.86L457.58,188.78L454.19,190.75L450.8,190.75L447.41,187.25L444.02,195.75L440.63,194.4L437.24,193.15L433.85,193.66L430.47,217.95L427.08,216.67L423.69,211.81L420.3,211.81L416.91,212.45L413.52,212.19L410.13,212.19L406.74,220.69L403.35,224.88L399.96,223.51L396.57,232.46L393.18,229.75L389.79,227.77L386.4,231.76L383.01,231.39L379.62,233.02L376.23,230.26L369.45,247.6L366.07,247.54L362.68,248.36L359.29,248.36L355.9,245.75L352.51,247.8L349.12,251.56L345.74,246.82L342.34,251.71L338.96,259.9L335.57,259.7L332.18,259.56L328.79,262.82L325.39,269.09L322,270.14L318.62,257.37L315.23,255.98L311.84,243.56L308.46,246.35L305.07,241.24L298.29,251.26L294.9,261.5L291.51,257.6L288.12,260.31L284.73,260.31L281.34,260.31L277.95,258.79L274.56,257.02L271.17,259.72L267.78,277.7L264.39,281.66L261,282.03L257.61,283.57L254.22,290.03L247.44,278.75L244.05,280.18L240.65,289.96L237.26,293.18L227.1,308.2L223.71,323.62L220.32,329.4L216.93,332.22L213.54,347.59L210.15,368.6L203.38,392.47L199.99,392.86L196.6,422.86L193.21,450.62L186.43,459.46L183.04,484.11L179.65,483.14L176.26,481.76L172.87,482.08L169.48,482.08L162.7,485.93L159.31,501.36L155.92,502.51L152.53,504.3L149.14,502.33L145.75,504.23L138.97,512.27L135.58,520.86L132.19,520.86L128.8,525.82L125.41,525.69L122.02,519.77L118.63,520.86L115.24,527.02L111.86,527.32L108.47,527.32L101.69,527.72L98.3,535.67L94.91,536.31L91.51,537.03L88.12,539.72L84.74,540.65L81.35,543.76L77.96,547.22L74.57,548.51L71.18,566.47L67.79,566.47L64.4,572L3.39,572Z" style="fill: rgb(44, 160, 44); fill-opacity: 0.1; stroke-width: 0;"/></g></g><g class="errorbars"/><g class="lines"><path class="js-line" d="M3.39,572L64.4,572L67.79,566.47L71.18,566.47L74.57,548.51L77.96,547.22L81.35,543.76L84.74,540.65L88.12,539.72L91.51,537.03L94.91,536.31L98.3,535.67L101.69,527.72L108.47,527.32L111.86,527.32L115.24,527.02L118.63,520.86L122.02,519.77L125.41,525.69L128.8,525.82L132.19,520.86L135.58,520.86L138.97,512.27L145.75,504.23L149.14,502.33L152.53,504.3L155.92,502.51L159.31,501.36L162.7,485.93L169.48,482.08L172.87,482.08L176.26,481.76L179.65,483.14L183.04,484.11L186.43,459.46L193.21,450.62L196.6,422.86L199.99,392.86L203.38,392.47L210.15,368.6L213.54,347.59L216.93,332.22L220.32,329.4L223.71,323.62L227.1,308.2L237.26,293.18L240.65,289.96L244.05,280.18L247.44,278.75L254.22,290.03L257.61,283.57L261,282.03L264.39,281.66L267.78,277.7L271.17,259.72L274.56,257.02L277.95,258.79L281.34,260.31L284.73,260.31L288.12,260.31L291.51,257.6L294.9,261.5L298.29,251.26L305.07,241.24L308.46,246.35L311.84,243.56L315.23,255.98L318.62,257.37L322,270.14L325.39,269.09L328.79,262.82L332.18,259.56L335.57,259.7L338.96,259.9L342.34,251.71L345.74,246.82L349.12,251.56L352.51,247.8L355.9,245.75L359.29,248.36L362.68,248.36L366.07,247.54L369.45,247.6L376.23,230.26L379.62,233.02L383.01,231.39L386.4,231.76L389.79,227.77L393.18,229.75L396.57,232.46L399.96,223.51L403.35,224.88L406.74,220.69L410.13,212.19L413.52,212.19L416.91,212.45L420.3,211.81L423.69,211.81L427.08,216.67L430.47,217.95L433.85,193.66L437.24,193.15L440.63,194.4L444.02,195.75L447.41,187.25L450.8,190.75L454.19,190.75L457.58,188.78L460.97,194.86L467.75,193.99L471.14,191.94L474.53,196.15L477.92,196.15L481.31,193.56L484.7,216.59L488.09,212.15L491.48,213.37L494.86,206.43L498.25,215.35L501.64,207.74L505.03,205.69L508.42,209.96L511.81,200.93L515.2,200.38L518.58,195.29L521.98,196.06L525.37,190.23L528.76,184.97L532.15,184.97L535.54,184.97L538.93,181.3L542.32,165.79L545.71,167.61L549.1,159.58L552.49,162.51L555.88,162.58L559.27,161.83L562.66,163.48L566.04,162.03L569.43,166.02L572.82,164.59L576.21,167.71L579.6,171.99L586.38,172.6L589.78,177.24L593.17,188.13L596.56,184.51L599.95,195.16L603.34,193.8L606.73,193.13L610.12,195.66L613.51,200.49L616.89,199.64L620.29,195.89L623.67,199.68L630.45,203.97L633.84,198.65L637.23,196.96L640.62,190.82L644,200.01L647.39,197.4L650.78,194.68L654.17,186.05L657.55,182.37L660.95,168.4L664.34,168.59L667.73,169.61L671.12,165.63L674.5,165.83L677.89,164.19L681.29,164.19L684.68,162.63L688.07,160.15L691.46,162.63" style="vector-effect: none; fill: none; stroke: rgb(182, 232, 128); stroke-opacity: 1; stroke-width: 0px; opacity: 1;"/></g><g class="points"/><g class="text"/></g><g class="trace scatter trace5477d8" style="stroke-miterlimit: 2;"><g class="fills"/><g class="errorbars"/><g class="lines"><path class="js-line" d="M3.39,572L64.4,572L67.79,575.26L71.18,575.26L74.57,584.14L84.74,580.66L88.12,579.31L98.3,574.28L101.69,573.16L105.08,571.28L108.47,571.28L111.86,571.28L115.24,569.31L118.63,568.66L122.02,565.21L125.41,566.11L128.8,568.24L135.58,568.66L138.97,568.17L142.36,567.44L145.75,564.86L149.14,562.23L152.53,562.52L155.92,559.77L159.31,554.11L162.7,551.38L166.08,546.56L172.87,546.16L176.26,541.94L179.65,533.75L183.04,535.05L186.43,539.27L189.82,538.7L193.21,536.76L196.6,541.83L199.99,542.31L203.38,540.43L210.15,523.45L213.54,524.03L216.93,514.43L220.32,508.18L230.49,455.38L233.88,432.27L237.26,428.63L240.65,415.96L244.05,400.77L247.44,399.93L250.83,407.69L254.22,377.31L257.61,372.42L261,380.76L264.39,410.64L267.78,410.06L271.17,400.81L274.56,396.69L277.95,397.19L281.34,400.22L288.12,400.22L291.51,398.38L294.9,399.02L298.29,397.91L301.68,387.42L305.07,385.23L308.46,393.75L311.84,380.64L315.23,343.26L318.62,344.14L325.39,341.5L328.79,340.96L332.18,330.6L335.57,332.73L338.96,334.79L342.34,333.91L345.74,331.99L349.12,331.79L355.9,330.79L359.29,314.56L362.68,314.56L366.07,310.84L369.45,313.05L372.84,310.97L376.23,307.69L379.62,316.28L383.01,315.64L386.4,310.74L389.79,301.1L393.18,301.4L396.57,305.49L399.96,305.37L403.35,306.27L406.74,305.92L410.13,303.06L413.52,303.06L416.91,305.07L420.3,298.9L423.69,298.9L427.08,300.86L430.47,292.77L433.85,298.89L437.24,294.86L440.63,295.89L444.02,299.08L447.41,291.69L450.8,292.73L454.19,292.73L457.58,292.43L460.97,297.7L464.36,293.63L467.75,296.3L471.14,293.81L474.53,298.67L477.92,298.67L481.31,294.45L484.7,287.31L488.09,284.95L491.48,288.26L494.86,283.86L501.64,284.81L505.03,282.33L508.42,282.6L511.81,278L515.2,276.29L518.58,263.22L521.98,264.72L525.37,256.93L528.76,250.84L532.15,250.84L535.54,250.84L538.93,249.97L542.32,242.78L545.71,247.77L549.1,242.18L552.49,250.6L555.88,255.08L559.27,253.55L562.66,254.17L566.04,262.43L569.43,265.25L572.82,262.14L576.21,263.56L579.6,266.09L582.99,267.75L586.38,267.75L589.78,269.92L593.17,265.84L596.56,262.65L599.95,274.7L603.34,271.51L606.73,276.73L613.51,280.72L616.89,283.83L620.29,283.05L623.67,288.34L627.06,288.88L630.45,293.13L633.84,291.63L637.23,291.06L644,290.28L647.39,290.61L650.78,279.72L654.17,279.27L657.55,269.33L660.95,267.41L664.34,269.49L667.73,254.85L671.12,254.29L674.5,245.02L677.89,242.11L681.29,242.11L684.68,241.4L688.07,239.34L691.46,241.4" style="vector-effect: none; fill: none; stroke: rgb(255, 151, 255); stroke-opacity: 1; stroke-width: 0px; opacity: 1;"/></g><g class="points"/><g class="text"/></g><g class="trace scatter tracee64b62" style="stroke-miterlimit: 2; opacity: 1;"><g class="fills"/><g class="errorbars"/><g class="lines"><path class="js-line" d="M0.01,572L40.7,572L44.1,570.78L74.6,570.87L78,570.87L81.39,570.87L84.77,569.73L91.55,569.73L94.94,570.87L98.33,568.6L101.72,568.6L105.11,567.46L108.5,565.19L111.89,565.19L115.28,564.06L122.06,556.11L125.44,554.98L128.83,552.71L132.22,551.57L135.62,548.17L139.01,547.03L142.4,545.9L145.79,542.49L149.18,542.49L152.57,535.68L155.96,532.28L159.35,530.01L162.74,526.6L166.13,518.66L172.91,508.44L176.3,506.17L179.69,497.1L183.08,492.56L186.47,485.75L189.86,476.67L196.64,457.37L200.03,446.02L203.42,441.48L206.81,434.67L210.2,430.13L213.59,417.65L216.98,414.25L220.37,406.3L223.76,401.76L227.15,384.74L230.54,380.2L233.92,373.39L240.71,363.17L244.09,351.83L250.87,341.61L254.26,339.34L257.65,339.34L261.03,332.53L264.42,334.8L267.81,332.53L271.2,332.53L274.59,338.21L277.98,337.07L281.37,337.07L284.76,330.26L288.15,332.53L291.54,330.26L294.93,337.07L298.31,330.26L301.7,332.53L305.09,329.13L308.47,322.32L311.86,322.32L315.25,312.1L318.64,306.43L322.03,308.7L325.43,300.75L328.82,306.43L332.21,308.7L335.6,307.56L338.98,308.7L342.38,306.43L345.77,305.29L349.16,313.24L355.94,308.7L359.33,312.1L362.71,309.83L366.11,314.37L369.5,316.64L372.88,314.37L376.27,317.78L379.66,314.37L383.05,307.56L386.44,308.7L389.83,298.48L393.22,296.21L400,287.13L403.4,288.27L410.18,280.33L413.56,278.06L420.35,284.87L423.74,282.6L427.12,273.52L430.52,268.98L437.29,268.98L440.68,267.84L444.07,265.57L447.46,264.44L450.85,263.3L454.24,254.22L457.63,255.36L461.02,255.36L464.41,253.09L467.8,248.55L471.19,236.06L474.59,239.47L477.97,237.2L481.36,244.01L484.76,245.14L488.14,238.33L491.53,242.87L494.91,242.87L498.3,249.68L501.69,248.55L505.08,258.76L508.46,262.17L511.85,259.9L515.24,263.3L518.63,262.17L522.02,262.17L525.41,250.82L528.8,253.09L532.19,248.55L535.57,247.41L538.96,255.36L542.35,253.09L545.74,258.76L549.13,255.36L552.52,262.17L555.9,254.22L562.68,251.95L566.07,244.01L569.46,242.87L572.85,251.95L576.24,262.17L579.63,261.03L583.02,258.76L586.41,265.57L589.8,259.9L593.19,263.3L596.58,257.63L599.97,254.22L603.36,259.9L606.76,262.17L610.15,262.17L613.54,263.3L616.93,263.3L620.32,267.84L627.11,256.49L630.5,261.03L633.89,262.17L637.28,249.68L640.67,250.82L644.06,248.55L647.45,253.09L650.84,250.82L654.23,245.14L657.62,237.2L661,234.93L664.4,238.33L667.78,244.01L671.17,237.2L674.56,241.74L677.95,244.01L681.34,237.2L684.73,238.33L688.12,241.74L691.51,239.47" style="vector-effect: none; fill: none; stroke: rgb(214, 39, 40); stroke-opacity: 1; stroke-width: 2.5px; opacity: 1;"/></g><g class="points"/><g class="text"/></g><g class="trace scatter traced7bafb" style="stroke-miterlimit: 2;"><g class="fills"><g><path class="js-fill" d="M3.4,572L40.7,572L44.1,575.33L81.39,575.26L84.77,575.72L94.94,575.26L98.33,578.14L111.89,577.73L115.28,576.71L118.67,579.31L122.06,577.9L128.83,573.92L132.22,572.12L135.62,572.07L139.01,570.11L142.4,568.06L145.79,564.28L149.18,564.28L152.57,562.88L155.96,560.08L159.35,558.69L162.74,552.87L166.13,552.63L169.52,555.6L172.91,553.7L176.3,549.75L179.69,547.27L183.08,540.13L186.47,538.6L193.25,516.53L196.64,510.22L200.03,498.61L203.42,494.8L210.2,477.71L213.59,464.26L216.98,461.29L220.37,461.83L223.76,455.98L227.15,438.96L230.54,435.72L233.92,420.53L237.32,416.29L240.71,409.78L244.09,404.28L247.48,401.3L254.26,393.43L257.65,393.43L261.03,379.58L264.42,382.72L267.81,378.69L271.2,378.69L274.59,395.2L277.98,395.76L281.37,395.76L284.76,388.95L288.15,391.32L291.54,388.95L294.93,391.36L298.31,396.88L301.7,398.61L305.09,394.58L308.47,384.92L311.86,384.92L318.64,373.54L322.03,376.14L325.43,353.21L328.82,357.42L332.21,361.71L335.6,361.35L338.98,363.62L342.38,361.7L345.77,359.76L349.16,355.53L355.94,351.31L359.33,355.96L366.11,350.12L369.5,350.08L372.88,347.72L376.27,357.16L379.66,354.49L383.05,346.63L386.44,346.69L389.83,339.92L393.22,339.47L396.62,334.29L400,332.39L403.4,334.07L406.79,333.35L410.18,326.66L413.56,324.22L416.96,329.81L420.35,336.29L423.74,334.07L427.12,313.11L430.52,311.27L444.07,311.52L447.46,310.6L450.85,310.53L454.24,303.51L461.02,303.85L464.41,301.86L467.8,292.19L471.19,274.92L474.59,283.05L477.97,280.2L481.36,291.06L484.76,292.95L488.14,287.67L491.53,291.31L494.91,291.31L498.3,305.58L501.69,305.37L505.08,316.24L508.46,319.43L511.85,316.24L515.24,319.35L518.63,318.33L522.02,318.33L525.41,312.15L528.8,314.29L532.19,307.17L535.57,305.49L538.96,311.75L542.35,309.72L545.74,315.52L549.13,307.55L552.52,312.91L555.9,302.23L559.29,300.57L562.68,299.32L566.07,295.67L569.46,294.62L572.85,300.62L576.24,302.45L579.63,301.45L583.02,300.86L586.41,316.24L589.8,311.24L593.19,314.32L599.97,304.34L603.36,319.45L606.76,320.5L610.15,320.5L613.54,321.52L616.93,321.52L620.32,326.06L623.72,321.21L627.11,315.77L630.5,322.23L633.89,322.6L637.28,305.95L640.67,306.49L644.06,303.52L647.45,307.86L650.84,306.49L654.23,289.35L657.62,290.52L661,287.67L664.4,294.72L667.78,296.47L671.17,288.54L674.56,293.93L677.95,295.67L681.34,285.21L684.73,286.4L688.12,287.15L691.51,286.25L691.51,192.68L688.12,196.33L684.73,190.27L681.34,189.19L677.95,192.35L671.17,185.86L667.78,191.55L664.4,181.95L661,182.18L657.62,183.88L654.23,200.94L650.84,195.14L647.45,198.31L644.06,193.57L640.67,195.14L637.28,193.42L633.89,201.74L630.5,199.83L627.11,197.22L620.32,209.62L616.93,205.08L613.54,205.08L610.15,203.83L606.76,203.83L603.36,200.34L599.97,204.11L596.58,206.21L593.19,212.28L589.8,208.56L586.41,214.91L583.02,216.67L579.63,220.61L576.24,221.88L572.85,203.29L569.46,191.13L566.07,192.35L562.68,204.58L555.9,206.22L552.52,211.42L549.13,203.16L545.74,202.01L542.35,196.45L538.96,198.97L535.57,189.34L532.19,189.93L528.8,191.89L525.41,189.48L522.02,206L518.63,206L515.24,207.26L511.85,203.56L508.46,204.9L505.08,201.28L501.69,191.72L498.3,193.79L494.91,194.44L491.53,194.44L488.14,188.99L484.76,197.34L481.36,196.96L477.97,194.2L474.59,195.89L471.19,197.21L467.8,204.91L464.41,204.31L461.02,206.86L457.63,206.86L454.24,204.94L450.85,216.08L447.46,218.28L444.07,219.62L440.68,223.79L437.29,226.69L433.91,226.69L430.52,226.69L427.12,233.92L423.74,231.12L420.35,233.44L416.96,233.11L413.56,231.9L410.18,233.99L406.79,234.11L403.4,242.47L400,241.88L396.62,249.06L393.22,252.96L389.83,257.05L386.44,270.7L383.05,268.5L379.66,274.26L376.27,278.39L372.88,281.02L369.5,283.21L366.11,278.62L362.71,266.29L359.33,268.24L355.94,266.08L352.55,268.94L349.16,270.95L345.77,250.82L342.38,251.15L338.98,253.77L335.6,253.78L332.21,255.69L328.82,255.44L322.03,241.25L318.64,239.31L315.25,245.09L311.86,259.71L308.47,259.71L305.09,263.68L301.7,266.45L298.31,263.64L294.93,282.78L291.54,271.57L288.15,273.75L284.76,271.57L281.37,278.38L277.98,278.38L274.59,281.21L271.2,286.37L267.81,286.37L264.42,286.88L261.03,285.48L257.65,285.25L250.87,285.57L247.48,291L244.09,299.37L240.71,316.57L237.32,319.14L233.92,326.25L230.54,324.67L227.15,330.52L223.76,347.54L220.37,350.78L216.98,367.2L213.59,371.04L210.2,382.56L206.81,383.41L203.42,388.17L200.03,393.43L196.64,404.52L193.25,418.64L186.47,432.9L183.08,444.98L179.69,446.92L176.3,462.6L172.91,463.19L169.52,470.37L162.74,500.33L159.35,501.33L152.57,508.49L149.18,520.7L145.79,520.7L142.4,523.73L135.62,524.26L132.22,531.02L128.83,531.5L125.44,533.64L122.06,534.32L118.67,539.72L115.28,551.4L111.89,552.65L108.5,552.65L105.11,557.35L101.72,559.05L98.33,559.05L94.94,566.47L91.55,563.74L84.77,563.74L81.39,566.47L61.05,566.47L57.66,566.47L44.1,566.23L40.7,572L3.4,572Z" style="fill: rgb(214, 39, 40); fill-opacity: 0.1; stroke-width: 0;"/></g></g><g class="errorbars"/><g class="lines"><path class="js-line" d="M3.4,572L40.7,572L44.1,566.23L57.66,566.47L61.05,566.47L81.39,566.47L84.77,563.74L91.55,563.74L94.94,566.47L98.33,559.05L101.72,559.05L105.11,557.35L108.5,552.65L111.89,552.65L115.28,551.4L118.67,539.72L122.06,534.32L125.44,533.64L128.83,531.5L132.22,531.02L135.62,524.26L142.4,523.73L145.79,520.7L149.18,520.7L152.57,508.49L159.35,501.33L162.74,500.33L169.52,470.37L172.91,463.19L176.3,462.6L179.69,446.92L183.08,444.98L186.47,432.9L193.25,418.64L196.64,404.52L200.03,393.43L203.42,388.17L206.81,383.41L210.2,382.56L213.59,371.04L216.98,367.2L220.37,350.78L223.76,347.54L227.15,330.52L230.54,324.67L233.92,326.25L237.32,319.14L240.71,316.57L244.09,299.37L247.48,291L250.87,285.57L257.65,285.25L261.03,285.48L264.42,286.88L267.81,286.37L271.2,286.37L274.59,281.21L277.98,278.38L281.37,278.38L284.76,271.57L288.15,273.75L291.54,271.57L294.93,282.78L298.31,263.64L301.7,266.45L305.09,263.68L308.47,259.71L311.86,259.71L315.25,245.09L318.64,239.31L322.03,241.25L328.82,255.44L332.21,255.69L335.6,253.78L338.98,253.77L342.38,251.15L345.77,250.82L349.16,270.95L352.55,268.94L355.94,266.08L359.33,268.24L362.71,266.29L366.11,278.62L369.5,283.21L372.88,281.02L376.27,278.39L379.66,274.26L383.05,268.5L386.44,270.7L389.83,257.05L393.22,252.96L396.62,249.06L400,241.88L403.4,242.47L406.79,234.11L410.18,233.99L413.56,231.9L416.96,233.11L420.35,233.44L423.74,231.12L427.12,233.92L430.52,226.69L433.91,226.69L437.29,226.69L440.68,223.79L444.07,219.62L447.46,218.28L450.85,216.08L454.24,204.94L457.63,206.86L461.02,206.86L464.41,204.31L467.8,204.91L471.19,197.21L474.59,195.89L477.97,194.2L481.36,196.96L484.76,197.34L488.14,188.99L491.53,194.44L494.91,194.44L498.3,193.79L501.69,191.72L505.08,201.28L508.46,204.9L511.85,203.56L515.24,207.26L518.63,206L522.02,206L525.41,189.48L528.8,191.89L532.19,189.93L535.57,189.34L538.96,198.97L542.35,196.45L545.74,202.01L549.13,203.16L552.52,211.42L555.9,206.22L562.68,204.58L566.07,192.35L569.46,191.13L572.85,203.29L576.24,221.88L579.63,220.61L583.02,216.67L586.41,214.91L589.8,208.56L593.19,212.28L596.58,206.21L599.97,204.11L603.36,200.34L606.76,203.83L610.15,203.83L613.54,205.08L616.93,205.08L620.32,209.62L627.11,197.22L630.5,199.83L633.89,201.74L637.28,193.42L640.67,195.14L644.06,193.57L647.45,198.31L650.84,195.14L654.23,200.94L657.62,183.88L661,182.18L664.4,181.95L667.78,191.55L671.17,185.86L677.95,192.35L681.34,189.19L684.73,190.27L688.12,196.33L691.51,192.68" style="vector-effect: none; fill: none; stroke: rgb(99, 110, 250); stroke-opacity: 1; stroke-width: 0px; opacity: 1;"/></g><g class="points"/><g class="text"/></g><g class="trace scatter tracebc27bc" style="stroke-miterlimit: 2;"><g class="fills"/><g class="errorbars"/><g class="lines"><path class="js-line" d="M3.4,572L40.7,572L44.1,575.33L81.39,575.26L84.77,575.72L94.94,575.26L98.33,578.14L111.89,577.73L115.28,576.71L118.67,579.31L122.06,577.9L128.83,573.92L132.22,572.12L135.62,572.07L139.01,570.11L142.4,568.06L145.79,564.28L149.18,564.28L152.57,562.88L155.96,560.08L159.35,558.69L162.74,552.87L166.13,552.63L169.52,555.6L172.91,553.7L176.3,549.75L179.69,547.27L183.08,540.13L186.47,538.6L193.25,516.53L196.64,510.22L200.03,498.61L203.42,494.8L210.2,477.71L213.59,464.26L216.98,461.29L220.37,461.83L223.76,455.98L227.15,438.96L230.54,435.72L233.92,420.53L237.32,416.29L240.71,409.78L244.09,404.28L247.48,401.3L254.26,393.43L257.65,393.43L261.03,379.58L264.42,382.72L267.81,378.69L271.2,378.69L274.59,395.2L277.98,395.76L281.37,395.76L284.76,388.95L288.15,391.32L291.54,388.95L294.93,391.36L298.31,396.88L301.7,398.61L305.09,394.58L308.47,384.92L311.86,384.92L318.64,373.54L322.03,376.14L325.43,353.21L328.82,357.42L332.21,361.71L335.6,361.35L338.98,363.62L342.38,361.7L345.77,359.76L349.16,355.53L355.94,351.31L359.33,355.96L366.11,350.12L369.5,350.08L372.88,347.72L376.27,357.16L379.66,354.49L383.05,346.63L386.44,346.69L389.83,339.92L393.22,339.47L396.62,334.29L400,332.39L403.4,334.07L406.79,333.35L410.18,326.66L413.56,324.22L416.96,329.81L420.35,336.29L423.74,334.07L427.12,313.11L430.52,311.27L444.07,311.52L447.46,310.6L450.85,310.53L454.24,303.51L461.02,303.85L464.41,301.86L467.8,292.19L471.19,274.92L474.59,283.05L477.97,280.2L481.36,291.06L484.76,292.95L488.14,287.67L491.53,291.31L494.91,291.31L498.3,305.58L501.69,305.37L505.08,316.24L508.46,319.43L511.85,316.24L515.24,319.35L518.63,318.33L522.02,318.33L525.41,312.15L528.8,314.29L532.19,307.17L535.57,305.49L538.96,311.75L542.35,309.72L545.74,315.52L549.13,307.55L552.52,312.91L555.9,302.23L559.29,300.57L562.68,299.32L566.07,295.67L569.46,294.62L572.85,300.62L576.24,302.45L579.63,301.45L583.02,300.86L586.41,316.24L589.8,311.24L593.19,314.32L599.97,304.34L603.36,319.45L606.76,320.5L610.15,320.5L613.54,321.52L616.93,321.52L620.32,326.06L623.72,321.21L627.11,315.77L630.5,322.23L633.89,322.6L637.28,305.95L640.67,306.49L644.06,303.52L647.45,307.86L650.84,306.49L654.23,289.35L657.62,290.52L661,287.67L664.4,294.72L667.78,296.47L671.17,288.54L674.56,293.93L677.95,295.67L681.34,285.21L684.73,286.4L688.12,287.15L691.51,286.25" style="vector-effect: none; fill: none; stroke: rgb(239, 85, 59); stroke-opacity: 1; stroke-width: 0px; opacity: 1;"/></g><g class="points"/><g class="text"/></g><g class="trace scatter tracef8ef52" style="stroke-miterlimit: 2; opacity: 1;"><g class="fills"/><g class="errorbars"/><g class="lines"><path class="js-line" d="M0.01,572L61.04,572L64.43,570.87L67.83,570.87L71.21,569.73L74.6,568.6L77.99,568.6L81.38,568.6L84.77,566.33L88.16,561.79L91.55,561.79L98.32,557.25L101.71,550.44L111.88,534.55L115.27,533.41L118.66,533.41L122.05,528.87L128.83,517.52L132.22,506.17L135.61,499.37L139,490.29L145.77,460.78L149.17,452.83L152.56,449.43L155.94,439.21L162.72,414.25L166.11,401.76L169.5,385.87L172.89,375.66L179.67,352.96L183.07,352.96L186.46,341.61L189.85,339.34L193.24,333.67L196.63,335.94L200.02,316.64L203.41,315.51L206.8,315.51L210.19,317.78L216.96,305.29L220.35,306.43L223.74,307.56L227.13,309.83L230.52,306.43L233.91,305.29L237.3,304.16L240.69,299.62L244.08,300.75L247.47,292.81L250.86,298.48L254.25,293.94L261.03,284.87L264.42,289.4L267.81,291.67L271.2,283.73L277.98,281.46L281.37,289.4L284.76,281.46L288.15,275.79L291.54,282.6L294.93,280.33L298.32,276.92L301.71,282.6L305.1,275.79L308.49,271.25L315.27,256.49L318.66,257.63L322.05,255.36L325.45,247.41L332.23,230.39L335.62,229.25L339.01,232.66L342.39,223.58L349.17,221.31L352.56,213.37L355.95,212.23L359.34,214.5L362.73,220.17L366.12,216.77L369.51,209.96L372.9,211.1L376.29,207.69L379.68,206.56L383.07,209.96L386.46,203.15L389.85,204.29L393.24,204.29L396.62,207.69L400.02,216.77L403.4,221.31L406.79,223.58L410.18,221.31L413.57,212.23L416.96,214.5L420.35,215.63L423.74,214.5L427.13,217.9L430.52,215.63L433.91,205.42L437.3,209.96L440.69,204.29L444.08,203.15L447.47,200.88L454.25,194.07L457.64,192.94L461.03,192.94L464.42,196.34L467.81,204.29L471.2,200.88L474.59,197.48L477.98,191.8L481.37,192.94L484.76,198.61L491.54,194.07L494.95,188.4L498.33,187.26L501.72,183.86L505.11,181.59L508.5,182.72L511.89,179.32L515.28,177.05L518.68,169.1L522.06,169.1L525.46,171.37L528.85,177.05L532.24,178.18L535.63,180.45L539.02,174.78L542.41,182.72L545.8,188.4L549.19,191.8L552.58,192.94L555.97,190.67L559.36,180.45L562.75,178.18L569.53,182.72L572.92,181.59L576.31,184.99L579.69,183.86L583.08,186.13L586.47,179.32L589.86,186.13L593.25,186.13L596.64,183.86L600.03,175.91L603.42,172.51L606.81,175.91L610.2,182.72L613.59,194.07L616.97,196.34L620.36,200.88L623.76,207.69L627.15,202.02L630.54,200.88L633.93,196.34L637.33,194.07L640.72,194.07L644.11,188.4L647.5,189.53L650.9,190.67L654.28,194.07L657.67,192.94L661.07,189.53L664.46,179.32L667.85,188.4L671.24,175.91L674.63,171.37L678.02,169.1L681.41,172.51L684.8,174.78L688.19,180.45L691.58,177.05" style="vector-effect: none; fill: none; stroke: rgb(148, 103, 189); stroke-opacity: 1; stroke-width: 2.5px; opacity: 1;"/></g><g class="points"/><g class="text"/></g><g class="trace scatter tracebacca1" style="stroke-miterlimit: 2;"><g class="fills"><g><path class="js-fill" d="M3.4,572L61.04,572L64.43,575.26L81.38,575.64L84.77,576.83L88.16,580.87L91.55,580.87L98.32,577.46L101.71,580.25L105.1,578.07L108.49,574.6L111.88,569.91L115.27,568.34L118.66,568.34L122.05,565.2L125.44,561.73L128.83,554.6L135.61,546.41L139,548.27L142.39,539.12L145.77,533.82L149.17,523.32L152.56,520.27L159.33,510.18L162.72,498.99L166.11,480.57L169.5,450.69L176.28,420.75L179.67,399.3L183.07,399.3L186.46,387.05L193.24,382.25L196.63,384.46L200.02,383.82L203.41,380.96L206.8,380.96L210.19,382.59L213.58,379.12L216.96,373.29L223.74,376.82L227.13,379.97L230.52,378.31L233.91,375.68L237.3,375.36L240.69,370.98L244.08,371.67L247.47,364.4L250.86,358.66L254.25,348.03L261.03,338.65L264.42,342.78L267.81,343.9L271.2,335.39L277.98,330.24L281.37,341.99L284.76,327.17L288.15,330.31L291.54,341.92L294.93,340.3L298.32,341.16L301.71,344.65L305.1,337.44L308.49,336.12L311.88,336.8L315.27,329.25L318.66,330.95L322.05,330.06L328.84,307.83L332.23,288.82L335.62,287.12L339.01,287.81L342.39,264.21L345.78,262.56L349.17,262.91L352.56,250.03L355.95,248.55L359.34,250.9L362.73,251.48L366.12,253.09L369.51,238.35L372.9,239.29L379.68,237.32L383.07,246.05L386.46,241.04L389.85,242.78L393.24,242.78L396.62,250.76L400.02,263.99L403.4,268.06L406.79,270.8L410.18,268.94L420.35,270.79L423.74,269.85L427.13,271.43L430.52,270.79L433.91,261.47L437.3,263.59L440.69,259.93L444.08,258.38L447.47,253.23L450.86,244.32L454.25,238.74L457.64,236.32L461.03,236.32L464.42,233L467.81,249.23L471.2,246.92L474.59,245.63L477.98,242.74L481.37,243.38L484.76,246.1L488.15,243.83L491.54,244.82L498.33,239.06L501.72,232.94L505.11,230.79L508.5,233.33L511.89,230.58L515.28,230.57L518.68,210.64L522.06,210.64L525.46,212.51L528.85,217.84L532.24,219.32L535.63,224.56L539.02,224.06L542.41,230.82L545.8,234.74L549.19,243.14L552.58,244.6L555.97,244.42L559.36,236.91L562.75,236.76L566.14,236.91L569.53,239.86L572.92,239.31L576.31,244.13L579.69,242.55L583.08,246.03L586.47,237.39L589.86,239.45L593.25,239.45L596.64,236.6L600.03,221.17L603.42,216.56L606.81,218.33L610.2,219.04L613.59,233.32L616.97,233.56L620.36,244.14L623.76,249.79L627.15,246.35L630.54,245.55L633.93,241.14L637.33,242.31L640.72,242.31L644.11,236.92L650.9,238.73L654.28,241.88L657.67,241.29L661.07,239.32L664.46,224.11L667.85,245.54L671.24,231.44L674.63,223.2L678.02,222.81L681.41,228.55L688.19,234.29L691.58,231.34L691.58,122.75L688.19,126.62L684.8,118.44L681.41,116.46L678.02,115.4L674.63,119.55L671.24,120.39L667.85,131.25L664.46,134.52L661.07,139.75L657.67,144.59L654.28,146.27L650.9,142.6L647.5,141.01L644.11,139.88L640.72,145.83L637.33,145.83L630.54,156.21L627.15,157.69L623.76,165.6L620.36,157.62L616.97,159.12L613.59,154.83L610.2,146.4L606.81,133.49L603.42,128.46L600.03,130.66L596.64,131.11L593.25,132.81L589.86,132.81L586.47,121.24L583.08,126.23L579.69,125.17L576.31,125.86L572.92,123.87L569.53,125.58L566.14,123.99L562.75,119.61L559.36,123.99L555.97,136.91L552.58,141.27L549.19,140.46L545.8,142.06L539.02,125.49L535.63,136.34L532.24,137.05L528.85,136.25L525.46,130.24L522.06,127.57L518.68,127.57L515.28,123.52L511.89,128.06L508.5,132.11L505.11,132.39L501.72,134.77L498.33,135.47L494.95,135.39L491.54,143.33L488.15,148.85L484.76,151.12L481.37,142.49L477.98,140.87L474.59,149.33L471.2,154.84L467.81,159.34L464.42,159.68L461.03,149.55L454.25,149.4L450.86,150.63L447.47,148.53L444.08,147.92L440.69,148.64L437.3,156.33L433.91,149.38L430.52,160.48L427.13,164.38L423.74,159.15L420.35,160.48L416.96,159.15L413.57,154.73L410.18,173.68L406.79,176.35L403.4,174.55L396.62,164.62L393.24,165.79L386.46,165.27L383.07,173.87L376.29,176.97L372.9,182.9L369.51,181.57L366.12,180.45L362.73,188.87L359.34,178.1L355.95,175.91L352.56,176.7L345.78,182.33L342.39,182.95L339.01,177.51L335.62,171.39L332.23,171.96L328.84,171.11L325.45,175.34L322.05,180.65L318.66,184.3L315.27,183.73L311.88,192.08L308.49,206.37L301.71,220.54L298.32,212.68L294.93,220.36L291.54,223.27L288.15,221.26L284.76,235.75L281.37,236.82L277.98,232.68L274.59,232.34L271.2,232.07L267.81,239.45L264.42,236.03L261.03,231.08L257.64,236.03L254.25,239.85L250.86,238.31L247.47,221.22L244.08,229.84L240.69,228.26L237.3,232.95L233.91,234.91L230.52,234.55L227.13,239.7L223.74,238.3L220.35,237.79L216.96,237.3L210.19,252.96L206.8,250.06L200.02,249.47L196.63,287.41L193.24,285.09L189.85,294.45L186.46,296.17L183.07,306.62L179.67,306.62L176.28,310.14L172.89,316.03L169.5,321.06L166.11,322.96L162.72,329.5L159.33,341.01L155.94,363.3L152.56,378.59L149.17,382.35L145.77,387.73L142.39,411.94L135.61,452.32L132.22,461.66L128.83,480.45L125.44,484.66L122.05,492.55L118.66,498.48L111.88,499.19L108.49,503.57L101.71,520.62L98.32,537.03L91.55,542.7L88.16,542.7L84.77,555.82L81.38,561.55L77.99,561.55L74.6,561.55L71.21,563.74L67.83,566.47L64.43,566.47L61.04,572L3.4,572Z" style="fill: rgb(148, 103, 189); fill-opacity: 0.1; stroke-width: 0;"/></g></g><g class="errorbars"/><g class="lines"><path class="js-line" d="M3.4,572L61.04,572L64.43,566.47L67.83,566.47L71.21,563.74L74.6,561.55L77.99,561.55L81.38,561.55L84.77,555.82L88.16,542.7L91.55,542.7L98.32,537.03L101.71,520.62L108.49,503.57L111.88,499.19L118.66,498.48L122.05,492.55L125.44,484.66L128.83,480.45L132.22,461.66L135.61,452.32L142.39,411.94L145.77,387.73L149.17,382.35L152.56,378.59L155.94,363.3L159.33,341.01L162.72,329.5L166.11,322.96L169.5,321.06L172.89,316.03L176.28,310.14L179.67,306.62L183.07,306.62L186.46,296.17L189.85,294.45L193.24,285.09L196.63,287.41L200.02,249.47L206.8,250.06L210.19,252.96L216.96,237.3L220.35,237.79L223.74,238.3L227.13,239.7L230.52,234.55L233.91,234.91L237.3,232.95L240.69,228.26L244.08,229.84L247.47,221.22L250.86,238.31L254.25,239.85L257.64,236.03L261.03,231.08L264.42,236.03L267.81,239.45L271.2,232.07L274.59,232.34L277.98,232.68L281.37,236.82L284.76,235.75L288.15,221.26L291.54,223.27L294.93,220.36L298.32,212.68L301.71,220.54L308.49,206.37L311.88,192.08L315.27,183.73L318.66,184.3L322.05,180.65L325.45,175.34L328.84,171.11L332.23,171.96L335.62,171.39L339.01,177.51L342.39,182.95L345.78,182.33L352.56,176.7L355.95,175.91L359.34,178.1L362.73,188.87L366.12,180.45L369.51,181.57L372.9,182.9L376.29,176.97L383.07,173.87L386.46,165.27L393.24,165.79L396.62,164.62L403.4,174.55L406.79,176.35L410.18,173.68L413.57,154.73L416.96,159.15L420.35,160.48L423.74,159.15L427.13,164.38L430.52,160.48L433.91,149.38L437.3,156.33L440.69,148.64L444.08,147.92L447.47,148.53L450.86,150.63L454.25,149.4L461.03,149.55L464.42,159.68L467.81,159.34L471.2,154.84L474.59,149.33L477.98,140.87L481.37,142.49L484.76,151.12L488.15,148.85L491.54,143.33L494.95,135.39L498.33,135.47L501.72,134.77L505.11,132.39L508.5,132.11L511.89,128.06L515.28,123.52L518.68,127.57L522.06,127.57L525.46,130.24L528.85,136.25L532.24,137.05L535.63,136.34L539.02,125.49L545.8,142.06L549.19,140.46L552.58,141.27L555.97,136.91L559.36,123.99L562.75,119.61L566.14,123.99L569.53,125.58L572.92,123.87L576.31,125.86L579.69,125.17L583.08,126.23L586.47,121.24L589.86,132.81L593.25,132.81L596.64,131.11L600.03,130.66L603.42,128.46L606.81,133.49L610.2,146.4L613.59,154.83L616.97,159.12L620.36,157.62L623.76,165.6L627.15,157.69L630.54,156.21L637.33,145.83L640.72,145.83L644.11,139.88L647.5,141.01L650.9,142.6L654.28,146.27L657.67,144.59L661.07,139.75L664.46,134.52L667.85,131.25L671.24,120.39L674.63,119.55L678.02,115.4L681.41,116.46L684.8,118.44L688.19,126.62L691.58,122.75" style="vector-effect: none; fill: none; stroke: rgb(171, 99, 250); stroke-opacity: 1; stroke-width: 0px; opacity: 1;"/></g><g class="points"/><g class="text"/></g><g class="trace scatter trace959503" style="stroke-miterlimit: 2;"><g class="fills"/><g class="errorbars"/><g class="lines"><path class="js-line" d="M3.4,572L61.04,572L64.43,575.26L81.38,575.64L84.77,576.83L88.16,580.87L91.55,580.87L98.32,577.46L101.71,580.25L105.1,578.07L108.49,574.6L111.88,569.91L115.27,568.34L118.66,568.34L122.05,565.2L125.44,561.73L128.83,554.6L135.61,546.41L139,548.27L142.39,539.12L145.77,533.82L149.17,523.32L152.56,520.27L159.33,510.18L162.72,498.99L166.11,480.57L169.5,450.69L176.28,420.75L179.67,399.3L183.07,399.3L186.46,387.05L193.24,382.25L196.63,384.46L200.02,383.82L203.41,380.96L206.8,380.96L210.19,382.59L213.58,379.12L216.96,373.29L223.74,376.82L227.13,379.97L230.52,378.31L233.91,375.68L237.3,375.36L240.69,370.98L244.08,371.67L247.47,364.4L250.86,358.66L254.25,348.03L261.03,338.65L264.42,342.78L267.81,343.9L271.2,335.39L277.98,330.24L281.37,341.99L284.76,327.17L288.15,330.31L291.54,341.92L294.93,340.3L298.32,341.16L301.71,344.65L305.1,337.44L308.49,336.12L311.88,336.8L315.27,329.25L318.66,330.95L322.05,330.06L328.84,307.83L332.23,288.82L335.62,287.12L339.01,287.81L342.39,264.21L345.78,262.56L349.17,262.91L352.56,250.03L355.95,248.55L359.34,250.9L362.73,251.48L366.12,253.09L369.51,238.35L372.9,239.29L379.68,237.32L383.07,246.05L386.46,241.04L389.85,242.78L393.24,242.78L396.62,250.76L400.02,263.99L403.4,268.06L406.79,270.8L410.18,268.94L420.35,270.79L423.74,269.85L427.13,271.43L430.52,270.79L433.91,261.47L437.3,263.59L440.69,259.93L444.08,258.38L447.47,253.23L450.86,244.32L454.25,238.74L457.64,236.32L461.03,236.32L464.42,233L467.81,249.23L471.2,246.92L474.59,245.63L477.98,242.74L481.37,243.38L484.76,246.1L488.15,243.83L491.54,244.82L498.33,239.06L501.72,232.94L505.11,230.79L508.5,233.33L511.89,230.58L515.28,230.57L518.68,210.64L522.06,210.64L525.46,212.51L528.85,217.84L532.24,219.32L535.63,224.56L539.02,224.06L542.41,230.82L545.8,234.74L549.19,243.14L552.58,244.6L555.97,244.42L559.36,236.91L562.75,236.76L566.14,236.91L569.53,239.86L572.92,239.31L576.31,244.13L579.69,242.55L583.08,246.03L586.47,237.39L589.86,239.45L593.25,239.45L596.64,236.6L600.03,221.17L603.42,216.56L606.81,218.33L610.2,219.04L613.59,233.32L616.97,233.56L620.36,244.14L623.76,249.79L627.15,246.35L630.54,245.55L633.93,241.14L637.33,242.31L640.72,242.31L644.11,236.92L650.9,238.73L654.28,241.88L657.67,241.29L661.07,239.32L664.46,224.11L667.85,245.54L671.24,231.44L674.63,223.2L678.02,222.81L681.41,228.55L688.19,234.29L691.58,231.34" style="vector-effect: none; fill: none; stroke: rgb(255, 161, 90); stroke-opacity: 1; stroke-width: 0px; opacity: 1;"/></g><g class="points"/><g class="text"/></g><g class="trace scatter tracebf00da" style="stroke-miterlimit: 2; opacity: 1;"><g class="fills"/><g class="errorbars"/><g class="lines"><path class="js-line" d="M0.01,572L47.46,572L50.85,570.87L54.24,570.87L57.63,565.19L64.41,565.19L67.8,564.06L74.57,564.06L77.97,561.79L81.36,560.65L84.75,557.25L88.14,554.98L91.53,554.98L94.92,553.84L98.31,551.57L101.69,548.17L105.08,545.9L108.47,547.03L111.86,542.49L115.24,533.41L118.63,526.6L122.02,524.33L125.41,519.79L128.81,514.12L132.2,510.71L135.58,509.58L138.98,507.31L142.37,505.04L145.76,500.5L149.15,499.37L152.54,499.37L155.93,493.69L159.32,490.29L162.71,489.15L166.09,493.69L169.48,494.83L172.87,491.42L176.26,485.75L179.64,485.75L183.04,485.75L186.43,477.8L189.82,480.07L193.21,476.67L196.59,476.67L199.98,470.99L203.38,463.05L206.77,461.91L210.15,463.05L213.54,463.05L216.93,465.32L220.31,465.32L223.7,457.37L227.1,456.24L230.48,456.24L233.88,451.7L237.27,453.97L240.66,446.02L247.44,431.27L250.83,432.4L254.22,429L257.61,424.46L261,422.19L264.39,410.84L267.78,406.3L271.18,404.03L274.57,405.17L277.96,405.17L281.35,397.22L284.73,392.68L288.12,391.55L291.51,388.14L298.29,390.41L301.67,384.74L305.06,385.87L308.45,382.47L311.84,375.66L315.23,383.6L318.62,375.66L322,372.25L325.39,375.66L328.78,375.66L332.17,381.33L335.56,377.93L338.95,381.33L342.34,380.2L345.73,379.06L349.11,376.79L352.51,375.66L355.9,375.66L359.29,382.47L362.68,380.2L366.07,375.66L369.46,377.93L376.23,380.2L379.63,380.2L383.01,380.2L386.41,385.87L389.8,376.79L393.19,377.93L396.58,377.93L399.97,379.06L403.36,373.39L406.75,376.79L410.14,371.12L413.53,368.85L416.91,368.85L420.31,365.44L423.7,365.44L427.09,359.77L430.48,349.56L433.87,346.15L437.26,342.75L440.65,343.88L444.04,343.88L447.43,341.61L450.82,341.61L454.22,347.29L457.61,339.34L461,342.75L467.78,352.96L471.17,354.1L474.57,354.1L477.96,358.63L481.35,372.25L484.74,368.85L488.12,364.31L491.52,363.17L494.9,360.9L498.29,365.44L501.68,363.17L505.07,367.71L508.46,372.25L511.85,372.25L515.24,377.93L518.64,376.79L522.02,367.71L525.42,360.9L528.81,362.04L532.19,351.83L535.58,355.23L538.98,356.37L542.37,356.37L545.76,360.9L555.93,354.1L559.32,359.77L562.71,355.23L566.1,347.29L569.5,346.15L572.89,355.23L576.28,356.37L579.67,346.15L583.06,348.42L586.45,352.96L593.22,357.5L596.61,356.37L600,358.63L603.39,358.63L606.79,354.1L610.18,343.88L613.57,346.15L616.96,343.88L620.35,337.07L623.73,335.94L627.12,338.21L630.52,337.07L633.91,335.94L637.3,329.13L640.69,322.32L644.08,323.45L647.47,321.18L650.86,315.51L654.25,314.37L657.65,314.37L661.04,315.51L664.43,314.37L667.82,315.51L671.21,313.24L681.38,316.64L684.77,314.37L688.16,312.1L691.54,318.91" style="vector-effect: none; fill: none; stroke: rgb(140, 86, 75); stroke-opacity: 1; stroke-width: 2.5px; opacity: 1;"/></g><g class="points"/><g class="text"/></g><g class="trace scatter trace57508f" style="stroke-miterlimit: 2;"><g class="fills"><g><path class="js-fill" d="M3.39,572L47.46,572L50.85,575.26L54.24,575.26L57.63,587.29L64.41,587.29L67.8,586.22L74.57,586.22L77.97,584.81L84.75,582.06L88.14,579.9L91.53,579.9L94.92,578.31L98.31,575.82L101.69,575.31L105.08,572.32L108.47,570.99L111.86,567.8L115.24,569.51L118.63,567.64L122.02,563.58L125.41,557.02L128.81,554.71L132.2,549.75L135.58,548.54L138.98,545.48L142.37,539.97L145.76,532.8L149.15,530.53L152.54,530.53L155.93,525.08L162.71,521.88L166.09,523.04L169.48,522.77L172.87,516.73L183.04,516.92L186.43,517.92L189.82,522.66L193.21,516.23L196.59,516.23L199.98,509.85L203.38,506.59L206.77,505.96L210.15,507.07L213.54,507.07L216.93,512.37L220.31,512.37L223.7,510.22L227.1,510.15L230.48,510.15L233.88,504.16L237.27,504L240.66,490.97L244.05,485.74L247.44,478.76L254.22,481.98L257.61,479.69L261,476.1L264.39,467.98L267.78,454.65L271.18,449.92L277.96,450.3L281.35,443.83L284.73,438.57L288.12,436.95L291.51,433.28L294.9,434.07L298.29,435.3L301.67,426.44L308.45,426.52L311.84,418.76L315.23,426.02L318.62,411.41L322,404.08L325.39,411.41L328.78,411.41L332.17,416.69L335.56,416.96L338.95,424.59L345.73,423.02L349.11,420.37L355.9,419.71L359.29,424.6L362.68,425.91L366.07,418.76L372.85,422.07L376.23,424.99L383.01,424.99L386.41,427.31L389.8,417.42L393.19,418.01L396.58,418.01L399.97,419.07L406.75,426.16L410.14,420.21L413.53,422.09L416.91,422.09L420.31,419.23L423.7,419.23L427.09,407.86L430.48,403.95L437.26,391.69L440.65,392.37L444.04,392.37L447.43,389.7L450.82,389.7L454.22,390.54L457.61,382.82L461,387.73L464.39,388.02L467.78,398.4L471.17,399.23L474.57,399.23L481.35,417.51L484.74,416.34L491.52,416.42L494.9,414.66L498.29,419.61L501.68,417.19L505.07,423.44L508.46,423.11L511.85,423.11L515.24,430.91L518.64,428.62L522.02,434.27L525.42,428.94L528.81,431.54L532.19,418.22L535.58,421L542.37,420.92L545.76,426.14L549.14,422.94L552.54,421.56L555.93,417.53L559.32,426.6L562.71,422.55L566.1,411.37L572.89,406.49L576.28,406.48L579.67,390.48L583.06,391.04L586.45,401.05L589.83,401.39L593.22,402.45L596.61,400.32L600,404.07L603.39,404.07L606.79,400.14L610.18,387.43L613.57,389.06L616.96,389.29L620.35,380.81L623.73,379.51L627.12,381.59L630.52,381.74L633.91,380.92L637.3,364.64L640.69,365.8L644.08,367.94L647.47,363.11L650.86,351.02L654.25,350.12L657.65,350.12L661.04,350.44L664.43,348.34L671.21,348.6L674.61,350.7L677.99,353.28L681.38,353.61L684.77,352.37L688.16,349.88L691.54,349.68L691.54,288.14L688.16,274.33L684.77,276.38L681.38,279.68L677.99,277.73L674.61,278.05L671.21,277.88L667.82,282.41L664.43,280.41L661.04,280.58L657.65,278.62L654.25,278.62L650.86,279.99L644.08,278.97L640.69,278.84L637.3,293.61L633.91,290.96L630.52,292.4L627.12,294.82L623.73,292.36L620.35,293.34L616.96,298.47L613.57,303.24L610.18,300.34L606.79,308.05L603.39,313.2L600,313.2L596.61,312.41L593.22,312.55L589.83,309.07L586.45,304.87L583.06,305.8L579.67,301.82L576.28,306.25L572.89,303.97L569.5,283.28L566.1,283.2L559.32,292.94L555.93,290.66L552.54,291.17L549.14,294.33L545.76,295.67L542.37,291.81L538.98,291.81L535.58,289.46L532.19,285.43L528.81,292.54L525.42,292.87L522.02,301.16L518.64,324.97L515.24,324.95L511.85,321.4L508.46,321.4L505.07,311.99L501.68,309.16L498.29,311.28L494.9,307.15L488.12,311.96L484.74,321.36L481.35,327L477.96,308.85L471.17,308.96L467.78,307.52L464.39,308.83L461,297.77L457.61,295.86L454.22,304.03L450.82,293.52L447.43,293.52L444.04,295.39L440.65,295.39L437.26,293.8L433.87,294.89L430.48,295.16L427.09,311.68L423.7,311.66L420.31,311.66L416.91,315.61L413.53,315.61L406.75,327.43L403.36,324.11L399.97,339.05L396.58,337.85L393.19,337.85L389.8,336.17L386.41,344.44L383.01,335.4L376.23,335.4L372.85,336.06L369.46,335.34L366.07,332.56L362.68,334.49L359.29,340.34L355.9,331.61L352.51,331.61L338.95,338.07L335.56,338.9L332.17,345.97L328.78,339.91L322,340.43L318.62,339.91L315.23,341.18L311.84,332.56L308.45,338.42L305.06,345.45L301.67,343.04L298.29,345.53L294.9,344.48L291.51,343.01L288.12,346.14L284.73,346.79L281.35,350.62L277.96,360.03L274.57,360.03L271.18,358.14L267.78,357.95L264.39,353.7L261,368.28L257.61,369.23L250.83,384.6L247.44,383.78L244.05,390.42L240.66,401.08L237.27,403.93L233.88,399.24L230.48,402.33L227.1,402.33L223.7,404.52L220.31,418.27L213.54,419.03L210.15,419.03L206.77,417.86L203.38,419.5L199.98,432.14L196.59,437.11L186.43,437.69L183.04,454.58L176.26,454.58L172.87,466.12L169.48,466.88L166.09,464.35L162.71,456.43L159.32,457.35L155.93,462.3L152.54,468.2L149.15,468.2L145.76,468.2L142.37,470.11L138.98,469.13L132.2,471.68L128.81,473.53L125.41,482.57L122.02,485.09L118.63,485.57L115.24,497.32L111.86,517.19L108.47,523.07L105.08,519.47L101.69,521.02L98.31,527.32L94.92,529.37L91.53,530.06L88.14,530.06L84.75,532.44L81.36,537.75L77.97,538.77L74.57,541.89L67.8,541.89L64.41,543.09L57.63,543.09L54.24,566.47L50.85,566.47L47.46,572L3.39,572Z" style="fill: rgb(140, 86, 75); fill-opacity: 0.1; stroke-width: 0;"/></g></g><g class="errorbars"/><g class="lines"><path class="js-line" d="M3.39,572L47.46,572L50.85,566.47L54.24,566.47L57.63,543.09L64.41,543.09L67.8,541.89L74.57,541.89L77.97,538.77L81.36,537.75L84.75,532.44L88.14,530.06L91.53,530.06L94.92,529.37L98.31,527.32L101.69,521.02L105.08,519.47L108.47,523.07L111.86,517.19L115.24,497.32L118.63,485.57L122.02,485.09L125.41,482.57L128.81,473.53L132.2,471.68L138.98,469.13L142.37,470.11L145.76,468.2L149.15,468.2L152.54,468.2L155.93,462.3L159.32,457.35L162.71,456.43L166.09,464.35L169.48,466.88L172.87,466.12L176.26,454.58L183.04,454.58L186.43,437.69L196.59,437.11L199.98,432.14L203.38,419.5L206.77,417.86L210.15,419.03L213.54,419.03L220.31,418.27L223.7,404.52L227.1,402.33L230.48,402.33L233.88,399.24L237.27,403.93L240.66,401.08L244.05,390.42L247.44,383.78L250.83,384.6L257.61,369.23L261,368.28L264.39,353.7L267.78,357.95L271.18,358.14L274.57,360.03L277.96,360.03L281.35,350.62L284.73,346.79L288.12,346.14L291.51,343.01L294.9,344.48L298.29,345.53L301.67,343.04L305.06,345.45L308.45,338.42L311.84,332.56L315.23,341.18L318.62,339.91L322,340.43L328.78,339.91L332.17,345.97L335.56,338.9L338.95,338.07L352.51,331.61L355.9,331.61L359.29,340.34L362.68,334.49L366.07,332.56L369.46,335.34L372.85,336.06L376.23,335.4L383.01,335.4L386.41,344.44L389.8,336.17L393.19,337.85L396.58,337.85L399.97,339.05L403.36,324.11L406.75,327.43L413.53,315.61L416.91,315.61L420.31,311.66L423.7,311.66L427.09,311.68L430.48,295.16L433.87,294.89L437.26,293.8L440.65,295.39L444.04,295.39L447.43,293.52L450.82,293.52L454.22,304.03L457.61,295.86L461,297.77L464.39,308.83L467.78,307.52L471.17,308.96L477.96,308.85L481.35,327L484.74,321.36L488.12,311.96L494.9,307.15L498.29,311.28L501.68,309.16L505.07,311.99L508.46,321.4L511.85,321.4L515.24,324.95L518.64,324.97L522.02,301.16L525.42,292.87L528.81,292.54L532.19,285.43L535.58,289.46L538.98,291.81L542.37,291.81L545.76,295.67L549.14,294.33L552.54,291.17L555.93,290.66L559.32,292.94L566.1,283.2L569.5,283.28L572.89,303.97L576.28,306.25L579.67,301.82L583.06,305.8L586.45,304.87L589.83,309.07L593.22,312.55L596.61,312.41L600,313.2L603.39,313.2L606.79,308.05L610.18,300.34L613.57,303.24L616.96,298.47L620.35,293.34L623.73,292.36L627.12,294.82L630.52,292.4L633.91,290.96L637.3,293.61L640.69,278.84L644.08,278.97L650.86,279.99L654.25,278.62L657.65,278.62L661.04,280.58L664.43,280.41L667.82,282.41L671.21,277.88L674.61,278.05L677.99,277.73L681.38,279.68L684.77,276.38L688.16,274.33L691.54,288.14" style="vector-effect: none; fill: none; stroke: rgb(255, 102, 146); stroke-opacity: 1; stroke-width: 0px; opacity: 1;"/></g><g class="points"/><g class="text"/></g><g class="trace scatter trace59ec7f" style="stroke-miterlimit: 2;"><g class="fills"/><g class="errorbars"/><g class="lines"><path class="js-line" d="M3.39,572L47.46,572L50.85,575.26L54.24,575.26L57.63,587.29L64.41,587.29L67.8,586.22L74.57,586.22L77.97,584.81L84.75,582.06L88.14,579.9L91.53,579.9L94.92,578.31L98.31,575.82L101.69,575.31L105.08,572.32L108.47,570.99L111.86,567.8L115.24,569.51L118.63,567.64L122.02,563.58L125.41,557.02L128.81,554.71L132.2,549.75L135.58,548.54L138.98,545.48L142.37,539.97L145.76,532.8L149.15,530.53L152.54,530.53L155.93,525.08L162.71,521.88L166.09,523.04L169.48,522.77L172.87,516.73L183.04,516.92L186.43,517.92L189.82,522.66L193.21,516.23L196.59,516.23L199.98,509.85L203.38,506.59L206.77,505.96L210.15,507.07L213.54,507.07L216.93,512.37L220.31,512.37L223.7,510.22L227.1,510.15L230.48,510.15L233.88,504.16L237.27,504L240.66,490.97L244.05,485.74L247.44,478.76L254.22,481.98L257.61,479.69L261,476.1L264.39,467.98L267.78,454.65L271.18,449.92L277.96,450.3L281.35,443.83L284.73,438.57L288.12,436.95L291.51,433.28L294.9,434.07L298.29,435.3L301.67,426.44L308.45,426.52L311.84,418.76L315.23,426.02L318.62,411.41L322,404.08L325.39,411.41L328.78,411.41L332.17,416.69L335.56,416.96L338.95,424.59L345.73,423.02L349.11,420.37L355.9,419.71L359.29,424.6L362.68,425.91L366.07,418.76L372.85,422.07L376.23,424.99L383.01,424.99L386.41,427.31L389.8,417.42L393.19,418.01L396.58,418.01L399.97,419.07L406.75,426.16L410.14,420.21L413.53,422.09L416.91,422.09L420.31,419.23L423.7,419.23L427.09,407.86L430.48,403.95L437.26,391.69L440.65,392.37L444.04,392.37L447.43,389.7L450.82,389.7L454.22,390.54L457.61,382.82L461,387.73L464.39,388.02L467.78,398.4L471.17,399.23L474.57,399.23L481.35,417.51L484.74,416.34L491.52,416.42L494.9,414.66L498.29,419.61L501.68,417.19L505.07,423.44L508.46,423.11L511.85,423.11L515.24,430.91L518.64,428.62L522.02,434.27L525.42,428.94L528.81,431.54L532.19,418.22L535.58,421L542.37,420.92L545.76,426.14L549.14,422.94L552.54,421.56L555.93,417.53L559.32,426.6L562.71,422.55L566.1,411.37L572.89,406.49L576.28,406.48L579.67,390.48L583.06,391.04L586.45,401.05L589.83,401.39L593.22,402.45L596.61,400.32L600,404.07L603.39,404.07L606.79,400.14L610.18,387.43L613.57,389.06L616.96,389.29L620.35,380.81L623.73,379.51L627.12,381.59L630.52,381.74L633.91,380.92L637.3,364.64L640.69,365.8L644.08,367.94L647.47,363.11L650.86,351.02L654.25,350.12L657.65,350.12L661.04,350.44L664.43,348.34L671.21,348.6L674.61,350.7L677.99,353.28L681.38,353.61L684.77,352.37L688.16,349.88L691.54,349.68" style="vector-effect: none; fill: none; stroke: rgb(182, 232, 128); stroke-opacity: 1; stroke-width: 0px; opacity: 1;"/></g><g class="points"/><g class="text"/></g><g class="trace scatter trace68c3ef" style="stroke-miterlimit: 2; opacity: 1;"><g class="fills"/><g class="errorbars"/><g class="lines"><path class="js-line" d="M0.01,572L54.27,572L57.66,570.87L64.44,568.6L67.83,568.6L78.01,568.6L81.4,565.19L84.79,565.19L88.18,564.06L91.57,564.06L94.96,561.79L98.35,558.38L101.74,558.38L108.52,553.84L111.91,554.98L115.3,553.84L118.69,551.57L128.86,544.76L132.25,544.76L135.64,539.09L139.03,536.82L142.41,533.41L145.81,535.68L149.2,532.28L152.59,530.01L155.97,520.93L159.36,518.66L166.14,501.63L169.53,495.96L172.92,495.96L176.31,490.29L179.7,480.07L183.1,473.26L189.88,463.05L193.27,453.97L200.05,434.67L203.44,426.73L206.82,423.33L210.22,416.52L213.61,416.52L216.99,415.38L220.39,408.57L223.78,404.03L227.17,401.76L230.55,401.76L233.95,405.17L237.33,394.95L240.73,392.68L244.12,392.68L247.51,384.74L250.89,387.01L254.28,382.47L257.68,372.25L261.07,369.98L264.46,362.04L274.62,333.67L278,332.53L281.39,329.13L284.78,316.64L288.17,317.78L291.56,308.7L294.95,308.7L298.34,307.56L301.73,300.75L305.12,298.48L308.51,305.29L311.9,305.29L315.29,303.02L318.68,296.21L322.07,301.89L325.46,305.29L328.85,293.94L332.24,298.48L335.63,299.62L339.02,296.21L349.19,292.81L352.59,293.94L355.98,291.67L359.37,296.21L362.76,296.21L366.14,295.08L369.54,303.02L372.93,306.43L376.32,298.48L379.71,308.7L383.09,299.62L386.48,296.21L389.87,301.89L393.26,297.35L396.65,289.4L400.04,287.13L403.43,287.13L406.82,288.27L410.21,279.19L413.6,265.57L416.99,265.57L420.38,259.9L423.77,251.95L427.16,248.55L433.94,232.66L437.32,238.33L440.71,233.79L444.1,232.66L447.49,234.93L450.88,232.66L454.27,226.98L457.66,223.58L461.05,224.71L464.44,230.39L467.83,232.66L471.22,232.66L474.61,233.79L478.01,238.33L481.39,236.06L484.78,245.14L488.17,233.79L491.56,232.66L494.95,236.06L498.34,226.98L501.73,229.25L505.12,229.25L515.28,212.23L518.68,204.29L522.07,203.15L525.46,199.75L535.63,184.99L539.02,182.72L542.41,174.78L545.8,174.78L549.19,173.64L552.58,166.83L555.97,165.7L559.36,163.43L566.13,158.89L569.52,161.16L572.91,163.43L576.3,166.83L579.7,165.7L583.09,165.7L586.47,167.97L589.86,166.83L593.25,173.64L596.64,174.78L600.03,180.45L603.42,183.86L606.81,186.13L610.2,183.86L613.58,184.99L616.98,191.8L620.36,188.4L623.75,186.13L627.15,181.59L630.54,181.59L633.93,180.45L637.32,180.45L640.71,183.86L644.1,179.32L647.49,175.91L650.88,173.64L654.28,170.24L657.68,163.43L661.06,165.7L664.45,165.7L667.85,158.89L671.24,158.89L674.63,158.89L678.02,155.48L681.41,158.89L684.8,160.02L688.19,155.48L691.58,155.48" style="vector-effect: none; fill: none; stroke: rgb(227, 119, 194); stroke-opacity: 1; stroke-width: 2.5px; opacity: 1;"/></g><g class="points"/><g class="text"/></g><g class="trace scatter tracefc1115" style="stroke-miterlimit: 2;"><g class="fills"><g><path class="js-fill" d="M3.42,572L54.27,572L57.66,575.26L64.44,575.64L67.83,575.64L78.01,575.64L81.4,579.29L84.79,579.29L88.18,578.25L91.57,578.25L94.96,577.28L101.74,576.81L105.13,574.83L108.52,574.66L111.91,576.32L115.3,575.63L118.69,573.11L128.86,563.85L132.25,563.85L139.03,559.54L142.41,554.23L145.81,558.76L149.2,560.81L152.59,556.43L155.97,563.12L159.36,561.76L162.75,554.93L166.14,551.83L169.53,546.57L172.92,546.57L176.31,540.62L183.1,529.43L186.49,526.44L193.27,511.33L196.66,491.41L200.05,489.45L203.44,473.51L206.82,473.77L210.22,464.61L213.61,464.61L216.99,463.62L220.39,458.33L223.78,443.1L227.17,438.72L230.55,438.72L233.95,445.96L237.33,449.09L240.73,445.69L244.12,445.69L247.51,442.29L250.89,443.05L254.28,438.51L257.68,445.75L261.07,443.59L264.46,434.46L267.84,428.51L271.23,427.48L274.62,409.8L278,407.42L281.39,402.62L284.78,379.69L288.17,379.98L291.56,367.62L294.95,367.62L298.34,366.84L301.73,358.47L305.12,354.75L311.9,354.16L315.29,352.11L318.68,356.64L322.07,357.93L325.46,363.8L328.85,348.79L332.24,359.35L335.63,360.32L342.42,358.93L345.8,356.22L349.19,355.46L352.59,356.22L355.98,353.68L359.37,361.26L366.14,360.53L369.54,357.7L372.93,362.45L376.32,353.64L379.71,364.74L383.09,350.28L386.48,348.57L389.87,351.26L393.26,354.49L396.65,344.3L403.43,343.77L406.82,344.98L410.21,333.1L413.6,325.59L416.99,325.59L420.38,322.17L423.77,309.21L427.16,307.52L430.55,286.49L433.94,283.92L437.32,295.81L440.71,287.19L444.1,287.43L447.49,291.1L450.88,289.66L454.27,282.88L457.66,276.19L461.05,277.7L464.44,278.74L467.83,283.51L471.22,283.51L474.61,284.81L478.01,288.92L481.39,286.1L484.78,289.81L488.17,275.92L494.95,273.84L498.34,268.91L501.73,270.39L505.12,270.39L508.51,267.63L511.9,263.83L515.28,262.43L518.68,248.77L522.07,248.04L525.46,242.85L528.85,234.27L532.24,229.17L535.63,214.1L539.02,214.81L542.41,208.62L545.8,208.62L549.19,208.77L552.58,199.77L555.97,197.78L559.36,196.86L562.74,194.51L566.13,195.55L572.91,204.63L576.3,212.87L579.7,211.14L583.09,211.14L586.47,215.89L589.86,215.92L593.25,221.71L596.64,224.06L600.03,229.03L603.42,230.35L606.81,233.26L610.2,234.6L616.98,235.28L620.36,231.97L623.75,229.13L627.15,220.97L637.32,220.64L640.71,219.8L644.1,215.41L647.49,209.01L650.88,205.03L654.28,203.55L657.68,197.48L661.06,195.79L664.45,195.79L667.85,192.61L674.63,192.61L678.02,189.45L681.41,197.74L684.8,198.74L688.19,188.84L691.58,188.84L691.58,122.13L688.19,122.13L684.8,121.31L681.41,120.03L678.02,121.52L674.63,125.17L667.85,125.17L664.45,135.61L661.06,135.61L657.68,129.38L654.28,136.93L650.88,142.25L644.1,143.22L640.71,147.92L637.32,140.27L633.93,140.27L630.54,142.2L627.15,142.2L620.36,144.82L616.98,148.32L613.58,134.96L610.2,133.11L606.81,138.99L603.42,137.37L600.03,131.87L596.64,125.49L593.25,125.58L589.86,117.75L586.47,120.05L583.09,120.26L576.3,120.79L572.91,122.23L566.13,122.23L562.74,127.81L559.36,129.99L555.97,133.61L552.58,133.9L549.19,138.52L545.8,140.93L542.41,140.93L539.02,150.64L535.63,155.88L532.24,152.17L528.85,156.14L525.46,156.65L522.07,158.26L515.28,162.03L511.9,174.24L508.51,179.53L505.12,188.12L501.73,188.12L498.34,185.05L494.95,198.29L491.56,190.73L488.17,191.67L484.78,200.47L481.39,186.03L478.01,187.75L474.61,182.78L471.22,181.8L464.44,182.04L461.05,171.73L457.66,170.96L454.27,171.09L450.88,175.66L447.49,178.76L444.1,177.88L440.71,180.4L437.32,180.85L433.94,181.4L430.55,194.71L427.16,189.58L423.77,194.69L420.38,197.62L416.99,205.56L413.6,205.56L410.21,225.28L406.82,231.56L403.43,230.5L400.04,230.5L396.65,234.5L393.26,240.21L389.87,252.52L386.48,243.86L383.09,248.95L379.71,252.65L376.32,243.33L372.93,250.41L369.54,248.35L366.14,229.63L362.76,231.17L359.37,231.17L355.98,229.67L352.59,231.67L349.19,230.16L345.8,231.67L342.42,231.23L339.02,233.1L335.63,238.92L332.24,237.62L328.85,239.09L325.46,246.79L322.07,245.84L318.68,235.79L315.29,253.94L311.9,256.43L308.51,256.43L305.12,242.22L301.73,243.04L298.34,248.29L294.95,249.77L291.56,249.77L288.17,255.57L284.78,253.6L278,257.64L274.62,257.53L271.23,260.28L267.84,277.41L264.46,289.62L261.07,296.38L257.68,298.76L254.28,326.42L250.89,330.96L247.51,327.19L244.12,339.68L240.73,339.68L237.33,340.81L233.95,364.37L223.78,364.96L220.39,358.81L216.99,367.14L213.61,368.42L210.22,368.42L206.82,372.88L203.44,379.95L200.05,379.9L196.66,396.09L193.27,396.61L189.88,406.66L186.49,411L183.1,417.09L179.7,424.8L176.31,439.95L172.92,445.35L169.53,445.35L166.14,451.44L159.36,475.56L155.97,478.74L152.59,503.58L149.2,503.74L145.81,512.6L142.41,512.6L135.64,516.37L132.25,525.67L128.86,525.67L125.47,526.82L115.3,532.05L111.91,533.64L108.52,533.02L105.13,537.39L101.74,539.96L98.35,539.96L94.96,546.29L91.57,549.86L88.18,549.86L84.79,551.09L81.4,551.09L78.01,561.55L67.83,561.55L64.44,561.55L57.66,566.47L54.27,572L3.42,572Z" style="fill: rgb(227, 119, 194); fill-opacity: 0.1; stroke-width: 0;"/></g></g><g class="errorbars"/><g class="lines"><path class="js-line" d="M3.42,572L54.27,572L57.66,566.47L64.44,561.55L67.83,561.55L78.01,561.55L81.4,551.09L84.79,551.09L88.18,549.86L91.57,549.86L94.96,546.29L98.35,539.96L101.74,539.96L105.13,537.39L108.52,533.02L111.91,533.64L115.3,532.05L125.47,526.82L128.86,525.67L132.25,525.67L135.64,516.37L142.41,512.6L145.81,512.6L149.2,503.74L152.59,503.58L155.97,478.74L159.36,475.56L166.14,451.44L169.53,445.35L172.92,445.35L176.31,439.95L179.7,424.8L183.1,417.09L186.49,411L189.88,406.66L193.27,396.61L196.66,396.09L200.05,379.9L203.44,379.95L206.82,372.88L210.22,368.42L213.61,368.42L216.99,367.14L220.39,358.81L223.78,364.96L233.95,364.37L237.33,340.81L240.73,339.68L244.12,339.68L247.51,327.19L250.89,330.96L254.28,326.42L257.68,298.76L261.07,296.38L264.46,289.62L267.84,277.41L271.23,260.28L274.62,257.53L278,257.64L284.78,253.6L288.17,255.57L291.56,249.77L294.95,249.77L298.34,248.29L301.73,243.04L305.12,242.22L308.51,256.43L311.9,256.43L315.29,253.94L318.68,235.79L322.07,245.84L325.46,246.79L328.85,239.09L332.24,237.62L335.63,238.92L339.02,233.1L342.42,231.23L345.8,231.67L349.19,230.16L352.59,231.67L355.98,229.67L359.37,231.17L362.76,231.17L366.14,229.63L369.54,248.35L372.93,250.41L376.32,243.33L379.71,252.65L383.09,248.95L386.48,243.86L389.87,252.52L393.26,240.21L396.65,234.5L400.04,230.5L403.43,230.5L406.82,231.56L410.21,225.28L413.6,205.56L416.99,205.56L420.38,197.62L423.77,194.69L427.16,189.58L430.55,194.71L433.94,181.4L437.32,180.85L440.71,180.4L444.1,177.88L447.49,178.76L450.88,175.66L454.27,171.09L457.66,170.96L461.05,171.73L464.44,182.04L471.22,181.8L474.61,182.78L478.01,187.75L481.39,186.03L484.78,200.47L488.17,191.67L491.56,190.73L494.95,198.29L498.34,185.05L501.73,188.12L505.12,188.12L508.51,179.53L511.9,174.24L515.28,162.03L522.07,158.26L525.46,156.65L528.85,156.14L532.24,152.17L535.63,155.88L539.02,150.64L542.41,140.93L545.8,140.93L549.19,138.52L552.58,133.9L555.97,133.61L559.36,129.99L562.74,127.81L566.13,122.23L572.91,122.23L576.3,120.79L583.09,120.26L586.47,120.05L589.86,117.75L593.25,125.58L596.64,125.49L600.03,131.87L603.42,137.37L606.81,138.99L610.2,133.11L613.58,134.96L616.98,148.32L620.36,144.82L627.15,142.2L630.54,142.2L633.93,140.27L637.32,140.27L640.71,147.92L644.1,143.22L650.88,142.25L654.28,136.93L657.68,129.38L661.06,135.61L664.45,135.61L667.85,125.17L674.63,125.17L678.02,121.52L681.41,120.03L684.8,121.31L688.19,122.13L691.58,122.13" style="vector-effect: none; fill: none; stroke: rgb(254, 203, 82); stroke-opacity: 1; stroke-width: 0px; opacity: 1;"/></g><g class="points"/><g class="text"/></g><g class="trace scatter traceb5d8c8" style="stroke-miterlimit: 2;"><g class="fills"/><g class="errorbars"/><g class="lines"><path class="js-line" d="M3.42,572L54.27,572L57.66,575.26L64.44,575.64L67.83,575.64L78.01,575.64L81.4,579.29L84.79,579.29L88.18,578.25L91.57,578.25L94.96,577.28L101.74,576.81L105.13,574.83L108.52,574.66L111.91,576.32L115.3,575.63L118.69,573.11L128.86,563.85L132.25,563.85L139.03,559.54L142.41,554.23L145.81,558.76L149.2,560.81L152.59,556.43L155.97,563.12L159.36,561.76L162.75,554.93L166.14,551.83L169.53,546.57L172.92,546.57L176.31,540.62L183.1,529.43L186.49,526.44L193.27,511.33L196.66,491.41L200.05,489.45L203.44,473.51L206.82,473.77L210.22,464.61L213.61,464.61L216.99,463.62L220.39,458.33L223.78,443.1L227.17,438.72L230.55,438.72L233.95,445.96L237.33,449.09L240.73,445.69L244.12,445.69L247.51,442.29L250.89,443.05L254.28,438.51L257.68,445.75L261.07,443.59L264.46,434.46L267.84,428.51L271.23,427.48L274.62,409.8L278,407.42L281.39,402.62L284.78,379.69L288.17,379.98L291.56,367.62L294.95,367.62L298.34,366.84L301.73,358.47L305.12,354.75L311.9,354.16L315.29,352.11L318.68,356.64L322.07,357.93L325.46,363.8L328.85,348.79L332.24,359.35L335.63,360.32L342.42,358.93L345.8,356.22L349.19,355.46L352.59,356.22L355.98,353.68L359.37,361.26L366.14,360.53L369.54,357.7L372.93,362.45L376.32,353.64L379.71,364.74L383.09,350.28L386.48,348.57L389.87,351.26L393.26,354.49L396.65,344.3L403.43,343.77L406.82,344.98L410.21,333.1L413.6,325.59L416.99,325.59L420.38,322.17L423.77,309.21L427.16,307.52L430.55,286.49L433.94,283.92L437.32,295.81L440.71,287.19L444.1,287.43L447.49,291.1L450.88,289.66L454.27,282.88L457.66,276.19L461.05,277.7L464.44,278.74L467.83,283.51L471.22,283.51L474.61,284.81L478.01,288.92L481.39,286.1L484.78,289.81L488.17,275.92L494.95,273.84L498.34,268.91L501.73,270.39L505.12,270.39L508.51,267.63L511.9,263.83L515.28,262.43L518.68,248.77L522.07,248.04L525.46,242.85L528.85,234.27L532.24,229.17L535.63,214.1L539.02,214.81L542.41,208.62L545.8,208.62L549.19,208.77L552.58,199.77L555.97,197.78L559.36,196.86L562.74,194.51L566.13,195.55L572.91,204.63L576.3,212.87L579.7,211.14L583.09,211.14L586.47,215.89L589.86,215.92L593.25,221.71L596.64,224.06L600.03,229.03L603.42,230.35L606.81,233.26L610.2,234.6L616.98,235.28L620.36,231.97L623.75,229.13L627.15,220.97L637.32,220.64L640.71,219.8L644.1,215.41L647.49,209.01L650.88,205.03L654.28,203.55L657.68,197.48L661.06,195.79L664.45,195.79L667.85,192.61L674.63,192.61L678.02,189.45L681.41,197.74L684.8,198.74L688.19,188.84L691.58,188.84" style="vector-effect: none; fill: none; stroke: rgb(99, 110, 250); stroke-opacity: 1; stroke-width: 0px; opacity: 1;"/></g><g class="points"/><g class="text"/></g></g></g><g class="overplot"/><path class="xlines-above crisp" d="M0,0" style="fill: none;"/><path class="ylines-above crisp" d="M0,0" style="fill: none;"/><g class="overlines-above"/><g class="xaxislayer-above"><g class="xtick"><text text-anchor="middle" x="0" y="603" transform="translate(89,0)" style="font-family: 'Open Sans', verdana, arial, sans-serif; font-size: 30px; fill: rgb(42, 63, 95); fill-opacity: 1; white-space: pre; opacity: 1;">0</text></g><g class="xtick"><text text-anchor="middle" x="0" y="603" style="font-family: 'Open Sans', verdana, arial, sans-serif; font-size: 30px; fill: rgb(42, 63, 95); fill-opacity: 1; white-space: pre; opacity: 1;" transform="translate(427.57,0)">1M</text></g><g class="xtick"><text text-anchor="middle" x="0" y="603" style="font-family: 'Open Sans', verdana, arial, sans-serif; font-size: 30px; fill: rgb(42, 63, 95); fill-opacity: 1; white-space: pre; opacity: 1;" transform="translate(766.14,0)">2M</text></g></g><g class="yaxislayer-above"><g class="ytick"><text text-anchor="end" x="88" y="10.5" transform="translate(0,463.05)" style="font-family: 'Open Sans', verdana, arial, sans-serif; font-size: 30px; fill: rgb(42, 63, 95); fill-opacity: 1; white-space: pre; opacity: 1;">0.2</text></g><g class="ytick"><text text-anchor="end" x="88" y="10.5" style="font-family: 'Open Sans', verdana, arial, sans-serif; font-size: 30px; fill: rgb(42, 63, 95); fill-opacity: 1; white-space: pre; opacity: 1;" transform="translate(0,354.1)">0.4</text></g><g class="ytick"><text text-anchor="end" x="88" y="10.5" style="font-family: 'Open Sans', verdana, arial, sans-serif; font-size: 30px; fill: rgb(42, 63, 95); fill-opacity: 1; white-space: pre; opacity: 1;" transform="translate(0,245.14)">0.6</text></g><g class="ytick"><text text-anchor="end" x="88" y="10.5" style="font-family: 'Open Sans', verdana, arial, sans-serif; font-size: 30px; fill: rgb(42, 63, 95); fill-opacity: 1; white-space: pre; opacity: 1;" transform="translate(0,136.19)">0.8</text></g><g class="ytick"><text text-anchor="end" x="88" y="10.5" style="font-family: 'Open Sans', verdana, arial, sans-serif; font-size: 30px; fill: rgb(42, 63, 95); fill-opacity: 1; white-space: pre; opacity: 1;" transform="translate(0,27.24)">1</text></g></g><g class="overaxes-above"/></g></g><g class="polarlayer"/><g class="smithlayer"/><g class="ternarylayer"/><g class="geolayer"/><g class="funnelarealayer"/><g class="pielayer"/><g class="iciclelayer"/><g class="treemaplayer"/><g class="sunburstlayer"/><g class="glimages"/><defs id="topdefs-93c8e6"><g class="clips"/><clipPath id="legend93c8e6"><rect width="215" height="304" x="0" y="0"/></clipPath></defs><g class="layer-above"><g class="imagelayer"/><g class="shapelayer"/></g><g class="infolayer"><g class="legend" pointer-events="all" transform="translate(96.11,5.720000000000005)"><rect class="bg" shape-rendering="crispEdges" width="215" height="304" x="0" y="0" style="stroke: rgb(68, 68, 68); stroke-opacity: 1; fill: rgb(255, 255, 255); fill-opacity: 0.8; stroke-width: 0px;"/><g class="scrollbox" transform="" clip-path="url(#legend93c8e6)"><g class="groups"><g class="traces" transform="translate(0,26)" style="opacity: 1;"><text class="legendtext" text-anchor="start" x="40" y="11.7" style="font-family: 'Open Sans', verdana, arial, sans-serif; font-size: 30px; fill: rgb(42, 63, 95); fill-opacity: 1; white-space: pre;">TransfQmix</text><g class="layers" style="opacity: 1;"><g class="legendfill"/><g class="legendlines"><path class="js-line" d="M5,0h30" style="fill: none; stroke: rgb(31, 119, 180); stroke-opacity: 1; stroke-width: 2.5px;"/></g><g class="legendsymbols"><g class="legendpoints"/></g></g><rect class="legendtoggle" x="0" y="-21" width="209.765625" height="42" style="fill: rgb(0, 0, 0); fill-opacity: 0;"/></g><g class="traces" transform="translate(0,68)" style="opacity: 1;"><text class="legendtext" text-anchor="start" x="40" y="11.7" style="font-family: 'Open Sans', verdana, arial, sans-serif; font-size: 30px; fill: rgb(42, 63, 95); fill-opacity: 1; white-space: pre;">Qtran</text><g class="layers" style="opacity: 1;"><g class="legendfill"/><g class="legendlines"><path class="js-line" d="M5,0h30" style="fill: none; stroke: rgb(255, 127, 14); stroke-opacity: 1; stroke-width: 2.5px;"/></g><g class="legendsymbols"><g class="legendpoints"/></g></g><rect class="legendtoggle" x="0" y="-21" width="209.765625" height="42" style="fill: rgb(0, 0, 0); fill-opacity: 0;"/></g><g class="traces" transform="translate(0,110)" style="opacity: 1;"><text class="legendtext" text-anchor="start" x="40" y="11.7" style="font-family: 'Open Sans', verdana, arial, sans-serif; font-size: 30px; fill: rgb(42, 63, 95); fill-opacity: 1; white-space: pre;">Qplex</text><g class="layers" style="opacity: 1;"><g class="legendfill"/><g class="legendlines"><path class="js-line" d="M5,0h30" style="fill: none; stroke: rgb(44, 160, 44); stroke-opacity: 1; stroke-width: 2.5px;"/></g><g class="legendsymbols"><g class="legendpoints"/></g></g><rect class="legendtoggle" x="0" y="-21" width="209.765625" height="42" style="fill: rgb(0, 0, 0); fill-opacity: 0;"/></g><g class="traces" transform="translate(0,152)" style="opacity: 1;"><text class="legendtext" text-anchor="start" x="40" y="11.7" style="font-family: 'Open Sans', verdana, arial, sans-serif; font-size: 30px; fill: rgb(42, 63, 95); fill-opacity: 1; white-space: pre;">Qmix</text><g class="layers" style="opacity: 1;"><g class="legendfill"/><g class="legendlines"><path class="js-line" d="M5,0h30" style="fill: none; stroke: rgb(214, 39, 40); stroke-opacity: 1; stroke-width: 2.5px;"/></g><g class="legendsymbols"><g class="legendpoints"/></g></g><rect class="legendtoggle" x="0" y="-21" width="209.765625" height="42" style="fill: rgb(0, 0, 0); fill-opacity: 0;"/></g><g class="traces" transform="translate(0,194)" style="opacity: 1;"><text class="legendtext" text-anchor="start" x="40" y="11.7" style="font-family: 'Open Sans', verdana, arial, sans-serif; font-size: 30px; fill: rgb(42, 63, 95); fill-opacity: 1; white-space: pre;">OwQmix</text><g class="layers" style="opacity: 1;"><g class="legendfill"/><g class="legendlines"><path class="js-line" d="M5,0h30" style="fill: none; stroke: rgb(148, 103, 189); stroke-opacity: 1; stroke-width: 2.5px;"/></g><g class="legendsymbols"><g class="legendpoints"/></g></g><rect class="legendtoggle" x="0" y="-21" width="209.765625" height="42" style="fill: rgb(0, 0, 0); fill-opacity: 0;"/></g><g class="traces" transform="translate(0,236)" style="opacity: 1;"><text class="legendtext" text-anchor="start" x="40" y="11.7" style="font-family: 'Open Sans', verdana, arial, sans-serif; font-size: 30px; fill: rgb(42, 63, 95); fill-opacity: 1; white-space: pre;">CwQmix</text><g class="layers" style="opacity: 1;"><g class="legendfill"/><g class="legendlines"><path class="js-line" d="M5,0h30" style="fill: none; stroke: rgb(140, 86, 75); stroke-opacity: 1; stroke-width: 2.5px;"/></g><g class="legendsymbols"><g class="legendpoints"/></g></g><rect class="legendtoggle" x="0" y="-21" width="209.765625" height="42" style="fill: rgb(0, 0, 0); fill-opacity: 0;"/></g><g class="traces" transform="translate(0,278)" style="opacity: 1;"><text class="legendtext" text-anchor="start" x="40" y="11.7" style="font-family: 'Open Sans', verdana, arial, sans-serif; font-size: 30px; fill: rgb(42, 63, 95); fill-opacity: 1; white-space: pre;">Updet</text><g class="layers" style="opacity: 1;"><g class="legendfill"/><g class="legendlines"><path class="js-line" d="M5,0h30" style="fill: none; stroke: rgb(227, 119, 194); stroke-opacity: 1; stroke-width: 2.5px;"/></g><g class="legendsymbols"><g class="legendpoints"/></g></g><rect class="legendtoggle" x="0" y="-21" width="209.765625" height="42" style="fill: rgb(0, 0, 0); fill-opacity: 0;"/></g></g></g><rect class="scrollbar" rx="20" ry="3" width="0" height="0" x="0" y="0" style="fill: rgb(128, 139, 164); fill-opacity: 1;"/></g><g class="g-gtitle"/><g class="g-xtitle" transform="translate(0,-7.7000000000000455)"><text class="xtitle" x="444.5" y="649.7" text-anchor="middle" style="font-family: 'Open Sans', verdana, arial, sans-serif; font-size: 36px; fill: rgb(42, 63, 95); opacity: 1; font-weight: normal; white-space: pre;">Time Steps</text></g><g class="g-ytitle" transform="translate(32.4189453125,0)"><text class="ytitle" transform="rotate(-90,0.5812499999999972,286)" x="0.5812499999999972" y="286" text-anchor="middle" style="font-family: 'Open Sans', verdana, arial, sans-serif; font-size: 36px; fill: rgb(42, 63, 95); opacity: 1; font-weight: normal; white-space: pre;">Test Win Rate %</text></g></g></svg>