<svg class="main-svg" xmlns="http://www.w3.org/2000/svg" xmlns:xlink="http://www.w3.org/1999/xlink" width="2400" height="1950" style="" viewBox="0 0 800 650"><rect x="0" y="0" width="800" height="650" style="fill: rgb(255, 255, 255); fill-opacity: 1;"/><defs id="defs-b908c0"><g class="clips"><clipPath id="clipb908c0xyplot" class="plotclip"><rect width="711" height="572"/></clipPath><clipPath class="axesclip" id="clipb908c0x"><rect x="89" y="0" width="711" height="650"/></clipPath><clipPath class="axesclip" id="clipb908c0y"><rect x="0" y="0" width="800" height="572"/></clipPath><clipPath class="axesclip" id="clipb908c0xy"><rect x="89" y="0" width="711" height="572"/></clipPath></g><g class="gradients"/><g class="patterns"/></defs><g class="bglayer"/><g class="layer-below"><g class="imagelayer"/><g class="shapelayer"/></g><g class="cartesianlayer"><g class="subplot xy"><g class="layer-subplot"><g class="shapelayer"/><g class="imagelayer"/></g><g class="minor-gridlayer"><g class="x"/><g class="y"/></g><g class="gridlayer"><g class="x"><path class="xgrid crisp" transform="translate(427.57,0)" d="M0,0v572" style="stroke: rgb(235, 240, 248); stroke-opacity: 1; stroke-width: 1px;"/><path class="xgrid crisp" transform="translate(766.14,0)" d="M0,0v572" style="stroke: rgb(235, 240, 248); stroke-opacity: 1; stroke-width: 1px;"/></g><g class="y"><path class="ygrid crisp" transform="translate(0,463.05)" d="M89,0h711" style="stroke: rgb(235, 240, 248); stroke-opacity: 1; stroke-width: 1px;"/><path class="ygrid crisp" transform="translate(0,354.1)" d="M89,0h711" style="stroke: rgb(235, 240, 248); stroke-opacity: 1; stroke-width: 1px;"/><path class="ygrid crisp" transform="translate(0,245.14)" d="M89,0h711" style="stroke: rgb(235, 240, 248); stroke-opacity: 1; stroke-width: 1px;"/><path class="ygrid crisp" transform="translate(0,136.19)" d="M89,0h711" style="stroke: rgb(235, 240, 248); stroke-opacity: 1; stroke-width: 1px;"/><path class="ygrid crisp" transform="translate(0,27.24)" d="M89,0h711" style="stroke: rgb(235, 240, 248); stroke-opacity: 1; stroke-width: 1px;"/></g></g><g class="zerolinelayer"><path class="xzl zl crisp" transform="translate(89,0)" d="M0,0v572" style="stroke: rgb(235, 240, 248); stroke-opacity: 1; stroke-width: 2px;"/><path class="yzl zl crisp" transform="translate(0,572)" d="M89,0h711" style="stroke: rgb(235, 240, 248); stroke-opacity: 1; stroke-width: 2px;"/></g><path class="xlines-below"/><path class="ylines-below"/><g class="overlines-below"/><g class="xaxislayer-below"/><g class="yaxislayer-below"/><g class="overaxes-below"/><g class="plot" transform="translate(89,0)" clip-path="url(#clipb908c0xyplot)"><g class="scatterlayer mlayer"><g class="trace scatter trace979750" style="stroke-miterlimit: 2; opacity: 1;"><g class="fills"/><g class="errorbars"/><g class="lines"><path class="js-line" d="M0.02,572L296.79,572L300.19,569.73L303.6,568.6L306.99,566.33L310.39,565.19L313.79,565.19L347.75,565.19L351.16,567.46L354.55,568.6L357.94,570.87L361.35,572L364.74,572L371.53,572L374.92,569.73L381.72,562.92L385.16,557.25L388.58,548.17L392.01,542.49L395.46,532.28L398.9,517.52L402.31,507.31L405.7,503.9L409.11,490.29L412.54,463.05L422.75,373.39L426.16,354.1L432.95,300.75L436.35,279.19L439.75,261.03L443.16,234.93L446.57,211.1L449.97,199.75L453.37,191.8L456.77,161.16L460.19,140.73L463.63,133.92L467.07,133.92L470.47,138.46L473.86,130.52L477.28,118.03L480.68,123.71L484.09,122.57L494.28,105.55L497.68,106.68L501.08,97.6L504.47,81.71L507.88,80.58L511.28,81.71L514.68,81.71L518.08,78.31L521.49,71.5L524.9,70.37L528.29,68.1L531.69,59.02L535.08,51.07L538.47,47.67L541.86,45.4L545.25,46.53L548.64,43.13L552.05,41.99L555.44,39.72L558.83,39.72L562.22,37.45L565.62,36.32L569.01,35.18L572.41,36.32L575.81,34.05L579.2,35.18L582.6,35.18L585.99,36.32L592.77,36.32L596.18,37.45L599.6,38.59L603.01,38.59L606.41,38.59L609.8,37.45L613.19,37.45L616.6,36.32L620,36.32L623.39,34.05L626.79,34.05L630.19,32.91L633.59,32.91L636.98,31.78L643.75,31.78L647.15,29.51L650.55,28.37L653.94,28.37L657.35,29.51L660.74,29.51L664.17,31.78L667.56,35.18L674.35,35.18L677.74,36.32L691.33,36.32" style="vector-effect: none; fill: none; stroke: rgb(31, 119, 180); stroke-opacity: 1; stroke-width: 2.5px; opacity: 1;"/></g><g class="points"/><g class="text"/></g><g class="trace scatter trace707711" style="stroke-miterlimit: 2;"><g class="fills"><g><path class="js-fill" d="M3.41,572L296.79,572L300.19,578.52L303.6,578.14L306.99,578.65L310.39,577.73L313.79,577.73L354.55,578.14L357.94,575.26L361.35,572L364.74,572L371.53,572L374.92,578.52L378.32,581.64L381.72,582.08L385.16,584.44L388.58,589.27L392.01,585.88L395.46,585.21L398.9,586.88L402.31,579.31L405.7,573.8L409.11,565.65L412.54,572.77L415.95,571.87L419.36,559.88L422.75,535.1L429.55,490.25L432.95,461.8L439.75,413.22L443.16,378.98L446.57,352.1L449.97,335.46L453.37,316.85L456.77,251.21L460.19,213.72L463.63,209.36L467.07,209.36L470.47,212.35L473.86,204.01L477.28,185.72L480.68,191.4L484.09,189.69L490.89,177.22L494.28,175.97L497.68,176.48L501.08,165.96L504.47,121.48L507.88,121.21L511.28,122L514.68,122L518.08,119.51L521.49,108.91L528.29,107.13L531.69,89.1L535.08,70.16L538.47,66.09L541.86,64.12L545.25,64.58L548.64,59.49L552.05,58.85L555.44,56.08L558.83,56.08L562.22,50L565.62,47.21L569.01,46.08L572.41,48.97L575.81,44.81L579.2,46.08L582.6,46.08L585.99,47.21L592.77,47.21L596.18,50L599.6,50.91L603.01,50.91L606.41,50.91L609.8,50L613.19,50L616.6,48.97L620,48.97L623.39,44.81L626.79,44.81L630.19,43.42L633.59,43.42L636.98,41.88L643.75,41.88L647.15,35.5L650.55,32.77L653.94,32.77L657.35,35.5L660.74,35.5L667.56,53.23L670.95,53.23L674.35,53.23L677.74,54.36L691.33,54.36L691.33,18.27L677.74,18.27L674.35,17.14L670.95,17.14L667.56,17.14L664.17,18.18L660.74,23.52L657.35,23.52L653.94,23.98L647.15,23.52L643.75,21.67L630.19,22.41L626.79,23.28L616.6,23.66L613.19,24.91L609.8,24.91L606.41,26.27L599.6,26.27L596.18,24.91L589.38,25.42L585.99,25.42L582.6,24.29L579.2,24.29L575.81,23.28L572.41,23.66L565.62,25.42L562.22,24.91L558.83,23.36L555.44,23.36L545.25,28.48L541.86,26.67L538.47,29.24L535.08,31.98L531.69,28.93L528.29,29.06L524.9,32.92L521.49,34.09L518.08,37.11L514.68,41.43L511.28,41.43L507.88,39.95L504.47,41.95L501.08,29.24L497.68,36.89L494.28,35.12L487.49,49.88L484.09,55.46L480.68,56.02L477.28,50.34L470.47,64.57L467.07,58.48L463.63,58.48L460.19,67.74L456.77,71.11L453.37,66.76L449.97,64.03L446.57,70.1L439.75,108.84L436.35,123.27L429.55,158.93L426.16,196.2L422.75,211.67L419.36,236.83L409.11,414.92L405.7,434.01L402.31,435.31L398.9,448.16L395.46,479.35L392.01,499.11L388.58,507.07L385.16,530.05L381.72,543.76L378.32,551.01L374.92,560.94L371.53,572L364.74,572L361.35,572L357.94,566.47L354.55,559.05L351.16,557.35L347.75,552.65L313.79,552.65L310.39,552.65L306.99,554L303.6,559.05L300.19,560.94L296.79,572L3.41,572Z" style="fill: rgb(31, 119, 180); fill-opacity: 0.1; stroke-width: 0;"/></g></g><g class="errorbars"/><g class="lines"><path class="js-line" d="M3.41,572L296.79,572L300.19,560.94L303.6,559.05L306.99,554L310.39,552.65L313.79,552.65L347.75,552.65L351.16,557.35L354.55,559.05L357.94,566.47L361.35,572L364.74,572L371.53,572L374.92,560.94L378.32,551.01L381.72,543.76L385.16,530.05L388.58,507.07L392.01,499.11L395.46,479.35L398.9,448.16L402.31,435.31L405.7,434.01L409.11,414.92L419.36,236.83L422.75,211.67L426.16,196.2L429.55,158.93L436.35,123.27L439.75,108.84L446.57,70.1L449.97,64.03L453.37,66.76L456.77,71.11L460.19,67.74L463.63,58.48L467.07,58.48L470.47,64.57L477.28,50.34L480.68,56.02L484.09,55.46L487.49,49.88L494.28,35.12L497.68,36.89L501.08,29.24L504.47,41.95L507.88,39.95L511.28,41.43L514.68,41.43L518.08,37.11L521.49,34.09L524.9,32.92L528.29,29.06L531.69,28.93L535.08,31.98L538.47,29.24L541.86,26.67L545.25,28.48L555.44,23.36L558.83,23.36L562.22,24.91L565.62,25.42L572.41,23.66L575.81,23.28L579.2,24.29L582.6,24.29L585.99,25.42L589.38,25.42L596.18,24.91L599.6,26.27L606.41,26.27L609.8,24.91L613.19,24.91L616.6,23.66L626.79,23.28L630.19,22.41L643.75,21.67L647.15,23.52L653.94,23.98L657.35,23.52L660.74,23.52L664.17,18.18L667.56,17.14L670.95,17.14L674.35,17.14L677.74,18.27L691.33,18.27" style="vector-effect: none; fill: none; stroke: rgb(239, 85, 59); stroke-opacity: 1; stroke-width: 0px; opacity: 1;"/></g><g class="points"/><g class="text"/></g><g class="trace scatter tracecf9b96" style="stroke-miterlimit: 2;"><g class="fills"/><g class="errorbars"/><g class="lines"><path class="js-line" d="M3.41,572L296.79,572L300.19,578.52L303.6,578.14L306.99,578.65L310.39,577.73L313.79,577.73L354.55,578.14L357.94,575.26L361.35,572L364.74,572L371.53,572L374.92,578.52L378.32,581.64L381.72,582.08L385.16,584.44L388.58,589.27L392.01,585.88L395.46,585.21L398.9,586.88L402.31,579.31L405.7,573.8L409.11,565.65L412.54,572.77L415.95,571.87L419.36,559.88L422.75,535.1L429.55,490.25L432.95,461.8L439.75,413.22L443.16,378.98L446.57,352.1L449.97,335.46L453.37,316.85L456.77,251.21L460.19,213.72L463.63,209.36L467.07,209.36L470.47,212.35L473.86,204.01L477.28,185.72L480.68,191.4L484.09,189.69L490.89,177.22L494.28,175.97L497.68,176.48L501.08,165.96L504.47,121.48L507.88,121.21L511.28,122L514.68,122L518.08,119.51L521.49,108.91L528.29,107.13L531.69,89.1L535.08,70.16L538.47,66.09L541.86,64.12L545.25,64.58L548.64,59.49L552.05,58.85L555.44,56.08L558.83,56.08L562.22,50L565.62,47.21L569.01,46.08L572.41,48.97L575.81,44.81L579.2,46.08L582.6,46.08L585.99,47.21L592.77,47.21L596.18,50L599.6,50.91L603.01,50.91L606.41,50.91L609.8,50L613.19,50L616.6,48.97L620,48.97L623.39,44.81L626.79,44.81L630.19,43.42L633.59,43.42L636.98,41.88L643.75,41.88L647.15,35.5L650.55,32.77L653.94,32.77L657.35,35.5L660.74,35.5L667.56,53.23L670.95,53.23L674.35,53.23L677.74,54.36L691.33,54.36" style="vector-effect: none; fill: none; stroke: rgb(0, 204, 150); stroke-opacity: 1; stroke-width: 0px; opacity: 1;"/></g><g class="points"/><g class="text"/></g><g class="trace scatter tracef405da" style="stroke-miterlimit: 2; opacity: 1;"><g class="fills"/><g class="errorbars"/><g class="lines"><path class="js-line" d="M0.02,572L692.62,572" style="vector-effect: none; fill: none; stroke: rgb(255, 127, 14); stroke-opacity: 1; stroke-width: 2.5px; opacity: 1;"/></g><g class="points"/><g class="text"/></g><g class="trace scatter trace480eac" style="stroke-miterlimit: 2;"><g class="fills"><g><path class="js-fill" d="M3.42,572L692.62,572L692.62,572L3.42,572Z" style="fill: rgb(255, 127, 14); fill-opacity: 0.1; stroke-width: 0;"/></g></g><g class="errorbars"/><g class="lines"><path class="js-line" d="M3.42,572L692.62,572" style="vector-effect: none; fill: none; stroke: rgb(255, 161, 90); stroke-opacity: 1; stroke-width: 0px; opacity: 1;"/></g><g class="points"/><g class="text"/></g><g class="trace scatter trace1d3db4" style="stroke-miterlimit: 2;"><g class="fills"/><g class="errorbars"/><g class="lines"><path class="js-line" d="M3.42,572L692.62,572" style="vector-effect: none; fill: none; stroke: rgb(25, 211, 243); stroke-opacity: 1; stroke-width: 0px; opacity: 1;"/></g><g class="points"/><g class="text"/></g><g class="trace scatter tracecf7b12" style="stroke-miterlimit: 2; opacity: 1;"><g class="fills"/><g class="errorbars"/><g class="lines"><path class="js-line" d="M0.02,572L91.69,572L95.08,570.87L125.65,570.87L129.06,569.73L132.45,566.33L135.85,565.19L142.65,562.92L146.04,562.92L149.44,562.92L152.83,561.79L156.22,560.65L159.62,560.65L163.01,560.65L166.4,557.25L173.19,552.71L176.59,547.03L179.99,548.17L183.38,548.17L186.78,543.63L190.19,541.36L193.59,537.95L196.99,537.95L203.8,531.14L207.19,528.87L210.58,524.33L213.98,516.39L217.37,507.31L220.76,501.63L227.56,497.1L230.96,492.56L234.36,491.42L237.76,491.42L241.14,490.29L244.54,490.29L247.95,489.15L251.35,486.88L254.74,483.48L258.14,475.53L261.54,474.4L264.96,477.8L268.36,484.61L271.77,485.75L275.17,488.02L278.57,488.02L281.99,485.75L285.39,482.34L288.78,478.94L292.18,481.21L295.58,476.67L298.98,475.53L302.38,475.53L305.77,472.13L309.19,481.21L312.59,482.34L315.98,481.21L319.39,482.34L322.79,480.07L326.2,472.13L329.61,469.86L332.99,468.72L336.38,470.99L339.78,466.45L343.17,460.78L346.57,459.64L349.95,451.7L353.34,449.43L356.75,446.02L360.15,439.21L363.55,438.08L366.95,431.27L370.35,429L373.75,430.13L380.55,432.4L383.96,435.81L387.35,434.67L390.74,444.89L394.14,439.21L397.54,440.35L400.93,444.89L404.32,441.48L407.72,443.75L411.13,440.35L414.53,436.94L417.93,438.08L421.35,430.13L424.75,426.73L428.14,429L431.54,427.87L434.93,422.19L438.33,411.98L441.73,406.3L445.14,418.79L448.52,419.92L451.93,407.44L455.31,402.9L458.73,402.9L462.14,404.03L465.57,406.3L468.97,405.17L472.38,410.84L475.77,414.25L479.18,410.84L482.57,413.11L485.99,409.71L489.39,413.11L492.79,409.71L496.2,396.09L499.6,387.01L503.01,397.22L506.42,396.09L513.23,402.9L516.63,400.63L520.03,397.22L523.42,391.55L530.21,376.79L533.61,372.25L537,372.25L540.43,369.98L543.83,366.58L547.22,366.58L550.61,369.98L554.01,360.9L557.41,363.17L560.8,360.9L564.19,351.83L567.59,349.56L570.98,354.1L574.38,351.83L577.8,351.83L581.2,354.1L584.59,354.1L587.98,348.42L591.38,343.88L594.78,334.8L598.18,334.8L601.59,327.99L604.98,325.72L608.37,324.59L611.77,314.37L615.16,316.64L618.57,305.29L621.95,300.75L625.34,296.21L628.74,297.35L632.13,292.81L635.53,291.67L638.92,296.21L642.31,295.08L645.72,299.62L649.11,297.35L652.5,300.75L655.89,301.89L659.29,298.48L662.7,296.21L666.1,283.73L669.55,282.6L672.93,281.46L676.34,283.73L679.73,281.46L683.13,278.06L686.54,270.11L689.94,258.76L693.33,265.57" style="vector-effect: none; fill: none; stroke: rgb(44, 160, 44); stroke-opacity: 1; stroke-width: 2.5px; opacity: 1;"/></g><g class="points"/><g class="text"/></g><g class="trace scatter traceb911a4" style="stroke-miterlimit: 2;"><g class="fills"><g><path class="js-fill" d="M3.41,572L91.69,572L95.08,575.26L129.06,575.72L132.45,580.23L142.65,577.12L146.04,577.12L149.44,577.12L152.83,575.88L156.22,574.55L159.62,574.55L166.4,574.11L169.79,572L173.19,569.57L176.59,570.11L179.99,572.07L183.38,572.07L186.78,572.16L190.19,570.28L193.59,568.13L196.99,568.13L200.39,563.47L203.8,560.49L207.19,557.55L210.58,551.02L213.98,545.5L217.37,551.98L224.15,544.16L227.56,543.41L230.96,534.09L234.36,532.35L237.76,532.35L241.14,530.57L244.54,530.57L247.95,527.69L258.14,517.56L261.54,515.83L264.96,519.43L268.36,517.34L271.77,517.57L275.17,522.35L278.57,522.35L281.99,520.08L285.39,517.27L288.78,515.82L292.18,520.7L295.58,517.26L298.98,514.49L302.38,514.49L305.77,515.23L309.19,522.74L312.59,524.27L315.98,522.74L319.39,524.27L322.79,523.62L326.2,515.23L329.61,514.9L332.99,513.98L336.38,516.25L339.78,518.41L343.17,508.87L346.57,508.56L349.95,499.62L353.34,496.36L356.75,498.22L360.15,484.8L363.55,482.13L370.35,469.59L373.75,471.17L380.55,473.2L383.96,480.39L387.35,478.06L390.74,489.41L394.14,487.88L397.54,488.7L400.93,492.55L404.32,490.35L411.13,487.84L414.53,482.65L417.93,482.6L421.35,479L424.75,475.68L428.14,479.17L431.54,478.06L434.93,467.78L438.33,462.97L441.73,448.23L445.14,474.14L448.52,475.82L451.93,471.67L455.31,469.91L458.73,469.91L462.14,470.86L465.57,474.84L468.97,473.93L475.77,482.48L479.18,477.36L482.57,480.49L485.99,478.06L489.39,477.67L492.79,474.33L496.2,448.23L499.6,440.4L503.01,443.38L506.42,444.09L513.23,453.75L516.63,448.98L520.03,448.48L523.42,442.94L526.82,434.05L530.21,429.01L533.61,420.17L537,420.17L540.43,418.93L543.83,416.2L547.22,416.2L550.61,417.65L554.01,408.1L557.41,408.88L560.8,403.49L564.19,387.34L567.59,380.05L570.98,387.03L574.38,386.16L577.8,386.16L581.2,387.03L584.59,387.03L587.98,385.87L591.38,386.95L594.78,392.16L598.18,392.16L601.59,387.2L604.98,386.72L608.37,385.24L611.77,374L615.16,377L618.57,364.5L621.95,354.38L625.34,351.27L628.74,353.39L632.13,346.95L635.53,343.9L638.92,350.51L642.31,350.23L645.72,348.62L649.11,344.57L652.5,347.36L655.89,347.78L659.29,343.74L662.7,344.88L666.1,340.73L669.55,340.86L672.93,338.82L676.34,340.36L679.73,335.86L683.13,333.95L686.54,320.56L689.94,308.93L693.33,320.92L693.33,210.22L689.94,208.59L686.54,219.67L683.13,222.16L679.73,227.07L676.34,227.1L672.93,224.1L669.55,224.33L666.1,226.73L662.7,247.55L659.29,253.23L655.89,256L652.5,254.15L649.11,250.12L645.72,250.62L642.31,239.93L638.92,241.92L635.53,239.45L632.13,238.67L628.74,241.3L625.34,241.16L621.95,247.13L618.57,246.09L615.16,256.28L611.77,254.75L608.37,263.93L604.98,264.73L601.59,268.79L598.18,277.44L594.78,277.44L591.38,300.81L587.98,310.98L584.59,321.16L581.2,321.16L577.8,317.5L574.38,317.5L570.98,321.16L567.59,319.06L564.19,316.31L560.8,318.32L557.41,317.46L554.01,313.71L550.61,322.32L547.22,316.96L543.83,316.96L540.43,321.04L537,324.33L530.21,324.57L526.82,333.16L516.63,352.28L513.23,352.04L509.82,350.55L506.42,348.08L503.01,351.06L499.6,333.61L496.2,343.95L492.79,345.08L489.39,348.55L485.99,341.35L482.57,345.73L479.18,344.32L475.77,346.01L472.38,343.4L468.97,336.41L465.57,337.76L458.73,335.88L455.31,335.88L451.93,343.2L448.52,364.02L445.14,363.43L441.73,364.37L438.33,360.99L434.93,376.6L431.54,377.67L428.14,378.83L424.75,377.78L421.35,381.27L417.93,393.56L414.53,391.23L411.13,392.86L407.72,398.77L404.32,392.62L400.93,397.23L397.54,392L394.14,390.55L390.74,400.37L387.35,391.29L383.96,391.23L380.55,391.61L366.95,387.41L363.55,394.03L356.75,393.83L353.34,402.5L349.95,403.78L346.57,410.72L339.78,414.5L336.38,425.74L332.99,423.47L329.61,424.82L326.2,429.03L322.79,436.53L319.39,440.41L315.98,439.67L312.59,440.41L309.19,439.67L305.77,429.03L302.38,436.57L295.58,436.07L292.18,441.72L288.78,442.05L285.39,447.41L281.99,451.42L278.57,453.69L271.77,453.92L268.36,451.89L264.96,436.17L261.54,432.96L258.14,433.5L254.74,445.3L251.35,449.36L247.95,450.62L234.36,450.49L230.96,451.02L227.56,450.79L224.15,454.57L220.76,455.74L217.37,462.64L213.98,487.28L210.58,497.65L207.19,500.19L203.8,501.8L200.39,505.63L196.99,507.77L193.59,507.77L190.19,512.44L186.78,515.09L183.38,524.26L176.59,523.95L173.19,535.85L166.4,540.39L163.01,546.75L159.62,546.75L156.22,546.75L152.83,547.69L149.44,548.73L146.04,548.73L142.65,548.73L135.85,551.09L132.45,552.43L129.06,563.74L125.65,566.47L95.08,566.47L91.69,572L3.41,572Z" style="fill: rgb(44, 160, 44); fill-opacity: 0.1; stroke-width: 0;"/></g></g><g class="errorbars"/><g class="lines"><path class="js-line" d="M3.41,572L91.69,572L95.08,566.47L125.65,566.47L129.06,563.74L132.45,552.43L135.85,551.09L142.65,548.73L146.04,548.73L149.44,548.73L152.83,547.69L156.22,546.75L159.62,546.75L163.01,546.75L166.4,540.39L173.19,535.85L176.59,523.95L183.38,524.26L186.78,515.09L190.19,512.44L193.59,507.77L196.99,507.77L200.39,505.63L203.8,501.8L207.19,500.19L210.58,497.65L213.98,487.28L217.37,462.64L220.76,455.74L224.15,454.57L227.56,450.79L230.96,451.02L234.36,450.49L247.95,450.62L251.35,449.36L254.74,445.3L258.14,433.5L261.54,432.96L264.96,436.17L268.36,451.89L271.77,453.92L278.57,453.69L281.99,451.42L285.39,447.41L288.78,442.05L292.18,441.72L295.58,436.07L302.38,436.57L305.77,429.03L309.19,439.67L312.59,440.41L315.98,439.67L319.39,440.41L322.79,436.53L326.2,429.03L329.61,424.82L332.99,423.47L336.38,425.74L339.78,414.5L346.57,410.72L349.95,403.78L353.34,402.5L356.75,393.83L363.55,394.03L366.95,387.41L380.55,391.61L383.96,391.23L387.35,391.29L390.74,400.37L394.14,390.55L397.54,392L400.93,397.23L404.32,392.62L407.72,398.77L411.13,392.86L414.53,391.23L417.93,393.56L421.35,381.27L424.75,377.78L428.14,378.83L431.54,377.67L434.93,376.6L438.33,360.99L441.73,364.37L445.14,363.43L448.52,364.02L451.93,343.2L455.31,335.88L458.73,335.88L465.57,337.76L468.97,336.41L472.38,343.4L475.77,346.01L479.18,344.32L482.57,345.73L485.99,341.35L489.39,348.55L492.79,345.08L496.2,343.95L499.6,333.61L503.01,351.06L506.42,348.08L509.82,350.55L513.23,352.04L516.63,352.28L526.82,333.16L530.21,324.57L537,324.33L540.43,321.04L543.83,316.96L547.22,316.96L550.61,322.32L554.01,313.71L557.41,317.46L560.8,318.32L564.19,316.31L567.59,319.06L570.98,321.16L574.38,317.5L577.8,317.5L581.2,321.16L584.59,321.16L587.98,310.98L591.38,300.81L594.78,277.44L598.18,277.44L601.59,268.79L604.98,264.73L608.37,263.93L611.77,254.75L615.16,256.28L618.57,246.09L621.95,247.13L625.34,241.16L628.74,241.3L632.13,238.67L635.53,239.45L638.92,241.92L642.31,239.93L645.72,250.62L649.11,250.12L652.5,254.15L655.89,256L659.29,253.23L662.7,247.55L666.1,226.73L669.55,224.33L672.93,224.1L676.34,227.1L679.73,227.07L683.13,222.16L686.54,219.67L689.94,208.59L693.33,210.22" style="vector-effect: none; fill: none; stroke: rgb(182, 232, 128); stroke-opacity: 1; stroke-width: 0px; opacity: 1;"/></g><g class="points"/><g class="text"/></g><g class="trace scatter tracef7e4a7" style="stroke-miterlimit: 2;"><g class="fills"/><g class="errorbars"/><g class="lines"><path class="js-line" d="M3.41,572L91.69,572L95.08,575.26L129.06,575.72L132.45,580.23L142.65,577.12L146.04,577.12L149.44,577.12L152.83,575.88L156.22,574.55L159.62,574.55L166.4,574.11L169.79,572L173.19,569.57L176.59,570.11L179.99,572.07L183.38,572.07L186.78,572.16L190.19,570.28L193.59,568.13L196.99,568.13L200.39,563.47L203.8,560.49L207.19,557.55L210.58,551.02L213.98,545.5L217.37,551.98L224.15,544.16L227.56,543.41L230.96,534.09L234.36,532.35L237.76,532.35L241.14,530.57L244.54,530.57L247.95,527.69L258.14,517.56L261.54,515.83L264.96,519.43L268.36,517.34L271.77,517.57L275.17,522.35L278.57,522.35L281.99,520.08L285.39,517.27L288.78,515.82L292.18,520.7L295.58,517.26L298.98,514.49L302.38,514.49L305.77,515.23L309.19,522.74L312.59,524.27L315.98,522.74L319.39,524.27L322.79,523.62L326.2,515.23L329.61,514.9L332.99,513.98L336.38,516.25L339.78,518.41L343.17,508.87L346.57,508.56L349.95,499.62L353.34,496.36L356.75,498.22L360.15,484.8L363.55,482.13L370.35,469.59L373.75,471.17L380.55,473.2L383.96,480.39L387.35,478.06L390.74,489.41L394.14,487.88L397.54,488.7L400.93,492.55L404.32,490.35L411.13,487.84L414.53,482.65L417.93,482.6L421.35,479L424.75,475.68L428.14,479.17L431.54,478.06L434.93,467.78L438.33,462.97L441.73,448.23L445.14,474.14L448.52,475.82L451.93,471.67L455.31,469.91L458.73,469.91L462.14,470.86L465.57,474.84L468.97,473.93L475.77,482.48L479.18,477.36L482.57,480.49L485.99,478.06L489.39,477.67L492.79,474.33L496.2,448.23L499.6,440.4L503.01,443.38L506.42,444.09L513.23,453.75L516.63,448.98L520.03,448.48L523.42,442.94L526.82,434.05L530.21,429.01L533.61,420.17L537,420.17L540.43,418.93L543.83,416.2L547.22,416.2L550.61,417.65L554.01,408.1L557.41,408.88L560.8,403.49L564.19,387.34L567.59,380.05L570.98,387.03L574.38,386.16L577.8,386.16L581.2,387.03L584.59,387.03L587.98,385.87L591.38,386.95L594.78,392.16L598.18,392.16L601.59,387.2L604.98,386.72L608.37,385.24L611.77,374L615.16,377L618.57,364.5L621.95,354.38L625.34,351.27L628.74,353.39L632.13,346.95L635.53,343.9L638.92,350.51L642.31,350.23L645.72,348.62L649.11,344.57L652.5,347.36L655.89,347.78L659.29,343.74L662.7,344.88L666.1,340.73L669.55,340.86L672.93,338.82L676.34,340.36L679.73,335.86L683.13,333.95L686.54,320.56L689.94,308.93L693.33,320.92" style="vector-effect: none; fill: none; stroke: rgb(255, 151, 255); stroke-opacity: 1; stroke-width: 0px; opacity: 1;"/></g><g class="points"/><g class="text"/></g><g class="trace scatter tracefa3d87" style="stroke-miterlimit: 2; opacity: 1;"><g class="fills"/><g class="errorbars"/><g class="lines"><path class="js-line" d="M0.02,572L244.46,572L247.87,570.87L285.19,570.87L288.58,569.73L291.98,569.73L295.39,568.6L298.78,569.73L302.18,568.6L322.57,568.6L325.96,567.46L332.81,567.46L336.21,566.33L339.6,567.46L343,567.46L346.4,568.6L349.8,568.6L353.2,569.73L356.6,568.6L360.02,568.6L363.42,567.46L366.83,566.33L370.27,566.33L373.66,565.19L377.06,566.33L383.84,566.33L387.24,567.46L390.62,565.19L394.01,565.19L404.23,565.19L407.62,566.33L411.04,565.19L414.44,566.33L421.24,566.33L424.63,567.46L434.84,567.46L438.24,566.33L441.64,568.6L445.08,568.6L451.88,568.6L455.27,567.46L458.66,567.46L462.08,568.6L465.51,568.6L468.9,569.73L479.08,569.73L482.53,568.6L485.96,568.6L489.36,569.73L502.96,569.73L506.36,568.6L516.59,568.6L519.98,566.33L523.37,566.33L526.78,565.19L530.19,565.19L533.6,566.33L540.44,564.06L543.85,564.06L547.25,564.06L550.69,562.92L554.13,562.92L557.58,565.19L567.83,565.19L571.23,567.46L578.07,567.46L581.46,566.33L584.9,566.33L588.3,567.46L598.49,567.46L601.94,565.19L612.19,565.19L615.59,564.06L618.99,560.65L622.39,560.65L625.8,560.65L629.19,561.79L632.57,562.92L635.97,562.92L639.37,562.92L642.77,564.06L649.56,564.06L652.96,566.33L663.19,566.33L666.58,567.46L670,570.87L673.4,569.73L680.23,567.46L683.61,567.46L687.06,567.46L690.46,566.33L693.86,564.06" style="vector-effect: none; fill: none; stroke: rgb(214, 39, 40); stroke-opacity: 1; stroke-width: 2.5px; opacity: 1;"/></g><g class="points"/><g class="text"/></g><g class="trace scatter trace412d1f" style="stroke-miterlimit: 2;"><g class="fills"><g><path class="js-fill" d="M3.41,572L244.46,572L247.87,575.26L332.81,575.25L336.21,574.63L343,575.25L346.4,575.64L363.42,575.25L366.83,574.63L370.27,574.63L373.66,573.82L377.06,574.63L380.45,574.63L387.24,575.25L390.62,575.96L404.23,575.96L407.62,576.83L411.04,575.96L414.44,576.83L438.24,576.83L441.64,575.64L502.96,575.72L506.36,578.14L523.37,578.65L526.78,577.73L530.19,577.73L533.6,578.65L540.44,576.71L543.85,576.71L547.25,576.71L550.69,575.57L578.07,575.25L581.46,574.63L598.49,575.25L601.94,579.29L612.19,579.29L615.59,578.25L625.8,578.47L629.19,579.76L632.57,580.97L635.97,580.97L639.37,580.97L642.77,582.1L649.56,582.1L652.96,580.23L666.58,581.06L670,575.26L676.79,575.64L680.23,575.25L693.86,574.95L693.86,553.16L690.46,558.02L687.06,559.67L683.61,559.67L680.23,559.67L673.4,563.74L670,566.47L666.58,553.86L663.19,552.43L652.96,552.43L649.56,546.01L642.77,546.01L639.37,544.87L635.97,544.87L632.57,544.87L629.19,543.82L625.8,542.83L622.39,542.83L618.99,542.83L615.59,549.86L612.19,551.09L601.94,551.09L598.49,559.67L588.3,559.67L584.9,558.02L581.46,558.02L578.07,559.67L571.23,559.67L567.83,554.42L557.58,554.42L554.13,550.27L550.69,550.27L547.25,551.4L543.85,551.4L540.44,551.4L533.6,554L530.19,552.65L526.78,552.65L523.37,554L519.98,554L516.59,559.05L506.36,559.05L502.96,563.74L489.36,563.74L485.96,561.55L482.53,561.55L479.08,563.74L468.9,563.74L465.51,561.55L462.08,561.55L458.66,559.67L455.27,559.67L451.88,561.55L445.08,561.55L441.64,561.55L438.24,555.82L434.84,557.35L424.63,557.35L421.24,555.82L414.44,555.82L411.04,554.42L407.62,555.82L404.23,554.42L394.01,554.42L390.62,554.42L387.24,559.67L383.84,558.02L377.06,558.02L373.66,556.56L370.27,558.02L366.83,558.02L363.42,559.67L360.02,561.55L356.6,561.55L353.2,563.74L349.8,561.55L346.4,561.55L343,559.67L339.6,559.67L336.21,558.02L332.81,559.67L325.96,559.67L322.57,561.55L302.18,561.55L298.78,563.74L295.39,561.55L291.98,563.74L288.58,563.74L285.19,566.47L247.87,566.47L244.46,572L3.41,572Z" style="fill: rgb(214, 39, 40); fill-opacity: 0.1; stroke-width: 0;"/></g></g><g class="errorbars"/><g class="lines"><path class="js-line" d="M3.41,572L244.46,572L247.87,566.47L285.19,566.47L288.58,563.74L291.98,563.74L295.39,561.55L298.78,563.74L302.18,561.55L322.57,561.55L325.96,559.67L332.81,559.67L336.21,558.02L339.6,559.67L343,559.67L346.4,561.55L349.8,561.55L353.2,563.74L356.6,561.55L360.02,561.55L363.42,559.67L366.83,558.02L370.27,558.02L373.66,556.56L377.06,558.02L383.84,558.02L387.24,559.67L390.62,554.42L394.01,554.42L404.23,554.42L407.62,555.82L411.04,554.42L414.44,555.82L421.24,555.82L424.63,557.35L434.84,557.35L438.24,555.82L441.64,561.55L445.08,561.55L451.88,561.55L455.27,559.67L458.66,559.67L462.08,561.55L465.51,561.55L468.9,563.74L479.08,563.74L482.53,561.55L485.96,561.55L489.36,563.74L502.96,563.74L506.36,559.05L516.59,559.05L519.98,554L523.37,554L526.78,552.65L530.19,552.65L533.6,554L540.44,551.4L543.85,551.4L547.25,551.4L550.69,550.27L554.13,550.27L557.58,554.42L567.83,554.42L571.23,559.67L578.07,559.67L581.46,558.02L584.9,558.02L588.3,559.67L598.49,559.67L601.94,551.09L612.19,551.09L615.59,549.86L618.99,542.83L622.39,542.83L625.8,542.83L629.19,543.82L632.57,544.87L635.97,544.87L639.37,544.87L642.77,546.01L649.56,546.01L652.96,552.43L663.19,552.43L666.58,553.86L670,566.47L673.4,563.74L680.23,559.67L683.61,559.67L687.06,559.67L690.46,558.02L693.86,553.16" style="vector-effect: none; fill: none; stroke: rgb(99, 110, 250); stroke-opacity: 1; stroke-width: 0px; opacity: 1;"/></g><g class="points"/><g class="text"/></g><g class="trace scatter trace43605f" style="stroke-miterlimit: 2;"><g class="fills"/><g class="errorbars"/><g class="lines"><path class="js-line" d="M3.41,572L244.46,572L247.87,575.26L332.81,575.25L336.21,574.63L343,575.25L346.4,575.64L363.42,575.25L366.83,574.63L370.27,574.63L373.66,573.82L377.06,574.63L380.45,574.63L387.24,575.25L390.62,575.96L404.23,575.96L407.62,576.83L411.04,575.96L414.44,576.83L438.24,576.83L441.64,575.64L502.96,575.72L506.36,578.14L523.37,578.65L526.78,577.73L530.19,577.73L533.6,578.65L540.44,576.71L543.85,576.71L547.25,576.71L550.69,575.57L578.07,575.25L581.46,574.63L598.49,575.25L601.94,579.29L612.19,579.29L615.59,578.25L625.8,578.47L629.19,579.76L632.57,580.97L635.97,580.97L639.37,580.97L642.77,582.1L649.56,582.1L652.96,580.23L666.58,581.06L670,575.26L676.79,575.64L680.23,575.25L693.86,574.95" style="vector-effect: none; fill: none; stroke: rgb(239, 85, 59); stroke-opacity: 1; stroke-width: 0px; opacity: 1;"/></g><g class="points"/><g class="text"/></g><g class="trace scatter trace4cbe72" style="stroke-miterlimit: 2; opacity: 1;"><g class="fills"/><g class="errorbars"/><g class="lines"><path class="js-line" d="M0.02,572L159.57,572L162.97,570.87L166.37,569.73L169.77,569.73L173.17,568.6L176.56,568.6L179.95,568.6L183.35,567.46L186.74,566.33L190.15,564.06L193.54,561.79L196.96,560.65L207.13,557.25L210.52,554.98L213.92,553.84L217.32,551.57L220.71,550.44L224.1,548.17L227.5,544.76L230.9,542.49L234.3,540.22L237.69,541.36L244.48,543.63L247.88,540.22L251.3,537.95L254.69,536.82L258.08,536.82L261.47,535.68L268.26,540.22L271.65,537.95L275.04,537.95L278.44,536.82L281.86,535.68L285.25,533.41L288.66,532.28L292.05,520.93L295.44,516.39L298.87,517.52L305.66,519.79L309.05,512.98L312.45,516.39L315.84,516.39L319.25,514.12L322.64,510.71L326.03,510.71L329.43,511.85L332.82,511.85L336.23,516.39L339.62,515.25L343.06,523.2L346.46,522.06L349.85,518.66L353.25,511.85L356.64,508.44L360.04,509.58L363.43,503.9L366.83,495.96L370.23,485.75L373.62,483.48L377.02,480.07L380.43,475.53L383.83,474.4L387.23,467.59L390.63,463.05L394.03,460.78L397.41,463.05L400.82,463.05L404.21,464.18L407.61,463.05L411,464.18L414.39,464.18L417.79,466.45L421.2,467.59L424.59,466.45L427.98,467.59L431.38,473.26L434.79,475.53L438.18,472.13L441.59,469.86L444.98,468.72L448.39,470.99L451.79,464.18L455.19,467.59L458.6,458.51L461.99,455.1L465.4,449.43L468.8,446.02L472.2,451.7L478.99,436.94L482.39,423.33L485.8,410.84L489.19,409.71L495.99,400.63L499.38,387.01L502.77,394.95L506.16,389.28L509.6,390.41L513,383.6L516.44,384.74L519.89,376.79L523.28,372.25L526.67,373.39L530.07,366.58L533.46,365.44L536.85,368.85L540.25,367.71L543.65,356.37L547.04,352.96L550.42,356.37L553.81,348.42L557.22,340.48L560.61,337.07L564.01,329.13L567.4,337.07L570.81,332.53L574.21,325.72L577.6,327.99L580.99,337.07L584.39,338.21L587.79,337.07L591.19,337.07L594.6,345.02L597.99,349.56L601.4,347.29L604.79,342.75L608.19,347.29L611.58,364.31L614.98,375.66L618.36,365.44L621.77,365.44L625.16,371.12L628.58,367.71L631.97,366.58L635.38,363.17L638.77,358.63L642.17,350.69L645.56,357.5L649,352.96L652.39,349.56L655.8,348.42L659.21,343.88L662.61,323.45L666,321.18L669.4,316.64L672.8,317.78L676.19,315.51L679.58,313.24L682.97,313.24L686.39,313.24L689.78,317.78L693.19,318.91" style="vector-effect: none; fill: none; stroke: rgb(148, 103, 189); stroke-opacity: 1; stroke-width: 2.5px; opacity: 1;"/></g><g class="points"/><g class="text"/></g><g class="trace scatter tracee6c391" style="stroke-miterlimit: 2;"><g class="fills"><g><path class="js-fill" d="M3.41,572L159.57,572L162.97,575.26L169.77,575.72L173.17,575.64L183.35,575.25L186.74,574.63L190.15,574.95L193.54,574.33L207.13,568.14L210.52,566.12L217.32,566.24L220.71,564.04L224.1,563.66L227.5,560.26L230.9,556.09L234.3,554.42L237.69,557.38L241.08,558.85L244.48,560.24L247.88,559.38L254.69,555.54L258.08,555.54L261.47,554.84L264.86,559.29L268.26,561.43L271.65,559.29L278.44,559.54L281.86,558.76L285.25,559.52L288.66,556.92L292.05,565.51L295.44,560.72L302.28,563.18L305.66,565.05L309.05,560.21L312.45,566.01L315.84,566.01L319.25,562.61L322.64,560.47L326.03,560.47L329.43,561.63L332.82,561.63L336.23,566.83L339.62,564.96L343.06,557.77L346.46,558.16L349.85,557.19L353.25,555.43L356.64,550.38L360.04,550.1L366.83,529.93L370.23,532.35L373.62,531.71L377.02,527.27L380.43,521.78L383.83,519.65L387.23,507.18L390.63,497.58L394.03,493.5L397.41,497.58L404.21,498.03L407.61,495.73L411,497.41L414.39,497.41L417.79,500.01L421.2,497.68L424.59,498.11L427.98,499.67L431.38,509.77L434.79,515.02L438.18,515.7L441.59,514.44L444.98,513.52L448.39,518.48L451.79,518.65L455.19,522.89L458.6,521.11L461.99,517.44L468.8,508.34L472.2,511.88L475.6,514.15L478.99,507.86L485.8,475.14L489.19,474.33L492.59,470.21L495.99,464.48L499.38,440.4L502.77,453.85L506.16,440.54L509.6,440.94L513,434.46L516.44,436.21L519.89,429.01L523.28,418.41L526.67,418.28L530.07,419.43L533.46,419.23L536.85,423.24L540.25,421.93L543.65,426.16L547.04,422.52L550.42,426.16L553.81,408.39L557.22,398.31L560.61,394.69L564.01,394.89L567.4,419.52L570.81,418.01L574.21,409.34L577.6,412.3L580.99,421.51L584.39,422.46L587.79,420.52L591.19,420.52L594.6,419.41L597.99,425.27L604.79,418.57L608.19,422.38L611.58,458.48L614.98,460.26L618.36,437.34L621.77,437.34L625.16,440.78L628.58,438.78L631.97,437.2L635.38,436.67L642.17,430.02L645.56,438.07L649,432.77L652.39,430.55L655.8,430.28L659.21,426.48L662.61,379.1L666,374.81L669.4,367.31L672.8,366.98L676.19,362.11L679.58,360.61L686.39,360.61L689.78,368.63L693.19,368.28L693.19,269.55L689.78,266.92L686.39,265.87L682.97,265.87L679.58,265.87L676.19,268.9L672.8,268.58L669.4,265.98L666,267.55L662.61,267.8L659.21,261.28L655.8,266.56L652.39,268.56L649,273.15L645.56,276.93L642.17,271.36L638.77,284.47L635.38,289.68L631.97,295.96L628.58,296.64L625.16,301.46L621.77,293.54L618.36,293.54L614.98,291.06L611.58,270.14L608.19,272.19L604.79,266.92L601.4,272.19L597.99,273.84L594.6,270.63L591.19,253.62L587.79,253.62L584.39,253.95L580.99,252.64L577.6,243.69L574.21,242.11L570.81,247.06L567.4,254.62L564.01,263.36L560.61,279.45L557.22,282.64L553.81,288.45L550.42,286.57L547.04,283.4L543.65,286.57L540.25,313.5L536.85,314.45L533.46,311.66L530.07,313.73L526.67,328.5L523.28,326.09L519.89,324.57L516.44,333.26L513,332.75L509.6,339.88L502.77,336.05L499.38,333.61L495.99,336.78L492.59,340.12L489.19,345.08L485.8,346.54L482.39,353.59L478.99,366.03L475.6,375.63L472.2,391.52L468.8,383.71L465.4,386.32L461.99,392.76L458.6,395.9L455.19,412.29L451.79,409.71L448.39,423.51L444.98,423.93L441.59,425.28L438.18,428.55L434.79,436.04L431.38,436.75L424.59,434.8L421.2,437.5L417.79,432.89L414.39,430.96L404.21,430.34L400.82,428.52L394.03,428.05L390.63,428.52L387.23,427.99L383.83,429.14L380.43,429.28L377.02,432.88L373.62,435.24L370.23,439.14L366.83,461.99L363.43,466.94L360.04,469.05L356.64,466.51L353.25,468.27L349.85,480.12L346.46,485.97L343.06,488.63L339.62,465.55L336.23,465.94L332.82,462.06L329.43,462.06L326.03,460.96L322.64,460.96L319.25,465.63L315.84,466.77L312.45,466.77L309.05,465.76L305.66,474.54L302.28,474.14L295.44,472.06L292.05,476.35L288.66,507.64L285.25,507.3L281.86,512.6L278.44,514.1L275.04,516.61L271.65,516.61L268.26,519.01L264.86,516.61L261.47,516.52L258.08,518.09L254.69,518.09L251.3,518.65L247.88,521.06L244.48,527.01L237.69,525.34L234.3,526.03L230.9,528.89L227.5,529.27L224.1,532.67L220.71,536.84L217.32,536.9L213.92,541.86L210.52,543.83L207.13,546.35L196.96,548.33L193.54,549.24L190.15,553.16L186.74,558.02L183.35,559.67L179.95,561.55L176.56,561.55L173.17,561.55L169.77,563.74L166.37,563.74L162.97,566.47L159.57,572L3.41,572Z" style="fill: rgb(148, 103, 189); fill-opacity: 0.1; stroke-width: 0;"/></g></g><g class="errorbars"/><g class="lines"><path class="js-line" d="M3.41,572L159.57,572L162.97,566.47L166.37,563.74L169.77,563.74L173.17,561.55L176.56,561.55L179.95,561.55L183.35,559.67L186.74,558.02L190.15,553.16L193.54,549.24L196.96,548.33L207.13,546.35L210.52,543.83L213.92,541.86L217.32,536.9L220.71,536.84L224.1,532.67L227.5,529.27L230.9,528.89L234.3,526.03L237.69,525.34L244.48,527.01L247.88,521.06L251.3,518.65L254.69,518.09L258.08,518.09L261.47,516.52L264.86,516.61L268.26,519.01L271.65,516.61L275.04,516.61L278.44,514.1L281.86,512.6L285.25,507.3L288.66,507.64L292.05,476.35L295.44,472.06L302.28,474.14L305.66,474.54L309.05,465.76L312.45,466.77L315.84,466.77L319.25,465.63L322.64,460.96L326.03,460.96L329.43,462.06L332.82,462.06L336.23,465.94L339.62,465.55L343.06,488.63L346.46,485.97L349.85,480.12L353.25,468.27L356.64,466.51L360.04,469.05L363.43,466.94L366.83,461.99L370.23,439.14L373.62,435.24L377.02,432.88L380.43,429.28L383.83,429.14L387.23,427.99L390.63,428.52L394.03,428.05L400.82,428.52L404.21,430.34L414.39,430.96L417.79,432.89L421.2,437.5L424.59,434.8L431.38,436.75L434.79,436.04L438.18,428.55L441.59,425.28L444.98,423.93L448.39,423.51L451.79,409.71L455.19,412.29L458.6,395.9L461.99,392.76L465.4,386.32L468.8,383.71L472.2,391.52L475.6,375.63L478.99,366.03L482.39,353.59L485.8,346.54L489.19,345.08L492.59,340.12L495.99,336.78L499.38,333.61L502.77,336.05L509.6,339.88L513,332.75L516.44,333.26L519.89,324.57L523.28,326.09L526.67,328.5L530.07,313.73L533.46,311.66L536.85,314.45L540.25,313.5L543.65,286.57L547.04,283.4L550.42,286.57L553.81,288.45L557.22,282.64L560.61,279.45L564.01,263.36L567.4,254.62L570.81,247.06L574.21,242.11L577.6,243.69L580.99,252.64L584.39,253.95L587.79,253.62L591.19,253.62L594.6,270.63L597.99,273.84L601.4,272.19L604.79,266.92L608.19,272.19L611.58,270.14L614.98,291.06L618.36,293.54L621.77,293.54L625.16,301.46L628.58,296.64L631.97,295.96L635.38,289.68L638.77,284.47L642.17,271.36L645.56,276.93L649,273.15L652.39,268.56L655.8,266.56L659.21,261.28L662.61,267.8L666,267.55L669.4,265.98L672.8,268.58L676.19,268.9L679.58,265.87L682.97,265.87L686.39,265.87L689.78,266.92L693.19,269.55" style="vector-effect: none; fill: none; stroke: rgb(171, 99, 250); stroke-opacity: 1; stroke-width: 0px; opacity: 1;"/></g><g class="points"/><g class="text"/></g><g class="trace scatter traceb88282" style="stroke-miterlimit: 2;"><g class="fills"/><g class="errorbars"/><g class="lines"><path class="js-line" d="M3.41,572L159.57,572L162.97,575.26L169.77,575.72L173.17,575.64L183.35,575.25L186.74,574.63L190.15,574.95L193.54,574.33L207.13,568.14L210.52,566.12L217.32,566.24L220.71,564.04L224.1,563.66L227.5,560.26L230.9,556.09L234.3,554.42L237.69,557.38L241.08,558.85L244.48,560.24L247.88,559.38L254.69,555.54L258.08,555.54L261.47,554.84L264.86,559.29L268.26,561.43L271.65,559.29L278.44,559.54L281.86,558.76L285.25,559.52L288.66,556.92L292.05,565.51L295.44,560.72L302.28,563.18L305.66,565.05L309.05,560.21L312.45,566.01L315.84,566.01L319.25,562.61L322.64,560.47L326.03,560.47L329.43,561.63L332.82,561.63L336.23,566.83L339.62,564.96L343.06,557.77L346.46,558.16L349.85,557.19L353.25,555.43L356.64,550.38L360.04,550.1L366.83,529.93L370.23,532.35L373.62,531.71L377.02,527.27L380.43,521.78L383.83,519.65L387.23,507.18L390.63,497.58L394.03,493.5L397.41,497.58L404.21,498.03L407.61,495.73L411,497.41L414.39,497.41L417.79,500.01L421.2,497.68L424.59,498.11L427.98,499.67L431.38,509.77L434.79,515.02L438.18,515.7L441.59,514.44L444.98,513.52L448.39,518.48L451.79,518.65L455.19,522.89L458.6,521.11L461.99,517.44L468.8,508.34L472.2,511.88L475.6,514.15L478.99,507.86L485.8,475.14L489.19,474.33L492.59,470.21L495.99,464.48L499.38,440.4L502.77,453.85L506.16,440.54L509.6,440.94L513,434.46L516.44,436.21L519.89,429.01L523.28,418.41L526.67,418.28L530.07,419.43L533.46,419.23L536.85,423.24L540.25,421.93L543.65,426.16L547.04,422.52L550.42,426.16L553.81,408.39L557.22,398.31L560.61,394.69L564.01,394.89L567.4,419.52L570.81,418.01L574.21,409.34L577.6,412.3L580.99,421.51L584.39,422.46L587.79,420.52L591.19,420.52L594.6,419.41L597.99,425.27L604.79,418.57L608.19,422.38L611.58,458.48L614.98,460.26L618.36,437.34L621.77,437.34L625.16,440.78L628.58,438.78L631.97,437.2L635.38,436.67L642.17,430.02L645.56,438.07L649,432.77L652.39,430.55L655.8,430.28L659.21,426.48L662.61,379.1L666,374.81L669.4,367.31L672.8,366.98L676.19,362.11L679.58,360.61L686.39,360.61L689.78,368.63L693.19,368.28" style="vector-effect: none; fill: none; stroke: rgb(255, 161, 90); stroke-opacity: 1; stroke-width: 0px; opacity: 1;"/></g><g class="points"/><g class="text"/></g><g class="trace scatter traceeb0797" style="stroke-miterlimit: 2; opacity: 1;"><g class="fills"/><g class="errorbars"/><g class="lines"><path class="js-line" d="M0.02,572L139.21,572L142.6,570.87L166.36,570.87L169.76,569.73L186.72,569.73L190.12,567.46L193.52,568.6L196.91,568.6L200.31,567.46L203.71,567.46L207.09,567.46L210.49,566.33L217.26,566.33L220.66,567.46L224.08,567.46L227.47,566.33L237.65,566.33L241.05,568.6L244.44,568.6L247.83,565.19L251.23,566.33L254.65,565.19L258.03,564.06L261.43,565.19L275.01,565.19L278.42,566.33L281.82,565.19L285.2,565.19L288.59,564.06L291.99,564.06L295.38,564.06L298.77,567.46L302.16,566.33L305.57,567.46L308.97,568.6L312.36,568.6L322.53,561.79L325.93,560.65L329.32,559.52L332.71,560.65L336.1,558.38L339.5,557.25L342.91,557.25L346.31,552.71L349.7,551.57L353.09,551.57L359.87,547.03L363.26,547.03L373.46,553.84L376.87,553.84L380.26,553.84L383.65,551.57L390.45,553.84L393.84,551.57L397.23,554.98L400.62,556.11L410.81,556.11L414.21,554.98L417.62,552.71L421.01,551.57L424.42,550.44L427.81,548.17L431.22,549.3L434.6,551.57L438,552.71L441.4,549.3L444.81,551.57L448.22,551.57L451.6,548.17L455.01,545.9L458.41,547.03L461.8,549.3L465.19,544.76L468.58,544.76L471.97,539.09L475.38,536.82L478.77,533.41L482.17,523.2L485.58,520.93L488.97,519.79L492.37,523.2L495.78,523.2L512.84,517.52L516.23,522.06L519.63,516.39L523.03,523.2L526.45,522.06L529.85,527.74L533.26,537.95L536.66,537.95L540.06,537.95L543.45,535.68L546.85,532.28L550.24,531.14L553.63,530.01L557.04,530.01L560.43,527.74L563.83,523.2L567.23,519.79L570.61,523.2L574.02,515.25L577.43,517.52L580.83,516.39L584.23,509.58L591.05,502.77L594.43,501.63L601.23,499.37L604.63,499.37L608.02,501.63L611.42,502.77L618.22,507.31L621.62,505.04L625.03,508.44L628.47,506.17L631.86,505.04L635.26,507.31L638.65,509.58L642.04,512.98L645.45,510.71L648.84,512.98L652.23,514.12L655.65,514.12L659.04,507.31L662.43,505.04L665.83,499.37L669.22,498.23L672.62,500.5L676.02,500.5L682.83,498.23L686.25,500.5L689.69,497.1L693.08,494.83" style="vector-effect: none; fill: none; stroke: rgb(140, 86, 75); stroke-opacity: 1; stroke-width: 2.5px; opacity: 1;"/></g><g class="points"/><g class="text"/></g><g class="trace scatter trace8a6b45" style="stroke-miterlimit: 2;"><g class="fills"><g><path class="js-fill" d="M3.4,572L139.21,572L142.6,575.26L186.72,575.72L190.12,577.57L196.91,578.14L200.31,577.57L237.65,576.83L241.05,575.64L244.44,575.64L247.83,579.29L251.23,580.23L254.65,579.29L258.03,578.25L261.43,579.29L275.01,579.29L278.42,580.23L281.82,579.29L285.2,579.29L288.59,578.25L291.99,578.25L295.38,578.25L298.77,575.25L302.16,574.63L305.57,575.25L315.74,576.83L319.14,576.71L325.93,574.55L329.32,573.11L332.71,574.55L336.1,573.05L346.31,572.92L349.7,571.09L353.09,571.09L356.49,568.24L359.87,565.08L363.26,565.08L373.46,573.64L376.87,573.64L380.26,573.64L383.65,571.09L390.45,572.56L393.84,570L397.23,567.84L400.62,569.71L410.81,569.71L414.21,567.84L424.42,560.54L427.81,560.71L438,568.29L441.4,569.31L444.81,572.12L448.22,572.12L451.6,569.31L455.01,568.06L458.41,569.2L461.8,572.2L468.58,572.66L471.97,572.81L475.38,570.54L478.77,571.19L482.17,569.54L485.58,565.51L488.97,563.18L492.37,567.25L495.78,567.25L499.2,565.45L505.99,563.65L509.43,561.76L512.84,559.32L516.23,563.99L519.63,561.64L523.03,568.64L526.45,567.77L529.85,571.76L540.06,571.39L543.45,569.03L546.85,564.23L550.24,563.19L557.04,563.36L560.43,561.66L567.23,553.52L570.61,551.88L574.02,545.89L577.43,548.52L580.83,546.2L584.23,537.38L587.63,533.37L591.05,526.38L601.23,521.15L604.63,521.15L608.02,525.6L611.42,527.24L614.82,529.51L618.22,533.21L625.03,532.06L628.47,528.34L631.86,525.86L635.26,525.73L638.65,527.4L642.04,534.19L645.45,534.62L648.84,537.79L652.23,538.87L655.65,538.87L659.04,538.3L662.43,536.21L665.83,534.88L669.22,532.68L672.62,534.06L676.02,534.06L682.83,531.46L686.25,535.27L689.69,532.22L693.08,526.91L693.08,462.74L689.69,461.97L686.25,465.73L682.83,465L676.02,466.94L672.62,466.94L669.22,463.78L665.83,463.85L662.43,473.87L659.04,476.32L655.65,489.37L652.23,489.37L648.84,488.17L645.45,486.81L642.04,491.77L638.65,491.76L635.26,488.88L631.86,484.22L628.47,484.01L625.03,484.83L621.62,477.39L618.22,481.41L614.82,480.57L611.42,478.3L604.63,477.58L601.23,477.58L591.05,479.16L587.63,478.98L584.23,481.78L580.83,486.58L577.43,486.53L574.02,484.62L570.61,494.52L567.23,486.07L563.83,488.63L560.43,493.81L557.04,496.66L553.63,496.66L543.45,502.33L540.06,504.52L536.66,504.52L533.26,504.52L529.85,483.72L526.45,476.35L523.03,477.76L519.63,471.13L516.23,480.13L512.84,475.72L509.43,475.56L505.99,475.93L502.59,477.29L499.2,478.68L492.37,479.15L488.97,476.41L485.58,476.35L482.17,476.86L478.77,495.64L475.38,503.1L471.97,505.37L468.58,516.86L465.19,516.86L461.8,526.4L458.41,524.87L455.01,523.73L448.22,531.02L444.81,531.02L441.4,529.3L438,537.12L434.6,536.9L431.22,535.4L427.81,535.62L424.42,540.33L417.62,540.05L414.21,542.11L400.62,542.51L397.23,542.11L393.84,533.15L390.45,535.12L383.65,532.05L380.26,534.04L373.46,534.04L370.05,532.05L363.26,528.98L359.87,528.98L356.49,530.36L353.09,532.05L349.7,532.05L346.31,532.5L342.91,541.66L339.5,541.66L332.71,546.75L329.32,545.92L322.53,547.69L319.14,551.4L312.36,561.55L308.97,561.55L305.57,559.67L302.16,558.02L298.77,559.67L295.38,549.86L291.99,549.86L288.59,549.86L285.2,551.09L281.82,551.09L278.42,552.43L275.01,551.09L261.43,551.09L258.03,549.86L254.65,551.09L251.23,552.43L247.83,551.09L244.44,561.55L241.05,561.55L237.65,555.82L227.47,555.82L224.08,557.35L220.66,557.35L217.26,555.82L210.49,555.82L207.09,557.35L203.71,557.35L200.31,557.35L196.91,559.05L193.52,559.05L190.12,557.35L186.72,563.74L169.76,563.74L166.36,566.47L142.6,566.47L139.21,572L3.4,572Z" style="fill: rgb(140, 86, 75); fill-opacity: 0.1; stroke-width: 0;"/></g></g><g class="errorbars"/><g class="lines"><path class="js-line" d="M3.4,572L139.21,572L142.6,566.47L166.36,566.47L169.76,563.74L186.72,563.74L190.12,557.35L193.52,559.05L196.91,559.05L200.31,557.35L203.71,557.35L207.09,557.35L210.49,555.82L217.26,555.82L220.66,557.35L224.08,557.35L227.47,555.82L237.65,555.82L241.05,561.55L244.44,561.55L247.83,551.09L251.23,552.43L254.65,551.09L258.03,549.86L261.43,551.09L275.01,551.09L278.42,552.43L281.82,551.09L285.2,551.09L288.59,549.86L291.99,549.86L295.38,549.86L298.77,559.67L302.16,558.02L305.57,559.67L308.97,561.55L312.36,561.55L319.14,551.4L322.53,547.69L329.32,545.92L332.71,546.75L339.5,541.66L342.91,541.66L346.31,532.5L349.7,532.05L353.09,532.05L356.49,530.36L359.87,528.98L363.26,528.98L370.05,532.05L373.46,534.04L380.26,534.04L383.65,532.05L390.45,535.12L393.84,533.15L397.23,542.11L400.62,542.51L414.21,542.11L417.62,540.05L424.42,540.33L427.81,535.62L431.22,535.4L434.6,536.9L438,537.12L441.4,529.3L444.81,531.02L448.22,531.02L455.01,523.73L458.41,524.87L461.8,526.4L465.19,516.86L468.58,516.86L471.97,505.37L475.38,503.1L478.77,495.64L482.17,476.86L485.58,476.35L488.97,476.41L492.37,479.15L499.2,478.68L502.59,477.29L505.99,475.93L509.43,475.56L512.84,475.72L516.23,480.13L519.63,471.13L523.03,477.76L526.45,476.35L529.85,483.72L533.26,504.52L536.66,504.52L540.06,504.52L543.45,502.33L553.63,496.66L557.04,496.66L560.43,493.81L563.83,488.63L567.23,486.07L570.61,494.52L574.02,484.62L577.43,486.53L580.83,486.58L584.23,481.78L587.63,478.98L591.05,479.16L601.23,477.58L604.63,477.58L611.42,478.3L614.82,480.57L618.22,481.41L621.62,477.39L625.03,484.83L628.47,484.01L631.86,484.22L635.26,488.88L638.65,491.76L642.04,491.77L645.45,486.81L648.84,488.17L652.23,489.37L655.65,489.37L659.04,476.32L662.43,473.87L665.83,463.85L669.22,463.78L672.62,466.94L676.02,466.94L682.83,465L686.25,465.73L689.69,461.97L693.08,462.74" style="vector-effect: none; fill: none; stroke: rgb(255, 102, 146); stroke-opacity: 1; stroke-width: 0px; opacity: 1;"/></g><g class="points"/><g class="text"/></g><g class="trace scatter trace2b3743" style="stroke-miterlimit: 2;"><g class="fills"/><g class="errorbars"/><g class="lines"><path class="js-line" d="M3.4,572L139.21,572L142.6,575.26L186.72,575.72L190.12,577.57L196.91,578.14L200.31,577.57L237.65,576.83L241.05,575.64L244.44,575.64L247.83,579.29L251.23,580.23L254.65,579.29L258.03,578.25L261.43,579.29L275.01,579.29L278.42,580.23L281.82,579.29L285.2,579.29L288.59,578.25L291.99,578.25L295.38,578.25L298.77,575.25L302.16,574.63L305.57,575.25L315.74,576.83L319.14,576.71L325.93,574.55L329.32,573.11L332.71,574.55L336.1,573.05L346.31,572.92L349.7,571.09L353.09,571.09L356.49,568.24L359.87,565.08L363.26,565.08L373.46,573.64L376.87,573.64L380.26,573.64L383.65,571.09L390.45,572.56L393.84,570L397.23,567.84L400.62,569.71L410.81,569.71L414.21,567.84L424.42,560.54L427.81,560.71L438,568.29L441.4,569.31L444.81,572.12L448.22,572.12L451.6,569.31L455.01,568.06L458.41,569.2L461.8,572.2L468.58,572.66L471.97,572.81L475.38,570.54L478.77,571.19L482.17,569.54L485.58,565.51L488.97,563.18L492.37,567.25L495.78,567.25L499.2,565.45L505.99,563.65L509.43,561.76L512.84,559.32L516.23,563.99L519.63,561.64L523.03,568.64L526.45,567.77L529.85,571.76L540.06,571.39L543.45,569.03L546.85,564.23L550.24,563.19L557.04,563.36L560.43,561.66L567.23,553.52L570.61,551.88L574.02,545.89L577.43,548.52L580.83,546.2L584.23,537.38L587.63,533.37L591.05,526.38L601.23,521.15L604.63,521.15L608.02,525.6L611.42,527.24L614.82,529.51L618.22,533.21L625.03,532.06L628.47,528.34L631.86,525.86L635.26,525.73L638.65,527.4L642.04,534.19L645.45,534.62L648.84,537.79L652.23,538.87L655.65,538.87L659.04,538.3L662.43,536.21L665.83,534.88L669.22,532.68L672.62,534.06L676.02,534.06L682.83,531.46L686.25,535.27L689.69,532.22L693.08,526.91" style="vector-effect: none; fill: none; stroke: rgb(182, 232, 128); stroke-opacity: 1; stroke-width: 0px; opacity: 1;"/></g><g class="points"/><g class="text"/></g></g></g><g class="overplot"/><path class="xlines-above crisp" d="M0,0" style="fill: none;"/><path class="ylines-above crisp" d="M0,0" style="fill: none;"/><g class="overlines-above"/><g class="xaxislayer-above"><g class="xtick"><text text-anchor="middle" x="0" y="603" transform="translate(89,0)" style="font-family: 'Open Sans', verdana, arial, sans-serif; font-size: 30px; fill: rgb(42, 63, 95); fill-opacity: 1; white-space: pre; opacity: 1;">0</text></g><g class="xtick"><text text-anchor="middle" x="0" y="603" style="font-family: 'Open Sans', verdana, arial, sans-serif; font-size: 30px; fill: rgb(42, 63, 95); fill-opacity: 1; white-space: pre; opacity: 1;" transform="translate(427.57,0)">1M</text></g><g class="xtick"><text text-anchor="middle" x="0" y="603" style="font-family: 'Open Sans', verdana, arial, sans-serif; font-size: 30px; fill: rgb(42, 63, 95); fill-opacity: 1; white-space: pre; opacity: 1;" transform="translate(766.14,0)">2M</text></g></g><g class="yaxislayer-above"><g class="ytick"><text text-anchor="end" x="88" y="10.5" transform="translate(0,463.05)" style="font-family: 'Open Sans', verdana, arial, sans-serif; font-size: 30px; fill: rgb(42, 63, 95); fill-opacity: 1; white-space: pre; opacity: 1;">0.2</text></g><g class="ytick"><text text-anchor="end" x="88" y="10.5" style="font-family: 'Open Sans', verdana, arial, sans-serif; font-size: 30px; fill: rgb(42, 63, 95); fill-opacity: 1; white-space: pre; opacity: 1;" transform="translate(0,354.1)">0.4</text></g><g class="ytick"><text text-anchor="end" x="88" y="10.5" style="font-family: 'Open Sans', verdana, arial, sans-serif; font-size: 30px; fill: rgb(42, 63, 95); fill-opacity: 1; white-space: pre; opacity: 1;" transform="translate(0,245.14)">0.6</text></g><g class="ytick"><text text-anchor="end" x="88" y="10.5" style="font-family: 'Open Sans', verdana, arial, sans-serif; font-size: 30px; fill: rgb(42, 63, 95); fill-opacity: 1; white-space: pre; opacity: 1;" transform="translate(0,136.19)">0.8</text></g><g class="ytick"><text text-anchor="end" x="88" y="10.5" style="font-family: 'Open Sans', verdana, arial, sans-serif; font-size: 30px; fill: rgb(42, 63, 95); fill-opacity: 1; white-space: pre; opacity: 1;" transform="translate(0,27.24)">1</text></g></g><g class="overaxes-above"/></g></g><g class="polarlayer"/><g class="smithlayer"/><g class="ternarylayer"/><g class="geolayer"/><g class="funnelarealayer"/><g class="pielayer"/><g class="iciclelayer"/><g class="treemaplayer"/><g class="sunburstlayer"/><g class="glimages"/><defs id="topdefs-b908c0"><g class="clips"/></defs><g class="layer-above"><g class="imagelayer"/><g class="shapelayer"/></g><g class="infolayer"><g class="g-gtitle"/><g class="g-xtitle" transform="translate(0,-7.7000000000000455)"><text class="xtitle" x="444.5" y="649.7" text-anchor="middle" style="font-family: 'Open Sans', verdana, arial, sans-serif; font-size: 36px; fill: rgb(42, 63, 95); opacity: 1; font-weight: normal; white-space: pre;">Time Steps</text></g><g class="g-ytitle" transform="translate(32.4189453125,0)"><text class="ytitle" transform="rotate(-90,0.5812499999999972,286)" x="0.5812499999999972" y="286" text-anchor="middle" style="font-family: 'Open Sans', verdana, arial, sans-serif; font-size: 36px; fill: rgb(42, 63, 95); opacity: 1; font-weight: normal; white-space: pre;">Test Win Rate %</text></g></g></svg>