<svg class="main-svg" xmlns="http://www.w3.org/2000/svg" xmlns:xlink="http://www.w3.org/1999/xlink" width="2400" height="1950" style="" viewBox="0 0 800 650"><rect x="0" y="0" width="800" height="650" style="fill: rgb(255, 255, 255); fill-opacity: 1;"/><defs id="defs-545b17"><g class="clips"><clipPath id="clip545b17xyplot" class="plotclip"><rect width="711" height="572"/></clipPath><clipPath class="axesclip" id="clip545b17x"><rect x="89" y="0" width="711" height="650"/></clipPath><clipPath class="axesclip" id="clip545b17y"><rect x="0" y="0" width="800" height="572"/></clipPath><clipPath class="axesclip" id="clip545b17xy"><rect x="89" y="0" width="711" height="572"/></clipPath></g><g class="gradients"/><g class="patterns"/></defs><g class="bglayer"/><g class="layer-below"><g class="imagelayer"/><g class="shapelayer"/></g><g class="cartesianlayer"><g class="subplot xy"><g class="layer-subplot"><g class="shapelayer"/><g class="imagelayer"/></g><g class="minor-gridlayer"><g class="x"/><g class="y"/></g><g class="gridlayer"><g class="x"><path class="xgrid crisp" transform="translate(427.57,0)" d="M0,0v572" style="stroke: rgb(235, 240, 248); stroke-opacity: 1; stroke-width: 1px;"/><path class="xgrid crisp" transform="translate(766.14,0)" d="M0,0v572" style="stroke: rgb(235, 240, 248); stroke-opacity: 1; stroke-width: 1px;"/></g><g class="y"><path class="ygrid crisp" transform="translate(0,463.05)" d="M89,0h711" style="stroke: rgb(235, 240, 248); stroke-opacity: 1; stroke-width: 1px;"/><path class="ygrid crisp" transform="translate(0,354.1)" d="M89,0h711" style="stroke: rgb(235, 240, 248); stroke-opacity: 1; stroke-width: 1px;"/><path class="ygrid crisp" transform="translate(0,245.14)" d="M89,0h711" style="stroke: rgb(235, 240, 248); stroke-opacity: 1; stroke-width: 1px;"/><path class="ygrid crisp" transform="translate(0,136.19)" d="M89,0h711" style="stroke: rgb(235, 240, 248); stroke-opacity: 1; stroke-width: 1px;"/><path class="ygrid crisp" transform="translate(0,27.24)" d="M89,0h711" style="stroke: rgb(235, 240, 248); stroke-opacity: 1; stroke-width: 1px;"/></g></g><g class="zerolinelayer"><path class="xzl zl crisp" transform="translate(89,0)" d="M0,0v572" style="stroke: rgb(235, 240, 248); stroke-opacity: 1; stroke-width: 2px;"/><path class="yzl zl crisp" transform="translate(0,572)" d="M89,0h711" style="stroke: rgb(235, 240, 248); stroke-opacity: 1; stroke-width: 2px;"/></g><path class="xlines-below"/><path class="ylines-below"/><g class="overlines-below"/><g class="xaxislayer-below"/><g class="yaxislayer-below"/><g class="overaxes-below"/><g class="plot" transform="translate(89,0)" clip-path="url(#clip545b17xyplot)"><g class="scatterlayer mlayer"><g class="trace scatter tracee807f5" style="stroke-miterlimit: 2; opacity: 1;"><g class="fills"/><g class="errorbars"/><g class="lines"><path class="js-line" d="M0.01,572L176.3,572L179.69,570.87L193.25,570.87L196.65,566.33L200.04,565.19L203.42,562.92L206.81,561.79L210.2,558.38L216.99,556.11L220.38,552.71L223.77,547.03L227.16,547.03L230.55,539.09L233.94,536.82L237.33,534.55L240.72,530.01L244.12,516.39L247.51,511.85L254.29,482.34L257.67,473.26L264.46,447.16L267.85,440.35L271.24,432.4L274.64,417.65L278.03,397.22L281.42,385.87L291.6,327.99L294.99,318.91L298.39,304.16L301.79,298.48L305.19,290.54L308.57,274.65L311.97,263.3L315.36,248.55L322.15,213.37L325.54,204.29L328.94,192.94L332.33,184.99L335.72,181.59L339.1,172.51L345.89,167.97L349.29,163.43L352.68,165.7L356.07,165.7L359.46,161.16L362.85,162.29L366.24,171.37L369.64,169.1L373.04,163.43L376.43,166.83L379.83,165.7L383.22,158.89L386.62,148.67L390.02,148.67L400.19,128.25L403.59,115.76L406.98,107.82L410.37,105.55L413.77,97.6L417.17,87.39L420.56,83.98L423.96,83.98L427.34,79.44L430.73,79.44L434.12,80.58L437.51,83.98L440.91,83.98L444.31,82.85L447.7,82.85L451.09,86.25L454.48,85.12L457.87,85.12L461.27,82.85L464.67,85.12L468.07,87.39L471.46,85.12L474.85,85.12L478.24,83.98L481.65,83.98L485.04,85.12L491.84,82.85L495.23,79.44L502.01,81.71L505.4,79.44L512.18,77.17L515.57,77.17L518.97,71.5L522.36,74.9L525.75,79.44L529.15,77.17L532.54,83.98L535.93,85.12L542.72,85.12L546.12,88.52L549.53,87.39L552.92,82.85L556.31,81.71L559.7,86.25L563.11,89.66L566.5,86.25L573.28,88.52L576.68,83.98L580.07,82.85L583.47,77.17L586.86,77.17L590.24,79.44L593.65,79.44L597.04,76.04L600.43,74.9L603.83,77.17L607.23,77.17L610.63,73.77L614.02,71.5L617.42,73.77L620.81,72.63L624.2,69.23L627.6,66.96L630.99,70.37L634.37,66.96L637.76,65.83L641.15,62.42L644.54,61.29L647.93,64.69L651.35,63.56L654.74,60.15L658.14,62.42L661.53,61.29L664.93,63.56L668.32,62.42L671.71,63.56L675.1,61.29L678.49,63.56L681.88,64.69L685.28,68.1L688.67,71.5L692.06,71.5" style="vector-effect: none; fill: none; stroke: rgb(31, 119, 180); stroke-opacity: 1; stroke-width: 2.5px; opacity: 1;"/></g><g class="points"/><g class="text"/></g><g class="trace scatter traceabbcf0" style="stroke-miterlimit: 2;"><g class="fills"><g><path class="js-fill" d="M3.4,572L176.3,572L179.69,575.26L193.25,575.26L196.65,584.14L213.59,578.46L216.99,576.93L220.38,574.87L223.77,574.23L227.16,574.23L230.55,578.47L237.33,571.62L240.72,566.33L244.12,570.02L247.51,569.35L250.89,569.26L254.29,567.09L257.67,556.96L261.06,550.6L267.85,525.34L271.24,514.86L274.64,508.98L278.03,485.79L281.42,479.88L284.82,457.32L291.6,403.49L294.99,397.42L298.39,379.87L301.79,375.01L305.19,371.13L308.57,351.56L311.97,343.37L315.36,331.7L322.15,257.7L325.54,251.04L328.94,244.2L332.33,233.34L345.89,211.83L349.29,205.62L352.68,213.36L356.07,213.36L359.46,210.53L362.85,211.91L366.24,226.67L369.64,225.44L373.04,224.47L376.43,227.26L383.22,228.33L386.62,225.58L390.02,225.58L393.41,217.03L396.81,209.45L400.19,206.12L403.59,181.13L406.98,169.69L410.37,167.86L413.77,157.23L417.17,125.38L420.56,120.19L423.96,120.19L427.34,105.55L434.12,105.39L437.51,103.99L440.91,103.99L444.31,101.57L451.09,101.84L454.48,100.62L457.87,100.62L461.27,101.57L464.67,103.09L468.07,110.47L474.85,110.7L478.24,108.63L488.44,108.63L491.84,107.32L495.23,105.55L498.62,107.78L502.01,109.91L505.4,109.26L508.8,108.49L512.18,109L515.57,109L518.97,97.08L522.36,99.99L525.75,110.61L529.15,108.34L532.54,125.02L535.93,126.22L539.32,126.22L542.72,126.22L546.12,128.08L549.53,126.46L552.92,122.76L556.31,123.01L559.7,128.87L563.11,129.15L566.5,127.39L569.89,128.02L573.28,129.62L576.68,121.87L580.07,121.7L583.47,105.56L586.86,105.56L590.24,107.83L593.65,107.83L600.43,103.82L603.83,104.83L607.23,104.83L610.63,97.38L614.02,96.25L617.42,97.38L620.81,96.42L624.2,90.44L627.6,88.94L630.99,92.53L634.37,88.94L637.76,86.64L641.15,82.22L644.54,80.59L647.93,85.24L651.35,83.77L654.74,81.94L658.14,82.22L661.53,80.59L664.93,82.72L668.32,81.14L671.71,82.72L675.1,82.63L678.49,84.77L685.28,92L688.67,100.13L692.06,100.13L692.06,42.87L688.67,42.87L685.28,44.19L681.88,41.31L678.49,42.34L675.1,39.95L671.71,44.4L668.32,43.7L664.93,44.4L661.53,41.98L658.14,42.62L654.74,38.36L651.35,43.34L647.93,44.14L644.54,41.98L641.15,42.62L637.76,45.01L634.37,44.98L630.99,48.2L627.6,44.98L624.2,48.02L620.81,48.85L617.42,50.16L614.02,46.75L610.63,50.16L603.83,49.52L600.43,45.99L597.04,46.65L593.65,51.06L590.24,51.06L586.86,48.79L583.47,48.79L580.07,43.99L573.28,47.42L569.89,46.76L566.5,45.12L563.11,50.17L559.7,43.64L556.31,40.41L552.92,42.94L549.53,48.32L546.12,48.96L542.72,44.02L539.32,44.02L535.93,44.02L532.54,42.95L529.15,46L522.36,49.82L518.97,45.92L512.18,45.35L508.8,48.13L505.4,49.63L502.01,53.52L498.62,53.38L495.23,53.33L491.84,58.38L488.44,59.34L485.04,61.22L481.65,59.34L471.46,59.54L468.07,64.31L464.67,67.15L461.27,64.13L457.87,69.62L454.48,69.62L451.09,70.67L447.7,64.13L440.91,63.98L437.51,63.98L434.12,55.77L430.73,53.33L427.34,53.33L423.96,47.78L420.56,47.78L417.17,49.4L413.77,37.98L410.37,43.23L406.98,45.94L403.59,50.4L400.19,50.37L396.81,60.66L390.02,71.77L386.62,71.77L383.22,89.45L379.83,103.69L376.43,106.4L373.04,102.39L369.64,112.76L366.24,116.07L362.85,112.68L359.46,111.79L356.07,118.04L352.68,118.04L349.29,121.24L345.89,124.11L339.1,123.14L335.72,134.98L332.33,136.64L328.94,141.68L325.54,157.53L322.15,169.03L318.75,165.6L315.36,165.4L311.97,183.23L308.57,197.74L301.79,221.95L298.39,228.44L291.6,252.5L288.21,260.47L278.03,308.65L274.64,326.32L271.24,349.95L267.85,355.36L264.46,357.15L261.06,370.96L257.67,389.57L254.29,397.6L247.51,454.35L244.12,462.76L240.72,493.69L237.33,497.47L233.94,498.5L230.55,499.7L227.16,519.83L223.77,519.83L220.38,530.54L216.99,535.29L210.2,536.85L206.81,542.7L203.42,543.76L200.04,547.22L196.65,548.51L193.25,566.47L179.69,566.47L176.3,572L3.4,572Z" style="fill: rgb(31, 119, 180); fill-opacity: 0.1; stroke-width: 0;"/></g></g><g class="errorbars"/><g class="lines"><path class="js-line" d="M3.4,572L176.3,572L179.69,566.47L193.25,566.47L196.65,548.51L200.04,547.22L203.42,543.76L206.81,542.7L210.2,536.85L216.99,535.29L220.38,530.54L223.77,519.83L227.16,519.83L230.55,499.7L233.94,498.5L237.33,497.47L240.72,493.69L244.12,462.76L247.51,454.35L254.29,397.6L257.67,389.57L261.06,370.96L264.46,357.15L267.85,355.36L271.24,349.95L274.64,326.32L278.03,308.65L288.21,260.47L291.6,252.5L298.39,228.44L301.79,221.95L308.57,197.74L311.97,183.23L315.36,165.4L318.75,165.6L322.15,169.03L325.54,157.53L328.94,141.68L332.33,136.64L335.72,134.98L339.1,123.14L345.89,124.11L349.29,121.24L352.68,118.04L356.07,118.04L359.46,111.79L362.85,112.68L366.24,116.07L369.64,112.76L373.04,102.39L376.43,106.4L379.83,103.69L383.22,89.45L386.62,71.77L390.02,71.77L396.81,60.66L400.19,50.37L403.59,50.4L406.98,45.94L410.37,43.23L413.77,37.98L417.17,49.4L420.56,47.78L423.96,47.78L427.34,53.33L430.73,53.33L434.12,55.77L437.51,63.98L440.91,63.98L447.7,64.13L451.09,70.67L454.48,69.62L457.87,69.62L461.27,64.13L464.67,67.15L468.07,64.31L471.46,59.54L481.65,59.34L485.04,61.22L488.44,59.34L491.84,58.38L495.23,53.33L498.62,53.38L502.01,53.52L505.4,49.63L508.8,48.13L512.18,45.35L518.97,45.92L522.36,49.82L529.15,46L532.54,42.95L535.93,44.02L539.32,44.02L542.72,44.02L546.12,48.96L549.53,48.32L552.92,42.94L556.31,40.41L559.7,43.64L563.11,50.17L566.5,45.12L569.89,46.76L573.28,47.42L580.07,43.99L583.47,48.79L586.86,48.79L590.24,51.06L593.65,51.06L597.04,46.65L600.43,45.99L603.83,49.52L610.63,50.16L614.02,46.75L617.42,50.16L620.81,48.85L624.2,48.02L627.6,44.98L630.99,48.2L634.37,44.98L637.76,45.01L641.15,42.62L644.54,41.98L647.93,44.14L651.35,43.34L654.74,38.36L658.14,42.62L661.53,41.98L664.93,44.4L668.32,43.7L671.71,44.4L675.1,39.95L678.49,42.34L681.88,41.31L685.28,44.19L688.67,42.87L692.06,42.87" style="vector-effect: none; fill: none; stroke: rgb(239, 85, 59); stroke-opacity: 1; stroke-width: 0px; opacity: 1;"/></g><g class="points"/><g class="text"/></g><g class="trace scatter tracec276b9" style="stroke-miterlimit: 2;"><g class="fills"/><g class="errorbars"/><g class="lines"><path class="js-line" d="M3.4,572L176.3,572L179.69,575.26L193.25,575.26L196.65,584.14L213.59,578.46L216.99,576.93L220.38,574.87L223.77,574.23L227.16,574.23L230.55,578.47L237.33,571.62L240.72,566.33L244.12,570.02L247.51,569.35L250.89,569.26L254.29,567.09L257.67,556.96L261.06,550.6L267.85,525.34L271.24,514.86L274.64,508.98L278.03,485.79L281.42,479.88L284.82,457.32L291.6,403.49L294.99,397.42L298.39,379.87L301.79,375.01L305.19,371.13L308.57,351.56L311.97,343.37L315.36,331.7L322.15,257.7L325.54,251.04L328.94,244.2L332.33,233.34L345.89,211.83L349.29,205.62L352.68,213.36L356.07,213.36L359.46,210.53L362.85,211.91L366.24,226.67L369.64,225.44L373.04,224.47L376.43,227.26L383.22,228.33L386.62,225.58L390.02,225.58L393.41,217.03L396.81,209.45L400.19,206.12L403.59,181.13L406.98,169.69L410.37,167.86L413.77,157.23L417.17,125.38L420.56,120.19L423.96,120.19L427.34,105.55L434.12,105.39L437.51,103.99L440.91,103.99L444.31,101.57L451.09,101.84L454.48,100.62L457.87,100.62L461.27,101.57L464.67,103.09L468.07,110.47L474.85,110.7L478.24,108.63L488.44,108.63L491.84,107.32L495.23,105.55L498.62,107.78L502.01,109.91L505.4,109.26L508.8,108.49L512.18,109L515.57,109L518.97,97.08L522.36,99.99L525.75,110.61L529.15,108.34L532.54,125.02L535.93,126.22L539.32,126.22L542.72,126.22L546.12,128.08L549.53,126.46L552.92,122.76L556.31,123.01L559.7,128.87L563.11,129.15L566.5,127.39L569.89,128.02L573.28,129.62L576.68,121.87L580.07,121.7L583.47,105.56L586.86,105.56L590.24,107.83L593.65,107.83L600.43,103.82L603.83,104.83L607.23,104.83L610.63,97.38L614.02,96.25L617.42,97.38L620.81,96.42L624.2,90.44L627.6,88.94L630.99,92.53L634.37,88.94L637.76,86.64L641.15,82.22L644.54,80.59L647.93,85.24L651.35,83.77L654.74,81.94L658.14,82.22L661.53,80.59L664.93,82.72L668.32,81.14L671.71,82.72L675.1,82.63L678.49,84.77L685.28,92L688.67,100.13L692.06,100.13" style="vector-effect: none; fill: none; stroke: rgb(0, 204, 150); stroke-opacity: 1; stroke-width: 0px; opacity: 1;"/></g><g class="points"/><g class="text"/></g><g class="trace scatter trace8194e6" style="stroke-miterlimit: 2; opacity: 1;"><g class="fills"/><g class="errorbars"/><g class="lines"><path class="js-line" d="M0.01,572L691.42,572" style="vector-effect: none; fill: none; stroke: rgb(255, 127, 14); stroke-opacity: 1; stroke-width: 2.5px; opacity: 1;"/></g><g class="points"/><g class="text"/></g><g class="trace scatter trace2997de" style="stroke-miterlimit: 2;"><g class="fills"><g><path class="js-fill" d="M3.39,572L691.42,572L691.42,572L3.39,572Z" style="fill: rgb(255, 127, 14); fill-opacity: 0.1; stroke-width: 0;"/></g></g><g class="errorbars"/><g class="lines"><path class="js-line" d="M3.39,572L691.42,572" style="vector-effect: none; fill: none; stroke: rgb(255, 161, 90); stroke-opacity: 1; stroke-width: 0px; opacity: 1;"/></g><g class="points"/><g class="text"/></g><g class="trace scatter traceeba8d6" style="stroke-miterlimit: 2;"><g class="fills"/><g class="errorbars"/><g class="lines"><path class="js-line" d="M3.39,572L691.42,572" style="vector-effect: none; fill: none; stroke: rgb(25, 211, 243); stroke-opacity: 1; stroke-width: 0px; opacity: 1;"/></g><g class="points"/><g class="text"/></g><g class="trace scatter trace0a93dd" style="stroke-miterlimit: 2; opacity: 1;"><g class="fills"/><g class="errorbars"/><g class="lines"><path class="js-line" d="M0.01,572L691.67,572" style="vector-effect: none; fill: none; stroke: rgb(44, 160, 44); stroke-opacity: 1; stroke-width: 2.5px; opacity: 1;"/></g><g class="points"/><g class="text"/></g><g class="trace scatter traceccb619" style="stroke-miterlimit: 2;"><g class="fills"><g><path class="js-fill" d="M3.4,572L691.67,572L691.67,572L3.4,572Z" style="fill: rgb(44, 160, 44); fill-opacity: 0.1; stroke-width: 0;"/></g></g><g class="errorbars"/><g class="lines"><path class="js-line" d="M3.4,572L691.67,572" style="vector-effect: none; fill: none; stroke: rgb(182, 232, 128); stroke-opacity: 1; stroke-width: 0px; opacity: 1;"/></g><g class="points"/><g class="text"/></g><g class="trace scatter tracee2b1f6" style="stroke-miterlimit: 2;"><g class="fills"/><g class="errorbars"/><g class="lines"><path class="js-line" d="M3.4,572L691.67,572" style="vector-effect: none; fill: none; stroke: rgb(255, 151, 255); stroke-opacity: 1; stroke-width: 0px; opacity: 1;"/></g><g class="points"/><g class="text"/></g><g class="trace scatter trace1bab28" style="stroke-miterlimit: 2; opacity: 1;"><g class="fills"/><g class="errorbars"/><g class="lines"><path class="js-line" d="M0.01,572L213.55,572L216.94,570.87L244.07,570.87L247.46,569.73L264.4,569.73L267.79,570.87L277.95,570.87L281.34,569.73L294.91,569.73L298.3,570.87L328.79,570.87L332.18,572L552.51,572L555.9,570.87L603.36,570.87L606.75,572L691.49,572" style="vector-effect: none; fill: none; stroke: rgb(214, 39, 40); stroke-opacity: 1; stroke-width: 2.5px; opacity: 1;"/></g><g class="points"/><g class="text"/></g><g class="trace scatter trace192aa9" style="stroke-miterlimit: 2;"><g class="fills"><g><path class="js-fill" d="M3.39,572L213.55,572L216.94,575.26L328.79,575.26L332.18,572L552.51,572L555.9,575.26L603.36,575.26L606.75,572L691.49,572L691.49,572L606.75,572L603.36,566.47L555.9,566.47L552.51,572L332.18,572L328.79,566.47L298.3,566.47L294.91,563.74L281.34,563.74L277.95,566.47L267.79,566.47L264.4,563.74L247.46,563.74L244.07,566.47L216.94,566.47L213.55,572L3.39,572Z" style="fill: rgb(214, 39, 40); fill-opacity: 0.1; stroke-width: 0;"/></g></g><g class="errorbars"/><g class="lines"><path class="js-line" d="M3.39,572L213.55,572L216.94,566.47L244.07,566.47L247.46,563.74L264.4,563.74L267.79,566.47L277.95,566.47L281.34,563.74L294.91,563.74L298.3,566.47L328.79,566.47L332.18,572L552.51,572L555.9,566.47L603.36,566.47L606.75,572L691.49,572" style="vector-effect: none; fill: none; stroke: rgb(99, 110, 250); stroke-opacity: 1; stroke-width: 0px; opacity: 1;"/></g><g class="points"/><g class="text"/></g><g class="trace scatter traceb19af2" style="stroke-miterlimit: 2;"><g class="fills"/><g class="errorbars"/><g class="lines"><path class="js-line" d="M3.39,572L213.55,572L216.94,575.26L328.79,575.26L332.18,572L552.51,572L555.9,575.26L603.36,575.26L606.75,572L691.49,572" style="vector-effect: none; fill: none; stroke: rgb(239, 85, 59); stroke-opacity: 1; stroke-width: 0px; opacity: 1;"/></g><g class="points"/><g class="text"/></g><g class="trace scatter trace8d9820" style="stroke-miterlimit: 2; opacity: 1;"><g class="fills"/><g class="errorbars"/><g class="lines"><path class="js-line" d="M0.01,572L693.23,572" style="vector-effect: none; fill: none; stroke: rgb(148, 103, 189); stroke-opacity: 1; stroke-width: 2.5px; opacity: 1;"/></g><g class="points"/><g class="text"/></g><g class="trace scatter tracea8da4c" style="stroke-miterlimit: 2;"><g class="fills"><g><path class="js-fill" d="M3.4,572L693.23,572L693.23,572L3.4,572Z" style="fill: rgb(148, 103, 189); fill-opacity: 0.1; stroke-width: 0;"/></g></g><g class="errorbars"/><g class="lines"><path class="js-line" d="M3.4,572L693.23,572" style="vector-effect: none; fill: none; stroke: rgb(171, 99, 250); stroke-opacity: 1; stroke-width: 0px; opacity: 1;"/></g><g class="points"/><g class="text"/></g><g class="trace scatter trace77e348" style="stroke-miterlimit: 2;"><g class="fills"/><g class="errorbars"/><g class="lines"><path class="js-line" d="M3.4,572L693.23,572" style="vector-effect: none; fill: none; stroke: rgb(255, 161, 90); stroke-opacity: 1; stroke-width: 0px; opacity: 1;"/></g><g class="points"/><g class="text"/></g><g class="trace scatter trace074ba9" style="stroke-miterlimit: 2; opacity: 1;"><g class="fills"/><g class="errorbars"/><g class="lines"><path class="js-line" d="M0.01,572L693.29,572" style="vector-effect: none; fill: none; stroke: rgb(140, 86, 75); stroke-opacity: 1; stroke-width: 2.5px; opacity: 1;"/></g><g class="points"/><g class="text"/></g><g class="trace scatter tracea6c7af" style="stroke-miterlimit: 2;"><g class="fills"><g><path class="js-fill" d="M3.4,572L693.29,572L693.29,572L3.4,572Z" style="fill: rgb(140, 86, 75); fill-opacity: 0.1; stroke-width: 0;"/></g></g><g class="errorbars"/><g class="lines"><path class="js-line" d="M3.4,572L693.29,572" style="vector-effect: none; fill: none; stroke: rgb(255, 102, 146); stroke-opacity: 1; stroke-width: 0px; opacity: 1;"/></g><g class="points"/><g class="text"/></g><g class="trace scatter trace76cd7f" style="stroke-miterlimit: 2;"><g class="fills"/><g class="errorbars"/><g class="lines"><path class="js-line" d="M3.4,572L693.29,572" style="vector-effect: none; fill: none; stroke: rgb(182, 232, 128); stroke-opacity: 1; stroke-width: 0px; opacity: 1;"/></g><g class="points"/><g class="text"/></g></g></g><g class="overplot"/><path class="xlines-above crisp" d="M0,0" style="fill: none;"/><path class="ylines-above crisp" d="M0,0" style="fill: none;"/><g class="overlines-above"/><g class="xaxislayer-above"><g class="xtick"><text text-anchor="middle" x="0" y="603" transform="translate(89,0)" style="font-family: 'Open Sans', verdana, arial, sans-serif; font-size: 30px; fill: rgb(42, 63, 95); fill-opacity: 1; white-space: pre; opacity: 1;">0</text></g><g class="xtick"><text text-anchor="middle" x="0" y="603" style="font-family: 'Open Sans', verdana, arial, sans-serif; font-size: 30px; fill: rgb(42, 63, 95); fill-opacity: 1; white-space: pre; opacity: 1;" transform="translate(427.57,0)">1M</text></g><g class="xtick"><text text-anchor="middle" x="0" y="603" style="font-family: 'Open Sans', verdana, arial, sans-serif; font-size: 30px; fill: rgb(42, 63, 95); fill-opacity: 1; white-space: pre; opacity: 1;" transform="translate(766.14,0)">2M</text></g></g><g class="yaxislayer-above"><g class="ytick"><text text-anchor="end" x="88" y="10.5" transform="translate(0,463.05)" style="font-family: 'Open Sans', verdana, arial, sans-serif; font-size: 30px; fill: rgb(42, 63, 95); fill-opacity: 1; white-space: pre; opacity: 1;">0.2</text></g><g class="ytick"><text text-anchor="end" x="88" y="10.5" style="font-family: 'Open Sans', verdana, arial, sans-serif; font-size: 30px; fill: rgb(42, 63, 95); fill-opacity: 1; white-space: pre; opacity: 1;" transform="translate(0,354.1)">0.4</text></g><g class="ytick"><text text-anchor="end" x="88" y="10.5" style="font-family: 'Open Sans', verdana, arial, sans-serif; font-size: 30px; fill: rgb(42, 63, 95); fill-opacity: 1; white-space: pre; opacity: 1;" transform="translate(0,245.14)">0.6</text></g><g class="ytick"><text text-anchor="end" x="88" y="10.5" style="font-family: 'Open Sans', verdana, arial, sans-serif; font-size: 30px; fill: rgb(42, 63, 95); fill-opacity: 1; white-space: pre; opacity: 1;" transform="translate(0,136.19)">0.8</text></g><g class="ytick"><text text-anchor="end" x="88" y="10.5" style="font-family: 'Open Sans', verdana, arial, sans-serif; font-size: 30px; fill: rgb(42, 63, 95); fill-opacity: 1; white-space: pre; opacity: 1;" transform="translate(0,27.24)">1</text></g></g><g class="overaxes-above"/></g></g><g class="polarlayer"/><g class="smithlayer"/><g class="ternarylayer"/><g class="geolayer"/><g class="funnelarealayer"/><g class="pielayer"/><g class="iciclelayer"/><g class="treemaplayer"/><g class="sunburstlayer"/><g class="glimages"/><defs id="topdefs-545b17"><g class="clips"/></defs><g class="layer-above"><g class="imagelayer"/><g class="shapelayer"/></g><g class="infolayer"><g class="g-gtitle"/><g class="g-xtitle" transform="translate(0,-7.7000000000000455)"><text class="xtitle" x="444.5" y="649.7" text-anchor="middle" style="font-family: 'Open Sans', verdana, arial, sans-serif; font-size: 36px; fill: rgb(42, 63, 95); opacity: 1; font-weight: normal; white-space: pre;">Time Steps</text></g><g class="g-ytitle"/></g></svg>