<svg class="main-svg" xmlns="http://www.w3.org/2000/svg" xmlns:xlink="http://www.w3.org/1999/xlink" width="2400" height="1950" style="" viewBox="0 0 800 650"><rect x="0" y="0" width="800" height="650" style="fill: rgb(255, 255, 255); fill-opacity: 1;"/><defs id="defs-679851"><g class="clips"><clipPath id="clip679851xyplot" class="plotclip"><rect width="711" height="572"/></clipPath><clipPath class="axesclip" id="clip679851x"><rect x="89" y="0" width="711" height="650"/></clipPath><clipPath class="axesclip" id="clip679851y"><rect x="0" y="0" width="800" height="572"/></clipPath><clipPath class="axesclip" id="clip679851xy"><rect x="89" y="0" width="711" height="572"/></clipPath></g><g class="gradients"/><g class="patterns"/></defs><g class="bglayer"/><g class="layer-below"><g class="imagelayer"/><g class="shapelayer"/></g><g class="cartesianlayer"><g class="subplot xy"><g class="layer-subplot"><g class="shapelayer"/><g class="imagelayer"/></g><g class="minor-gridlayer"><g class="x"/><g class="y"/></g><g class="gridlayer"><g class="x"><path class="xgrid crisp" transform="translate(427.57,0)" d="M0,0v572" style="stroke: rgb(235, 240, 248); stroke-opacity: 1; stroke-width: 1px;"/><path class="xgrid crisp" transform="translate(766.14,0)" d="M0,0v572" style="stroke: rgb(235, 240, 248); stroke-opacity: 1; stroke-width: 1px;"/></g><g class="y"><path class="ygrid crisp" transform="translate(0,463.05)" d="M89,0h711" style="stroke: rgb(235, 240, 248); stroke-opacity: 1; stroke-width: 1px;"/><path class="ygrid crisp" transform="translate(0,354.1)" d="M89,0h711" style="stroke: rgb(235, 240, 248); stroke-opacity: 1; stroke-width: 1px;"/><path class="ygrid crisp" transform="translate(0,245.14)" d="M89,0h711" style="stroke: rgb(235, 240, 248); stroke-opacity: 1; stroke-width: 1px;"/><path class="ygrid crisp" transform="translate(0,136.19)" d="M89,0h711" style="stroke: rgb(235, 240, 248); stroke-opacity: 1; stroke-width: 1px;"/><path class="ygrid crisp" transform="translate(0,27.24)" d="M89,0h711" style="stroke: rgb(235, 240, 248); stroke-opacity: 1; stroke-width: 1px;"/></g></g><g class="zerolinelayer"><path class="xzl zl crisp" transform="translate(89,0)" d="M0,0v572" style="stroke: rgb(235, 240, 248); stroke-opacity: 1; stroke-width: 2px;"/><path class="yzl zl crisp" transform="translate(0,572)" d="M89,0h711" style="stroke: rgb(235, 240, 248); stroke-opacity: 1; stroke-width: 2px;"/></g><path class="xlines-below"/><path class="ylines-below"/><g class="overlines-below"/><g class="xaxislayer-below"/><g class="yaxislayer-below"/><g class="overaxes-below"/><g class="plot" transform="translate(89,0)" clip-path="url(#clip679851xyplot)"><g class="scatterlayer mlayer"><g class="trace scatter tracef9e665" style="stroke-miterlimit: 2; opacity: 1;"><g class="fills"/><g class="errorbars"/><g class="lines"><path class="js-line" d="M0.02,520.93L3.41,546.46L6.8,554.98L10.19,559.23L13.58,561.79L20.35,564.7L23.75,565.62L30.52,566.89L33.91,564.26L37.31,560.65L40.7,552.36L44.09,550.11L47.48,541.36L50.87,527.74L54.26,517.52L57.65,514.12L61.04,503.9L71.21,431.27L74.6,411.98L77.98,382.47L81.37,359.77L88.16,314.37L91.55,296.21L94.94,267.84L98.33,247.41L101.72,236.06L105.11,214.5L108.5,199.75L111.89,178.18L115.28,171.37L118.66,167.97L122.05,161.16L125.44,150.94L128.83,152.08L132.22,141.87L142.39,116.9L145.78,114.63L149.17,111.22L152.55,106.68L155.94,104.41L159.33,89.66L162.72,91.93L166.1,96.47L176.27,81.71L179.65,79.44L183.04,77.17L186.43,76.04L196.6,76.04L199.99,77.17L210.16,77.17L213.55,74.9L216.94,66.96L220.33,65.83L227.11,68.1L230.5,64.69L237.28,66.96L240.67,65.83L244.06,65.83L247.45,70.37L250.85,68.1L254.24,71.5L257.63,71.5L261.02,70.37L264.41,68.1L267.8,71.5L274.58,71.5L277.97,69.23L288.13,65.83L291.52,70.37L294.91,69.23L298.3,66.96L301.69,68.1L305.08,61.29L308.48,61.29L311.87,59.02L322.05,59.02L325.44,56.75L328.83,60.15L332.22,62.42L335.61,63.56L339,70.37L342.39,69.23L345.78,69.23L349.17,66.96L352.56,70.37L355.95,72.63L359.34,72.63L362.74,76.04L366.12,74.9L372.9,72.63L376.29,72.63L379.68,72.63L383.06,70.37L386.46,69.23L389.85,63.56L393.24,60.15L396.64,62.42L400.02,63.56L403.42,60.15L406.81,59.02L410.21,59.02L416.98,63.56L420.37,62.42L423.76,62.42L427.15,63.56L430.54,60.15L433.93,63.56L437.32,64.69L440.71,63.56L444.1,65.83L447.49,65.83L450.88,64.69L454.27,69.23L457.66,69.23L461.05,68.1L467.82,65.83L471.21,66.96L474.61,70.37L478,71.5L481.39,72.63L484.79,70.37L488.18,70.37L491.57,73.77L494.97,70.37L498.36,70.37L501.75,68.1L505.15,62.42L508.53,62.42L511.92,65.83L515.32,63.56L518.7,64.69L522.09,64.69L525.48,61.29L528.88,60.15L532.27,60.15L535.66,57.88L539.05,56.75L542.44,52.21L545.83,56.75L549.22,55.61L552.6,61.29L556,61.29L559.38,62.42L562.77,63.56L566.17,65.83L569.55,62.42L572.95,61.29L579.73,59.02L583.11,59.02L586.51,61.29L589.89,61.29L593.28,66.96L596.67,66.96L600.07,66.96L603.46,63.56L610.24,65.83L613.62,61.29L617.01,57.88L620.41,65.83L627.18,72.63L630.57,72.63L637.35,72.63L640.73,71.5L644.13,70.37L647.51,66.96L650.91,66.96L654.3,68.1L657.69,65.83L661.08,62.42L664.48,62.42L667.87,61.29L671.26,53.34L674.65,53.34L678.04,51.07L681.43,51.07L684.82,51.07L688.22,53.34L691.61,54.48" style="vector-effect: none; fill: none; stroke: rgb(31, 119, 180); stroke-opacity: 1; stroke-width: 2.5px; opacity: 1;"/></g><g class="points"/><g class="text"/></g><g class="trace scatter tracec48686" style="stroke-miterlimit: 2;"><g class="fills"><g><path class="js-fill" d="M3.41,582.58L6.8,584.46L10.19,584.77L30.52,583.04L33.91,581.89L37.31,581.61L40.7,588.37L44.09,585.71L47.48,589.59L50.87,603.27L54.26,596.9L57.65,592.08L61.04,583.75L64.43,590.88L67.82,583.6L71.21,567.53L74.6,547.37L77.98,528.33L81.37,500.43L88.16,447.16L91.55,427.32L94.94,392.75L98.33,370.92L101.72,360.58L105.11,332.97L111.89,245.01L115.28,242.98L118.66,239.46L122.05,229.21L125.44,210.43L128.83,211.29L132.22,199.58L135.61,194.1L142.39,177.07L145.78,176.3L149.17,174.42L152.55,169.62L155.94,168.39L159.33,124.11L162.72,127.87L166.1,134.79L179.65,107.09L183.04,106.28L196.6,106.13L199.99,106.99L210.16,106.99L213.55,101.59L216.94,87.97L220.33,86.64L227.11,89.24L230.5,81.96L244.06,82.19L247.45,93.45L250.85,92L254.24,100.13L257.63,100.13L261.02,99.04L264.41,95.99L267.8,97.08L274.58,97.08L277.97,95.66L288.13,94.21L291.52,100.45L294.91,100L298.3,94.01L301.69,94.47L305.08,83.58L322.05,82.98L325.44,80.36L328.83,85.46L332.22,87.73L335.61,88.36L339,102.45L342.39,100L345.78,100L349.17,96.91L352.56,102.45L366.12,103.1L369.51,102.16L379.68,101.89L383.06,100.45L386.46,100L389.85,85.72L393.24,80.97L396.64,83.24L400.02,84.77L403.42,76.51L410.21,75.88L413.59,82.63L416.98,84.77L420.37,84.21L427.15,84.77L430.54,79.95L433.93,84.77L437.32,85.24L440.71,84.77L444.1,86.64L447.49,86.64L450.88,85.24L454.27,95.66L457.66,95.66L461.05,95.24L464.44,92.43L467.82,91.13L471.21,91.6L474.61,95.17L478,96.25L481.39,96.42L484.79,93.45L488.18,93.45L491.57,96.49L498.36,96L501.75,95.99L505.15,85.14L508.53,85.14L511.92,89.44L515.32,85.72L518.7,87.16L522.09,87.16L525.48,82.63L528.88,80.97L535.66,80.36L539.05,79.46L542.44,73.42L545.83,79.46L549.22,77.59L552.6,86.21L559.38,86.89L562.77,89.98L566.17,93.48L569.55,91.53L579.73,89.78L583.11,89.78L586.51,90.77L589.89,90.77L593.28,97.59L596.67,97.59L600.07,97.59L603.46,91.5L610.24,93.48L613.62,86.21L617.01,81.26L620.41,97L623.79,100.66L627.18,101.89L640.73,102.22L644.13,99.76L647.51,96.21L650.91,96.21L654.3,97.44L657.69,97L661.08,94.89L664.48,94.89L667.87,94.72L671.26,78.15L674.65,78.15L678.04,74.97L684.82,74.97L688.22,79.77L691.61,80.05L691.61,28.9L688.22,26.92L678.04,27.17L674.65,28.53L671.26,28.53L667.87,27.85L664.48,29.95L661.08,29.95L654.3,38.75L650.91,37.71L647.51,37.71L644.13,40.97L640.73,40.78L637.35,43.38L627.18,43.38L623.79,37.8L620.41,34.66L617.01,34.5L613.62,36.37L610.24,38.17L606.84,37.24L603.46,35.61L596.67,36.33L593.28,36.33L589.89,31.8L586.51,31.8L583.11,28.25L579.73,28.25L569.55,33.31L566.17,38.17L562.77,37.13L559.38,37.95L556,36.37L552.6,36.37L549.22,33.63L545.83,34.03L542.44,31L539.05,34.03L535.66,35.41L532.27,39.33L525.48,39.95L522.09,42.22L518.7,42.22L515.32,41.39L511.92,42.21L508.53,39.7L505.15,39.7L501.75,40.2L498.36,44.73L494.97,44.73L491.57,51.05L488.18,47.28L484.79,47.28L481.39,48.85L478,46.75L474.61,45.56L471.21,42.32L467.82,40.52L464.44,41.49L461.05,40.95L457.66,42.8L454.27,42.8L447.49,45.01L444.1,45.01L440.71,42.34L437.32,44.14L433.93,42.34L430.54,40.35L427.15,42.34L423.76,40.63L420.37,40.63L416.98,42.34L413.59,39.95L410.21,42.15L406.81,42.15L403.42,43.79L396.64,41.6L393.24,39.33L389.85,41.39L386.46,38.46L383.06,40.28L379.68,43.38L372.9,43.38L369.51,45.38L362.74,48.84L359.34,42.68L355.95,42.68L352.56,38.28L349.17,37.01L345.78,38.46L339,38.28L335.61,38.75L325.44,33.13L322.05,35.06L311.87,35.06L308.48,39L305.08,39L301.69,41.72L298.3,39.92L294.91,38.46L291.52,40.28L288.13,37.44L277.97,42.8L274.58,45.92L267.8,45.92L264.41,40.2L261.02,41.69L257.63,42.87L254.24,42.87L250.85,44.19L247.45,47.28L244.06,49.46L240.67,49.46L237.28,51.64L233.89,49.46L230.5,47.43L220.33,45.01L216.94,45.95L213.55,48.22L210.16,47.36L199.99,47.36L196.6,45.95L186.43,45.95L183.04,48.07L179.65,51.79L176.27,50.06L172.88,52.9L169.49,55.99L166.1,58.15L162.72,55.99L159.33,55.21L155.94,40.43L149.17,48.03L145.78,52.96L142.39,56.72L139,64.66L132.22,84.15L128.83,92.87L125.44,91.46L122.05,93.1L115.28,99.76L111.89,111.36L108.5,112.5L105.11,96.03L101.72,111.55L98.33,123.9L94.94,142.93L91.55,165.1L88.16,181.59L84.76,197.36L81.37,219.11L77.98,236.61L74.6,276.58L71.21,295.01L67.82,322.07L64.43,364.72L61.04,424.06L57.65,436.16L54.26,438.14L50.87,452.21L47.48,493.12L44.09,514.51L40.7,516.35L37.31,539.7L33.91,546.63L30.52,550.74L27.13,549.3L23.75,547.56L16.97,542.64L13.58,538.95L10.19,533.7L6.8,525.49L3.41,510.35Z" style="fill: rgb(31, 119, 180); fill-opacity: 0.1; stroke-width: 0;"/></g></g><g class="errorbars"/><g class="lines"><path class="js-line" d="M3.41,510.35L6.8,525.49L10.19,533.7L13.58,538.95L16.97,542.64L23.75,547.56L27.13,549.3L30.52,550.74L33.91,546.63L37.31,539.7L40.7,516.35L44.09,514.51L47.48,493.12L50.87,452.21L54.26,438.14L57.65,436.16L61.04,424.06L64.43,364.72L67.82,322.07L71.21,295.01L74.6,276.58L77.98,236.61L81.37,219.11L84.76,197.36L88.16,181.59L91.55,165.1L94.94,142.93L98.33,123.9L101.72,111.55L105.11,96.03L108.5,112.5L111.89,111.36L115.28,99.76L122.05,93.1L125.44,91.46L128.83,92.87L132.22,84.15L139,64.66L142.39,56.72L145.78,52.96L149.17,48.03L155.94,40.43L159.33,55.21L162.72,55.99L166.1,58.15L169.49,55.99L172.88,52.9L176.27,50.06L179.65,51.79L183.04,48.07L186.43,45.95L196.6,45.95L199.99,47.36L210.16,47.36L213.55,48.22L216.94,45.95L220.33,45.01L230.5,47.43L233.89,49.46L237.28,51.64L240.67,49.46L244.06,49.46L247.45,47.28L250.85,44.19L254.24,42.87L257.63,42.87L261.02,41.69L264.41,40.2L267.8,45.92L274.58,45.92L277.97,42.8L288.13,37.44L291.52,40.28L294.91,38.46L298.3,39.92L301.69,41.72L305.08,39L308.48,39L311.87,35.06L322.05,35.06L325.44,33.13L335.61,38.75L339,38.28L345.78,38.46L349.17,37.01L352.56,38.28L355.95,42.68L359.34,42.68L362.74,48.84L369.51,45.38L372.9,43.38L379.68,43.38L383.06,40.28L386.46,38.46L389.85,41.39L393.24,39.33L396.64,41.6L403.42,43.79L406.81,42.15L410.21,42.15L413.59,39.95L416.98,42.34L420.37,40.63L423.76,40.63L427.15,42.34L430.54,40.35L433.93,42.34L437.32,44.14L440.71,42.34L444.1,45.01L447.49,45.01L454.27,42.8L457.66,42.8L461.05,40.95L464.44,41.49L467.82,40.52L471.21,42.32L474.61,45.56L478,46.75L481.39,48.85L484.79,47.28L488.18,47.28L491.57,51.05L494.97,44.73L498.36,44.73L501.75,40.2L505.15,39.7L508.53,39.7L511.92,42.21L515.32,41.39L518.7,42.22L522.09,42.22L525.48,39.95L532.27,39.33L535.66,35.41L539.05,34.03L542.44,31L545.83,34.03L549.22,33.63L552.6,36.37L556,36.37L559.38,37.95L562.77,37.13L566.17,38.17L569.55,33.31L579.73,28.25L583.11,28.25L586.51,31.8L589.89,31.8L593.28,36.33L596.67,36.33L603.46,35.61L606.84,37.24L610.24,38.17L613.62,36.37L617.01,34.5L620.41,34.66L623.79,37.8L627.18,43.38L637.35,43.38L640.73,40.78L644.13,40.97L647.51,37.71L650.91,37.71L654.3,38.75L661.08,29.95L664.48,29.95L667.87,27.85L671.26,28.53L674.65,28.53L678.04,27.17L688.22,26.92L691.61,28.9" style="vector-effect: none; fill: none; stroke: rgb(239, 85, 59); stroke-opacity: 1; stroke-width: 0px; opacity: 1;"/></g><g class="points"/><g class="text"/></g><g class="trace scatter trace1861dd" style="stroke-miterlimit: 2;"><g class="fills"/><g class="errorbars"/><g class="lines"><path class="js-line" d="M3.41,582.58L6.8,584.46L10.19,584.77L30.52,583.04L33.91,581.89L37.31,581.61L40.7,588.37L44.09,585.71L47.48,589.59L50.87,603.27L54.26,596.9L57.65,592.08L61.04,583.75L64.43,590.88L67.82,583.6L71.21,567.53L74.6,547.37L77.98,528.33L81.37,500.43L88.16,447.16L91.55,427.32L94.94,392.75L98.33,370.92L101.72,360.58L105.11,332.97L111.89,245.01L115.28,242.98L118.66,239.46L122.05,229.21L125.44,210.43L128.83,211.29L132.22,199.58L135.61,194.1L142.39,177.07L145.78,176.3L149.17,174.42L152.55,169.62L155.94,168.39L159.33,124.11L162.72,127.87L166.1,134.79L179.65,107.09L183.04,106.28L196.6,106.13L199.99,106.99L210.16,106.99L213.55,101.59L216.94,87.97L220.33,86.64L227.11,89.24L230.5,81.96L244.06,82.19L247.45,93.45L250.85,92L254.24,100.13L257.63,100.13L261.02,99.04L264.41,95.99L267.8,97.08L274.58,97.08L277.97,95.66L288.13,94.21L291.52,100.45L294.91,100L298.3,94.01L301.69,94.47L305.08,83.58L322.05,82.98L325.44,80.36L328.83,85.46L332.22,87.73L335.61,88.36L339,102.45L342.39,100L345.78,100L349.17,96.91L352.56,102.45L366.12,103.1L369.51,102.16L379.68,101.89L383.06,100.45L386.46,100L389.85,85.72L393.24,80.97L396.64,83.24L400.02,84.77L403.42,76.51L410.21,75.88L413.59,82.63L416.98,84.77L420.37,84.21L427.15,84.77L430.54,79.95L433.93,84.77L437.32,85.24L440.71,84.77L444.1,86.64L447.49,86.64L450.88,85.24L454.27,95.66L457.66,95.66L461.05,95.24L464.44,92.43L467.82,91.13L471.21,91.6L474.61,95.17L478,96.25L481.39,96.42L484.79,93.45L488.18,93.45L491.57,96.49L498.36,96L501.75,95.99L505.15,85.14L508.53,85.14L511.92,89.44L515.32,85.72L518.7,87.16L522.09,87.16L525.48,82.63L528.88,80.97L535.66,80.36L539.05,79.46L542.44,73.42L545.83,79.46L549.22,77.59L552.6,86.21L559.38,86.89L562.77,89.98L566.17,93.48L569.55,91.53L579.73,89.78L583.11,89.78L586.51,90.77L589.89,90.77L593.28,97.59L596.67,97.59L600.07,97.59L603.46,91.5L610.24,93.48L613.62,86.21L617.01,81.26L620.41,97L623.79,100.66L627.18,101.89L640.73,102.22L644.13,99.76L647.51,96.21L650.91,96.21L654.3,97.44L657.69,97L661.08,94.89L664.48,94.89L667.87,94.72L671.26,78.15L674.65,78.15L678.04,74.97L684.82,74.97L688.22,79.77L691.61,80.05" style="vector-effect: none; fill: none; stroke: rgb(0, 204, 150); stroke-opacity: 1; stroke-width: 0px; opacity: 1;"/></g><g class="points"/><g class="text"/></g><g class="trace scatter traceb5d898" style="stroke-miterlimit: 2; opacity: 1;"><g class="fills"/><g class="errorbars"/><g class="lines"><path class="js-line" d="M0.02,572L44.09,572L47.48,570.87L50.87,569.73L54.26,569.73L61.04,569.73L64.43,568.6L74.6,568.6L77.98,562.92L81.39,557.25L84.78,556.11L88.17,543.63L91.56,539.09L94.96,536.82L98.34,533.41L101.73,531.14L105.11,524.33L111.89,506.17L115.29,499.37L118.68,481.21L122.06,475.53L125.45,467.59L128.84,466.45L132.23,465.32L135.64,455.1L142.42,433.54L145.81,410.84L152.59,371.12L155.98,351.83L159.38,338.21L162.77,321.18L166.16,297.35L169.55,290.54L179.72,223.58L183.11,203.15L186.5,187.26L189.89,179.32L193.27,162.29L196.66,157.75L200.05,153.21L203.44,152.08L206.83,152.08L210.22,140.73L213.61,140.73L217,141.87L223.77,135.06L227.16,137.33L230.55,130.52L233.94,130.52L237.33,127.11L240.72,124.84L244.11,127.11L247.51,124.84L250.9,123.71L254.29,116.9L257.68,108.95L261.07,110.09L264.46,104.41L267.85,105.55L271.24,102.14L274.64,101.01L278.03,98.74L281.42,98.74L288.2,94.2L291.59,94.2L294.98,95.33L298.37,98.74L301.76,93.06L305.15,95.33L311.92,99.87L315.31,99.87L318.7,96.47L322.1,98.74L325.48,99.87L328.88,104.41L332.26,106.68L335.65,105.55L339.04,104.41L342.43,108.95L345.82,103.28L349.21,99.87L352.6,98.74L355.99,95.33L359.38,95.33L362.77,93.06L366.17,94.2L369.55,93.06L372.94,89.66L376.33,95.33L383.11,88.52L386.5,88.52L389.89,87.39L393.28,87.39L396.67,89.66L400.06,89.66L403.45,97.6L406.84,97.6L417.01,101.01L420.41,104.41L423.79,103.28L427.18,97.6L433.96,102.14L437.35,99.87L440.74,101.01L444.13,96.47L447.53,97.6L450.91,97.6L454.3,91.93L457.69,90.79L461.08,87.39L464.47,85.12L467.85,78.31L471.24,74.9L474.63,77.17L478.02,73.77L481.41,70.37L484.8,69.23L488.19,65.83L491.58,71.5L494.97,76.04L498.36,74.9L501.75,77.17L505.14,77.17L508.53,78.31L511.92,81.71L515.31,86.25L518.71,87.39L522.1,91.93L525.49,91.93L528.87,94.2L532.26,90.79L535.65,91.93L539.04,94.2L545.83,82.85L549.21,81.71L552.61,76.04L556,76.04L559.39,77.17L562.77,76.04L566.17,71.5L569.55,72.63L572.95,70.37L576.34,69.23L579.73,70.37L583.12,72.63L586.51,74.9L589.9,73.77L593.29,76.04L596.67,77.17L600.06,78.31L603.45,85.12L606.84,82.85L610.23,79.44L613.62,80.58L617.01,82.85L620.4,82.85L623.78,80.58L627.17,81.71L630.57,79.44L633.96,83.98L637.35,81.71L640.73,83.98L644.13,81.71L647.52,79.44L650.91,81.71L654.3,73.77L657.69,78.31L664.47,82.85L667.87,82.85L671.26,81.71L674.65,81.71L678.03,77.17L681.43,78.31L684.82,73.77L688.21,71.5L691.6,72.63" style="vector-effect: none; fill: none; stroke: rgb(255, 127, 14); stroke-opacity: 1; stroke-width: 2.5px; opacity: 1;"/></g><g class="points"/><g class="text"/></g><g class="trace scatter tracecbb2bc" style="stroke-miterlimit: 2;"><g class="fills"><g><path class="js-fill" d="M3.41,572L44.09,572L47.48,575.26L54.26,575.72L57.65,575.72L74.6,575.64L77.98,585.09L81.39,586.64L84.78,585.22L88.17,596.16L91.56,591.94L101.73,583.34L105.11,577.47L108.51,571.22L111.89,563.32L115.29,556.36L118.68,554.48L122.06,544.43L125.45,531.24L132.23,528.51L135.64,515.07L139.03,526.75L142.42,518.38L145.81,510.08L149.21,498.38L152.59,481.67L155.98,468.97L162.77,443.01L166.16,426.34L169.55,422.07L172.95,392.25L176.33,365.07L179.72,329.09L186.5,247.55L189.89,241.19L193.27,212.74L196.66,207.87L200.05,199.07L203.44,196.97L206.83,196.97L210.22,185.62L217,185.73L220.38,179.59L223.77,177.57L227.16,177.44L230.55,171.45L233.94,171.45L237.33,167.23L240.72,166.77L244.11,167.23L247.51,165.77L250.9,163.72L254.29,155.22L257.68,145.46L261.07,145.25L264.46,133.81L267.85,135.59L271.24,130.04L274.64,129.54L278.03,127.66L281.42,127.66L284.8,120.94L288.2,118.67L291.59,118.67L294.98,121.07L298.37,127.66L301.76,120.26L305.15,122.63L308.53,123.23L311.92,125.18L315.31,125.18L318.7,120.94L322.1,124.64L325.48,125.18L328.88,131.61L332.26,132.95L335.65,131.12L339.04,131.61L342.43,137.15L345.82,135.36L349.21,129.68L352.6,130.39L355.99,128.14L359.38,128.14L362.77,125.79L366.17,127.3L369.55,127.03L372.94,122.26L376.33,135.52L379.72,129.56L383.11,126.48L400.06,126.99L403.45,137.2L406.84,137.2L410.23,138.51L413.62,139.26L417.01,141.02L420.41,142.95L423.79,142.87L427.18,130.95L430.57,134.2L433.96,134.83L437.35,132.98L440.74,132.31L444.13,125.58L450.91,126.28L454.3,114.4L457.69,115.27L461.08,112.2L464.47,110.7L467.85,104.84L471.24,99.99L474.63,102.48L478.02,99.88L481.41,91.58L484.8,89.44L488.19,88.54L491.58,102.22L494.97,112.36L498.36,110.85L501.75,115.49L508.53,115.83L511.92,119.89L515.31,125.85L518.71,125.38L522.1,130.64L525.49,130.64L532.26,131.22L535.65,132.21L539.04,131.42L542.44,123.65L545.83,114.68L549.21,114.01L552.61,106.81L556,106.81L559.39,107.67L562.77,105.43L566.17,97.08L569.55,97.28L572.95,90.58L576.34,88.39L579.73,90.58L583.12,89.25L586.51,96.44L589.9,96.49L593.29,99.12L596.67,99.89L600.06,100.6L603.45,111.49L610.23,111.27L613.62,113.3L617.01,115.32L620.4,115.32L623.78,113.3L627.17,114.65L630.57,112.55L633.96,119.03L637.35,114.65L640.73,115.29L644.13,113.37L647.52,112.55L650.91,115.88L654.3,105.6L657.69,110.48L661.08,109.97L664.47,115.95L667.87,115.95L674.65,115.88L678.03,113.84L681.43,114.71L684.82,107.49L688.21,104.81L691.6,106.48L691.6,38.79L688.21,38.19L684.82,40.05L681.43,41.91L678.03,40.51L674.65,47.55L671.26,47.55L667.87,49.75L664.47,49.75L661.08,51.19L657.69,46.14L654.3,41.94L650.91,47.55L647.52,46.34L644.13,50.06L640.73,52.68L637.35,48.78L633.96,48.94L630.57,46.34L627.17,48.78L623.78,47.85L620.4,50.38L617.01,50.38L613.62,47.85L610.23,47.62L606.84,54.46L603.45,58.75L600.06,56.02L593.29,52.96L589.9,51.05L583.12,56.02L579.73,50.15L576.34,50.07L572.95,50.15L569.55,47.99L566.17,45.92L559.39,46.68L556,45.27L552.61,45.27L549.21,49.41L542.44,53.4L539.04,56.98L535.65,51.64L532.26,50.37L528.87,57.54L525.49,53.22L522.1,53.22L518.71,49.4L515.31,46.66L511.92,43.54L505.14,38.86L501.75,38.86L494.97,39.72L491.58,40.78L488.19,43.11L484.8,49.02L481.41,49.15L478.02,47.66L474.63,51.87L471.24,49.82L467.85,51.78L464.47,59.54L457.69,66.32L454.3,69.45L447.53,68.92L444.13,67.36L440.74,69.71L437.35,66.77L433.96,69.46L430.57,65.54L427.18,64.25L423.79,63.68L420.41,65.88L417.01,61L406.84,58.01L403.45,58.01L400.06,52.32L396.67,52.32L393.28,48.32L389.89,48.32L386.5,50.57L383.11,50.57L379.72,54.3L376.33,55.15L369.55,59.1L366.17,61.1L362.77,60.34L359.38,62.52L355.99,62.52L352.6,67.09L349.21,70.06L345.82,71.19L342.43,80.76L339.04,77.22L335.65,79.97L332.26,80.41L328.88,77.22L325.48,74.57L322.1,72.84L318.7,71.99L315.31,74.57L311.92,74.57L308.53,71.97L305.15,68.03L301.76,65.87L298.37,69.82L291.59,69.73L288.2,69.73L284.8,71.99L281.42,69.82L278.03,69.82L274.64,72.47L271.24,74.24L267.85,75.51L261.07,74.92L257.68,72.44L250.9,83.7L247.51,83.91L244.11,87L240.72,82.91L237.33,87L233.94,89.58L230.55,89.58L227.16,97.21L223.77,92.54L220.38,97.33L217,98L213.61,95.84L210.22,95.84L206.83,107.19L200.05,107.35L196.66,107.64L193.27,111.85L189.89,117.44L186.5,126.97L183.11,121.85L179.72,118.07L176.33,120.68L172.95,143.43L169.55,159.01L166.16,168.36L162.77,199.36L159.38,219.66L155.98,234.68L149.21,286.98L145.81,311.6L142.42,348.7L139.03,363.03L135.64,395.13L132.23,402.12L128.84,403.02L125.45,403.93L122.06,406.63L118.68,407.94L115.29,442.37L111.89,449.03L105.11,471.2L101.73,478.95L98.34,480.95L94.96,484.76L91.56,486.24L88.17,491.09L84.78,527L81.39,527.85L77.98,540.76L74.6,561.55L64.43,561.55L61.04,563.74L54.26,563.74L50.87,563.74L47.48,566.47L44.09,572L3.41,572Z" style="fill: rgb(255, 127, 14); fill-opacity: 0.1; stroke-width: 0;"/></g></g><g class="errorbars"/><g class="lines"><path class="js-line" d="M3.41,572L44.09,572L47.48,566.47L50.87,563.74L54.26,563.74L61.04,563.74L64.43,561.55L74.6,561.55L77.98,540.76L81.39,527.85L84.78,527L88.17,491.09L91.56,486.24L94.96,484.76L98.34,480.95L101.73,478.95L105.11,471.2L111.89,449.03L115.29,442.37L118.68,407.94L122.06,406.63L125.45,403.93L128.84,403.02L132.23,402.12L135.64,395.13L139.03,363.03L142.42,348.7L145.81,311.6L149.21,286.98L155.98,234.68L159.38,219.66L162.77,199.36L166.16,168.36L169.55,159.01L172.95,143.43L176.33,120.68L179.72,118.07L183.11,121.85L186.5,126.97L189.89,117.44L193.27,111.85L196.66,107.64L200.05,107.35L206.83,107.19L210.22,95.84L213.61,95.84L217,98L220.38,97.33L223.77,92.54L227.16,97.21L230.55,89.58L233.94,89.58L237.33,87L240.72,82.91L244.11,87L247.51,83.91L250.9,83.7L257.68,72.44L261.07,74.92L267.85,75.51L271.24,74.24L274.64,72.47L278.03,69.82L281.42,69.82L284.8,71.99L288.2,69.73L291.59,69.73L298.37,69.82L301.76,65.87L305.15,68.03L308.53,71.97L311.92,74.57L315.31,74.57L318.7,71.99L322.1,72.84L325.48,74.57L328.88,77.22L332.26,80.41L335.65,79.97L339.04,77.22L342.43,80.76L345.82,71.19L349.21,70.06L352.6,67.09L355.99,62.52L359.38,62.52L362.77,60.34L366.17,61.1L369.55,59.1L376.33,55.15L379.72,54.3L383.11,50.57L386.5,50.57L389.89,48.32L393.28,48.32L396.67,52.32L400.06,52.32L403.45,58.01L406.84,58.01L417.01,61L420.41,65.88L423.79,63.68L427.18,64.25L430.57,65.54L433.96,69.46L437.35,66.77L440.74,69.71L444.13,67.36L447.53,68.92L454.3,69.45L457.69,66.32L464.47,59.54L467.85,51.78L471.24,49.82L474.63,51.87L478.02,47.66L481.41,49.15L484.8,49.02L488.19,43.11L491.58,40.78L494.97,39.72L501.75,38.86L505.14,38.86L511.92,43.54L515.31,46.66L518.71,49.4L522.1,53.22L525.49,53.22L528.87,57.54L532.26,50.37L535.65,51.64L539.04,56.98L542.44,53.4L549.21,49.41L552.61,45.27L556,45.27L559.39,46.68L566.17,45.92L569.55,47.99L572.95,50.15L576.34,50.07L579.73,50.15L583.12,56.02L589.9,51.05L593.29,52.96L600.06,56.02L603.45,58.75L606.84,54.46L610.23,47.62L613.62,47.85L617.01,50.38L620.4,50.38L623.78,47.85L627.17,48.78L630.57,46.34L633.96,48.94L637.35,48.78L640.73,52.68L644.13,50.06L647.52,46.34L650.91,47.55L654.3,41.94L657.69,46.14L661.08,51.19L664.47,49.75L667.87,49.75L671.26,47.55L674.65,47.55L678.03,40.51L681.43,41.91L684.82,40.05L688.21,38.19L691.6,38.79" style="vector-effect: none; fill: none; stroke: rgb(255, 161, 90); stroke-opacity: 1; stroke-width: 0px; opacity: 1;"/></g><g class="points"/><g class="text"/></g><g class="trace scatter trace0deb88" style="stroke-miterlimit: 2;"><g class="fills"/><g class="errorbars"/><g class="lines"><path class="js-line" d="M3.41,572L44.09,572L47.48,575.26L54.26,575.72L57.65,575.72L74.6,575.64L77.98,585.09L81.39,586.64L84.78,585.22L88.17,596.16L91.56,591.94L101.73,583.34L105.11,577.47L108.51,571.22L111.89,563.32L115.29,556.36L118.68,554.48L122.06,544.43L125.45,531.24L132.23,528.51L135.64,515.07L139.03,526.75L142.42,518.38L145.81,510.08L149.21,498.38L152.59,481.67L155.98,468.97L162.77,443.01L166.16,426.34L169.55,422.07L172.95,392.25L176.33,365.07L179.72,329.09L186.5,247.55L189.89,241.19L193.27,212.74L196.66,207.87L200.05,199.07L203.44,196.97L206.83,196.97L210.22,185.62L217,185.73L220.38,179.59L223.77,177.57L227.16,177.44L230.55,171.45L233.94,171.45L237.33,167.23L240.72,166.77L244.11,167.23L247.51,165.77L250.9,163.72L254.29,155.22L257.68,145.46L261.07,145.25L264.46,133.81L267.85,135.59L271.24,130.04L274.64,129.54L278.03,127.66L281.42,127.66L284.8,120.94L288.2,118.67L291.59,118.67L294.98,121.07L298.37,127.66L301.76,120.26L305.15,122.63L308.53,123.23L311.92,125.18L315.31,125.18L318.7,120.94L322.1,124.64L325.48,125.18L328.88,131.61L332.26,132.95L335.65,131.12L339.04,131.61L342.43,137.15L345.82,135.36L349.21,129.68L352.6,130.39L355.99,128.14L359.38,128.14L362.77,125.79L366.17,127.3L369.55,127.03L372.94,122.26L376.33,135.52L379.72,129.56L383.11,126.48L400.06,126.99L403.45,137.2L406.84,137.2L410.23,138.51L413.62,139.26L417.01,141.02L420.41,142.95L423.79,142.87L427.18,130.95L430.57,134.2L433.96,134.83L437.35,132.98L440.74,132.31L444.13,125.58L450.91,126.28L454.3,114.4L457.69,115.27L461.08,112.2L464.47,110.7L467.85,104.84L471.24,99.99L474.63,102.48L478.02,99.88L481.41,91.58L484.8,89.44L488.19,88.54L491.58,102.22L494.97,112.36L498.36,110.85L501.75,115.49L508.53,115.83L511.92,119.89L515.31,125.85L518.71,125.38L522.1,130.64L525.49,130.64L532.26,131.22L535.65,132.21L539.04,131.42L542.44,123.65L545.83,114.68L549.21,114.01L552.61,106.81L556,106.81L559.39,107.67L562.77,105.43L566.17,97.08L569.55,97.28L572.95,90.58L576.34,88.39L579.73,90.58L583.12,89.25L586.51,96.44L589.9,96.49L593.29,99.12L596.67,99.89L600.06,100.6L603.45,111.49L610.23,111.27L613.62,113.3L617.01,115.32L620.4,115.32L623.78,113.3L627.17,114.65L630.57,112.55L633.96,119.03L637.35,114.65L640.73,115.29L644.13,113.37L647.52,112.55L650.91,115.88L654.3,105.6L657.69,110.48L661.08,109.97L664.47,115.95L667.87,115.95L674.65,115.88L678.03,113.84L681.43,114.71L684.82,107.49L688.21,104.81L691.6,106.48" style="vector-effect: none; fill: none; stroke: rgb(25, 211, 243); stroke-opacity: 1; stroke-width: 0px; opacity: 1;"/></g><g class="points"/><g class="text"/></g></g></g><g class="overplot"/><path class="xlines-above crisp" d="M0,0" style="fill: none;"/><path class="ylines-above crisp" d="M0,0" style="fill: none;"/><g class="overlines-above"/><g class="xaxislayer-above"><g class="xtick"><text text-anchor="middle" x="0" y="603" transform="translate(89,0)" style="font-family: 'Open Sans', verdana, arial, sans-serif; font-size: 30px; fill: rgb(42, 63, 95); fill-opacity: 1; white-space: pre; opacity: 1;">0</text></g><g class="xtick"><text text-anchor="middle" x="0" y="603" style="font-family: 'Open Sans', verdana, arial, sans-serif; font-size: 30px; fill: rgb(42, 63, 95); fill-opacity: 1; white-space: pre; opacity: 1;" transform="translate(427.57,0)">1M</text></g><g class="xtick"><text text-anchor="middle" x="0" y="603" style="font-family: 'Open Sans', verdana, arial, sans-serif; font-size: 30px; fill: rgb(42, 63, 95); fill-opacity: 1; white-space: pre; opacity: 1;" transform="translate(766.14,0)">2M</text></g></g><g class="yaxislayer-above"><g class="ytick"><text text-anchor="end" x="88" y="10.5" transform="translate(0,463.05)" style="font-family: 'Open Sans', verdana, arial, sans-serif; font-size: 30px; fill: rgb(42, 63, 95); fill-opacity: 1; white-space: pre; opacity: 1;">0.2</text></g><g class="ytick"><text text-anchor="end" x="88" y="10.5" style="font-family: 'Open Sans', verdana, arial, sans-serif; font-size: 30px; fill: rgb(42, 63, 95); fill-opacity: 1; white-space: pre; opacity: 1;" transform="translate(0,354.1)">0.4</text></g><g class="ytick"><text text-anchor="end" x="88" y="10.5" style="font-family: 'Open Sans', verdana, arial, sans-serif; font-size: 30px; fill: rgb(42, 63, 95); fill-opacity: 1; white-space: pre; opacity: 1;" transform="translate(0,245.14)">0.6</text></g><g class="ytick"><text text-anchor="end" x="88" y="10.5" style="font-family: 'Open Sans', verdana, arial, sans-serif; font-size: 30px; fill: rgb(42, 63, 95); fill-opacity: 1; white-space: pre; opacity: 1;" transform="translate(0,136.19)">0.8</text></g><g class="ytick"><text text-anchor="end" x="88" y="10.5" style="font-family: 'Open Sans', verdana, arial, sans-serif; font-size: 30px; fill: rgb(42, 63, 95); fill-opacity: 1; white-space: pre; opacity: 1;" transform="translate(0,27.24)">1</text></g></g><g class="overaxes-above"/></g></g><g class="polarlayer"/><g class="smithlayer"/><g class="ternarylayer"/><g class="geolayer"/><g class="funnelarealayer"/><g class="pielayer"/><g class="iciclelayer"/><g class="treemaplayer"/><g class="sunburstlayer"/><g class="glimages"/><defs id="topdefs-679851"><g class="clips"/><clipPath id="legend679851"><rect width="297" height="94" x="0" y="0"/></clipPath></defs><g class="layer-above"><g class="imagelayer"/><g class="shapelayer"/></g><g class="infolayer"><g class="legend" pointer-events="all" transform="translate(96.11,5.720000000000005)"><rect class="bg" shape-rendering="crispEdges" width="297" height="94" x="0" y="0" style="stroke: rgb(68, 68, 68); stroke-opacity: 1; fill: rgb(255, 255, 255); fill-opacity: 0.8; stroke-width: 0px;"/><g class="scrollbox" transform="" clip-path="url(#legend679851)"><g class="groups"><g class="traces" transform="translate(0,26)" style="opacity: 1;"><text class="legendtext" text-anchor="start" x="40" y="11.7" style="font-family: 'Open Sans', verdana, arial, sans-serif; font-size: 30px; fill: rgb(42, 63, 95); fill-opacity: 1; white-space: pre;">TransferLearning</text><g class="layers" style="opacity: 1;"><g class="legendfill"/><g class="legendlines"><path class="js-line" d="M5,0h30" style="fill: none; stroke: rgb(31, 119, 180); stroke-opacity: 1; stroke-width: 2.5px;"/></g><g class="legendsymbols"><g class="legendpoints"/></g></g><rect class="legendtoggle" x="0" y="-21" width="291.875" height="42" style="fill: rgb(0, 0, 0); fill-opacity: 0;"/></g><g class="traces" transform="translate(0,68)" style="opacity: 1;"><text class="legendtext" text-anchor="start" x="40" y="11.7" style="font-family: 'Open Sans', verdana, arial, sans-serif; font-size: 30px; fill: rgb(42, 63, 95); fill-opacity: 1; white-space: pre;">Scratch</text><g class="layers" style="opacity: 1;"><g class="legendfill"/><g class="legendlines"><path class="js-line" d="M5,0h30" style="fill: none; stroke: rgb(255, 127, 14); stroke-opacity: 1; stroke-width: 2.5px;"/></g><g class="legendsymbols"><g class="legendpoints"/></g></g><rect class="legendtoggle" x="0" y="-21" width="291.875" height="42" style="fill: rgb(0, 0, 0); fill-opacity: 0;"/></g></g></g><rect class="scrollbar" rx="20" ry="3" width="0" height="0" x="0" y="0" style="fill: rgb(128, 139, 164); fill-opacity: 1;"/></g><g class="g-gtitle"/><g class="g-xtitle" transform="translate(0,-7.7000000000000455)"><text class="xtitle" x="444.5" y="649.7" text-anchor="middle" style="font-family: 'Open Sans', verdana, arial, sans-serif; font-size: 36px; fill: rgb(42, 63, 95); opacity: 1; font-weight: normal; white-space: pre;">Time Steps</text></g><g class="g-ytitle" transform="translate(32.4189453125,0)"><text class="ytitle" transform="rotate(-90,0.5812499999999972,286)" x="0.5812499999999972" y="286" text-anchor="middle" style="font-family: 'Open Sans', verdana, arial, sans-serif; font-size: 36px; fill: rgb(42, 63, 95); opacity: 1; font-weight: normal; white-space: pre;">Test Win Rate %</text></g></g></svg>