<svg class="main-svg" xmlns="http://www.w3.org/2000/svg" xmlns:xlink="http://www.w3.org/1999/xlink" width="2400" height="1950" style="" viewBox="0 0 800 650"><rect x="0" y="0" width="800" height="650" style="fill: rgb(255, 255, 255); fill-opacity: 1;"/><defs id="defs-95d215"><g class="clips"><clipPath id="clip95d215xyplot" class="plotclip"><rect width="711" height="572"/></clipPath><clipPath class="axesclip" id="clip95d215x"><rect x="89" y="0" width="711" height="650"/></clipPath><clipPath class="axesclip" id="clip95d215y"><rect x="0" y="0" width="800" height="572"/></clipPath><clipPath class="axesclip" id="clip95d215xy"><rect x="89" y="0" width="711" height="572"/></clipPath></g><g class="gradients"/><g class="patterns"/></defs><g class="bglayer"/><g class="layer-below"><g class="imagelayer"/><g class="shapelayer"/></g><g class="cartesianlayer"><g class="subplot xy"><g class="layer-subplot"><g class="shapelayer"/><g class="imagelayer"/></g><g class="minor-gridlayer"><g class="x"/><g class="y"/></g><g class="gridlayer"><g class="x"><path class="xgrid crisp" transform="translate(427.57,0)" d="M0,0v572" style="stroke: rgb(235, 240, 248); stroke-opacity: 1; stroke-width: 1px;"/><path class="xgrid crisp" transform="translate(766.14,0)" d="M0,0v572" style="stroke: rgb(235, 240, 248); stroke-opacity: 1; stroke-width: 1px;"/></g><g class="y"><path class="ygrid crisp" transform="translate(0,463.05)" d="M89,0h711" style="stroke: rgb(235, 240, 248); stroke-opacity: 1; stroke-width: 1px;"/><path class="ygrid crisp" transform="translate(0,354.1)" d="M89,0h711" style="stroke: rgb(235, 240, 248); stroke-opacity: 1; stroke-width: 1px;"/><path class="ygrid crisp" transform="translate(0,245.14)" d="M89,0h711" style="stroke: rgb(235, 240, 248); stroke-opacity: 1; stroke-width: 1px;"/><path class="ygrid crisp" transform="translate(0,136.19)" d="M89,0h711" style="stroke: rgb(235, 240, 248); stroke-opacity: 1; stroke-width: 1px;"/><path class="ygrid crisp" transform="translate(0,27.24)" d="M89,0h711" style="stroke: rgb(235, 240, 248); stroke-opacity: 1; stroke-width: 1px;"/></g></g><g class="zerolinelayer"><path class="xzl zl crisp" transform="translate(89,0)" d="M0,0v572" style="stroke: rgb(235, 240, 248); stroke-opacity: 1; stroke-width: 2px;"/><path class="yzl zl crisp" transform="translate(0,572)" d="M89,0h711" style="stroke: rgb(235, 240, 248); stroke-opacity: 1; stroke-width: 2px;"/></g><path class="xlines-below"/><path class="ylines-below"/><g class="overlines-below"/><g class="xaxislayer-below"/><g class="yaxislayer-below"/><g class="overaxes-below"/><g class="plot" transform="translate(89,0)" clip-path="url(#clip95d215xyplot)"><g class="scatterlayer mlayer"><g class="trace scatter trace7aa4c2" style="stroke-miterlimit: 2; opacity: 1;"><g class="fills"/><g class="errorbars"/><g class="lines"><path class="js-line" d="M0.01,572L57.69,572L61.07,570.87L64.46,570.87L67.97,569.73L71.36,568.6L74.75,568.6L78.14,568.6L81.54,567.46L84.92,565.19L88.32,565.19L98.5,565.19L101.89,564.06L108.67,564.06L112.06,562.92L115.46,562.92L118.85,564.06L125.63,564.06L129.02,562.92L132.41,564.06L135.8,566.33L139.19,565.19L142.59,561.79L145.98,560.65L149.38,558.38L152.76,556.11L156.15,552.71L159.55,549.3L162.95,548.17L166.34,544.76L169.74,537.95L173.13,534.55L176.52,525.47L183.32,520.93L186.71,506.17L193.51,493.69L196.9,484.61L200.3,469.86L203.69,461.91L207.08,451.7L210.47,449.43L213.86,435.81L217.25,425.6L224.03,401.76L227.43,399.49L234.22,374.52L237.61,377.93L241,373.39L244.4,365.44L247.79,357.5L251.18,356.37L254.58,356.37L257.97,350.69L261.36,343.88L264.75,343.88L268.14,347.29L271.53,341.61L274.92,342.75L278.32,333.67L281.7,330.26L285.1,327.99L291.9,313.24L295.3,316.64L298.7,324.59L302.09,316.64L305.49,301.89L308.89,300.75L312.29,295.08L315.68,286L325.86,266.71L329.26,262.17L332.65,263.3L336.04,254.22L339.43,245.14L342.82,238.33L346.21,224.71L349.6,205.42L353,212.23L356.39,216.77L359.79,207.69L363.18,200.88L366.58,198.61L369.96,188.4L373.36,190.67L376.75,181.59L380.14,175.91L383.53,161.16L386.92,161.16L390.31,164.56L393.7,158.89L397.1,157.75L400.49,155.48L403.89,147.54L407.29,138.46L410.69,138.46L414.08,136.19L417.48,141.87L420.87,138.46L424.26,136.19L427.66,145.27L431.05,152.08L434.44,156.62L437.83,152.08L441.22,149.81L444.62,153.21L448.02,155.48L451.42,161.16L454.87,161.16L458.26,165.7L461.65,169.1L465.04,171.37L468.44,163.43L471.84,163.43L475.23,164.56L478.62,156.62L482.02,157.75L485.42,154.35L488.92,156.62L492.32,155.48L495.71,157.75L499.11,155.48L502.5,156.62L505.9,160.02L512.68,149.81L516.08,141.87L519.48,139.6L522.88,136.19L526.28,133.92L529.66,135.06L533.05,124.84L536.45,127.11L539.84,127.11L543.23,128.25L553.4,124.84L556.79,115.76L560.18,121.44L563.58,122.57L566.98,131.65L570.38,130.52L573.77,130.52L577.16,128.25L580.55,127.11L583.95,128.25L587.33,125.98L590.72,121.44L594.11,132.79L597.51,128.25L604.3,125.98L607.7,129.38L611.08,128.25L614.47,128.25L617.87,115.76L621.27,116.9L624.67,115.76L628.06,116.9L631.45,114.63L634.84,115.76L638.23,115.76L641.62,118.03L645.01,99.87L648.41,97.6L651.81,95.33L655.2,89.66L658.6,88.52L661.99,81.71L665.38,80.58L668.78,83.98L672.18,82.85L675.57,82.85L678.96,83.98L682.34,86.25L685.73,85.12L689.12,91.93L692.51,89.66" style="vector-effect: none; fill: none; stroke: rgb(31, 119, 180); stroke-opacity: 1; stroke-width: 2.5px; opacity: 1;"/></g><g class="points"/><g class="text"/></g><g class="trace scatter tracea0bde8" style="stroke-miterlimit: 2;"><g class="fills"><g><path class="js-fill" d="M3.41,572L57.69,572L61.07,575.26L98.5,575.96L101.89,574.95L115.46,575.57L118.85,576.71L125.63,576.71L129.02,575.57L132.41,576.71L135.8,576.83L139.19,575.96L142.59,577.28L149.38,574.4L152.76,574.83L159.55,570.32L162.95,570.27L166.34,566.86L169.74,566L173.13,563.47L176.52,562.13L179.92,558.95L183.32,554.36L186.71,558.79L190.11,551.82L193.51,548.21L196.9,539.54L200.3,537.65L203.69,530.27L207.08,522.03L210.47,517.89L213.86,509.17L217.25,496.9L220.64,491.32L224.03,478.44L227.43,475.59L230.82,457.2L234.22,430.91L237.61,434.32L247.79,409.3L251.18,409.29L254.58,409.29L257.97,406.78L261.36,386.95L264.75,386.95L268.14,394.22L271.53,398.75L274.92,399.52L278.32,391.22L281.7,388.24L285.1,386.49L291.9,366.76L295.3,371.99L298.7,385.58L302.09,388L305.49,377.16L308.89,376.47L312.29,367.15L315.68,363.53L319.07,348.25L322.46,351.23L325.86,343.24L329.26,340.76L332.65,342.6L336.04,336.79L342.82,325.8L346.21,306.31L349.6,270.36L353,279.67L356.39,284.21L359.79,277.23L363.18,265.61L366.58,264.69L369.96,246.26L373.36,246.69L376.75,241.42L380.14,238.12L383.53,212.98L386.92,212.98L390.31,217.02L393.7,214.04L400.49,212.63L403.89,192.79L407.29,174.78L410.69,174.78L414.08,169.5L417.48,183.3L424.26,177.29L427.66,191.43L431.05,200.52L434.44,202.48L437.83,200.52L441.22,196.74L444.62,197.7L448.02,200.46L451.42,203.29L454.87,203.29L465.04,210.97L468.44,202.03L475.23,202.34L478.62,191.74L482.02,195.09L485.42,193.42L492.32,191.81L495.71,194.53L499.11,191.81L502.5,194.03L505.9,200.31L509.29,197.12L512.68,193.54L516.08,187.12L522.88,187.59L526.28,185.58L529.66,186.4L533.05,170.55L536.45,173L539.84,173L543.23,174.85L546.63,172.55L550.01,171.11L553.4,168.23L556.79,152.84L560.18,164.05L563.58,164.67L566.98,177.99L573.77,178.44L577.16,177.86L580.55,176.9L583.95,177.02L590.72,172.86L594.11,207.6L597.51,203.14L600.9,202.11L604.3,200.24L607.7,202.46L611.08,200.32L614.47,200.32L617.87,188.05L621.27,188.39L628.06,188.97L631.45,187.39L634.84,188.33L638.23,188.33L641.62,189.3L645.01,140.3L648.41,139.24L651.81,137.03L655.2,126.99L658.6,124.81L661.99,107.61L665.38,105.39L668.78,103.99L672.18,103.67L675.57,103.67L678.96,105.96L682.34,109.33L685.73,107.22L689.12,131.7L692.51,130.18L692.51,49.13L689.12,52.16L685.73,63.02L682.34,63.17L678.96,62.01L672.18,62.03L668.78,63.98L665.38,55.77L661.99,55.82L658.6,52.24L655.2,52.32L651.81,53.63L648.41,55.97L645.01,59.45L641.62,46.77L638.23,43.19L634.84,43.19L631.45,41.87L628.06,44.82L624.67,43.19L621.27,45.4L617.87,43.48L614.47,56.17L611.08,56.17L607.7,56.3L604.3,51.72L600.9,52.11L597.51,53.36L594.11,57.97L590.72,70.01L587.33,77.31L583.95,79.47L580.55,77.33L577.16,78.63L573.77,82.6L570.38,82.6L566.98,85.31L563.58,80.48L560.18,78.82L556.79,78.69L553.4,81.45L550.01,80.84L546.63,81.67L539.84,81.22L536.45,81.22L533.05,79.13L529.66,83.71L526.28,82.26L522.88,84.8L519.48,91.96L516.08,96.61L509.29,113.85L505.9,119.74L502.5,119.21L499.11,119.16L495.71,120.98L492.32,119.16L488.92,120.33L485.42,115.28L482.02,120.42L478.62,121.49L475.23,126.79L471.84,124.82L468.44,124.82L465.04,131.78L461.65,130.14L458.26,125.58L454.87,119.03L451.42,119.03L448.02,110.5L444.62,108.73L441.22,102.88L437.83,103.64L434.44,110.76L431.05,103.64L424.26,95.09L420.87,96.83L417.48,100.43L414.08,102.88L407.29,102.14L403.89,102.28L400.49,98.34L397.1,102.53L393.7,103.74L390.31,112.11L386.92,109.34L383.53,109.34L380.14,113.71L376.75,121.76L373.36,134.65L369.96,130.53L366.58,132.53L363.18,136.15L359.79,138.15L356.39,149.33L349.6,140.48L346.21,143.12L342.82,150.86L339.43,158.53L332.65,184.01L329.26,183.57L322.46,195.8L319.07,210.13L315.68,208.47L312.29,223.01L308.89,225.04L305.49,226.61L302.09,245.28L298.7,263.59L295.3,261.29L291.9,259.71L288.5,264.25L285.1,269.49L278.32,276.12L274.92,285.97L271.53,284.47L268.14,300.35L264.75,300.81L261.36,300.81L257.97,294.6L254.58,303.44L251.18,303.44L247.79,305.7L241,320.85L237.61,321.54L234.22,318.14L230.82,319.08L227.43,323.4L224.03,325.09L220.64,337.18L217.25,354.29L213.86,362.45L210.47,380.97L207.08,381.37L203.69,393.55L200.3,402.07L196.9,429.69L190.11,446.91L186.71,453.56L183.32,487.49L179.92,487.45L176.52,488.81L173.13,505.63L169.74,509.91L166.34,522.66L162.95,526.06L159.55,528.29L149.38,542.36L145.98,545.33L142.59,546.29L139.19,554.42L135.8,555.82L132.41,551.4L129.02,550.27L125.63,551.4L118.85,551.4L115.46,550.27L112.06,550.27L108.67,553.16L101.89,553.16L98.5,554.42L88.32,554.42L84.92,554.42L81.54,559.67L78.14,561.55L74.75,561.55L71.36,561.55L67.97,563.74L64.46,566.47L61.07,566.47L57.69,572L3.41,572Z" style="fill: rgb(31, 119, 180); fill-opacity: 0.1; stroke-width: 0;"/></g></g><g class="errorbars"/><g class="lines"><path class="js-line" d="M3.41,572L57.69,572L61.07,566.47L64.46,566.47L67.97,563.74L71.36,561.55L74.75,561.55L78.14,561.55L81.54,559.67L84.92,554.42L88.32,554.42L98.5,554.42L101.89,553.16L108.67,553.16L112.06,550.27L115.46,550.27L118.85,551.4L125.63,551.4L129.02,550.27L132.41,551.4L135.8,555.82L139.19,554.42L142.59,546.29L145.98,545.33L149.38,542.36L159.55,528.29L162.95,526.06L166.34,522.66L169.74,509.91L173.13,505.63L176.52,488.81L179.92,487.45L183.32,487.49L186.71,453.56L190.11,446.91L196.9,429.69L200.3,402.07L203.69,393.55L207.08,381.37L210.47,380.97L213.86,362.45L217.25,354.29L220.64,337.18L224.03,325.09L227.43,323.4L230.82,319.08L234.22,318.14L237.61,321.54L241,320.85L247.79,305.7L251.18,303.44L254.58,303.44L257.97,294.6L261.36,300.81L264.75,300.81L268.14,300.35L271.53,284.47L274.92,285.97L278.32,276.12L285.1,269.49L288.5,264.25L291.9,259.71L295.3,261.29L298.7,263.59L302.09,245.28L305.49,226.61L308.89,225.04L312.29,223.01L315.68,208.47L319.07,210.13L322.46,195.8L329.26,183.57L332.65,184.01L339.43,158.53L342.82,150.86L346.21,143.12L349.6,140.48L356.39,149.33L359.79,138.15L363.18,136.15L366.58,132.53L369.96,130.53L373.36,134.65L376.75,121.76L380.14,113.71L383.53,109.34L386.92,109.34L390.31,112.11L393.7,103.74L397.1,102.53L400.49,98.34L403.89,102.28L407.29,102.14L414.08,102.88L417.48,100.43L420.87,96.83L424.26,95.09L431.05,103.64L434.44,110.76L437.83,103.64L441.22,102.88L444.62,108.73L448.02,110.5L451.42,119.03L454.87,119.03L458.26,125.58L461.65,130.14L465.04,131.78L468.44,124.82L471.84,124.82L475.23,126.79L478.62,121.49L482.02,120.42L485.42,115.28L488.92,120.33L492.32,119.16L495.71,120.98L499.11,119.16L502.5,119.21L505.9,119.74L509.29,113.85L516.08,96.61L519.48,91.96L522.88,84.8L526.28,82.26L529.66,83.71L533.05,79.13L536.45,81.22L539.84,81.22L546.63,81.67L550.01,80.84L553.4,81.45L556.79,78.69L560.18,78.82L563.58,80.48L566.98,85.31L570.38,82.6L573.77,82.6L577.16,78.63L580.55,77.33L583.95,79.47L587.33,77.31L590.72,70.01L594.11,57.97L597.51,53.36L600.9,52.11L604.3,51.72L607.7,56.3L611.08,56.17L614.47,56.17L617.87,43.48L621.27,45.4L624.67,43.19L628.06,44.82L631.45,41.87L634.84,43.19L638.23,43.19L641.62,46.77L645.01,59.45L648.41,55.97L651.81,53.63L655.2,52.32L658.6,52.24L661.99,55.82L665.38,55.77L668.78,63.98L672.18,62.03L678.96,62.01L682.34,63.17L685.73,63.02L689.12,52.16L692.51,49.13" style="vector-effect: none; fill: none; stroke: rgb(239, 85, 59); stroke-opacity: 1; stroke-width: 0px; opacity: 1;"/></g><g class="points"/><g class="text"/></g><g class="trace scatter traced6ae63" style="stroke-miterlimit: 2;"><g class="fills"/><g class="errorbars"/><g class="lines"><path class="js-line" d="M3.41,572L57.69,572L61.07,575.26L98.5,575.96L101.89,574.95L115.46,575.57L118.85,576.71L125.63,576.71L129.02,575.57L132.41,576.71L135.8,576.83L139.19,575.96L142.59,577.28L149.38,574.4L152.76,574.83L159.55,570.32L162.95,570.27L166.34,566.86L169.74,566L173.13,563.47L176.52,562.13L179.92,558.95L183.32,554.36L186.71,558.79L190.11,551.82L193.51,548.21L196.9,539.54L200.3,537.65L203.69,530.27L207.08,522.03L210.47,517.89L213.86,509.17L217.25,496.9L220.64,491.32L224.03,478.44L227.43,475.59L230.82,457.2L234.22,430.91L237.61,434.32L247.79,409.3L251.18,409.29L254.58,409.29L257.97,406.78L261.36,386.95L264.75,386.95L268.14,394.22L271.53,398.75L274.92,399.52L278.32,391.22L281.7,388.24L285.1,386.49L291.9,366.76L295.3,371.99L298.7,385.58L302.09,388L305.49,377.16L308.89,376.47L312.29,367.15L315.68,363.53L319.07,348.25L322.46,351.23L325.86,343.24L329.26,340.76L332.65,342.6L336.04,336.79L342.82,325.8L346.21,306.31L349.6,270.36L353,279.67L356.39,284.21L359.79,277.23L363.18,265.61L366.58,264.69L369.96,246.26L373.36,246.69L376.75,241.42L380.14,238.12L383.53,212.98L386.92,212.98L390.31,217.02L393.7,214.04L400.49,212.63L403.89,192.79L407.29,174.78L410.69,174.78L414.08,169.5L417.48,183.3L424.26,177.29L427.66,191.43L431.05,200.52L434.44,202.48L437.83,200.52L441.22,196.74L444.62,197.7L448.02,200.46L451.42,203.29L454.87,203.29L465.04,210.97L468.44,202.03L475.23,202.34L478.62,191.74L482.02,195.09L485.42,193.42L492.32,191.81L495.71,194.53L499.11,191.81L502.5,194.03L505.9,200.31L509.29,197.12L512.68,193.54L516.08,187.12L522.88,187.59L526.28,185.58L529.66,186.4L533.05,170.55L536.45,173L539.84,173L543.23,174.85L546.63,172.55L550.01,171.11L553.4,168.23L556.79,152.84L560.18,164.05L563.58,164.67L566.98,177.99L573.77,178.44L577.16,177.86L580.55,176.9L583.95,177.02L590.72,172.86L594.11,207.6L597.51,203.14L600.9,202.11L604.3,200.24L607.7,202.46L611.08,200.32L614.47,200.32L617.87,188.05L621.27,188.39L628.06,188.97L631.45,187.39L634.84,188.33L638.23,188.33L641.62,189.3L645.01,140.3L648.41,139.24L651.81,137.03L655.2,126.99L658.6,124.81L661.99,107.61L665.38,105.39L668.78,103.99L672.18,103.67L675.57,103.67L678.96,105.96L682.34,109.33L685.73,107.22L689.12,131.7L692.51,130.18" style="vector-effect: none; fill: none; stroke: rgb(0, 204, 150); stroke-opacity: 1; stroke-width: 0px; opacity: 1;"/></g><g class="points"/><g class="text"/></g><g class="trace scatter trace3270ea" style="stroke-miterlimit: 2; opacity: 1;"><g class="fills"/><g class="errorbars"/><g class="lines"><path class="js-line" d="M0.01,572L693.06,572" style="vector-effect: none; fill: none; stroke: rgb(255, 127, 14); stroke-opacity: 1; stroke-width: 2.5px; opacity: 1;"/></g><g class="points"/><g class="text"/></g><g class="trace scatter trace00e61b" style="stroke-miterlimit: 2;"><g class="fills"><g><path class="js-fill" d="M3.41,572L693.06,572L693.06,572L3.41,572Z" style="fill: rgb(255, 127, 14); fill-opacity: 0.1; stroke-width: 0;"/></g></g><g class="errorbars"/><g class="lines"><path class="js-line" d="M3.41,572L693.06,572" style="vector-effect: none; fill: none; stroke: rgb(255, 161, 90); stroke-opacity: 1; stroke-width: 0px; opacity: 1;"/></g><g class="points"/><g class="text"/></g><g class="trace scatter trace604f1a" style="stroke-miterlimit: 2;"><g class="fills"/><g class="errorbars"/><g class="lines"><path class="js-line" d="M3.41,572L693.06,572" style="vector-effect: none; fill: none; stroke: rgb(25, 211, 243); stroke-opacity: 1; stroke-width: 0px; opacity: 1;"/></g><g class="points"/><g class="text"/></g><g class="trace scatter tracef9e630" style="stroke-miterlimit: 2; opacity: 1;"><g class="fills"/><g class="errorbars"/><g class="lines"><path class="js-line" d="M0.01,572L692.51,572" style="vector-effect: none; fill: none; stroke: rgb(44, 160, 44); stroke-opacity: 1; stroke-width: 2.5px; opacity: 1;"/></g><g class="points"/><g class="text"/></g><g class="trace scatter tracec6d986" style="stroke-miterlimit: 2;"><g class="fills"><g><path class="js-fill" d="M3.41,572L692.51,572L692.51,572L3.41,572Z" style="fill: rgb(44, 160, 44); fill-opacity: 0.1; stroke-width: 0;"/></g></g><g class="errorbars"/><g class="lines"><path class="js-line" d="M3.41,572L692.51,572" style="vector-effect: none; fill: none; stroke: rgb(182, 232, 128); stroke-opacity: 1; stroke-width: 0px; opacity: 1;"/></g><g class="points"/><g class="text"/></g><g class="trace scatter tracefeca8c" style="stroke-miterlimit: 2;"><g class="fills"/><g class="errorbars"/><g class="lines"><path class="js-line" d="M3.41,572L692.51,572" style="vector-effect: none; fill: none; stroke: rgb(255, 151, 255); stroke-opacity: 1; stroke-width: 0px; opacity: 1;"/></g><g class="points"/><g class="text"/></g><g class="trace scatter trace8fe830" style="stroke-miterlimit: 2; opacity: 1;"><g class="fills"/><g class="errorbars"/><g class="lines"><path class="js-line" d="M0.01,572L691.93,572" style="vector-effect: none; fill: none; stroke: rgb(214, 39, 40); stroke-opacity: 1; stroke-width: 2.5px; opacity: 1;"/></g><g class="points"/><g class="text"/></g><g class="trace scatter trace21b750" style="stroke-miterlimit: 2;"><g class="fills"><g><path class="js-fill" d="M3.4,572L691.93,572L691.93,572L3.4,572Z" style="fill: rgb(214, 39, 40); fill-opacity: 0.1; stroke-width: 0;"/></g></g><g class="errorbars"/><g class="lines"><path class="js-line" d="M3.4,572L691.93,572" style="vector-effect: none; fill: none; stroke: rgb(99, 110, 250); stroke-opacity: 1; stroke-width: 0px; opacity: 1;"/></g><g class="points"/><g class="text"/></g><g class="trace scatter trace96a7c8" style="stroke-miterlimit: 2;"><g class="fills"/><g class="errorbars"/><g class="lines"><path class="js-line" d="M3.4,572L691.93,572" style="vector-effect: none; fill: none; stroke: rgb(239, 85, 59); stroke-opacity: 1; stroke-width: 0px; opacity: 1;"/></g><g class="points"/><g class="text"/></g><g class="trace scatter tracec3adf7" style="stroke-miterlimit: 2; opacity: 1;"><g class="fills"/><g class="errorbars"/><g class="lines"><path class="js-line" d="M0.01,572L692.91,572" style="vector-effect: none; fill: none; stroke: rgb(148, 103, 189); stroke-opacity: 1; stroke-width: 2.5px; opacity: 1;"/></g><g class="points"/><g class="text"/></g><g class="trace scatter trace132031" style="stroke-miterlimit: 2;"><g class="fills"><g><path class="js-fill" d="M3.41,572L692.91,572L692.91,572L3.41,572Z" style="fill: rgb(148, 103, 189); fill-opacity: 0.1; stroke-width: 0;"/></g></g><g class="errorbars"/><g class="lines"><path class="js-line" d="M3.41,572L692.91,572" style="vector-effect: none; fill: none; stroke: rgb(171, 99, 250); stroke-opacity: 1; stroke-width: 0px; opacity: 1;"/></g><g class="points"/><g class="text"/></g><g class="trace scatter trace3452d5" style="stroke-miterlimit: 2;"><g class="fills"/><g class="errorbars"/><g class="lines"><path class="js-line" d="M3.41,572L692.91,572" style="vector-effect: none; fill: none; stroke: rgb(255, 161, 90); stroke-opacity: 1; stroke-width: 0px; opacity: 1;"/></g><g class="points"/><g class="text"/></g><g class="trace scatter tracec7364c" style="stroke-miterlimit: 2; opacity: 1;"><g class="fills"/><g class="errorbars"/><g class="lines"><path class="js-line" d="M0.01,572L692.41,572" style="vector-effect: none; fill: none; stroke: rgb(140, 86, 75); stroke-opacity: 1; stroke-width: 2.5px; opacity: 1;"/></g><g class="points"/><g class="text"/></g><g class="trace scatter trace3994e5" style="stroke-miterlimit: 2;"><g class="fills"><g><path class="js-fill" d="M3.4,572L692.41,572L692.41,572L3.4,572Z" style="fill: rgb(140, 86, 75); fill-opacity: 0.1; stroke-width: 0;"/></g></g><g class="errorbars"/><g class="lines"><path class="js-line" d="M3.4,572L692.41,572" style="vector-effect: none; fill: none; stroke: rgb(255, 102, 146); stroke-opacity: 1; stroke-width: 0px; opacity: 1;"/></g><g class="points"/><g class="text"/></g><g class="trace scatter trace2697be" style="stroke-miterlimit: 2;"><g class="fills"/><g class="errorbars"/><g class="lines"><path class="js-line" d="M3.4,572L692.41,572" style="vector-effect: none; fill: none; stroke: rgb(182, 232, 128); stroke-opacity: 1; stroke-width: 0px; opacity: 1;"/></g><g class="points"/><g class="text"/></g></g></g><g class="overplot"/><path class="xlines-above crisp" d="M0,0" style="fill: none;"/><path class="ylines-above crisp" d="M0,0" style="fill: none;"/><g class="overlines-above"/><g class="xaxislayer-above"><g class="xtick"><text text-anchor="middle" x="0" y="603" transform="translate(89,0)" style="font-family: 'Open Sans', verdana, arial, sans-serif; font-size: 30px; fill: rgb(42, 63, 95); fill-opacity: 1; white-space: pre; opacity: 1;">0</text></g><g class="xtick"><text text-anchor="middle" x="0" y="603" style="font-family: 'Open Sans', verdana, arial, sans-serif; font-size: 30px; fill: rgb(42, 63, 95); fill-opacity: 1; white-space: pre; opacity: 1;" transform="translate(427.57,0)">1M</text></g><g class="xtick"><text text-anchor="middle" x="0" y="603" style="font-family: 'Open Sans', verdana, arial, sans-serif; font-size: 30px; fill: rgb(42, 63, 95); fill-opacity: 1; white-space: pre; opacity: 1;" transform="translate(766.14,0)">2M</text></g></g><g class="yaxislayer-above"><g class="ytick"><text text-anchor="end" x="88" y="10.5" transform="translate(0,463.05)" style="font-family: 'Open Sans', verdana, arial, sans-serif; font-size: 30px; fill: rgb(42, 63, 95); fill-opacity: 1; white-space: pre; opacity: 1;">0.2</text></g><g class="ytick"><text text-anchor="end" x="88" y="10.5" style="font-family: 'Open Sans', verdana, arial, sans-serif; font-size: 30px; fill: rgb(42, 63, 95); fill-opacity: 1; white-space: pre; opacity: 1;" transform="translate(0,354.1)">0.4</text></g><g class="ytick"><text text-anchor="end" x="88" y="10.5" style="font-family: 'Open Sans', verdana, arial, sans-serif; font-size: 30px; fill: rgb(42, 63, 95); fill-opacity: 1; white-space: pre; opacity: 1;" transform="translate(0,245.14)">0.6</text></g><g class="ytick"><text text-anchor="end" x="88" y="10.5" style="font-family: 'Open Sans', verdana, arial, sans-serif; font-size: 30px; fill: rgb(42, 63, 95); fill-opacity: 1; white-space: pre; opacity: 1;" transform="translate(0,136.19)">0.8</text></g><g class="ytick"><text text-anchor="end" x="88" y="10.5" style="font-family: 'Open Sans', verdana, arial, sans-serif; font-size: 30px; fill: rgb(42, 63, 95); fill-opacity: 1; white-space: pre; opacity: 1;" transform="translate(0,27.24)">1</text></g></g><g class="overaxes-above"/></g></g><g class="polarlayer"/><g class="smithlayer"/><g class="ternarylayer"/><g class="geolayer"/><g class="funnelarealayer"/><g class="pielayer"/><g class="iciclelayer"/><g class="treemaplayer"/><g class="sunburstlayer"/><g class="glimages"/><defs id="topdefs-95d215"><g class="clips"/></defs><g class="layer-above"><g class="imagelayer"/><g class="shapelayer"/></g><g class="infolayer"><g class="g-gtitle"/><g class="g-xtitle" transform="translate(0,-7.7000000000000455)"><text class="xtitle" x="444.5" y="649.7" text-anchor="middle" style="font-family: 'Open Sans', verdana, arial, sans-serif; font-size: 36px; fill: rgb(42, 63, 95); opacity: 1; font-weight: normal; white-space: pre;">Time Steps</text></g><g class="g-ytitle"/></g></svg>