<svg class="main-svg" xmlns="http://www.w3.org/2000/svg" xmlns:xlink="http://www.w3.org/1999/xlink" width="2400" height="1950" style="" viewBox="0 0 800 650"><rect x="0" y="0" width="800" height="650" style="fill: rgb(255, 255, 255); fill-opacity: 1;"/><defs id="defs-c9ac1f"><g class="clips"><clipPath id="clipc9ac1fxyplot" class="plotclip"><rect width="711" height="572"/></clipPath><clipPath class="axesclip" id="clipc9ac1fx"><rect x="89" y="0" width="711" height="650"/></clipPath><clipPath class="axesclip" id="clipc9ac1fy"><rect x="0" y="0" width="800" height="572"/></clipPath><clipPath class="axesclip" id="clipc9ac1fxy"><rect x="89" y="0" width="711" height="572"/></clipPath></g><g class="gradients"/><g class="patterns"/></defs><g class="bglayer"/><g class="layer-below"><g class="imagelayer"/><g class="shapelayer"/></g><g class="cartesianlayer"><g class="subplot xy"><g class="layer-subplot"><g class="shapelayer"/><g class="imagelayer"/></g><g class="minor-gridlayer"><g class="x"/><g class="y"/></g><g class="gridlayer"><g class="x"><path class="xgrid crisp" transform="translate(427.57,0)" d="M0,0v572" style="stroke: rgb(235, 240, 248); stroke-opacity: 1; stroke-width: 1px;"/><path class="xgrid crisp" transform="translate(766.14,0)" d="M0,0v572" style="stroke: rgb(235, 240, 248); stroke-opacity: 1; stroke-width: 1px;"/></g><g class="y"><path class="ygrid crisp" transform="translate(0,463.05)" d="M89,0h711" style="stroke: rgb(235, 240, 248); stroke-opacity: 1; stroke-width: 1px;"/><path class="ygrid crisp" transform="translate(0,354.1)" d="M89,0h711" style="stroke: rgb(235, 240, 248); stroke-opacity: 1; stroke-width: 1px;"/><path class="ygrid crisp" transform="translate(0,245.14)" d="M89,0h711" style="stroke: rgb(235, 240, 248); stroke-opacity: 1; stroke-width: 1px;"/><path class="ygrid crisp" transform="translate(0,136.19)" d="M89,0h711" style="stroke: rgb(235, 240, 248); stroke-opacity: 1; stroke-width: 1px;"/><path class="ygrid crisp" transform="translate(0,27.24)" d="M89,0h711" style="stroke: rgb(235, 240, 248); stroke-opacity: 1; stroke-width: 1px;"/></g></g><g class="zerolinelayer"><path class="xzl zl crisp" transform="translate(89,0)" d="M0,0v572" style="stroke: rgb(235, 240, 248); stroke-opacity: 1; stroke-width: 2px;"/><path class="yzl zl crisp" transform="translate(0,572)" d="M89,0h711" style="stroke: rgb(235, 240, 248); stroke-opacity: 1; stroke-width: 2px;"/></g><path class="xlines-below"/><path class="ylines-below"/><g class="overlines-below"/><g class="xaxislayer-below"/><g class="yaxislayer-below"/><g class="overaxes-below"/><g class="plot" transform="translate(89,0)" clip-path="url(#clipc9ac1fxyplot)"><g class="scatterlayer mlayer"><g class="trace scatter trace2bfd8d" style="stroke-miterlimit: 2; opacity: 1;"><g class="fills"/><g class="errorbars"/><g class="lines"><path class="js-line" d="M0.01,572L81.6,572L84.99,569.73L91.84,569.73L95.25,567.46L98.64,567.46L102.04,561.79L105.43,552.71L108.82,545.9L115.63,539.09L119.03,528.87L129.25,485.75L132.67,478.94L136.08,474.4L139.48,459.64L146.3,433.54L149.69,416.52L153.09,394.95L156.49,382.47L159.89,376.79L163.28,362.04L166.68,340.48L170.09,333.67L173.5,338.21L176.89,324.59L180.27,315.51L183.67,292.81L187.1,273.52L190.51,258.76L197.28,223.58L200.68,209.96L204.06,206.56L207.45,197.48L210.84,177.05L214.24,161.16L217.63,153.21L221.02,136.19L224.42,111.22L227.82,106.68L231.21,95.33L234.61,90.79L241.42,78.31L244.83,77.17L248.22,76.04L251.62,76.04L255.03,71.5L258.47,70.37L261.86,77.17L265.26,79.44L268.65,81.71L272.05,80.58L275.44,79.44L278.83,74.9L282.23,74.9L285.63,72.63L289.02,70.37L292.42,70.37L295.81,65.83L299.21,63.56L302.6,57.88L306,56.75L309.39,52.21L312.79,41.99L319.58,31.78L322.97,34.05L326.36,32.91L329.76,34.05L333.15,34.05L336.55,36.32L339.95,34.05L343.34,36.32L346.74,37.45L350.13,43.13L353.52,43.13L356.93,46.53L360.32,46.53L363.72,47.67L370.51,47.67L373.89,44.26L377.29,47.67L380.68,47.67L384.08,47.67L387.47,52.21L390.9,54.48L394.29,59.02L397.69,57.88L401.08,52.21L404.47,53.34L407.86,51.07L411.26,55.61L414.65,55.61L418.06,56.75L421.45,56.75L424.84,57.88L428.24,54.48L431.64,53.34L435.03,53.34L438.42,46.53L441.82,45.4L445.22,38.59L448.61,38.59L452,38.59L455.39,39.72L458.8,38.59L462.2,34.05L465.59,32.91L468.98,32.91L472.38,36.32L475.77,35.18L489.33,35.18L492.73,34.05L496.12,34.05L499.52,35.18L502.91,35.18L506.32,34.05L513.1,34.05L516.5,35.18L519.89,34.05L523.29,30.64L533.45,30.64L536.85,38.59L540.24,40.86L543.64,40.86L547.03,40.86L550.42,39.72L553.82,39.72L557.21,40.86L564.01,40.86L567.41,43.13L574.2,45.4L577.58,45.4L584.37,45.4L587.77,37.45L591.15,35.18L594.54,35.18L604.73,35.18L608.11,32.91L614.91,32.91L618.3,29.51L621.69,29.51L625.08,28.37L628.49,28.37L631.88,35.18L669.21,35.18L672.6,34.05L679.4,34.05L682.79,27.24L689.57,29.51L692.96,29.51" style="vector-effect: none; fill: none; stroke: rgb(31, 119, 180); stroke-opacity: 1; stroke-width: 2.5px; opacity: 1;"/></g><g class="points"/><g class="text"/></g><g class="trace scatter trace2955a0" style="stroke-miterlimit: 2;"><g class="fills"><g><path class="js-fill" d="M3.4,572L81.6,572L84.99,578.52L91.84,578.52L95.25,579.44L98.64,579.44L102.04,585.69L105.43,592.82L108.82,590.88L115.63,583.42L119.03,581.88L122.44,581.08L125.83,575.52L129.25,568.51L132.67,558.23L136.08,552L139.48,538.4L142.87,521.55L146.3,508.82L149.69,486.96L153.09,488.15L156.49,482.12L159.89,473.5L166.68,428.18L170.09,418.79L173.5,427.01L176.89,423.62L180.27,419.75L183.67,398.11L187.1,370.22L190.51,359.64L193.9,341.7L197.28,329.28L200.68,315.97L204.06,314.96L207.45,307.8L210.84,278.21L214.24,260.4L217.63,254.09L221.02,228.72L224.42,154.61L227.82,147.71L231.21,132.85L234.61,128.02L238.02,113.02L241.42,107.09L244.83,104.83L248.22,103.99L251.62,103.99L255.03,98.65L258.47,96L261.86,115.49L265.26,117.76L268.65,120.96L272.05,120.69L275.44,120.38L278.83,117.68L285.63,117.06L289.02,114.41L292.42,114.41L295.81,110.62L299.21,109.45L302.6,102.55L306,102L309.39,96.72L312.79,69.19L316.19,60.47L319.58,41.88L322.97,49.54L326.36,48.23L329.76,49.54L333.15,49.54L336.55,53.18L339.95,49.54L343.34,53.18L346.74,54.23L350.13,68.43L353.52,68.43L356.93,72.96L370.51,73.56L373.89,69.18L377.29,73.56L380.68,73.56L384.08,73.56L387.47,85.56L390.9,87.16L394.29,97.01L397.69,96.59L401.08,88.53L404.47,89.09L407.86,86.2L411.26,91.82L414.65,91.82L424.84,92.65L428.24,89.6L435.03,89.09L438.42,75.92L441.82,74.51L445.22,56.4L452,56.4L455.39,58.44L458.8,57.53L462.2,44.81L465.59,43.42L468.98,43.42L472.38,51.9L475.77,50.77L489.33,50.77L492.73,49.54L496.12,49.54L499.52,50.77L502.91,50.77L506.32,48.14L513.1,48.14L516.5,49.38L519.89,48.14L523.29,37.69L533.45,37.69L536.85,69.22L540.24,71.85L543.64,71.85L547.03,71.85L550.42,70.89L553.82,70.89L557.21,72.51L564.01,72.51L567.41,76.23L574.2,77.87L577.58,77.87L584.37,77.87L587.77,54.23L591.15,50.77L594.54,50.77L604.73,50.77L608.11,46.81L614.91,46.81L618.3,35.5L621.69,35.5L625.08,32.77L628.49,32.77L631.88,61.61L669.21,61.61L672.6,60.42L679.4,60.42L682.79,27.24L686.17,32.77L689.57,35.5L692.96,35.5L692.96,23.52L689.57,23.52L686.17,23.98L682.79,27.24L679.4,7.67L672.6,7.67L669.21,8.76L631.88,8.76L628.49,23.98L618.3,23.52L614.91,19.01L594.54,19.6L591.15,19.6L587.77,20.67L584.37,12.93L577.58,12.93L574.2,12.93L567.41,10.02L564.01,9.2L550.42,8.55L547.03,9.86L543.64,9.86L540.24,9.86L536.85,7.95L533.45,23.59L523.29,23.59L519.89,19.95L516.5,20.99L513.1,19.95L499.52,19.6L496.12,18.55L492.73,18.55L489.33,19.6L479.15,19.6L475.77,19.6L472.38,20.73L468.98,22.41L465.59,22.41L462.2,23.28L458.8,19.64L455.39,21L445.22,20.77L441.82,16.29L435.03,17.59L431.64,17.59L428.24,19.35L424.84,23.11L421.45,21.23L418.06,21.23L414.65,19.4L411.26,19.4L407.86,15.95L404.47,17.59L401.08,15.88L397.69,19.17L394.29,21.02L390.9,21.79L387.47,18.85L384.08,21.77L380.68,21.77L377.29,21.77L373.89,19.34L370.51,21.77L363.72,21.77L360.32,20.11L356.93,20.11L353.52,17.82L350.13,17.82L346.74,20.67L339.95,18.55L336.55,19.46L333.15,18.55L329.76,18.55L326.36,17.6L322.97,18.55L319.58,21.67L316.19,14.43L312.79,14.79L309.39,7.69L306,11.49L302.6,13.21L299.21,17.66L295.81,21.03L292.42,26.32L289.02,26.32L285.63,28.21L282.23,32.13L278.83,32.13L275.44,38.51L272.05,40.47L268.65,42.47L265.26,41.13L261.86,38.86L258.47,44.73L255.03,44.35L251.62,48.09L248.22,48.09L244.83,49.52L241.42,49.53L238.02,57.22L234.61,53.57L231.21,57.81L227.82,65.65L224.42,67.84L221.02,43.66L214.24,61.92L210.84,75.88L207.45,87.15L204.06,98.15L200.68,103.95L197.28,117.88L187.1,176.81L183.67,187.51L180.27,211.27L176.89,225.56L173.5,249.41L170.09,248.55L166.68,252.77L163.28,272.27L159.89,280.09L156.49,282.81L153.09,301.75L149.69,346.07L146.3,358.26L142.87,372.77L139.48,380.89L136.08,396.79L129.25,402.98L125.83,427.75L119.03,475.87L115.63,494.76L108.82,500.92L105.43,512.59L102.04,537.88L98.64,555.48L95.25,555.48L91.84,560.94L84.99,560.94L81.6,572L3.4,572Z" style="fill: rgb(31, 119, 180); fill-opacity: 0.1; stroke-width: 0;"/></g></g><g class="errorbars"/><g class="lines"><path class="js-line" d="M3.4,572L81.6,572L84.99,560.94L91.84,560.94L95.25,555.48L98.64,555.48L102.04,537.88L105.43,512.59L108.82,500.92L115.63,494.76L119.03,475.87L125.83,427.75L129.25,402.98L136.08,396.79L139.48,380.89L142.87,372.77L146.3,358.26L149.69,346.07L153.09,301.75L156.49,282.81L159.89,280.09L163.28,272.27L166.68,252.77L170.09,248.55L173.5,249.41L176.89,225.56L180.27,211.27L183.67,187.51L187.1,176.81L197.28,117.88L200.68,103.95L204.06,98.15L207.45,87.15L210.84,75.88L214.24,61.92L221.02,43.66L224.42,67.84L227.82,65.65L231.21,57.81L234.61,53.57L238.02,57.22L241.42,49.53L244.83,49.52L248.22,48.09L251.62,48.09L255.03,44.35L258.47,44.73L261.86,38.86L265.26,41.13L268.65,42.47L272.05,40.47L275.44,38.51L278.83,32.13L282.23,32.13L285.63,28.21L289.02,26.32L292.42,26.32L295.81,21.03L299.21,17.66L302.6,13.21L306,11.49L309.39,7.69L312.79,14.79L316.19,14.43L319.58,21.67L322.97,18.55L326.36,17.6L329.76,18.55L333.15,18.55L336.55,19.46L339.95,18.55L346.74,20.67L350.13,17.82L353.52,17.82L356.93,20.11L360.32,20.11L363.72,21.77L370.51,21.77L373.89,19.34L377.29,21.77L380.68,21.77L384.08,21.77L387.47,18.85L390.9,21.79L394.29,21.02L397.69,19.17L401.08,15.88L404.47,17.59L407.86,15.95L411.26,19.4L414.65,19.4L418.06,21.23L421.45,21.23L424.84,23.11L428.24,19.35L431.64,17.59L435.03,17.59L441.82,16.29L445.22,20.77L455.39,21L458.8,19.64L462.2,23.28L465.59,22.41L468.98,22.41L472.38,20.73L475.77,19.6L479.15,19.6L489.33,19.6L492.73,18.55L496.12,18.55L499.52,19.6L513.1,19.95L516.5,20.99L519.89,19.95L523.29,23.59L533.45,23.59L536.85,7.95L540.24,9.86L543.64,9.86L547.03,9.86L550.42,8.55L564.01,9.2L567.41,10.02L574.2,12.93L577.58,12.93L584.37,12.93L587.77,20.67L591.15,19.6L594.54,19.6L614.91,19.01L618.3,23.52L628.49,23.98L631.88,8.76L669.21,8.76L672.6,7.67L679.4,7.67L682.79,27.24L686.17,23.98L689.57,23.52L692.96,23.52" style="vector-effect: none; fill: none; stroke: rgb(239, 85, 59); stroke-opacity: 1; stroke-width: 0px; opacity: 1;"/></g><g class="points"/><g class="text"/></g><g class="trace scatter tracee82e38" style="stroke-miterlimit: 2;"><g class="fills"/><g class="errorbars"/><g class="lines"><path class="js-line" d="M3.4,572L81.6,572L84.99,578.52L91.84,578.52L95.25,579.44L98.64,579.44L102.04,585.69L105.43,592.82L108.82,590.88L115.63,583.42L119.03,581.88L122.44,581.08L125.83,575.52L129.25,568.51L132.67,558.23L136.08,552L139.48,538.4L142.87,521.55L146.3,508.82L149.69,486.96L153.09,488.15L156.49,482.12L159.89,473.5L166.68,428.18L170.09,418.79L173.5,427.01L176.89,423.62L180.27,419.75L183.67,398.11L187.1,370.22L190.51,359.64L193.9,341.7L197.28,329.28L200.68,315.97L204.06,314.96L207.45,307.8L210.84,278.21L214.24,260.4L217.63,254.09L221.02,228.72L224.42,154.61L227.82,147.71L231.21,132.85L234.61,128.02L238.02,113.02L241.42,107.09L244.83,104.83L248.22,103.99L251.62,103.99L255.03,98.65L258.47,96L261.86,115.49L265.26,117.76L268.65,120.96L272.05,120.69L275.44,120.38L278.83,117.68L285.63,117.06L289.02,114.41L292.42,114.41L295.81,110.62L299.21,109.45L302.6,102.55L306,102L309.39,96.72L312.79,69.19L316.19,60.47L319.58,41.88L322.97,49.54L326.36,48.23L329.76,49.54L333.15,49.54L336.55,53.18L339.95,49.54L343.34,53.18L346.74,54.23L350.13,68.43L353.52,68.43L356.93,72.96L370.51,73.56L373.89,69.18L377.29,73.56L380.68,73.56L384.08,73.56L387.47,85.56L390.9,87.16L394.29,97.01L397.69,96.59L401.08,88.53L404.47,89.09L407.86,86.2L411.26,91.82L414.65,91.82L424.84,92.65L428.24,89.6L435.03,89.09L438.42,75.92L441.82,74.51L445.22,56.4L452,56.4L455.39,58.44L458.8,57.53L462.2,44.81L465.59,43.42L468.98,43.42L472.38,51.9L475.77,50.77L489.33,50.77L492.73,49.54L496.12,49.54L499.52,50.77L502.91,50.77L506.32,48.14L513.1,48.14L516.5,49.38L519.89,48.14L523.29,37.69L533.45,37.69L536.85,69.22L540.24,71.85L543.64,71.85L547.03,71.85L550.42,70.89L553.82,70.89L557.21,72.51L564.01,72.51L567.41,76.23L574.2,77.87L577.58,77.87L584.37,77.87L587.77,54.23L591.15,50.77L594.54,50.77L604.73,50.77L608.11,46.81L614.91,46.81L618.3,35.5L621.69,35.5L625.08,32.77L628.49,32.77L631.88,61.61L669.21,61.61L672.6,60.42L679.4,60.42L682.79,27.24L686.17,32.77L689.57,35.5L692.96,35.5" style="vector-effect: none; fill: none; stroke: rgb(0, 204, 150); stroke-opacity: 1; stroke-width: 0px; opacity: 1;"/></g><g class="points"/><g class="text"/></g><g class="trace scatter trace4509bc" style="stroke-miterlimit: 2; opacity: 1;"><g class="fills"/><g class="errorbars"/><g class="lines"><path class="js-line" d="M0.02,572L694.08,572" style="vector-effect: none; fill: none; stroke: rgb(255, 127, 14); stroke-opacity: 1; stroke-width: 2.5px; opacity: 1;"/></g><g class="points"/><g class="text"/></g><g class="trace scatter traceae44f9" style="stroke-miterlimit: 2;"><g class="fills"><g><path class="js-fill" d="M3.41,572L694.08,572L694.08,572L3.41,572Z" style="fill: rgb(255, 127, 14); fill-opacity: 0.1; stroke-width: 0;"/></g></g><g class="errorbars"/><g class="lines"><path class="js-line" d="M3.41,572L694.08,572" style="vector-effect: none; fill: none; stroke: rgb(255, 161, 90); stroke-opacity: 1; stroke-width: 0px; opacity: 1;"/></g><g class="points"/><g class="text"/></g><g class="trace scatter traceec3dca" style="stroke-miterlimit: 2;"><g class="fills"/><g class="errorbars"/><g class="lines"><path class="js-line" d="M3.41,572L694.08,572" style="vector-effect: none; fill: none; stroke: rgb(25, 211, 243); stroke-opacity: 1; stroke-width: 0px; opacity: 1;"/></g><g class="points"/><g class="text"/></g><g class="trace scatter traceb75104" style="stroke-miterlimit: 2; opacity: 1;"><g class="fills"/><g class="errorbars"/><g class="lines"><path class="js-line" d="M0.01,572L105.46,572L108.86,570.87L112.24,570.87L115.63,568.6L119.03,568.6L122.42,567.46L132.65,567.46L136.06,566.33L142.92,566.33L146.31,565.19L149.7,565.19L153.15,564.06L156.54,564.06L159.98,562.92L170.19,562.92L173.61,564.06L180.4,561.79L183.83,561.79L187.25,562.92L190.65,562.92L194.04,561.79L197.46,562.92L200.88,562.92L204.31,564.06L207.7,562.92L211.1,565.19L214.51,565.19L217.91,567.46L228.14,567.46L231.54,568.6L234.97,567.46L238.39,567.46L241.8,567.46L245.2,568.6L252,568.6L255.42,567.46L258.85,568.6L262.26,567.46L265.69,565.19L269.08,564.06L272.48,564.06L275.89,561.79L279.27,562.92L282.67,561.79L289.48,561.79L292.87,556.11L296.27,556.11L299.66,553.84L303.06,550.44L306.48,551.57L309.93,549.3L313.33,549.3L320.12,549.3L323.51,547.03L326.9,547.03L330.31,543.63L333.7,541.36L337.1,541.36L340.54,539.09L343.94,539.09L347.34,535.68L350.76,534.55L354.15,536.82L357.59,535.68L361.03,533.41L364.42,530.01L367.83,527.74L371.24,524.33L374.64,520.93L378.07,520.93L381.49,518.66L384.88,514.12L388.29,509.58L391.69,509.58L395.12,507.31L398.52,508.44L401.95,509.58L405.39,506.17L412.19,503.9L415.58,507.31L418.99,503.9L422.42,505.04L425.81,507.31L429.25,507.31L432.67,510.71L436.09,510.71L439.52,509.58L442.96,506.17L446.4,511.85L449.79,509.58L453.21,505.04L456.62,503.9L460.02,495.96L463.45,491.42L470.28,489.15L473.69,486.88L477.13,482.34L480.52,481.21L483.9,480.07L487.29,484.61L490.69,486.88L494.09,486.88L497.51,481.21L500.92,477.8L504.32,480.07L507.76,483.48L514.57,491.42L518,477.8L524.78,475.53L528.18,478.94L531.61,475.53L535.04,469.86L538.45,466.45L541.89,460.78L545.28,457.37L548.67,457.37L552.06,456.24L555.46,448.29L558.86,435.81L562.25,431.27L565.66,424.46L569.1,431.27L572.49,434.67L575.93,434.67L579.35,429L582.74,426.73L586.13,427.87L589.54,427.87L592.93,427.87L596.32,423.33L599.71,425.6L603.11,425.6L606.52,424.46L609.92,425.6L613.36,427.87L616.75,427.87L620.16,426.73L623.56,424.46L626.98,427.87L630.38,433.54L633.8,433.54L637.22,439.21L640.61,439.21L644.03,432.4L647.47,441.48L650.91,442.62L657.74,442.62L661.14,444.89L664.53,448.29L667.92,455.1L671.33,451.7L674.72,447.16L678.11,443.75L681.51,438.08L688.33,435.81L691.72,436.94" style="vector-effect: none; fill: none; stroke: rgb(44, 160, 44); stroke-opacity: 1; stroke-width: 2.5px; opacity: 1;"/></g><g class="points"/><g class="text"/></g><g class="trace scatter traceb24060" style="stroke-miterlimit: 2;"><g class="fills"><g><path class="js-fill" d="M3.4,572L105.46,572L108.86,575.26L112.24,575.26L115.63,578.14L132.65,577.57L136.06,576.83L142.92,576.83L146.31,575.96L149.7,575.96L153.15,574.95L170.19,575.57L173.61,576.71L180.4,574.33L183.83,574.33L187.25,575.57L190.65,575.57L194.04,574.33L197.46,575.57L200.88,575.57L204.31,576.71L207.7,575.57L211.1,575.96L265.69,575.96L269.08,574.95L275.89,574.33L279.27,575.57L282.67,574.33L286.07,574.33L289.48,574.33L292.87,578.83L296.27,578.83L299.66,576.56L303.06,574.05L306.48,575.82L309.93,573.09L313.33,573.09L320.12,573.09L323.51,570.11L326.9,570.11L330.31,566.53L333.7,564.73L337.1,564.73L340.54,560.88L343.94,560.88L347.34,555.89L350.76,555.1L354.15,557.63L357.59,554.84L361.03,554.23L364.42,551.22L367.83,549.84L371.24,545.87L374.64,544.13L378.07,544.13L381.49,543.47L384.88,544.16L388.29,538.11L391.69,538.11L395.12,538.96L398.52,540.92L401.95,542.81L405.39,536.94L408.79,534.15L412.19,533.39L415.58,539.61L418.99,539.15L425.81,542.67L429.25,542.67L432.67,546.42L436.09,546.42L439.52,546.35L442.96,542.5L446.4,545.82L449.79,542.81L453.21,538.76L456.62,537.95L460.02,535.03L463.45,535.28L466.88,532.58L470.28,532.73L473.69,529.56L477.13,524.76L483.9,519.63L487.29,524.73L490.69,527.06L494.09,527.06L497.51,519.63L500.92,516.34L504.32,519.1L507.76,525.28L511.17,525.79L514.57,524.52L518,528L521.4,528.06L524.78,526.87L528.18,530.36L531.61,525.65L535.04,519.28L541.89,508.44L545.28,504.86L548.67,504.86L552.06,504.04L555.46,497.49L558.86,484.39L565.66,472.47L569.1,472.2L572.49,476.61L575.93,476.61L579.35,466.41L582.74,462.48L586.13,464.19L589.54,464.19L592.93,464.19L596.32,462.71L599.71,467.69L603.11,467.69L606.52,467.94L609.92,467.2L613.36,469.99L616.75,469.99L620.16,468.86L623.56,464.99L630.38,483.74L633.8,483.74L637.22,496.11L640.61,496.11L644.03,497.45L647.47,506.36L650.91,508.49L654.34,508.49L661.14,508.54L664.53,513.74L667.92,516.77L671.33,516.83L674.72,515.76L678.11,509.65L681.51,502.06L684.92,501.12L688.33,498.19L691.72,500.14L691.72,373.75L684.92,372.77L681.51,374.1L678.11,377.86L674.72,378.56L667.92,393.43L664.53,382.84L661.14,381.23L657.74,376.75L647.47,376.61L644.03,367.36L640.61,382.31L637.22,382.31L633.8,383.34L630.38,383.34L626.98,381.53L623.56,383.94L620.16,384.6L616.75,385.74L613.36,385.74L609.92,383.99L606.52,380.98L603.11,383.5L596.32,383.94L592.93,391.54L586.13,391.54L582.74,390.98L579.35,391.59L575.93,392.74L572.49,392.74L569.1,390.34L565.66,376.45L562.25,384.66L558.86,387.23L555.46,399.09L552.06,408.43L548.67,409.89L545.28,409.89L541.89,413.12L538.45,419.08L535.04,420.43L531.61,425.42L528.18,427.51L524.78,424.19L521.4,425.27L518,427.6L514.57,458.32L511.17,450.24L507.76,441.68L504.32,441.04L500.92,439.27L494.09,446.7L490.69,446.7L487.29,444.5L483.9,440.51L480.52,440.17L477.13,439.92L473.69,444.2L470.28,445.57L466.88,447.99L463.45,447.56L460.02,456.89L456.62,469.86L453.21,471.32L449.79,476.35L446.4,477.88L442.96,469.85L439.52,472.8L436.09,475L432.67,475L429.25,471.95L425.81,471.95L422.42,469.52L418.99,468.66L415.58,475.01L412.19,474.42L408.79,475.93L405.39,475.41L401.95,476.35L398.52,475.97L395.12,475.66L391.69,481.04L388.29,481.04L384.88,484.08L381.49,493.85L378.07,497.73L374.64,497.73L371.24,502.8L367.83,505.64L361.03,512.6L357.59,516.52L354.15,516L350.76,514L347.34,515.47L343.94,517.3L337.1,517.98L333.7,517.98L330.31,520.73L326.9,523.95L323.51,523.95L320.12,525.51L313.33,525.51L309.93,525.51L306.48,527.32L303.06,526.82L299.66,531.12L296.27,533.39L292.87,533.39L289.48,549.24L282.67,549.24L279.27,550.27L275.89,549.24L272.48,553.16L269.08,553.16L265.69,554.42L262.26,559.67L258.85,561.55L255.42,559.67L252,561.55L245.2,561.55L241.8,559.67L238.39,559.67L234.97,559.67L231.54,561.55L228.14,559.67L217.91,559.67L214.51,554.42L211.1,554.42L207.7,550.27L204.31,551.4L200.88,550.27L197.46,550.27L194.04,549.24L190.65,550.27L187.25,550.27L183.83,549.24L180.4,549.24L173.61,551.4L170.19,550.27L159.98,550.27L156.54,553.16L153.15,553.16L149.7,554.42L146.31,554.42L142.92,555.82L136.06,555.82L132.65,557.35L122.42,557.35L119.03,559.05L115.63,559.05L112.24,566.47L108.86,566.47L105.46,572L3.4,572Z" style="fill: rgb(44, 160, 44); fill-opacity: 0.1; stroke-width: 0;"/></g></g><g class="errorbars"/><g class="lines"><path class="js-line" d="M3.4,572L105.46,572L108.86,566.47L112.24,566.47L115.63,559.05L119.03,559.05L122.42,557.35L132.65,557.35L136.06,555.82L142.92,555.82L146.31,554.42L149.7,554.42L153.15,553.16L156.54,553.16L159.98,550.27L170.19,550.27L173.61,551.4L180.4,549.24L183.83,549.24L187.25,550.27L190.65,550.27L194.04,549.24L197.46,550.27L200.88,550.27L204.31,551.4L207.7,550.27L211.1,554.42L214.51,554.42L217.91,559.67L228.14,559.67L231.54,561.55L234.97,559.67L238.39,559.67L241.8,559.67L245.2,561.55L252,561.55L255.42,559.67L258.85,561.55L262.26,559.67L265.69,554.42L269.08,553.16L272.48,553.16L275.89,549.24L279.27,550.27L282.67,549.24L289.48,549.24L292.87,533.39L296.27,533.39L299.66,531.12L303.06,526.82L306.48,527.32L309.93,525.51L313.33,525.51L320.12,525.51L323.51,523.95L326.9,523.95L330.31,520.73L333.7,517.98L337.1,517.98L343.94,517.3L347.34,515.47L350.76,514L354.15,516L357.59,516.52L361.03,512.6L367.83,505.64L371.24,502.8L374.64,497.73L378.07,497.73L381.49,493.85L384.88,484.08L388.29,481.04L391.69,481.04L395.12,475.66L398.52,475.97L401.95,476.35L405.39,475.41L408.79,475.93L412.19,474.42L415.58,475.01L418.99,468.66L422.42,469.52L425.81,471.95L429.25,471.95L432.67,475L436.09,475L439.52,472.8L442.96,469.85L446.4,477.88L449.79,476.35L453.21,471.32L456.62,469.86L460.02,456.89L463.45,447.56L466.88,447.99L470.28,445.57L473.69,444.2L477.13,439.92L480.52,440.17L483.9,440.51L487.29,444.5L490.69,446.7L494.09,446.7L500.92,439.27L504.32,441.04L507.76,441.68L511.17,450.24L514.57,458.32L518,427.6L521.4,425.27L524.78,424.19L528.18,427.51L531.61,425.42L535.04,420.43L538.45,419.08L541.89,413.12L545.28,409.89L548.67,409.89L552.06,408.43L555.46,399.09L558.86,387.23L562.25,384.66L565.66,376.45L569.1,390.34L572.49,392.74L575.93,392.74L579.35,391.59L582.74,390.98L586.13,391.54L592.93,391.54L596.32,383.94L603.11,383.5L606.52,380.98L609.92,383.99L613.36,385.74L616.75,385.74L620.16,384.6L623.56,383.94L626.98,381.53L630.38,383.34L633.8,383.34L637.22,382.31L640.61,382.31L644.03,367.36L647.47,376.61L657.74,376.75L661.14,381.23L664.53,382.84L667.92,393.43L674.72,378.56L678.11,377.86L681.51,374.1L684.92,372.77L691.72,373.75" style="vector-effect: none; fill: none; stroke: rgb(182, 232, 128); stroke-opacity: 1; stroke-width: 0px; opacity: 1;"/></g><g class="points"/><g class="text"/></g><g class="trace scatter trace1ef0f5" style="stroke-miterlimit: 2;"><g class="fills"/><g class="errorbars"/><g class="lines"><path class="js-line" d="M3.4,572L105.46,572L108.86,575.26L112.24,575.26L115.63,578.14L132.65,577.57L136.06,576.83L142.92,576.83L146.31,575.96L149.7,575.96L153.15,574.95L170.19,575.57L173.61,576.71L180.4,574.33L183.83,574.33L187.25,575.57L190.65,575.57L194.04,574.33L197.46,575.57L200.88,575.57L204.31,576.71L207.7,575.57L211.1,575.96L265.69,575.96L269.08,574.95L275.89,574.33L279.27,575.57L282.67,574.33L286.07,574.33L289.48,574.33L292.87,578.83L296.27,578.83L299.66,576.56L303.06,574.05L306.48,575.82L309.93,573.09L313.33,573.09L320.12,573.09L323.51,570.11L326.9,570.11L330.31,566.53L333.7,564.73L337.1,564.73L340.54,560.88L343.94,560.88L347.34,555.89L350.76,555.1L354.15,557.63L357.59,554.84L361.03,554.23L364.42,551.22L367.83,549.84L371.24,545.87L374.64,544.13L378.07,544.13L381.49,543.47L384.88,544.16L388.29,538.11L391.69,538.11L395.12,538.96L398.52,540.92L401.95,542.81L405.39,536.94L408.79,534.15L412.19,533.39L415.58,539.61L418.99,539.15L425.81,542.67L429.25,542.67L432.67,546.42L436.09,546.42L439.52,546.35L442.96,542.5L446.4,545.82L449.79,542.81L453.21,538.76L456.62,537.95L460.02,535.03L463.45,535.28L466.88,532.58L470.28,532.73L473.69,529.56L477.13,524.76L483.9,519.63L487.29,524.73L490.69,527.06L494.09,527.06L497.51,519.63L500.92,516.34L504.32,519.1L507.76,525.28L511.17,525.79L514.57,524.52L518,528L521.4,528.06L524.78,526.87L528.18,530.36L531.61,525.65L535.04,519.28L541.89,508.44L545.28,504.86L548.67,504.86L552.06,504.04L555.46,497.49L558.86,484.39L565.66,472.47L569.1,472.2L572.49,476.61L575.93,476.61L579.35,466.41L582.74,462.48L586.13,464.19L589.54,464.19L592.93,464.19L596.32,462.71L599.71,467.69L603.11,467.69L606.52,467.94L609.92,467.2L613.36,469.99L616.75,469.99L620.16,468.86L623.56,464.99L630.38,483.74L633.8,483.74L637.22,496.11L640.61,496.11L644.03,497.45L647.47,506.36L650.91,508.49L654.34,508.49L661.14,508.54L664.53,513.74L667.92,516.77L671.33,516.83L674.72,515.76L678.11,509.65L681.51,502.06L684.92,501.12L688.33,498.19L691.72,500.14" style="vector-effect: none; fill: none; stroke: rgb(255, 151, 255); stroke-opacity: 1; stroke-width: 0px; opacity: 1;"/></g><g class="points"/><g class="text"/></g><g class="trace scatter trace8b4cbd" style="stroke-miterlimit: 2; opacity: 1;"><g class="fills"/><g class="errorbars"/><g class="lines"><path class="js-line" d="M0.01,572L44.14,572L47.53,570.87L95.04,570.87L98.45,572L101.84,572L105.28,570.87L112.06,570.87L115.45,569.73L135.87,569.73L139.27,568.6L163.17,568.6L166.56,569.73L180.26,569.73L183.7,568.6L200.79,568.6L204.19,566.33L207.59,566.33L211.01,562.92L214.41,561.79L217.81,559.52L221.2,557.25L224.62,550.44L228.03,541.36L231.42,537.95L234.86,537.95L238.25,534.55L241.64,531.14L245.03,530.01L248.43,530.01L251.82,528.87L255.22,527.74L258.61,525.47L262.01,527.74L265.4,526.6L268.8,527.74L272.24,527.74L275.63,534.55L279.02,539.09L282.46,540.22L285.85,536.82L289.27,537.95L292.69,536.82L296.08,525.47L299.48,518.66L302.87,515.25L306.27,514.12L313.07,516.39L316.48,516.39L319.87,512.98L323.26,512.98L330.06,510.71L333.49,508.44L336.88,511.85L340.31,509.58L343.69,509.58L347.08,515.25L350.53,508.44L353.92,505.04L364.15,485.75L367.59,483.48L370.97,482.34L374.37,473.26L377.78,467.59L381.17,468.72L384.56,466.45L387.98,459.64L401.66,473.26L405.04,473.26L408.45,465.32L411.85,460.78L415.28,452.83L418.67,434.67L422.07,423.33L425.47,419.92L428.86,407.44L432.26,402.9L435.65,392.68L439.04,385.87L442.45,366.58L445.84,357.5L449.25,342.75L452.64,341.61L456.04,324.59L459.43,324.59L462.82,323.45L466.22,326.86L469.62,334.8L473.01,334.8L476.41,333.67L479.81,333.67L483.21,324.59L486.6,325.72L490.01,325.72L493.4,320.05L500.18,306.43L503.57,295.08L510.4,281.46L513.8,271.25L517.19,258.76L520.6,251.95L524,247.41L527.39,246.28L530.79,246.28L534.19,241.74L541.02,213.37L544.41,216.77L547.8,207.69L551.2,205.42L554.59,199.75L557.99,198.61L561.39,195.21L564.78,195.21L571.57,180.45L574.96,177.05L581.73,148.67L585.13,146.4L588.52,145.27L591.92,149.81L595.3,144.13L598.7,143L602.09,139.6L605.48,144.13L608.88,147.54L612.27,143L615.67,148.67L619.09,152.08L622.5,154.35L625.88,149.81L629.28,152.08L632.68,158.89L636.07,156.62L639.46,165.7L642.91,165.7L646.3,175.91L649.69,171.37L653.09,172.51L656.48,165.7L659.91,166.83L663.31,170.24L666.71,161.16L673.5,150.94L676.9,148.67L680.29,147.54L683.68,140.73L687.07,133.92L690.46,122.57L693.86,113.49" style="vector-effect: none; fill: none; stroke: rgb(214, 39, 40); stroke-opacity: 1; stroke-width: 2.5px; opacity: 1;"/></g><g class="points"/><g class="text"/></g><g class="trace scatter trace1f250b" style="stroke-miterlimit: 2;"><g class="fills"><g><path class="js-fill" d="M3.41,572L44.14,572L47.53,575.26L95.04,575.26L98.45,572L101.84,572L105.28,575.26L200.79,575.64L204.19,576.83L207.59,576.83L211.01,578.51L221.2,574.11L224.62,578.09L228.03,581.13L231.42,577.09L234.86,577.09L238.25,572.72L245.03,567.45L248.43,567.45L251.82,565.2L255.22,564.02L258.61,560.98L262.01,564.02L265.4,562.24L268.8,564.02L272.24,564.02L275.63,568.72L279.02,561.81L282.46,562.39L285.85,560.43L289.27,561.15L292.69,562.12L296.08,571.63L299.48,565L302.87,560.6L306.27,559.53L309.68,561.05L313.07,563.44L316.48,563.44L319.87,558.87L323.26,558.87L326.66,556.37L330.06,555.66L333.49,552.77L336.88,557.74L340.31,554.93L343.69,554.93L347.08,547.21L350.53,557.22L353.92,555.89L357.31,555.66L360.71,549.85L364.15,539.76L367.59,535.83L370.97,534.4L374.37,526.79L377.78,516.11L381.17,517.92L384.56,514.69L387.98,501.24L391.4,510.24L398.26,522.52L401.66,520.19L405.04,520.19L408.45,531.4L411.85,531.22L415.28,526.76L418.67,526.46L422.07,518.65L425.47,516.96L428.86,509.51L432.26,501.84L435.65,492.13L439.04,484.4L442.45,457.68L445.84,436.25L449.25,408.32L452.64,405.91L456.04,391.1L459.43,391.1L462.82,389.32L466.22,396.4L469.62,399.3L473.01,399.3L476.41,398.01L479.81,398.01L483.21,382.81L486.6,383.94L490.01,383.94L493.4,387.9L496.78,377.32L500.18,377.15L503.57,363.01L507,370.33L510.4,368.14L513.8,358.21L517.19,335.92L520.6,324.81L524,318.03L527.39,315.54L530.79,315.54L534.19,309.47L537.64,297.31L541.02,277.54L544.41,280.42L547.8,268.32L551.2,267.09L554.59,262.75L557.99,263.74L561.39,262.65L564.78,262.65L568.18,257.06L571.57,248.55L574.96,242.73L578.34,218.4L581.73,198.87L585.13,193.25L588.52,193.19L591.92,200.96L595.3,190.03L598.7,188.59L602.09,185.46L605.48,193.92L612.27,194.56L615.67,210.35L619.09,214.02L622.5,216.02L625.88,210.58L629.28,211.98L632.68,213.28L636.07,209.99L639.46,219.48L642.91,219.48L646.3,239.44L649.69,239.43L653.09,239.64L656.48,233.45L659.91,234.07L663.31,232.89L666.71,215.71L670.11,212.27L673.5,210.08L676.9,209.33L680.29,208.4L683.68,205.29L687.07,201.24L690.46,186.53L693.86,172.98L693.86,54.01L690.46,58.61L683.68,76.17L680.29,86.68L676.9,88.02L673.5,91.81L670.11,100.97L666.71,106.61L663.31,107.59L659.91,99.59L656.48,97.95L653.09,105.37L649.69,103.32L646.3,112.39L639.46,111.92L636.07,103.25L632.68,104.49L629.28,92.18L625.88,89.04L622.5,92.68L615.67,87L612.27,91.44L608.88,100.93L605.48,94.35L602.09,93.73L598.7,97.41L595.3,98.24L591.92,98.66L588.52,97.35L585.13,99.56L581.73,98.48L578.34,108.45L574.96,111.37L571.57,112.36L568.18,119.74L564.78,127.76L561.39,127.76L557.99,133.48L554.59,136.75L551.2,143.75L547.8,147.06L544.41,153.12L541.02,149.19L537.64,156.66L534.19,174.01L530.79,177.02L527.39,177.02L524,176.79L517.19,181.6L513.8,184.28L510.4,194.78L507,206.21L503.57,227.15L500.18,235.71L496.78,249.15L493.4,252.2L490.01,267.5L486.6,267.5L483.21,266.37L479.81,269.32L476.41,269.32L473.01,270.31L469.62,270.31L466.22,257.32L456.04,258.07L452.64,277.31L449.25,277.17L445.84,278.75L442.45,275.48L439.04,287.35L435.65,293.24L432.26,303.95L428.86,305.36L425.47,322.88L422.07,328L418.67,342.89L415.28,378.91L411.85,390.33L408.45,399.24L405.04,426.33L401.66,426.33L398.26,417.19L394.84,415.71L391.4,415.85L387.98,418.04L384.56,418.22L381.17,419.52L377.78,419.07L374.37,419.74L370.97,430.28L364.15,431.73L360.71,432.99L357.31,440.8L353.92,454.18L350.53,459.67L347.08,483.3L343.69,464.23L340.31,464.23L336.88,465.96L333.49,464.11L330.06,465.77L326.66,467.33L319.87,467.09L316.48,469.34L309.68,469.45L306.27,468.71L302.87,469.91L299.48,472.32L296.08,479.31L292.69,511.51L289.27,514.75L285.85,513.21L282.46,518.06L279.02,516.37L275.63,500.38L272.24,491.45L268.8,491.45L265.4,490.97L262.01,491.45L258.61,489.95L255.22,491.45L251.82,492.55L245.03,492.56L241.64,492.64L238.25,496.37L234.86,498.81L231.42,498.81L228.03,501.59L224.62,522.79L221.2,540.39L217.81,543.15L214.41,546.29L211.01,547.34L207.59,555.82L204.19,555.82L200.79,561.55L183.7,561.55L180.26,563.74L166.56,563.74L163.17,561.55L139.27,561.55L135.87,563.74L115.45,563.74L112.06,566.47L105.28,566.47L101.84,572L98.45,572L95.04,566.47L47.53,566.47L44.14,572L3.41,572Z" style="fill: rgb(214, 39, 40); fill-opacity: 0.1; stroke-width: 0;"/></g></g><g class="errorbars"/><g class="lines"><path class="js-line" d="M3.41,572L44.14,572L47.53,566.47L95.04,566.47L98.45,572L101.84,572L105.28,566.47L112.06,566.47L115.45,563.74L135.87,563.74L139.27,561.55L163.17,561.55L166.56,563.74L180.26,563.74L183.7,561.55L200.79,561.55L204.19,555.82L207.59,555.82L211.01,547.34L214.41,546.29L217.81,543.15L221.2,540.39L224.62,522.79L228.03,501.59L231.42,498.81L234.86,498.81L238.25,496.37L241.64,492.64L245.03,492.56L251.82,492.55L255.22,491.45L258.61,489.95L262.01,491.45L265.4,490.97L268.8,491.45L272.24,491.45L275.63,500.38L279.02,516.37L282.46,518.06L285.85,513.21L289.27,514.75L292.69,511.51L296.08,479.31L299.48,472.32L302.87,469.91L306.27,468.71L309.68,469.45L316.48,469.34L319.87,467.09L326.66,467.33L330.06,465.77L333.49,464.11L336.88,465.96L340.31,464.23L343.69,464.23L347.08,483.3L350.53,459.67L353.92,454.18L357.31,440.8L360.71,432.99L364.15,431.73L370.97,430.28L374.37,419.74L377.78,419.07L381.17,419.52L384.56,418.22L387.98,418.04L391.4,415.85L394.84,415.71L398.26,417.19L401.66,426.33L405.04,426.33L408.45,399.24L411.85,390.33L415.28,378.91L418.67,342.89L422.07,328L425.47,322.88L428.86,305.36L432.26,303.95L435.65,293.24L439.04,287.35L442.45,275.48L445.84,278.75L449.25,277.17L452.64,277.31L456.04,258.07L466.22,257.32L469.62,270.31L473.01,270.31L476.41,269.32L479.81,269.32L483.21,266.37L486.6,267.5L490.01,267.5L493.4,252.2L496.78,249.15L500.18,235.71L503.57,227.15L507,206.21L510.4,194.78L513.8,184.28L517.19,181.6L524,176.79L527.39,177.02L530.79,177.02L534.19,174.01L537.64,156.66L541.02,149.19L544.41,153.12L547.8,147.06L551.2,143.75L554.59,136.75L557.99,133.48L561.39,127.76L564.78,127.76L568.18,119.74L571.57,112.36L574.96,111.37L578.34,108.45L581.73,98.48L585.13,99.56L588.52,97.35L591.92,98.66L595.3,98.24L598.7,97.41L602.09,93.73L605.48,94.35L608.88,100.93L612.27,91.44L615.67,87L622.5,92.68L625.88,89.04L629.28,92.18L632.68,104.49L636.07,103.25L639.46,111.92L646.3,112.39L649.69,103.32L653.09,105.37L656.48,97.95L659.91,99.59L663.31,107.59L666.71,106.61L670.11,100.97L673.5,91.81L676.9,88.02L680.29,86.68L683.68,76.17L690.46,58.61L693.86,54.01" style="vector-effect: none; fill: none; stroke: rgb(99, 110, 250); stroke-opacity: 1; stroke-width: 0px; opacity: 1;"/></g><g class="points"/><g class="text"/></g><g class="trace scatter trace4c32f4" style="stroke-miterlimit: 2;"><g class="fills"/><g class="errorbars"/><g class="lines"><path class="js-line" d="M3.41,572L44.14,572L47.53,575.26L95.04,575.26L98.45,572L101.84,572L105.28,575.26L200.79,575.64L204.19,576.83L207.59,576.83L211.01,578.51L221.2,574.11L224.62,578.09L228.03,581.13L231.42,577.09L234.86,577.09L238.25,572.72L245.03,567.45L248.43,567.45L251.82,565.2L255.22,564.02L258.61,560.98L262.01,564.02L265.4,562.24L268.8,564.02L272.24,564.02L275.63,568.72L279.02,561.81L282.46,562.39L285.85,560.43L289.27,561.15L292.69,562.12L296.08,571.63L299.48,565L302.87,560.6L306.27,559.53L309.68,561.05L313.07,563.44L316.48,563.44L319.87,558.87L323.26,558.87L326.66,556.37L330.06,555.66L333.49,552.77L336.88,557.74L340.31,554.93L343.69,554.93L347.08,547.21L350.53,557.22L353.92,555.89L357.31,555.66L360.71,549.85L364.15,539.76L367.59,535.83L370.97,534.4L374.37,526.79L377.78,516.11L381.17,517.92L384.56,514.69L387.98,501.24L391.4,510.24L398.26,522.52L401.66,520.19L405.04,520.19L408.45,531.4L411.85,531.22L415.28,526.76L418.67,526.46L422.07,518.65L425.47,516.96L428.86,509.51L432.26,501.84L435.65,492.13L439.04,484.4L442.45,457.68L445.84,436.25L449.25,408.32L452.64,405.91L456.04,391.1L459.43,391.1L462.82,389.32L466.22,396.4L469.62,399.3L473.01,399.3L476.41,398.01L479.81,398.01L483.21,382.81L486.6,383.94L490.01,383.94L493.4,387.9L496.78,377.32L500.18,377.15L503.57,363.01L507,370.33L510.4,368.14L513.8,358.21L517.19,335.92L520.6,324.81L524,318.03L527.39,315.54L530.79,315.54L534.19,309.47L537.64,297.31L541.02,277.54L544.41,280.42L547.8,268.32L551.2,267.09L554.59,262.75L557.99,263.74L561.39,262.65L564.78,262.65L568.18,257.06L571.57,248.55L574.96,242.73L578.34,218.4L581.73,198.87L585.13,193.25L588.52,193.19L591.92,200.96L595.3,190.03L598.7,188.59L602.09,185.46L605.48,193.92L612.27,194.56L615.67,210.35L619.09,214.02L622.5,216.02L625.88,210.58L629.28,211.98L632.68,213.28L636.07,209.99L639.46,219.48L642.91,219.48L646.3,239.44L649.69,239.43L653.09,239.64L656.48,233.45L659.91,234.07L663.31,232.89L666.71,215.71L670.11,212.27L673.5,210.08L676.9,209.33L680.29,208.4L683.68,205.29L687.07,201.24L690.46,186.53L693.86,172.98" style="vector-effect: none; fill: none; stroke: rgb(239, 85, 59); stroke-opacity: 1; stroke-width: 0px; opacity: 1;"/></g><g class="points"/><g class="text"/></g><g class="trace scatter tracebcce03" style="stroke-miterlimit: 2; opacity: 1;"><g class="fills"/><g class="errorbars"/><g class="lines"><path class="js-line" d="M0.01,572L125.96,572L129.35,570.87L132.79,570.87L136.18,569.73L146.39,569.73L149.78,567.46L166.77,567.46L170.16,566.33L173.56,566.33L176.95,564.06L183.74,564.06L187.13,565.19L190.52,565.19L193.92,564.06L200.73,561.79L204.16,561.79L207.55,559.52L210.95,554.98L214.34,551.57L217.73,550.44L221.12,548.17L224.52,543.63L227.96,540.22L231.35,535.68L234.76,532.28L238.16,524.33L241.54,519.79L244.99,518.66L248.42,518.66L251.8,517.52L255.2,509.58L258.59,507.31L261.98,506.17L265.4,508.44L275.67,508.44L279.06,506.17L282.48,508.44L285.88,509.58L289.29,514.12L292.71,511.85L296.1,512.98L299.48,511.85L302.88,509.58L306.27,506.17L309.67,506.17L313.06,509.58L316.45,499.37L319.83,497.1L323.23,488.02L326.64,482.34L330.04,480.07L333.44,467.59L340.27,450.56L343.67,447.16L347.1,432.4L350.53,424.46L353.93,414.25L357.34,413.11L360.74,409.71L364.18,409.71L367.58,415.38L370.99,409.71L374.42,418.79L377.81,413.11L381.21,413.11L384.6,408.57L388.04,405.17L391.44,400.63L394.84,398.36L398.24,401.76L401.64,402.9L405.03,417.65L411.81,415.38L415.2,411.98L418.59,399.49L421.99,394.95L425.39,391.55L428.79,390.41L432.2,381.33L435.59,392.68L438.99,390.41L442.4,393.82L445.8,389.28L449.19,376.79L452.59,377.93L455.99,365.44L459.4,363.17L462.8,355.23L466.19,340.48L469.61,341.61L473.05,341.61L476.44,331.4L479.85,325.72L483.27,325.72L486.66,313.24L490.05,313.24L493.44,304.16L496.83,301.89L500.23,308.7L503.61,306.43L507.01,298.48L510.41,296.21L513.84,293.94L517.24,297.35L520.62,296.21L524.03,298.48L527.42,297.35L530.81,300.75L534.22,303.02L537.6,301.89L541.01,301.89L544.4,303.02L547.8,303.02L551.2,295.08L554.59,286L557.99,286L561.39,272.38L564.79,263.3L568.19,261.03L571.58,255.36L574.99,247.41L578.39,242.87L581.78,241.74L585.17,234.93L588.57,231.52L591.98,223.58L595.37,215.63L598.77,202.02L602.17,195.21L605.57,183.86L608.98,174.78L612.4,182.72L615.8,179.32L619.2,172.51L622.59,167.97L625.98,156.62L629.42,149.81L632.85,137.33L636.27,128.25L639.66,125.98L643.06,124.84L646.45,119.17L649.85,122.57L653.25,123.71L656.65,124.84L660.06,131.65L663.45,121.44L666.87,128.25L670.28,127.11L673.67,129.38L677.05,133.92L680.45,135.06L687.24,135.06L690.64,129.38L694.04,125.98" style="vector-effect: none; fill: none; stroke: rgb(148, 103, 189); stroke-opacity: 1; stroke-width: 2.5px; opacity: 1;"/></g><g class="points"/><g class="text"/></g><g class="trace scatter trace9c5ca8" style="stroke-miterlimit: 2;"><g class="fills"><g><path class="js-fill" d="M3.4,572L125.96,572L129.35,575.26L146.39,575.72L149.78,577.57L173.56,576.83L176.95,576.71L183.74,576.71L187.13,577.73L190.52,577.73L193.92,576.71L197.33,575.57L200.73,577.28L204.16,577.28L207.55,575.88L210.95,576.32L214.34,574.05L221.12,571.19L224.52,568.27L227.96,568.9L231.35,567.12L238.16,558.5L241.54,551.62L244.99,549.43L248.42,549.43L251.8,548.52L255.2,540.88L258.59,537.63L261.98,536.94L265.4,541.55L268.84,541.55L279.06,541.92L282.48,543.96L289.29,546.8L292.71,546.42L296.1,548.73L299.48,546.42L302.88,545.79L306.27,549.75L309.67,549.75L313.06,553.53L319.83,545.16L323.23,543.54L326.64,540.42L330.04,540.02L333.44,537.15L336.83,527.11L340.27,518.31L343.67,515.15L350.53,484.71L353.93,479.06L357.34,478.31L360.74,471.04L364.18,471.04L367.58,479.79L370.99,467.57L374.42,482.81L377.81,480.8L381.21,480.8L384.6,483.83L388.04,481.9L394.84,477.21L398.24,478.71L401.64,480.23L405.03,498.39L408.42,497.87L411.81,496.31L415.2,488.33L418.59,478L421.99,473.18L425.39,464.85L428.79,464.8L432.2,460.19L435.59,465.73L438.99,465.36L442.4,467.14L445.8,465.27L452.59,469.56L455.99,445.78L459.4,443.92L462.8,434.16L466.19,413.5L469.61,414.08L473.05,414.08L476.44,394.72L483.27,394.08L486.66,377L490.05,377L493.44,366.7L496.83,364.56L500.23,364.37L503.61,356.19L507.01,350.15L513.84,344.47L517.24,347.55L520.62,346.14L524.03,352.5L527.42,351.13L530.81,351.61L534.22,353.77L537.6,354.11L547.8,354.18L551.2,355.26L554.59,335.51L557.99,335.51L561.39,341.92L564.79,339.94L568.19,336.47L571.58,330.89L574.99,311.91L578.39,305.81L581.78,304.06L585.17,293.97L588.57,292.23L591.98,279.99L598.77,267.15L602.17,267.68L605.57,254.99L608.98,248.05L612.4,253.17L615.8,252.81L619.2,240.26L622.59,234.98L625.98,216.91L629.42,206.71L632.85,187.11L636.27,175.29L639.66,171.11L643.06,168.23L646.45,165.03L649.85,167.06L653.25,167.19L656.65,168.23L660.06,177.99L663.45,165.01L666.87,175.29L670.28,173L673.67,177.1L677.05,183.12L680.45,184.34L683.84,184.34L687.24,184.34L690.64,182.05L694.04,176.72L694.04,75.23L690.64,76.71L687.24,85.77L683.84,85.77L680.45,85.77L677.05,84.72L673.67,81.66L666.87,81.2L663.45,77.86L660.06,85.31L656.65,81.45L653.25,80.22L649.85,78.09L646.45,73.31L643.06,81.45L639.66,80.84L636.27,81.2L632.85,87.54L629.42,92.91L619.2,104.76L615.8,105.82L612.4,112.28L608.98,101.51L605.57,112.73L602.17,122.73L598.77,136.88L595.37,157.2L591.98,167.17L588.57,170.82L585.17,175.89L581.78,179.42L578.39,179.94L574.99,182.92L571.58,179.82L568.19,185.59L564.79,186.66L561.39,202.84L557.99,236.49L554.59,236.49L551.2,234.9L547.8,251.87L544.4,251.87L541.01,249.67L537.6,249.67L534.22,252.28L530.81,249.9L527.42,243.57L524.03,244.47L520.62,246.29L517.24,247.15L513.84,243.42L510.41,245.47L507.01,246.82L503.61,256.67L500.23,253.02L496.83,239.22L493.44,241.62L490.05,249.48L486.66,249.48L483.27,257.36L479.85,257.36L476.44,268.07L473.05,269.14L469.61,269.14L466.19,267.45L462.8,276.3L459.4,282.43L455.99,285.11L452.59,286.3L449.19,286.06L445.8,313.29L442.4,320.49L438.99,315.47L435.59,319.64L432.2,302.48L428.79,316.02L425.39,318.24L421.99,316.73L418.59,320.99L415.2,335.63L411.81,334.45L408.42,335.16L405.03,336.91L401.64,325.56L398.24,324.82L394.84,319.5L391.44,321.7L388.04,328.44L384.6,333.31L381.21,345.42L377.81,345.42L374.42,354.76L370.99,351.84L367.58,350.97L364.18,348.37L357.34,347.91L353.93,349.43L350.53,364.21L347.1,365.47L343.67,379.16L340.27,382.81L336.83,389.91L333.44,398.03L330.04,420.12L326.64,424.27L323.23,432.49L319.83,449.03L316.45,449.33L313.06,465.62L309.67,462.6L306.27,462.6L302.88,473.37L299.48,477.28L292.71,477.28L289.29,481.44L285.88,473.37L282.48,472.93L279.06,470.43L275.67,475.34L265.4,475.34L261.98,475.41L258.59,476.99L255.2,478.28L251.8,486.53L248.42,487.89L244.99,487.89L241.54,487.97L238.16,490.16L234.76,502.33L231.35,504.25L227.96,511.54L221.12,525.15L217.73,528.65L214.34,529.1L210.95,533.64L207.55,543.15L204.16,546.29L200.73,546.29L197.33,550.27L193.92,551.4L190.52,552.65L187.13,552.65L183.74,551.4L176.95,551.4L173.56,555.82L170.16,555.82L166.77,557.35L149.78,557.35L146.39,563.74L136.18,563.74L132.79,566.47L129.35,566.47L125.96,572L3.4,572Z" style="fill: rgb(148, 103, 189); fill-opacity: 0.1; stroke-width: 0;"/></g></g><g class="errorbars"/><g class="lines"><path class="js-line" d="M3.4,572L125.96,572L129.35,566.47L132.79,566.47L136.18,563.74L146.39,563.74L149.78,557.35L166.77,557.35L170.16,555.82L173.56,555.82L176.95,551.4L183.74,551.4L187.13,552.65L190.52,552.65L193.92,551.4L197.33,550.27L200.73,546.29L204.16,546.29L207.55,543.15L210.95,533.64L214.34,529.1L217.73,528.65L221.12,525.15L227.96,511.54L231.35,504.25L234.76,502.33L238.16,490.16L241.54,487.97L244.99,487.89L248.42,487.89L251.8,486.53L255.2,478.28L258.59,476.99L261.98,475.41L265.4,475.34L275.67,475.34L279.06,470.43L282.48,472.93L285.88,473.37L289.29,481.44L292.71,477.28L299.48,477.28L302.88,473.37L306.27,462.6L309.67,462.6L313.06,465.62L316.45,449.33L319.83,449.03L323.23,432.49L326.64,424.27L330.04,420.12L333.44,398.03L336.83,389.91L340.27,382.81L343.67,379.16L347.1,365.47L350.53,364.21L353.93,349.43L357.34,347.91L364.18,348.37L367.58,350.97L370.99,351.84L374.42,354.76L377.81,345.42L381.21,345.42L384.6,333.31L388.04,328.44L391.44,321.7L394.84,319.5L398.24,324.82L401.64,325.56L405.03,336.91L408.42,335.16L411.81,334.45L415.2,335.63L418.59,320.99L421.99,316.73L425.39,318.24L428.79,316.02L432.2,302.48L435.59,319.64L438.99,315.47L442.4,320.49L445.8,313.29L449.19,286.06L452.59,286.3L455.99,285.11L459.4,282.43L462.8,276.3L466.19,267.45L469.61,269.14L473.05,269.14L476.44,268.07L479.85,257.36L483.27,257.36L486.66,249.48L490.05,249.48L493.44,241.62L496.83,239.22L500.23,253.02L503.61,256.67L507.01,246.82L510.41,245.47L513.84,243.42L517.24,247.15L520.62,246.29L524.03,244.47L527.42,243.57L530.81,249.9L534.22,252.28L537.6,249.67L541.01,249.67L544.4,251.87L547.8,251.87L551.2,234.9L554.59,236.49L557.99,236.49L561.39,202.84L564.79,186.66L568.19,185.59L571.58,179.82L574.99,182.92L578.39,179.94L581.78,179.42L585.17,175.89L588.57,170.82L591.98,167.17L595.37,157.2L598.77,136.88L602.17,122.73L605.57,112.73L608.98,101.51L612.4,112.28L615.8,105.82L619.2,104.76L629.42,92.91L632.85,87.54L636.27,81.2L639.66,80.84L643.06,81.45L646.45,73.31L649.85,78.09L653.25,80.22L656.65,81.45L660.06,85.31L663.45,77.86L666.87,81.2L673.67,81.66L677.05,84.72L680.45,85.77L683.84,85.77L687.24,85.77L690.64,76.71L694.04,75.23" style="vector-effect: none; fill: none; stroke: rgb(171, 99, 250); stroke-opacity: 1; stroke-width: 0px; opacity: 1;"/></g><g class="points"/><g class="text"/></g><g class="trace scatter tracea344bb" style="stroke-miterlimit: 2;"><g class="fills"/><g class="errorbars"/><g class="lines"><path class="js-line" d="M3.4,572L125.96,572L129.35,575.26L146.39,575.72L149.78,577.57L173.56,576.83L176.95,576.71L183.74,576.71L187.13,577.73L190.52,577.73L193.92,576.71L197.33,575.57L200.73,577.28L204.16,577.28L207.55,575.88L210.95,576.32L214.34,574.05L221.12,571.19L224.52,568.27L227.96,568.9L231.35,567.12L238.16,558.5L241.54,551.62L244.99,549.43L248.42,549.43L251.8,548.52L255.2,540.88L258.59,537.63L261.98,536.94L265.4,541.55L268.84,541.55L279.06,541.92L282.48,543.96L289.29,546.8L292.71,546.42L296.1,548.73L299.48,546.42L302.88,545.79L306.27,549.75L309.67,549.75L313.06,553.53L319.83,545.16L323.23,543.54L326.64,540.42L330.04,540.02L333.44,537.15L336.83,527.11L340.27,518.31L343.67,515.15L350.53,484.71L353.93,479.06L357.34,478.31L360.74,471.04L364.18,471.04L367.58,479.79L370.99,467.57L374.42,482.81L377.81,480.8L381.21,480.8L384.6,483.83L388.04,481.9L394.84,477.21L398.24,478.71L401.64,480.23L405.03,498.39L408.42,497.87L411.81,496.31L415.2,488.33L418.59,478L421.99,473.18L425.39,464.85L428.79,464.8L432.2,460.19L435.59,465.73L438.99,465.36L442.4,467.14L445.8,465.27L452.59,469.56L455.99,445.78L459.4,443.92L462.8,434.16L466.19,413.5L469.61,414.08L473.05,414.08L476.44,394.72L483.27,394.08L486.66,377L490.05,377L493.44,366.7L496.83,364.56L500.23,364.37L503.61,356.19L507.01,350.15L513.84,344.47L517.24,347.55L520.62,346.14L524.03,352.5L527.42,351.13L530.81,351.61L534.22,353.77L537.6,354.11L547.8,354.18L551.2,355.26L554.59,335.51L557.99,335.51L561.39,341.92L564.79,339.94L568.19,336.47L571.58,330.89L574.99,311.91L578.39,305.81L581.78,304.06L585.17,293.97L588.57,292.23L591.98,279.99L598.77,267.15L602.17,267.68L605.57,254.99L608.98,248.05L612.4,253.17L615.8,252.81L619.2,240.26L622.59,234.98L625.98,216.91L629.42,206.71L632.85,187.11L636.27,175.29L639.66,171.11L643.06,168.23L646.45,165.03L649.85,167.06L653.25,167.19L656.65,168.23L660.06,177.99L663.45,165.01L666.87,175.29L670.28,173L673.67,177.1L677.05,183.12L680.45,184.34L683.84,184.34L687.24,184.34L690.64,182.05L694.04,176.72" style="vector-effect: none; fill: none; stroke: rgb(255, 161, 90); stroke-opacity: 1; stroke-width: 0px; opacity: 1;"/></g><g class="points"/><g class="text"/></g><g class="trace scatter tracef6a78f" style="stroke-miterlimit: 2; opacity: 1;"><g class="fills"/><g class="errorbars"/><g class="lines"><path class="js-line" d="M0.01,572L105.49,572L108.88,570.87L112.28,569.73L115.67,569.73L129.23,569.73L132.63,568.6L136.04,568.6L139.43,566.33L142.81,566.33L146.22,565.19L149.62,561.79L153.02,560.65L156.41,558.38L159.79,559.52L163.18,559.52L166.58,558.38L169.98,557.25L173.37,554.98L176.77,552.71L180.16,551.57L183.55,552.71L186.93,549.3L190.33,550.44L193.73,549.3L200.55,549.3L203.96,550.44L210.75,550.44L214.14,548.17L220.96,543.63L224.36,544.76L227.75,545.9L231.13,540.22L234.52,536.82L237.94,534.55L241.38,532.28L244.77,525.47L248.17,522.06L251.55,516.39L254.96,514.12L258.35,509.58L261.76,499.37L265.16,493.69L268.55,484.61L271.97,482.34L278.77,480.07L282.19,470.99L289,458.51L292.39,449.43L295.79,457.37L299.18,451.7L302.58,446.02L306.02,430.13L309.42,423.33L312.81,411.98L316.22,404.03L319.61,399.49L323.01,390.41L326.4,367.71L329.79,352.96L333.18,350.69L336.58,346.15L339.97,338.21L343.41,333.67L346.81,308.7L350.2,301.89L353.6,299.62L360.4,288.27L363.79,290.54L367.18,286L370.58,283.73L373.98,272.38L377.39,272.38L380.78,275.79L384.17,281.46L387.55,279.19L390.97,283.73L394.36,278.06L397.75,278.06L401.15,266.71L404.55,262.17L407.96,263.3L411.38,258.76L414.77,261.03L418.19,261.03L421.57,262.17L425,264.44L428.39,266.71L431.79,251.95L435.2,239.47L438.62,234.93L442.01,225.85L445.41,231.52L452.2,233.79L455.59,228.12L462.37,223.58L465.76,216.77L469.14,216.77L472.54,220.17L475.94,220.17L479.33,211.1L482.72,213.37L486.11,213.37L489.5,211.1L492.89,202.02L499.69,187.26L503.11,188.4L506.52,184.99L509.91,179.32L523.53,160.02L526.93,154.35L530.33,156.62L533.73,153.21L537.14,153.21L540.53,144.13L543.92,150.94L547.32,146.4L550.72,149.81L554.11,147.54L557.52,148.67L560.91,152.08L564.32,153.21L567.72,147.54L571.1,146.4L574.51,139.6L577.9,136.19L581.3,131.65L588.09,121.44L591.48,123.71L594.87,122.57L598.27,118.03L601.66,111.22L605.05,106.68L608.46,103.28L611.85,97.6L615.25,103.28L618.68,106.68L622.07,103.28L625.47,101.01L628.86,104.41L632.25,110.09L635.65,111.22L639.04,105.55L642.44,107.82L645.84,107.82L649.23,106.68L652.62,108.95L656.04,112.36L659.44,113.49L662.84,114.63L666.22,104.41L673.02,104.41L676.42,103.28L679.81,96.47L683.21,94.2L686.6,91.93L690,97.6L693.4,91.93" style="vector-effect: none; fill: none; stroke: rgb(140, 86, 75); stroke-opacity: 1; stroke-width: 2.5px; opacity: 1;"/></g><g class="points"/><g class="text"/></g><g class="trace scatter tracecbba7d" style="stroke-miterlimit: 2;"><g class="fills"><g><path class="js-fill" d="M3.4,572L105.49,572L108.88,575.26L115.67,575.72L119.06,575.72L136.04,575.64L139.43,576.83L142.81,576.83L146.22,575.96L149.62,577.28L153.02,575.97L156.41,574.4L159.79,575.88L163.18,575.88L166.58,574.4L173.37,570.74L176.77,568.29L180.16,566.24L183.55,568.29L186.93,565.92L190.33,566.8L193.73,564.62L197.16,564.62L200.55,564.62L203.96,566.8L214.14,566.14L217.53,565.06L220.96,563.63L224.36,564.9L227.75,566.11L231.13,568.17L234.52,563.71L237.94,564.17L241.38,561.53L244.77,560.4L248.17,556.39L251.55,557.32L258.35,549.07L261.76,541.3L265.16,538.18L268.55,536.43L278.77,527.7L282.19,531.85L285.6,524.77L289,520.78L292.39,511.88L295.79,527.41L299.18,521.14L302.58,520.17L306.02,508.59L309.42,502.51L312.81,503.15L316.22,498.13L319.61,496.19L323.01,484.69L326.4,464.87L329.79,438.53L333.18,437.26L336.58,430.65L339.97,422.71L343.41,417.31L346.81,368.67L350.2,353.71L353.6,349.87L357,348.79L360.4,339.21L363.79,340.32L370.58,333.35L373.98,324.97L377.39,324.97L380.78,332.9L384.17,344.98L387.55,340.64L390.97,347.9L394.36,342.87L397.75,342.87L401.15,338.78L404.55,333L407.96,333.45L411.38,329.77L414.77,333.39L418.19,333.39L421.57,335.02L428.39,335.55L431.79,321.31L435.2,299.44L438.62,291.1L442.01,272.1L445.41,283.4L448.79,283.92L452.2,283.16L455.59,280.47L458.98,278.78L462.37,277.75L465.76,264.43L469.14,264.43L472.54,275.4L486.11,275.24L489.5,272.21L492.89,272.05L496.29,257.88L499.69,254.69L503.11,255.53L506.52,254.73L509.91,251.39L513.33,248.89L516.72,243.83L520.14,234.89L523.53,218.71L526.93,211.49L530.33,211.89L533.73,208.49L537.14,208.49L540.53,199.81L543.92,204.19L547.32,196.66L550.72,198.05L554.11,195.03L557.52,195.46L560.91,197.88L564.32,198.16L567.72,198.39L571.1,197.07L574.51,175.3L577.9,175.22L584.7,175.06L588.09,166.42L591.48,167.19L594.87,164.67L601.66,157.38L605.05,152.48L608.46,149.17L611.85,140.7L615.25,155.5L618.68,157.62L625.47,147.7L628.86,151.2L632.25,156.43L635.65,156.02L639.04,153.18L642.44,156.59L652.62,156.32L656.04,159.2L662.84,160.06L666.22,142.41L673.02,142.41L676.42,140.17L679.81,137.4L683.21,133.05L686.6,133.73L690,138.23L693.4,131.17L693.4,52.68L690,56.98L686.6,50.13L683.21,55.34L679.81,55.54L676.42,66.39L666.22,66.42L662.84,69.19L659.44,67.33L656.04,65.51L652.62,61.58L649.23,56.98L645.84,59.04L642.44,59.04L639.04,57.92L635.65,66.43L632.25,63.75L628.86,57.63L625.47,54.31L622.07,53.49L618.68,55.75L615.25,51.06L611.85,54.5L608.46,57.39L601.66,65.06L598.27,75.03L594.87,80.48L591.48,80.22L588.09,76.46L584.7,76.89L577.9,97.16L574.51,103.89L571.1,95.74L567.72,96.68L564.32,108.27L560.91,106.28L557.52,101.89L554.11,100.05L550.72,101.57L547.32,96.15L543.92,97.7L540.53,88.46L537.14,97.94L533.73,97.94L530.33,101.34L526.93,97.21L523.53,101.33L520.14,94.24L516.72,96.65L513.33,100.67L506.52,115.25L503.11,121.26L499.69,119.84L496.29,132.54L492.89,131.98L489.5,149.99L486.11,151.49L482.72,151.49L479.33,147.33L475.94,164.95L472.54,164.95L469.14,169.11L465.76,169.11L462.37,169.41L458.98,172.92L455.59,175.77L452.2,184.43L448.79,181.4L445.41,179.65L442.01,179.6L438.62,178.76L435.2,179.5L431.79,182.59L428.39,197.87L425,193.81L421.57,189.31L418.19,188.67L414.77,188.67L411.38,187.75L407.96,193.15L404.55,191.33L401.15,194.63L397.75,213.24L394.36,213.24L390.97,219.56L387.55,217.74L380.78,218.67L377.39,219.79L373.98,219.79L370.58,234.11L367.18,235.66L363.79,240.75L360.4,237.33L357,239.09L353.6,249.36L350.2,250.07L346.81,248.73L343.41,250.02L339.97,253.71L336.58,261.65L326.4,270.56L323.01,296.14L319.61,302.79L316.22,309.93L312.81,320.8L309.42,344.14L306.02,351.68L302.58,371.87L299.18,382.26L295.79,387.34L292.39,386.98L289,396.23L282.19,410.13L278.77,432.44L271.97,431.49L268.55,432.79L265.16,449.2L261.76,457.43L258.35,470.09L254.96,475.62L251.55,475.46L248.17,487.73L244.77,490.54L241.38,503.03L237.94,504.92L234.52,509.93L231.13,512.27L227.75,525.69L224.36,524.62L220.96,523.62L214.14,530.2L210.75,534.07L193.73,533.98L190.33,534.07L186.93,532.69L183.55,537.12L180.16,536.9L176.77,537.12L173.37,539.22L169.98,541.66L166.58,542.36L163.18,543.15L159.79,543.15L156.41,542.36L153.02,545.33L149.62,546.29L146.22,554.42L142.81,555.82L139.43,555.82L136.04,561.55L132.63,561.55L129.23,563.74L115.67,563.74L112.28,563.74L108.88,566.47L105.49,572L3.4,572Z" style="fill: rgb(140, 86, 75); fill-opacity: 0.1; stroke-width: 0;"/></g></g><g class="errorbars"/><g class="lines"><path class="js-line" d="M3.4,572L105.49,572L108.88,566.47L112.28,563.74L115.67,563.74L129.23,563.74L132.63,561.55L136.04,561.55L139.43,555.82L142.81,555.82L146.22,554.42L149.62,546.29L153.02,545.33L156.41,542.36L159.79,543.15L163.18,543.15L166.58,542.36L169.98,541.66L173.37,539.22L176.77,537.12L180.16,536.9L183.55,537.12L186.93,532.69L190.33,534.07L193.73,533.98L210.75,534.07L214.14,530.2L220.96,523.62L224.36,524.62L227.75,525.69L231.13,512.27L234.52,509.93L237.94,504.92L241.38,503.03L244.77,490.54L248.17,487.73L251.55,475.46L254.96,475.62L258.35,470.09L261.76,457.43L265.16,449.2L268.55,432.79L271.97,431.49L278.77,432.44L282.19,410.13L289,396.23L292.39,386.98L295.79,387.34L299.18,382.26L302.58,371.87L306.02,351.68L309.42,344.14L312.81,320.8L316.22,309.93L319.61,302.79L323.01,296.14L326.4,270.56L336.58,261.65L339.97,253.71L343.41,250.02L346.81,248.73L350.2,250.07L353.6,249.36L357,239.09L360.4,237.33L363.79,240.75L367.18,235.66L370.58,234.11L373.98,219.79L377.39,219.79L380.78,218.67L387.55,217.74L390.97,219.56L394.36,213.24L397.75,213.24L401.15,194.63L404.55,191.33L407.96,193.15L411.38,187.75L414.77,188.67L418.19,188.67L421.57,189.31L425,193.81L428.39,197.87L431.79,182.59L435.2,179.5L438.62,178.76L442.01,179.6L445.41,179.65L448.79,181.4L452.2,184.43L455.59,175.77L458.98,172.92L462.37,169.41L465.76,169.11L469.14,169.11L472.54,164.95L475.94,164.95L479.33,147.33L482.72,151.49L486.11,151.49L489.5,149.99L492.89,131.98L496.29,132.54L499.69,119.84L503.11,121.26L506.52,115.25L513.33,100.67L516.72,96.65L520.14,94.24L523.53,101.33L526.93,97.21L530.33,101.34L533.73,97.94L537.14,97.94L540.53,88.46L543.92,97.7L547.32,96.15L550.72,101.57L554.11,100.05L557.52,101.89L560.91,106.28L564.32,108.27L567.72,96.68L571.1,95.74L574.51,103.89L577.9,97.16L584.7,76.89L588.09,76.46L591.48,80.22L594.87,80.48L598.27,75.03L601.66,65.06L608.46,57.39L611.85,54.5L615.25,51.06L618.68,55.75L622.07,53.49L625.47,54.31L628.86,57.63L632.25,63.75L635.65,66.43L639.04,57.92L642.44,59.04L645.84,59.04L649.23,56.98L652.62,61.58L656.04,65.51L659.44,67.33L662.84,69.19L666.22,66.42L676.42,66.39L679.81,55.54L683.21,55.34L686.6,50.13L690,56.98L693.4,52.68" style="vector-effect: none; fill: none; stroke: rgb(255, 102, 146); stroke-opacity: 1; stroke-width: 0px; opacity: 1;"/></g><g class="points"/><g class="text"/></g><g class="trace scatter trace667057" style="stroke-miterlimit: 2;"><g class="fills"/><g class="errorbars"/><g class="lines"><path class="js-line" d="M3.4,572L105.49,572L108.88,575.26L115.67,575.72L119.06,575.72L136.04,575.64L139.43,576.83L142.81,576.83L146.22,575.96L149.62,577.28L153.02,575.97L156.41,574.4L159.79,575.88L163.18,575.88L166.58,574.4L173.37,570.74L176.77,568.29L180.16,566.24L183.55,568.29L186.93,565.92L190.33,566.8L193.73,564.62L197.16,564.62L200.55,564.62L203.96,566.8L214.14,566.14L217.53,565.06L220.96,563.63L224.36,564.9L227.75,566.11L231.13,568.17L234.52,563.71L237.94,564.17L241.38,561.53L244.77,560.4L248.17,556.39L251.55,557.32L258.35,549.07L261.76,541.3L265.16,538.18L268.55,536.43L278.77,527.7L282.19,531.85L285.6,524.77L289,520.78L292.39,511.88L295.79,527.41L299.18,521.14L302.58,520.17L306.02,508.59L309.42,502.51L312.81,503.15L316.22,498.13L319.61,496.19L323.01,484.69L326.4,464.87L329.79,438.53L333.18,437.26L336.58,430.65L339.97,422.71L343.41,417.31L346.81,368.67L350.2,353.71L353.6,349.87L357,348.79L360.4,339.21L363.79,340.32L370.58,333.35L373.98,324.97L377.39,324.97L380.78,332.9L384.17,344.98L387.55,340.64L390.97,347.9L394.36,342.87L397.75,342.87L401.15,338.78L404.55,333L407.96,333.45L411.38,329.77L414.77,333.39L418.19,333.39L421.57,335.02L428.39,335.55L431.79,321.31L435.2,299.44L438.62,291.1L442.01,272.1L445.41,283.4L448.79,283.92L452.2,283.16L455.59,280.47L458.98,278.78L462.37,277.75L465.76,264.43L469.14,264.43L472.54,275.4L486.11,275.24L489.5,272.21L492.89,272.05L496.29,257.88L499.69,254.69L503.11,255.53L506.52,254.73L509.91,251.39L513.33,248.89L516.72,243.83L520.14,234.89L523.53,218.71L526.93,211.49L530.33,211.89L533.73,208.49L537.14,208.49L540.53,199.81L543.92,204.19L547.32,196.66L550.72,198.05L554.11,195.03L557.52,195.46L560.91,197.88L564.32,198.16L567.72,198.39L571.1,197.07L574.51,175.3L577.9,175.22L584.7,175.06L588.09,166.42L591.48,167.19L594.87,164.67L601.66,157.38L605.05,152.48L608.46,149.17L611.85,140.7L615.25,155.5L618.68,157.62L625.47,147.7L628.86,151.2L632.25,156.43L635.65,156.02L639.04,153.18L642.44,156.59L652.62,156.32L656.04,159.2L662.84,160.06L666.22,142.41L673.02,142.41L676.42,140.17L679.81,137.4L683.21,133.05L686.6,133.73L690,138.23L693.4,131.17" style="vector-effect: none; fill: none; stroke: rgb(182, 232, 128); stroke-opacity: 1; stroke-width: 0px; opacity: 1;"/></g><g class="points"/><g class="text"/></g></g></g><g class="overplot"/><path class="xlines-above crisp" d="M0,0" style="fill: none;"/><path class="ylines-above crisp" d="M0,0" style="fill: none;"/><g class="overlines-above"/><g class="xaxislayer-above"><g class="xtick"><text text-anchor="middle" x="0" y="603" transform="translate(89,0)" style="font-family: 'Open Sans', verdana, arial, sans-serif; font-size: 30px; fill: rgb(42, 63, 95); fill-opacity: 1; white-space: pre; opacity: 1;">0</text></g><g class="xtick"><text text-anchor="middle" x="0" y="603" style="font-family: 'Open Sans', verdana, arial, sans-serif; font-size: 30px; fill: rgb(42, 63, 95); fill-opacity: 1; white-space: pre; opacity: 1;" transform="translate(427.57,0)">1M</text></g><g class="xtick"><text text-anchor="middle" x="0" y="603" style="font-family: 'Open Sans', verdana, arial, sans-serif; font-size: 30px; fill: rgb(42, 63, 95); fill-opacity: 1; white-space: pre; opacity: 1;" transform="translate(766.14,0)">2M</text></g></g><g class="yaxislayer-above"><g class="ytick"><text text-anchor="end" x="88" y="10.5" transform="translate(0,463.05)" style="font-family: 'Open Sans', verdana, arial, sans-serif; font-size: 30px; fill: rgb(42, 63, 95); fill-opacity: 1; white-space: pre; opacity: 1;">0.2</text></g><g class="ytick"><text text-anchor="end" x="88" y="10.5" style="font-family: 'Open Sans', verdana, arial, sans-serif; font-size: 30px; fill: rgb(42, 63, 95); fill-opacity: 1; white-space: pre; opacity: 1;" transform="translate(0,354.1)">0.4</text></g><g class="ytick"><text text-anchor="end" x="88" y="10.5" style="font-family: 'Open Sans', verdana, arial, sans-serif; font-size: 30px; fill: rgb(42, 63, 95); fill-opacity: 1; white-space: pre; opacity: 1;" transform="translate(0,245.14)">0.6</text></g><g class="ytick"><text text-anchor="end" x="88" y="10.5" style="font-family: 'Open Sans', verdana, arial, sans-serif; font-size: 30px; fill: rgb(42, 63, 95); fill-opacity: 1; white-space: pre; opacity: 1;" transform="translate(0,136.19)">0.8</text></g><g class="ytick"><text text-anchor="end" x="88" y="10.5" style="font-family: 'Open Sans', verdana, arial, sans-serif; font-size: 30px; fill: rgb(42, 63, 95); fill-opacity: 1; white-space: pre; opacity: 1;" transform="translate(0,27.24)">1</text></g></g><g class="overaxes-above"/></g></g><g class="polarlayer"/><g class="smithlayer"/><g class="ternarylayer"/><g class="geolayer"/><g class="funnelarealayer"/><g class="pielayer"/><g class="iciclelayer"/><g class="treemaplayer"/><g class="sunburstlayer"/><g class="glimages"/><defs id="topdefs-c9ac1f"><g class="clips"/></defs><g class="layer-above"><g class="imagelayer"/><g class="shapelayer"/></g><g class="infolayer"><g class="g-gtitle"/><g class="g-xtitle" transform="translate(0,-7.7000000000000455)"><text class="xtitle" x="444.5" y="649.7" text-anchor="middle" style="font-family: 'Open Sans', verdana, arial, sans-serif; font-size: 36px; fill: rgb(42, 63, 95); opacity: 1; font-weight: normal; white-space: pre;">Time Steps</text></g><g class="g-ytitle"/></g></svg>