<svg class="main-svg" xmlns="http://www.w3.org/2000/svg" xmlns:xlink="http://www.w3.org/1999/xlink" width="2400" height="1950" style="" viewBox="0 0 800 650"><rect x="0" y="0" width="800" height="650" style="fill: rgb(255, 255, 255); fill-opacity: 1;"/><defs id="defs-2ac1f0"><g class="clips"><clipPath id="clip2ac1f0xyplot" class="plotclip"><rect width="689" height="572"/></clipPath><clipPath class="axesclip" id="clip2ac1f0x"><rect x="89" y="0" width="689" height="650"/></clipPath><clipPath class="axesclip" id="clip2ac1f0y"><rect x="0" y="0" width="800" height="572"/></clipPath><clipPath class="axesclip" id="clip2ac1f0xy"><rect x="89" y="0" width="689" height="572"/></clipPath></g><g class="gradients"/><g class="patterns"/></defs><g class="bglayer"/><g class="layer-below"><g class="imagelayer"/><g class="shapelayer"/></g><g class="cartesianlayer"><g class="subplot xy"><g class="layer-subplot"><g class="shapelayer"/><g class="imagelayer"/></g><g class="minor-gridlayer"><g class="x"/><g class="y"/></g><g class="gridlayer"><g class="x"><path class="xgrid crisp" transform="translate(433.33,0)" d="M0,0v572" style="stroke: rgb(235, 240, 248); stroke-opacity: 1; stroke-width: 1px;"/></g><g class="y"><path class="ygrid crisp" transform="translate(0,408.17)" d="M89,0h689" style="stroke: rgb(235, 240, 248); stroke-opacity: 1; stroke-width: 1px;"/><path class="ygrid crisp" transform="translate(0,302.13)" d="M89,0h689" style="stroke: rgb(235, 240, 248); stroke-opacity: 1; stroke-width: 1px;"/><path class="ygrid crisp" transform="translate(0,196.08)" d="M89,0h689" style="stroke: rgb(235, 240, 248); stroke-opacity: 1; stroke-width: 1px;"/><path class="ygrid crisp" transform="translate(0,90.04)" d="M89,0h689" style="stroke: rgb(235, 240, 248); stroke-opacity: 1; stroke-width: 1px;"/></g></g><g class="zerolinelayer"><path class="xzl zl crisp" transform="translate(89,0)" d="M0,0v572" style="stroke: rgb(235, 240, 248); stroke-opacity: 1; stroke-width: 2px;"/><path class="yzl zl crisp" transform="translate(0,514.22)" d="M89,0h689" style="stroke: rgb(235, 240, 248); stroke-opacity: 1; stroke-width: 2px;"/></g><path class="xlines-below"/><path class="ylines-below"/><g class="overlines-below"/><g class="xaxislayer-below"/><g class="yaxislayer-below"/><g class="overaxes-below"/><g class="plot" transform="translate(89,0)" clip-path="url(#clip2ac1f0xyplot)"><g class="scatterlayer mlayer"><g class="trace scatter trace6f9c6b" style="stroke-miterlimit: 2; opacity: 1;"><g class="fills"/><g class="errorbars"/><g class="lines"><path class="js-line" d="M0.01,501.85L13.78,450.3L27.55,449.41L41.33,447L55.1,436.48L68.87,427.86L82.65,415.05L96.42,411.11L110.19,408.53L137.74,395.48L151.51,392.44L165.29,383.97L179.06,386.33L192.83,375.44L206.61,372.91L220.38,371.57L234.15,368.9L247.92,359.36L261.7,354.66L275.47,349.62L289.24,341.61L303.02,336.8L316.79,335.5L330.56,338.11L344.34,329.88L358.11,327.58L371.88,328.93L385.66,328.54L399.43,324.07L413.2,326.27L426.98,330.97L440.75,330.44L454.52,323.4L468.29,321.36L482.07,325.37L495.84,320.96L509.61,319.97L523.39,318.72L537.16,323.68L550.93,324.7L564.71,320.18L578.48,316.48L592.25,310.05L606.03,308.49L619.8,305.95L633.57,306.31L647.34,305.72L661.12,308.01L674.89,308.98L688.66,309.43" style="vector-effect: none; fill: none; stroke: rgb(148, 103, 189); stroke-opacity: 1; stroke-width: 2.5px; opacity: 1;"/></g><g class="points"/><g class="text"/></g><g class="trace scatter trace430a34" style="stroke-miterlimit: 2;"><g class="fills"><g><path class="js-fill" d="M13.78,523.2L27.55,500.98L41.33,489.38L55.1,480.08L68.87,472.2L82.65,441.05L96.42,441.5L110.19,435.68L123.97,424.76L137.74,425.73L151.51,424.83L165.29,412.57L179.06,414.63L192.83,393.17L206.61,386.63L220.38,387.75L234.15,387.26L247.92,386.98L261.7,378.29L275.47,373.35L289.24,356.5L316.79,352.4L330.56,352.61L344.34,342.69L358.11,340.18L371.88,343.35L385.66,343.39L399.43,337.83L413.2,342.5L426.98,346.16L440.75,346.02L454.52,339.28L468.29,339.33L482.07,344.51L495.84,337.29L509.61,335.07L523.39,334.16L537.16,338.69L550.93,338.04L564.71,331.82L578.48,331.51L592.25,324.35L606.03,323.02L619.8,315.35L633.57,315.86L647.34,314.89L661.12,316.23L688.66,315.63L688.66,303.24L674.89,302.35L661.12,299.78L647.34,296.56L619.8,296.54L606.03,293.95L592.25,295.74L578.48,301.45L564.71,308.54L550.93,311.36L537.16,308.68L523.39,303.29L509.61,304.88L495.84,304.63L482.07,306.24L468.29,303.4L454.52,307.52L440.75,314.87L426.98,315.79L413.2,310.05L399.43,310.32L385.66,313.69L371.88,314.52L358.11,314.99L344.34,317.07L330.56,323.62L316.79,318.6L303.02,318.96L289.24,326.73L275.47,325.88L261.7,331.03L247.92,331.74L234.15,350.53L220.38,355.39L206.61,359.2L192.83,357.71L179.06,358.02L165.29,355.37L151.51,360.05L137.74,365.23L123.97,379.9L110.19,381.37L96.42,380.72L82.65,389.04L68.87,383.52L55.1,392.88L41.33,404.62L27.55,397.84L13.78,377.39Z" style="fill: rgb(148, 103, 189); fill-opacity: 0.1; stroke-width: 0;"/></g></g><g class="errorbars"/><g class="lines"><path class="js-line" d="M13.78,377.39L27.55,397.84L41.33,404.62L55.1,392.88L68.87,383.52L82.65,389.04L96.42,380.72L110.19,381.37L123.97,379.9L137.74,365.23L151.51,360.05L165.29,355.37L179.06,358.02L192.83,357.71L206.61,359.2L220.38,355.39L234.15,350.53L247.92,331.74L261.7,331.03L275.47,325.88L289.24,326.73L303.02,318.96L316.79,318.6L330.56,323.62L344.34,317.07L358.11,314.99L371.88,314.52L385.66,313.69L399.43,310.32L413.2,310.05L426.98,315.79L440.75,314.87L454.52,307.52L468.29,303.4L482.07,306.24L495.84,304.63L509.61,304.88L523.39,303.29L537.16,308.68L550.93,311.36L564.71,308.54L578.48,301.45L592.25,295.74L606.03,293.95L619.8,296.54L647.34,296.56L661.12,299.78L674.89,302.35L688.66,303.24" style="vector-effect: none; fill: none; stroke: rgb(239, 85, 59); stroke-opacity: 1; stroke-width: 0px; opacity: 1;"/></g><g class="points"/><g class="text"/></g><g class="trace scatter trace2eeb7c" style="stroke-miterlimit: 2;"><g class="fills"/><g class="errorbars"/><g class="lines"><path class="js-line" d="M13.78,523.2L27.55,500.98L41.33,489.38L55.1,480.08L68.87,472.2L82.65,441.05L96.42,441.5L110.19,435.68L123.97,424.76L137.74,425.73L151.51,424.83L165.29,412.57L179.06,414.63L192.83,393.17L206.61,386.63L220.38,387.75L234.15,387.26L247.92,386.98L261.7,378.29L275.47,373.35L289.24,356.5L316.79,352.4L330.56,352.61L344.34,342.69L358.11,340.18L371.88,343.35L385.66,343.39L399.43,337.83L413.2,342.5L426.98,346.16L440.75,346.02L454.52,339.28L468.29,339.33L482.07,344.51L495.84,337.29L509.61,335.07L523.39,334.16L537.16,338.69L550.93,338.04L564.71,331.82L578.48,331.51L592.25,324.35L606.03,323.02L619.8,315.35L633.57,315.86L647.34,314.89L661.12,316.23L688.66,315.63" style="vector-effect: none; fill: none; stroke: rgb(0, 204, 150); stroke-opacity: 1; stroke-width: 0px; opacity: 1;"/></g><g class="points"/><g class="text"/></g><g class="trace scatter trace8a0656" style="stroke-miterlimit: 2; opacity: 1;"><g class="fills"/><g class="errorbars"/><g class="lines"><path class="js-line" d="M0.01,425.55L13.78,415.79L27.55,419.29L41.33,417.65L55.1,414.59L68.87,408.5L82.65,404.17L96.42,404.33L110.19,391.37L137.74,378.63L151.51,378.45L165.29,377.7L179.06,370.74L192.83,368.11L206.61,367.15L220.38,367.41L234.15,362.72L247.92,350.78L261.7,345.43L275.47,344.62L289.24,342.01L303.02,334.18L316.79,332.21L330.56,334.05L344.34,332.62L358.11,330.48L371.88,329.68L385.66,330.79L399.43,334.86L426.98,334.69L440.75,335.48L468.29,328.68L482.07,321.4L495.84,318.7L509.61,316.98L523.39,317.45L537.16,313.41L550.93,313.04L564.71,310.03L578.48,310.09L592.25,306.42L606.03,302.37L619.8,302.29L633.57,298.99L647.34,298.53L661.12,297.64L674.89,295.16L688.66,295.43" style="vector-effect: none; fill: none; stroke: rgb(214, 39, 40); stroke-opacity: 1; stroke-width: 2.5px; opacity: 1;"/></g><g class="points"/><g class="text"/></g><g class="trace scatter tracef14b7e" style="stroke-miterlimit: 2;"><g class="fills"><g><path class="js-fill" d="M13.78,429.59L27.55,430.78L41.33,427.59L55.1,425.59L68.87,426.37L82.65,420.13L96.42,420.31L110.19,415.46L123.97,407.22L137.74,400.33L151.51,400.16L165.29,398.6L179.06,386.17L192.83,388.59L206.61,387.48L220.38,387.72L234.15,383.62L247.92,369.9L261.7,364.18L275.47,364.12L289.24,358.65L303.02,347.51L316.79,343.7L330.56,344.71L344.34,343.98L358.11,343.92L371.88,341.66L385.66,341.95L399.43,351.76L440.75,351.35L454.52,347.15L468.29,347.21L482.07,330.8L495.84,326.12L509.61,323.92L523.39,324.7L537.16,321.01L550.93,321.12L564.71,319.26L578.48,319.37L592.25,317.8L606.03,310.78L619.8,310.69L647.34,309.75L661.12,307.13L688.66,308.12L688.66,282.74L674.89,282.57L661.12,288.15L647.34,287.31L633.57,287.78L619.8,293.89L606.03,293.97L592.25,295.05L578.48,300.81L564.71,300.81L550.93,304.96L537.16,305.81L523.39,310.19L509.61,310.04L495.84,311.27L482.07,312L468.29,310.14L454.52,317.1L440.75,319.6L426.98,317.8L399.43,317.97L385.66,319.62L371.88,317.71L358.11,317.04L344.34,321.26L330.56,323.4L316.79,320.72L303.02,320.84L289.24,325.36L275.47,325.12L261.7,326.68L247.92,331.66L234.15,341.82L220.38,347.11L206.61,346.83L192.83,347.63L179.06,355.31L165.29,356.8L151.51,356.74L137.74,356.93L123.97,362.39L110.19,367.28L96.42,388.35L82.65,388.22L68.87,390.64L55.1,403.6L41.33,407.72L27.55,407.81L13.78,402Z" style="fill: rgb(214, 39, 40); fill-opacity: 0.1; stroke-width: 0;"/></g></g><g class="errorbars"/><g class="lines"><path class="js-line" d="M13.78,402L27.55,407.81L41.33,407.72L55.1,403.6L68.87,390.64L82.65,388.22L96.42,388.35L110.19,367.28L123.97,362.39L137.74,356.93L151.51,356.74L165.29,356.8L179.06,355.31L192.83,347.63L206.61,346.83L220.38,347.11L234.15,341.82L247.92,331.66L261.7,326.68L275.47,325.12L289.24,325.36L303.02,320.84L316.79,320.72L330.56,323.4L344.34,321.26L358.11,317.04L371.88,317.71L385.66,319.62L399.43,317.97L426.98,317.8L440.75,319.6L454.52,317.1L468.29,310.14L482.07,312L495.84,311.27L509.61,310.04L523.39,310.19L537.16,305.81L550.93,304.96L564.71,300.81L578.48,300.81L592.25,295.05L606.03,293.97L619.8,293.89L633.57,287.78L647.34,287.31L661.12,288.15L674.89,282.57L688.66,282.74" style="vector-effect: none; fill: none; stroke: rgb(255, 161, 90); stroke-opacity: 1; stroke-width: 0px; opacity: 1;"/></g><g class="points"/><g class="text"/></g><g class="trace scatter trace225f95" style="stroke-miterlimit: 2;"><g class="fills"/><g class="errorbars"/><g class="lines"><path class="js-line" d="M13.78,429.59L27.55,430.78L41.33,427.59L55.1,425.59L68.87,426.37L82.65,420.13L96.42,420.31L110.19,415.46L123.97,407.22L137.74,400.33L151.51,400.16L165.29,398.6L179.06,386.17L192.83,388.59L206.61,387.48L220.38,387.72L234.15,383.62L247.92,369.9L261.7,364.18L275.47,364.12L289.24,358.65L303.02,347.51L316.79,343.7L330.56,344.71L344.34,343.98L358.11,343.92L371.88,341.66L385.66,341.95L399.43,351.76L440.75,351.35L454.52,347.15L468.29,347.21L482.07,330.8L495.84,326.12L509.61,323.92L523.39,324.7L537.16,321.01L550.93,321.12L564.71,319.26L578.48,319.37L592.25,317.8L606.03,310.78L619.8,310.69L647.34,309.75L661.12,307.13L688.66,308.12" style="vector-effect: none; fill: none; stroke: rgb(25, 211, 243); stroke-opacity: 1; stroke-width: 0px; opacity: 1;"/></g><g class="points"/><g class="text"/></g><g class="trace scatter trace9df2ae" style="stroke-miterlimit: 2; opacity: 1;"><g class="fills"/><g class="errorbars"/><g class="lines"><path class="js-line" d="M0.01,466.72L13.78,457.7L27.55,430.95L41.33,411.32L55.1,396.68L68.87,381.18L82.65,340.14L96.42,305.3L110.19,274.37L137.74,220.56L151.51,194.03L165.29,181.04L179.06,166.32L192.83,161.87L206.61,147.24L220.38,134.35L234.15,134.13L247.92,127.35L261.7,117.02L275.47,99.37L289.24,103L303.02,103.98L316.79,94.74L330.56,91.84L344.34,90.04L358.11,92.45L371.88,88.24L385.66,81.88L399.43,77.13L413.2,78.71L426.98,76.8L440.75,73.7L454.52,69.8L468.29,72.8L482.07,77.26L495.84,71.67L509.61,73.12L523.39,75.96L537.16,72.02L550.93,66.34L564.71,62.34L578.48,60.61L592.25,61.07L606.03,60.11L619.8,66.49L633.57,69.79L647.34,66.56L661.12,69.59L674.89,69.05L688.66,66.46" style="vector-effect: none; fill: none; stroke: rgb(44, 160, 44); stroke-opacity: 1; stroke-width: 2.5px; opacity: 1;"/></g><g class="points"/><g class="text"/></g><g class="trace scatter trace4e0a45" style="stroke-miterlimit: 2;"><g class="fills"><g><path class="js-fill" d="M13.78,470.45L27.55,478.15L41.33,466.33L55.1,454.49L68.87,445.33L82.65,416.27L96.42,368.58L110.19,340.6L123.97,308.3L151.51,227.08L165.29,216.83L179.06,188.95L192.83,180.78L206.61,174.68L220.38,161.17L234.15,160.85L247.92,156.58L261.7,147.03L275.47,126.4L289.24,131.46L303.02,132.55L316.79,116.16L330.56,113.29L358.11,111.08L371.88,101.01L385.66,91.22L399.43,89.6L413.2,92.8L426.98,91.68L440.75,91.08L454.52,83.41L468.29,88.52L482.07,92.16L495.84,85.3L509.61,86.61L523.39,86.35L537.16,87.31L550.93,80.37L564.71,72.51L578.48,71.99L592.25,73.23L606.03,71.4L619.8,80.62L633.57,82.94L647.34,83.75L661.12,84.75L674.89,83.89L688.66,83.1L688.66,49.82L674.89,54.22L661.12,54.43L647.34,49.37L633.57,56.64L619.8,52.35L606.03,48.81L578.48,49.22L564.71,52.17L550.93,52.31L537.16,56.74L523.39,65.57L509.61,59.62L495.84,58.03L482.07,62.37L468.29,57.07L454.52,56.19L440.75,56.33L426.98,61.91L413.2,64.63L399.43,64.65L385.66,72.54L371.88,75.46L358.11,73.81L344.34,67.9L316.79,73.32L303.02,75.41L289.24,74.54L275.47,72.34L261.7,87.01L247.92,98.13L234.15,107.4L220.38,107.53L206.61,119.79L192.83,142.95L179.06,143.7L165.29,145.24L151.51,160.99L137.74,174.06L123.97,185.35L110.19,208.13L96.42,242.01L82.65,264.01L68.87,317.04L55.1,338.88L41.33,356.31L27.55,383.76L13.78,444.94Z" style="fill: rgb(44, 160, 44); fill-opacity: 0.1; stroke-width: 0;"/></g></g><g class="errorbars"/><g class="lines"><path class="js-line" d="M13.78,444.94L27.55,383.76L41.33,356.31L55.1,338.88L68.87,317.04L82.65,264.01L96.42,242.01L110.19,208.13L123.97,185.35L137.74,174.06L151.51,160.99L165.29,145.24L179.06,143.7L192.83,142.95L206.61,119.79L220.38,107.53L234.15,107.4L247.92,98.13L261.7,87.01L275.47,72.34L289.24,74.54L303.02,75.41L316.79,73.32L344.34,67.9L358.11,73.81L371.88,75.46L385.66,72.54L399.43,64.65L413.2,64.63L426.98,61.91L440.75,56.33L454.52,56.19L468.29,57.07L482.07,62.37L495.84,58.03L509.61,59.62L523.39,65.57L537.16,56.74L550.93,52.31L564.71,52.17L578.48,49.22L606.03,48.81L619.8,52.35L633.57,56.64L647.34,49.37L661.12,54.43L674.89,54.22L688.66,49.82" style="vector-effect: none; fill: none; stroke: rgb(182, 232, 128); stroke-opacity: 1; stroke-width: 0px; opacity: 1;"/></g><g class="points"/><g class="text"/></g><g class="trace scatter trace564007" style="stroke-miterlimit: 2;"><g class="fills"/><g class="errorbars"/><g class="lines"><path class="js-line" d="M13.78,470.45L27.55,478.15L41.33,466.33L55.1,454.49L68.87,445.33L82.65,416.27L96.42,368.58L110.19,340.6L123.97,308.3L151.51,227.08L165.29,216.83L179.06,188.95L192.83,180.78L206.61,174.68L220.38,161.17L234.15,160.85L247.92,156.58L261.7,147.03L275.47,126.4L289.24,131.46L303.02,132.55L316.79,116.16L330.56,113.29L358.11,111.08L371.88,101.01L385.66,91.22L399.43,89.6L413.2,92.8L426.98,91.68L440.75,91.08L454.52,83.41L468.29,88.52L482.07,92.16L495.84,85.3L509.61,86.61L523.39,86.35L537.16,87.31L550.93,80.37L564.71,72.51L578.48,71.99L592.25,73.23L606.03,71.4L619.8,80.62L633.57,82.94L647.34,83.75L661.12,84.75L674.89,83.89L688.66,83.1" style="vector-effect: none; fill: none; stroke: rgb(255, 151, 255); stroke-opacity: 1; stroke-width: 0px; opacity: 1;"/></g><g class="points"/><g class="text"/></g><g class="trace scatter tracece07f0" style="stroke-miterlimit: 2; opacity: 1;"><g class="fills"/><g class="errorbars"/><g class="lines"><path class="js-line" d="M0.01,512.74L13.78,438.73L27.55,408.98L41.33,394.46L55.1,385.71L68.87,374.71L82.65,344.02L96.42,341.55L110.19,334.24L137.74,313.92L151.51,310.45L165.29,302.35L179.06,291.89L192.83,285.29L206.61,283.18L220.38,281.13L234.15,276.71L247.92,275.02L261.7,271.06L275.47,267.53L289.24,259.21L303.02,256.23L316.79,254.1L330.56,249.18L344.34,245.06L358.11,242.63L371.88,243.9L385.66,243.12L399.43,241.42L413.2,241.15L426.98,244.65L440.75,243.91L454.52,248.42L468.29,243.41L482.07,241.83L495.84,240.87L509.61,235.03L523.39,234.75L537.16,230.27L564.71,231.85L578.48,235.13L606.03,238.44L619.8,235.61L633.57,236.17L647.34,234.64L661.12,229.95L674.89,229.79L688.66,227.35" style="vector-effect: none; fill: none; stroke: rgb(255, 127, 14); stroke-opacity: 1; stroke-width: 2.5px; opacity: 1;"/></g><g class="points"/><g class="text"/></g><g class="trace scatter trace5691f9" style="stroke-miterlimit: 2;"><g class="fills"><g><path class="js-fill" d="M13.78,543.4L27.55,499.17L41.33,473.61L55.1,457L68.87,443.93L82.65,360.63L96.42,355.33L110.19,353.52L123.97,348.11L137.74,337.48L151.51,334.51L165.29,327.26L179.06,300.99L192.83,296.57L206.61,294.29L220.38,292.21L234.15,283.9L247.92,282.48L261.7,276.9L275.47,279.87L289.24,277.8L303.02,272.9L316.79,269.03L344.34,257.03L358.11,256.06L371.88,256.05L385.66,254.27L399.43,250.05L413.2,249.85L426.98,255.99L440.75,256.46L454.52,262.47L468.29,260.34L482.07,258.52L495.84,257.94L509.61,250.26L523.39,250.2L537.16,237.42L550.93,237.45L564.71,240.47L578.48,247.25L633.57,247.99L647.34,245.43L661.12,236.78L674.89,236.55L688.66,234.13L688.66,220.56L674.89,223.02L647.34,223.84L633.57,224.35L619.8,223.36L606.03,229.02L592.25,225.34L578.48,223L564.71,223.23L550.93,224.14L537.16,223.11L523.39,219.29L509.61,219.8L495.84,223.8L468.29,226.48L454.52,234.36L440.75,231.37L426.98,233.31L413.2,232.46L399.43,232.8L385.66,231.97L371.88,231.75L358.11,229.19L344.34,233.08L330.56,235.66L316.79,239.18L303.02,239.55L289.24,240.61L275.47,255.19L261.7,265.23L234.15,269.52L220.38,270.04L206.61,272.07L192.83,274.01L179.06,282.8L165.29,277.44L151.51,286.39L137.74,290.37L123.97,300.5L110.19,314.96L96.42,327.77L82.65,327.41L68.87,305.5L55.1,314.43L41.33,315.3L27.55,318.8L13.78,334.07Z" style="fill: rgb(255, 127, 14); fill-opacity: 0.1; stroke-width: 0;"/></g></g><g class="errorbars"/><g class="lines"><path class="js-line" d="M13.78,334.07L27.55,318.8L41.33,315.3L55.1,314.43L68.87,305.5L82.65,327.41L96.42,327.77L110.19,314.96L123.97,300.5L137.74,290.37L151.51,286.39L165.29,277.44L179.06,282.8L192.83,274.01L206.61,272.07L220.38,270.04L234.15,269.52L261.7,265.23L275.47,255.19L289.24,240.61L303.02,239.55L316.79,239.18L330.56,235.66L344.34,233.08L358.11,229.19L371.88,231.75L385.66,231.97L399.43,232.8L413.2,232.46L426.98,233.31L440.75,231.37L454.52,234.36L468.29,226.48L495.84,223.8L509.61,219.8L523.39,219.29L537.16,223.11L550.93,224.14L564.71,223.23L578.48,223L592.25,225.34L606.03,229.02L619.8,223.36L633.57,224.35L647.34,223.84L674.89,223.02L688.66,220.56" style="vector-effect: none; fill: none; stroke: rgb(99, 110, 250); stroke-opacity: 1; stroke-width: 0px; opacity: 1;"/></g><g class="points"/><g class="text"/></g><g class="trace scatter tracec98af0" style="stroke-miterlimit: 2;"><g class="fills"/><g class="errorbars"/><g class="lines"><path class="js-line" d="M13.78,543.4L27.55,499.17L41.33,473.61L55.1,457L68.87,443.93L82.65,360.63L96.42,355.33L110.19,353.52L123.97,348.11L137.74,337.48L151.51,334.51L165.29,327.26L179.06,300.99L192.83,296.57L206.61,294.29L220.38,292.21L234.15,283.9L247.92,282.48L261.7,276.9L275.47,279.87L289.24,277.8L303.02,272.9L316.79,269.03L344.34,257.03L358.11,256.06L371.88,256.05L385.66,254.27L399.43,250.05L413.2,249.85L426.98,255.99L440.75,256.46L454.52,262.47L468.29,260.34L482.07,258.52L495.84,257.94L509.61,250.26L523.39,250.2L537.16,237.42L550.93,237.45L564.71,240.47L578.48,247.25L633.57,247.99L647.34,245.43L661.12,236.78L674.89,236.55L688.66,234.13" style="vector-effect: none; fill: none; stroke: rgb(239, 85, 59); stroke-opacity: 1; stroke-width: 0px; opacity: 1;"/></g><g class="points"/><g class="text"/></g><g class="trace scatter trace1382d8" style="stroke-miterlimit: 2; opacity: 1;"><g class="fills"/><g class="errorbars"/><g class="lines"><path class="js-line" d="M0.01,506.48L13.78,459.65L27.55,430.19L55.1,343.84L68.87,313.8L82.65,252.42L96.42,195.53L110.19,143.7L123.97,110.05L151.51,68.18L165.29,55.15L179.06,49.95L192.83,46.69L220.38,44.63L234.15,46.16L247.92,43.78L261.7,44.24L275.47,44.44L289.24,42.47L303.02,43.43L316.79,42.49L344.34,41.68L358.11,40.87L371.88,41.89L385.66,40.17L413.2,38.5L426.98,37.77L440.75,39.09L454.52,38.25L468.29,38.18L482.07,39.09L495.84,38.9L509.61,39.67L523.39,37.41L537.16,37.98L550.93,37.75L564.71,36.23L578.48,38.52L592.25,39.69L606.03,39.63L619.8,38.76L633.57,38.55L647.34,41.24L661.12,38.52L674.89,36.88L688.66,39.6" style="vector-effect: none; fill: none; stroke: rgb(31, 119, 180); stroke-opacity: 1; stroke-width: 2.5px; opacity: 1;"/></g><g class="points"/><g class="text"/></g><g class="trace scatter trace167df9" style="stroke-miterlimit: 2;"><g class="fills"><g><path class="js-fill" d="M13.78,525.88L27.55,499.45L41.33,490.85L55.1,474.85L68.87,452.16L82.65,368.03L96.42,299.86L110.19,215.4L123.97,165.15L137.74,138.29L151.51,104.5L165.29,67.3L179.06,60.24L192.83,56.11L206.61,54.86L220.38,53.17L234.15,53.37L247.92,46.42L261.7,46.35L289.24,46.49L303.02,48.68L358.11,46.69L371.88,46.9L385.66,42.64L399.43,43.3L426.98,41.65L440.75,43.94L468.29,43.07L482.07,42.91L509.61,42.87L523.39,40.84L537.16,41.35L550.93,41.01L564.71,41.42L578.48,47.47L592.25,49.29L606.03,49.29L633.57,48.51L647.34,49.85L661.12,44.47L674.89,41.24L688.66,44.66L688.66,34.53L674.89,32.53L647.34,32.63L633.57,28.6L619.8,28.82L606.03,29.98L592.25,30.1L578.48,29.56L564.71,31.05L550.93,34.5L523.39,33.99L509.61,36.47L495.84,35.19L482.07,35.27L468.29,33.3L454.52,33.33L440.75,34.25L426.98,33.88L413.2,34.81L399.43,34.69L385.66,37.71L371.88,36.89L358.11,35.06L344.34,36.17L316.79,36.94L303.02,38.17L289.24,38.44L275.47,42.73L261.7,42.13L247.92,41.14L234.15,38.95L220.38,36.09L206.61,36.72L192.83,37.27L179.06,39.67L165.29,43L151.51,31.87L137.74,40.91L123.97,54.94L110.19,72L96.42,91.21L82.65,136.81L68.87,175.44L55.1,212.83L41.33,281.39L27.55,360.93L13.78,393.41Z" style="fill: rgb(31, 119, 180); fill-opacity: 0.1; stroke-width: 0;"/></g></g><g class="errorbars"/><g class="lines"><path class="js-line" d="M13.78,393.41L27.55,360.93L41.33,281.39L55.1,212.83L68.87,175.44L82.65,136.81L96.42,91.21L110.19,72L123.97,54.94L137.74,40.91L151.51,31.87L165.29,43L179.06,39.67L192.83,37.27L206.61,36.72L220.38,36.09L234.15,38.95L247.92,41.14L261.7,42.13L275.47,42.73L289.24,38.44L303.02,38.17L316.79,36.94L344.34,36.17L358.11,35.06L371.88,36.89L385.66,37.71L399.43,34.69L413.2,34.81L426.98,33.88L440.75,34.25L454.52,33.33L468.29,33.3L482.07,35.27L495.84,35.19L509.61,36.47L523.39,33.99L550.93,34.5L564.71,31.05L578.48,29.56L592.25,30.1L606.03,29.98L619.8,28.82L633.57,28.6L647.34,32.63L674.89,32.53L688.66,34.53" style="vector-effect: none; fill: none; stroke: rgb(171, 99, 250); stroke-opacity: 1; stroke-width: 0px; opacity: 1;"/></g><g class="points"/><g class="text"/></g><g class="trace scatter traced10fcd" style="stroke-miterlimit: 2;"><g class="fills"/><g class="errorbars"/><g class="lines"><path class="js-line" d="M13.78,525.88L27.55,499.45L41.33,490.85L55.1,474.85L68.87,452.16L82.65,368.03L96.42,299.86L110.19,215.4L123.97,165.15L137.74,138.29L151.51,104.5L165.29,67.3L179.06,60.24L192.83,56.11L206.61,54.86L220.38,53.17L234.15,53.37L247.92,46.42L261.7,46.35L289.24,46.49L303.02,48.68L358.11,46.69L371.88,46.9L385.66,42.64L399.43,43.3L426.98,41.65L440.75,43.94L468.29,43.07L482.07,42.91L509.61,42.87L523.39,40.84L537.16,41.35L550.93,41.01L564.71,41.42L578.48,47.47L592.25,49.29L606.03,49.29L633.57,48.51L647.34,49.85L661.12,44.47L674.89,41.24L688.66,44.66" style="vector-effect: none; fill: none; stroke: rgb(255, 161, 90); stroke-opacity: 1; stroke-width: 0px; opacity: 1;"/></g><g class="points"/><g class="text"/></g></g></g><g class="overplot"/><path class="xlines-above crisp" d="M0,0" style="fill: none;"/><path class="ylines-above crisp" d="M0,0" style="fill: none;"/><g class="overlines-above"/><g class="xaxislayer-above"><g class="xtick"><text text-anchor="middle" x="0" y="603" transform="translate(89,0)" style="font-family: 'Open Sans', verdana, arial, sans-serif; font-size: 30px; fill: rgb(42, 63, 95); fill-opacity: 1; white-space: pre; opacity: 1;">0</text></g><g class="xtick"><text text-anchor="middle" x="0" y="603" style="font-family: 'Open Sans', verdana, arial, sans-serif; font-size: 30px; fill: rgb(42, 63, 95); fill-opacity: 1; white-space: pre; opacity: 1;" transform="translate(433.33,0)">1M</text></g><g class="xtick"><text text-anchor="middle" x="0" y="603" style="font-family: 'Open Sans', verdana, arial, sans-serif; font-size: 30px; fill: rgb(42, 63, 95); fill-opacity: 1; white-space: pre; opacity: 0;" transform="translate(777.66,0)">2M</text></g></g><g class="yaxislayer-above"><g class="ytick"><text text-anchor="end" x="88" y="10.5" transform="translate(0,514.22)" style="font-family: 'Open Sans', verdana, arial, sans-serif; font-size: 30px; fill: rgb(42, 63, 95); fill-opacity: 1; white-space: pre; opacity: 1;">0</text></g><g class="ytick"><text text-anchor="end" x="88" y="10.5" style="font-family: 'Open Sans', verdana, arial, sans-serif; font-size: 30px; fill: rgb(42, 63, 95); fill-opacity: 1; white-space: pre; opacity: 1;" transform="translate(0,408.17)">0.2</text></g><g class="ytick"><text text-anchor="end" x="88" y="10.5" style="font-family: 'Open Sans', verdana, arial, sans-serif; font-size: 30px; fill: rgb(42, 63, 95); fill-opacity: 1; white-space: pre; opacity: 1;" transform="translate(0,302.13)">0.4</text></g><g class="ytick"><text text-anchor="end" x="88" y="10.5" style="font-family: 'Open Sans', verdana, arial, sans-serif; font-size: 30px; fill: rgb(42, 63, 95); fill-opacity: 1; white-space: pre; opacity: 1;" transform="translate(0,196.08)">0.6</text></g><g class="ytick"><text text-anchor="end" x="88" y="10.5" style="font-family: 'Open Sans', verdana, arial, sans-serif; font-size: 30px; fill: rgb(42, 63, 95); fill-opacity: 1; white-space: pre; opacity: 1;" transform="translate(0,90.04)">0.8</text></g></g><g class="overaxes-above"/></g></g><g class="polarlayer"/><g class="smithlayer"/><g class="ternarylayer"/><g class="geolayer"/><g class="funnelarealayer"/><g class="pielayer"/><g class="iciclelayer"/><g class="treemaplayer"/><g class="sunburstlayer"/><g class="glimages"/><defs id="topdefs-2ac1f0"><g class="clips"/></defs><g class="layer-above"><g class="imagelayer"/><g class="shapelayer"/></g><g class="infolayer"><g class="g-gtitle"/><g class="g-xtitle" transform="translate(0,-7.7000000000000455)"><text class="xtitle" x="433.5" y="649.7" text-anchor="middle" style="font-family: 'Open Sans', verdana, arial, sans-serif; font-size: 36px; fill: rgb(42, 63, 95); opacity: 1; font-weight: normal; white-space: pre;">Time Steps</text></g><g class="g-ytitle" transform="translate(32.4189453125,0)"><text class="ytitle" transform="rotate(-90,0.5812499999999972,286)" x="0.5812499999999972" y="286" text-anchor="middle" style="font-family: 'Open Sans', verdana, arial, sans-serif; font-size: 36px; fill: rgb(42, 63, 95); opacity: 1; font-weight: normal; white-space: pre;">Test Occupied Landmarks %</text></g></g></svg>