<?xml version="1.0" encoding="UTF-8" standalone="no"?>
<!-- Created with Inkscape (http://www.inkscape.org/) -->

<svg
   xmlns:dc="http://purl.org/dc/elements/1.1/"
   xmlns:cc="http://creativecommons.org/ns#"
   xmlns:rdf="http://www.w3.org/1999/02/22-rdf-syntax-ns#"
   xmlns:svg="http://www.w3.org/2000/svg"
   xmlns="http://www.w3.org/2000/svg"
   xmlns:sodipodi="http://sodipodi.sourceforge.net/DTD/sodipodi-0.dtd"
   xmlns:inkscape="http://www.inkscape.org/namespaces/inkscape"
   width="228.0705mm"
   height="55.995441mm"
   viewBox="0 0 228.0705 55.995442"
   version="1.1"
   id="svg4625"
   inkscape:version="0.92.1 r15371"
   sodipodi:docname="CSIC.svg">
  <defs
     id="defs4619" />
  <sodipodi:namedview
     id="base"
     pagecolor="#ffffff"
     bordercolor="#666666"
     borderopacity="1.0"
     inkscape:pageopacity="0.0"
     inkscape:pageshadow="2"
     inkscape:zoom="1.0748023"
     inkscape:cx="348.8916"
     inkscape:cy="164.84109"
     inkscape:document-units="mm"
     inkscape:current-layer="layer1"
     showgrid="false"
     fit-margin-top="0"
     fit-margin-left="0"
     fit-margin-right="0"
     fit-margin-bottom="0"
     inkscape:window-width="1366"
     inkscape:window-height="705"
     inkscape:window-x="-8"
     inkscape:window-y="-8"
     inkscape:window-maximized="1" />
  <metadata
     id="metadata4622">
    <rdf:RDF>
      <cc:Work
         rdf:about="">
        <dc:format>image/svg+xml</dc:format>
        <dc:type
           rdf:resource="http://purl.org/dc/dcmitype/StillImage" />
        <dc:title></dc:title>
      </cc:Work>
    </rdf:RDF>
  </metadata>
  <g
     inkscape:label="Layer 1"
     inkscape:groupmode="layer"
     id="layer1"
     transform="translate(-62.857603,-196.92829)">
    <path
       d="m 70.527577,247.44554 -0.61797,1.03143 -0.112035,-0.0746 c 0.02218,-0.0837 0.03735,-0.1477 0.03735,-0.18853 0,-0.12174 -0.182281,-0.26231 -0.538835,-0.43925 -0.487266,-0.23995 -1.028767,-0.35301 -1.606727,-0.35301 -0.77891,0 -1.413774,0.21171 -1.90104,0.65176 -0.497932,0.4339 -0.739787,1.00744 -0.739787,1.70543 0,0.69354 0.253414,1.27685 0.767351,1.73477 0.501491,0.45525 1.109682,0.68108 1.842356,0.68108 0.711333,0 1.339085,-0.216 1.881479,-0.62152 0.247183,-0.18752 0.370782,-0.31743 0.370782,-0.39745 0,-0.0426 -0.02042,-0.10309 -0.06936,-0.19484 l 0.09691,-0.0799 0.746012,0.90874 -0.10402,0.0809 c -0.07735,-0.0781 -0.138702,-0.10409 -0.191178,-0.10409 -0.02934,0 -0.08446,0.0252 -0.159168,0.0907 -0.259636,0.18324 -0.468591,0.33077 -0.6402,0.42503 -0.170712,0.0996 -0.353,0.18148 -0.55484,0.24625 -0.413464,0.13863 -0.874942,0.21525 -1.371098,0.21525 -0.965634,0 -1.747213,-0.26409 -2.351847,-0.79758 -0.633978,-0.56194 -0.950522,-1.27949 -0.950522,-2.14999 0,-0.69799 0.198286,-1.28484 0.593963,-1.79344 0.617083,-0.78604 1.54893,-1.17994 2.787541,-1.17994 0.815366,0 1.606725,0.21349 2.374076,0.65533 0.05245,0.0267 0.08625,0.0348 0.101373,0.0348 0.03556,0 0.106692,-0.0479 0.196497,-0.16005 z"
       style="fill:#231f20;fill-opacity:1;fill-rule:nonzero;stroke:none;stroke-width:0.88916737"
       id="path4507"
       inkscape:connector-curvature="0" />
    <path
       d="m 74.345663,247.86611 c 0.835817,0 1.508917,0.21525 2.019298,0.65797 0.550396,0.45795 0.822482,1.06435 0.822482,1.82815 0,0.47125 -0.13782,0.90339 -0.403682,1.29996 -0.504158,0.7389 -1.315968,1.11146 -2.428316,1.11146 -0.828704,0 -1.498248,-0.21954 -2.008629,-0.64731 -0.550396,-0.46506 -0.822482,-1.06879 -0.822482,-1.80502 0,-0.48461 0.135148,-0.9363 0.398349,-1.32929 0.283644,-0.41971 0.678433,-0.72023 1.185258,-0.90163 0.35389,-0.1414 0.762907,-0.20794 1.237722,-0.21424 m 0,0.48814 c -0.68288,0 -1.231496,0.20366 -1.643181,0.62687 -0.365448,0.369 -0.549506,0.81091 -0.549506,1.3302 0,0.53616 0.18407,0.97364 0.549506,1.34087 0.411685,0.41346 0.962968,0.63398 1.652963,0.63398 0.690882,0 1.241276,-0.22054 1.65385,-0.63398 0.364559,-0.36723 0.548616,-0.79493 0.548616,-1.30976 0,-0.5504 -0.18407,-0.99854 -0.548616,-1.36131 -0.415241,-0.41613 -0.970081,-0.62064 -1.663632,-0.62687"
       style="fill:#231f20;fill-opacity:1;fill-rule:nonzero;stroke:none;stroke-width:0.88916737"
       id="path4509"
       inkscape:connector-curvature="0" />
    <path
       d="m 78.840405,248.70815 v 3.4873 c 0,0.10486 0.01865,0.18753 0.05512,0.24626 0.0338,0.0426 0.10402,0.0837 0.210737,0.10661 v 0.11821 h -1.034101 v -0.11821 c 0.113825,-0.0227 0.184071,-0.064 0.217845,-0.10661 0.0338,-0.0587 0.05424,-0.1414 0.05424,-0.24626 v -3.75139 c 0,-0.12452 -0.02042,-0.20441 -0.05603,-0.24903 -0.03556,-0.0408 -0.104927,-0.0862 -0.216055,-0.11468 v -0.10762 h 1.5267 v 0.10762 c -0.143163,0.0517 -0.221399,0.1235 -0.221399,0.22483 0,0.0844 0.05603,0.17416 0.159168,0.29787 l 2.772424,3.10321 v -3.26236 c 0,-0.12451 -0.02142,-0.20441 -0.05691,-0.24902 -0.03556,-0.0408 -0.104928,-0.0862 -0.216081,-0.11468 v -0.10762 h 1.034103 v 0.10762 c -0.103138,0.0285 -0.172501,0.0739 -0.208065,0.11468 -0.03556,0.0444 -0.05691,0.12451 -0.05691,0.24902 v 3.7514 c 0,0.10486 0.02042,0.18753 0.05424,0.24625 0.03468,0.0426 0.10402,0.0837 0.210737,0.10662 v 0.11821 h -1.22616 v -0.11821 c 0.15027,-0.0275 0.221398,-0.096 0.221398,-0.17517 0,-0.0542 -0.06936,-0.16358 -0.200957,-0.313 z"
       style="fill:#231f20;fill-opacity:1;fill-rule:nonzero;stroke:none;stroke-width:0.88916737"
       id="path4511"
       inkscape:connector-curvature="0" />
    <path
       d="m 88.54122,248.21467 -0.465035,0.90518 -0.09691,-0.0444 c 0.0098,-0.0809 0.01689,-0.13258 0.01689,-0.16888 0,-0.065 -0.08713,-0.14669 -0.270306,-0.24373 -0.38323,-0.20088 -0.850045,-0.30855 -1.404885,-0.30855 -0.442804,0 -0.823368,0.0827 -1.13102,0.24902 -0.308541,0.16887 -0.462368,0.4028 -0.462368,0.69799 0,0.1288 0.03824,0.25787 0.116471,0.36636 0.07735,0.10233 0.179609,0.17794 0.312988,0.23112 0.132476,0.0373 0.272974,0.0738 0.425022,0.0862 0.152943,0.005 0.484597,0.0252 0.987865,0.0489 0.425912,0.0151 0.744233,0.032 0.956744,0.0791 0.220517,0.032 0.401905,0.10662 0.55484,0.18929 0.166276,0.0837 0.297872,0.22861 0.387677,0.39746 0.0987,0.16988 0.147599,0.36811 0.147599,0.56816 0,0.44015 -0.181399,0.78069 -0.535279,1.03589 -0.422353,0.30231 -0.987864,0.45971 -1.689416,0.45971 -0.348554,0 -0.709556,-0.0542 -1.095456,-0.15929 -0.377895,-0.10133 -0.730895,-0.24449 -1.059887,-0.43305 -0.04534,-0.0338 -0.07735,-0.0426 -0.09782,-0.0426 -0.04091,0 -0.108481,0.0507 -0.192942,0.15198 l -0.09159,-0.0721 0.526386,-0.88295 0.104927,0.0542 c -0.0098,0.0338 -0.01689,0.0517 -0.02042,0.065 -0.0088,0.0479 -0.01689,0.0809 -0.01689,0.11367 0,0.0784 0.138702,0.184 0.425023,0.33346 0.48104,0.25696 0.976305,0.3939 1.492912,0.3939 0.471258,0 0.867827,-0.0819 1.181704,-0.24449 0.149389,-0.0791 0.269416,-0.18853 0.360113,-0.31654 0.08446,-0.14317 0.12983,-0.27922 0.12983,-0.42236 0,-0.1298 -0.03735,-0.25787 -0.112035,-0.36456 -0.07468,-0.10057 -0.175173,-0.17417 -0.294316,-0.22936 -0.119143,-0.031 -0.241865,-0.064 -0.386787,-0.0844 -0.13782,-0.005 -0.407238,-0.0227 -0.798471,-0.0391 -0.457033,-0.0227 -0.788692,-0.0444 -0.986978,-0.0675 -0.198286,-0.032 -0.38323,-0.0693 -0.561952,-0.13509 -0.220517,-0.0802 -0.401905,-0.21954 -0.537058,-0.39746 -0.140491,-0.185 -0.206276,-0.40191 -0.206276,-0.65976 0,-0.45081 0.204512,-0.80471 0.614414,-1.06611 0.411684,-0.25787 0.943409,-0.39301 1.586276,-0.39301 0.585073,0 1.172812,0.13509 1.763218,0.39301 0.09159,0.0436 0.145809,0.0595 0.154707,0.0595 0.04534,0 0.101373,-0.056 0.159168,-0.1593 z"
       style="fill:#231f20;fill-opacity:1;fill-rule:nonzero;stroke:none;stroke-width:0.88916737"
       id="path4513"
       inkscape:connector-curvature="0" />
    <path
       d="m 90.251088,250.4616 v 1.74631 h 2.899576 c 0.117379,0 0.200958,-0.0126 0.251644,-0.056 0.05069,-0.0267 0.08713,-0.10309 0.109364,-0.20895 h 0.115589 v 0.98077 h -0.115589 c -0.02218,-0.0953 -0.05779,-0.16459 -0.106692,-0.20819 -0.0489,-0.031 -0.131594,-0.0489 -0.248972,-0.0489 h -3.769181 v -0.11821 c 0.110245,-0.0227 0.184952,-0.064 0.218727,-0.10661 0.03289,-0.0587 0.0498,-0.1414 0.0498,-0.24625 v -3.7514 c 0,-0.12451 -0.01689,-0.20441 -0.05245,-0.24903 -0.03556,-0.0408 -0.106692,-0.0862 -0.21608,-0.11468 v -0.10762 h 3.740729 c 0.116472,0 0.199168,-0.0227 0.248091,-0.0517 0.0489,-0.0408 0.08713,-0.10939 0.112035,-0.22054 h 0.109363 v 0.99586 h -0.109363 c -0.02579,-0.11216 -0.06314,-0.18223 -0.112035,-0.21953 -0.0489,-0.032 -0.131594,-0.0534 -0.248973,-0.0534 h -2.875569 v 1.58538 h 1.830797 c 0.116471,0 0.200076,-0.0227 0.248973,-0.0489 0.0489,-0.0436 0.08625,-0.11292 0.112035,-0.21248 h 0.110245 v 0.98432 H 92.44291 c -0.02578,-0.11115 -0.06402,-0.18147 -0.114707,-0.20895 -0.05069,-0.0426 -0.132476,-0.0612 -0.246301,-0.0612 z"
       style="fill:#231f20;fill-opacity:1;fill-rule:nonzero;stroke:none;stroke-width:0.88916737"
       id="path4515"
       inkscape:connector-curvature="0" />
    <path
       d="m 94.020268,252.52002 0.469482,-1.00121 0.107599,0.0542 c -0.02142,0.0809 -0.03289,0.15828 -0.03289,0.18929 0,0.0489 0.02394,0.0907 0.08002,0.12804 0.136056,0.11569 0.328103,0.20995 0.566401,0.28098 0.239194,0.0711 0.475705,0.11468 0.699775,0.11468 0.213409,0 0.400125,-0.0454 0.561065,-0.11745 0.160932,-0.0738 0.275642,-0.18047 0.344108,-0.30677 0.0738,-0.13258 0.112035,-0.40192 0.112035,-0.79224 v -2.62573 c 0,-0.12451 -0.01412,-0.20441 -0.0498,-0.24902 -0.03912,-0.0408 -0.112917,-0.0862 -0.216055,-0.11468 v -0.10762 h 1.129244 v 0.10762 c -0.104046,0.0285 -0.173384,0.0739 -0.208948,0.11468 -0.03556,0.0444 -0.05691,0.12451 -0.05691,0.24902 v 2.73419 c 0,0.2712 -0.01865,0.48106 -0.06223,0.64733 -0.04446,0.16635 -0.112917,0.30586 -0.21429,0.43478 -0.132476,0.15552 -0.309431,0.27209 -0.535279,0.36547 -0.23206,0.0925 -0.473927,0.13787 -0.743343,0.13787 -0.224952,0 -0.48104,-0.0275 -0.777133,-0.0844 -0.296093,-0.0746 -0.546837,-0.153 -0.76913,-0.23466 -0.04534,-0.0227 -0.0827,-0.0348 -0.111153,-0.0348 -0.0649,0 -0.132476,0.0444 -0.186717,0.14845 z"
       style="fill:#231f20;fill-opacity:1;fill-rule:nonzero;stroke:none;stroke-width:0.88916737"
       id="path4517"
       inkscape:connector-curvature="0" />
    <path
       d="m 101.41281,247.86611 c 0.83581,0 1.50892,0.21525 2.0193,0.65797 0.55039,0.45795 0.82159,1.06435 0.82159,1.82815 0,0.47125 -0.13694,0.90339 -0.4028,1.29996 -0.50415,0.7389 -1.31596,1.11146 -2.42831,1.11146 -0.82959,0 -1.499138,-0.21954 -2.008632,-0.64731 -0.551283,-0.46506 -0.822479,-1.06879 -0.822479,-1.80502 0,-0.48461 0.13603,-0.9363 0.398346,-1.32929 0.282757,-0.41971 0.678436,-0.72023 1.185265,-0.90163 0.35389,-0.1414 0.7629,-0.20794 1.23772,-0.21424 m 0,0.48814 c -0.68377,0 -1.2315,0.20366 -1.644073,0.62687 -0.364559,0.369 -0.548616,0.81091 -0.548616,1.3302 0,0.53616 0.184045,0.97364 0.548616,1.34087 0.412573,0.41346 0.963853,0.63398 1.653853,0.63398 0.68999,0 1.24128,-0.22054 1.65385,-0.63398 0.36456,-0.36723 0.54773,-0.79493 0.54773,-1.30976 0,-0.5504 -0.18317,-0.99854 -0.54773,-1.36131 -0.41524,-0.41613 -0.97008,-0.62064 -1.66363,-0.62687"
       style="fill:#231f20;fill-opacity:1;fill-rule:nonzero;stroke:none;stroke-width:0.88916737"
       id="path4519"
       inkscape:connector-curvature="0" />
    <path
       d="m 112.77814,247.29527 -0.59929,1.0919 -0.11738,-0.0686 c 0.0489,-0.12627 0.0702,-0.20365 0.0702,-0.23818 0,-0.0791 -0.10046,-0.16459 -0.30854,-0.26498 -0.56284,-0.26765 -1.15681,-0.3939 -1.78367,-0.3939 -0.5166,0 -0.9683,0.0996 -1.34798,0.28363 -0.18495,0.0978 -0.33254,0.216 -0.43747,0.37525 -0.10581,0.15299 -0.16184,0.3112 -0.16184,0.47659 0,0.13964 0.0418,0.26586 0.12716,0.39479 0.0845,0.12173 0.19294,0.21701 0.32722,0.27475 0.1547,0.0686 0.3281,0.12351 0.53438,0.1414 0.20719,0.0328 0.53706,0.056 1.00476,0.0623 0.64287,0.0176 1.09813,0.0542 1.37466,0.0872 0.27564,0.0489 0.5006,0.11745 0.68288,0.22129 0.47392,0.25518 0.71133,0.65976 0.71133,1.19947 0,0.52373 -0.21873,0.95052 -0.64642,1.27062 -0.47838,0.37525 -1.13191,0.55486 -1.9704,0.55486 -0.4846,0 -0.90339,-0.0489 -1.2644,-0.15123 -0.36011,-0.0872 -0.78958,-0.26941 -1.29373,-0.53794 -0.13603,-0.0605 -0.21873,-0.0996 -0.24452,-0.0996 -0.04,0 -0.10936,0.0605 -0.19828,0.15375 l -0.11471,-0.0738 0.63042,-1.03945 0.11914,0.0648 c -0.0534,0.10132 -0.0791,0.17694 -0.0791,0.22407 0,0.0907 0.17605,0.22583 0.5335,0.41792 0.32188,0.16812 0.62864,0.28275 0.93096,0.35476 0.29253,0.0738 0.61619,0.11745 0.96386,0.11745 0.70689,0 1.24483,-0.15375 1.61206,-0.46324 0.24363,-0.21424 0.36367,-0.4615 0.36367,-0.7389 0,-0.37167 -0.20807,-0.6313 -0.62776,-0.77003 -0.12804,-0.057 -0.27119,-0.0781 -0.41168,-0.0915 -0.14939,-0.0151 -0.55128,-0.0383 -1.22349,-0.0658 -0.48104,-0.0101 -0.85983,-0.0534 -1.13102,-0.10132 -0.2712,-0.0577 -0.51394,-0.13686 -0.72912,-0.26498 -0.19741,-0.11014 -0.35389,-0.26853 -0.46859,-0.4677 -0.11559,-0.19836 -0.17072,-0.42591 -0.17072,-0.66331 0,-0.40635 0.15116,-0.74601 0.44903,-1.043 0.22675,-0.21172 0.53528,-0.38056 0.92918,-0.49348 0.39301,-0.13157 0.82337,-0.18853 1.29196,-0.18853 0.3859,0 0.74246,0.0454 1.06434,0.12174 0.32988,0.0756 0.70333,0.20088 1.11146,0.39213 0.0951,0.031 0.1547,0.0552 0.17426,0.0552 0.0525,0 0.11915,-0.0517 0.20628,-0.17164 z"
       style="fill:#231f20;fill-opacity:1;fill-rule:nonzero;stroke:none;stroke-width:0.88916737"
       id="path4521"
       inkscape:connector-curvature="0" />
    <path
       d="m 114.46934,248.44406 v 2.4132 c 0,0.37079 0.0222,0.63042 0.0569,0.76824 0.0365,0.13686 0.11559,0.26321 0.2392,0.34588 0.24985,0.20895 0.68377,0.31479 1.28662,0.31479 0.6731,0 1.13191,-0.13157 1.36932,-0.38057 0.088,-0.0933 0.14049,-0.19912 0.1725,-0.33255 0.0276,-0.14316 0.0409,-0.38233 0.0409,-0.71579 v -2.4132 c 0,-0.12099 -0.0186,-0.20366 -0.0534,-0.24625 -0.0356,-0.0426 -0.10581,-0.089 -0.21608,-0.11746 v -0.10762 h 1.03321 v 0.10762 c -0.10313,0.0285 -0.17162,0.0738 -0.20806,0.11468 -0.04,0.0444 -0.0569,0.12451 -0.0569,0.24903 v 2.53058 c 0,0.43748 -0.0356,0.73711 -0.1067,0.91584 -0.1236,0.29966 -0.35299,0.51927 -0.67487,0.65799 -0.32811,0.13863 -0.7798,0.21525 -1.34798,0.21525 -0.82604,0 -1.39688,-0.15728 -1.72854,-0.45971 -0.16005,-0.1414 -0.26408,-0.30677 -0.32188,-0.4926 -0.0498,-0.16988 -0.0818,-0.46059 -0.0818,-0.8367 v -2.53058 c 0,-0.12451 -0.0134,-0.20441 -0.0489,-0.24902 -0.0382,-0.0408 -0.11292,-0.0862 -0.21608,-0.11468 v -0.10763 h 1.13102 v 0.10763 c -0.1067,0.0285 -0.17606,0.0746 -0.21162,0.11745 -0.0347,0.0426 -0.0569,0.12527 -0.0569,0.24625"
       style="fill:#231f20;fill-opacity:1;fill-rule:nonzero;stroke:none;stroke-width:0.88916737"
       id="path4523"
       inkscape:connector-curvature="0" />
    <path
       d="m 120.18135,250.54517 v 1.67698 c 0,0.0854 0.0232,0.14593 0.0605,0.20088 0.0365,0.0373 0.0996,0.0809 0.1974,0.10233 v 0.1414 h -1.12035 v -0.1414 c 0.10138,-0.0202 0.1725,-0.065 0.21162,-0.10233 0.0391,-0.0542 0.0542,-0.11468 0.0542,-0.20013 v -3.84211 c 0,-0.0819 -0.0161,-0.1414 -0.0569,-0.18752 -0.04,-0.0348 -0.1076,-0.0711 -0.20895,-0.10233 v -0.11821 h 2.59726 c 0.34411,0 0.60196,0.0202 0.78336,0.0401 0.17426,0.0373 0.33254,0.0915 0.47926,0.1787 0.17071,0.10486 0.30143,0.24802 0.40279,0.44283 0.0934,0.18324 0.14404,0.39833 0.14404,0.63485 0,0.23038 -0.0498,0.43393 -0.14137,0.62599 -0.0996,0.17593 -0.23473,0.32809 -0.4108,0.42679 -0.14225,0.0907 -0.3032,0.14669 -0.48281,0.184 -0.17427,0.0338 -0.43481,0.0391 -0.77536,0.0391 z m 0,-0.45081 h 1.65386 c 0.29431,0 0.51927,-0.0126 0.65798,-0.031 0.14228,-0.0252 0.26141,-0.0774 0.36545,-0.14215 0.19473,-0.12275 0.29253,-0.34145 0.29253,-0.65621 0,-0.31299 -0.0978,-0.5415 -0.29253,-0.66777 -0.10405,-0.063 -0.22319,-0.11746 -0.36279,-0.13082 -0.1387,-0.0292 -0.36278,-0.0426 -0.66064,-0.0426 h -1.65386 z"
       style="fill:#231f20;fill-opacity:1;fill-rule:nonzero;stroke:none;stroke-width:0.88916737"
       id="path4525"
       inkscape:connector-curvature="0" />
    <path
       d="m 125.33319,250.4616 v 1.74631 h 2.89691 c 0.12005,0 0.20005,-0.0126 0.24806,-0.056 0.0507,-0.0267 0.0871,-0.10309 0.11027,-0.20895 h 0.11914 v 0.98077 h -0.11914 c -0.0232,-0.0953 -0.0578,-0.16459 -0.1076,-0.20819 -0.0498,-0.031 -0.13071,-0.0489 -0.24897,-0.0489 h -3.76918 v -0.11821 c 0.11471,-0.0227 0.18495,-0.064 0.21784,-0.10661 0.0347,-0.0587 0.0551,-0.1414 0.0551,-0.24625 v -3.7514 c 0,-0.12451 -0.0214,-0.20441 -0.0569,-0.24903 -0.0356,-0.0408 -0.10492,-0.0862 -0.21608,-0.11468 v -0.10762 h 3.73984 c 0.11738,0 0.20005,-0.0227 0.24897,-0.0517 0.0489,-0.0408 0.0871,-0.10939 0.11204,-0.22054 h 0.10936 v 0.99586 h -0.10936 c -0.025,-0.11216 -0.0631,-0.18223 -0.11204,-0.21953 -0.0489,-0.032 -0.13159,-0.0534 -0.24897,-0.0534 h -2.86934 v 1.58538 h 1.82635 c 0.11914,0 0.19828,-0.0227 0.24718,-0.0489 0.0489,-0.0436 0.0871,-0.11292 0.11204,-0.21248 h 0.11737 v 0.98432 h -0.11737 c -0.025,-0.11115 -0.0631,-0.18147 -0.11471,-0.20895 -0.0462,-0.0426 -0.12625,-0.0612 -0.24451,-0.0612 z"
       style="fill:#231f20;fill-opacity:1;fill-rule:nonzero;stroke:none;stroke-width:0.88916737"
       id="path4527"
       inkscape:connector-curvature="0" />
    <path
       d="m 130.44501,250.54071 v 1.65386 c 0,0.10586 0.0134,0.18853 0.0489,0.24726 0.0392,0.0426 0.11292,0.0837 0.21608,0.10662 v 0.11821 h -1.1301 v -0.11821 c 0.10848,-0.0227 0.17872,-0.064 0.2125,-0.10662 0.0347,-0.0587 0.0551,-0.1414 0.0551,-0.24625 v -3.7514 c 0,-0.12451 -0.0222,-0.20441 -0.0578,-0.24902 -0.0355,-0.0408 -0.10493,-0.0862 -0.20983,-0.11468 v -0.10763 h 2.77864 c 0.31743,0 0.57618,0.0267 0.77536,0.0648 0.20005,0.0426 0.37523,0.12174 0.52283,0.22407 0.32455,0.22684 0.48637,0.5664 0.48637,1.0092 0,0.35924 -0.11738,0.63664 -0.34321,0.8554 -0.22319,0.20189 -0.55841,0.33519 -0.99676,0.37076 l 1.17992,1.86903 c 0.0418,0.0693 0.0827,0.10586 0.12093,0.13333 0.0409,0.0257 0.1138,0.0328 0.21341,0.0489 v 0.11821 h -1.16216 v -0.11821 c 0.11471,-0.0227 0.16451,-0.0534 0.16451,-0.10233 0,-0.032 -0.0312,-0.097 -0.0925,-0.20189 l -1.07945,-1.70364 z m 0,-0.46147 h 1.78278 c 0.28898,0 0.5006,-0.0126 0.64732,-0.0227 0.14225,-0.0252 0.26497,-0.0703 0.36189,-0.12173 0.22495,-0.11569 0.33344,-0.34143 0.33344,-0.64285 0,-0.289 -0.10138,-0.50684 -0.30854,-0.65711 -0.18939,-0.14493 -0.51128,-0.21072 -0.97009,-0.21072 h -1.8468 z"
       style="fill:#231f20;fill-opacity:1;fill-rule:nonzero;stroke:none;stroke-width:0.88916737"
       id="path4529"
       inkscape:connector-curvature="0" />
    <path
       d="m 135.33543,252.19545 v -3.75139 c 0,-0.12452 -0.0179,-0.20441 -0.0534,-0.24903 -0.0355,-0.0408 -0.10581,-0.0862 -0.21608,-0.11468 v -0.10762 h 1.13636 v 0.10762 c -0.11204,0.0285 -0.1814,0.0738 -0.21608,0.11468 -0.0365,0.0444 -0.056,0.12451 -0.056,0.24903 v 3.75139 c 0,0.10486 0.0197,0.18753 0.056,0.24626 0.0347,0.0426 0.10404,0.0837 0.21608,0.10661 v 0.11821 h -1.13636 v -0.11821 c 0.11027,-0.0227 0.18052,-0.064 0.21608,-0.10661 0.0355,-0.0587 0.0534,-0.1414 0.0534,-0.24626"
       style="fill:#231f20;fill-opacity:1;fill-rule:nonzero;stroke:none;stroke-width:0.88916737"
       id="path4531"
       inkscape:connector-curvature="0" />
    <path
       d="m 139.91642,247.86611 c 0.83582,0 1.50892,0.21525 2.01931,0.65797 0.54327,0.45795 0.8198,1.06435 0.8198,1.82815 0,0.47125 -0.13514,0.90339 -0.40101,1.29996 -0.51038,0.7389 -1.31597,1.11146 -2.42832,1.11146 -0.82959,0 -1.49913,-0.21954 -2.01218,-0.64731 -0.54773,-0.46506 -0.81892,-1.06879 -0.81892,-1.80502 0,-0.48461 0.13603,-0.9363 0.39834,-1.32929 0.28275,-0.41971 0.67844,-0.72023 1.18527,-0.90163 0.34766,-0.1414 0.7629,-0.20794 1.23771,-0.21424 m 0,0.48814 c -0.68377,0 -1.23149,0.20366 -1.64496,0.62687 -0.36366,0.369 -0.5495,0.81091 -0.5495,1.3302 0,0.53616 0.18583,0.97364 0.5495,1.34087 0.41347,0.41346 0.96475,0.63398 1.65474,0.63398 0.68644,0 1.24128,-0.22054 1.65385,-0.63398 0.36456,-0.36723 0.5424,-0.79493 0.5424,-1.30976 0,-0.5504 -0.17785,-0.99854 -0.5424,-1.36131 -0.41613,-0.41613 -0.97007,-0.62064 -1.66363,-0.62687"
       style="fill:#231f20;fill-opacity:1;fill-rule:nonzero;stroke:none;stroke-width:0.88916737"
       id="path4533"
       inkscape:connector-curvature="0" />
    <path
       d="m 144.50542,250.54071 v 1.65386 c 0,0.10586 0.0214,0.18853 0.0569,0.24726 0.0355,0.0426 0.10493,0.0837 0.21608,0.10662 v 0.11821 h -1.13635 v -0.11821 c 0.1076,-0.0227 0.18495,-0.064 0.21873,-0.10662 0.0347,-0.0587 0.0471,-0.1414 0.0471,-0.24625 v -3.7514 c 0,-0.12451 -0.0141,-0.20441 -0.0498,-0.24902 -0.0355,-0.0408 -0.10936,-0.0862 -0.21608,-0.11468 v -0.10763 h 2.78487 c 0.31477,0 0.57529,0.0267 0.77357,0.0648 0.20006,0.0426 0.37079,0.12174 0.5175,0.22407 0.32366,0.22684 0.48638,0.5664 0.48638,1.0092 0,0.35924 -0.11204,0.63664 -0.33611,0.8554 -0.23029,0.20189 -0.5584,0.33519 -0.99676,0.37076 l 1.17193,1.86903 c 0.0418,0.0693 0.0836,0.10586 0.12448,0.13333 0.04,0.0257 0.11025,0.0328 0.21785,0.0489 v 0.11821 h -1.16215 v -0.11821 c 0.10669,-0.0227 0.16451,-0.0534 0.16451,-0.10233 0,-0.032 -0.0311,-0.097 -0.0996,-0.20189 l -1.07942,-1.70364 z m 0,-0.46147 h 1.78367 c 0.28809,0 0.50771,-0.0126 0.6482,-0.0227 0.14493,-0.0252 0.26408,-0.0703 0.36812,-0.12173 0.21696,-0.11569 0.33254,-0.34143 0.33254,-0.64285 0,-0.289 -0.10757,-0.50684 -0.31565,-0.65711 -0.18762,-0.14493 -0.51128,-0.21072 -0.96208,-0.21072 h -1.8548 z"
       style="fill:#231f20;fill-opacity:1;fill-rule:nonzero;stroke:none;stroke-width:0.88916737"
       id="path4535"
       inkscape:connector-curvature="0" />
    <path
       d="m 151.52895,252.19545 v -3.75139 c 0,-0.12099 -0.0134,-0.20366 -0.0472,-0.24625 -0.0338,-0.0426 -0.11203,-0.089 -0.21784,-0.11746 v -0.10762 h 2.36874 c 0.63308,0 1.10879,0.0738 1.42089,0.21953 0.38323,0.19282 0.68199,0.5015 0.90339,0.92474 0.18763,0.38591 0.28631,0.78424 0.28631,1.19415 0,0.49794 -0.12716,0.94697 -0.38145,1.36489 -0.21341,0.36811 -0.48815,0.61086 -0.82603,0.76824 -0.33256,0.14845 -0.80204,0.2223 -1.40311,0.2223 h -2.36874 v -0.11821 c 0.10581,-0.0227 0.18407,-0.064 0.21784,-0.10661 0.0338,-0.0587 0.0472,-0.1414 0.0472,-0.24625 m 0.59752,0.0126 h 1.47157 c 0.55662,0 0.96564,-0.0791 1.22261,-0.23214 0.28187,-0.16459 0.49704,-0.41436 0.63486,-0.77714 0.10669,-0.26051 0.15826,-0.56461 0.15826,-0.88738 0,-0.56373 -0.14938,-1.03055 -0.43835,-1.36398 -0.16272,-0.19282 -0.36367,-0.32101 -0.60286,-0.39924 -0.23919,-0.0774 -0.56373,-0.12451 -0.97452,-0.12451 h -1.47158 z"
       style="fill:#231f20;fill-opacity:1;fill-rule:nonzero;stroke:none;stroke-width:0.88916737"
       id="path4537"
       inkscape:connector-curvature="0" />
    <path
       d="m 157.99497,250.4616 v 1.74631 h 2.89958 c 0.11746,0 0.19836,-0.0126 0.24902,-0.056 0.0514,-0.0267 0.0872,-0.10309 0.1104,-0.20895 h 0.11645 v 0.98077 h -0.11645 c -0.0227,-0.0953 -0.0587,-0.16459 -0.10762,-0.20819 -0.0479,-0.031 -0.13157,-0.0489 -0.24903,-0.0489 h -3.76828 v -0.11821 c 0.11392,-0.0227 0.18399,-0.064 0.21777,-0.10661 0.0338,-0.0587 0.0542,-0.1414 0.0542,-0.24625 v -3.7514 c 0,-0.12451 -0.0202,-0.20441 -0.057,-0.24903 -0.0348,-0.0408 -0.10409,-0.0862 -0.21524,-0.11468 v -0.10762 h 3.73983 c 0.11745,0 0.20012,-0.0227 0.24902,-0.0517 0.0489,-0.0408 0.0862,-0.10939 0.11216,-0.22054 h 0.10939 v 0.99586 h -0.10939 c -0.0257,-0.11216 -0.0633,-0.18223 -0.11216,-0.21953 -0.0489,-0.032 -0.13258,-0.0534 -0.24902,-0.0534 h -2.8738 v 1.58538 h 1.82903 c 0.11746,0 0.20013,-0.0227 0.24903,-0.0489 0.0489,-0.0436 0.0862,-0.11292 0.11191,-0.21248 h 0.1119 v 0.98432 h -0.1119 c -0.0257,-0.11115 -0.064,-0.18147 -0.11469,-0.20895 -0.0489,-0.0426 -0.12904,-0.0612 -0.24625,-0.0612 z"
       style="fill:#231f20;fill-opacity:1;fill-rule:nonzero;stroke:none;stroke-width:0.88916737"
       id="path4539"
       inkscape:connector-curvature="0" />
    <path
       d="m 164.78289,252.16879 v -4.72325 c 0,-0.12274 -0.0202,-0.20617 -0.057,-0.24977 -0.0355,-0.0587 -0.10485,-0.0872 -0.216,-0.11645 v -0.12905 h 1.19503 v 0.12905 c -0.10308,0.0328 -0.17341,0.0623 -0.20794,0.11922 -0.0401,0.0418 -0.057,0.12451 -0.057,0.24726 v 4.72324 c 0,0.11821 0.0176,0.19735 0.0542,0.24902 0.0338,0.0408 0.1041,0.0862 0.21071,0.10763 v 0.1414 h -1.19503 v -0.1414 c 0.11393,-0.0202 0.185,-0.0668 0.21878,-0.10763 0.0338,-0.0517 0.0542,-0.13081 0.0542,-0.24902"
       style="fill:#231f20;fill-opacity:1;fill-rule:nonzero;stroke:none;stroke-width:0.88916737"
       id="path4541"
       inkscape:connector-curvature="0" />
    <path
       d="m 167.60509,248.70815 v 3.4873 c 0,0.10486 0.0202,0.18753 0.0542,0.24626 0.0348,0.0426 0.10409,0.0837 0.21878,0.10661 v 0.11821 h -1.03317 v -0.11821 c 0.10586,-0.0227 0.17593,-0.064 0.2097,-0.10661 0.0338,-0.0587 0.0552,-0.1414 0.0552,-0.24626 v -3.75139 c 0,-0.12452 -0.0202,-0.20441 -0.0577,-0.24903 -0.0355,-0.0408 -0.1041,-0.0862 -0.20718,-0.11468 v -0.10762 h 1.51868 v 0.10762 c -0.14215,0.0517 -0.21348,0.1235 -0.21348,0.22483 0,0.0844 0.0479,0.17416 0.15904,0.29787 l 2.76443,3.10321 v -3.26236 c 0,-0.12451 -0.0202,-0.20441 -0.0577,-0.24902 -0.0355,-0.0408 -0.10409,-0.0862 -0.20718,-0.11468 v -0.10762 h 1.03319 v 0.10762 c -0.11115,0.0285 -0.17971,0.0739 -0.21524,0.11468 -0.0355,0.0444 -0.057,0.12451 -0.057,0.24902 v 3.7514 c 0,0.10486 0.0202,0.18753 0.0542,0.24625 0.0338,0.0426 0.1041,0.0837 0.21777,0.10662 v 0.11821 h -1.22704 v -0.11821 c 0.14316,-0.0275 0.21525,-0.096 0.21525,-0.17517 0,-0.0542 -0.0648,-0.16358 -0.20088,-0.313 z"
       style="fill:#231f20;fill-opacity:1;fill-rule:nonzero;stroke:none;stroke-width:0.88916737"
       id="path4543"
       inkscape:connector-curvature="0" />
    <path
       d="m 175.10257,251.99097 1.50802,-3.43397 c 0.0373,-0.0872 0.0595,-0.16711 0.0595,-0.23819 0,-0.13509 -0.0827,-0.21348 -0.24903,-0.23818 V 247.973 h 1.16746 v 0.10763 c -0.11997,0.0355 -0.20895,0.0809 -0.26407,0.15929 -0.0514,0.0658 -0.13333,0.22306 -0.24096,0.47393 l -1.43064,3.25612 c -0.0728,0.1593 -0.10485,0.27121 -0.10485,0.34944 0,0.12703 0.0774,0.20618 0.23289,0.22936 v 0.11822 h -1.44313 v -0.11822 c 0.15552,-0.0252 0.2329,-0.10409 0.2329,-0.2339 0,-0.0746 -0.0328,-0.18575 -0.1041,-0.345 l -1.4707,-3.25612 c -0.11644,-0.25699 -0.19836,-0.41704 -0.25431,-0.47839 -0.0552,-0.0756 -0.1414,-0.11922 -0.25875,-0.15476 v -0.10762 h 1.2964 v 0.10762 c -0.16534,0.0285 -0.24902,0.10309 -0.24902,0.23567 0,0.0675 0.0227,0.15022 0.0633,0.24096 z"
       style="fill:#231f20;fill-opacity:1;fill-rule:nonzero;stroke:none;stroke-width:0.88916737"
       id="path4545"
       inkscape:connector-curvature="0" />
    <path
       d="m 179.10027,250.4616 v 1.74631 h 2.90222 c 0.11569,0 0.20013,-0.0126 0.24449,-0.056 0.0499,-0.0267 0.0872,-0.10309 0.11569,-0.20895 h 0.11569 v 0.98077 h -0.11569 c -0.0285,-0.0953 -0.0648,-0.16459 -0.11292,-0.20819 -0.0461,-0.031 -0.12627,-0.0489 -0.24196,-0.0489 h -3.77184 v -0.11821 c 0.10938,-0.0227 0.17971,-0.064 0.21247,-0.10661 0.0338,-0.0587 0.0552,-0.1414 0.0552,-0.24625 v -3.7514 c 0,-0.12451 -0.0227,-0.20441 -0.057,-0.24903 -0.0366,-0.0408 -0.10485,-0.0862 -0.21071,-0.11468 v -0.10762 h 3.73539 c 0.11745,0 0.20013,-0.0227 0.24902,-0.0517 0.0471,-0.0408 0.0855,-0.10939 0.11216,-0.22054 h 0.10939 v 0.99586 h -0.10939 c -0.0267,-0.11216 -0.0648,-0.18223 -0.11216,-0.21953 -0.0489,-0.032 -0.13157,-0.0534 -0.24978,-0.0534 h -2.87024 v 1.58538 h 1.83259 c 0.11745,0 0.20088,-0.0227 0.24272,-0.0489 0.0489,-0.0436 0.0854,-0.11292 0.11821,-0.21248 h 0.1104 v 0.98432 h -0.1104 c -0.0328,-0.11115 -0.0693,-0.18147 -0.12098,-0.20895 -0.0436,-0.0426 -0.12628,-0.0612 -0.2402,-0.0612 z"
       style="fill:#231f20;fill-opacity:1;fill-rule:nonzero;stroke:none;stroke-width:0.88916737"
       id="path4547"
       inkscape:connector-curvature="0" />
    <path
       d="m 187.80788,248.21467 -0.46415,0.90518 -0.095,-0.0444 c 0.0151,-0.0809 0.0176,-0.13258 0.0176,-0.16888 0,-0.065 -0.089,-0.14669 -0.26941,-0.24373 -0.38324,-0.20088 -0.8554,-0.30855 -1.40844,-0.30855 -0.44726,0 -0.81984,0.0827 -1.12749,0.24902 -0.30853,0.16887 -0.4677,0.4028 -0.4677,0.69799 0,0.1288 0.0355,0.25787 0.11569,0.36636 0.0791,0.10233 0.18576,0.17794 0.31655,0.23112 0.13081,0.0373 0.27564,0.0738 0.4277,0.0862 0.15198,0.005 0.4837,0.0252 0.9843,0.0489 0.42147,0.0151 0.74066,0.032 0.95762,0.0791 0.21777,0.032 0.40192,0.10662 0.55395,0.18929 0.16636,0.0837 0.29699,0.22861 0.39302,0.39746 0.0933,0.16988 0.14216,0.36811 0.14216,0.56816 0,0.44015 -0.17795,0.78069 -0.53528,1.03589 -0.4188,0.30231 -0.9852,0.45971 -1.68854,0.45971 -0.34944,0 -0.71309,-0.0542 -1.09366,-0.15929 -0.37968,-0.10133 -0.73267,-0.24449 -1.059,-0.43305 -0.0471,-0.0338 -0.0781,-0.0426 -0.10485,-0.0426 -0.0408,0 -0.10309,0.0507 -0.18677,0.15198 l -0.096,-0.0721 0.53172,-0.88295 0.10309,0.0542 c -0.0101,0.0338 -0.0151,0.0517 -0.0176,0.065 -0.0176,0.0479 -0.0252,0.0809 -0.0252,0.11367 0,0.0784 0.14594,0.184 0.43302,0.33346 0.48103,0.25696 0.97719,0.3939 1.49293,0.3939 0.47125,0 0.86159,-0.0819 1.17368,-0.24449 0.15375,-0.0791 0.27743,-0.18853 0.36368,-0.31654 0.0915,-0.14317 0.13434,-0.27922 0.13434,-0.42236 0,-0.1298 -0.0408,-0.25787 -0.11468,-0.36456 -0.0746,-0.10057 -0.17165,-0.17417 -0.29878,-0.22936 -0.11014,-0.031 -0.24196,-0.064 -0.37966,-0.0844 -0.14039,-0.005 -0.40902,-0.0227 -0.79846,-0.0391 -0.45794,-0.0227 -0.78959,-0.0444 -0.98966,-0.0675 -0.19559,-0.032 -0.38233,-0.0693 -0.55839,-0.13509 -0.22306,-0.0802 -0.40368,-0.21954 -0.53973,-0.39746 -0.13863,-0.185 -0.20441,-0.40191 -0.20441,-0.65976 0,-0.45081 0.20264,-0.80471 0.60642,-1.06611 0.41969,-0.25787 0.94873,-0.39301 1.58626,-0.39301 0.59219,0 1.17727,0.13509 1.77124,0.39301 0.0915,0.0436 0.13686,0.0595 0.15476,0.0595 0.0426,0 0.10132,-0.056 0.15828,-0.1593 z"
       style="fill:#231f20;fill-opacity:1;fill-rule:nonzero;stroke:none;stroke-width:0.88916737"
       id="path4549"
       inkscape:connector-curvature="0" />
    <path
       d="m 190.98841,248.45562 v 3.73983 c 0,0.10586 0.0126,0.18753 0.0499,0.24626 0.0373,0.0426 0.10838,0.0837 0.21348,0.10661 v 0.11821 h -1.12834 v -0.11821 c 0.10132,-0.0227 0.17341,-0.064 0.21424,-0.10661 0.0313,-0.0587 0.0489,-0.1404 0.0489,-0.24626 v -3.73983 h -1.53293 c -0.11392,0 -0.1966,0.0202 -0.24272,0.0481 -0.0524,0.0426 -0.0854,0.11291 -0.11468,0.21172 h -0.11393 v -0.98254 h 0.11393 c 0.0292,0.10838 0.0622,0.18047 0.11468,0.20794 0.0461,0.0426 0.12905,0.0605 0.24272,0.0605 h 3.6616 c 0.12274,0 0.20617,-0.0176 0.24801,-0.0605 0.0542,-0.0275 0.0862,-0.0996 0.11922,-0.20794 h 0.10485 v 0.98254 h -0.10485 c -0.0328,-0.0988 -0.0658,-0.16888 -0.12174,-0.21172 -0.0436,-0.0275 -0.12527,-0.0481 -0.24549,-0.0481 z"
       style="fill:#231f20;fill-opacity:1;fill-rule:nonzero;stroke:none;stroke-width:0.88916737"
       id="path4551"
       inkscape:connector-curvature="0" />
    <path
       d="m 193.83108,252.19545 v -3.75139 c 0,-0.12452 -0.0227,-0.20441 -0.0559,-0.24903 -0.0373,-0.0408 -0.10662,-0.0862 -0.21777,-0.11468 v -0.10762 h 1.13547 v 0.10762 c -0.10838,0.0285 -0.18047,0.0738 -0.20895,0.11468 -0.0418,0.0444 -0.0623,0.12451 -0.0623,0.24903 v 3.75139 c 0,0.10486 0.0202,0.18753 0.0623,0.24626 0.0285,0.0426 0.10057,0.0837 0.20895,0.10661 v 0.11821 h -1.13547 v -0.11821 c 0.11115,-0.0227 0.18046,-0.064 0.21777,-0.10661 0.0338,-0.0587 0.0559,-0.1414 0.0559,-0.24626"
       style="fill:#231f20;fill-opacity:1;fill-rule:nonzero;stroke:none;stroke-width:0.88916737"
       id="path4553"
       inkscape:connector-curvature="0" />
    <path
       d="m 200.74792,248.40761 -0.57618,0.93096 -0.0996,-0.0676 c 0.0328,-0.089 0.0507,-0.15828 0.0507,-0.19281 0,-0.0711 -0.14316,-0.19131 -0.39836,-0.34412 -0.43745,-0.24449 -0.89094,-0.35834 -1.37643,-0.35834 -0.5993,0 -1.08121,0.1724 -1.47957,0.5015 -0.4339,0.39035 -0.64731,0.8705 -0.64731,1.47158 0,0.56907 0.19206,1.03055 0.59219,1.38354 0.39301,0.369 0.92206,0.55395 1.56582,0.55395 0.31742,0 0.63397,-0.0587 0.92473,-0.15728 0.28897,-0.0854 0.53974,-0.22936 0.73979,-0.39745 v -0.8705 h -1.05187 c -0.12628,0 -0.20996,0.0227 -0.25253,0.0648 -0.0436,0.0285 -0.088,0.097 -0.11821,0.20819 h -0.10132 v -0.98964 h 0.10132 c 0.0302,0.10586 0.0738,0.17593 0.11745,0.21878 0.0426,0.0267 0.12628,0.0481 0.25079,0.0481 h 1.84857 v 0.11821 c -0.10586,0.0126 -0.17517,0.0587 -0.21878,0.10056 -0.0267,0.0595 -0.0479,0.14317 -0.0479,0.25155 v 0.48905 c 0,0.12173 0.0202,0.20264 0.0479,0.25154 0.0436,0.0426 0.11292,0.0872 0.21878,0.10939 v 0.0933 c -0.72111,0.62241 -1.5756,0.93896 -2.54036,0.93896 -0.75133,0 -1.37197,-0.20265 -1.85835,-0.61354 -0.26319,-0.21701 -0.46059,-0.48814 -0.60731,-0.79669 -0.15904,-0.33253 -0.23818,-0.66332 -0.23818,-1.02609 0,-0.51927 0.15904,-0.99143 0.47838,-1.4191 0.27829,-0.36902 0.65442,-0.65177 1.12479,-0.82783 0.35834,-0.1298 0.73089,-0.19281 1.13369,-0.19281 0.35299,0 0.66953,0.0348 0.94873,0.11997 0.28809,0.0855 0.62865,0.23289 1.0279,0.46059 0.0612,0.0252 0.11644,0.0444 0.1361,0.0444 0.0391,0 0.10233,-0.0517 0.20366,-0.16988 z"
       style="fill:#231f20;fill-opacity:1;fill-rule:nonzero;stroke:none;stroke-width:0.88916737"
       id="path4555"
       inkscape:connector-curvature="0" />
    <path
       d="m 204.92878,251.33476 h -2.45053 l -0.36189,0.79403 c -0.0383,0.096 -0.0648,0.16811 -0.0648,0.22482 0,0.0925 0.0721,0.16358 0.21525,0.19484 v 0.11821 h -1.15236 v -0.11821 c 0.11821,-0.0227 0.19912,-0.0605 0.26674,-0.12628 0.0587,-0.0668 0.13258,-0.20794 0.2213,-0.39125 l 1.54714,-3.3886 c 0.088,-0.17618 0.14039,-0.31479 0.14039,-0.38236 0,-0.10057 -0.0711,-0.15829 -0.21953,-0.17971 v -0.10762 h 1.3631 v 0.10762 c -0.13611,0.032 -0.20366,0.088 -0.20366,0.17971 0,0.0587 0.0514,0.21172 0.16887,0.45525 l 1.48759,3.25081 c 0.10409,0.21071 0.18929,0.35654 0.26407,0.43836 0.0703,0.0809 0.16459,0.1235 0.26674,0.14392 v 0.11821 h -1.21547 v -0.11821 c 0.12451,-0.0227 0.18752,-0.0756 0.18752,-0.13964 0,-0.0408 -0.0267,-0.12275 -0.10485,-0.2801 z m -0.20013,-0.4526 -1.01986,-2.29315 -1.03321,2.29315 z"
       style="fill:#231f20;fill-opacity:1;fill-rule:nonzero;stroke:none;stroke-width:0.88916737"
       id="path4557"
       inkscape:connector-curvature="0" />
    <path
       d="m 211.91319,248.31869 -0.51748,0.89807 -0.0996,-0.0587 c 0.0176,-0.0721 0.0202,-0.12527 0.0202,-0.17064 0,-0.0542 -0.0514,-0.11745 -0.16081,-0.19382 -0.45348,-0.29699 -0.97542,-0.43924 -1.58717,-0.43924 -0.58863,0 -1.08834,0.16458 -1.48846,0.49348 -0.44104,0.35922 -0.66155,0.83937 -0.66155,1.44045 0,0.64376 0.24549,1.1479 0.73179,1.52847 0.38856,0.31211 0.86337,0.46949 1.39955,0.46949 0.60375,0 1.13013,-0.18148 1.58893,-0.54596 0.17618,-0.1351 0.25787,-0.24197 0.25787,-0.3041 0,-0.0401 -0.0176,-0.10939 -0.0746,-0.20718 l 0.10057,-0.0595 0.65709,0.83049 -0.0897,0.0746 c -0.10132,-0.089 -0.16988,-0.12451 -0.20366,-0.12451 -0.0267,0 -0.0675,0.0176 -0.10485,0.0499 -0.34944,0.27476 -0.68378,0.46059 -1.03322,0.58863 -0.35032,0.11292 -0.73444,0.17518 -1.15679,0.17518 -0.7478,0 -1.35776,-0.20013 -1.84237,-0.60288 -0.24549,-0.19483 -0.44635,-0.43301 -0.58863,-0.71843 -0.1903,-0.34589 -0.26941,-0.73356 -0.26941,-1.13991 0,-0.76381 0.29787,-1.37999 0.89093,-1.84859 0.50506,-0.38589 1.13192,-0.58773 1.88683,-0.58773 0.67221,0 1.31418,0.16711 1.92148,0.50059 0.064,0.031 0.0968,0.0338 0.12981,0.0338 0.0542,0 0.11745,-0.0408 0.18853,-0.13863 z"
       style="fill:#231f20;fill-opacity:1;fill-rule:nonzero;stroke:none;stroke-width:0.88916737"
       id="path4559"
       inkscape:connector-curvature="0" />
    <path
       d="m 213.21671,252.19545 v -3.75139 c 0,-0.12452 -0.0227,-0.20441 -0.0658,-0.24903 -0.0275,-0.0408 -0.0968,-0.0862 -0.20794,-0.11468 v -0.10762 h 1.13636 v 0.10762 c -0.11116,0.0285 -0.18047,0.0738 -0.22407,0.11468 -0.0275,0.0444 -0.0489,0.12451 -0.0489,0.24903 v 3.75139 c 0,0.10486 0.0202,0.18753 0.0489,0.24626 0.0436,0.0426 0.11291,0.0837 0.22407,0.10661 v 0.11821 h -1.13636 v -0.11821 c 0.11115,-0.0227 0.18047,-0.064 0.20794,-0.10661 0.0436,-0.0587 0.0658,-0.1414 0.0658,-0.24626"
       style="fill:#231f20;fill-opacity:1;fill-rule:nonzero;stroke:none;stroke-width:0.88916737"
       id="path4561"
       inkscape:connector-curvature="0" />
    <path
       d="m 217.79326,247.86611 c 0.82782,0 1.50893,0.21525 2.01663,0.65797 0.55307,0.45795 0.81625,1.06435 0.81625,1.82815 0,0.47125 -0.12879,0.90339 -0.40279,1.29996 -0.49525,0.7389 -1.30795,1.11146 -2.41941,1.11146 -0.8376,0 -1.49915,-0.21954 -2.01842,-0.64731 -0.54238,-0.46506 -0.81981,-1.06879 -0.81981,-1.80502 0,-0.48461 0.14216,-0.9363 0.39925,-1.32929 0.28897,-0.41971 0.68375,-0.72023 1.1888,-0.90163 0.34944,-0.1414 0.76469,-0.20794 1.2395,-0.21424 m 0,0.48814 c -0.68199,0 -1.23861,0.20366 -1.64318,0.62687 -0.37257,0.369 -0.54951,0.81091 -0.54951,1.3302 0,0.53616 0.17694,0.97364 0.54951,1.34087 0.40457,0.41346 0.96119,0.63398 1.65386,0.63398 0.68199,0 1.23327,-0.22054 1.65296,-0.63398 0.35654,-0.36723 0.54238,-0.79493 0.54238,-1.30976 0,-0.5504 -0.18576,-0.99854 -0.54238,-1.36131 -0.42324,-0.41613 -0.9781,-0.62064 -1.66364,-0.62687"
       style="fill:#231f20;fill-opacity:1;fill-rule:nonzero;stroke:none;stroke-width:0.88916737"
       id="path4563"
       inkscape:connector-curvature="0" />
    <path
       d="m 222.28,248.70815 v 3.4873 c 0,0.10486 0.0202,0.18753 0.0633,0.24626 0.0252,0.0426 0.0953,0.0837 0.20995,0.10661 v 0.11821 h -1.03321 v -0.11821 c 0.11392,-0.0227 0.18399,-0.064 0.20995,-0.10661 0.0418,-0.0587 0.0623,-0.1414 0.0623,-0.24626 v -3.75139 c 0,-0.12452 -0.0202,-0.20441 -0.0648,-0.24903 -0.0275,-0.0408 -0.096,-0.0862 -0.20718,-0.11468 v -0.10762 h 1.5267 v 0.10762 c -0.14316,0.0517 -0.22054,0.1235 -0.22054,0.22483 0,0.0844 0.0552,0.17416 0.15904,0.29787 l 2.77154,3.10321 v -3.26236 c 0,-0.12451 -0.0202,-0.20441 -0.0658,-0.24902 -0.0267,-0.0408 -0.096,-0.0862 -0.20819,-0.11468 v -0.10762 h 1.0341 v 0.10762 c -0.11115,0.0285 -0.18046,0.0739 -0.20718,0.11468 -0.0444,0.0444 -0.0648,0.12451 -0.0648,0.24902 v 3.7514 c 0,0.10486 0.0202,0.18753 0.0633,0.24625 0.0252,0.0426 0.0943,0.0837 0.20895,0.10662 v 0.11821 h -1.23239 v -0.11821 c 0.15728,-0.0275 0.22861,-0.096 0.22861,-0.17517 0,-0.0542 -0.0693,-0.16358 -0.20996,-0.313 z"
       style="fill:#231f20;fill-opacity:1;fill-rule:nonzero;stroke:none;stroke-width:0.88916737"
       id="path4565"
       inkscape:connector-curvature="0" />
    <path
       d="m 228.38235,250.4616 v 1.74631 h 2.90759 c 0.10839,0 0.19206,-0.0126 0.25079,-0.056 0.0436,-0.0267 0.088,-0.10309 0.10233,-0.20895 h 0.12275 v 0.98077 h -0.12275 c -0.0151,-0.0953 -0.0577,-0.16459 -0.0996,-0.20819 -0.057,-0.031 -0.13963,-0.0489 -0.24801,-0.0489 h -3.77718 v -0.11821 c 0.11468,-0.0227 0.18399,-0.064 0.22684,-0.10661 0.0257,-0.0587 0.0461,-0.1414 0.0461,-0.24625 v -3.7514 c 0,-0.12451 -0.0227,-0.20441 -0.0499,-0.24903 -0.0426,-0.0408 -0.11191,-0.0862 -0.22306,-0.11468 v -0.10762 h 3.74071 c 0.12451,0 0.20718,-0.0227 0.24801,-0.0517 0.0499,-0.0408 0.0862,-0.10939 0.11998,-0.22054 h 0.10132 v 0.99586 h -0.10132 c -0.0338,-0.11216 -0.0703,-0.18223 -0.11998,-0.21953 -0.0408,-0.032 -0.1235,-0.0534 -0.24902,-0.0534 h -2.87556 v 1.58538 h 1.8308 c 0.12527,0 0.20819,-0.0227 0.24902,-0.0489 0.057,-0.0436 0.0872,-0.11292 0.11998,-0.21248 h 0.10132 v 0.98432 h -0.10132 c -0.0328,-0.11115 -0.064,-0.18147 -0.12275,-0.20895 -0.0426,-0.0426 -0.12527,-0.0612 -0.24625,-0.0612 z"
       style="fill:#231f20;fill-opacity:1;fill-rule:nonzero;stroke:none;stroke-width:0.88916737"
       id="path4567"
       inkscape:connector-curvature="0" />
    <path
       d="m 237.09976,248.21467 -0.46326,0.90518 -0.0988,-0.0444 c 0.0176,-0.0809 0.0176,-0.13258 0.0176,-0.16888 0,-0.065 -0.0862,-0.14669 -0.2712,-0.24373 -0.38324,-0.20088 -0.85094,-0.30855 -1.40222,-0.30855 -0.45348,0 -0.82603,0.0827 -1.13456,0.24902 -0.30765,0.16887 -0.46238,0.4028 -0.46238,0.69799 0,0.1288 0.0312,0.25787 0.10938,0.36636 0.0774,0.10233 0.18753,0.17794 0.31211,0.23112 0.14216,0.0373 0.28096,0.0738 0.4339,0.0862 0.15199,0.005 0.48462,0.0252 0.98609,0.0489 0.41968,0.0151 0.7389,0.032 0.95231,0.0791 0.22584,0.032 0.40013,0.10662 0.5575,0.18929 0.16106,0.0837 0.30143,0.22861 0.39567,0.39746 0.0854,0.16988 0.14316,0.36811 0.14316,0.56816 0,0.44015 -0.18223,0.78069 -0.53883,1.03589 -0.4188,0.30231 -0.98429,0.45971 -1.68587,0.45971 -0.35299,0 -0.70953,-0.0542 -1.09365,-0.15929 -0.38768,-0.10133 -0.73268,-0.24449 -1.06168,-0.43305 -0.0499,-0.0338 -0.0781,-0.0426 -0.10485,-0.0426 -0.0348,0 -0.10309,0.0507 -0.18047,0.15198 l -0.097,-0.0721 0.52637,-0.88295 0.1041,0.0542 c -0.0101,0.0338 -0.0151,0.0517 -0.0202,0.065 -0.0176,0.0479 -0.0252,0.0809 -0.0252,0.11367 0,0.0784 0.14593,0.184 0.43304,0.33346 0.48103,0.25696 0.98253,0.3939 1.49202,0.3939 0.47125,0 0.86248,-0.0819 1.17459,-0.24449 0.14846,-0.0791 0.27741,-0.18853 0.36812,-0.31654 0.089,-0.14317 0.1298,-0.27922 0.1298,-0.42236 0,-0.1298 -0.0408,-0.25787 -0.11821,-0.36456 -0.0764,-0.10057 -0.16358,-0.17417 -0.29522,-0.22936 -0.10485,-0.031 -0.24272,-0.064 -0.38057,-0.0844 -0.13686,-0.005 -0.40811,-0.0227 -0.79758,-0.0391 -0.45701,-0.0227 -0.78868,-0.0444 -0.98964,-0.0675 -0.19659,-0.032 -0.38855,-0.0693 -0.55306,-0.13509 -0.23466,-0.0802 -0.40278,-0.21954 -0.55128,-0.39746 -0.13258,-0.185 -0.19836,-0.40191 -0.19836,-0.65976 0,-0.45081 0.19659,-0.80471 0.60642,-1.06611 0.41969,-0.25787 0.94251,-0.39301 1.58626,-0.39301 0.59219,0 1.17371,0.13509 1.77124,0.39301 0.0925,0.0436 0.13787,0.0595 0.15375,0.0595 0.0426,0 0.10132,-0.056 0.15904,-0.1593 z"
       style="fill:#231f20;fill-opacity:1;fill-rule:nonzero;stroke:none;stroke-width:0.88916737"
       id="path4569"
       inkscape:connector-curvature="0" />
    <path
       d="m 246.23951,247.44554 -0.62241,1.03143 -0.10485,-0.0746 c 0.0151,-0.0837 0.0292,-0.1477 0.0292,-0.18853 0,-0.12174 -0.17341,-0.26231 -0.53263,-0.43925 -0.49436,-0.23995 -1.02699,-0.35301 -1.61295,-0.35301 -0.7789,0 -1.41288,0.21171 -1.90104,0.65176 -0.49437,0.4339 -0.73089,1.00744 -0.73089,1.70543 0,0.69354 0.24449,1.27685 0.76736,1.73477 0.50059,0.45525 1.10966,0.68108 1.84146,0.68108 0.71133,0 1.33819,-0.216 1.88236,-0.62152 0.24625,-0.18752 0.36278,-0.31743 0.36278,-0.39745 0,-0.0426 -0.0151,-0.10309 -0.0703,-0.19484 l 0.10486,-0.0799 0.74512,0.90874 -0.10233,0.0809 c -0.0791,-0.0781 -0.13963,-0.10409 -0.20012,-0.10409 -0.0202,0 -0.0854,0.0252 -0.15905,0.0907 -0.25078,0.18324 -0.46948,0.33077 -0.63929,0.42503 -0.16887,0.0996 -0.34591,0.18148 -0.55574,0.24625 -0.40723,0.13863 -0.87496,0.21525 -1.3631,0.21525 -0.96564,0 -1.74721,-0.26409 -2.35984,-0.79758 -0.63398,-0.56196 -0.95052,-1.27952 -0.95052,-2.15001 0,-0.698 0.20643,-1.28487 0.60196,-1.79345 0.61709,-0.78603 1.54092,-1.17993 2.78755,-1.17993 0.80736,0 1.59783,0.21348 2.37406,0.65532 0.0444,0.0267 0.0862,0.0348 0.0933,0.0348 0.0446,0 0.10762,-0.0479 0.20541,-0.16005 z"
       style="fill:#231f20;fill-opacity:1;fill-rule:nonzero;stroke:none;stroke-width:0.88916737"
       id="path4571"
       inkscape:connector-curvature="0" />
    <path
       d="m 247.61949,252.19545 v -3.75139 c 0,-0.12452 -0.0227,-0.20441 -0.0489,-0.24903 -0.0436,-0.0408 -0.11292,-0.0862 -0.22054,-0.11468 v -0.10762 h 1.13192 v 0.10762 c -0.0978,0.0285 -0.17871,0.0738 -0.20794,0.11468 -0.0426,0.0444 -0.0499,0.12451 -0.0499,0.24903 v 3.75139 c 0,0.10486 0.008,0.18753 0.0499,0.24626 0.0292,0.0426 0.11014,0.0837 0.20794,0.10661 v 0.11821 h -1.13192 v -0.11821 c 0.10762,-0.0227 0.17693,-0.064 0.22054,-0.10661 0.0267,-0.0587 0.0489,-0.1414 0.0489,-0.24626"
       style="fill:#231f20;fill-opacity:1;fill-rule:nonzero;stroke:none;stroke-width:0.88916737"
       id="path4573"
       inkscape:connector-curvature="0" />
    <path
       d="m 250.36613,250.4616 v 1.74631 h 2.89691 c 0.11997,0 0.20088,-0.0126 0.25154,-0.056 0.0418,-0.0267 0.0872,-0.10309 0.10838,-0.20895 h 0.11569 v 0.98077 h -0.11569 c -0.0202,-0.0953 -0.0658,-0.16459 -0.10586,-0.20819 -0.0534,-0.031 -0.13434,-0.0489 -0.24902,-0.0489 h -3.77272 v -0.11821 c 0.10939,-0.0227 0.17971,-0.064 0.2213,-0.10661 0.0257,-0.0587 0.0471,-0.1414 0.0471,-0.24625 v -3.7514 c 0,-0.12451 -0.0227,-0.20441 -0.0489,-0.24903 -0.0446,-0.0408 -0.11292,-0.0862 -0.21953,-0.11468 v -0.10762 h 3.73539 c 0.12451,0 0.20794,-0.0227 0.24902,-0.0517 0.057,-0.0408 0.0862,-0.10939 0.11998,-0.22054 h 0.10132 v 0.99586 h -0.10132 c -0.0338,-0.11216 -0.0633,-0.18223 -0.11998,-0.21953 -0.0408,-0.032 -0.12451,-0.0534 -0.24902,-0.0534 h -2.8649 v 1.58538 h 1.82813 c 0.11569,0 0.19912,-0.0227 0.24096,-0.0489 0.057,-0.0436 0.0862,-0.11292 0.11997,-0.21248 h 0.11468 v 0.98432 h -0.11468 c -0.0338,-0.11115 -0.064,-0.18147 -0.12275,-0.20895 -0.0426,-0.0426 -0.12451,-0.0612 -0.23818,-0.0612 z"
       style="fill:#231f20;fill-opacity:1;fill-rule:nonzero;stroke:none;stroke-width:0.88916737"
       id="path4575"
       inkscape:connector-curvature="0" />
    <path
       d="m 255.37036,248.70815 v 3.4873 c 0,0.10486 0.0202,0.18753 0.0633,0.24626 0.0257,0.0426 0.096,0.0837 0.21071,0.10661 v 0.11821 h -1.0341 v -0.11821 c 0.11468,-0.0227 0.18501,-0.064 0.20996,-0.10661 0.0426,-0.0587 0.0633,-0.1414 0.0633,-0.24626 v -3.75139 c 0,-0.12452 -0.0202,-0.20441 -0.0658,-0.24903 -0.0267,-0.0408 -0.096,-0.0862 -0.20719,-0.11468 v -0.10762 h 1.52761 v 0.10762 c -0.14316,0.0517 -0.21524,0.1235 -0.21524,0.22483 0,0.0844 0.0489,0.17416 0.15929,0.29787 l 2.76529,3.10321 v -3.26236 c 0,-0.12451 -0.0202,-0.20441 -0.0658,-0.24902 -0.0257,-0.0408 -0.096,-0.0862 -0.20642,-0.11468 v -0.10762 h 1.03321 v 0.10762 c -0.11115,0.0285 -0.18046,0.0739 -0.20718,0.11468 -0.0446,0.0444 -0.0633,0.12451 -0.0633,0.24902 v 3.7514 c 0,0.10486 0.0176,0.18753 0.0605,0.24625 0.0252,0.0426 0.0988,0.0837 0.20995,0.10662 v 0.11821 h -1.2226 v -0.11821 c 0.14669,-0.0275 0.21777,-0.096 0.21777,-0.17517 0,-0.0542 -0.064,-0.16358 -0.20895,-0.313 z"
       style="fill:#231f20;fill-opacity:1;fill-rule:nonzero;stroke:none;stroke-width:0.88916737"
       id="path4577"
       inkscape:connector-curvature="0" />
    <path
       d="m 262.77803,248.45562 v 3.73983 c 0,0.10586 0.0202,0.18753 0.0524,0.24626 0.0365,0.0426 0.10586,0.0837 0.22054,0.10661 v 0.11821 h -1.13547 v -0.11821 c 0.11115,-0.0227 0.18147,-0.064 0.20793,-0.10661 0.0436,-0.0587 0.0658,-0.1404 0.0658,-0.24626 v -3.73983 H 260.651 c -0.12451,0 -0.20189,0.0202 -0.24902,0.0481 -0.0408,0.0426 -0.0872,0.11291 -0.11191,0.21172 h -0.10939 v -0.98254 h 0.10939 c 0.0252,0.10838 0.0711,0.18047 0.11115,0.20794 0.0481,0.0426 0.12527,0.0605 0.24978,0.0605 h 3.66515 c 0.10838,0 0.19206,-0.0176 0.24902,-0.0605 0.0408,-0.0275 0.0862,-0.0996 0.1041,-0.20794 h 0.11821 v 0.98254 h -0.11821 c -0.0176,-0.0988 -0.064,-0.16888 -0.10662,-0.21172 -0.0587,-0.0275 -0.14039,-0.0481 -0.24625,-0.0481 z"
       style="fill:#231f20;fill-opacity:1;fill-rule:nonzero;stroke:none;stroke-width:0.88916737"
       id="path4579"
       inkscape:connector-curvature="0" />
    <path
       d="m 265.61712,252.19545 v -3.75139 c 0,-0.12452 -0.0101,-0.20441 -0.0489,-0.24903 -0.0391,-0.0408 -0.11291,-0.0862 -0.20718,-0.11468 v -0.10762 h 1.12035 v 0.10762 c -0.096,0.0285 -0.16635,0.0738 -0.20895,0.11468 -0.0312,0.0444 -0.0499,0.12451 -0.0499,0.24903 v 3.75139 c 0,0.10486 0.0176,0.18753 0.0499,0.24626 0.0426,0.0426 0.11292,0.0837 0.20895,0.10661 v 0.11821 h -1.12035 v -0.11821 c 0.0943,-0.0227 0.16812,-0.064 0.20718,-0.10661 0.0383,-0.0587 0.0489,-0.1414 0.0489,-0.24626 m 1.3231,-5.94673 v 0.10133 c -0.0988,0.0101 -0.16812,0.0559 -0.22231,0.11997 l -0.53973,0.73089 c -0.0151,0.0151 -0.0151,0.0444 -0.0151,0.0756 0,0.0338 0.0202,0.0595 0.0774,0.0595 h 0.0151 v 0.10939 h -0.72734 v -0.1094 c 0.0739,0 0.10838,-0.0101 0.13611,-0.0302 0.0202,-0.0176 0.0446,-0.0552 0.0837,-0.11998 l 0.31831,-0.69265 c 0.0101,-0.008 0.0151,-0.0275 0.0151,-0.0479 0,-0.0471 -0.0446,-0.0854 -0.11821,-0.095 v -0.10132 z"
       style="fill:#231f20;fill-opacity:1;fill-rule:nonzero;stroke:none;stroke-width:0.88916737"
       id="path4581"
       inkscape:connector-curvature="0" />
    <path
       d="m 268.36734,250.4616 v 1.73297 c 0,0.10586 0.0176,0.18853 0.0499,0.24726 0.0426,0.0426 0.11216,0.0837 0.20618,0.10662 v 0.11821 h -1.11859 v -0.11821 c 0.0943,-0.0227 0.16534,-0.064 0.20718,-0.10662 0.0391,-0.0587 0.0499,-0.1414 0.0499,-0.24625 v -3.7514 c 0,-0.12451 -0.0101,-0.20441 -0.0499,-0.24902 -0.0418,-0.0408 -0.11291,-0.0862 -0.20718,-0.11468 v -0.10763 h 3.81007 c 0.10486,0 0.18753,-0.0202 0.2455,-0.0517 0.0426,-0.0408 0.0781,-0.10939 0.10661,-0.22054 h 0.11822 v 0.99587 h -0.11822 c -0.0285,-0.11216 -0.064,-0.18223 -0.10661,-0.21954 -0.0587,-0.032 -0.14039,-0.0534 -0.24625,-0.0534 h -2.94669 v 1.58006 h 1.91793 c 0.10838,0 0.19206,-0.0176 0.24197,-0.0479 0.0479,-0.0426 0.0819,-0.11292 0.11115,-0.20995 h 0.11821 v 0.98074 h -0.11821 c -0.0292,-0.10586 -0.0633,-0.17971 -0.11115,-0.20794 -0.0499,-0.0426 -0.13334,-0.057 -0.24197,-0.057 z"
       style="fill:#231f20;fill-opacity:1;fill-rule:nonzero;stroke:none;stroke-width:0.88916737"
       id="path4583"
       inkscape:connector-curvature="0" />
    <path
       d="m 272.82651,252.19545 v -3.75139 c 0,-0.12452 -0.0227,-0.20441 -0.0648,-0.24903 -0.0285,-0.0408 -0.097,-0.0862 -0.20794,-0.11468 v -0.10762 h 1.13545 v 0.10762 c -0.11115,0.0285 -0.18046,0.0738 -0.22306,0.11468 -0.0285,0.0444 -0.0507,0.12451 -0.0507,0.24903 v 3.75139 c 0,0.10486 0.0227,0.18753 0.0507,0.24626 0.0426,0.0426 0.11191,0.0837 0.22306,0.10661 v 0.11821 h -1.13545 v -0.11821 c 0.11116,-0.0227 0.17971,-0.064 0.20794,-0.10661 0.0426,-0.0587 0.0648,-0.1414 0.0648,-0.24626"
       style="fill:#231f20;fill-opacity:1;fill-rule:nonzero;stroke:none;stroke-width:0.88916737"
       id="path4585"
       inkscape:connector-curvature="0" />
    <path
       d="m 279.71134,248.31869 -0.52996,0.89807 -0.0862,-0.0587 c 0.008,-0.0721 0.0176,-0.12527 0.0176,-0.17064 0,-0.0542 -0.0507,-0.11745 -0.16887,-0.19382 -0.4437,-0.29699 -0.96652,-0.43924 -1.58182,-0.43924 -0.5842,0 -1.08391,0.16458 -1.48315,0.49348 -0.44191,0.35922 -0.66687,0.83937 -0.66687,1.44045 0,0.64376 0.23743,1.1479 0.73535,1.52847 0.38679,0.31211 0.8527,0.46949 1.40043,0.46949 0.60375,0 1.12748,-0.18148 1.58896,-0.54596 0.16282,-0.1351 0.2525,-0.24197 0.2525,-0.3041 0,-0.0401 -0.0126,-0.10939 -0.0693,-0.20718 l 0.0996,-0.0595 0.658,0.83049 -0.0897,0.0746 c -0.10132,-0.089 -0.16988,-0.12451 -0.21172,-0.12451 -0.0177,0 -0.0595,0.0176 -0.097,0.0499 -0.34856,0.27476 -0.69711,0.46059 -1.03322,0.58863 -0.35034,0.11292 -0.73535,0.17518 -1.16836,0.17518 -0.73623,0 -1.35332,-0.20013 -1.8308,-0.60288 -0.24449,-0.19483 -0.44635,-0.43301 -0.58863,-0.71843 -0.18929,-0.34589 -0.28099,-0.73356 -0.28099,-1.13991 0,-0.76381 0.30944,-1.37999 0.90251,-1.84859 0.50505,-0.38589 1.13192,-0.58773 1.88237,-0.58773 0.67667,0 1.31863,0.16711 1.92594,0.50059 0.0517,0.031 0.097,0.0338 0.12905,0.0338 0.0552,0 0.11821,-0.0408 0.18929,-0.13863 z"
       style="fill:#231f20;fill-opacity:1;fill-rule:nonzero;stroke:none;stroke-width:0.88916737"
       id="path4587"
       inkscape:connector-curvature="0" />
    <path
       d="m 284.07357,251.33476 h -2.44965 l -0.36189,0.79403 c -0.0391,0.096 -0.0648,0.16811 -0.0648,0.22482 0,0.0925 0.0711,0.16358 0.21424,0.19484 v 0.11821 h -1.15236 v -0.11821 c 0.11039,-0.0227 0.19206,-0.0605 0.26674,-0.12628 0.0595,-0.0668 0.13333,-0.20794 0.2223,-0.39125 l 1.54626,-3.3886 c 0.088,-0.17618 0.13863,-0.31479 0.13863,-0.38236 0,-0.10057 -0.0774,-0.15829 -0.21777,-0.17971 v -0.10762 h 1.3631 v 0.10762 c -0.1351,0.032 -0.20365,0.088 -0.20365,0.17971 0,0.0587 0.0517,0.21172 0.16887,0.45525 l 1.48756,3.25081 c 0.10132,0.21071 0.18223,0.35654 0.25963,0.43836 0.0746,0.0809 0.15929,0.1235 0.27209,0.14392 v 0.11821 h -1.22438 v -0.11821 c 0.13334,-0.0227 0.19559,-0.0756 0.19559,-0.13964 0,-0.0408 -0.0373,-0.12275 -0.10409,-0.2801 z m -0.20189,-0.4526 -1.01809,-2.29315 -1.03231,2.29315 z"
       style="fill:#231f20;fill-opacity:1;fill-rule:nonzero;stroke:none;stroke-width:0.88916737"
       id="path4589"
       inkscape:connector-curvature="0" />
    <path
       d="m 290.50671,248.21467 -0.45792,0.90518 -0.1041,-0.0444 c 0.0176,-0.0809 0.0252,-0.13258 0.0252,-0.16888 0,-0.065 -0.0933,-0.14669 -0.27831,-0.24373 -0.38323,-0.20088 -0.85093,-0.30855 -1.40221,-0.30855 -0.45349,0 -0.82604,0.0827 -1.13457,0.24902 -0.30765,0.16887 -0.46238,0.4028 -0.46238,0.69799 0,0.1288 0.0312,0.25787 0.10939,0.36636 0.0781,0.10233 0.18752,0.17794 0.31743,0.23112 0.13686,0.0373 0.27564,0.0738 0.42858,0.0862 0.15198,0.005 0.4837,0.0252 0.99498,0.0489 0.41079,0.0151 0.73001,0.032 0.95675,0.0791 0.21348,0.032 0.39566,0.10662 0.55395,0.18929 0.15929,0.0837 0.29076,0.22861 0.38856,0.39746 0.088,0.16988 0.13963,0.36811 0.13963,0.56816 0,0.44015 -0.18047,0.78069 -0.52817,1.03589 -0.42946,0.30231 -0.99407,0.45971 -1.69565,0.45971 -0.35299,0 -0.70953,-0.0542 -1.08743,-0.15929 -0.39213,-0.10133 -0.7389,-0.24449 -1.0679,-0.43305 -0.0373,-0.0338 -0.0774,-0.0426 -0.10485,-0.0426 -0.0348,0 -0.0943,0.0507 -0.17795,0.15198 l -0.10056,-0.0721 0.52728,-0.88295 0.10485,0.0542 c -0.0101,0.0338 -0.0176,0.0517 -0.0202,0.065 -0.0176,0.0479 -0.0257,0.0809 -0.0257,0.11367 0,0.0784 0.15476,0.184 0.43302,0.33346 0.48103,0.25696 0.98341,0.3939 1.49292,0.3939 0.47038,0 0.8616,-0.0819 1.17369,-0.24449 0.15299,-0.0791 0.27743,-0.18853 0.36811,-0.31654 0.0925,-0.14317 0.12981,-0.27922 0.12981,-0.42236 0,-0.1298 -0.0303,-0.25787 -0.10838,-0.36456 -0.0774,-0.10057 -0.17341,-0.17417 -0.30498,-0.22936 -0.10485,-0.031 -0.24373,-0.064 -0.37968,-0.0844 -0.13787,-0.005 -0.40903,-0.0227 -0.79846,-0.0391 -0.45792,-0.0227 -0.78959,-0.0444 -0.97898,-0.0675 -0.20618,-0.032 -0.39569,-0.0693 -0.56285,-0.13509 -0.2276,-0.0802 -0.40456,-0.21954 -0.54505,-0.39746 -0.13964,-0.185 -0.20542,-0.40191 -0.20542,-0.65976 0,-0.45081 0.20542,-0.80471 0.6064,-1.06611 0.4188,-0.25787 0.94609,-0.39301 1.58629,-0.39301 0.59218,0 1.18704,0.13509 1.77121,0.39301 0.0915,0.0436 0.13787,0.0595 0.15375,0.0595 0.0534,0 0.10132,-0.056 0.15929,-0.1593 z"
       style="fill:#231f20;fill-opacity:1;fill-rule:nonzero;stroke:none;stroke-width:0.88916737"
       id="path4591"
       inkscape:connector-curvature="0" />
    <path
       d="m 97.773444,237.3517 c 0.224952,0 0.657095,-0.17694 0.657095,-0.17694 0.497045,-0.94429 -1.776556,-2.24246 -1.776556,-2.24246 0,0 -0.48104,0.23465 -0.664208,0.3112 -0.621529,0.2223 1.756995,2.10822 1.783669,2.10822 m -9.141529,-0.11216 c 0,0 -0.24363,1.38354 0.57618,2.16779 2.946702,1.58094 6.369106,1.68584 8.877447,0.19029 0.156496,-0.51039 0.414353,-1.24483 0.450809,-1.78724 -2.751975,1.2653 -7.456559,0.42326 -9.904436,-0.57084 m -22.486152,0.51839 c 0.04446,0.74689 0.194731,1.49469 0.815366,2.02553 2.577694,1.15324 5.951195,0.72554 8.387514,-0.26319 0.900727,-0.34679 0.728228,-0.95675 0.708667,-2.3483 -2.910244,1.33641 -6.874154,1.74898 -9.911547,0.58596 m 22.697773,-1.11413 c 0.05691,0.11998 0.519273,0.2801 0.882055,0.32278 0.361003,-0.0426 0.06135,-1.35776 0.112035,-1.63163 -0.04446,0.0101 -0.99409,0.18223 -0.99409,1.30885 m -14.025725,-1.45557 c 0,0 0,1.84592 -0.01966,1.84592 0.412574,-0.14669 1.102567,-0.30498 1.160364,-0.53172 0.07559,-0.30765 -0.665988,-1.10346 -1.140803,-1.3142 m -7.033316,-0.57527 c -0.597521,0.70777 -1.57916,1.22525 -1.673413,2.4283 -0.01966,0.31478 1.160363,0.32365 1.179924,0.31478 0.712224,-0.55753 1.379988,-0.80116 1.673414,-2.03531 -0.05958,-0.36723 -0.802028,-0.69356 -1.179925,-0.70777 m 7.282281,-0.23819 c 0.0098,0.32542 0.887389,0.86871 1.269732,1.57381 0.382341,0.70513 0.325434,1.34709 0.325434,1.3631 3.105862,1.45557 8.234579,1.86369 11.391124,0.26765 0.04,-1.36577 0.398345,-2.32874 1.463569,-2.78666 0.154706,-0.16535 -0.09782,-0.49792 -0.356557,-0.49792 -2.181125,0.86959 -4.251108,1.95526 -6.840364,1.90013 -2.816882,0.24272 -4.834404,-1.73744 -7.252938,-1.82011 m 21.247543,-1.84413 c -0.978972,0.14947 -0.825148,1.67874 -0.710443,2.25847 1.156804,-0.72557 2.717293,-1.07233 3.960351,-0.81003 0.0649,0.008 0.07647,-0.96829 0.07647,-1.42979 0,0 -1.828128,-0.55216 -3.326376,-0.0176 M 64.90794,232.42228 c -0.01411,0.51307 -0.06757,1.15859 0.02319,1.51425 1.395103,-0.15476 3.358386,0.0577 4.10084,0.69001 l -0.122697,-1.53739 c -0.777132,-1.29996 -2.663055,-0.86072 -4.001253,-0.66687 m 14.3974,-4.50008 v 0.66866 c 0.683769,1.86991 2.913799,1.28839 4.461839,1.76322 0.423246,0.15829 0.858048,0.72199 1.18793,1.02964 0.09248,-3.68914 -3.928343,-1.97217 -5.649769,-3.46152 m 0.503268,-0.79846 -0.22586,0.23919 0.22586,0.17694 z m -4.223547,-4.34003 c -0.206276,0.41613 0.358336,0.93628 0.522832,1.40756 0.669542,2.57857 -2.800877,3.00627 -4.143521,4.35069 -0.519274,0.55839 -0.826925,1.23861 -0.728229,2.00773 0.208948,0.52638 0.784246,0.9932 1.344422,1.04656 0.726451,-0.11645 1.508027,-0.27388 2.021967,-0.88918 0.156496,-0.31208 0,-0.77802 -0.305875,-0.87493 -0.61797,0.47125 -1.19415,0.98964 -2.02908,0.87493 -0.247183,-0.0373 -0.561063,-0.24625 -0.513937,-0.56105 0.886499,-1.66185 2.956481,-1.86727 4.243995,-3.26503 0.624196,-0.7878 0.881165,-1.72055 0.677546,-2.7511 -0.25697,-0.4588 -0.305874,-1.44221 -1.09012,-1.34618 m -3.207226,-0.56106 c -0.51305,0.56106 -0.829594,1.34263 -0.624195,2.16779 0.210737,0.30321 0.266749,0.89005 0.670431,0.93005 1.814792,-0.31831 0.06223,-1.70364 0.313877,-2.69507 0.05603,-0.35032 0.364559,-0.78334 0.77891,-0.86603 -0.467702,0.0499 -0.876719,0.15375 -1.139023,0.46326 m 19.218463,-0.61799 c -2.079762,0.46414 -4.199537,1.70099 -6.377106,0.92652 -0.153825,0.36456 0.05512,0.72734 0.317431,0.93008 2.277158,0.92918 4.492073,-0.36012 6.674978,-0.83584 0.258749,0.0623 0.410797,0.31567 0.410797,0.57442 -0.567288,1.04209 -1.807677,1.29817 -2.836444,1.65207 -0.06047,0.22231 0.143163,0.26674 0.242747,0.42858 0.835817,0.61442 1.608504,-0.36012 2.339399,-0.78248 0.666877,-0.61442 1.3462,-1.29817 1.135469,-2.18823 -0.364564,-0.70512 -1.191492,-0.66154 -1.907271,-0.70512 m -6.530933,-0.22584 c -0.208065,0.43035 0.312987,0.46326 0.566398,0.57885 1.0919,0.31743 2.597259,0.26498 3.422407,-0.42681 -1.088341,-0.71045 -2.896018,-0.8029 -3.988805,-0.15199 M 73.71878,219.10616 c 0.207183,0.16459 0.369892,0.41968 0.624196,0.31655 0.107599,-0.15199 0.312987,-0.20542 0.259636,-0.35922 -0.101373,-0.53084 -0.775353,-0.46238 -0.883832,0.0426 m 5.749356,-0.97008 c -0.162722,0.55216 -0.04623,1.23594 0.107599,1.75254 0.990532,2.1109 3.210783,2.48879 4.971334,3.31127 0.107599,-0.0988 0.107599,-0.25875 0.155614,-0.41613 -0.621526,-2.5857 -3.733612,-3.05073 -5.234527,-4.64768 m 10.819387,-0.15299 c -0.258747,0.0819 -0.717556,0.0401 -0.616193,0.46415 0.884722,0.30765 1.860138,0.50417 2.696845,0.92473 0.358336,0.15375 1.079451,0.46503 1.079451,-0.26586 -0.925624,-0.65887 -2.011298,-1.0412 -3.160103,-1.12302 m -17.90961,0.15298 c -0.206275,0.19736 -0.110245,0.61886 0,0.81538 -0.470371,0.93716 0.312988,1.66006 0.929181,2.1171 0.931847,0.22407 1.867251,0.22407 2.539461,-0.40636 -0.161839,-0.40456 -0.354777,-0.8687 -0.77891,-1.13635 -0.828704,1.04032 -1.760551,-0.2552 -2.487002,-0.57439 0.110245,-0.0418 0.157378,-0.26322 0.317433,-0.15199 0.248973,-0.11115 0.78069,-0.26674 0.720226,-0.66331 -0.415241,-0.41792 -0.824258,-0.41792 -1.240389,0 m 13.042307,-0.41792 c -0.311208,0.26498 -0.87316,0.41792 -0.717556,0.92653 0.615303,-0.15375 1.29107,-0.42415 1.654739,-0.92653 -0.264972,-0.11745 -0.663318,-0.0436 -0.937183,0 m 0.881166,-0.67397 c 1.095453,0.15551 1.754328,1.1399 1.967727,2.11976 0.261413,-0.15828 0.631308,-0.10056 0.836706,-0.40902 0.102256,-0.61885 -0.161839,-1.08032 -0.525498,-1.5018 -0.566399,-0.46414 -1.708978,-0.78069 -2.278935,-0.20894 m -6.257071,-0.46594 c -0.264972,0.15198 -0.367226,0.40459 -0.312988,0.714 0.112918,0.22508 0.25786,0.69089 0.462369,0.53795 0.101373,-0.47126 0.101373,-0.94697 -0.149389,-1.25195 m 12.844021,0 c -1.560488,0.714 -2.697732,-1.13812 -4.044822,-0.31299 1.243058,0.56375 2.430985,1.71788 3.986138,1.14258 0.365449,-0.20794 0.937183,-0.47037 0.884722,-1.04121 h -0.266749 z m -19.581242,-0.56907 c -0.666877,0.31032 -1.807679,0.72113 -1.807679,1.54805 0.365449,0.62686 0.878499,-0.0401 1.238612,-0.26498 0.827814,-0.77179 1.763218,-0.0925 2.640827,0.11569 0.112917,-0.36365 -0.204511,-0.73268 -0.409018,-1.04121 -0.417907,-0.46235 -1.043882,-0.35745 -1.662742,-0.35745 m 13.604262,-2.95115 c 0.118261,0.22583 0.118261,0.76559 0.55306,0.65888 0.65176,-0.53971 0.65176,-1.51335 0.549506,-2.28249 -0.549506,0.32544 -1.040325,1.03054 -1.102566,1.62361 m 3.722053,-2.70218 -0.112917,0.58065 c -0.05424,1.0003 0.96119,0.86427 1.325749,1.07589 v -1.07589 c -0.320997,-0.50417 -0.742464,-0.43126 -1.212832,-0.58065 m -3.291697,-2.47188 -0.0898,-0.68821 -0.22228,0.68821 z m 4.572988,-2.19712 -0.318324,0.47481 c 0.200958,0.0613 0.253414,0.0781 0.44903,-0.0101 z m 1.280401,-1.50893 c -0.364559,0.30588 -0.883832,0.91763 -0.90873,1.17638 0.02495,0.41434 0.343218,1.67786 0.13603,2.45855 0.369018,0.15375 0.844722,-0.0774 1.160376,-0.16459 0.379675,-1.12212 0.519274,-2.67816 -0.387676,-3.47042 m -20.152089,-0.14139 c 0.257857,0.56463 1.100789,0.62865 1.727651,0.78424 l -0.230295,-0.39834 c -0.431246,-0.61708 -0.842041,-0.7727 -1.497356,-0.3859 m 16.550961,0.063 c -0.309431,0.5015 -0.315654,1.1728 -0.01512,1.69832 0.475704,-0.37079 1.186148,-1.07234 1.491133,-1.49648 -0.255186,-0.46148 -1.013647,-0.83138 -1.476013,-0.20189 m 0.139609,-1.29374 c -5.39102,2.38651 0.559286,7.22804 -1.679636,11.24084 0.499711,0.0933 1.099899,-0.16181 1.371095,-0.60907 1.091897,-2.54301 0.130712,-5.34212 -0.462369,-7.78288 -0.216055,-0.85093 -0.132476,-1.37287 0.521053,-2.00597 0.662431,-0.5664 1.574717,-0.0746 1.889481,0.35211 0.158261,-0.11821 0.721116,-0.60551 0.721116,-0.82603 -0.600188,-0.44814 -1.538261,-0.52728 -2.36074,-0.369 M 71.4452,203.01647 c 0.462365,1.64229 2.0931,0.056 2.739524,0.57172 3.056957,2.60171 -0.942517,5.64443 0.198285,8.92102 0.260527,0.66778 0.684659,1.21726 1.355983,1.53472 0.733561,0.24196 1.740987,0.0176 2.35718,-0.38591 0.10581,-0.37079 -0.285421,-0.68378 -0.550393,-1.05812 -0.252524,0.21878 -0.513048,0.56017 -0.712223,0.76113 -0.263193,0.52905 -0.932737,0.42236 -1.042993,-0.10233 -0.411684,-3.23301 2.254928,-7.29473 -0.703331,-10.03514 -1.060777,-0.80557 -2.558135,-0.78869 -3.64203,-0.20719 m 14.159991,31.91665 c 0.02667,0.0252 0.659762,0 2.846223,-1.11589 2.284271,-1.17994 1.97573,3.3397 1.97573,3.3397 2.41498,1.0341 6.295306,0.70957 6.608293,0.46682 0.302316,-0.25787 -1.271508,-1.13192 -1.778336,-2.07889 -0.441914,-0.83846 -0.370782,-2.59992 0,-2.9947 1.371985,-1.45913 4.867297,-0.44371 4.867297,-0.44371 0.11292,0.33702 -0.0996,2.42921 -0.0996,2.42921 -0.220513,-0.11997 -2.608814,-0.25252 -2.828438,0.21424 0,0 1.147025,0.4206 1.622729,1.48136 0.695329,1.55783 -0.493489,3.88032 -0.493489,3.88032 -4.664571,2.62661 -9.466075,-0.24196 -9.655466,-0.39921 -0.234732,-0.22861 -0.577071,-1.46092 -0.577071,-1.46092 -5.639987,2.31183 -11.44803,-0.26942 -11.44803,-0.26942 0.05956,1.1008 -0.468589,1.741 -0.468589,1.741 -5.924525,2.80443 -9.817299,0.34054 -9.817299,0.34054 -2.234477,-3.57179 0.89895,-5.58842 0.89895,-5.58842 -0.45081,-0.20542 -2.864898,-0.10233 -2.864898,-0.10233 V 232.06 c 5.315442,-1.20839 5.047802,0.87494 5.101153,2.68973 0.05868,1.80589 -1.812123,2.84889 -1.812123,2.84889 4.106174,0.80648 6.543382,-0.39123 6.543382,-0.39123 0,0 -0.02757,-0.49436 0.03289,-2.57769 0.05336,-2.07977 4.38804,0.16005 4.38804,0.16005 0.935406,-0.64642 0.986978,-4.70726 0.986978,-4.70726 -2.185574,-2.40519 0.107599,-3.67226 0.107599,-3.67226 0.110246,-3.29348 -2.738637,-3.45708 -2.738637,-3.45708 0.607301,3.07117 -0.165393,3.45708 -0.60819,4.22888 -0.435692,0.76113 -4.332023,2.57413 -4.10084,3.06139 0.208947,0.50684 2.19002,-1.08567 2.19002,-1.08567 0.652649,0.64643 0.598409,1.81036 0.598409,1.81036 -0.770018,1.42621 -4.444058,1.64141 -4.224434,-0.93631 0.240957,-2.83021 2.359849,-2.41496 4.170195,-3.88475 1.809457,-1.48136 -0.491706,-3.1939 -0.491706,-3.1939 -0.434805,0.0613 -1.153251,0.50059 -1.153251,0.50059 0.05779,0.54153 0.76913,1.46891 0.76913,1.46891 -0.324549,0.38236 -2.031752,1.10167 -2.031752,1.10167 -0.274752,-0.10308 -0.71311,-0.93716 -0.71311,-0.93716 l -0.490822,0.55128 c 1.104346,4.11772 -2.686173,4.16574 -2.686173,4.16574 l 0.109363,-0.97185 c -0.657095,0.32542 -2.301165,0.16812 -2.301165,0.16812 -0.110271,-1.60673 1.371095,-2.85333 1.371095,-2.85333 -0.163604,-0.0668 -0.433915,-0.50861 -0.433915,-0.50861 1.636068,-1.47334 3.236569,-0.55127 3.236569,-0.55127 l 0.319211,-0.6402 c -0.935404,-1.75967 0.659764,-0.94254 0.659764,-0.94254 0.112035,-1.48312 1.150582,-1.90459 1.150582,-1.90459 -0.04802,-0.29165 -0.658872,-0.54952 -0.658872,-0.54952 -2.577697,2.12958 -3.943459,-1.21638 -3.943459,-1.21638 -0.546837,0.0542 -1.379988,-0.38233 -1.379988,-0.38233 0.170712,-0.33167 0.773577,-0.87138 0.773577,-0.87138 -0.221399,-0.12627 -0.602855,-1.4778 -0.602855,-1.4778 0.277418,-0.16711 1.641401,-0.21953 1.641401,-0.21953 0,-0.33432 0.440138,-0.94606 0.440138,-0.94606 0.335218,0.23289 1.159474,1.33285 1.159474,1.33285 0.323659,-0.0613 0.918511,0.20995 0.918511,0.20995 0,-0.2712 0.383231,-0.75846 0.383231,-0.75846 0.0649,-0.1724 -0.860715,-0.6651 -0.860715,-0.6651 l 0.215173,-0.28187 c 0.210737,0 1.255507,0.33611 1.255507,0.33611 2.800877,-1.74898 3.888328,0.16181 3.888328,0.16181 0.333439,2.47899 0.990532,1.80766 0.990532,1.80766 0.113824,-0.22306 -0.106692,-1.35863 -0.106692,-1.35863 h 0.77002 c 0.105809,0.64642 1.365759,2.02996 1.365759,2.02996 -0.05603,-2.64083 1.532925,-3.4135 1.532925,-3.4135 -0.160932,-4.11153 -3.562005,-5.3119 -3.562005,-5.3119 -0.222281,0.81981 -0.558396,3.07208 -0.275642,3.17968 0.275642,0.10762 1.162143,-1.25641 1.162143,-1.25641 1.033214,0.64554 1.247502,1.96063 1.247502,1.96063 -3.559336,2.20067 -4.707254,-1.20839 -4.707254,-1.20839 -0.227624,0.0633 -2.246035,0.39657 -2.246035,0.39657 -0.335216,-0.39657 0.377895,-2.29938 0.377895,-2.29938 -1.32397,-0.0595 -2.079762,1.15057 -2.079762,1.15057 0.553952,2.95382 -3.564672,3.55846 -3.564672,3.55846 0.162722,-0.22054 -0.500602,-0.83226 -0.500602,-0.83226 -0.429466,0.17164 -2.404308,0.33343 -2.404308,0.33343 -0.05779,-1.41822 1.262619,-2.35185 1.262619,-2.35185 -0.168947,-0.16081 -0.498825,-1.2555 -0.498825,-1.2555 2.857785,-1.43156 4.661016,-0.34677 4.661016,-0.34677 1.760551,-1.69121 5.156283,-2.29585 5.156283,-2.29585 0.04623,-0.3939 0.270306,-0.81358 0.270306,-0.81358 0.162722,-0.76114 -2.850672,-0.76114 -2.850672,-0.76114 0.111153,-0.23037 -0.380561,-1.43866 -0.380561,-1.43866 -0.219634,0 -0.659765,0.27831 -0.659765,0.27831 -1.090118,1.58094 -1.267062,0.21601 -1.267062,0.21601 -0.268529,-0.0497 -1.034101,0.55574 -1.034101,0.55574 -0.601077,1.47957 -3.338825,1.47957 -3.338825,1.47957 0.272086,-0.32988 0,-0.77092 0,-0.77092 -0.609967,-0.063 -2.033526,-1.20836 -2.033526,-1.20836 0.439251,-0.38057 1.975732,-1.16393 1.975732,-1.16393 -0.440138,-0.38233 -0.323657,-2.02019 -0.323657,-2.02019 0.264083,0.28809 1.917933,0.6153 1.917933,0.6153 1.523143,0.0479 1.972173,1.69653 1.972173,1.69653 0.546839,0.10485 2.356293,-0.9265 2.356293,-0.9265 -0.389453,-1.64673 -2.199799,-1.93305 -2.199799,-1.93305 -3.826976,1.77033 -4.43161,-1.63786 -4.43161,-1.63786 -0.280087,-0.12451 -1.16392,-0.50414 -1.16392,-0.50414 0.229414,-0.32189 1.26084,-0.80736 1.26084,-0.80736 -0.270308,-0.16887 -0.377007,-1.49114 -0.377007,-1.49114 0.377007,-0.0988 1.861027,0.11821 1.861027,0.11821 -0.0987,-0.33434 0.385897,-1.10167 0.385897,-1.10167 l 0.769131,1.64672 c 0,0 2.310058,-0.66331 1.96595,2.52436 0,0 0.278308,0.329 0.944293,0.5975 0,0 0.382344,-1.19679 0.10402,-1.69829 -0.279198,-0.49081 -0.928288,-1.69565 -1.091897,-1.75166 0,0 0.987865,0.26496 1.198599,0.43925 0,0 0.656205,-0.65621 0.656205,-0.93452 0,0 1.540038,1.65119 1.424447,2.57857 -0.102256,0.93275 -1.266176,1.69477 -1.531148,1.80325 l 0.38501,0.33966 c 0,0 3.950571,-1.65207 5.538624,1.58271 0,0 0.220517,-1.37732 0.106692,-1.70364 0,0 -2.147339,-0.24625 -0.922065,-2.90845 0.537055,-1.19683 -0.120051,-1.6921 -0.120051,-1.6921 0,0 1.75077,0.27831 2.090432,1.59516 0,0 0.924734,-0.7718 0.701554,-1.59516 0,0 1.656519,0.71133 1.210155,3.12987 -0.268526,1.47068 -1.531145,1.69386 -1.531145,1.69386 0,0 -0.881166,2.7911 0.600188,5.10114 0,0 1.371985,-1.20481 1.532925,-1.69829 0,0 -1.088341,-1.64497 -0.272086,-2.85157 0.819812,-1.2066 1.537371,-0.87672 1.865474,-1.15324 0,0 1.040326,-1.25908 1.095454,-1.6005 0,0 0.3859,1.10523 0.216055,1.38354 0,0 1.427113,-0.38324 1.699198,-0.38324 0,0 -0.109363,1.37111 -0.272085,1.5267 0,0 0.765574,0.71224 1.362205,0.50417 0,0 -0.753125,0.92917 -1.199486,1.03677 0,0 -0.657095,3.07385 -3.842093,2.35897 0,0 -1.194153,1.26348 -1.313301,1.64851 0,0 1.313301,1.75609 1.313301,2.18556 0,0 1.701867,-0.55128 2.147339,-0.21777 0,0 2.89424,-1.15592 3.009832,-6.29353 l 0.770018,-0.16988 c 0,0 -0.332547,-1.6005 0,-2.57948 0,0 -2.902241,-3.12629 -0.989642,-4.10794 0,0 0.48993,0.93005 1.092787,1.1977 0,0 0.994088,-0.26765 1.207489,-0.93005 0,0 1.208378,1.64584 0.771797,3.05696 0,0 -1.312411,1.88324 -1.041216,2.84977 0,0 1.26084,-1.51959 3.563782,-1.1328 0,0 -0.276531,-1.87259 0.885612,-3.34505 0,0 0.158261,0.99052 0.752236,1.47246 0.616193,0.49528 0.500601,1.26261 0.331659,1.4858 l 0.717559,-0.27209 c 0,0 -0.884722,-2.58124 1.261727,-3.185 0,0 0.492599,-1.37464 0.818035,-1.74631 l 0.822478,0.93273 c 0,0 0.931848,-0.88028 1.372875,-0.88028 0,0 0.49082,1.42621 0.377898,1.69386 0,0 0.99231,0.11216 1.270619,-0.0507 0,0 -1.042993,1.75077 -1.270619,1.86727 0,0 0.6073,2.94848 -3.734504,2.19357 l -1.351534,1.1977 c 0,0 0.433025,0.66243 0.433025,0.86695 0,0 2.516343,-0.86695 2.957368,-1.30974 0,0 0,1.53381 -0.224952,1.98371 0,0 1.542704,0.43304 2.033524,0.26321 0,0 -0.604632,1.81744 -2.033524,2.03975 0,0 0.503268,0.76912 -0.598411,0.6064 0,0 -0.986975,0.32723 -1.215491,0.64466 0,0 -0.642868,-0.93096 -0.986086,-0.98699 0,0 -1.468017,0.54863 -2.021967,0.28454 0,0 0.28809,-0.88116 0.05779,-1.09102 l -0.212501,-0.23037 0.212501,0.23037 c 0,0 -2.029967,0.089 -1.917932,0.97631 0,0 0.274752,1.58807 0.274752,1.80947 0,0 1.529368,0.27385 1.801453,0.48993 l 0.07204,2.08333 -1.71076,-0.55395 c 0,0 -0.549504,2.85776 -2.411421,2.52788 -1.868153,-0.31655 -2.254053,-1.20393 -0.712236,-3.77806 0,0 -3.122757,0.31566 -3.080075,4.59878 0,0 0.176055,0.38233 0.785133,0.16988 0,0 -0.116472,1.0901 -0.279198,1.47513 0,0 1.690308,-1.1506 3.015168,-0.65444 0,0 0.925621,-1.31952 2.626596,-0.71133 0,0 0.881166,0 0.70778,-2.20247 l 0.828702,-0.0534 0.05779,1.22084 c 0,0 1.369319,-0.67221 1.540928,-0.99143 0,0 -0.720226,-1.98018 1.252837,-2.69595 0,0 0.665095,-1.02878 0.989641,-1.14613 0,0 0.431249,1.47778 0.377008,1.81121 0,0 1.647627,-0.27919 2.035303,-0.15828 0,0 -0.224952,1.29996 -0.494376,1.64408 0,0 0.819813,0.36899 1.096344,0.76466 0,0 -2.965374,1.64141 -4.38893,1.03677 0,0 -1.864584,0.54951 -2.198023,0.9852 0,0 0.829594,0.49616 2.139339,-0.32453 v 0.82069 h 0.616193 c 0,0 3.168992,-2.19712 4.430719,0.65444 0,0 0.818932,0.385 1.316862,0.15904 0,0 -0.2214,0.99677 -0.66065,1.09636 0,0 0.66065,1.0501 0.66065,1.59604 0,0 -0.930962,0.27387 -1.479579,0.0542 0,0 0,1.16214 -0.113824,1.48491 0,0 -1.093675,-0.82515 -1.26084,-1.26528 0,0 -2.967151,0.44013 -3.065847,-2.51279 l -0.713098,-0.22759 c 0,0 -0.882942,0.65797 -1.25995,0.77091 0,0 0.980752,0.54417 1.200376,0.81267 0,0 -0.48015,1.26798 -0.86605,1.31688 0,0 -3.408178,-1.74455 -4.335579,-0.55128 0,0 1.697421,0.99854 2.080651,1.42709 0,0 3.561116,-0.81267 2.901354,2.19448 l 0.219634,0.33255 c 0,0 1.762329,0.16812 2.366073,3.29436 0,0 -2.137557,0.55395 -2.691509,-2.51813 0,0 -0.220516,0.096 -0.38412,0.26498 0,0 0.229413,0.54951 0.113824,0.75934 0,0 2.466549,2.42833 -0.824258,5.05139 0,0 -1.217271,-1.36489 -1.217271,-1.98107 0,0 -1.471571,-0.47216 -2.182905,0.33076 0,0 -0.163604,-2.72529 3.184108,-3.01517 l 0.05336,-0.59574 c 0,0 -1.151471,0.71221 -1.644958,0.81893 0,0 -1.105235,0 -2.02908,-1.31508 0,0 3.288141,-1.09457 2.965374,-1.47158 -0.345888,-0.38679 -3.891885,1.85746 -6.472251,0.54505 0,0 -0.280975,0.48905 -0.66065,0.54152 0,0 -1.151473,2.08066 -0.381453,4.11417 0,0 2.547464,1.78011 0.626862,3.66871 0,0 0.302318,2.543 0.741566,2.76975"
       style="fill:#b2b1b1;fill-opacity:1;fill-rule:nonzero;stroke:none;stroke-width:0.88916737"
       id="path4593"
       inkscape:connector-curvature="0" />
    <path
       d="m 160.0694,234.61217 c -0.16106,0 -0.30498,-0.0151 -0.44192,-0.0489 -0.12804,-0.0151 -0.28007,-0.031 -0.44012,-0.031 -0.31922,0 -1.07413,0.32101 -2.27718,0.96297 -1.20304,0.64288 -2.7244,1.36131 -4.56319,2.15624 -1.84414,0.79579 -3.93724,1.50269 -6.28642,2.07977 -2.34829,0.59395 -4.80239,0.88293 -7.36053,0.88293 -3.36461,0 -6.59139,-0.42236 -9.68659,-1.28396 -3.09519,-0.85003 -5.83294,-2.16511 -8.21235,-3.96213 -2.38119,-1.78188 -4.27245,-4.01192 -5.66577,-6.68564 -1.38977,-2.66749 -2.08599,-5.79381 -2.08599,-9.3656 0,-3.52111 0.69622,-6.63319 2.08599,-9.32914 1.39332,-2.69506 3.28458,-4.958 5.66577,-6.77102 2.37941,-1.81301 5.11716,-3.17611 8.21235,-4.07506 3.0952,-0.91317 6.32198,-1.3631 9.68659,-1.3631 2.71908,0 5.1883,0.20996 7.40054,0.64555 2.21314,0.4188 4.1533,0.8865 5.80627,1.36665 1.65118,0.4766 2.95826,0.93807 3.92033,1.35687 0.96119,0.43569 1.54806,0.64464 1.76499,0.64464 0.2641,0 0.48729,-0.12804 0.68023,-0.4028 0.185,-0.25784 0.32988,-0.4837 0.43748,-0.64463 l 1.19859,0.96652 -6.23752,9.70171 -0.80291,-0.56106 c 0,-0.15904 -0.0161,-0.3201 -0.04,-0.48105 -0.0302,-0.16106 -0.0702,-0.34143 -0.11914,-0.56106 -0.11113,-0.57618 -0.64287,-1.18616 -1.60406,-1.79523 -0.96208,-0.60908 -2.14822,-1.15947 -3.56022,-1.63695 -1.41467,-0.47927 -2.91114,-0.8794 -4.4823,-1.20126 -1.5756,-0.32101 -3.03116,-0.48194 -4.36225,-0.48194 -2.24426,0 -4.39427,0.32098 -6.44735,0.96209 -2.05309,0.64108 -3.84121,1.57026 -5.36346,2.78752 -1.51603,1.23506 -2.73508,2.74041 -3.64025,4.52231 -0.90695,1.79168 -1.3631,3.82699 -1.3631,6.11659 0,2.29761 0.45615,4.34179 1.3631,6.12102 0.90517,1.79523 2.12422,3.30059 3.64025,4.51876 1.52225,1.23506 3.31037,2.16423 5.36346,2.80443 2.05308,0.64108 4.20309,0.96118 6.44735,0.96118 1.70809,0 3.49532,-0.20189 5.36435,-0.59929 1.86636,-0.39657 3.57356,-0.90694 5.12071,-1.51692 1.54893,-0.62508 2.84267,-1.31509 3.88388,-2.08509 1.03677,-0.76824 1.55605,-1.50626 1.55605,-2.19715 0,-0.385 -0.10402,-0.7051 -0.31833,-0.96207 l 1.11947,-0.64108 5.28522,8.48266 z"
       style="fill:#b01220;fill-opacity:1;fill-rule:nonzero;stroke:none;stroke-width:0.88916737"
       id="path4595"
       inkscape:connector-curvature="0" />
    <path
       d="m 173.32155,227.17697 0.80204,0.40013 c 0,0.48191 0.10586,0.91493 0.32186,1.28216 0.37613,0.64376 1.10614,1.26886 2.20247,1.88683 1.09547,0.61706 2.34651,1.16214 3.76831,1.64229 1.412,0.4828 2.89512,0.86692 4.44493,1.15501 1.54538,0.29878 2.93694,0.44905 4.16222,0.44905 0.90961,0 2.08153,-0.0711 3.52553,-0.20971 1.44489,-0.12804 2.85689,-0.41525 4.24222,-0.83317 1.39067,-0.43478 2.59548,-1.01363 3.60647,-1.76677 1.01098,-0.75312 1.52491,-1.73386 1.52491,-2.9698 0,-1.21817 -0.46591,-2.13313 -1.40222,-2.71196 -0.93986,-0.59397 -2.158,-1.02523 -3.68291,-1.28398 -1.52315,-0.27385 -3.25525,-0.4499 -5.20698,-0.53081 -1.9455,-0.0802 -3.93456,-0.1913 -5.96097,-0.35211 -2.03264,-0.16106 -4.02172,-0.43304 -5.96276,-0.80204 -1.94818,-0.3699 -3.68826,-0.99498 -5.20342,-1.87881 -1.52403,-0.88295 -2.75107,-2.08688 -3.68738,-3.61182 -0.93184,-1.52491 -1.39687,-3.51664 -1.39687,-5.97254 0,-1.65207 0.38412,-3.27389 1.15858,-4.87886 0.7718,-1.60405 1.95796,-3.01784 3.56113,-4.25378 1.59871,-1.21993 3.62157,-2.22469 6.081,-3.00271 2.44967,-0.77001 5.32879,-1.15504 8.63381,-1.15504 2.83201,0 5.28344,0.20996 7.36677,0.64555 2.0771,0.4188 3.87855,0.8865 5.40168,1.36665 1.51871,0.4766 2.78933,0.93807 3.82966,1.35687 1.04209,0.43569 1.90724,0.64464 2.61058,0.64464 0.73802,0 1.27062,-0.16106 1.58805,-0.48371 l 0.96209,0.64555 -5.51283,10.02002 -0.80116,-0.31922 c -0.11191,-0.75223 -0.3201,-1.36219 -0.63929,-1.84501 -0.43393,-0.64108 -1.13815,-1.26619 -2.11622,-1.87614 -0.9941,-0.60907 -2.14734,-1.15771 -3.4811,-1.63607 -1.34087,-0.48015 -2.78041,-0.87138 -4.32136,-1.16925 -1.5516,-0.28988 -3.09431,-0.43392 -4.64322,-0.43392 -1.17459,0 -2.38653,0.095 -3.63936,0.27297 -1.25106,0.19307 -2.3821,0.46505 -3.39841,0.84917 -1.0101,0.36988 -1.85123,0.86692 -2.51545,1.47423 -0.6731,0.60998 -1.00121,1.37822 -1.00121,2.27538 0,1.28307 0.46414,2.24514 1.40221,2.88625 0.93008,0.64196 2.15803,1.12299 3.67939,1.44221 1.51781,0.32189 3.25436,0.52905 5.20607,0.64199 1.94371,0.0968 3.93012,0.23919 5.96631,0.40013 2.02286,0.16105 4.01104,0.43301 5.96365,0.83314 1.94462,0.40191 3.67672,1.04211 5.20075,1.92327 1.52403,0.88116 2.74217,2.0682 3.68826,3.55843 0.93096,1.49114 1.39689,3.44643 1.39689,5.84362 0,2.77689 -0.73981,5.0407 -2.19893,6.80302 -1.47602,1.76234 -3.30591,3.14144 -5.48793,4.15152 -2.19803,1.02523 -4.55697,1.69832 -7.09201,2.05131 -2.5359,0.33611 -4.89487,0.51305 -7.08844,0.51305 -3.04095,0 -5.5893,-0.17694 -7.64684,-0.51216 -2.0593,-0.35121 -3.76828,-0.78246 -5.12337,-1.2795 -1.3631,-0.51128 -2.447,-0.95942 -3.24901,-1.35954 -0.79758,-0.39836 -1.49203,-0.60464 -2.0771,-0.60464 -0.3779,0 -0.7229,0.2213 -1.04388,0.63577 l -1.12303,-0.63577 z"
       style="fill:#b01220;fill-opacity:1;fill-rule:nonzero;stroke:none;stroke-width:0.88916737"
       id="path4597"
       inkscape:connector-curvature="0" />
    <path
       d="m 221.35794,238.9611 c 1.38621,0 2.08509,-0.48103 2.08509,-1.4458 v -36.36072 c 0,-0.96297 -0.69888,-1.44312 -2.08509,-1.44312 v -1.43067 H 234.651 v 1.43067 c -1.39511,0 -2.08423,0.48015 -2.08423,1.44312 v 36.36072 c 0,0.96477 0.68912,1.4458 2.08423,1.4458 v 1.444 h -13.29306 z"
       style="fill:#b01220;fill-opacity:1;fill-rule:nonzero;stroke:none;stroke-width:0.88916737"
       id="path4599"
       inkscape:connector-curvature="0" />
    <path
       d="m 290.2933,234.61217 c -0.15829,0 -0.31388,-0.0151 -0.44192,-0.0489 -0.12905,-0.0151 -0.27475,-0.031 -0.43302,-0.031 -0.32189,0 -1.09013,0.32101 -2.29315,0.96297 -1.19949,0.64288 -2.71019,1.36131 -4.55432,2.15624 -1.84413,0.79579 -3.94613,1.50269 -6.28642,2.07977 -2.34207,0.59395 -4.80417,0.88293 -7.36051,0.88293 -3.36819,0 -6.5923,-0.42236 -9.6875,-1.28396 -3.09431,-0.85003 -5.84092,-2.16511 -8.22035,-3.96213 -2.38119,-1.78188 -4.26444,-4.01192 -5.64977,-6.68564 -1.40133,-2.66749 -2.09398,-5.79381 -2.09398,-9.3656 0,-3.52111 0.69265,-6.63319 2.09398,-9.32914 1.38533,-2.69506 3.26858,-4.958 5.64977,-6.77102 2.37943,-1.81301 5.12604,-3.17611 8.22035,-4.07506 3.0952,-0.91317 6.31931,-1.3631 9.6875,-1.3631 2.71462,0 5.18028,0.20996 7.39963,0.64555 2.22114,0.4188 4.14618,0.8865 5.79828,1.36665 1.66273,0.4766 2.96715,0.93807 3.92833,1.35687 0.96207,0.43569 1.54448,0.64464 1.76499,0.64464 0.25608,0 0.49172,-0.12804 0.67221,-0.4028 0.19307,-0.25784 0.3379,-0.4837 0.45081,-0.64463 l 1.19683,0.96652 -6.24907,9.70171 -0.80292,-0.56106 c 0,-0.15904 -0.0151,-0.3201 -0.0312,-0.48105 -0.032,-0.16106 -0.0633,-0.34143 -0.12804,-0.56106 -0.096,-0.57618 -0.64199,-1.18616 -1.60139,-1.79523 -0.95319,-0.60908 -2.14111,-1.15947 -3.56289,-1.63695 -1.41111,-0.47927 -2.90313,-0.8794 -4.47341,-1.20126 -1.57293,-0.32101 -3.03115,-0.48194 -4.36224,-0.48194 -2.24516,0 -4.39427,0.32098 -6.44825,0.96209 -2.0522,0.64108 -3.8492,1.57026 -5.36078,2.78752 -1.51871,1.23506 -2.73685,2.74041 -3.65093,4.52231 -0.89804,1.79168 -1.35153,3.82699 -1.35153,6.11659 0,2.29761 0.45349,4.34179 1.35153,6.12102 0.91408,1.79523 2.13222,3.30059 3.65093,4.51876 1.51158,1.23506 3.30858,2.16423 5.36078,2.80443 2.05398,0.64108 4.20309,0.96118 6.44825,0.96118 1.6992,0 3.49441,-0.20189 5.35546,-0.59929 1.87614,-0.39657 3.57534,-0.90694 5.13138,-1.51692 1.54092,-0.62508 2.83999,-1.31509 3.8812,-2.08509 1.04212,-0.76824 1.55695,-1.50626 1.55695,-2.19715 0,-0.385 -0.11191,-0.7051 -0.32098,-0.96207 l 1.12211,-0.64108 5.2781,8.48266 z"
       style="fill:#b01220;fill-opacity:1;fill-rule:nonzero;stroke:none;stroke-width:0.88916737"
       id="path4601"
       inkscape:connector-curvature="0" />
  </g>
</svg>
